%TF.GenerationSoftware,KiCad,Pcbnew,8.0.1*%
%TF.CreationDate,2024-04-21T01:40:20+02:00*%
%TF.ProjectId,EKO_Miner_BM1366-13xx_16-01A,454b4f5f-4d69-46e6-9572-5f424d313336,rev?*%
%TF.SameCoordinates,Original*%
%TF.FileFunction,Profile,NP*%
%FSLAX46Y46*%
G04 Gerber Fmt 4.6, Leading zero omitted, Abs format (unit mm)*
G04 Created by KiCad (PCBNEW 8.0.1) date 2024-04-21 01:40:20*
%MOMM*%
%LPD*%
G01*
G04 APERTURE LIST*
%TA.AperFunction,Profile*%
%ADD10C,0.100000*%
%TD*%
G04 APERTURE END LIST*
D10*
X74750000Y-73850000D02*
X74750000Y-125000000D01*
X74750000Y-27550000D02*
X74750000Y-25250000D01*
X74750000Y-125000000D02*
X214750000Y-125000000D01*
X74750000Y-47850000D02*
X74750000Y-53550000D01*
X74750000Y-25250000D02*
X214750000Y-25250000D01*
X214750000Y-125000000D02*
X214750000Y-25250000D01*
%TO.C,J2*%
X66350000Y-54050000D02*
X66350000Y-64250000D01*
X66350000Y-67150000D02*
X66350000Y-73350000D01*
X66850000Y-53550000D02*
X66350000Y-54050000D01*
X66850000Y-64750000D02*
X66350000Y-64250000D01*
X66850000Y-66650000D02*
X66350000Y-67150000D01*
X66850000Y-73850000D02*
X66350000Y-73350000D01*
X73800000Y-64750000D02*
X66850000Y-64750000D01*
X73800000Y-66650000D02*
X66850000Y-66650000D01*
X74750000Y-53550000D02*
X66850000Y-53550000D01*
X74750000Y-73850000D02*
X66850000Y-73850000D01*
X73800000Y-64750000D02*
G75*
G02*
X73800000Y-66650000I0J-950000D01*
G01*
%TO.C,J1*%
X66350000Y-28050000D02*
X66350000Y-38250000D01*
X66350000Y-41150000D02*
X66350000Y-47350000D01*
X66850000Y-27550000D02*
X66350000Y-28050000D01*
X66850000Y-38750000D02*
X66350000Y-38250000D01*
X66850000Y-40650000D02*
X66350000Y-41150000D01*
X66850000Y-47850000D02*
X66350000Y-47350000D01*
X73800000Y-38750000D02*
X66850000Y-38750000D01*
X73800000Y-40650000D02*
X66850000Y-40650000D01*
X74750000Y-27550000D02*
X66850000Y-27550000D01*
X74750000Y-47850000D02*
X66850000Y-47850000D01*
X73800000Y-38750000D02*
G75*
G02*
X73800000Y-40650000I0J-950000D01*
G01*
%TD*%
M02*
