M48
; DRILL file {KiCad 8.0.1} date 2024-04-21T01:40:24+0200
; FORMAT={-:-/ absolute / inch / decimal}
; #@! TF.CreationDate,2024-04-21T01:40:24+02:00
; #@! TF.GenerationSoftware,Kicad,Pcbnew,8.0.1
; #@! TF.FileFunction,Plated,1,6,PTH
FMAT,2
INCH
; #@! TA.AperFunction,Plated,PTH,ViaDrill
T1C0.0098
; #@! TA.AperFunction,Plated,PTH,ComponentDrill
T2C0.0098
; #@! TA.AperFunction,Plated,PTH,ViaDrill
T3C0.0118
; #@! TA.AperFunction,Plated,PTH,ComponentDrill
T4C0.0118
; #@! TA.AperFunction,Plated,PTH,ViaDrill
T5C0.0157
; #@! TA.AperFunction,Plated,PTH,ViaDrill
T6C0.0236
; #@! TA.AperFunction,Plated,PTH,ComponentDrill
T7C0.0402
; #@! TA.AperFunction,Plated,PTH,ComponentDrill
T8C0.1614
%
G90
G05
T1
X2.9829Y-3.3413
X3.0019Y-2.8435
X3.0022Y-2.8816
X3.0214Y-3.2713
X3.0229Y-2.9813
X3.0295Y-2.7008
X3.0329Y-2.7677
X3.0429Y-2.6213
X3.0453Y-2.8425
X3.0529Y-2.5313
X3.0529Y-3.3813
X3.0529Y-4.1025
X3.0965Y-2.7953
X3.0984Y-3.0668
X3.1476Y-2.8386
X3.1529Y-3.0713
X3.1555Y-3.0315
X3.1729Y-2.7913
X3.1988Y-2.9685
X3.2017Y-3.6613
X3.2017Y-3.9513
X3.2031Y-3.0677
X3.2059Y-1.748
X3.2229Y-2.7613
X3.2322Y-2.8406
X3.2322Y-3.0216
X3.2343Y-1.8197
X3.2529Y-2.6696
X3.2729Y-1.5113
X3.2729Y-1.3613
X3.2729Y-1.3913
X3.2729Y-1.4213
X3.2729Y-1.4513
X3.2729Y-1.4813
X3.2729Y-1.5413
X3.2829Y-1.6913
X3.3029Y-1.3613
X3.3029Y-1.3913
X3.3029Y-1.4213
X3.3029Y-1.4513
X3.3029Y-1.4813
X3.3029Y-1.5113
X3.3029Y-1.5413
X3.3229Y-2.5713
X3.3287Y-1.6913
X3.3329Y-1.3613
X3.3329Y-1.3913
X3.3329Y-1.4213
X3.3329Y-1.4513
X3.3329Y-1.4813
X3.3329Y-1.5113
X3.3329Y-1.5413
X3.3329Y-3.1613
X3.3329Y-4.0013
X3.334Y-4.2313
X3.3529Y-3.6413
X3.3529Y-3.8413
X3.3581Y-1.3613
X3.3629Y-1.2229
X3.3629Y-1.5113
X3.3629Y-1.5413
X3.3674Y-1.6613
X3.3729Y-3.2113
X3.3871Y-4.3362
X3.3929Y-1.2229
X3.3929Y-4.2513
X3.4029Y-3.1413
X3.4029Y-4.3013
X3.4034Y-4.0075
X3.4068Y-3.2611
X3.4099Y-4.18
X3.4173Y-3.437
X3.4229Y-1.3513
X3.4229Y-1.4213
X3.4229Y-1.4513
X3.4229Y-1.6113
X3.4319Y-1.2874
X3.4329Y-2.3484
X3.439Y-2.2756
X3.4408Y-3.9622
X3.4498Y-1.3213
X3.4528Y-3.4803
X3.4529Y-1.2213
X3.4547Y-1.8157
X3.4705Y-2.2113
X3.4744Y-2.6811
X3.4829Y-1.6113
X3.488Y-4.1866
X3.488Y-4.226
X3.488Y-4.2654
X3.488Y-4.3047
X3.4929Y-3.1378
X3.4929Y-3.1772
X3.4929Y-3.2213
X3.4929Y-3.2613
X3.5028Y-1.2874
X3.5029Y-1.4213
X3.5029Y-1.4509
X3.5216Y-2.3125
X3.5216Y-2.57
X3.5226Y-2.6409
X3.5429Y-2.7113
X3.5629Y-3.2613
X3.5629Y-4.1813
X3.5829Y-2.7113
X3.6029Y-1.4013
X3.6029Y-1.9213
X3.6046Y-1.4313
X3.6046Y-1.4613
X3.6046Y-1.4913
X3.6046Y-1.5213
X3.6229Y-2.7313
X3.6248Y-1.2874
X3.6329Y-1.4013
X3.6329Y-1.4313
X3.6329Y-1.4613
X3.6329Y-1.4913
X3.6329Y-1.5213
X3.6329Y-4.1813
X3.6329Y-4.2213
X3.6329Y-4.2654
X3.6329Y-4.3047
X3.6378Y-3.1378
X3.6378Y-3.1772
X3.6378Y-3.2165
X3.6378Y-3.2559
X3.6629Y-1.4013
X3.6629Y-1.4313
X3.6629Y-1.4613
X3.6629Y-1.4913
X3.6629Y-1.5213
X3.6731Y-3.9622
X3.685Y-3.4803
X3.6929Y-1.4013
X3.6929Y-1.4313
X3.6929Y-1.4613
X3.6929Y-1.4913
X3.6929Y-1.5213
X3.6929Y-4.2713
X3.7085Y-4.0055
X3.7129Y-1.3313
X3.7184Y-4.1814
X3.7224Y-3.435
X3.7229Y-1.4013
X3.7229Y-1.4313
X3.7229Y-1.4613
X3.7229Y-1.4913
X3.7229Y-1.5213
X3.7229Y-3.1413
X3.7272Y-3.2574
X3.7329Y-3.1913
X3.7529Y-4.2313
X3.7629Y-3.3213
X3.7929Y-3.2113
X3.7929Y-4.2713
X3.8429Y-3.2513
X3.8629Y-3.3513
X3.9129Y-3.2913
X3.9529Y-3.3913
X3.964Y-4.2313
X3.9729Y-3.1713
X4.0029Y-3.2113
X4.0171Y-4.3362
X4.0229Y-4.2513
X4.0329Y-3.1413
X4.0329Y-4.3013
X4.0334Y-4.0075
X4.0386Y-4.1852
X4.0415Y-3.2589
X4.0516Y-3.437
X4.0708Y-3.9622
X4.087Y-3.4803
X4.118Y-4.1866
X4.118Y-4.226
X4.118Y-4.2654
X4.118Y-4.3047
X4.1272Y-3.1378
X4.1272Y-3.1772
X4.1272Y-3.2213
X4.1272Y-3.2613
X4.1929Y-4.1813
X4.1972Y-3.2613
X4.2629Y-4.1813
X4.2629Y-4.2213
X4.2629Y-4.2654
X4.2629Y-4.3047
X4.2721Y-3.1378
X4.2721Y-3.1772
X4.2721Y-3.2165
X4.2721Y-3.2559
X4.3031Y-3.9622
X4.3193Y-3.4803
X4.3229Y-4.2713
X4.3385Y-4.0055
X4.3484Y-4.1852
X4.3567Y-3.435
X4.3572Y-3.1413
X4.3629Y-3.2613
X4.3672Y-3.1913
X4.3819Y-3.6437
X4.3819Y-3.7638
X4.3829Y-4.2313
X4.4229Y-4.2713
X4.4261Y-3.2113
X4.594Y-4.2313
X4.6029Y-3.1713
X4.6429Y-3.2113
X4.6471Y-4.3362
X4.6529Y-4.2513
X4.6629Y-4.3013
X4.6634Y-4.0075
X4.6686Y-4.1852
X4.6729Y-3.1413
X4.6756Y-3.2611
X4.6859Y-3.437
X4.7008Y-3.9622
X4.7129Y-2.2713
X4.7213Y-3.4803
X4.7229Y-2.3513
X4.748Y-4.1866
X4.748Y-4.226
X4.748Y-4.2654
X4.748Y-4.3047
X4.7526Y-2.6811
X4.7529Y-2.2013
X4.7615Y-3.1378
X4.7615Y-3.1772
X4.7615Y-3.2213
X4.7615Y-3.2613
X4.7929Y-2.6413
X4.7999Y-2.3125
X4.8029Y-2.5713
X4.8211Y-2.7113
X4.8229Y-4.1813
X4.8315Y-3.2613
X4.8611Y-2.7113
X4.8929Y-4.1813
X4.8929Y-4.2213
X4.8929Y-4.2654
X4.8929Y-4.3047
X4.9029Y-2.7413
X4.9064Y-3.1378
X4.9064Y-3.1772
X4.9064Y-3.2165
X4.9064Y-3.2559
X4.9331Y-3.9622
X4.9529Y-4.2713
X4.9536Y-3.4803
X4.9685Y-4.0055
X4.9784Y-4.1814
X4.991Y-3.435
X4.9915Y-3.1413
X5.0015Y-3.1913
X5.0029Y-3.2615
X5.0129Y-4.2313
X5.0529Y-4.2713
X5.0629Y-3.2113
X5.2306Y-4.2313
X5.2429Y-3.1713
X5.2729Y-3.2113
X5.2837Y-4.3362
X5.2895Y-4.2513
X5.2995Y-4.3013
X5.2999Y-4.0075
X5.3029Y-3.1413
X5.3051Y-4.1852
X5.3099Y-3.258
X5.3202Y-3.437
X5.3373Y-3.9622
X5.3556Y-3.4803
X5.3846Y-4.1866
X5.3846Y-4.226
X5.3846Y-4.2654
X5.3846Y-4.3047
X5.3958Y-3.1378
X5.3958Y-3.1772
X5.3958Y-3.2213
X5.3958Y-3.2613
X5.4595Y-4.1813
X5.4658Y-3.2613
X5.5295Y-4.1813
X5.5295Y-4.2213
X5.5295Y-4.2654
X5.5295Y-4.3047
X5.5407Y-3.1378
X5.5407Y-3.1772
X5.5407Y-3.2165
X5.5407Y-3.2559
X5.5696Y-3.9622
X5.5879Y-3.4803
X5.5895Y-4.2713
X5.6051Y-4.0055
X5.6129Y-1.3313
X5.6164Y-4.1852
X5.6253Y-3.435
X5.6258Y-3.1413
X5.6334Y-3.2574
X5.6356Y-3.1907
X5.6429Y-1.67
X5.6429Y-1.8725
X5.6517Y-1.4513
X5.6517Y-1.5913
X5.6529Y-4.2313
X5.6829Y-4.2713
X5.6929Y-1.67
X5.6929Y-3.2113
X5.6929Y-1.8725
X5.7329Y-1.5213
X5.7529Y-1.67
X5.7829Y-1.1129
X5.7972Y-1.9535
X5.8029Y-1.67
X5.8031Y-1.1913
X5.8366Y-1.9507
X5.8429Y-1.0813
X5.8606Y-4.2313
X5.8729Y-3.1713
X5.9029Y-1.4013
X5.9029Y-1.9413
X5.9129Y-3.2113
X5.9137Y-4.3362
X5.9195Y-4.2513
X5.9229Y-1.6113
X5.9295Y-4.3013
X5.9299Y-4.0075
X5.9351Y-4.1852
X5.9429Y-3.1413
X5.9429Y-2.7954
X5.9442Y-3.2611
X5.9529Y-1.41
X5.9545Y-3.437
X5.9618Y-1.5748
X5.9629Y-2.3513
X5.9629Y-1.9654
X5.9673Y-3.9622
X5.9898Y-2.2712
X5.9899Y-3.4803
X6.0029Y-1.41
X6.0129Y-1.7013
X6.0146Y-4.1866
X6.0146Y-4.226
X6.0146Y-4.2654
X6.0146Y-4.3047
X6.0185Y-1.8606
X6.0301Y-3.1378
X6.0301Y-3.1772
X6.0301Y-3.2213
X6.0301Y-3.2613
X6.0308Y-2.6811
X6.0329Y-2.2013
X6.0529Y-1.0513
X6.0729Y-2.6413
X6.0781Y-2.3125
X6.0781Y-2.5764
X6.0829Y-1.6313
X6.0829Y-1.7713
X6.0895Y-4.1813
X6.0993Y-2.7113
X6.1001Y-3.2613
X6.1029Y-1.41
X6.1029Y-1.5113
X6.1393Y-2.7113
X6.1433Y-1.9516
X6.1516Y-1.4526
X6.1529Y-1.7013
X6.1595Y-4.1813
X6.1595Y-4.2213
X6.1595Y-4.2654
X6.1595Y-4.3047
X6.1617Y-1.3913
X6.1749Y-3.1378
X6.1749Y-3.1772
X6.1749Y-3.2165
X6.1749Y-3.2559
X6.1829Y-2.7413
X6.1951Y-1.9513
X6.1996Y-3.9622
X6.2195Y-4.2713
X6.2222Y-3.4803
X6.2351Y-4.0055
X6.2378Y-1.9864
X6.2429Y-1.6713
X6.2451Y-4.1814
X6.2491Y-1.7033
X6.253Y-3.2626
X6.2596Y-3.435
X6.2601Y-3.1413
X6.2642Y-1.3913
X6.2701Y-3.1913
X6.2758Y-3.1063
X6.2829Y-4.2313
X6.3029Y-1.1696
X6.3029Y-1.6024
X6.3029Y-1.6413
X6.3029Y-1.8713
X6.304Y-1.9213
X6.3129Y-4.2713
X6.3329Y-3.2113
X6.3346Y-1.7216
X6.3529Y-1.1413
X6.3529Y-1.748
X6.3529Y-1.9525
X6.3642Y-1.5613
X6.3642Y-1.6813
X6.3829Y-1.7824
X6.4029Y-1.9525
X6.4342Y-1.8313
X6.4429Y-1.2702
X6.4429Y-1.4824
X6.484Y-4.2313
X6.5129Y-3.1713
X6.5229Y-1.2513
X6.5371Y-4.3362
X6.5429Y-3.2113
X6.5429Y-4.2513
X6.5529Y-4.3013
X6.5534Y-4.0075
X6.5595Y-4.1888
X6.5629Y-1.1113
X6.5729Y-3.1413
X6.5785Y-3.2611
X6.5829Y-1.9513
X6.5888Y-3.437
X6.5908Y-3.9622
X6.6242Y-3.4803
X6.638Y-4.1866
X6.638Y-4.226
X6.638Y-4.2654
X6.638Y-4.3047
X6.6643Y-3.1378
X6.6643Y-3.1772
X6.6643Y-3.2213
X6.6643Y-3.2613
X6.6817Y-1.2513
X6.7029Y-1.4013
X6.7029Y-1.453
X6.704Y-1.3513
X6.7129Y-4.1813
X6.7343Y-3.2613
X6.7442Y-1.2913
X6.7446Y-1.563
X6.7629Y-1.8113
X6.7829Y-4.1813
X6.7829Y-4.2213
X6.7829Y-4.2654
X6.7829Y-4.3047
X6.8026Y-1.8113
X6.8092Y-3.1378
X6.8092Y-3.1772
X6.8092Y-3.2165
X6.8092Y-3.2559
X6.8129Y-1.0813
X6.8231Y-3.9622
X6.8429Y-4.2713
X6.8429Y-1.8113
X6.844Y-1.3313
X6.8565Y-3.4803
X6.8585Y-4.0055
X6.8684Y-4.1814
X6.8873Y-3.2626
X6.8939Y-3.435
X6.8943Y-3.1413
X6.9029Y-4.2313
X6.9043Y-3.1913
X6.9129Y-1.8113
X6.9162Y-1.538
X6.9317Y-1.2513
X6.937Y-3.6447
X6.937Y-3.7638
X6.9429Y-4.2713
X6.9529Y-1.8113
X6.9546Y-1.513
X6.9629Y-3.2113
X7.0029Y-1.8113
X7.0042Y-1.2913
X7.0413Y-1.1213
X7.0829Y-1.1513
X7.1137Y-1.6371
X7.114Y-4.2313
X7.1529Y-3.1713
X7.1531Y-1.5623
X7.1671Y-4.3362
X7.1729Y-4.2513
X7.1829Y-3.2113
X7.1829Y-4.3013
X7.1834Y-4.0075
X7.1905Y-4.1852
X7.2129Y-3.1405
X7.2175Y-3.2604
X7.2208Y-3.9622
X7.2273Y-3.4362
X7.2627Y-3.4795
X7.2629Y-1.6025
X7.268Y-4.1866
X7.268Y-4.226
X7.268Y-4.2654
X7.268Y-4.3047
X7.2729Y-2.2713
X7.2829Y-2.3513
X7.3029Y-3.137
X7.3029Y-3.1764
X7.3029Y-3.2205
X7.3029Y-3.2605
X7.3051Y-2.2035
X7.3091Y-2.6811
X7.3429Y-4.1813
X7.3529Y-2.6413
X7.3563Y-2.3125
X7.3629Y-2.5713
X7.3729Y-3.2605
X7.3729Y-1.6825
X7.3776Y-2.7113
X7.4129Y-4.1813
X7.4129Y-4.2213
X7.4129Y-4.2654
X7.4129Y-4.3047
X7.4176Y-2.7113
X7.4478Y-3.137
X7.4478Y-3.1764
X7.4478Y-3.2157
X7.4478Y-3.2551
X7.4531Y-3.9622
X7.4576Y-2.7413
X7.4729Y-4.2713
X7.4885Y-4.0055
X7.495Y-3.4795
X7.4984Y-4.1814
X7.504Y-1.5613
X7.5259Y-3.2618
X7.5324Y-3.4343
X7.5329Y-3.1405
X7.5329Y-4.2313
X7.5429Y-3.1905
X7.5729Y-4.0513
X7.5729Y-4.2713
X7.6029Y-3.2113
X7.6429Y-4.0913
X7.6429Y-4.1813
X7.6829Y-1.3313
X7.6829Y-1.7513
X7.6829Y-1.9513
X7.6829Y-4.1513
X7.7429Y-4.2313
X7.7729Y-3.1713
X7.7729Y-4.1213
X7.7829Y-1.6225
X7.7971Y-4.3362
X7.8027Y-4.2529
X7.8129Y-3.2113
X7.8129Y-4.3013
X7.8134Y-4.0075
X7.8197Y-4.181
X7.8429Y-3.1413
X7.8474Y-3.2611
X7.8508Y-3.9622
X7.8573Y-3.437
X7.8928Y-3.4803
X7.8929Y-1.6825
X7.898Y-4.1866
X7.898Y-4.226
X7.898Y-4.2654
X7.898Y-4.3047
X7.9329Y-3.1378
X7.9329Y-3.1772
X7.9329Y-3.2213
X7.9329Y-3.2613
X7.9729Y-4.1813
X8.0029Y-3.2613
X8.024Y-1.5713
X8.0429Y-4.1813
X8.0429Y-4.2213
X8.0429Y-4.2654
X8.0429Y-4.3047
X8.0778Y-3.1378
X8.0778Y-3.1772
X8.0778Y-3.2165
X8.0778Y-3.2559
X8.0831Y-3.9622
X8.1029Y-4.2713
X8.1185Y-4.0055
X8.125Y-3.4803
X8.1284Y-4.1814
X8.1579Y-3.2615
X8.1624Y-3.435
X8.1629Y-3.1413
X8.1629Y-4.2313
X8.1729Y-3.1913
X8.1771Y-1.4313
X8.1787Y-3.1063
X8.1818Y-1.5613
X8.2025Y-4.2813
X8.2029Y-1.2113
X8.2042Y-1.7713
X8.2318Y-1.6413
X8.2329Y-3.2113
X8.2329Y-3.7413
X8.2629Y-1.202
X8.2829Y-3.6713
X8.3329Y-3.5013
X8.3829Y-3.6713
X8.4129Y-3.7613
T2
X3.0807Y-2.9291
X3.1358Y-2.9291
X3.4862Y-2.4409
X3.5287Y-2.3898
X3.5287Y-2.4409
X3.5287Y-2.4921
X3.5807Y-2.3898
X3.5807Y-2.4409
X3.5807Y-2.4921
X3.6327Y-2.3898
X3.6327Y-2.4409
X3.6327Y-2.4921
X3.6752Y-2.4409
X4.7644Y-2.4409
X4.807Y-2.3898
X4.807Y-2.4409
X4.807Y-2.4921
X4.8589Y-2.3898
X4.8589Y-2.4409
X4.8589Y-2.4921
X4.9109Y-2.3898
X4.9109Y-2.4409
X4.9109Y-2.4921
X4.9534Y-2.4409
X6.0427Y-2.4409
X6.0852Y-2.3898
X6.0852Y-2.4409
X6.0852Y-2.4921
X6.1371Y-2.3898
X6.1371Y-2.4409
X6.1371Y-2.4921
X6.1891Y-2.3898
X6.1891Y-2.4409
X6.1891Y-2.4921
X6.2316Y-2.4409
X7.3209Y-2.4409
X7.3634Y-2.3898
X7.3634Y-2.4409
X7.3634Y-2.4921
X7.4154Y-2.3898
X7.4154Y-2.4409
X7.4154Y-2.4921
X7.4673Y-2.3898
X7.4673Y-2.4409
X7.4673Y-2.4921
X7.5098Y-2.4409
T3
X3.0529Y-3.1913
X3.1729Y-3.3813
X3.3129Y-2.6213
X3.3229Y-3.2713
X3.3629Y-2.7113
X3.4629Y-1.7028
X5.5629Y-1.4013
X5.7329Y-1.2513
X5.8629Y-2.7113
X5.9129Y-2.7113
X8.1629Y-1.2513
T4
X5.9429Y-1.2976
X5.9429Y-1.3449
T5
X3.0129Y-3.7213
X3.0138Y-1.0866
X3.065Y-1.0866
X3.1201Y-1.0866
X3.1329Y-3.4613
X3.1329Y-3.7213
X3.1329Y-3.9713
X3.2529Y-3.4313
X3.3529Y-3.7213
X3.3929Y-3.5713
X3.5029Y-3.0513
X3.5029Y-3.1113
X3.5029Y-3.5113
X3.5029Y-3.5713
X3.5029Y-3.8713
X3.5029Y-3.9313
X3.5029Y-4.3313
X3.5029Y-4.3913
X3.5629Y-2.9213
X3.5629Y-2.9813
X3.5629Y-3.0513
X3.5629Y-3.1113
X3.5629Y-3.5113
X3.5629Y-3.5713
X3.5629Y-3.6813
X3.5629Y-3.7413
X3.5629Y-3.8713
X3.5629Y-3.9313
X3.5629Y-4.3313
X3.5629Y-4.3913
X3.5629Y-4.5213
X3.5629Y-4.5813
X3.6229Y-2.9213
X3.6229Y-2.9813
X3.6229Y-3.0513
X3.6229Y-3.1113
X3.6229Y-3.5113
X3.6229Y-3.5713
X3.6229Y-3.6813
X3.6229Y-3.7413
X3.6229Y-3.8713
X3.6229Y-3.9313
X3.6229Y-4.3313
X3.6229Y-4.3913
X3.6229Y-4.5213
X3.6229Y-4.5813
X3.6429Y-2.5913
X3.6829Y-2.9213
X3.6829Y-2.9813
X3.6829Y-3.6813
X3.6829Y-3.7413
X3.6829Y-4.5213
X3.6829Y-4.5813
X3.6929Y-2.5913
X3.6929Y-2.6413
X3.7029Y-2.0913
X3.7429Y-2.5113
X3.7429Y-2.5613
X3.7429Y-2.6113
X3.7429Y-2.6613
X3.7829Y-2.6913
X3.7929Y-2.2213
X3.7929Y-2.2913
X3.7929Y-2.3813
X3.8329Y-2.5013
X3.8329Y-2.6613
X3.8332Y-2.4275
X3.8348Y-2.1813
X3.8629Y-2.2213
X3.8629Y-2.2913
X3.8629Y-2.3813
X3.8629Y-2.9213
X3.8629Y-2.9813
X3.8629Y-3.6813
X3.8629Y-3.7413
X3.8629Y-4.5213
X3.8629Y-4.5813
X3.8829Y-2.0913
X3.8829Y-2.6913
X3.8932Y-2.4235
X3.8932Y-2.1835
X3.9229Y-2.9213
X3.9229Y-2.9813
X3.9229Y-3.6813
X3.9229Y-3.7413
X3.9229Y-4.5213
X3.9229Y-4.5813
X3.9329Y-2.2213
X3.9329Y-2.3813
X3.9629Y-2.1813
X3.9629Y-2.4275
X3.9829Y-2.9213
X3.9829Y-2.9813
X3.9829Y-3.6813
X3.9829Y-3.7413
X3.9829Y-4.5213
X3.9829Y-4.5813
X4.0807Y-2.189
X4.0829Y-2.0913
X4.0929Y-2.2913
X4.0929Y-2.3513
X4.1004Y-2.4016
X4.1004Y-2.4646
X4.1004Y-2.6713
X4.1004Y-2.7513
X4.1329Y-2.7113
X4.1329Y-3.5113
X4.1329Y-3.5713
X4.1329Y-3.8713
X4.1329Y-3.9313
X4.1329Y-4.3313
X4.1329Y-4.3913
X4.1372Y-3.0513
X4.1372Y-3.1113
X4.1476Y-2.4016
X4.1476Y-2.4646
X4.1629Y-2.6713
X4.1629Y-2.7513
X4.1629Y-2.9213
X4.1629Y-2.9813
X4.1629Y-3.6813
X4.1629Y-3.7413
X4.1629Y-4.5213
X4.1629Y-4.5813
X4.1929Y-2.7113
X4.1929Y-3.5113
X4.1929Y-3.5713
X4.1929Y-3.8713
X4.1929Y-3.9313
X4.1929Y-4.3313
X4.1929Y-4.3913
X4.1949Y-2.4016
X4.1949Y-2.4646
X4.1972Y-3.0513
X4.1972Y-3.1113
X4.1988Y-2.189
X4.2229Y-2.6713
X4.2229Y-2.7513
X4.2229Y-2.9213
X4.2229Y-2.9813
X4.2229Y-3.6813
X4.2229Y-3.7413
X4.2229Y-4.5213
X4.2229Y-4.5813
X4.2421Y-2.4016
X4.2421Y-2.4646
X4.2421Y-2.5313
X4.2421Y-2.5827
X4.2429Y-2.6313
X4.2429Y-2.7113
X4.2529Y-3.5113
X4.2529Y-3.5713
X4.2529Y-3.8713
X4.2529Y-3.9313
X4.2529Y-4.3313
X4.2529Y-4.3913
X4.2572Y-3.0513
X4.2572Y-3.1113
X4.2729Y-2.6713
X4.2729Y-2.7513
X4.2829Y-2.0913
X4.2829Y-2.2913
X4.2829Y-2.3713
X4.2829Y-2.4313
X4.2829Y-2.4843
X4.2829Y-2.5313
X4.2829Y-2.5813
X4.2829Y-2.6313
X4.2829Y-2.9213
X4.2829Y-2.9813
X4.2829Y-4.5213
X4.2829Y-4.5813
X4.2929Y-2.7113
X4.3169Y-2.189
X4.4075Y-2.3543
X4.4075Y-2.4843
X4.4075Y-2.6102
X4.435Y-2.189
X4.4629Y-3.6513
X4.4629Y-3.7713
X4.4829Y-2.0913
X4.502Y-2.4213
X4.502Y-2.5472
X4.502Y-2.6732
X4.5029Y-2.1913
X4.5029Y-2.2913
X4.5229Y-3.6513
X4.5229Y-3.7713
X4.5829Y-3.6513
X4.5829Y-3.7713
X4.6829Y-2.0913
X4.7629Y-2.9213
X4.7629Y-2.9813
X4.7629Y-3.6513
X4.7629Y-3.7713
X4.7629Y-3.8713
X4.7629Y-3.9313
X4.7629Y-4.3313
X4.7629Y-4.3913
X4.7629Y-4.5213
X4.7629Y-4.5813
X4.7715Y-3.0513
X4.7715Y-3.1113
X4.7715Y-3.5113
X4.7729Y-3.5713
X4.8229Y-2.9213
X4.8229Y-2.9813
X4.8229Y-3.6513
X4.8229Y-3.7713
X4.8229Y-3.8713
X4.8229Y-3.9313
X4.8229Y-4.3313
X4.8229Y-4.3913
X4.8229Y-4.5213
X4.8229Y-4.5813
X4.8315Y-3.0513
X4.8315Y-3.1113
X4.8315Y-3.5113
X4.8329Y-3.5713
X4.8829Y-2.0913
X4.8829Y-2.9213
X4.8829Y-2.9813
X4.8829Y-3.6513
X4.8829Y-3.7713
X4.8829Y-3.8713
X4.8829Y-3.9313
X4.8829Y-4.3313
X4.8829Y-4.3913
X4.8829Y-4.5213
X4.8829Y-4.5813
X4.8915Y-3.0513
X4.8915Y-3.1113
X4.8915Y-3.5113
X4.8929Y-3.5713
X4.9129Y-2.5913
X4.9629Y-2.5913
X4.9629Y-2.6413
X5.0129Y-2.5113
X5.0129Y-2.5613
X5.0129Y-2.6113
X5.0129Y-2.6613
X5.0629Y-2.6913
X5.0629Y-2.9213
X5.0629Y-2.9813
X5.0629Y-3.6513
X5.0629Y-3.7713
X5.0629Y-4.5213
X5.0629Y-4.5813
X5.0729Y-2.2213
X5.0729Y-2.2913
X5.0729Y-2.3813
X5.0829Y-2.0913
X5.1129Y-2.5013
X5.1129Y-2.6713
X5.1132Y-2.4275
X5.1148Y-2.1813
X5.1229Y-2.9213
X5.1229Y-2.9813
X5.1229Y-3.6513
X5.1229Y-3.7713
X5.1229Y-4.5213
X5.1229Y-4.5813
X5.1429Y-2.2213
X5.1429Y-2.2913
X5.1429Y-2.3813
X5.1629Y-2.6913
X5.1732Y-2.4235
X5.1732Y-2.1835
X5.1829Y-2.9213
X5.1829Y-2.9813
X5.1829Y-3.6513
X5.1829Y-3.7713
X5.1829Y-4.5213
X5.1829Y-4.5813
X5.2129Y-2.2213
X5.2129Y-2.3813
X5.2429Y-2.1813
X5.2429Y-2.4275
X5.2829Y-2.0913
X5.3607Y-2.189
X5.3629Y-2.2913
X5.3629Y-2.3513
X5.3629Y-2.9213
X5.3629Y-2.9813
X5.3629Y-3.6513
X5.3629Y-3.7713
X5.3629Y-4.5213
X5.3629Y-4.5813
X5.3729Y-2.7513
X5.3786Y-2.4016
X5.3786Y-2.4646
X5.3786Y-2.6713
X5.3995Y-3.9313
X5.3995Y-4.3313
X5.3995Y-4.3913
X5.4029Y-3.5713
X5.4029Y-3.8713
X5.4058Y-3.0513
X5.4058Y-3.1113
X5.4058Y-3.5113
X5.4111Y-2.7113
X5.4229Y-2.9213
X5.4229Y-2.9813
X5.4229Y-3.6513
X5.4229Y-3.7713
X5.4229Y-4.5213
X5.4229Y-4.5813
X5.4259Y-2.4016
X5.4259Y-2.4646
X5.4329Y-2.7513
X5.4411Y-2.6713
X5.4595Y-3.9313
X5.4595Y-4.3313
X5.4595Y-4.3913
X5.4629Y-3.5713
X5.4629Y-3.8713
X5.4658Y-3.0513
X5.4658Y-3.1113
X5.4658Y-3.5113
X5.4711Y-2.7113
X5.4731Y-2.4016
X5.4731Y-2.4646
X5.4788Y-2.189
X5.4829Y-2.0913
X5.4829Y-2.9213
X5.4829Y-2.9813
X5.4829Y-3.6513
X5.4829Y-3.7713
X5.4829Y-4.5213
X5.4829Y-4.5813
X5.4929Y-2.7513
X5.5011Y-2.6713
X5.5195Y-3.9313
X5.5195Y-4.3313
X5.5195Y-4.3913
X5.5203Y-2.4016
X5.5203Y-2.4646
X5.5203Y-2.5313
X5.5203Y-2.5827
X5.5203Y-2.6313
X5.5211Y-2.7113
X5.5229Y-3.5713
X5.5229Y-3.8713
X5.5258Y-3.0513
X5.5258Y-3.1113
X5.5258Y-3.5113
X5.5511Y-2.6713
X5.5529Y-2.7513
X5.5629Y-2.2913
X5.5629Y-2.3713
X5.5629Y-2.4313
X5.5629Y-2.4813
X5.5629Y-2.5313
X5.5629Y-2.5813
X5.5629Y-2.6313
X5.5755Y-2.7113
X5.5969Y-2.189
X5.6629Y-2.9213
X5.6629Y-2.9813
X5.6629Y-3.6513
X5.6629Y-3.7713
X5.6629Y-4.5213
X5.6629Y-4.5813
X5.6818Y-2.092
X5.6857Y-2.3543
X5.6857Y-2.4843
X5.6857Y-2.6102
X5.715Y-2.189
X5.7229Y-2.9213
X5.7229Y-2.9813
X5.7229Y-3.6513
X5.7229Y-3.7713
X5.7229Y-4.5213
X5.7229Y-4.5813
X5.7829Y-2.4193
X5.7829Y-2.5453
X5.7829Y-2.6713
X5.7829Y-2.9213
X5.7829Y-2.9813
X5.7829Y-3.6513
X5.7829Y-3.7713
X5.7829Y-4.5213
X5.7829Y-4.5813
X5.7839Y-2.1893
X5.7839Y-2.2893
X5.8829Y-2.0913
X5.9629Y-2.9213
X5.9629Y-2.9813
X5.9629Y-3.6513
X5.9629Y-3.7713
X5.9629Y-4.5213
X5.9629Y-4.5813
X6.0229Y-2.9213
X6.0229Y-2.9813
X6.0229Y-3.6513
X6.0229Y-3.7713
X6.0229Y-4.5213
X6.0229Y-4.5813
X6.0295Y-3.9313
X6.0295Y-4.3313
X6.0295Y-4.3913
X6.0329Y-3.8713
X6.0401Y-3.0513
X6.0401Y-3.1113
X6.0401Y-3.5113
X6.0429Y-3.5713
X6.0829Y-2.9213
X6.0829Y-2.9813
X6.0829Y-3.6513
X6.0829Y-3.7713
X6.0829Y-4.5213
X6.0829Y-4.5813
X6.0895Y-3.9313
X6.0895Y-4.3313
X6.0895Y-4.3913
X6.0929Y-3.8713
X6.1001Y-3.0513
X6.1001Y-3.1113
X6.1001Y-3.5113
X6.1029Y-3.5713
X6.1495Y-3.9313
X6.1495Y-4.3313
X6.1495Y-4.3913
X6.1529Y-3.8713
X6.1601Y-3.0513
X6.1601Y-3.1113
X6.1601Y-3.5113
X6.1629Y-3.5713
X6.1929Y-2.5913
X6.2429Y-2.5913
X6.2429Y-2.6413
X6.2629Y-2.9213
X6.2629Y-2.9813
X6.2629Y-3.6513
X6.2629Y-3.7713
X6.2629Y-4.5213
X6.2629Y-4.5813
X6.2929Y-2.5113
X6.2929Y-2.5613
X6.2929Y-2.6113
X6.2929Y-2.6613
X6.3229Y-2.9213
X6.3229Y-2.9813
X6.3229Y-3.6513
X6.3229Y-3.7713
X6.3229Y-4.5213
X6.3229Y-4.5813
X6.3329Y-2.6913
X6.3529Y-2.2213
X6.3529Y-2.2913
X6.3529Y-2.3813
X6.3829Y-2.9213
X6.3829Y-2.9813
X6.3829Y-3.6513
X6.3829Y-3.7713
X6.3829Y-4.5213
X6.3829Y-4.5813
X6.3929Y-2.5013
X6.3929Y-2.6713
X6.3932Y-2.4275
X6.3948Y-2.1813
X6.4229Y-2.2213
X6.4229Y-2.2913
X6.4229Y-2.3813
X6.4429Y-2.6913
X6.4532Y-2.4235
X6.4532Y-2.1835
X6.4729Y-2.0913
X6.4929Y-2.2213
X6.4929Y-2.3813
X6.5229Y-2.1813
X6.5229Y-2.4275
X6.5529Y-4.5213
X6.5529Y-4.5813
X6.5629Y-2.9213
X6.5629Y-2.9813
X6.5629Y-3.6513
X6.5629Y-3.7713
X6.6129Y-4.5213
X6.6129Y-4.5813
X6.6229Y-2.9213
X6.6229Y-2.9813
X6.6229Y-3.6513
X6.6229Y-3.7713
X6.6329Y-2.2913
X6.6329Y-2.3513
X6.6407Y-2.179
X6.6429Y-2.6713
X6.6429Y-2.7613
X6.6529Y-3.8713
X6.6529Y-3.9313
X6.6529Y-4.3313
X6.6529Y-4.3913
X6.6568Y-2.4016
X6.6568Y-2.4646
X6.6729Y-2.7113
X6.6729Y-3.5713
X6.6729Y-4.5213
X6.6729Y-4.5813
X6.6743Y-3.0513
X6.6743Y-3.1113
X6.6743Y-3.5113
X6.6829Y-2.0913
X6.6829Y-2.9213
X6.6829Y-2.9813
X6.7029Y-2.6713
X6.7029Y-2.7613
X6.7041Y-2.4016
X6.7041Y-2.4646
X6.7129Y-3.8713
X6.7129Y-3.9313
X6.7129Y-4.3313
X6.7129Y-4.3913
X6.7329Y-2.7113
X6.7329Y-3.5713
X6.7343Y-3.0513
X6.7343Y-3.1113
X6.7343Y-3.5113
X6.7513Y-2.4016
X6.7513Y-2.4646
X6.7588Y-2.179
X6.7629Y-2.6713
X6.7629Y-2.7613
X6.7729Y-3.8713
X6.7729Y-3.9313
X6.7729Y-4.3313
X6.7729Y-4.3913
X6.7929Y-2.7113
X6.7929Y-3.5713
X6.7943Y-3.0513
X6.7943Y-3.1113
X6.7943Y-3.5113
X6.7986Y-2.4016
X6.7986Y-2.4646
X6.7986Y-2.5313
X6.7986Y-2.5827
X6.7986Y-2.6313
X6.8229Y-2.7613
X6.8293Y-2.6713
X6.8429Y-2.2913
X6.8429Y-2.3713
X6.8429Y-2.4313
X6.8429Y-2.4843
X6.8429Y-2.5313
X6.8429Y-2.5813
X6.8429Y-2.6313
X6.8537Y-2.7113
X6.8769Y-2.179
X6.9529Y-2.0913
X6.9639Y-2.3543
X6.9639Y-2.4843
X6.9639Y-2.6102
X6.995Y-2.179
X7.0629Y-2.1813
X7.0629Y-2.4193
X7.0629Y-2.5453
X7.0629Y-2.6713
X7.0629Y-3.6513
X7.0629Y-3.7713
X7.0639Y-2.2893
X7.1229Y-3.6513
X7.1229Y-3.7713
X7.1829Y-3.6513
X7.1829Y-3.7713
X7.2629Y-2.9213
X7.2629Y-2.9813
X7.2629Y-4.5213
X7.2629Y-4.5813
X7.2829Y-3.8713
X7.2829Y-3.9313
X7.2829Y-4.3313
X7.2829Y-4.3913
X7.3129Y-3.0505
X7.3129Y-3.1105
X7.3129Y-3.5105
X7.3129Y-3.5613
X7.3229Y-2.9213
X7.3229Y-2.9813
X7.3229Y-4.5213
X7.3229Y-4.5813
X7.3429Y-3.8713
X7.3429Y-3.9313
X7.3429Y-4.3313
X7.3429Y-4.3913
X7.3629Y-3.6513
X7.3629Y-3.7713
X7.3729Y-3.0505
X7.3729Y-3.1105
X7.3729Y-3.5105
X7.3729Y-2.0913
X7.3729Y-3.5613
X7.3829Y-2.9213
X7.3829Y-2.9813
X7.3829Y-4.5213
X7.3829Y-4.5813
X7.4029Y-3.8713
X7.4029Y-3.9313
X7.4029Y-4.3313
X7.4029Y-4.3913
X7.4229Y-3.6513
X7.4229Y-3.7713
X7.4329Y-3.0505
X7.4329Y-3.1105
X7.4329Y-3.5105
X7.4329Y-3.5613
X7.4729Y-2.5913
X7.4829Y-3.6513
X7.4829Y-3.7713
X7.5229Y-2.5913
X7.5229Y-2.6413
X7.5629Y-2.9213
X7.5629Y-2.9813
X7.5629Y-4.5213
X7.5629Y-4.5813
X7.5729Y-2.5113
X7.5729Y-2.5613
X7.5729Y-2.6113
X7.5729Y-2.6613
X7.6129Y-2.6913
X7.6229Y-2.9213
X7.6229Y-2.9813
X7.6229Y-4.5213
X7.6229Y-4.5813
X7.6329Y-2.2213
X7.6329Y-2.2913
X7.6329Y-2.3813
X7.6629Y-3.6513
X7.6629Y-3.7713
X7.6729Y-2.4913
X7.6729Y-2.6713
X7.6732Y-2.4275
X7.6748Y-2.1813
X7.6829Y-2.9213
X7.6829Y-2.9813
X7.6829Y-4.5213
X7.6829Y-4.5813
X7.7029Y-2.2213
X7.7029Y-2.2913
X7.7029Y-2.3813
X7.7229Y-2.6913
X7.7229Y-3.6513
X7.7229Y-3.7713
X7.7332Y-2.4235
X7.7332Y-2.1835
X7.7729Y-2.2213
X7.7729Y-2.3813
X7.7829Y-3.6513
X7.7829Y-3.7713
X7.8029Y-2.1813
X7.8029Y-2.4275
X7.8629Y-2.9213
X7.8629Y-2.9813
X7.8629Y-4.5213
X7.8629Y-4.5813
X7.9107Y-2.179
X7.9129Y-2.2913
X7.9129Y-2.3613
X7.9129Y-3.8713
X7.9129Y-3.9313
X7.9129Y-4.3313
X7.9129Y-4.3913
X7.9229Y-2.9213
X7.9229Y-2.9813
X7.9229Y-4.5213
X7.9229Y-4.5813
X7.9329Y-2.7613
X7.935Y-2.4016
X7.935Y-2.4646
X7.935Y-2.6713
X7.9429Y-3.0513
X7.9429Y-3.1113
X7.9429Y-3.5113
X7.9429Y-3.5613
X7.9629Y-2.7113
X7.9629Y-3.6513
X7.9629Y-3.7713
X7.9729Y-3.8713
X7.9729Y-3.9313
X7.9729Y-4.3313
X7.9729Y-4.3913
X7.9823Y-2.4016
X7.9823Y-2.4646
X7.9829Y-2.9213
X7.9829Y-2.9813
X7.9829Y-4.5213
X7.9829Y-4.5813
X7.9929Y-2.6713
X7.9929Y-2.7613
X8.0029Y-3.0513
X8.0029Y-3.1113
X8.0029Y-3.5113
X8.0029Y-3.5613
X8.0229Y-2.7113
X8.0229Y-3.6513
X8.0229Y-3.7713
X8.0288Y-2.179
X8.0295Y-2.4016
X8.0295Y-2.4646
X8.0329Y-3.8713
X8.0329Y-3.9313
X8.0329Y-4.3313
X8.0329Y-4.3913
X8.0529Y-2.6713
X8.0529Y-2.7613
X8.0629Y-3.0513
X8.0629Y-3.1113
X8.0629Y-3.5113
X8.0629Y-3.5613
X8.0768Y-2.4016
X8.0768Y-2.4646
X8.0768Y-2.5413
X8.0768Y-2.5827
X8.0768Y-2.6313
X8.0829Y-2.7113
X8.0929Y-2.3213
X8.1029Y-2.7613
X8.1076Y-2.6713
X8.1229Y-2.2713
X8.1229Y-2.3713
X8.1229Y-2.4313
X8.1229Y-2.4813
X8.1229Y-2.5313
X8.1229Y-2.5813
X8.1229Y-2.6313
X8.1469Y-2.179
X8.2421Y-2.3543
X8.2421Y-2.4843
X8.2421Y-2.6102
X8.265Y-2.179
X8.3329Y-2.1813
X8.3329Y-2.4193
X8.3329Y-2.5453
X8.3329Y-2.6713
X8.3339Y-2.2893
T6
X3.0029Y-2.4813
X3.0429Y-1.2913
X3.0429Y-1.4913
X3.0429Y-1.6913
X3.0429Y-1.8913
X3.0429Y-2.0913
X3.0429Y-2.2913
X3.1129Y-1.1913
X3.1129Y-1.3913
X3.1129Y-1.5913
X3.1129Y-1.7913
X3.1829Y-1.2913
X3.1829Y-1.6913
X3.1829Y-2.0913
X3.1829Y-2.2913
X3.2229Y-1.3913
X3.2229Y-1.5113
X3.2529Y-1.1913
X3.5029Y-3.3113
X3.5029Y-3.4413
X3.5029Y-4.0013
X3.5029Y-4.1313
X3.5629Y-3.3113
X3.5629Y-4.1313
X3.6029Y-2.0213
X3.6029Y-2.1913
X3.6229Y-3.3113
X3.6229Y-3.4413
X3.6229Y-4.0013
X3.6229Y-4.1313
X3.6429Y-2.1313
X3.6629Y-1.7413
X3.6629Y-1.8613
X3.6829Y-2.1913
X3.7629Y-1.7413
X3.7629Y-1.8613
X3.8129Y-1.4613
X3.8529Y-1.2913
X3.8629Y-1.7413
X3.8629Y-1.8613
X3.8729Y-1.4113
X3.8729Y-1.5113
X3.9329Y-1.4613
X3.9629Y-1.7413
X3.9629Y-1.8613
X4.0138Y-1.6142
X4.0629Y-1.7413
X4.0629Y-1.8613
X4.1329Y-3.3113
X4.1329Y-3.4413
X4.1329Y-4.0013
X4.1329Y-4.1313
X4.1629Y-1.7413
X4.1629Y-1.8613
X4.1829Y-1.6413
X4.1929Y-1.2513
X4.1929Y-1.3321
X4.1929Y-1.437
X4.1929Y-3.3113
X4.1929Y-4.1313
X4.2529Y-4.0013
X4.2529Y-4.1313
X4.2629Y-3.3113
X4.2629Y-3.4413
X4.2657Y-1.8228
X4.2657Y-1.8937
X4.3629Y-1.6413
X4.3629Y-1.8613
X4.4529Y-1.8228
X4.4529Y-1.8937
X4.5329Y-1.6413
X4.5329Y-1.8613
X4.5429Y-1.2513
X4.5429Y-1.3321
X4.5429Y-1.4313
X4.6201Y-1.8228
X4.6201Y-1.8937
X4.7029Y-1.6413
X4.7029Y-1.8613
X4.7629Y-4.0113
X4.7629Y-4.1313
X4.7729Y-3.3113
X4.7729Y-3.4413
X4.8029Y-1.8213
X4.8029Y-1.8921
X4.8229Y-4.1313
X4.8329Y-1.2513
X4.8329Y-1.3321
X4.8329Y-1.4313
X4.8329Y-3.3113
X4.8829Y-1.6413
X4.8829Y-1.8613
X4.8829Y-2.1913
X4.8829Y-4.0113
X4.8829Y-4.1313
X4.8929Y-3.3113
X4.8929Y-3.4413
X4.9229Y-2.1313
X4.9429Y-1.2513
X4.9429Y-1.5113
X4.9629Y-2.1913
X4.9729Y-1.8213
X4.9729Y-1.8921
X5.0429Y-1.2913
X5.0429Y-1.4413
X5.0529Y-1.6413
X5.0629Y-1.8613
X5.1429Y-1.2513
X5.1429Y-1.5113
X5.1429Y-1.8213
X5.1429Y-1.8921
X5.2329Y-1.2913
X5.2329Y-1.4413
X5.2329Y-1.6413
X5.3229Y-1.2513
X5.3429Y-1.5213
X5.3429Y-1.6213
X5.3429Y-1.7213
X5.3429Y-1.8213
X5.3429Y-1.9213
X5.4029Y-3.3113
X5.4029Y-3.4413
X5.4029Y-4.0013
X5.4029Y-4.1313
X5.4129Y-1.2913
X5.4129Y-1.4413
X5.4229Y-1.5713
X5.4229Y-1.6713
X5.4229Y-1.7713
X5.4229Y-1.8713
X5.4629Y-3.3113
X5.4629Y-4.1313
X5.4929Y-1.2513
X5.4929Y-1.5213
X5.4929Y-1.6213
X5.4929Y-1.7213
X5.4929Y-1.8213
X5.4929Y-1.9213
X5.5229Y-3.3113
X5.5229Y-3.4413
X5.5229Y-4.0013
X5.5229Y-4.1313
X6.0329Y-4.0013
X6.0329Y-4.1313
X6.0429Y-3.3113
X6.0429Y-3.4413
X6.0929Y-4.1313
X6.1029Y-3.3113
X6.1529Y-4.0013
X6.1529Y-4.1313
X6.1629Y-2.1813
X6.1629Y-3.3113
X6.1629Y-3.4413
X6.2029Y-2.1313
X6.2429Y-2.1813
X6.6529Y-4.0013
X6.6529Y-4.1313
X6.6729Y-3.3113
X6.6729Y-3.4413
X6.7129Y-4.1313
X6.7329Y-3.3113
X6.7729Y-4.0013
X6.7729Y-4.1313
X6.7929Y-3.3113
X6.7929Y-3.4413
X7.2829Y-4.0013
X7.2829Y-4.1313
X7.3129Y-3.3113
X7.3129Y-3.4413
X7.3429Y-4.1313
X7.3729Y-3.3113
X7.4029Y-4.0013
X7.4029Y-4.1313
X7.4329Y-3.3113
X7.4329Y-3.4413
X7.4429Y-2.1813
X7.4829Y-2.1313
X7.5229Y-2.0213
X7.5229Y-2.1813
X7.9129Y-4.0013
X7.9129Y-4.1313
X7.9429Y-3.3113
X7.9429Y-3.4413
X7.9729Y-4.1313
X8.0029Y-3.3113
X8.0329Y-4.0013
X8.0329Y-4.1313
X8.0629Y-3.3113
X8.0629Y-3.4413
T7
X7.2736Y-1.3435
X7.3736Y-1.3435
X7.4736Y-1.3435
X7.5736Y-1.3435
X7.7933Y-1.3396
X7.8933Y-1.3396
X7.9933Y-1.3396
X8.0933Y-1.3396
T8
X4.5669Y-2.9331
X4.5669Y-4.5276
X7.0079Y-2.9331
X7.0079Y-4.5276
M30
