M48
; DRILL file {KiCad 8.0.1} date 2024-04-21T01:26:02+0200
; FORMAT={-:-/ absolute / inch / decimal}
; #@! TF.CreationDate,2024-04-21T01:26:02+02:00
; #@! TF.GenerationSoftware,Kicad,Pcbnew,8.0.1
; #@! TF.FileFunction,Plated,1,4,PTH
FMAT,2
INCH
; #@! TA.AperFunction,Plated,PTH,ViaDrill
T1C0.0079
; #@! TA.AperFunction,Plated,PTH,ComponentDrill
T2C0.0079
; #@! TA.AperFunction,Plated,PTH,ViaDrill
T3C0.0098
; #@! TA.AperFunction,Plated,PTH,ComponentDrill
T4C0.0098
; #@! TA.AperFunction,Plated,PTH,ViaDrill
T5C0.0118
; #@! TA.AperFunction,Plated,PTH,ViaDrill
T6C0.0157
; #@! TA.AperFunction,Plated,PTH,ComponentDrill
T7C0.0276
; #@! TA.AperFunction,Plated,PTH,ComponentDrill
T8C0.0315
; #@! TA.AperFunction,Plated,PTH,ComponentDrill
T9C0.0350
; #@! TA.AperFunction,Plated,PTH,ViaDrill
T10C0.0394
; #@! TA.AperFunction,Plated,PTH,ComponentDrill
T11C0.0394
; #@! TA.AperFunction,Plated,PTH,ComponentDrill
T12C0.0400
; #@! TA.AperFunction,Plated,PTH,ComponentDrill
T13C0.0433
; #@! TA.AperFunction,Plated,PTH,ComponentDrill
T14C0.0472
; #@! TA.AperFunction,Plated,PTH,ComponentDrill
T15C0.0551
; #@! TA.AperFunction,Plated,PTH,ComponentDrill
T16C0.1260
%
G90
G05
T1
X3.24Y-1.957
X3.24Y-2.257
X3.24Y-2.557
X3.24Y-3.757
X3.24Y-4.057
X3.24Y-4.657
X3.24Y-4.957
X4.04Y-4.757
X4.04Y-5.257
X4.18Y-3.357
X5.12Y-4.617
X5.72Y-3.327
X5.73Y-3.557
X5.94Y-5.257
X6.11Y-3.557
X6.22Y-3.857
X6.59Y-4.127
X8.14Y-5.257
X8.44Y-1.957
X8.44Y-2.257
X8.44Y-2.557
X8.44Y-2.857
X8.44Y-3.157
X8.44Y-3.457
X8.44Y-3.757
X8.44Y-4.057
X8.44Y-4.357
X8.44Y-4.657
X8.44Y-4.957
T2
X6.3831Y-4.4599
X6.3831Y-4.515
X6.4107Y-4.4324
X6.4107Y-4.4875
X6.4107Y-4.5426
X6.4383Y-4.4599
X6.4383Y-4.515
X6.4658Y-4.4324
X6.4658Y-4.4875
X6.4658Y-4.5426
X6.4934Y-4.4599
X6.4934Y-4.515
T3
X3.5229Y-3.8438
X3.5623Y-3.8438
X3.5839Y-4.7769
X3.6017Y-3.8438
X3.641Y-3.8438
X3.6607Y-4.7394
X3.6623Y-4.927
X3.6646Y-4.8812
X3.6804Y-3.8438
X3.7099Y-4.9068
X3.7099Y-4.9363
X3.7158Y-4.7985
X3.7198Y-3.8438
X3.7296Y-4.9894
X3.7414Y-3.6587
X3.7591Y-3.8438
X3.7985Y-3.8438
X3.8379Y-3.8438
X3.8772Y-3.8438
X3.9166Y-3.8438
X3.9265Y-4.9294
X3.9265Y-4.9658
X3.956Y-3.8438
X3.956Y-5.0741
X3.9698Y-4.9973
X3.9954Y-3.8438
X4.0347Y-3.8438
X4.0485Y-3.6745
X4.0564Y-3.7217
X4.0741Y-3.8438
X4.08Y-3.7454
X4.1Y-3.6745
X4.1036Y-3.769
X4.1135Y-3.8438
X4.1194Y-3.706
X4.1272Y-3.7926
X4.143Y-3.7296
X4.1509Y-3.8162
X4.1528Y-3.8438
X4.1666Y-3.7532
X4.1902Y-3.7847
X4.1922Y-3.8438
X4.2296Y-3.7847
X4.2316Y-3.8438
X4.24Y-2.357
X4.24Y-2.467
X4.269Y-3.7847
X4.2709Y-3.8438
X4.3Y-2.357
X4.3Y-2.467
X4.3083Y-3.7847
X4.3103Y-3.8438
X4.3477Y-3.7847
X4.3497Y-3.8438
X4.3871Y-3.7847
X4.3891Y-3.8438
X4.4265Y-3.7847
X4.4284Y-3.8438
X4.4678Y-3.7847
X4.4678Y-3.8438
X4.5072Y-3.7847
X4.5072Y-3.8438
X4.5465Y-3.7847
X4.5465Y-3.8438
X4.5859Y-3.7847
X4.5859Y-3.8438
X4.6253Y-3.7847
X4.6253Y-3.8438
X4.6646Y-3.7847
X4.6646Y-3.8438
X4.704Y-3.7847
X4.704Y-3.8438
X4.7434Y-3.7847
X4.7434Y-3.8438
X4.7828Y-3.7847
X4.7828Y-3.8438
X4.8221Y-3.8438
X4.9009Y-3.7847
X4.9402Y-3.7847
X4.9796Y-3.7847
X4.9796Y-3.8438
X5.019Y-3.7847
X5.019Y-3.8438
X5.0583Y-3.7847
X5.0583Y-3.8438
X5.0977Y-3.7847
X5.0977Y-3.8438
X5.1371Y-3.7847
X5.1371Y-3.8438
X5.1765Y-3.7847
X5.1765Y-3.8438
X5.2158Y-3.7847
X5.2158Y-3.8438
X5.2296Y-4.9265
X5.2552Y-3.7847
X5.2552Y-3.8438
X5.2946Y-3.7847
X5.2946Y-3.8438
X5.3339Y-3.7847
X5.3339Y-3.8438
X5.3398Y-4.9501
X5.3477Y-4.7611
X5.3733Y-3.7847
X5.3733Y-3.8438
X5.3876Y-4.0505
X5.4127Y-3.7847
X5.4127Y-3.8438
X5.452Y-3.7847
X5.452Y-3.8438
X5.4914Y-3.7847
X5.4914Y-3.8438
X5.5Y-3.277
X5.5209Y-3.8792
X5.5308Y-3.7847
X5.5315Y-4.1777
X5.5315Y-4.2375
X5.5603Y-3.8162
X5.5603Y-3.9186
X5.57Y-3.247
X5.5859Y-4.0505
X5.5911Y-3.4783
X5.5918Y-3.8556
X5.6233Y-3.8871
X5.6312Y-3.58
X5.6351Y-3.6391
X5.6391Y-3.9973
X5.64Y-4.447
X5.6784Y-4.0367
X5.702Y-3.3989
X5.7178Y-4.1981
X5.7414Y-5.0918
X5.7532Y-4.0485
X5.765Y-3.6194
X5.7729Y-4.7611
X5.8162Y-4.0505
X5.8162Y-5.015
X5.8202Y-3.7454
X5.8674Y-4.8477
X5.868Y-4.3674
X5.9068Y-3.9894
X5.9146Y-4.0505
X5.9146Y-4.895
X5.9146Y-5.0839
X5.9698Y-3.6194
X5.9776Y-4.1706
X5.9776Y-4.2335
X5.9776Y-4.4146
X5.9776Y-4.6745
X5.9776Y-4.7454
X6.01Y-4.927
X6.01Y-4.9816
X6.0131Y-4.8674
X6.0485Y-4.891
X6.0879Y-5.0839
X6.09Y-4.047
X6.1Y-3.3753
X6.11Y-3.307
X6.1351Y-4.9973
X6.1509Y-4.7591
X6.1607Y-4.3064
X6.1745Y-3.2808
X6.22Y-2.357
X6.22Y-2.467
X6.2788Y-3.7355
X6.2788Y-3.7946
X6.28Y-2.357
X6.28Y-2.467
X6.3182Y-3.7355
X6.3182Y-3.7946
X6.332Y-4.9973
X6.332Y-5.0839
X6.3576Y-3.7355
X6.3576Y-3.7946
X6.3674Y-4.267
X6.3969Y-3.7355
X6.3969Y-3.7946
X6.4363Y-3.7355
X6.4363Y-3.7946
X6.4757Y-3.7355
X6.4757Y-3.7946
X6.4855Y-4.769
X6.4855Y-4.8477
X6.515Y-3.7355
X6.515Y-3.7946
X6.5524Y-4.9894
X6.5544Y-3.7355
X6.5544Y-3.7946
X6.5643Y-4.8379
X6.5839Y-4.6706
X6.5938Y-3.7355
X6.5938Y-3.7946
X6.6331Y-3.7355
X6.6331Y-3.7946
X6.6725Y-3.7355
X6.6725Y-3.7946
X6.6922Y-4.4245
X6.6922Y-4.567
X6.6922Y-4.8379
X6.6942Y-4.3556
X6.7119Y-3.7355
X6.7119Y-3.7946
X6.7217Y-3.9324
X6.7335Y-4.8162
X6.74Y-4.527
X6.7414Y-4.3162
X6.7513Y-3.7355
X6.7513Y-3.7946
X6.7572Y-5.0052
X6.7709Y-4.0505
X6.7709Y-5.1725
X6.7906Y-3.7355
X6.7906Y-3.7946
X6.7906Y-4.2769
X6.8005Y-5.202
X6.8284Y-5.2341
X6.83Y-3.7355
X6.83Y-3.7946
X6.8522Y-5.171
X6.8595Y-5.2611
X6.8694Y-3.7355
X6.8694Y-3.7946
X6.8792Y-5.202
X6.8891Y-5.3005
X6.9087Y-3.7355
X6.9087Y-3.7946
X6.9087Y-5.2316
X6.9383Y-5.2611
X6.9383Y-5.3398
X6.9481Y-3.7355
X6.9481Y-3.7946
X6.9776Y-5.2808
X6.9776Y-5.3398
X6.9875Y-3.7355
X6.9875Y-3.7946
X7.017Y-4.5131
X7.017Y-5.2808
X7.017Y-5.3398
X7.0269Y-3.7355
X7.0269Y-3.7946
X7.0564Y-5.2808
X7.0564Y-5.3398
X7.0662Y-3.7355
X7.0662Y-3.7946
X7.0957Y-5.2808
X7.0957Y-5.3398
X7.1056Y-3.7355
X7.1056Y-3.7946
X7.1351Y-4.3851
X7.1351Y-5.2808
X7.1351Y-5.3398
X7.145Y-3.7355
X7.145Y-3.7946
X7.1568Y-4.0682
X7.1646Y-4.5524
X7.17Y-4.1784
X7.1723Y-4.0256
X7.1745Y-4.1095
X7.1745Y-4.3556
X7.1745Y-5.2808
X7.1745Y-5.3398
X7.1843Y-3.7355
X7.1843Y-3.7946
X7.2139Y-5.2808
X7.2139Y-5.3398
X7.2217Y-4.2099
X7.2237Y-3.7355
X7.2237Y-3.7946
X7.2262Y-3.9939
X7.2262Y-4.2892
X7.2262Y-4.424
X7.2532Y-5.2808
X7.2532Y-5.3398
X7.2631Y-3.7355
X7.2631Y-3.7946
X7.2926Y-3.9422
X7.2926Y-5.2808
X7.2926Y-5.3398
X7.2951Y-3.9939
X7.2951Y-4.2892
X7.2951Y-4.424
X7.3024Y-3.7355
X7.3024Y-3.7946
X7.3251Y-3.8802
X7.332Y-4.4737
X7.332Y-5.2808
X7.332Y-5.3398
X7.3418Y-3.7355
X7.3418Y-3.7946
X7.3556Y-4.0918
X7.3615Y-4.2178
X7.3615Y-4.2896
X7.3615Y-4.4245
X7.3713Y-5.2808
X7.3713Y-5.3398
X7.3812Y-3.7355
X7.3812Y-3.7946
X7.4033Y-4.0234
X7.4107Y-5.2808
X7.4107Y-5.3398
X7.4206Y-3.7355
X7.4206Y-3.7946
X7.4329Y-4.424
X7.4402Y-3.9816
X7.4427Y-3.8394
X7.4501Y-5.2808
X7.4501Y-5.3398
X7.4599Y-3.7355
X7.4599Y-3.7946
X7.4599Y-4.5131
X7.4658Y-4.2257
X7.4698Y-4.2965
X7.48Y-2.357
X7.48Y-2.467
X7.4894Y-5.2808
X7.4894Y-5.3398
X7.4919Y-3.9939
X7.4993Y-3.7355
X7.4993Y-3.7946
X7.5018Y-4.424
X7.5116Y-3.8394
X7.5288Y-5.2808
X7.5288Y-5.3398
X7.5387Y-3.7355
X7.5387Y-3.7946
X7.5387Y-4.5131
X7.54Y-2.357
X7.54Y-2.467
X7.5583Y-4.3261
X7.5682Y-5.2808
X7.5682Y-5.3398
X7.578Y-3.7355
X7.578Y-3.7946
X7.5805Y-3.8394
X7.5805Y-3.9811
X7.5918Y-3.5721
X7.6076Y-5.2808
X7.6076Y-5.3398
X7.61Y-4.424
X7.6174Y-3.7355
X7.6174Y-3.7946
X7.6174Y-3.9816
X7.6233Y-4.0288
X7.6371Y-4.2473
X7.6469Y-4.2965
X7.6469Y-5.2808
X7.6469Y-5.3398
X7.6494Y-3.8394
X7.6568Y-3.7355
X7.6568Y-3.7946
X7.676Y-4.1809
X7.6789Y-4.424
X7.68Y-3.327
X7.6863Y-3.9914
X7.6863Y-5.2808
X7.6863Y-5.3398
X7.6961Y-3.7355
X7.6961Y-3.7946
X7.702Y-4.1076
X7.7183Y-3.8394
X7.7257Y-5.2808
X7.7257Y-5.3398
X7.7335Y-3.7296
X7.7355Y-3.7946
X7.7572Y-3.9894
X7.7577Y-4.424
X7.765Y-3.6981
X7.765Y-5.2808
X7.765Y-5.3398
X7.7729Y-3.769
X7.7808Y-4.1469
X7.7916Y-4.3261
X7.7941Y-4.3876
X7.7946Y-4.4737
X7.8044Y-3.7375
X7.8044Y-5.2808
X7.8044Y-5.3398
X7.8211Y-4.2473
X7.8359Y-3.6981
X7.8438Y-3.9894
X7.8438Y-4.3487
X7.8438Y-4.4215
X7.8438Y-5.2808
X7.8438Y-5.3398
X7.8507Y-3.8802
X7.8733Y-3.9028
X7.8831Y-5.2611
X7.893Y-3.8536
X7.893Y-5.33
X7.9127Y-3.9028
X7.9215Y-3.9968
X7.9225Y-4.2473
X7.9225Y-4.3261
X7.9225Y-5.2217
X7.9225Y-5.3005
X7.9324Y-3.8536
X7.952Y-3.9028
X7.952Y-5.2709
X7.9619Y-4.0761
X7.9619Y-4.5524
X7.9619Y-5.1824
X7.9717Y-3.8536
X7.9816Y-5.2414
X7.9914Y-3.9028
X8.0003Y-4.0264
X8.0003Y-4.1582
X8.0013Y-5.143
X8.002Y-3.7525
X8.0111Y-3.8536
X8.0111Y-4.2896
X8.0111Y-4.4314
X8.0111Y-5.2119
X8.0209Y-3.9225
X8.0308Y-4.5524
X8.0406Y-5.1036
X8.0432Y-5.1839
X8.0505Y-3.8733
X8.0505Y-3.952
X8.0702Y-5.1528
X8.08Y-3.9028
X8.08Y-3.9816
X8.08Y-5.0643
X8.0898Y-4.0209
X8.0898Y-4.0603
X8.0898Y-4.0997
X8.0898Y-4.1391
X8.0997Y-4.1686
X8.0997Y-5.1233
X8.1095Y-3.9324
X8.1095Y-4.1981
X8.1095Y-4.2375
X8.1095Y-4.2769
X8.1095Y-4.3162
X8.1095Y-4.3556
X8.1095Y-4.395
X8.1095Y-4.4343
X8.1095Y-4.4737
X8.1095Y-4.5131
X8.1095Y-4.5524
X8.1095Y-4.5918
X8.1095Y-4.6312
X8.1095Y-4.6706
X8.1095Y-4.7099
X8.1095Y-4.7493
X8.1095Y-4.7887
X8.1095Y-4.828
X8.1095Y-4.8674
X8.1095Y-4.9068
X8.1095Y-4.9461
X8.1095Y-4.9855
X8.1095Y-5.0249
X8.1292Y-5.0938
X8.1391Y-3.9619
X8.1391Y-4.0209
X8.1391Y-4.1627
X8.1587Y-5.0643
X8.1686Y-4.0013
X8.1686Y-4.1981
X8.1686Y-4.2375
X8.1686Y-4.2769
X8.1686Y-4.3162
X8.1686Y-4.3556
X8.1686Y-4.395
X8.1686Y-4.4343
X8.1686Y-4.4737
X8.1686Y-4.5131
X8.1686Y-4.5524
X8.1686Y-4.5918
X8.1686Y-4.6312
X8.1686Y-4.6706
X8.1686Y-4.7099
X8.1686Y-4.7493
X8.1686Y-4.7887
X8.1686Y-4.828
X8.1686Y-4.8674
X8.1686Y-4.9068
X8.1686Y-4.9461
X8.1686Y-4.9855
X8.1686Y-5.0249
X8.1784Y-4.0505
X8.1784Y-4.0898
X8.1784Y-4.1292
T4
X7.5116Y-4.1317
X7.551Y-4.0923
X7.551Y-4.1317
X7.551Y-4.171
X7.5903Y-4.1317
T5
X5.9782Y-4.3215
X6.7361Y-4.1247
X6.8261Y-4.891
T6
X4.27Y-4.7454
X4.27Y-4.8192
X4.3989Y-4.6902
X4.5761Y-4.641
X4.7335Y-4.641
X4.8123Y-4.641
T7
X3.8091Y-1.7461
X3.8091Y-1.8248
X3.8091Y-1.9035
X3.8091Y-1.9823
X3.8091Y-2.061
X3.8091Y-2.2185
X3.8091Y-2.2972
X3.8091Y-2.376
X3.8091Y-2.4547
X3.8091Y-2.7697
X3.8091Y-2.8484
X3.8091Y-2.9272
X3.8091Y-3.0059
X3.8091Y-3.0846
X3.8091Y-3.2421
X3.8091Y-3.3209
X3.8091Y-3.3996
X3.8091Y-3.4783
X3.8878Y-1.7067
X3.8878Y-1.7854
X3.8878Y-1.8642
X3.8878Y-1.9429
X3.8878Y-2.0217
X3.8878Y-2.1004
X3.8878Y-2.2579
X3.8878Y-2.3366
X3.8878Y-2.4154
X3.8878Y-2.7303
X3.8878Y-2.8091
X3.8878Y-2.8878
X3.8878Y-2.9665
X3.8878Y-3.0453
X3.8878Y-3.124
X3.8878Y-3.2815
X3.8878Y-3.3602
X3.8878Y-3.439
X3.9862Y-1.7067
X3.9862Y-1.7854
X3.9862Y-1.8642
X3.9862Y-1.9429
X3.9862Y-2.0217
X3.9862Y-2.1004
X3.9862Y-2.2579
X3.9862Y-2.3366
X3.9862Y-2.4154
X3.9862Y-2.7303
X3.9862Y-2.8091
X3.9862Y-2.8878
X3.9862Y-2.9665
X3.9862Y-3.0453
X3.9862Y-3.124
X3.9862Y-3.2815
X3.9862Y-3.3602
X3.9862Y-3.439
X4.065Y-1.7461
X4.065Y-1.8248
X4.065Y-1.9035
X4.065Y-1.9823
X4.065Y-2.061
X4.065Y-2.2185
X4.065Y-2.2972
X4.065Y-2.376
X4.065Y-2.4547
X4.065Y-2.7697
X4.065Y-2.8484
X4.065Y-2.9272
X4.065Y-3.0059
X4.065Y-3.0846
X4.065Y-3.2421
X4.065Y-3.3209
X4.065Y-3.3996
X4.065Y-3.4783
X5.7776Y-1.7461
X5.7776Y-1.8248
X5.7776Y-1.9035
X5.7776Y-1.9823
X5.7776Y-2.061
X5.7776Y-2.2185
X5.7776Y-2.2972
X5.7776Y-2.376
X5.7776Y-2.4547
X5.7776Y-2.7697
X5.7776Y-2.8484
X5.7776Y-2.9272
X5.7776Y-3.0059
X5.7776Y-3.0846
X5.7776Y-3.2421
X5.7776Y-3.3209
X5.7776Y-3.3996
X5.7776Y-3.4783
X5.8563Y-1.7067
X5.8563Y-1.7854
X5.8563Y-1.8642
X5.8563Y-1.9429
X5.8563Y-2.0217
X5.8563Y-2.1004
X5.8563Y-2.2579
X5.8563Y-2.3366
X5.8563Y-2.4154
X5.8563Y-2.7303
X5.8563Y-2.8091
X5.8563Y-2.8878
X5.8563Y-2.9665
X5.8563Y-3.0453
X5.8563Y-3.124
X5.8563Y-3.2815
X5.8563Y-3.3602
X5.8563Y-3.439
X5.9547Y-1.7067
X5.9547Y-1.7854
X5.9547Y-1.8642
X5.9547Y-1.9429
X5.9547Y-2.0217
X5.9547Y-2.1004
X5.9547Y-2.2579
X5.9547Y-2.3366
X5.9547Y-2.4154
X5.9547Y-2.7303
X5.9547Y-2.8091
X5.9547Y-2.8878
X5.9547Y-2.9665
X5.9547Y-3.0453
X5.9547Y-3.124
X5.9547Y-3.2815
X5.9547Y-3.3602
X5.9547Y-3.439
X6.0335Y-1.7461
X6.0335Y-1.8248
X6.0335Y-1.9035
X6.0335Y-1.9823
X6.0335Y-2.061
X6.0335Y-2.2185
X6.0335Y-2.2972
X6.0335Y-2.376
X6.0335Y-2.4547
X6.0335Y-2.7697
X6.0335Y-2.8484
X6.0335Y-2.9272
X6.0335Y-3.0059
X6.0335Y-3.0846
X6.0335Y-3.2421
X6.0335Y-3.3209
X6.0335Y-3.3996
X6.0335Y-3.4783
X7.7461Y-1.7461
X7.7461Y-1.8248
X7.7461Y-1.9035
X7.7461Y-1.9823
X7.7461Y-2.061
X7.7461Y-2.2185
X7.7461Y-2.2972
X7.7461Y-2.376
X7.7461Y-2.4547
X7.7461Y-2.7697
X7.7461Y-2.8484
X7.7461Y-2.9272
X7.7461Y-3.0059
X7.7461Y-3.0846
X7.7461Y-3.2421
X7.7461Y-3.3209
X7.7461Y-3.3996
X7.7461Y-3.4783
X7.8248Y-1.7067
X7.8248Y-1.7854
X7.8248Y-1.8642
X7.8248Y-1.9429
X7.8248Y-2.0217
X7.8248Y-2.1004
X7.8248Y-2.2579
X7.8248Y-2.3366
X7.8248Y-2.4154
X7.8248Y-2.7303
X7.8248Y-2.8091
X7.8248Y-2.8878
X7.8248Y-2.9665
X7.8248Y-3.0453
X7.8248Y-3.124
X7.8248Y-3.2815
X7.8248Y-3.3602
X7.8248Y-3.439
X7.9232Y-1.7067
X7.9232Y-1.7854
X7.9232Y-1.8642
X7.9232Y-1.9429
X7.9232Y-2.0217
X7.9232Y-2.1004
X7.9232Y-2.2579
X7.9232Y-2.3366
X7.9232Y-2.4154
X7.9232Y-2.7303
X7.9232Y-2.8091
X7.9232Y-2.8878
X7.9232Y-2.9665
X7.9232Y-3.0453
X7.9232Y-3.124
X7.9232Y-3.2815
X7.9232Y-3.3602
X7.9232Y-3.439
X8.002Y-1.7461
X8.002Y-1.8248
X8.002Y-1.9035
X8.002Y-1.9823
X8.002Y-2.061
X8.002Y-2.2185
X8.002Y-2.2972
X8.002Y-2.376
X8.002Y-2.4547
X8.002Y-2.7697
X8.002Y-2.8484
X8.002Y-2.9272
X8.002Y-3.0059
X8.002Y-3.0846
X8.002Y-3.2421
X8.002Y-3.3209
X8.002Y-3.3996
X8.002Y-3.4783
T9
X7.4032Y-4.6483
X7.4532Y-4.7483
X7.5032Y-4.6483
X7.5532Y-4.7483
X7.6032Y-4.6483
X7.6532Y-4.7483
X7.7032Y-4.6483
X7.7532Y-4.7483
T10
X3.5032Y-2.2591
X3.5032Y-2.3576
X3.5032Y-2.456
X3.5721Y-2.2099
X3.5721Y-2.3083
X3.5721Y-2.4068
X3.5721Y-2.5052
X4.2624Y-1.8313
X4.2624Y-1.9297
X4.2624Y-2.0281
X4.2624Y-2.5596
X4.2624Y-2.658
X4.2624Y-2.7565
X4.3313Y-1.782
X4.3313Y-1.8805
X4.3313Y-1.9789
X4.3313Y-2.6088
X4.3313Y-2.7072
X4.3313Y-2.8057
X5.4914Y-2.645
X5.4914Y-2.7434
X5.4914Y-2.8418
X5.502Y-1.7835
X5.5039Y-1.872
X5.5039Y-1.9705
X5.5603Y-2.5957
X5.5603Y-2.6942
X5.5603Y-2.7926
X5.5728Y-1.8228
X5.5728Y-1.9213
X5.5728Y-2.0197
X6.2296Y-1.8772
X6.2296Y-1.9757
X6.2296Y-2.0741
X6.2296Y-2.6548
X6.2296Y-2.7532
X6.2296Y-2.8517
X6.2985Y-1.828
X6.2985Y-1.9265
X6.2985Y-2.0249
X6.2985Y-2.704
X6.2985Y-2.8024
X6.2985Y-2.9009
X7.4914Y-1.893
X7.4914Y-1.9914
X7.4914Y-2.0898
X7.4914Y-2.6017
X7.4914Y-2.7001
X7.4914Y-2.7985
X7.5603Y-1.8438
X7.5603Y-1.9422
X7.5603Y-2.0406
X7.5603Y-2.6509
X7.5603Y-2.7493
X7.5603Y-2.8477
X8.2276Y-2.2591
X8.2276Y-2.3576
X8.2276Y-2.456
X8.2965Y-2.2099
X8.2965Y-2.3083
X8.2965Y-2.4068
X8.2965Y-2.5052
T11
X3.956Y-4.7552
X3.956Y-5.1489
X5.07Y-4.7874
X5.07Y-4.8874
X5.07Y-4.9874
X5.07Y-5.0874
X5.768Y-3.8133
X5.768Y-3.9133
X5.868Y-3.8133
X5.868Y-3.9133
X5.968Y-3.8133
X5.968Y-3.9133
X6.6292Y-5.0938
X6.7292Y-5.0623
X6.8292Y-5.0938
X6.9292Y-5.0623
X7.0292Y-5.0938
X7.1292Y-5.0623
X8.2965Y-3.1528
X8.2965Y-3.2513
T12
X7.3293Y-5.1603
X7.4293Y-5.1603
X7.7281Y-5.1603
X7.8281Y-5.1603
T13
X6.19Y-5.0398
X6.19Y-5.217
X6.4459Y-5.0398
X6.4459Y-5.217
T14
X3.3883Y-3.6666
X4.4883Y-3.6666
T15
X3.2749Y-2.895
X3.2749Y-3.0603
X3.2749Y-3.2257
X3.4481Y-3.9816
X3.4481Y-4.1981
X3.4914Y-2.895
X3.4914Y-3.0603
X3.4914Y-3.2257
X3.6135Y-3.9816
X3.6135Y-4.1981
X3.7788Y-3.9816
X3.7788Y-4.1981
X3.9442Y-3.9816
X3.9442Y-4.1981
X4.1095Y-3.9816
X4.1095Y-4.1981
X4.2749Y-3.9816
X4.2749Y-4.1981
X4.4402Y-3.9816
X4.4402Y-4.1981
X4.6056Y-3.9816
X4.6056Y-4.1981
X4.6457Y-2.1457
X4.6457Y-2.3622
X4.7709Y-3.9816
X4.7709Y-4.1981
X4.811Y-2.1457
X4.811Y-2.3622
X4.9363Y-3.9816
X4.9363Y-4.1981
X4.9764Y-2.1457
X4.9764Y-2.3622
X5.1417Y-2.1457
X5.1417Y-2.3622
X6.6142Y-2.1457
X6.6142Y-2.3622
X6.7795Y-2.1457
X6.7795Y-2.3622
X6.9449Y-2.1457
X6.9449Y-2.3622
X7.1102Y-2.1457
X7.1102Y-2.3622
T16
X3.2769Y-1.7375
X3.2769Y-5.3595
X8.395Y-1.7375
X8.395Y-5.3595
T8
G00X7.2682Y-4.8831
M15
G01X7.2682Y-4.8496
M16
G05
G00X7.8882Y-4.8831
M15
G01X7.8882Y-4.8496
M16
G05
M30
