%TF.GenerationSoftware,KiCad,Pcbnew,8.0.1*%
%TF.CreationDate,2024-04-21T01:25:57+02:00*%
%TF.ProjectId,EKO_MyMiner,454b4f5f-4d79-44d6-996e-65722e6b6963,rev?*%
%TF.SameCoordinates,Original*%
%TF.FileFunction,Soldermask,Top*%
%TF.FilePolarity,Negative*%
%FSLAX46Y46*%
G04 Gerber Fmt 4.6, Leading zero omitted, Abs format (unit mm)*
G04 Created by KiCad (PCBNEW 8.0.1) date 2024-04-21 01:25:57*
%MOMM*%
%LPD*%
G01*
G04 APERTURE LIST*
G04 Aperture macros list*
%AMRoundRect*
0 Rectangle with rounded corners*
0 $1 Rounding radius*
0 $2 $3 $4 $5 $6 $7 $8 $9 X,Y pos of 4 corners*
0 Add a 4 corners polygon primitive as box body*
4,1,4,$2,$3,$4,$5,$6,$7,$8,$9,$2,$3,0*
0 Add four circle primitives for the rounded corners*
1,1,$1+$1,$2,$3*
1,1,$1+$1,$4,$5*
1,1,$1+$1,$6,$7*
1,1,$1+$1,$8,$9*
0 Add four rect primitives between the rounded corners*
20,1,$1+$1,$2,$3,$4,$5,0*
20,1,$1+$1,$4,$5,$6,$7,0*
20,1,$1+$1,$6,$7,$8,$9,0*
20,1,$1+$1,$8,$9,$2,$3,0*%
G04 Aperture macros list end*
%ADD10C,0.300000*%
%ADD11RoundRect,0.062500X0.375000X0.062500X-0.375000X0.062500X-0.375000X-0.062500X0.375000X-0.062500X0*%
%ADD12RoundRect,0.062500X0.062500X0.375000X-0.062500X0.375000X-0.062500X-0.375000X0.062500X-0.375000X0*%
%ADD13R,2.500000X2.500000*%
%ADD14RoundRect,0.250000X-0.550000X1.250000X-0.550000X-1.250000X0.550000X-1.250000X0.550000X1.250000X0*%
%ADD15RoundRect,0.200000X0.275000X-0.200000X0.275000X0.200000X-0.275000X0.200000X-0.275000X-0.200000X0*%
%ADD16RoundRect,0.200000X-0.275000X0.200000X-0.275000X-0.200000X0.275000X-0.200000X0.275000X0.200000X0*%
%ADD17C,2.350000*%
%ADD18RoundRect,0.102000X-0.604000X0.604000X-0.604000X-0.604000X0.604000X-0.604000X0.604000X0.604000X0*%
%ADD19C,1.412000*%
%ADD20RoundRect,0.225000X-0.250000X0.225000X-0.250000X-0.225000X0.250000X-0.225000X0.250000X0.225000X0*%
%ADD21R,1.100000X1.300000*%
%ADD22R,0.900000X1.500000*%
%ADD23R,1.500000X0.900000*%
%ADD24C,0.600000*%
%ADD25R,3.800000X3.800000*%
%ADD26R,1.700000X1.700000*%
%ADD27O,1.700000X1.700000*%
%ADD28C,5.600000*%
%ADD29RoundRect,0.250000X0.850000X0.350000X-0.850000X0.350000X-0.850000X-0.350000X0.850000X-0.350000X0*%
%ADD30RoundRect,0.249997X2.950003X2.650003X-2.950003X2.650003X-2.950003X-2.650003X2.950003X-2.650003X0*%
%ADD31RoundRect,0.225000X0.250000X-0.225000X0.250000X0.225000X-0.250000X0.225000X-0.250000X-0.225000X0*%
%ADD32RoundRect,0.150000X0.587500X0.150000X-0.587500X0.150000X-0.587500X-0.150000X0.587500X-0.150000X0*%
%ADD33RoundRect,0.250000X0.750000X-0.600000X0.750000X0.600000X-0.750000X0.600000X-0.750000X-0.600000X0*%
%ADD34O,2.000000X1.700000*%
%ADD35C,2.400000*%
%ADD36O,2.400000X2.400000*%
%ADD37RoundRect,0.135000X-0.135000X-0.185000X0.135000X-0.185000X0.135000X0.185000X-0.135000X0.185000X0*%
%ADD38RoundRect,0.218750X-0.218750X-0.381250X0.218750X-0.381250X0.218750X0.381250X-0.218750X0.381250X0*%
%ADD39RoundRect,0.200000X-0.200000X-0.275000X0.200000X-0.275000X0.200000X0.275000X-0.200000X0.275000X0*%
%ADD40RoundRect,0.225000X-0.225000X-0.250000X0.225000X-0.250000X0.225000X0.250000X-0.225000X0.250000X0*%
%ADD41RoundRect,0.200000X0.200000X0.275000X-0.200000X0.275000X-0.200000X-0.275000X0.200000X-0.275000X0*%
%ADD42C,2.000000*%
%ADD43C,3.000000*%
%ADD44RoundRect,0.250001X-1.399999X1.099999X-1.399999X-1.099999X1.399999X-1.099999X1.399999X1.099999X0*%
%ADD45O,3.300000X2.700000*%
%ADD46C,1.300000*%
%ADD47RoundRect,0.250001X-1.099999X-1.399999X1.099999X-1.399999X1.099999X1.399999X-1.099999X1.399999X0*%
%ADD48O,2.700000X3.300000*%
%ADD49C,3.251200*%
%ADD50R,1.778000X1.778000*%
%ADD51C,1.778000*%
%ADD52O,1.500000X2.032000*%
%ADD53O,1.500000X2.540000*%
%ADD54C,0.800000*%
%TA.AperFunction,Profile*%
%ADD55C,0.100000*%
%TD*%
G04 APERTURE END LIST*
D10*
G36*
X93441306Y-136337426D02*
G01*
X93540893Y-136434561D01*
X93598273Y-136655697D01*
X93600792Y-137118392D01*
X93544188Y-137353687D01*
X93450523Y-137449717D01*
X93359225Y-137497119D01*
X93144227Y-137499086D01*
X93055141Y-137456229D01*
X92955556Y-137359095D01*
X92898176Y-137137959D01*
X92895657Y-136675263D01*
X92952260Y-136439969D01*
X93045926Y-136343940D01*
X93137226Y-136296536D01*
X93352222Y-136294569D01*
X93441306Y-136337426D01*
G37*
G36*
X99779139Y-136828136D02*
G01*
X99807378Y-136882524D01*
X99395989Y-136966431D01*
X99395673Y-136900583D01*
X99429533Y-136830199D01*
X99494370Y-136796536D01*
X99709366Y-136794569D01*
X99779139Y-136828136D01*
G37*
G36*
X105022493Y-137060795D02*
G01*
X105051928Y-137088956D01*
X105098603Y-137178854D01*
X105100305Y-137322625D01*
X105057372Y-137411867D01*
X105020381Y-137450532D01*
X104930923Y-137496979D01*
X104540803Y-137498851D01*
X104539882Y-137010303D01*
X104859685Y-137008562D01*
X105022493Y-137060795D01*
G37*
G36*
X104941836Y-136337681D02*
G01*
X104980500Y-136374671D01*
X105027338Y-136464882D01*
X105028555Y-136537579D01*
X104985944Y-136626152D01*
X104948954Y-136664816D01*
X104859453Y-136711286D01*
X104539322Y-136713029D01*
X104538536Y-136296025D01*
X104851703Y-136294319D01*
X104941836Y-136337681D01*
G37*
G36*
X107513263Y-136337680D02*
G01*
X107551929Y-136374671D01*
X107604541Y-136476004D01*
X107669720Y-136727196D01*
X107672109Y-137047432D01*
X107611510Y-137299334D01*
X107557372Y-137411867D01*
X107520381Y-137450532D01*
X107430172Y-137497369D01*
X107357474Y-137498586D01*
X107268900Y-137455975D01*
X107230237Y-137418986D01*
X107177621Y-137317649D01*
X107112444Y-137066460D01*
X107110055Y-136746223D01*
X107170654Y-136494320D01*
X107224791Y-136381789D01*
X107261781Y-136343125D01*
X107351994Y-136296286D01*
X107424690Y-136295069D01*
X107513263Y-136337680D01*
G37*
G36*
X108941834Y-136337680D02*
G01*
X108980500Y-136374671D01*
X109033112Y-136476004D01*
X109098291Y-136727196D01*
X109100680Y-137047432D01*
X109040081Y-137299334D01*
X108985943Y-137411867D01*
X108948952Y-137450532D01*
X108858743Y-137497369D01*
X108786045Y-137498586D01*
X108697471Y-137455975D01*
X108658808Y-137418986D01*
X108606192Y-137317649D01*
X108541015Y-137066460D01*
X108538626Y-136746223D01*
X108599225Y-136494320D01*
X108653362Y-136381789D01*
X108690352Y-136343125D01*
X108780565Y-136296286D01*
X108853261Y-136295069D01*
X108941834Y-136337680D01*
G37*
G36*
X113656119Y-136337680D02*
G01*
X113694785Y-136374671D01*
X113747397Y-136476004D01*
X113812576Y-136727196D01*
X113814965Y-137047432D01*
X113754366Y-137299334D01*
X113700228Y-137411867D01*
X113663237Y-137450532D01*
X113573028Y-137497369D01*
X113500330Y-137498586D01*
X113411756Y-137455975D01*
X113373093Y-137418986D01*
X113320477Y-137317649D01*
X113255300Y-137066460D01*
X113252911Y-136746223D01*
X113313510Y-136494320D01*
X113367647Y-136381789D01*
X113404637Y-136343125D01*
X113494850Y-136296286D01*
X113567546Y-136295069D01*
X113656119Y-136337680D01*
G37*
G36*
X116470688Y-137069055D02*
G01*
X116168726Y-137070226D01*
X116319001Y-136616696D01*
X116470688Y-137069055D01*
G37*
G36*
X117135142Y-138106352D02*
G01*
X89645843Y-138106352D01*
X89645843Y-137818949D01*
X105386822Y-137818949D01*
X105409220Y-137873021D01*
X105450604Y-137914405D01*
X105504676Y-137936803D01*
X105533940Y-137939685D01*
X106706061Y-137936803D01*
X106760133Y-137914405D01*
X106801517Y-137873021D01*
X106823915Y-137818949D01*
X106823915Y-137760421D01*
X106801517Y-137706349D01*
X106760133Y-137664965D01*
X106706061Y-137642567D01*
X106676797Y-137639685D01*
X105504676Y-137642567D01*
X105450604Y-137664965D01*
X105409220Y-137706349D01*
X105386822Y-137760421D01*
X105386822Y-137818949D01*
X89645843Y-137818949D01*
X89645843Y-136146828D01*
X89812510Y-136146828D01*
X89815392Y-137676092D01*
X89837790Y-137730164D01*
X89879174Y-137771548D01*
X89933246Y-137793946D01*
X89962510Y-137796828D01*
X90706060Y-137793946D01*
X90760132Y-137771548D01*
X90801516Y-137730164D01*
X90823914Y-137676092D01*
X90823914Y-137617564D01*
X90801516Y-137563492D01*
X90760132Y-137522108D01*
X90706060Y-137499710D01*
X90676796Y-137496828D01*
X90112231Y-137499016D01*
X90111310Y-137010303D01*
X90491774Y-137008232D01*
X90545846Y-136985834D01*
X90587230Y-136944450D01*
X90609628Y-136890378D01*
X90609628Y-136831850D01*
X90587230Y-136777778D01*
X90545846Y-136736394D01*
X90491774Y-136713996D01*
X90462510Y-136711114D01*
X90110750Y-136713029D01*
X90109964Y-136296256D01*
X90706060Y-136293946D01*
X90760132Y-136271548D01*
X90801516Y-136230164D01*
X90823914Y-136176092D01*
X90823914Y-136146828D01*
X91169653Y-136146828D01*
X91172535Y-137676092D01*
X91194933Y-137730164D01*
X91236317Y-137771548D01*
X91290389Y-137793946D01*
X91348917Y-137793946D01*
X91402989Y-137771548D01*
X91444373Y-137730164D01*
X91466771Y-137676092D01*
X91469653Y-137646828D01*
X91468560Y-137066996D01*
X91517848Y-137017478D01*
X92076660Y-137758510D01*
X92127022Y-137788329D01*
X92184959Y-137796606D01*
X92241656Y-137782081D01*
X92288478Y-137746964D01*
X92318297Y-137696603D01*
X92326574Y-137638665D01*
X92312049Y-137581969D01*
X92296796Y-137556828D01*
X91729627Y-136804714D01*
X91886782Y-136646828D01*
X92598225Y-136646828D01*
X92600896Y-137137359D01*
X92598402Y-137154119D01*
X92601086Y-137172268D01*
X92601107Y-137176092D01*
X92601954Y-137178136D01*
X92602704Y-137183208D01*
X92672535Y-137452331D01*
X92672535Y-137461805D01*
X92679115Y-137477691D01*
X92684025Y-137496613D01*
X92690664Y-137505573D01*
X92694932Y-137515877D01*
X92713587Y-137538608D01*
X92858173Y-137679635D01*
X92870544Y-137693899D01*
X92876897Y-137697898D01*
X92879176Y-137700121D01*
X92882837Y-137701637D01*
X92895429Y-137709564D01*
X93019954Y-137769470D01*
X93022032Y-137771548D01*
X93038154Y-137778226D01*
X93065750Y-137791502D01*
X93071125Y-137791883D01*
X93076104Y-137793946D01*
X93105368Y-137796828D01*
X93368627Y-137794419D01*
X93372320Y-137795650D01*
X93392748Y-137794198D01*
X93420346Y-137793946D01*
X93425324Y-137791883D01*
X93430700Y-137791502D01*
X93458164Y-137780992D01*
X93600702Y-137706985D01*
X93617275Y-137700121D01*
X93623046Y-137695384D01*
X93625907Y-137693899D01*
X93628502Y-137690906D01*
X93640005Y-137681466D01*
X93770006Y-137548183D01*
X93777580Y-137543639D01*
X93787510Y-137530237D01*
X93801517Y-137515877D01*
X93805783Y-137505575D01*
X93812424Y-137496614D01*
X93822317Y-137468923D01*
X93889187Y-137190952D01*
X93895343Y-137176092D01*
X93897131Y-137157928D01*
X93898048Y-137154120D01*
X93897722Y-137151931D01*
X93898225Y-137146828D01*
X93895553Y-136656295D01*
X93898048Y-136639536D01*
X93895363Y-136621386D01*
X93895343Y-136617564D01*
X93894496Y-136615519D01*
X93893746Y-136610447D01*
X93823914Y-136341323D01*
X93823914Y-136331851D01*
X93817334Y-136315965D01*
X93812424Y-136297042D01*
X93805784Y-136288081D01*
X93801517Y-136277778D01*
X93782862Y-136255048D01*
X93671911Y-136146828D01*
X95383939Y-136146828D01*
X95386821Y-137676092D01*
X95409219Y-137730164D01*
X95450603Y-137771548D01*
X95504675Y-137793946D01*
X95563203Y-137793946D01*
X95617275Y-137771548D01*
X95658659Y-137730164D01*
X95681057Y-137676092D01*
X95683939Y-137646828D01*
X95682372Y-136815843D01*
X95898209Y-137275494D01*
X95905679Y-137296035D01*
X95910144Y-137300911D01*
X95912999Y-137306990D01*
X95929804Y-137322380D01*
X95945206Y-137339198D01*
X95951249Y-137342018D01*
X95956162Y-137346517D01*
X95977582Y-137354306D01*
X95998244Y-137363948D01*
X96004901Y-137364240D01*
X96011164Y-137366518D01*
X96033943Y-137365517D01*
X96056714Y-137366518D01*
X96062973Y-137364241D01*
X96069635Y-137363949D01*
X96090302Y-137354304D01*
X96111717Y-137346517D01*
X96116630Y-137342017D01*
X96122672Y-137339198D01*
X96138067Y-137322385D01*
X96154880Y-137306990D01*
X96159848Y-137298601D01*
X96162199Y-137296035D01*
X96163518Y-137292405D01*
X96169866Y-137281690D01*
X96385202Y-136817375D01*
X96386821Y-137676092D01*
X96409219Y-137730164D01*
X96450603Y-137771548D01*
X96504675Y-137793946D01*
X96563203Y-137793946D01*
X96617275Y-137771548D01*
X96658659Y-137730164D01*
X96681057Y-137676092D01*
X96683939Y-137646828D01*
X96682054Y-136646828D01*
X97098225Y-136646828D01*
X97101107Y-137676092D01*
X97123505Y-137730164D01*
X97164889Y-137771548D01*
X97218961Y-137793946D01*
X97277489Y-137793946D01*
X97331561Y-137771548D01*
X97372945Y-137730164D01*
X97395343Y-137676092D01*
X97398225Y-137646828D01*
X97395425Y-136646828D01*
X97812511Y-136646828D01*
X97815393Y-137676092D01*
X97837791Y-137730164D01*
X97879175Y-137771548D01*
X97933247Y-137793946D01*
X97991775Y-137793946D01*
X98045847Y-137771548D01*
X98087231Y-137730164D01*
X98109629Y-137676092D01*
X98112511Y-137646828D01*
X98110285Y-136852155D01*
X98118924Y-136843125D01*
X98208824Y-136796449D01*
X98352594Y-136794747D01*
X98421996Y-136828136D01*
X98455480Y-136892625D01*
X98458251Y-137676092D01*
X98480649Y-137730164D01*
X98522033Y-137771548D01*
X98576105Y-137793946D01*
X98634633Y-137793946D01*
X98688705Y-137771548D01*
X98730089Y-137730164D01*
X98752487Y-137676092D01*
X98755369Y-137646828D01*
X98753601Y-137146984D01*
X99098226Y-137146984D01*
X99099631Y-137154010D01*
X99100856Y-137409422D01*
X99099404Y-137413780D01*
X99100984Y-137436021D01*
X99101108Y-137461806D01*
X99103170Y-137466784D01*
X99103552Y-137472160D01*
X99114062Y-137499623D01*
X99184615Y-137635510D01*
X99189340Y-137649685D01*
X99195904Y-137657253D01*
X99201155Y-137667367D01*
X99215361Y-137679688D01*
X99227687Y-137693900D01*
X99242491Y-137703218D01*
X99245369Y-137705714D01*
X99247680Y-137706484D01*
X99252573Y-137709564D01*
X99377098Y-137769470D01*
X99379176Y-137771548D01*
X99395298Y-137778226D01*
X99422894Y-137791502D01*
X99428269Y-137791883D01*
X99433248Y-137793946D01*
X99462512Y-137796828D01*
X99725771Y-137794419D01*
X99729464Y-137795650D01*
X99749892Y-137794198D01*
X99777490Y-137793946D01*
X99782468Y-137791883D01*
X99787844Y-137791502D01*
X99815308Y-137780992D01*
X99983051Y-137693899D01*
X100021397Y-137649684D01*
X100039905Y-137594162D01*
X100035757Y-137535782D01*
X100009583Y-137483433D01*
X99965368Y-137445086D01*
X99909845Y-137426578D01*
X99851465Y-137430726D01*
X99824002Y-137441236D01*
X99716369Y-137497119D01*
X99501371Y-137499086D01*
X99431597Y-137465520D01*
X99398074Y-137400953D01*
X99397443Y-137269480D01*
X99977914Y-137151089D01*
X99991776Y-137151089D01*
X100005221Y-137145519D01*
X100020060Y-137142493D01*
X100032271Y-137134314D01*
X100045848Y-137128691D01*
X100056349Y-137118189D01*
X100068690Y-137109925D01*
X100076842Y-137097697D01*
X100087232Y-137087307D01*
X100092914Y-137073587D01*
X100101154Y-137061229D01*
X100104006Y-137046811D01*
X100109630Y-137033235D01*
X100112512Y-137003971D01*
X100112509Y-137003830D01*
X100112513Y-137003814D01*
X100112509Y-137003794D01*
X100110477Y-136882445D01*
X100111334Y-136879875D01*
X100110156Y-136863310D01*
X100109630Y-136831850D01*
X100107566Y-136826869D01*
X100107185Y-136821495D01*
X100096676Y-136794031D01*
X100026119Y-136658139D01*
X100022349Y-136646828D01*
X100455368Y-136646828D01*
X100458250Y-137676092D01*
X100480648Y-137730164D01*
X100522032Y-137771548D01*
X100576104Y-137793946D01*
X100634632Y-137793946D01*
X100688704Y-137771548D01*
X100730088Y-137730164D01*
X100752486Y-137676092D01*
X100755368Y-137646828D01*
X100753474Y-136970642D01*
X100796220Y-136881789D01*
X100833210Y-136843125D01*
X100923423Y-136796286D01*
X101063204Y-136793946D01*
X101117276Y-136771548D01*
X101158660Y-136730164D01*
X101181058Y-136676092D01*
X101181058Y-136617564D01*
X101158660Y-136563492D01*
X101117276Y-136522108D01*
X101063204Y-136499710D01*
X101033940Y-136496828D01*
X100912414Y-136498862D01*
X100909844Y-136498006D01*
X100893279Y-136499183D01*
X100861819Y-136499710D01*
X100856838Y-136501773D01*
X100851464Y-136502155D01*
X100824000Y-136512664D01*
X100728727Y-136562131D01*
X100688704Y-136522108D01*
X100634632Y-136499710D01*
X100576104Y-136499710D01*
X100522032Y-136522108D01*
X100480648Y-136563492D01*
X100458250Y-136617564D01*
X100455368Y-136646828D01*
X100022349Y-136646828D01*
X100021397Y-136643973D01*
X100014835Y-136636407D01*
X100009582Y-136626289D01*
X99995372Y-136613965D01*
X99983051Y-136599758D01*
X99968245Y-136590438D01*
X99965367Y-136587942D01*
X99963055Y-136587171D01*
X99958165Y-136584093D01*
X99833640Y-136524186D01*
X99831562Y-136522108D01*
X99815430Y-136515426D01*
X99787845Y-136502155D01*
X99782470Y-136501773D01*
X99777490Y-136499710D01*
X99748226Y-136496828D01*
X99484965Y-136499236D01*
X99481273Y-136498006D01*
X99460844Y-136499457D01*
X99433248Y-136499710D01*
X99428270Y-136501771D01*
X99422893Y-136502154D01*
X99395430Y-136512664D01*
X99259538Y-136583220D01*
X99245370Y-136587943D01*
X99237804Y-136594504D01*
X99227686Y-136599758D01*
X99215363Y-136613966D01*
X99201155Y-136626289D01*
X99191832Y-136641098D01*
X99189340Y-136643973D01*
X99188570Y-136646280D01*
X99185490Y-136651175D01*
X99125583Y-136775700D01*
X99123506Y-136777778D01*
X99116827Y-136793900D01*
X99103552Y-136821496D01*
X99103170Y-136826871D01*
X99101108Y-136831850D01*
X99098226Y-136861114D01*
X99099565Y-137140215D01*
X99098226Y-137146984D01*
X98753601Y-137146984D01*
X98752672Y-136884429D01*
X98754191Y-136879875D01*
X98752576Y-136857157D01*
X98752487Y-136831850D01*
X98750423Y-136826869D01*
X98750042Y-136821495D01*
X98739533Y-136794031D01*
X98668976Y-136658139D01*
X98664254Y-136643973D01*
X98657692Y-136636407D01*
X98652439Y-136626289D01*
X98638229Y-136613965D01*
X98625908Y-136599758D01*
X98611102Y-136590438D01*
X98608224Y-136587942D01*
X98605912Y-136587171D01*
X98601022Y-136584093D01*
X98476497Y-136524186D01*
X98474419Y-136522108D01*
X98458287Y-136515426D01*
X98430702Y-136502155D01*
X98425327Y-136501773D01*
X98420347Y-136499710D01*
X98391083Y-136496828D01*
X98198848Y-136499102D01*
X98195558Y-136498006D01*
X98176385Y-136499368D01*
X98147533Y-136499710D01*
X98142552Y-136501773D01*
X98137178Y-136502155D01*
X98109714Y-136512664D01*
X98061458Y-136537719D01*
X98045847Y-136522108D01*
X97991775Y-136499710D01*
X97933247Y-136499710D01*
X97879175Y-136522108D01*
X97837791Y-136563492D01*
X97815393Y-136617564D01*
X97812511Y-136646828D01*
X97395425Y-136646828D01*
X97395343Y-136617564D01*
X97372945Y-136563492D01*
X97331561Y-136522108D01*
X97277489Y-136499710D01*
X97218961Y-136499710D01*
X97164889Y-136522108D01*
X97123505Y-136563492D01*
X97101107Y-136617564D01*
X97098225Y-136646828D01*
X96682054Y-136646828D01*
X96681301Y-136247521D01*
X97029679Y-136247521D01*
X97034985Y-136260330D01*
X97052076Y-136301592D01*
X97070731Y-136324323D01*
X97164889Y-136414406D01*
X97187286Y-136423682D01*
X97218961Y-136436803D01*
X97277489Y-136436803D01*
X97315723Y-136420965D01*
X97331560Y-136414406D01*
X97331564Y-136414401D01*
X97354290Y-136395752D01*
X97444374Y-136301593D01*
X97444375Y-136301592D01*
X97466772Y-136247520D01*
X97466772Y-136188994D01*
X97449307Y-136146828D01*
X102526796Y-136146828D01*
X102529678Y-137676092D01*
X102552076Y-137730164D01*
X102593460Y-137771548D01*
X102647532Y-137793946D01*
X102706060Y-137793946D01*
X102760132Y-137771548D01*
X102801516Y-137730164D01*
X102823914Y-137676092D01*
X102826796Y-137646828D01*
X102825229Y-136815843D01*
X103041066Y-137275494D01*
X103048536Y-137296035D01*
X103053001Y-137300911D01*
X103055856Y-137306990D01*
X103072661Y-137322380D01*
X103088063Y-137339198D01*
X103094106Y-137342018D01*
X103099019Y-137346517D01*
X103120439Y-137354306D01*
X103141101Y-137363948D01*
X103147758Y-137364240D01*
X103154021Y-137366518D01*
X103176800Y-137365517D01*
X103199571Y-137366518D01*
X103205830Y-137364241D01*
X103212492Y-137363949D01*
X103233159Y-137354304D01*
X103254574Y-137346517D01*
X103259487Y-137342017D01*
X103265529Y-137339198D01*
X103280924Y-137322385D01*
X103297737Y-137306990D01*
X103302705Y-137298601D01*
X103305056Y-137296035D01*
X103306375Y-137292405D01*
X103312723Y-137281690D01*
X103528059Y-136817375D01*
X103529678Y-137676092D01*
X103552076Y-137730164D01*
X103593460Y-137771548D01*
X103647532Y-137793946D01*
X103706060Y-137793946D01*
X103760132Y-137771548D01*
X103801516Y-137730164D01*
X103823914Y-137676092D01*
X103826796Y-137646828D01*
X103823972Y-136148720D01*
X103824055Y-136146828D01*
X104241082Y-136146828D01*
X104243964Y-137676092D01*
X104266362Y-137730164D01*
X104307746Y-137771548D01*
X104361818Y-137793946D01*
X104391082Y-137796828D01*
X104939391Y-137794197D01*
X104943749Y-137795650D01*
X104965990Y-137794069D01*
X104991775Y-137793946D01*
X104996753Y-137791883D01*
X105002129Y-137791502D01*
X105029593Y-137780992D01*
X105172134Y-137706983D01*
X105188703Y-137700121D01*
X105194473Y-137695385D01*
X105197336Y-137693899D01*
X105199932Y-137690905D01*
X105211434Y-137681466D01*
X105283335Y-137606310D01*
X105295296Y-137595938D01*
X105299213Y-137589714D01*
X105301518Y-137587306D01*
X105303034Y-137583644D01*
X105310961Y-137571053D01*
X105370867Y-137446527D01*
X105372945Y-137444450D01*
X105379623Y-137428327D01*
X105392899Y-137400732D01*
X105393280Y-137395356D01*
X105395343Y-137390378D01*
X105398225Y-137361114D01*
X105395950Y-137168880D01*
X105397047Y-137165590D01*
X105395684Y-137146411D01*
X105395343Y-137117564D01*
X105393280Y-137112585D01*
X105392899Y-137107210D01*
X105382389Y-137079747D01*
X105308383Y-136937209D01*
X105301518Y-136920636D01*
X105296780Y-136914863D01*
X105295296Y-136912004D01*
X105292304Y-136909409D01*
X105282863Y-136897905D01*
X105224718Y-136842276D01*
X105223867Y-136840575D01*
X105213934Y-136831960D01*
X105207200Y-136825517D01*
X105211905Y-136820598D01*
X105223867Y-136810225D01*
X105227784Y-136804002D01*
X105230089Y-136801593D01*
X105231605Y-136797930D01*
X105239532Y-136785339D01*
X105271804Y-136718257D01*
X106812511Y-136718257D01*
X106815107Y-137066430D01*
X106812688Y-137082691D01*
X106815364Y-137100785D01*
X106815393Y-137104664D01*
X106816240Y-137106708D01*
X106816990Y-137111780D01*
X106888247Y-137386400D01*
X106889266Y-137400733D01*
X106897654Y-137422653D01*
X106898311Y-137425185D01*
X106898955Y-137426055D01*
X106899775Y-137428196D01*
X106973784Y-137570738D01*
X106980647Y-137587306D01*
X106985382Y-137593076D01*
X106986869Y-137595939D01*
X106989862Y-137598535D01*
X106999302Y-137610037D01*
X107074457Y-137681938D01*
X107084830Y-137693899D01*
X107091053Y-137697816D01*
X107093462Y-137700121D01*
X107097123Y-137701637D01*
X107109715Y-137709564D01*
X107234240Y-137769470D01*
X107236318Y-137771548D01*
X107252440Y-137778226D01*
X107280036Y-137791502D01*
X107285411Y-137791883D01*
X107290390Y-137793946D01*
X107319654Y-137796828D01*
X107441178Y-137794793D01*
X107443749Y-137795650D01*
X107460318Y-137794472D01*
X107491775Y-137793946D01*
X107496753Y-137791883D01*
X107502129Y-137791502D01*
X107529593Y-137780992D01*
X107672134Y-137706983D01*
X107688703Y-137700121D01*
X107694473Y-137695385D01*
X107697336Y-137693899D01*
X107699932Y-137690905D01*
X107711434Y-137681466D01*
X107783335Y-137606310D01*
X107795296Y-137595938D01*
X107799213Y-137589714D01*
X107801518Y-137587306D01*
X107803034Y-137583644D01*
X107810961Y-137571053D01*
X107876102Y-137435645D01*
X107883853Y-137425186D01*
X107891696Y-137403231D01*
X107892899Y-137400732D01*
X107892975Y-137399650D01*
X107893746Y-137397495D01*
X107960616Y-137119524D01*
X107966772Y-137104664D01*
X107968560Y-137086500D01*
X107969477Y-137082692D01*
X107969151Y-137080503D01*
X107969654Y-137075400D01*
X107967057Y-136727225D01*
X107968392Y-136718257D01*
X108241082Y-136718257D01*
X108243678Y-137066430D01*
X108241259Y-137082691D01*
X108243935Y-137100785D01*
X108243964Y-137104664D01*
X108244811Y-137106708D01*
X108245561Y-137111780D01*
X108316818Y-137386400D01*
X108317837Y-137400733D01*
X108326225Y-137422653D01*
X108326882Y-137425185D01*
X108327526Y-137426055D01*
X108328346Y-137428196D01*
X108402355Y-137570738D01*
X108409218Y-137587306D01*
X108413953Y-137593076D01*
X108415440Y-137595939D01*
X108418433Y-137598535D01*
X108427873Y-137610037D01*
X108503028Y-137681938D01*
X108513401Y-137693899D01*
X108519624Y-137697816D01*
X108522033Y-137700121D01*
X108525694Y-137701637D01*
X108538286Y-137709564D01*
X108662811Y-137769470D01*
X108664889Y-137771548D01*
X108681011Y-137778226D01*
X108708607Y-137791502D01*
X108713982Y-137791883D01*
X108718961Y-137793946D01*
X108748225Y-137796828D01*
X108869749Y-137794793D01*
X108872320Y-137795650D01*
X108888889Y-137794472D01*
X108920346Y-137793946D01*
X108925324Y-137791883D01*
X108930700Y-137791502D01*
X108958164Y-137780992D01*
X109100705Y-137706983D01*
X109117274Y-137700121D01*
X109123044Y-137695385D01*
X109125907Y-137693899D01*
X109128503Y-137690905D01*
X109140005Y-137681466D01*
X109211906Y-137606310D01*
X109223867Y-137595938D01*
X109227784Y-137589714D01*
X109230089Y-137587306D01*
X109231605Y-137583644D01*
X109239532Y-137571053D01*
X109304673Y-137435645D01*
X109312424Y-137425186D01*
X109320267Y-137403231D01*
X109321470Y-137400732D01*
X109321546Y-137399650D01*
X109322317Y-137397495D01*
X109389187Y-137119524D01*
X109395343Y-137104664D01*
X109397131Y-137086500D01*
X109398048Y-137082692D01*
X109397722Y-137080503D01*
X109398225Y-137075400D01*
X109395628Y-136727225D01*
X109398048Y-136710965D01*
X109395371Y-136692870D01*
X109395343Y-136688993D01*
X109394496Y-136686948D01*
X109393746Y-136681876D01*
X109361250Y-136556639D01*
X109670831Y-136556639D01*
X109674980Y-136615019D01*
X109701154Y-136667368D01*
X109745369Y-136705715D01*
X109800892Y-136724222D01*
X109859272Y-136720073D01*
X109886735Y-136709564D01*
X110029277Y-136635554D01*
X110045845Y-136628692D01*
X110051615Y-136623956D01*
X110054478Y-136622470D01*
X110057074Y-136619476D01*
X110068576Y-136610037D01*
X110099038Y-136578806D01*
X110100771Y-137498700D01*
X109790389Y-137499710D01*
X109736317Y-137522108D01*
X109694933Y-137563492D01*
X109672535Y-137617564D01*
X109672535Y-137676092D01*
X109694933Y-137730164D01*
X109736317Y-137771548D01*
X109790389Y-137793946D01*
X109819653Y-137796828D01*
X110706060Y-137793946D01*
X110760132Y-137771548D01*
X110801516Y-137730164D01*
X110823914Y-137676092D01*
X110823914Y-137617564D01*
X110801516Y-137563492D01*
X110760132Y-137522108D01*
X110706060Y-137499710D01*
X110676796Y-137496828D01*
X110397943Y-137497734D01*
X110397202Y-137104664D01*
X111172534Y-137104664D01*
X111194932Y-137158736D01*
X111236316Y-137200120D01*
X111290388Y-137222518D01*
X111319652Y-137225400D01*
X112491774Y-137222518D01*
X112545846Y-137200120D01*
X112587230Y-137158736D01*
X112609628Y-137104664D01*
X112609628Y-137046136D01*
X112587230Y-136992064D01*
X112545846Y-136950680D01*
X112491774Y-136928282D01*
X112462510Y-136925400D01*
X111290388Y-136928282D01*
X111236316Y-136950680D01*
X111194932Y-136992064D01*
X111172534Y-137046136D01*
X111172534Y-137104664D01*
X110397202Y-137104664D01*
X110396474Y-136718257D01*
X112955367Y-136718257D01*
X112957963Y-137066430D01*
X112955544Y-137082691D01*
X112958220Y-137100785D01*
X112958249Y-137104664D01*
X112959096Y-137106708D01*
X112959846Y-137111780D01*
X113031103Y-137386400D01*
X113032122Y-137400733D01*
X113040510Y-137422653D01*
X113041167Y-137425185D01*
X113041811Y-137426055D01*
X113042631Y-137428196D01*
X113116640Y-137570738D01*
X113123503Y-137587306D01*
X113128238Y-137593076D01*
X113129725Y-137595939D01*
X113132718Y-137598535D01*
X113142158Y-137610037D01*
X113217313Y-137681938D01*
X113227686Y-137693899D01*
X113233909Y-137697816D01*
X113236318Y-137700121D01*
X113239979Y-137701637D01*
X113252571Y-137709564D01*
X113377096Y-137769470D01*
X113379174Y-137771548D01*
X113395296Y-137778226D01*
X113422892Y-137791502D01*
X113428267Y-137791883D01*
X113433246Y-137793946D01*
X113462510Y-137796828D01*
X113584034Y-137794793D01*
X113586605Y-137795650D01*
X113603174Y-137794472D01*
X113634631Y-137793946D01*
X113639609Y-137791883D01*
X113644985Y-137791502D01*
X113672449Y-137780992D01*
X113814990Y-137706983D01*
X113831559Y-137700121D01*
X113837329Y-137695385D01*
X113840192Y-137693899D01*
X113842788Y-137690905D01*
X113854290Y-137681466D01*
X113926191Y-137606310D01*
X113938152Y-137595938D01*
X113942069Y-137589714D01*
X113944374Y-137587306D01*
X113945890Y-137583644D01*
X113953817Y-137571053D01*
X114018958Y-137435645D01*
X114026709Y-137425186D01*
X114034552Y-137403231D01*
X114035755Y-137400732D01*
X114035831Y-137399650D01*
X114036602Y-137397495D01*
X114103472Y-137119524D01*
X114109628Y-137104664D01*
X114111416Y-137086500D01*
X114112333Y-137082692D01*
X114112007Y-137080503D01*
X114112510Y-137075400D01*
X114109913Y-136727225D01*
X114112333Y-136710965D01*
X114109656Y-136692870D01*
X114109628Y-136688993D01*
X114108781Y-136686948D01*
X114108031Y-136681876D01*
X114075535Y-136556639D01*
X114385116Y-136556639D01*
X114389265Y-136615019D01*
X114415439Y-136667368D01*
X114459654Y-136705715D01*
X114515177Y-136724222D01*
X114573557Y-136720073D01*
X114601020Y-136709564D01*
X114743562Y-136635554D01*
X114760130Y-136628692D01*
X114765900Y-136623956D01*
X114768763Y-136622470D01*
X114771359Y-136619476D01*
X114782861Y-136610037D01*
X114813323Y-136578806D01*
X114815056Y-137498700D01*
X114504674Y-137499710D01*
X114450602Y-137522108D01*
X114409218Y-137563492D01*
X114386820Y-137617564D01*
X114386820Y-137676092D01*
X114409218Y-137730164D01*
X114450602Y-137771548D01*
X114504674Y-137793946D01*
X114533938Y-137796828D01*
X115420345Y-137793946D01*
X115474417Y-137771548D01*
X115515801Y-137730164D01*
X115538199Y-137676092D01*
X115538199Y-137628067D01*
X115670830Y-137628067D01*
X115674979Y-137686448D01*
X115701153Y-137738795D01*
X115745367Y-137777142D01*
X115800891Y-137795650D01*
X115859272Y-137791501D01*
X115911619Y-137765327D01*
X115949966Y-137721113D01*
X115961954Y-137694262D01*
X116070112Y-137367839D01*
X116570227Y-137365901D01*
X116689338Y-137721113D01*
X116727685Y-137765328D01*
X116780033Y-137791501D01*
X116838413Y-137795651D01*
X116893937Y-137777142D01*
X116938151Y-137738795D01*
X116964325Y-137686448D01*
X116968475Y-137628068D01*
X116961955Y-137599394D01*
X116465060Y-136117558D01*
X116464325Y-136107208D01*
X116456021Y-136090600D01*
X116449966Y-136072543D01*
X116442943Y-136064446D01*
X116438151Y-136054861D01*
X116423942Y-136042537D01*
X116411619Y-136028329D01*
X116402033Y-136023536D01*
X116393937Y-136016514D01*
X116376093Y-136010565D01*
X116359272Y-136002155D01*
X116348583Y-136001395D01*
X116338413Y-135998005D01*
X116319647Y-135999338D01*
X116300891Y-135998006D01*
X116290723Y-136001395D01*
X116280033Y-136002155D01*
X116263209Y-136010566D01*
X116245367Y-136016514D01*
X116237272Y-136023534D01*
X116227685Y-136028328D01*
X116215359Y-136042539D01*
X116201153Y-136054861D01*
X116196360Y-136064445D01*
X116189338Y-136072543D01*
X116177350Y-136099394D01*
X115820011Y-137177838D01*
X115815391Y-137188993D01*
X115815391Y-137191783D01*
X115670830Y-137628067D01*
X115538199Y-137628067D01*
X115538199Y-137617564D01*
X115515801Y-137563492D01*
X115474417Y-137522108D01*
X115420345Y-137499710D01*
X115391081Y-137496828D01*
X115112228Y-137497734D01*
X115109708Y-136160827D01*
X115112509Y-136146670D01*
X115109654Y-136132400D01*
X115109627Y-136117564D01*
X115103943Y-136103843D01*
X115101031Y-136089281D01*
X115092852Y-136077068D01*
X115087229Y-136063492D01*
X115076730Y-136052993D01*
X115068465Y-136040651D01*
X115056234Y-136032497D01*
X115045845Y-136022108D01*
X115032126Y-136016425D01*
X115019766Y-136008185D01*
X115005347Y-136005332D01*
X114991773Y-135999710D01*
X114976922Y-135999710D01*
X114962352Y-135996828D01*
X114947942Y-135999710D01*
X114933245Y-135999710D01*
X114919523Y-136005393D01*
X114904962Y-136008306D01*
X114892749Y-136016484D01*
X114879173Y-136022108D01*
X114868674Y-136032606D01*
X114856332Y-136040872D01*
X114837900Y-136063380D01*
X114837789Y-136063492D01*
X114837768Y-136063542D01*
X114837702Y-136063623D01*
X114711350Y-136257339D01*
X114593381Y-136378286D01*
X114441970Y-136456901D01*
X114403623Y-136501116D01*
X114385116Y-136556639D01*
X114075535Y-136556639D01*
X114036773Y-136407257D01*
X114035755Y-136392924D01*
X114027367Y-136371005D01*
X114026709Y-136368470D01*
X114026062Y-136367597D01*
X114025245Y-136365461D01*
X113951236Y-136222918D01*
X113944373Y-136206349D01*
X113939637Y-136200578D01*
X113938152Y-136197718D01*
X113935160Y-136195123D01*
X113925718Y-136183618D01*
X113850571Y-136111725D01*
X113840192Y-136099758D01*
X113833963Y-136095837D01*
X113831558Y-136093536D01*
X113827901Y-136092021D01*
X113815306Y-136084093D01*
X113690781Y-136024186D01*
X113688703Y-136022108D01*
X113672571Y-136015426D01*
X113644986Y-136002155D01*
X113639611Y-136001773D01*
X113634631Y-135999710D01*
X113605367Y-135996828D01*
X113483841Y-135998862D01*
X113481271Y-135998006D01*
X113464706Y-135999183D01*
X113433246Y-135999710D01*
X113428265Y-136001773D01*
X113422891Y-136002155D01*
X113395427Y-136012664D01*
X113252883Y-136086674D01*
X113236318Y-136093536D01*
X113230547Y-136098271D01*
X113227685Y-136099758D01*
X113225088Y-136102751D01*
X113213588Y-136112190D01*
X113141690Y-136187339D01*
X113129725Y-136197717D01*
X113125806Y-136203942D01*
X113123504Y-136206349D01*
X113121988Y-136210007D01*
X113114060Y-136222603D01*
X113048918Y-136358010D01*
X113041167Y-136368471D01*
X113033323Y-136390425D01*
X113032122Y-136392923D01*
X113032045Y-136394003D01*
X113031274Y-136396162D01*
X112964404Y-136674131D01*
X112958249Y-136688993D01*
X112956460Y-136707158D01*
X112955544Y-136710966D01*
X112955869Y-136713153D01*
X112955367Y-136718257D01*
X110396474Y-136718257D01*
X110395423Y-136160827D01*
X110398224Y-136146670D01*
X110395369Y-136132400D01*
X110395342Y-136117564D01*
X110389658Y-136103843D01*
X110386746Y-136089281D01*
X110378567Y-136077068D01*
X110372944Y-136063492D01*
X110362445Y-136052993D01*
X110354180Y-136040651D01*
X110341949Y-136032497D01*
X110331560Y-136022108D01*
X110317841Y-136016425D01*
X110305481Y-136008185D01*
X110291062Y-136005332D01*
X110277488Y-135999710D01*
X110262637Y-135999710D01*
X110248067Y-135996828D01*
X110233657Y-135999710D01*
X110218960Y-135999710D01*
X110205238Y-136005393D01*
X110190677Y-136008306D01*
X110178464Y-136016484D01*
X110164888Y-136022108D01*
X110154389Y-136032606D01*
X110142047Y-136040872D01*
X110123615Y-136063380D01*
X110123504Y-136063492D01*
X110123483Y-136063542D01*
X110123417Y-136063623D01*
X109997065Y-136257339D01*
X109879096Y-136378286D01*
X109727685Y-136456901D01*
X109689338Y-136501116D01*
X109670831Y-136556639D01*
X109361250Y-136556639D01*
X109322488Y-136407257D01*
X109321470Y-136392924D01*
X109313082Y-136371005D01*
X109312424Y-136368470D01*
X109311777Y-136367597D01*
X109310960Y-136365461D01*
X109236951Y-136222918D01*
X109230088Y-136206349D01*
X109225352Y-136200578D01*
X109223867Y-136197718D01*
X109220875Y-136195123D01*
X109211433Y-136183618D01*
X109136286Y-136111725D01*
X109125907Y-136099758D01*
X109119678Y-136095837D01*
X109117273Y-136093536D01*
X109113616Y-136092021D01*
X109101021Y-136084093D01*
X108976496Y-136024186D01*
X108974418Y-136022108D01*
X108958286Y-136015426D01*
X108930701Y-136002155D01*
X108925326Y-136001773D01*
X108920346Y-135999710D01*
X108891082Y-135996828D01*
X108769556Y-135998862D01*
X108766986Y-135998006D01*
X108750421Y-135999183D01*
X108718961Y-135999710D01*
X108713980Y-136001773D01*
X108708606Y-136002155D01*
X108681142Y-136012664D01*
X108538598Y-136086674D01*
X108522033Y-136093536D01*
X108516262Y-136098271D01*
X108513400Y-136099758D01*
X108510803Y-136102751D01*
X108499303Y-136112190D01*
X108427405Y-136187339D01*
X108415440Y-136197717D01*
X108411521Y-136203942D01*
X108409219Y-136206349D01*
X108407703Y-136210007D01*
X108399775Y-136222603D01*
X108334633Y-136358010D01*
X108326882Y-136368471D01*
X108319038Y-136390425D01*
X108317837Y-136392923D01*
X108317760Y-136394003D01*
X108316989Y-136396162D01*
X108250119Y-136674131D01*
X108243964Y-136688993D01*
X108242175Y-136707158D01*
X108241259Y-136710966D01*
X108241584Y-136713153D01*
X108241082Y-136718257D01*
X107968392Y-136718257D01*
X107969477Y-136710965D01*
X107966800Y-136692870D01*
X107966772Y-136688993D01*
X107965925Y-136686948D01*
X107965175Y-136681876D01*
X107893917Y-136407257D01*
X107892899Y-136392924D01*
X107884511Y-136371005D01*
X107883853Y-136368470D01*
X107883206Y-136367597D01*
X107882389Y-136365461D01*
X107808380Y-136222918D01*
X107801517Y-136206349D01*
X107796781Y-136200578D01*
X107795296Y-136197718D01*
X107792304Y-136195123D01*
X107782862Y-136183618D01*
X107707715Y-136111725D01*
X107697336Y-136099758D01*
X107691107Y-136095837D01*
X107688702Y-136093536D01*
X107685045Y-136092021D01*
X107672450Y-136084093D01*
X107547925Y-136024186D01*
X107545847Y-136022108D01*
X107529715Y-136015426D01*
X107502130Y-136002155D01*
X107496755Y-136001773D01*
X107491775Y-135999710D01*
X107462511Y-135996828D01*
X107340985Y-135998862D01*
X107338415Y-135998006D01*
X107321850Y-135999183D01*
X107290390Y-135999710D01*
X107285409Y-136001773D01*
X107280035Y-136002155D01*
X107252571Y-136012664D01*
X107110027Y-136086674D01*
X107093462Y-136093536D01*
X107087691Y-136098271D01*
X107084829Y-136099758D01*
X107082232Y-136102751D01*
X107070732Y-136112190D01*
X106998834Y-136187339D01*
X106986869Y-136197717D01*
X106982950Y-136203942D01*
X106980648Y-136206349D01*
X106979132Y-136210007D01*
X106971204Y-136222603D01*
X106906062Y-136358010D01*
X106898311Y-136368471D01*
X106890467Y-136390425D01*
X106889266Y-136392923D01*
X106889189Y-136394003D01*
X106888418Y-136396162D01*
X106821548Y-136674131D01*
X106815393Y-136688993D01*
X106813604Y-136707158D01*
X106812688Y-136710966D01*
X106813013Y-136713153D01*
X106812511Y-136718257D01*
X105271804Y-136718257D01*
X105299438Y-136660814D01*
X105301517Y-136658736D01*
X105308198Y-136642604D01*
X105321470Y-136615019D01*
X105321851Y-136609644D01*
X105323915Y-136604664D01*
X105326797Y-136575400D01*
X105324762Y-136453873D01*
X105325619Y-136451303D01*
X105324441Y-136434738D01*
X105323915Y-136403278D01*
X105321851Y-136398297D01*
X105321470Y-136392923D01*
X105310961Y-136365459D01*
X105236950Y-136222916D01*
X105230089Y-136206349D01*
X105225352Y-136200577D01*
X105223867Y-136197717D01*
X105220874Y-136195121D01*
X105211434Y-136183619D01*
X105136284Y-136111722D01*
X105125908Y-136099758D01*
X105119682Y-136095839D01*
X105117275Y-136093536D01*
X105113615Y-136092020D01*
X105101022Y-136084093D01*
X104976494Y-136024184D01*
X104974418Y-136022108D01*
X104958300Y-136015431D01*
X104930701Y-136002154D01*
X104925323Y-136001771D01*
X104920346Y-135999710D01*
X104891082Y-135996828D01*
X104361818Y-135999710D01*
X104307746Y-136022108D01*
X104266362Y-136063492D01*
X104243964Y-136117564D01*
X104241082Y-136146828D01*
X103824055Y-136146828D01*
X103825057Y-136124052D01*
X103823920Y-136120926D01*
X103823914Y-136117564D01*
X103813953Y-136093518D01*
X103805056Y-136069050D01*
X103802796Y-136066582D01*
X103801516Y-136063492D01*
X103783118Y-136045094D01*
X103765529Y-136025887D01*
X103762495Y-136024471D01*
X103760132Y-136022108D01*
X103736101Y-136012154D01*
X103712492Y-136001136D01*
X103709147Y-136000989D01*
X103706060Y-135999710D01*
X103680036Y-135999710D01*
X103654021Y-135998567D01*
X103650878Y-135999710D01*
X103647532Y-135999710D01*
X103623479Y-136009673D01*
X103599019Y-136018568D01*
X103596551Y-136020827D01*
X103593460Y-136022108D01*
X103575051Y-136040516D01*
X103555856Y-136058095D01*
X103553506Y-136062061D01*
X103552076Y-136063492D01*
X103550720Y-136066764D01*
X103540869Y-136083395D01*
X103177512Y-136866874D01*
X102810833Y-136085984D01*
X102801516Y-136063492D01*
X102799169Y-136061145D01*
X102797737Y-136058095D01*
X102778529Y-136040505D01*
X102760132Y-136022108D01*
X102757041Y-136020827D01*
X102754574Y-136018568D01*
X102730108Y-136009671D01*
X102706060Y-135999710D01*
X102702714Y-135999710D01*
X102699571Y-135998567D01*
X102673567Y-135999710D01*
X102647532Y-135999710D01*
X102644441Y-136000990D01*
X102641101Y-136001137D01*
X102617505Y-136012147D01*
X102593460Y-136022108D01*
X102591096Y-136024471D01*
X102588063Y-136025887D01*
X102570473Y-136045094D01*
X102552076Y-136063492D01*
X102550795Y-136066582D01*
X102548536Y-136069050D01*
X102539639Y-136093515D01*
X102529678Y-136117564D01*
X102529226Y-136122152D01*
X102528535Y-136124053D01*
X102528690Y-136127591D01*
X102526796Y-136146828D01*
X97449307Y-136146828D01*
X97444375Y-136134922D01*
X97425720Y-136112191D01*
X97331560Y-136022107D01*
X97297949Y-136008185D01*
X97277489Y-135999710D01*
X97218961Y-135999710D01*
X97198501Y-136008185D01*
X97164890Y-136022107D01*
X97164889Y-136022108D01*
X97142158Y-136040763D01*
X97052098Y-136134899D01*
X97052076Y-136134922D01*
X97031906Y-136183619D01*
X97029679Y-136188995D01*
X97029679Y-136247521D01*
X96681301Y-136247521D01*
X96681115Y-136148720D01*
X96682200Y-136124052D01*
X96681063Y-136120926D01*
X96681057Y-136117564D01*
X96671096Y-136093518D01*
X96662199Y-136069050D01*
X96659939Y-136066582D01*
X96658659Y-136063492D01*
X96640261Y-136045094D01*
X96622672Y-136025887D01*
X96619638Y-136024471D01*
X96617275Y-136022108D01*
X96593244Y-136012154D01*
X96569635Y-136001136D01*
X96566290Y-136000989D01*
X96563203Y-135999710D01*
X96537179Y-135999710D01*
X96511164Y-135998567D01*
X96508021Y-135999710D01*
X96504675Y-135999710D01*
X96480622Y-136009673D01*
X96456162Y-136018568D01*
X96453694Y-136020827D01*
X96450603Y-136022108D01*
X96432194Y-136040516D01*
X96412999Y-136058095D01*
X96410649Y-136062061D01*
X96409219Y-136063492D01*
X96407863Y-136066764D01*
X96398012Y-136083395D01*
X96034655Y-136866874D01*
X95667976Y-136085984D01*
X95658659Y-136063492D01*
X95656312Y-136061145D01*
X95654880Y-136058095D01*
X95635672Y-136040505D01*
X95617275Y-136022108D01*
X95614184Y-136020827D01*
X95611717Y-136018568D01*
X95587251Y-136009671D01*
X95563203Y-135999710D01*
X95559857Y-135999710D01*
X95556714Y-135998567D01*
X95530710Y-135999710D01*
X95504675Y-135999710D01*
X95501584Y-136000990D01*
X95498244Y-136001137D01*
X95474648Y-136012147D01*
X95450603Y-136022108D01*
X95448239Y-136024471D01*
X95445206Y-136025887D01*
X95427616Y-136045094D01*
X95409219Y-136063492D01*
X95407938Y-136066582D01*
X95405679Y-136069050D01*
X95396782Y-136093515D01*
X95386821Y-136117564D01*
X95386369Y-136122152D01*
X95385678Y-136124053D01*
X95385833Y-136127591D01*
X95383939Y-136146828D01*
X93671911Y-136146828D01*
X93638281Y-136114026D01*
X93625907Y-136099758D01*
X93619551Y-136095757D01*
X93617274Y-136093536D01*
X93613614Y-136092020D01*
X93601021Y-136084093D01*
X93476496Y-136024186D01*
X93474418Y-136022108D01*
X93458286Y-136015426D01*
X93430701Y-136002155D01*
X93425326Y-136001773D01*
X93420346Y-135999710D01*
X93391082Y-135996828D01*
X93127821Y-135999236D01*
X93124129Y-135998006D01*
X93103705Y-135999457D01*
X93076104Y-135999710D01*
X93071123Y-136001773D01*
X93065749Y-136002155D01*
X93038285Y-136012664D01*
X92895741Y-136086674D01*
X92879176Y-136093536D01*
X92873405Y-136098271D01*
X92870543Y-136099758D01*
X92867946Y-136102752D01*
X92856445Y-136112191D01*
X92726441Y-136245473D01*
X92718869Y-136250017D01*
X92708942Y-136263414D01*
X92694932Y-136277778D01*
X92690663Y-136288083D01*
X92684025Y-136297043D01*
X92674132Y-136324734D01*
X92607263Y-136602702D01*
X92601107Y-136617564D01*
X92599318Y-136635729D01*
X92598402Y-136639537D01*
X92598727Y-136641724D01*
X92598225Y-136646828D01*
X91886782Y-136646828D01*
X92301517Y-136230164D01*
X92323914Y-136176091D01*
X92323914Y-136117565D01*
X92301517Y-136063493D01*
X92260131Y-136022107D01*
X92206059Y-135999710D01*
X92147533Y-135999710D01*
X92093460Y-136022107D01*
X92070730Y-136040762D01*
X91467767Y-136646530D01*
X91466771Y-136117564D01*
X91444373Y-136063492D01*
X91402989Y-136022108D01*
X91348917Y-135999710D01*
X91290389Y-135999710D01*
X91236317Y-136022108D01*
X91194933Y-136063492D01*
X91172535Y-136117564D01*
X91169653Y-136146828D01*
X90823914Y-136146828D01*
X90823914Y-136117564D01*
X90801516Y-136063492D01*
X90760132Y-136022108D01*
X90706060Y-135999710D01*
X90676796Y-135996828D01*
X89933246Y-135999710D01*
X89879174Y-136022108D01*
X89837790Y-136063492D01*
X89815392Y-136117564D01*
X89812510Y-136146828D01*
X89645843Y-136146828D01*
X89645843Y-135830161D01*
X117135142Y-135830161D01*
X117135142Y-138106352D01*
G37*
D11*
%TO.C,U1*%
X193732000Y-106194500D03*
X193732000Y-105694500D03*
X193732000Y-105194500D03*
X193732000Y-104694500D03*
X193732000Y-104194500D03*
X193732000Y-103694500D03*
D12*
X193044500Y-103007000D03*
X192544500Y-103007000D03*
X192044500Y-103007000D03*
X191544500Y-103007000D03*
X191044500Y-103007000D03*
X190544500Y-103007000D03*
D11*
X189857000Y-103694500D03*
X189857000Y-104194500D03*
X189857000Y-104694500D03*
X189857000Y-105194500D03*
X189857000Y-105694500D03*
X189857000Y-106194500D03*
D12*
X190544500Y-106882000D03*
X191044500Y-106882000D03*
X191544500Y-106882000D03*
X192044500Y-106882000D03*
X192544500Y-106882000D03*
X193044500Y-106882000D03*
D13*
X191794500Y-104944500D03*
%TD*%
D14*
%TO.C,C16*%
X190754000Y-56906000D03*
X190754000Y-61306000D03*
%TD*%
%TO.C,C15*%
X158750000Y-56906000D03*
X158750000Y-61306000D03*
%TD*%
%TO.C,C13*%
X108458000Y-56906000D03*
X108458000Y-61306000D03*
%TD*%
%TO.C,C1*%
X121232000Y-111182000D03*
X121232000Y-115582000D03*
%TD*%
D15*
%TO.C,R23*%
X165632000Y-129557000D03*
X165632000Y-127907000D03*
%TD*%
D16*
%TO.C,R10*%
X190794500Y-98557000D03*
X190794500Y-100207000D03*
%TD*%
D17*
%TO.C,J3*%
X200000000Y-81000000D03*
X200000000Y-90150000D03*
D18*
X201250000Y-69350000D03*
D19*
X203250000Y-70350000D03*
X201250000Y-71350000D03*
X203250000Y-72350000D03*
X201250000Y-73350000D03*
X203250000Y-74350000D03*
X201250000Y-75350000D03*
X203250000Y-76350000D03*
X201250000Y-77350000D03*
X203250000Y-78350000D03*
X201250000Y-79350000D03*
X203250000Y-82350000D03*
X201250000Y-83350000D03*
X203250000Y-84350000D03*
X201250000Y-85350000D03*
X203250000Y-86350000D03*
X201250000Y-87350000D03*
X203250000Y-88350000D03*
D18*
X198750000Y-69350000D03*
D19*
X196750000Y-70350000D03*
X198750000Y-71350000D03*
X196750000Y-72350000D03*
X198750000Y-73350000D03*
X196750000Y-74350000D03*
X198750000Y-75350000D03*
X196750000Y-76350000D03*
X198750000Y-77350000D03*
X196750000Y-78350000D03*
X198750000Y-79350000D03*
X196750000Y-82350000D03*
X198750000Y-83350000D03*
X196750000Y-84350000D03*
X198750000Y-85350000D03*
X196750000Y-86350000D03*
X198750000Y-87350000D03*
X196750000Y-88350000D03*
%TD*%
D20*
%TO.C,C14*%
X139700000Y-106083000D03*
X139700000Y-107633000D03*
%TD*%
D21*
%TO.C,X1*%
X201032000Y-104682000D03*
X201032000Y-102582000D03*
X199382000Y-102582000D03*
X199382000Y-104682000D03*
%TD*%
D22*
%TO.C,U2*%
X171097000Y-106732000D03*
X169827000Y-106732000D03*
X168557000Y-106732000D03*
X167287000Y-106732000D03*
X166017000Y-106732000D03*
X164747000Y-106732000D03*
X163477000Y-106732000D03*
X162207000Y-106732000D03*
X160937000Y-106732000D03*
X159667000Y-106732000D03*
X158397000Y-106732000D03*
X157127000Y-106732000D03*
X155857000Y-106732000D03*
X154587000Y-106732000D03*
D23*
X153492000Y-109767000D03*
X153492000Y-111037000D03*
X153492000Y-112307000D03*
X153492000Y-113577000D03*
X153492000Y-114847000D03*
X153492000Y-116117000D03*
X153492000Y-117387000D03*
X153492000Y-118657000D03*
X153492000Y-119927000D03*
X153492000Y-121197000D03*
D22*
X154587000Y-124232000D03*
X155857000Y-124232000D03*
X157127000Y-124232000D03*
X158397000Y-124232000D03*
X159667000Y-124232000D03*
X160937000Y-124232000D03*
X162207000Y-124232000D03*
X163477000Y-124232000D03*
X164747000Y-124232000D03*
X166017000Y-124232000D03*
X167287000Y-124232000D03*
X168557000Y-124232000D03*
X169827000Y-124232000D03*
X171097000Y-124232000D03*
D24*
X164232000Y-112582000D03*
X162832000Y-112582000D03*
X164932000Y-113282000D03*
X163532000Y-113282000D03*
X162132000Y-113282000D03*
X164232000Y-113982000D03*
D25*
X163532000Y-113982000D03*
D24*
X162832000Y-113982000D03*
X164932000Y-114682000D03*
X163532000Y-114682000D03*
X162132000Y-114682000D03*
X164232000Y-115382000D03*
X162832000Y-115382000D03*
%TD*%
D16*
%TO.C,R20*%
X148982000Y-101307000D03*
X148982000Y-102957000D03*
%TD*%
D26*
%TO.C,J6*%
X168382000Y-129382000D03*
D27*
X170922000Y-128582000D03*
X173462000Y-129382000D03*
X176002000Y-128582000D03*
X178542000Y-129382000D03*
X181082000Y-128582000D03*
%TD*%
D15*
%TO.C,R15*%
X193294500Y-111457000D03*
X193294500Y-109807000D03*
%TD*%
D16*
%TO.C,R19*%
X168482000Y-101307000D03*
X168482000Y-102957000D03*
%TD*%
D28*
%TO.C,H3*%
X213232000Y-136132000D03*
%TD*%
%TO.C,H2*%
X213232000Y-44132000D03*
%TD*%
D29*
%TO.C,U3*%
X116182000Y-115659500D03*
D30*
X109882000Y-113379500D03*
D29*
X116182000Y-111099500D03*
%TD*%
D31*
%TO.C,C5*%
X183544500Y-103907000D03*
X183544500Y-102357000D03*
%TD*%
D15*
%TO.C,R14*%
X195044500Y-111457000D03*
X195044500Y-109807000D03*
%TD*%
%TO.C,R1*%
X206732000Y-104707000D03*
X206732000Y-103057000D03*
%TD*%
D31*
%TO.C,C3*%
X92982000Y-122907000D03*
X92982000Y-121357000D03*
%TD*%
%TO.C,C10*%
X197044500Y-111469500D03*
X197044500Y-109919500D03*
%TD*%
D15*
%TO.C,R11*%
X190544500Y-111457000D03*
X190544500Y-109807000D03*
%TD*%
%TO.C,R9*%
X185294500Y-111519500D03*
X185294500Y-109869500D03*
%TD*%
D31*
%TO.C,C12*%
X187044500Y-111469500D03*
X187044500Y-109919500D03*
%TD*%
D16*
%TO.C,R5*%
X187294500Y-98619500D03*
X187294500Y-100269500D03*
%TD*%
D17*
%TO.C,J16*%
X150000000Y-55000000D03*
X150000000Y-64150000D03*
D18*
X151250000Y-43350000D03*
D19*
X153250000Y-44350000D03*
X151250000Y-45350000D03*
X153250000Y-46350000D03*
X151250000Y-47350000D03*
X153250000Y-48350000D03*
X151250000Y-49350000D03*
X153250000Y-50350000D03*
X151250000Y-51350000D03*
X153250000Y-52350000D03*
X151250000Y-53350000D03*
X153250000Y-56350000D03*
X151250000Y-57350000D03*
X153250000Y-58350000D03*
X151250000Y-59350000D03*
X153250000Y-60350000D03*
X151250000Y-61350000D03*
X153250000Y-62350000D03*
D18*
X148750000Y-43350000D03*
D19*
X146750000Y-44350000D03*
X148750000Y-45350000D03*
X146750000Y-46350000D03*
X148750000Y-47350000D03*
X146750000Y-48350000D03*
X148750000Y-49350000D03*
X146750000Y-50350000D03*
X148750000Y-51350000D03*
X146750000Y-52350000D03*
X148750000Y-53350000D03*
X146750000Y-56350000D03*
X148750000Y-57350000D03*
X146750000Y-58350000D03*
X148750000Y-59350000D03*
X146750000Y-60350000D03*
X148750000Y-61350000D03*
X146750000Y-62350000D03*
%TD*%
D16*
%TO.C,R6*%
X198044500Y-98557000D03*
X198044500Y-100207000D03*
%TD*%
D31*
%TO.C,C8*%
X196044500Y-100157000D03*
X196044500Y-98607000D03*
%TD*%
D17*
%TO.C,J1*%
X100000000Y-81000000D03*
X100000000Y-90150000D03*
D18*
X101250000Y-69350000D03*
D19*
X103250000Y-70350000D03*
X101250000Y-71350000D03*
X103250000Y-72350000D03*
X101250000Y-73350000D03*
X103250000Y-74350000D03*
X101250000Y-75350000D03*
X103250000Y-76350000D03*
X101250000Y-77350000D03*
X103250000Y-78350000D03*
X101250000Y-79350000D03*
X103250000Y-82350000D03*
X101250000Y-83350000D03*
X103250000Y-84350000D03*
X101250000Y-85350000D03*
X103250000Y-86350000D03*
X101250000Y-87350000D03*
X103250000Y-88350000D03*
D18*
X98750000Y-69350000D03*
D19*
X96750000Y-70350000D03*
X98750000Y-71350000D03*
X96750000Y-72350000D03*
X98750000Y-73350000D03*
X96750000Y-74350000D03*
X98750000Y-75350000D03*
X96750000Y-76350000D03*
X98750000Y-77350000D03*
X96750000Y-78350000D03*
X98750000Y-79350000D03*
X96750000Y-82350000D03*
X98750000Y-83350000D03*
X96750000Y-84350000D03*
X98750000Y-85350000D03*
X96750000Y-86350000D03*
X98750000Y-87350000D03*
X96750000Y-88350000D03*
%TD*%
D32*
%TO.C,Q1*%
X91869500Y-126969500D03*
X91869500Y-125069500D03*
X89994500Y-126019500D03*
%TD*%
D17*
%TO.C,J17*%
X200000000Y-55000000D03*
X200000000Y-64150000D03*
D18*
X201250000Y-43350000D03*
D19*
X203250000Y-44350000D03*
X201250000Y-45350000D03*
X203250000Y-46350000D03*
X201250000Y-47350000D03*
X203250000Y-48350000D03*
X201250000Y-49350000D03*
X203250000Y-50350000D03*
X201250000Y-51350000D03*
X203250000Y-52350000D03*
X201250000Y-53350000D03*
X203250000Y-56350000D03*
X201250000Y-57350000D03*
X203250000Y-58350000D03*
X201250000Y-59350000D03*
X203250000Y-60350000D03*
X201250000Y-61350000D03*
X203250000Y-62350000D03*
D18*
X198750000Y-43350000D03*
D19*
X196750000Y-44350000D03*
X198750000Y-45350000D03*
X196750000Y-46350000D03*
X198750000Y-47350000D03*
X196750000Y-48350000D03*
X198750000Y-49350000D03*
X196750000Y-50350000D03*
X198750000Y-51350000D03*
X196750000Y-52350000D03*
X198750000Y-53350000D03*
X196750000Y-56350000D03*
X198750000Y-57350000D03*
X196750000Y-58350000D03*
X198750000Y-59350000D03*
X196750000Y-60350000D03*
X198750000Y-61350000D03*
X196750000Y-62350000D03*
%TD*%
D17*
%TO.C,J15*%
X100000000Y-55000000D03*
X100000000Y-64150000D03*
D18*
X101250000Y-43350000D03*
D19*
X103250000Y-44350000D03*
X101250000Y-45350000D03*
X103250000Y-46350000D03*
X101250000Y-47350000D03*
X103250000Y-48350000D03*
X101250000Y-49350000D03*
X103250000Y-50350000D03*
X101250000Y-51350000D03*
X103250000Y-52350000D03*
X101250000Y-53350000D03*
X103250000Y-56350000D03*
X101250000Y-57350000D03*
X103250000Y-58350000D03*
X101250000Y-59350000D03*
X103250000Y-60350000D03*
X101250000Y-61350000D03*
X103250000Y-62350000D03*
D18*
X98750000Y-43350000D03*
D19*
X96750000Y-44350000D03*
X98750000Y-45350000D03*
X96750000Y-46350000D03*
X98750000Y-47350000D03*
X96750000Y-48350000D03*
X98750000Y-49350000D03*
X96750000Y-50350000D03*
X98750000Y-51350000D03*
X96750000Y-52350000D03*
X98750000Y-53350000D03*
X96750000Y-56350000D03*
X98750000Y-57350000D03*
X96750000Y-58350000D03*
X98750000Y-59350000D03*
X96750000Y-60350000D03*
X98750000Y-61350000D03*
X96750000Y-62350000D03*
%TD*%
D15*
%TO.C,R18*%
X203982000Y-118707000D03*
X203982000Y-117057000D03*
%TD*%
D33*
%TO.C,J5*%
X210732000Y-82582000D03*
D34*
X210732000Y-80082000D03*
%TD*%
D31*
%TO.C,C6*%
X203207000Y-104657000D03*
X203207000Y-103107000D03*
%TD*%
%TO.C,C2*%
X170732000Y-102907000D03*
X170732000Y-101357000D03*
%TD*%
D32*
%TO.C,Q3*%
X141832000Y-94332000D03*
X141832000Y-92432000D03*
X139957000Y-93382000D03*
%TD*%
D35*
%TO.C,R24*%
X114002000Y-93132000D03*
D36*
X86062000Y-93132000D03*
%TD*%
D28*
%TO.C,H1*%
X83232000Y-44132000D03*
%TD*%
D37*
%TO.C,R25*%
X139922000Y-88332000D03*
X140942000Y-88332000D03*
%TD*%
D31*
%TO.C,C11*%
X203482000Y-111469500D03*
X203482000Y-109919500D03*
%TD*%
%TO.C,C7*%
X194294500Y-100157000D03*
X194294500Y-98607000D03*
%TD*%
D16*
%TO.C,R2*%
X150982000Y-101307000D03*
X150982000Y-102957000D03*
%TD*%
%TO.C,R3*%
X185294500Y-102307000D03*
X185294500Y-103957000D03*
%TD*%
D31*
%TO.C,C9*%
X192544500Y-100157000D03*
X192544500Y-98607000D03*
%TD*%
D28*
%TO.C,H4*%
X83232000Y-136132000D03*
%TD*%
D16*
%TO.C,R4*%
X189044500Y-98557000D03*
X189044500Y-100207000D03*
%TD*%
D15*
%TO.C,R16*%
X181982000Y-118707000D03*
X181982000Y-117057000D03*
%TD*%
D38*
%TO.C,L1*%
X199169500Y-111444500D03*
X201294500Y-111444500D03*
%TD*%
D39*
%TO.C,R13*%
X196219500Y-107882000D03*
X197869500Y-107882000D03*
%TD*%
D17*
%TO.C,J2*%
X150000000Y-81000000D03*
X150000000Y-90150000D03*
D18*
X151250000Y-69350000D03*
D19*
X153250000Y-70350000D03*
X151250000Y-71350000D03*
X153250000Y-72350000D03*
X151250000Y-73350000D03*
X153250000Y-74350000D03*
X151250000Y-75350000D03*
X153250000Y-76350000D03*
X151250000Y-77350000D03*
X153250000Y-78350000D03*
X151250000Y-79350000D03*
X153250000Y-82350000D03*
X151250000Y-83350000D03*
X153250000Y-84350000D03*
X151250000Y-85350000D03*
X153250000Y-86350000D03*
X151250000Y-87350000D03*
X153250000Y-88350000D03*
D18*
X148750000Y-69350000D03*
D19*
X146750000Y-70350000D03*
X148750000Y-71350000D03*
X146750000Y-72350000D03*
X148750000Y-73350000D03*
X146750000Y-74350000D03*
X148750000Y-75350000D03*
X146750000Y-76350000D03*
X148750000Y-77350000D03*
X146750000Y-78350000D03*
X148750000Y-79350000D03*
X146750000Y-82350000D03*
X148750000Y-83350000D03*
X146750000Y-84350000D03*
X148750000Y-85350000D03*
X146750000Y-86350000D03*
X148750000Y-87350000D03*
X146750000Y-88350000D03*
%TD*%
D40*
%TO.C,C4*%
X108457000Y-119132000D03*
X110007000Y-119132000D03*
%TD*%
D15*
%TO.C,R12*%
X188794500Y-111457000D03*
X188794500Y-109807000D03*
%TD*%
%TO.C,R22*%
X131207000Y-107157000D03*
X131207000Y-105507000D03*
%TD*%
D41*
%TO.C,R7*%
X197457000Y-102532000D03*
X195807000Y-102532000D03*
%TD*%
D32*
%TO.C,Q2*%
X135032000Y-104832000D03*
X135032000Y-102932000D03*
X133157000Y-103882000D03*
%TD*%
D16*
%TO.C,R21*%
X89832000Y-121307000D03*
X89832000Y-122957000D03*
%TD*%
D15*
%TO.C,R17*%
X202232000Y-118707000D03*
X202232000Y-117057000D03*
%TD*%
%TO.C,R8*%
X183544500Y-111519500D03*
X183544500Y-109869500D03*
%TD*%
D42*
%TO.C,SW1*%
X163726000Y-128012000D03*
X157226000Y-128012000D03*
X163726000Y-132512000D03*
X157226000Y-132512000D03*
%TD*%
D26*
%TO.C,J13*%
X128778000Y-121600000D03*
D27*
X128778000Y-124140000D03*
X128778000Y-126680000D03*
X128778000Y-129220000D03*
%TD*%
D43*
%TO.C,J12*%
X88222000Y-68832000D03*
X88222000Y-86632000D03*
D44*
X83182000Y-73532000D03*
D45*
X83182000Y-77732000D03*
X83182000Y-81932000D03*
X88682000Y-73532000D03*
X88682000Y-77732000D03*
X88682000Y-81932000D03*
%TD*%
D46*
%TO.C,J9*%
X100482000Y-130782000D03*
X100482000Y-120782000D03*
%TD*%
D43*
%TO.C,J11*%
X113300000Y-54960000D03*
X135300000Y-54960000D03*
D47*
X118000000Y-60000000D03*
D48*
X122200000Y-60000000D03*
X126400000Y-60000000D03*
X130600000Y-60000000D03*
X118000000Y-54500000D03*
X122200000Y-54500000D03*
X126400000Y-54500000D03*
X130600000Y-54500000D03*
%TD*%
D43*
%TO.C,J10*%
X163300000Y-54960000D03*
X185300000Y-54960000D03*
D47*
X168000000Y-60000000D03*
D48*
X172200000Y-60000000D03*
X176400000Y-60000000D03*
X180600000Y-60000000D03*
X168000000Y-54500000D03*
X172200000Y-54500000D03*
X176400000Y-54500000D03*
X180600000Y-54500000D03*
%TD*%
D26*
%TO.C,J8*%
X146507000Y-96857000D03*
D27*
X146507000Y-99397000D03*
X149047000Y-96857000D03*
X149047000Y-99397000D03*
X151587000Y-96857000D03*
X151587000Y-99397000D03*
%TD*%
D49*
%TO.C,J4*%
X186772000Y-126955800D03*
X198202000Y-126955800D03*
D50*
X196932000Y-120605800D03*
D51*
X195662000Y-118065800D03*
X194392000Y-120605800D03*
X193122000Y-118065800D03*
X191852000Y-120605800D03*
X190582000Y-118065800D03*
X189312000Y-120605800D03*
X188042000Y-118065800D03*
D52*
X198834700Y-131070600D03*
X196294700Y-131070600D03*
X188704700Y-131070600D03*
X186164700Y-131070600D03*
D53*
X184613000Y-123605800D03*
X200361000Y-123605800D03*
%TD*%
D47*
%TO.C,J7*%
X87582000Y-106632000D03*
D48*
X91782000Y-106632000D03*
X95982000Y-106632000D03*
X100182000Y-106632000D03*
X104382000Y-106632000D03*
X108582000Y-106632000D03*
X112782000Y-106632000D03*
X116982000Y-106632000D03*
X121182000Y-106632000D03*
X125382000Y-106632000D03*
X87582000Y-101132000D03*
X91782000Y-101132000D03*
X95982000Y-101132000D03*
X100182000Y-101132000D03*
X104382000Y-101132000D03*
X108582000Y-101132000D03*
X112782000Y-101132000D03*
X116982000Y-101132000D03*
X121182000Y-101132000D03*
X125382000Y-101132000D03*
%TD*%
D54*
%TO.C,D1*%
X142282000Y-105582000D03*
X138182000Y-101482000D03*
%TD*%
D55*
X195832000Y-124932000D02*
X195832000Y-126132000D01*
X195832000Y-126132000D02*
G75*
G02*
X193832000Y-128132000I-2000000J0D01*
G01*
X191032000Y-128132000D02*
G75*
G02*
X189032000Y-126132000I0J2000000D01*
G01*
X189032000Y-124932000D02*
G75*
G02*
X191032000Y-122932000I2000000J0D01*
G01*
X193832000Y-122932000D02*
G75*
G02*
X195832000Y-124932000I0J-2000000D01*
G01*
X193832000Y-128132000D02*
X191032000Y-128132000D01*
X191032000Y-122932000D02*
X193832000Y-122932000D01*
X189032000Y-126132000D02*
X189032000Y-124932000D01*
X78232000Y-40132000D02*
X218232000Y-40132000D01*
X218232000Y-140132000D01*
X78232000Y-140132000D01*
X78232000Y-40132000D01*
M02*
