%TF.GenerationSoftware,KiCad,Pcbnew,8.0.1*%
%TF.CreationDate,2024-04-21T01:25:57+02:00*%
%TF.ProjectId,EKO_MyMiner,454b4f5f-4d79-44d6-996e-65722e6b6963,rev?*%
%TF.SameCoordinates,Original*%
%TF.FileFunction,Legend,Top*%
%TF.FilePolarity,Positive*%
%FSLAX46Y46*%
G04 Gerber Fmt 4.6, Leading zero omitted, Abs format (unit mm)*
G04 Created by KiCad (PCBNEW 8.0.1) date 2024-04-21 01:25:57*
%MOMM*%
%LPD*%
G01*
G04 APERTURE LIST*
%ADD10C,0.400000*%
%ADD11C,0.150000*%
%ADD12C,0.120000*%
%ADD13C,0.127000*%
%TA.AperFunction,Profile*%
%ADD14C,0.100000*%
%TD*%
G04 APERTURE END LIST*
D10*
X141476109Y-42456914D02*
X141571347Y-42361676D01*
X141571347Y-42361676D02*
X141761823Y-42266438D01*
X141761823Y-42266438D02*
X142238014Y-42266438D01*
X142238014Y-42266438D02*
X142428490Y-42361676D01*
X142428490Y-42361676D02*
X142523728Y-42456914D01*
X142523728Y-42456914D02*
X142618966Y-42647390D01*
X142618966Y-42647390D02*
X142618966Y-42837866D01*
X142618966Y-42837866D02*
X142523728Y-43123580D01*
X142523728Y-43123580D02*
X141380871Y-44266438D01*
X141380871Y-44266438D02*
X142618966Y-44266438D01*
X191980871Y-42066438D02*
X193218966Y-42066438D01*
X193218966Y-42066438D02*
X192552299Y-42828342D01*
X192552299Y-42828342D02*
X192838014Y-42828342D01*
X192838014Y-42828342D02*
X193028490Y-42923580D01*
X193028490Y-42923580D02*
X193123728Y-43018819D01*
X193123728Y-43018819D02*
X193218966Y-43209295D01*
X193218966Y-43209295D02*
X193218966Y-43685485D01*
X193218966Y-43685485D02*
X193123728Y-43875961D01*
X193123728Y-43875961D02*
X193028490Y-43971200D01*
X193028490Y-43971200D02*
X192838014Y-44066438D01*
X192838014Y-44066438D02*
X192266585Y-44066438D01*
X192266585Y-44066438D02*
X192076109Y-43971200D01*
X192076109Y-43971200D02*
X191980871Y-43875961D01*
X93218966Y-43866438D02*
X92076109Y-43866438D01*
X92647537Y-43866438D02*
X92647537Y-41866438D01*
X92647537Y-41866438D02*
X92457061Y-42152152D01*
X92457061Y-42152152D02*
X92266585Y-42342628D01*
X92266585Y-42342628D02*
X92076109Y-42437866D01*
D11*
X193776666Y-107744033D02*
X193776666Y-108310700D01*
X193776666Y-108310700D02*
X193810000Y-108377366D01*
X193810000Y-108377366D02*
X193843333Y-108410700D01*
X193843333Y-108410700D02*
X193910000Y-108444033D01*
X193910000Y-108444033D02*
X194043333Y-108444033D01*
X194043333Y-108444033D02*
X194110000Y-108410700D01*
X194110000Y-108410700D02*
X194143333Y-108377366D01*
X194143333Y-108377366D02*
X194176666Y-108310700D01*
X194176666Y-108310700D02*
X194176666Y-107744033D01*
X194876666Y-108444033D02*
X194476666Y-108444033D01*
X194676666Y-108444033D02*
X194676666Y-107744033D01*
X194676666Y-107744033D02*
X194609999Y-107844033D01*
X194609999Y-107844033D02*
X194543333Y-107910700D01*
X194543333Y-107910700D02*
X194476666Y-107944033D01*
X194813580Y-59748857D02*
X194861200Y-59796476D01*
X194861200Y-59796476D02*
X194908819Y-59939333D01*
X194908819Y-59939333D02*
X194908819Y-60034571D01*
X194908819Y-60034571D02*
X194861200Y-60177428D01*
X194861200Y-60177428D02*
X194765961Y-60272666D01*
X194765961Y-60272666D02*
X194670723Y-60320285D01*
X194670723Y-60320285D02*
X194480247Y-60367904D01*
X194480247Y-60367904D02*
X194337390Y-60367904D01*
X194337390Y-60367904D02*
X194146914Y-60320285D01*
X194146914Y-60320285D02*
X194051676Y-60272666D01*
X194051676Y-60272666D02*
X193956438Y-60177428D01*
X193956438Y-60177428D02*
X193908819Y-60034571D01*
X193908819Y-60034571D02*
X193908819Y-59939333D01*
X193908819Y-59939333D02*
X193956438Y-59796476D01*
X193956438Y-59796476D02*
X194004057Y-59748857D01*
X194908819Y-58796476D02*
X194908819Y-59367904D01*
X194908819Y-59082190D02*
X193908819Y-59082190D01*
X193908819Y-59082190D02*
X194051676Y-59177428D01*
X194051676Y-59177428D02*
X194146914Y-59272666D01*
X194146914Y-59272666D02*
X194194533Y-59367904D01*
X193908819Y-57939333D02*
X193908819Y-58129809D01*
X193908819Y-58129809D02*
X193956438Y-58225047D01*
X193956438Y-58225047D02*
X194004057Y-58272666D01*
X194004057Y-58272666D02*
X194146914Y-58367904D01*
X194146914Y-58367904D02*
X194337390Y-58415523D01*
X194337390Y-58415523D02*
X194718342Y-58415523D01*
X194718342Y-58415523D02*
X194813580Y-58367904D01*
X194813580Y-58367904D02*
X194861200Y-58320285D01*
X194861200Y-58320285D02*
X194908819Y-58225047D01*
X194908819Y-58225047D02*
X194908819Y-58034571D01*
X194908819Y-58034571D02*
X194861200Y-57939333D01*
X194861200Y-57939333D02*
X194813580Y-57891714D01*
X194813580Y-57891714D02*
X194718342Y-57844095D01*
X194718342Y-57844095D02*
X194480247Y-57844095D01*
X194480247Y-57844095D02*
X194385009Y-57891714D01*
X194385009Y-57891714D02*
X194337390Y-57939333D01*
X194337390Y-57939333D02*
X194289771Y-58034571D01*
X194289771Y-58034571D02*
X194289771Y-58225047D01*
X194289771Y-58225047D02*
X194337390Y-58320285D01*
X194337390Y-58320285D02*
X194385009Y-58367904D01*
X194385009Y-58367904D02*
X194480247Y-58415523D01*
X162809580Y-59748857D02*
X162857200Y-59796476D01*
X162857200Y-59796476D02*
X162904819Y-59939333D01*
X162904819Y-59939333D02*
X162904819Y-60034571D01*
X162904819Y-60034571D02*
X162857200Y-60177428D01*
X162857200Y-60177428D02*
X162761961Y-60272666D01*
X162761961Y-60272666D02*
X162666723Y-60320285D01*
X162666723Y-60320285D02*
X162476247Y-60367904D01*
X162476247Y-60367904D02*
X162333390Y-60367904D01*
X162333390Y-60367904D02*
X162142914Y-60320285D01*
X162142914Y-60320285D02*
X162047676Y-60272666D01*
X162047676Y-60272666D02*
X161952438Y-60177428D01*
X161952438Y-60177428D02*
X161904819Y-60034571D01*
X161904819Y-60034571D02*
X161904819Y-59939333D01*
X161904819Y-59939333D02*
X161952438Y-59796476D01*
X161952438Y-59796476D02*
X162000057Y-59748857D01*
X162904819Y-58796476D02*
X162904819Y-59367904D01*
X162904819Y-59082190D02*
X161904819Y-59082190D01*
X161904819Y-59082190D02*
X162047676Y-59177428D01*
X162047676Y-59177428D02*
X162142914Y-59272666D01*
X162142914Y-59272666D02*
X162190533Y-59367904D01*
X161904819Y-57891714D02*
X161904819Y-58367904D01*
X161904819Y-58367904D02*
X162381009Y-58415523D01*
X162381009Y-58415523D02*
X162333390Y-58367904D01*
X162333390Y-58367904D02*
X162285771Y-58272666D01*
X162285771Y-58272666D02*
X162285771Y-58034571D01*
X162285771Y-58034571D02*
X162333390Y-57939333D01*
X162333390Y-57939333D02*
X162381009Y-57891714D01*
X162381009Y-57891714D02*
X162476247Y-57844095D01*
X162476247Y-57844095D02*
X162714342Y-57844095D01*
X162714342Y-57844095D02*
X162809580Y-57891714D01*
X162809580Y-57891714D02*
X162857200Y-57939333D01*
X162857200Y-57939333D02*
X162904819Y-58034571D01*
X162904819Y-58034571D02*
X162904819Y-58272666D01*
X162904819Y-58272666D02*
X162857200Y-58367904D01*
X162857200Y-58367904D02*
X162809580Y-58415523D01*
X112517580Y-59748857D02*
X112565200Y-59796476D01*
X112565200Y-59796476D02*
X112612819Y-59939333D01*
X112612819Y-59939333D02*
X112612819Y-60034571D01*
X112612819Y-60034571D02*
X112565200Y-60177428D01*
X112565200Y-60177428D02*
X112469961Y-60272666D01*
X112469961Y-60272666D02*
X112374723Y-60320285D01*
X112374723Y-60320285D02*
X112184247Y-60367904D01*
X112184247Y-60367904D02*
X112041390Y-60367904D01*
X112041390Y-60367904D02*
X111850914Y-60320285D01*
X111850914Y-60320285D02*
X111755676Y-60272666D01*
X111755676Y-60272666D02*
X111660438Y-60177428D01*
X111660438Y-60177428D02*
X111612819Y-60034571D01*
X111612819Y-60034571D02*
X111612819Y-59939333D01*
X111612819Y-59939333D02*
X111660438Y-59796476D01*
X111660438Y-59796476D02*
X111708057Y-59748857D01*
X112612819Y-58796476D02*
X112612819Y-59367904D01*
X112612819Y-59082190D02*
X111612819Y-59082190D01*
X111612819Y-59082190D02*
X111755676Y-59177428D01*
X111755676Y-59177428D02*
X111850914Y-59272666D01*
X111850914Y-59272666D02*
X111898533Y-59367904D01*
X111612819Y-58463142D02*
X111612819Y-57844095D01*
X111612819Y-57844095D02*
X111993771Y-58177428D01*
X111993771Y-58177428D02*
X111993771Y-58034571D01*
X111993771Y-58034571D02*
X112041390Y-57939333D01*
X112041390Y-57939333D02*
X112089009Y-57891714D01*
X112089009Y-57891714D02*
X112184247Y-57844095D01*
X112184247Y-57844095D02*
X112422342Y-57844095D01*
X112422342Y-57844095D02*
X112517580Y-57891714D01*
X112517580Y-57891714D02*
X112565200Y-57939333D01*
X112565200Y-57939333D02*
X112612819Y-58034571D01*
X112612819Y-58034571D02*
X112612819Y-58320285D01*
X112612819Y-58320285D02*
X112565200Y-58415523D01*
X112565200Y-58415523D02*
X112517580Y-58463142D01*
X125181366Y-113498666D02*
X125214700Y-113531999D01*
X125214700Y-113531999D02*
X125248033Y-113631999D01*
X125248033Y-113631999D02*
X125248033Y-113698666D01*
X125248033Y-113698666D02*
X125214700Y-113798666D01*
X125214700Y-113798666D02*
X125148033Y-113865333D01*
X125148033Y-113865333D02*
X125081366Y-113898666D01*
X125081366Y-113898666D02*
X124948033Y-113931999D01*
X124948033Y-113931999D02*
X124848033Y-113931999D01*
X124848033Y-113931999D02*
X124714700Y-113898666D01*
X124714700Y-113898666D02*
X124648033Y-113865333D01*
X124648033Y-113865333D02*
X124581366Y-113798666D01*
X124581366Y-113798666D02*
X124548033Y-113698666D01*
X124548033Y-113698666D02*
X124548033Y-113631999D01*
X124548033Y-113631999D02*
X124581366Y-113531999D01*
X124581366Y-113531999D02*
X124614700Y-113498666D01*
X125248033Y-112831999D02*
X125248033Y-113231999D01*
X125248033Y-113031999D02*
X124548033Y-113031999D01*
X124548033Y-113031999D02*
X124648033Y-113098666D01*
X124648033Y-113098666D02*
X124714700Y-113165333D01*
X124714700Y-113165333D02*
X124748033Y-113231999D01*
X165948033Y-131782000D02*
X165614700Y-132015333D01*
X165948033Y-132182000D02*
X165248033Y-132182000D01*
X165248033Y-132182000D02*
X165248033Y-131915333D01*
X165248033Y-131915333D02*
X165281366Y-131848667D01*
X165281366Y-131848667D02*
X165314700Y-131815333D01*
X165314700Y-131815333D02*
X165381366Y-131782000D01*
X165381366Y-131782000D02*
X165481366Y-131782000D01*
X165481366Y-131782000D02*
X165548033Y-131815333D01*
X165548033Y-131815333D02*
X165581366Y-131848667D01*
X165581366Y-131848667D02*
X165614700Y-131915333D01*
X165614700Y-131915333D02*
X165614700Y-132182000D01*
X165314700Y-131515333D02*
X165281366Y-131482000D01*
X165281366Y-131482000D02*
X165248033Y-131415333D01*
X165248033Y-131415333D02*
X165248033Y-131248667D01*
X165248033Y-131248667D02*
X165281366Y-131182000D01*
X165281366Y-131182000D02*
X165314700Y-131148667D01*
X165314700Y-131148667D02*
X165381366Y-131115333D01*
X165381366Y-131115333D02*
X165448033Y-131115333D01*
X165448033Y-131115333D02*
X165548033Y-131148667D01*
X165548033Y-131148667D02*
X165948033Y-131548667D01*
X165948033Y-131548667D02*
X165948033Y-131115333D01*
X165248033Y-130882000D02*
X165248033Y-130448666D01*
X165248033Y-130448666D02*
X165514700Y-130682000D01*
X165514700Y-130682000D02*
X165514700Y-130582000D01*
X165514700Y-130582000D02*
X165548033Y-130515333D01*
X165548033Y-130515333D02*
X165581366Y-130482000D01*
X165581366Y-130482000D02*
X165648033Y-130448666D01*
X165648033Y-130448666D02*
X165814700Y-130448666D01*
X165814700Y-130448666D02*
X165881366Y-130482000D01*
X165881366Y-130482000D02*
X165914700Y-130515333D01*
X165914700Y-130515333D02*
X165948033Y-130582000D01*
X165948033Y-130582000D02*
X165948033Y-130782000D01*
X165948033Y-130782000D02*
X165914700Y-130848666D01*
X165914700Y-130848666D02*
X165881366Y-130882000D01*
X191110533Y-96784000D02*
X190777200Y-97017333D01*
X191110533Y-97184000D02*
X190410533Y-97184000D01*
X190410533Y-97184000D02*
X190410533Y-96917333D01*
X190410533Y-96917333D02*
X190443866Y-96850667D01*
X190443866Y-96850667D02*
X190477200Y-96817333D01*
X190477200Y-96817333D02*
X190543866Y-96784000D01*
X190543866Y-96784000D02*
X190643866Y-96784000D01*
X190643866Y-96784000D02*
X190710533Y-96817333D01*
X190710533Y-96817333D02*
X190743866Y-96850667D01*
X190743866Y-96850667D02*
X190777200Y-96917333D01*
X190777200Y-96917333D02*
X190777200Y-97184000D01*
X191110533Y-96117333D02*
X191110533Y-96517333D01*
X191110533Y-96317333D02*
X190410533Y-96317333D01*
X190410533Y-96317333D02*
X190510533Y-96384000D01*
X190510533Y-96384000D02*
X190577200Y-96450667D01*
X190577200Y-96450667D02*
X190610533Y-96517333D01*
X190410533Y-95684000D02*
X190410533Y-95617333D01*
X190410533Y-95617333D02*
X190443866Y-95550666D01*
X190443866Y-95550666D02*
X190477200Y-95517333D01*
X190477200Y-95517333D02*
X190543866Y-95484000D01*
X190543866Y-95484000D02*
X190677200Y-95450666D01*
X190677200Y-95450666D02*
X190843866Y-95450666D01*
X190843866Y-95450666D02*
X190977200Y-95484000D01*
X190977200Y-95484000D02*
X191043866Y-95517333D01*
X191043866Y-95517333D02*
X191077200Y-95550666D01*
X191077200Y-95550666D02*
X191110533Y-95617333D01*
X191110533Y-95617333D02*
X191110533Y-95684000D01*
X191110533Y-95684000D02*
X191077200Y-95750666D01*
X191077200Y-95750666D02*
X191043866Y-95784000D01*
X191043866Y-95784000D02*
X190977200Y-95817333D01*
X190977200Y-95817333D02*
X190843866Y-95850666D01*
X190843866Y-95850666D02*
X190677200Y-95850666D01*
X190677200Y-95850666D02*
X190543866Y-95817333D01*
X190543866Y-95817333D02*
X190477200Y-95784000D01*
X190477200Y-95784000D02*
X190443866Y-95750666D01*
X190443866Y-95750666D02*
X190410533Y-95684000D01*
X204691033Y-69908333D02*
X205191033Y-69908333D01*
X205191033Y-69908333D02*
X205291033Y-69941666D01*
X205291033Y-69941666D02*
X205357700Y-70008333D01*
X205357700Y-70008333D02*
X205391033Y-70108333D01*
X205391033Y-70108333D02*
X205391033Y-70175000D01*
X204691033Y-69641667D02*
X204691033Y-69208333D01*
X204691033Y-69208333D02*
X204957700Y-69441667D01*
X204957700Y-69441667D02*
X204957700Y-69341667D01*
X204957700Y-69341667D02*
X204991033Y-69275000D01*
X204991033Y-69275000D02*
X205024366Y-69241667D01*
X205024366Y-69241667D02*
X205091033Y-69208333D01*
X205091033Y-69208333D02*
X205257700Y-69208333D01*
X205257700Y-69208333D02*
X205324366Y-69241667D01*
X205324366Y-69241667D02*
X205357700Y-69275000D01*
X205357700Y-69275000D02*
X205391033Y-69341667D01*
X205391033Y-69341667D02*
X205391033Y-69541667D01*
X205391033Y-69541667D02*
X205357700Y-69608333D01*
X205357700Y-69608333D02*
X205324366Y-69641667D01*
X198563009Y-67936761D02*
X198610628Y-67793904D01*
X198610628Y-67793904D02*
X198658247Y-67746285D01*
X198658247Y-67746285D02*
X198753485Y-67698666D01*
X198753485Y-67698666D02*
X198896342Y-67698666D01*
X198896342Y-67698666D02*
X198991580Y-67746285D01*
X198991580Y-67746285D02*
X199039200Y-67793904D01*
X199039200Y-67793904D02*
X199086819Y-67889142D01*
X199086819Y-67889142D02*
X199086819Y-68270094D01*
X199086819Y-68270094D02*
X198086819Y-68270094D01*
X198086819Y-68270094D02*
X198086819Y-67936761D01*
X198086819Y-67936761D02*
X198134438Y-67841523D01*
X198134438Y-67841523D02*
X198182057Y-67793904D01*
X198182057Y-67793904D02*
X198277295Y-67746285D01*
X198277295Y-67746285D02*
X198372533Y-67746285D01*
X198372533Y-67746285D02*
X198467771Y-67793904D01*
X198467771Y-67793904D02*
X198515390Y-67841523D01*
X198515390Y-67841523D02*
X198563009Y-67936761D01*
X198563009Y-67936761D02*
X198563009Y-68270094D01*
X199086819Y-66746285D02*
X199086819Y-67317713D01*
X199086819Y-67031999D02*
X198086819Y-67031999D01*
X198086819Y-67031999D02*
X198229676Y-67127237D01*
X198229676Y-67127237D02*
X198324914Y-67222475D01*
X198324914Y-67222475D02*
X198372533Y-67317713D01*
X201401104Y-68246285D02*
X201401104Y-67770095D01*
X201686819Y-68341523D02*
X200686819Y-68008190D01*
X200686819Y-68008190D02*
X201686819Y-67674857D01*
X201686819Y-66817714D02*
X201686819Y-67389142D01*
X201686819Y-67103428D02*
X200686819Y-67103428D01*
X200686819Y-67103428D02*
X200829676Y-67198666D01*
X200829676Y-67198666D02*
X200924914Y-67293904D01*
X200924914Y-67293904D02*
X200972533Y-67389142D01*
X138549366Y-107308000D02*
X138582700Y-107341333D01*
X138582700Y-107341333D02*
X138616033Y-107441333D01*
X138616033Y-107441333D02*
X138616033Y-107508000D01*
X138616033Y-107508000D02*
X138582700Y-107608000D01*
X138582700Y-107608000D02*
X138516033Y-107674667D01*
X138516033Y-107674667D02*
X138449366Y-107708000D01*
X138449366Y-107708000D02*
X138316033Y-107741333D01*
X138316033Y-107741333D02*
X138216033Y-107741333D01*
X138216033Y-107741333D02*
X138082700Y-107708000D01*
X138082700Y-107708000D02*
X138016033Y-107674667D01*
X138016033Y-107674667D02*
X137949366Y-107608000D01*
X137949366Y-107608000D02*
X137916033Y-107508000D01*
X137916033Y-107508000D02*
X137916033Y-107441333D01*
X137916033Y-107441333D02*
X137949366Y-107341333D01*
X137949366Y-107341333D02*
X137982700Y-107308000D01*
X138616033Y-106641333D02*
X138616033Y-107041333D01*
X138616033Y-106841333D02*
X137916033Y-106841333D01*
X137916033Y-106841333D02*
X138016033Y-106908000D01*
X138016033Y-106908000D02*
X138082700Y-106974667D01*
X138082700Y-106974667D02*
X138116033Y-107041333D01*
X138149366Y-106041333D02*
X138616033Y-106041333D01*
X137882700Y-106208000D02*
X138382700Y-106374666D01*
X138382700Y-106374666D02*
X138382700Y-105941333D01*
X200390333Y-106248033D02*
X200856999Y-106948033D01*
X200856999Y-106248033D02*
X200390333Y-106948033D01*
X201490333Y-106948033D02*
X201090333Y-106948033D01*
X201290333Y-106948033D02*
X201290333Y-106248033D01*
X201290333Y-106248033D02*
X201223666Y-106348033D01*
X201223666Y-106348033D02*
X201157000Y-106414700D01*
X201157000Y-106414700D02*
X201090333Y-106448033D01*
X172298666Y-104548033D02*
X172298666Y-105114700D01*
X172298666Y-105114700D02*
X172332000Y-105181366D01*
X172332000Y-105181366D02*
X172365333Y-105214700D01*
X172365333Y-105214700D02*
X172432000Y-105248033D01*
X172432000Y-105248033D02*
X172565333Y-105248033D01*
X172565333Y-105248033D02*
X172632000Y-105214700D01*
X172632000Y-105214700D02*
X172665333Y-105181366D01*
X172665333Y-105181366D02*
X172698666Y-105114700D01*
X172698666Y-105114700D02*
X172698666Y-104548033D01*
X172998666Y-104614700D02*
X173031999Y-104581366D01*
X173031999Y-104581366D02*
X173098666Y-104548033D01*
X173098666Y-104548033D02*
X173265333Y-104548033D01*
X173265333Y-104548033D02*
X173331999Y-104581366D01*
X173331999Y-104581366D02*
X173365333Y-104614700D01*
X173365333Y-104614700D02*
X173398666Y-104681366D01*
X173398666Y-104681366D02*
X173398666Y-104748033D01*
X173398666Y-104748033D02*
X173365333Y-104848033D01*
X173365333Y-104848033D02*
X172965333Y-105248033D01*
X172965333Y-105248033D02*
X173398666Y-105248033D01*
X149298033Y-105382000D02*
X148964700Y-105615333D01*
X149298033Y-105782000D02*
X148598033Y-105782000D01*
X148598033Y-105782000D02*
X148598033Y-105515333D01*
X148598033Y-105515333D02*
X148631366Y-105448667D01*
X148631366Y-105448667D02*
X148664700Y-105415333D01*
X148664700Y-105415333D02*
X148731366Y-105382000D01*
X148731366Y-105382000D02*
X148831366Y-105382000D01*
X148831366Y-105382000D02*
X148898033Y-105415333D01*
X148898033Y-105415333D02*
X148931366Y-105448667D01*
X148931366Y-105448667D02*
X148964700Y-105515333D01*
X148964700Y-105515333D02*
X148964700Y-105782000D01*
X148664700Y-105115333D02*
X148631366Y-105082000D01*
X148631366Y-105082000D02*
X148598033Y-105015333D01*
X148598033Y-105015333D02*
X148598033Y-104848667D01*
X148598033Y-104848667D02*
X148631366Y-104782000D01*
X148631366Y-104782000D02*
X148664700Y-104748667D01*
X148664700Y-104748667D02*
X148731366Y-104715333D01*
X148731366Y-104715333D02*
X148798033Y-104715333D01*
X148798033Y-104715333D02*
X148898033Y-104748667D01*
X148898033Y-104748667D02*
X149298033Y-105148667D01*
X149298033Y-105148667D02*
X149298033Y-104715333D01*
X148598033Y-104282000D02*
X148598033Y-104215333D01*
X148598033Y-104215333D02*
X148631366Y-104148666D01*
X148631366Y-104148666D02*
X148664700Y-104115333D01*
X148664700Y-104115333D02*
X148731366Y-104082000D01*
X148731366Y-104082000D02*
X148864700Y-104048666D01*
X148864700Y-104048666D02*
X149031366Y-104048666D01*
X149031366Y-104048666D02*
X149164700Y-104082000D01*
X149164700Y-104082000D02*
X149231366Y-104115333D01*
X149231366Y-104115333D02*
X149264700Y-104148666D01*
X149264700Y-104148666D02*
X149298033Y-104215333D01*
X149298033Y-104215333D02*
X149298033Y-104282000D01*
X149298033Y-104282000D02*
X149264700Y-104348666D01*
X149264700Y-104348666D02*
X149231366Y-104382000D01*
X149231366Y-104382000D02*
X149164700Y-104415333D01*
X149164700Y-104415333D02*
X149031366Y-104448666D01*
X149031366Y-104448666D02*
X148864700Y-104448666D01*
X148864700Y-104448666D02*
X148731366Y-104415333D01*
X148731366Y-104415333D02*
X148664700Y-104382000D01*
X148664700Y-104382000D02*
X148631366Y-104348666D01*
X148631366Y-104348666D02*
X148598033Y-104282000D01*
X168168666Y-131366033D02*
X168168666Y-131866033D01*
X168168666Y-131866033D02*
X168135333Y-131966033D01*
X168135333Y-131966033D02*
X168068666Y-132032700D01*
X168068666Y-132032700D02*
X167968666Y-132066033D01*
X167968666Y-132066033D02*
X167902000Y-132066033D01*
X168801999Y-131366033D02*
X168668666Y-131366033D01*
X168668666Y-131366033D02*
X168601999Y-131399366D01*
X168601999Y-131399366D02*
X168568666Y-131432700D01*
X168568666Y-131432700D02*
X168501999Y-131532700D01*
X168501999Y-131532700D02*
X168468666Y-131666033D01*
X168468666Y-131666033D02*
X168468666Y-131932700D01*
X168468666Y-131932700D02*
X168501999Y-131999366D01*
X168501999Y-131999366D02*
X168535333Y-132032700D01*
X168535333Y-132032700D02*
X168601999Y-132066033D01*
X168601999Y-132066033D02*
X168735333Y-132066033D01*
X168735333Y-132066033D02*
X168801999Y-132032700D01*
X168801999Y-132032700D02*
X168835333Y-131999366D01*
X168835333Y-131999366D02*
X168868666Y-131932700D01*
X168868666Y-131932700D02*
X168868666Y-131766033D01*
X168868666Y-131766033D02*
X168835333Y-131699366D01*
X168835333Y-131699366D02*
X168801999Y-131666033D01*
X168801999Y-131666033D02*
X168735333Y-131632700D01*
X168735333Y-131632700D02*
X168601999Y-131632700D01*
X168601999Y-131632700D02*
X168535333Y-131666033D01*
X168535333Y-131666033D02*
X168501999Y-131699366D01*
X168501999Y-131699366D02*
X168468666Y-131766033D01*
X193610533Y-114332000D02*
X193277200Y-114565333D01*
X193610533Y-114732000D02*
X192910533Y-114732000D01*
X192910533Y-114732000D02*
X192910533Y-114465333D01*
X192910533Y-114465333D02*
X192943866Y-114398667D01*
X192943866Y-114398667D02*
X192977200Y-114365333D01*
X192977200Y-114365333D02*
X193043866Y-114332000D01*
X193043866Y-114332000D02*
X193143866Y-114332000D01*
X193143866Y-114332000D02*
X193210533Y-114365333D01*
X193210533Y-114365333D02*
X193243866Y-114398667D01*
X193243866Y-114398667D02*
X193277200Y-114465333D01*
X193277200Y-114465333D02*
X193277200Y-114732000D01*
X193610533Y-113665333D02*
X193610533Y-114065333D01*
X193610533Y-113865333D02*
X192910533Y-113865333D01*
X192910533Y-113865333D02*
X193010533Y-113932000D01*
X193010533Y-113932000D02*
X193077200Y-113998667D01*
X193077200Y-113998667D02*
X193110533Y-114065333D01*
X192910533Y-113032000D02*
X192910533Y-113365333D01*
X192910533Y-113365333D02*
X193243866Y-113398666D01*
X193243866Y-113398666D02*
X193210533Y-113365333D01*
X193210533Y-113365333D02*
X193177200Y-113298666D01*
X193177200Y-113298666D02*
X193177200Y-113132000D01*
X193177200Y-113132000D02*
X193210533Y-113065333D01*
X193210533Y-113065333D02*
X193243866Y-113032000D01*
X193243866Y-113032000D02*
X193310533Y-112998666D01*
X193310533Y-112998666D02*
X193477200Y-112998666D01*
X193477200Y-112998666D02*
X193543866Y-113032000D01*
X193543866Y-113032000D02*
X193577200Y-113065333D01*
X193577200Y-113065333D02*
X193610533Y-113132000D01*
X193610533Y-113132000D02*
X193610533Y-113298666D01*
X193610533Y-113298666D02*
X193577200Y-113365333D01*
X193577200Y-113365333D02*
X193543866Y-113398666D01*
X168798033Y-99582000D02*
X168464700Y-99815333D01*
X168798033Y-99982000D02*
X168098033Y-99982000D01*
X168098033Y-99982000D02*
X168098033Y-99715333D01*
X168098033Y-99715333D02*
X168131366Y-99648667D01*
X168131366Y-99648667D02*
X168164700Y-99615333D01*
X168164700Y-99615333D02*
X168231366Y-99582000D01*
X168231366Y-99582000D02*
X168331366Y-99582000D01*
X168331366Y-99582000D02*
X168398033Y-99615333D01*
X168398033Y-99615333D02*
X168431366Y-99648667D01*
X168431366Y-99648667D02*
X168464700Y-99715333D01*
X168464700Y-99715333D02*
X168464700Y-99982000D01*
X168798033Y-98915333D02*
X168798033Y-99315333D01*
X168798033Y-99115333D02*
X168098033Y-99115333D01*
X168098033Y-99115333D02*
X168198033Y-99182000D01*
X168198033Y-99182000D02*
X168264700Y-99248667D01*
X168264700Y-99248667D02*
X168298033Y-99315333D01*
X168798033Y-98582000D02*
X168798033Y-98448666D01*
X168798033Y-98448666D02*
X168764700Y-98382000D01*
X168764700Y-98382000D02*
X168731366Y-98348666D01*
X168731366Y-98348666D02*
X168631366Y-98282000D01*
X168631366Y-98282000D02*
X168498033Y-98248666D01*
X168498033Y-98248666D02*
X168231366Y-98248666D01*
X168231366Y-98248666D02*
X168164700Y-98282000D01*
X168164700Y-98282000D02*
X168131366Y-98315333D01*
X168131366Y-98315333D02*
X168098033Y-98382000D01*
X168098033Y-98382000D02*
X168098033Y-98515333D01*
X168098033Y-98515333D02*
X168131366Y-98582000D01*
X168131366Y-98582000D02*
X168164700Y-98615333D01*
X168164700Y-98615333D02*
X168231366Y-98648666D01*
X168231366Y-98648666D02*
X168398033Y-98648666D01*
X168398033Y-98648666D02*
X168464700Y-98615333D01*
X168464700Y-98615333D02*
X168498033Y-98582000D01*
X168498033Y-98582000D02*
X168531366Y-98515333D01*
X168531366Y-98515333D02*
X168531366Y-98382000D01*
X168531366Y-98382000D02*
X168498033Y-98315333D01*
X168498033Y-98315333D02*
X168464700Y-98282000D01*
X168464700Y-98282000D02*
X168398033Y-98248666D01*
X212698666Y-132648033D02*
X212698666Y-131948033D01*
X212698666Y-132281366D02*
X213098666Y-132281366D01*
X213098666Y-132648033D02*
X213098666Y-131948033D01*
X213365333Y-131948033D02*
X213798666Y-131948033D01*
X213798666Y-131948033D02*
X213565333Y-132214700D01*
X213565333Y-132214700D02*
X213665333Y-132214700D01*
X213665333Y-132214700D02*
X213731999Y-132248033D01*
X213731999Y-132248033D02*
X213765333Y-132281366D01*
X213765333Y-132281366D02*
X213798666Y-132348033D01*
X213798666Y-132348033D02*
X213798666Y-132514700D01*
X213798666Y-132514700D02*
X213765333Y-132581366D01*
X213765333Y-132581366D02*
X213731999Y-132614700D01*
X213731999Y-132614700D02*
X213665333Y-132648033D01*
X213665333Y-132648033D02*
X213465333Y-132648033D01*
X213465333Y-132648033D02*
X213398666Y-132614700D01*
X213398666Y-132614700D02*
X213365333Y-132581366D01*
X208254666Y-44436033D02*
X208254666Y-43736033D01*
X208254666Y-44069366D02*
X208654666Y-44069366D01*
X208654666Y-44436033D02*
X208654666Y-43736033D01*
X208954666Y-43802700D02*
X208987999Y-43769366D01*
X208987999Y-43769366D02*
X209054666Y-43736033D01*
X209054666Y-43736033D02*
X209221333Y-43736033D01*
X209221333Y-43736033D02*
X209287999Y-43769366D01*
X209287999Y-43769366D02*
X209321333Y-43802700D01*
X209321333Y-43802700D02*
X209354666Y-43869366D01*
X209354666Y-43869366D02*
X209354666Y-43936033D01*
X209354666Y-43936033D02*
X209321333Y-44036033D01*
X209321333Y-44036033D02*
X208921333Y-44436033D01*
X208921333Y-44436033D02*
X209354666Y-44436033D01*
X105698666Y-117148033D02*
X105698666Y-117714700D01*
X105698666Y-117714700D02*
X105732000Y-117781366D01*
X105732000Y-117781366D02*
X105765333Y-117814700D01*
X105765333Y-117814700D02*
X105832000Y-117848033D01*
X105832000Y-117848033D02*
X105965333Y-117848033D01*
X105965333Y-117848033D02*
X106032000Y-117814700D01*
X106032000Y-117814700D02*
X106065333Y-117781366D01*
X106065333Y-117781366D02*
X106098666Y-117714700D01*
X106098666Y-117714700D02*
X106098666Y-117148033D01*
X106365333Y-117148033D02*
X106798666Y-117148033D01*
X106798666Y-117148033D02*
X106565333Y-117414700D01*
X106565333Y-117414700D02*
X106665333Y-117414700D01*
X106665333Y-117414700D02*
X106731999Y-117448033D01*
X106731999Y-117448033D02*
X106765333Y-117481366D01*
X106765333Y-117481366D02*
X106798666Y-117548033D01*
X106798666Y-117548033D02*
X106798666Y-117714700D01*
X106798666Y-117714700D02*
X106765333Y-117781366D01*
X106765333Y-117781366D02*
X106731999Y-117814700D01*
X106731999Y-117814700D02*
X106665333Y-117848033D01*
X106665333Y-117848033D02*
X106465333Y-117848033D01*
X106465333Y-117848033D02*
X106398666Y-117814700D01*
X106398666Y-117814700D02*
X106365333Y-117781366D01*
X183793866Y-105448666D02*
X183827200Y-105481999D01*
X183827200Y-105481999D02*
X183860533Y-105581999D01*
X183860533Y-105581999D02*
X183860533Y-105648666D01*
X183860533Y-105648666D02*
X183827200Y-105748666D01*
X183827200Y-105748666D02*
X183760533Y-105815333D01*
X183760533Y-105815333D02*
X183693866Y-105848666D01*
X183693866Y-105848666D02*
X183560533Y-105881999D01*
X183560533Y-105881999D02*
X183460533Y-105881999D01*
X183460533Y-105881999D02*
X183327200Y-105848666D01*
X183327200Y-105848666D02*
X183260533Y-105815333D01*
X183260533Y-105815333D02*
X183193866Y-105748666D01*
X183193866Y-105748666D02*
X183160533Y-105648666D01*
X183160533Y-105648666D02*
X183160533Y-105581999D01*
X183160533Y-105581999D02*
X183193866Y-105481999D01*
X183193866Y-105481999D02*
X183227200Y-105448666D01*
X183160533Y-104815333D02*
X183160533Y-105148666D01*
X183160533Y-105148666D02*
X183493866Y-105181999D01*
X183493866Y-105181999D02*
X183460533Y-105148666D01*
X183460533Y-105148666D02*
X183427200Y-105081999D01*
X183427200Y-105081999D02*
X183427200Y-104915333D01*
X183427200Y-104915333D02*
X183460533Y-104848666D01*
X183460533Y-104848666D02*
X183493866Y-104815333D01*
X183493866Y-104815333D02*
X183560533Y-104781999D01*
X183560533Y-104781999D02*
X183727200Y-104781999D01*
X183727200Y-104781999D02*
X183793866Y-104815333D01*
X183793866Y-104815333D02*
X183827200Y-104848666D01*
X183827200Y-104848666D02*
X183860533Y-104915333D01*
X183860533Y-104915333D02*
X183860533Y-105081999D01*
X183860533Y-105081999D02*
X183827200Y-105148666D01*
X183827200Y-105148666D02*
X183793866Y-105181999D01*
X195360533Y-114332000D02*
X195027200Y-114565333D01*
X195360533Y-114732000D02*
X194660533Y-114732000D01*
X194660533Y-114732000D02*
X194660533Y-114465333D01*
X194660533Y-114465333D02*
X194693866Y-114398667D01*
X194693866Y-114398667D02*
X194727200Y-114365333D01*
X194727200Y-114365333D02*
X194793866Y-114332000D01*
X194793866Y-114332000D02*
X194893866Y-114332000D01*
X194893866Y-114332000D02*
X194960533Y-114365333D01*
X194960533Y-114365333D02*
X194993866Y-114398667D01*
X194993866Y-114398667D02*
X195027200Y-114465333D01*
X195027200Y-114465333D02*
X195027200Y-114732000D01*
X195360533Y-113665333D02*
X195360533Y-114065333D01*
X195360533Y-113865333D02*
X194660533Y-113865333D01*
X194660533Y-113865333D02*
X194760533Y-113932000D01*
X194760533Y-113932000D02*
X194827200Y-113998667D01*
X194827200Y-113998667D02*
X194860533Y-114065333D01*
X194893866Y-113065333D02*
X195360533Y-113065333D01*
X194627200Y-113232000D02*
X195127200Y-113398666D01*
X195127200Y-113398666D02*
X195127200Y-112965333D01*
X205618033Y-103998666D02*
X205284700Y-104231999D01*
X205618033Y-104398666D02*
X204918033Y-104398666D01*
X204918033Y-104398666D02*
X204918033Y-104131999D01*
X204918033Y-104131999D02*
X204951366Y-104065333D01*
X204951366Y-104065333D02*
X204984700Y-104031999D01*
X204984700Y-104031999D02*
X205051366Y-103998666D01*
X205051366Y-103998666D02*
X205151366Y-103998666D01*
X205151366Y-103998666D02*
X205218033Y-104031999D01*
X205218033Y-104031999D02*
X205251366Y-104065333D01*
X205251366Y-104065333D02*
X205284700Y-104131999D01*
X205284700Y-104131999D02*
X205284700Y-104398666D01*
X205618033Y-103331999D02*
X205618033Y-103731999D01*
X205618033Y-103531999D02*
X204918033Y-103531999D01*
X204918033Y-103531999D02*
X205018033Y-103598666D01*
X205018033Y-103598666D02*
X205084700Y-103665333D01*
X205084700Y-103665333D02*
X205118033Y-103731999D01*
X93231366Y-119748666D02*
X93264700Y-119781999D01*
X93264700Y-119781999D02*
X93298033Y-119881999D01*
X93298033Y-119881999D02*
X93298033Y-119948666D01*
X93298033Y-119948666D02*
X93264700Y-120048666D01*
X93264700Y-120048666D02*
X93198033Y-120115333D01*
X93198033Y-120115333D02*
X93131366Y-120148666D01*
X93131366Y-120148666D02*
X92998033Y-120181999D01*
X92998033Y-120181999D02*
X92898033Y-120181999D01*
X92898033Y-120181999D02*
X92764700Y-120148666D01*
X92764700Y-120148666D02*
X92698033Y-120115333D01*
X92698033Y-120115333D02*
X92631366Y-120048666D01*
X92631366Y-120048666D02*
X92598033Y-119948666D01*
X92598033Y-119948666D02*
X92598033Y-119881999D01*
X92598033Y-119881999D02*
X92631366Y-119781999D01*
X92631366Y-119781999D02*
X92664700Y-119748666D01*
X92598033Y-119515333D02*
X92598033Y-119081999D01*
X92598033Y-119081999D02*
X92864700Y-119315333D01*
X92864700Y-119315333D02*
X92864700Y-119215333D01*
X92864700Y-119215333D02*
X92898033Y-119148666D01*
X92898033Y-119148666D02*
X92931366Y-119115333D01*
X92931366Y-119115333D02*
X92998033Y-119081999D01*
X92998033Y-119081999D02*
X93164700Y-119081999D01*
X93164700Y-119081999D02*
X93231366Y-119115333D01*
X93231366Y-119115333D02*
X93264700Y-119148666D01*
X93264700Y-119148666D02*
X93298033Y-119215333D01*
X93298033Y-119215333D02*
X93298033Y-119415333D01*
X93298033Y-119415333D02*
X93264700Y-119481999D01*
X93264700Y-119481999D02*
X93231366Y-119515333D01*
X197293866Y-114144500D02*
X197327200Y-114177833D01*
X197327200Y-114177833D02*
X197360533Y-114277833D01*
X197360533Y-114277833D02*
X197360533Y-114344500D01*
X197360533Y-114344500D02*
X197327200Y-114444500D01*
X197327200Y-114444500D02*
X197260533Y-114511167D01*
X197260533Y-114511167D02*
X197193866Y-114544500D01*
X197193866Y-114544500D02*
X197060533Y-114577833D01*
X197060533Y-114577833D02*
X196960533Y-114577833D01*
X196960533Y-114577833D02*
X196827200Y-114544500D01*
X196827200Y-114544500D02*
X196760533Y-114511167D01*
X196760533Y-114511167D02*
X196693866Y-114444500D01*
X196693866Y-114444500D02*
X196660533Y-114344500D01*
X196660533Y-114344500D02*
X196660533Y-114277833D01*
X196660533Y-114277833D02*
X196693866Y-114177833D01*
X196693866Y-114177833D02*
X196727200Y-114144500D01*
X197360533Y-113477833D02*
X197360533Y-113877833D01*
X197360533Y-113677833D02*
X196660533Y-113677833D01*
X196660533Y-113677833D02*
X196760533Y-113744500D01*
X196760533Y-113744500D02*
X196827200Y-113811167D01*
X196827200Y-113811167D02*
X196860533Y-113877833D01*
X196660533Y-113044500D02*
X196660533Y-112977833D01*
X196660533Y-112977833D02*
X196693866Y-112911166D01*
X196693866Y-112911166D02*
X196727200Y-112877833D01*
X196727200Y-112877833D02*
X196793866Y-112844500D01*
X196793866Y-112844500D02*
X196927200Y-112811166D01*
X196927200Y-112811166D02*
X197093866Y-112811166D01*
X197093866Y-112811166D02*
X197227200Y-112844500D01*
X197227200Y-112844500D02*
X197293866Y-112877833D01*
X197293866Y-112877833D02*
X197327200Y-112911166D01*
X197327200Y-112911166D02*
X197360533Y-112977833D01*
X197360533Y-112977833D02*
X197360533Y-113044500D01*
X197360533Y-113044500D02*
X197327200Y-113111166D01*
X197327200Y-113111166D02*
X197293866Y-113144500D01*
X197293866Y-113144500D02*
X197227200Y-113177833D01*
X197227200Y-113177833D02*
X197093866Y-113211166D01*
X197093866Y-113211166D02*
X196927200Y-113211166D01*
X196927200Y-113211166D02*
X196793866Y-113177833D01*
X196793866Y-113177833D02*
X196727200Y-113144500D01*
X196727200Y-113144500D02*
X196693866Y-113111166D01*
X196693866Y-113111166D02*
X196660533Y-113044500D01*
X190860533Y-114130000D02*
X190527200Y-114363333D01*
X190860533Y-114530000D02*
X190160533Y-114530000D01*
X190160533Y-114530000D02*
X190160533Y-114263333D01*
X190160533Y-114263333D02*
X190193866Y-114196667D01*
X190193866Y-114196667D02*
X190227200Y-114163333D01*
X190227200Y-114163333D02*
X190293866Y-114130000D01*
X190293866Y-114130000D02*
X190393866Y-114130000D01*
X190393866Y-114130000D02*
X190460533Y-114163333D01*
X190460533Y-114163333D02*
X190493866Y-114196667D01*
X190493866Y-114196667D02*
X190527200Y-114263333D01*
X190527200Y-114263333D02*
X190527200Y-114530000D01*
X190860533Y-113463333D02*
X190860533Y-113863333D01*
X190860533Y-113663333D02*
X190160533Y-113663333D01*
X190160533Y-113663333D02*
X190260533Y-113730000D01*
X190260533Y-113730000D02*
X190327200Y-113796667D01*
X190327200Y-113796667D02*
X190360533Y-113863333D01*
X190860533Y-112796666D02*
X190860533Y-113196666D01*
X190860533Y-112996666D02*
X190160533Y-112996666D01*
X190160533Y-112996666D02*
X190260533Y-113063333D01*
X190260533Y-113063333D02*
X190327200Y-113130000D01*
X190327200Y-113130000D02*
X190360533Y-113196666D01*
X185610533Y-113605166D02*
X185277200Y-113838499D01*
X185610533Y-114005166D02*
X184910533Y-114005166D01*
X184910533Y-114005166D02*
X184910533Y-113738499D01*
X184910533Y-113738499D02*
X184943866Y-113671833D01*
X184943866Y-113671833D02*
X184977200Y-113638499D01*
X184977200Y-113638499D02*
X185043866Y-113605166D01*
X185043866Y-113605166D02*
X185143866Y-113605166D01*
X185143866Y-113605166D02*
X185210533Y-113638499D01*
X185210533Y-113638499D02*
X185243866Y-113671833D01*
X185243866Y-113671833D02*
X185277200Y-113738499D01*
X185277200Y-113738499D02*
X185277200Y-114005166D01*
X185610533Y-113271833D02*
X185610533Y-113138499D01*
X185610533Y-113138499D02*
X185577200Y-113071833D01*
X185577200Y-113071833D02*
X185543866Y-113038499D01*
X185543866Y-113038499D02*
X185443866Y-112971833D01*
X185443866Y-112971833D02*
X185310533Y-112938499D01*
X185310533Y-112938499D02*
X185043866Y-112938499D01*
X185043866Y-112938499D02*
X184977200Y-112971833D01*
X184977200Y-112971833D02*
X184943866Y-113005166D01*
X184943866Y-113005166D02*
X184910533Y-113071833D01*
X184910533Y-113071833D02*
X184910533Y-113205166D01*
X184910533Y-113205166D02*
X184943866Y-113271833D01*
X184943866Y-113271833D02*
X184977200Y-113305166D01*
X184977200Y-113305166D02*
X185043866Y-113338499D01*
X185043866Y-113338499D02*
X185210533Y-113338499D01*
X185210533Y-113338499D02*
X185277200Y-113305166D01*
X185277200Y-113305166D02*
X185310533Y-113271833D01*
X185310533Y-113271833D02*
X185343866Y-113205166D01*
X185343866Y-113205166D02*
X185343866Y-113071833D01*
X185343866Y-113071833D02*
X185310533Y-113005166D01*
X185310533Y-113005166D02*
X185277200Y-112971833D01*
X185277200Y-112971833D02*
X185210533Y-112938499D01*
X187293866Y-114394500D02*
X187327200Y-114427833D01*
X187327200Y-114427833D02*
X187360533Y-114527833D01*
X187360533Y-114527833D02*
X187360533Y-114594500D01*
X187360533Y-114594500D02*
X187327200Y-114694500D01*
X187327200Y-114694500D02*
X187260533Y-114761167D01*
X187260533Y-114761167D02*
X187193866Y-114794500D01*
X187193866Y-114794500D02*
X187060533Y-114827833D01*
X187060533Y-114827833D02*
X186960533Y-114827833D01*
X186960533Y-114827833D02*
X186827200Y-114794500D01*
X186827200Y-114794500D02*
X186760533Y-114761167D01*
X186760533Y-114761167D02*
X186693866Y-114694500D01*
X186693866Y-114694500D02*
X186660533Y-114594500D01*
X186660533Y-114594500D02*
X186660533Y-114527833D01*
X186660533Y-114527833D02*
X186693866Y-114427833D01*
X186693866Y-114427833D02*
X186727200Y-114394500D01*
X187360533Y-113727833D02*
X187360533Y-114127833D01*
X187360533Y-113927833D02*
X186660533Y-113927833D01*
X186660533Y-113927833D02*
X186760533Y-113994500D01*
X186760533Y-113994500D02*
X186827200Y-114061167D01*
X186827200Y-114061167D02*
X186860533Y-114127833D01*
X186727200Y-113461166D02*
X186693866Y-113427833D01*
X186693866Y-113427833D02*
X186660533Y-113361166D01*
X186660533Y-113361166D02*
X186660533Y-113194500D01*
X186660533Y-113194500D02*
X186693866Y-113127833D01*
X186693866Y-113127833D02*
X186727200Y-113094500D01*
X186727200Y-113094500D02*
X186793866Y-113061166D01*
X186793866Y-113061166D02*
X186860533Y-113061166D01*
X186860533Y-113061166D02*
X186960533Y-113094500D01*
X186960533Y-113094500D02*
X187360533Y-113494500D01*
X187360533Y-113494500D02*
X187360533Y-113061166D01*
X187610533Y-96811166D02*
X187277200Y-97044499D01*
X187610533Y-97211166D02*
X186910533Y-97211166D01*
X186910533Y-97211166D02*
X186910533Y-96944499D01*
X186910533Y-96944499D02*
X186943866Y-96877833D01*
X186943866Y-96877833D02*
X186977200Y-96844499D01*
X186977200Y-96844499D02*
X187043866Y-96811166D01*
X187043866Y-96811166D02*
X187143866Y-96811166D01*
X187143866Y-96811166D02*
X187210533Y-96844499D01*
X187210533Y-96844499D02*
X187243866Y-96877833D01*
X187243866Y-96877833D02*
X187277200Y-96944499D01*
X187277200Y-96944499D02*
X187277200Y-97211166D01*
X186910533Y-96177833D02*
X186910533Y-96511166D01*
X186910533Y-96511166D02*
X187243866Y-96544499D01*
X187243866Y-96544499D02*
X187210533Y-96511166D01*
X187210533Y-96511166D02*
X187177200Y-96444499D01*
X187177200Y-96444499D02*
X187177200Y-96277833D01*
X187177200Y-96277833D02*
X187210533Y-96211166D01*
X187210533Y-96211166D02*
X187243866Y-96177833D01*
X187243866Y-96177833D02*
X187310533Y-96144499D01*
X187310533Y-96144499D02*
X187477200Y-96144499D01*
X187477200Y-96144499D02*
X187543866Y-96177833D01*
X187543866Y-96177833D02*
X187577200Y-96211166D01*
X187577200Y-96211166D02*
X187610533Y-96277833D01*
X187610533Y-96277833D02*
X187610533Y-96444499D01*
X187610533Y-96444499D02*
X187577200Y-96511166D01*
X187577200Y-96511166D02*
X187543866Y-96544499D01*
X154691033Y-44241666D02*
X155191033Y-44241666D01*
X155191033Y-44241666D02*
X155291033Y-44274999D01*
X155291033Y-44274999D02*
X155357700Y-44341666D01*
X155357700Y-44341666D02*
X155391033Y-44441666D01*
X155391033Y-44441666D02*
X155391033Y-44508333D01*
X155391033Y-43541666D02*
X155391033Y-43941666D01*
X155391033Y-43741666D02*
X154691033Y-43741666D01*
X154691033Y-43741666D02*
X154791033Y-43808333D01*
X154791033Y-43808333D02*
X154857700Y-43875000D01*
X154857700Y-43875000D02*
X154891033Y-43941666D01*
X154691033Y-42941666D02*
X154691033Y-43074999D01*
X154691033Y-43074999D02*
X154724366Y-43141666D01*
X154724366Y-43141666D02*
X154757700Y-43174999D01*
X154757700Y-43174999D02*
X154857700Y-43241666D01*
X154857700Y-43241666D02*
X154991033Y-43274999D01*
X154991033Y-43274999D02*
X155257700Y-43274999D01*
X155257700Y-43274999D02*
X155324366Y-43241666D01*
X155324366Y-43241666D02*
X155357700Y-43208333D01*
X155357700Y-43208333D02*
X155391033Y-43141666D01*
X155391033Y-43141666D02*
X155391033Y-43008333D01*
X155391033Y-43008333D02*
X155357700Y-42941666D01*
X155357700Y-42941666D02*
X155324366Y-42908333D01*
X155324366Y-42908333D02*
X155257700Y-42874999D01*
X155257700Y-42874999D02*
X155091033Y-42874999D01*
X155091033Y-42874999D02*
X155024366Y-42908333D01*
X155024366Y-42908333D02*
X154991033Y-42941666D01*
X154991033Y-42941666D02*
X154957700Y-43008333D01*
X154957700Y-43008333D02*
X154957700Y-43141666D01*
X154957700Y-43141666D02*
X154991033Y-43208333D01*
X154991033Y-43208333D02*
X155024366Y-43241666D01*
X155024366Y-43241666D02*
X155091033Y-43274999D01*
X148763009Y-41936761D02*
X148810628Y-41793904D01*
X148810628Y-41793904D02*
X148858247Y-41746285D01*
X148858247Y-41746285D02*
X148953485Y-41698666D01*
X148953485Y-41698666D02*
X149096342Y-41698666D01*
X149096342Y-41698666D02*
X149191580Y-41746285D01*
X149191580Y-41746285D02*
X149239200Y-41793904D01*
X149239200Y-41793904D02*
X149286819Y-41889142D01*
X149286819Y-41889142D02*
X149286819Y-42270094D01*
X149286819Y-42270094D02*
X148286819Y-42270094D01*
X148286819Y-42270094D02*
X148286819Y-41936761D01*
X148286819Y-41936761D02*
X148334438Y-41841523D01*
X148334438Y-41841523D02*
X148382057Y-41793904D01*
X148382057Y-41793904D02*
X148477295Y-41746285D01*
X148477295Y-41746285D02*
X148572533Y-41746285D01*
X148572533Y-41746285D02*
X148667771Y-41793904D01*
X148667771Y-41793904D02*
X148715390Y-41841523D01*
X148715390Y-41841523D02*
X148763009Y-41936761D01*
X148763009Y-41936761D02*
X148763009Y-42270094D01*
X149286819Y-40746285D02*
X149286819Y-41317713D01*
X149286819Y-41031999D02*
X148286819Y-41031999D01*
X148286819Y-41031999D02*
X148429676Y-41127237D01*
X148429676Y-41127237D02*
X148524914Y-41222475D01*
X148524914Y-41222475D02*
X148572533Y-41317713D01*
X151401104Y-42246285D02*
X151401104Y-41770095D01*
X151686819Y-42341523D02*
X150686819Y-42008190D01*
X150686819Y-42008190D02*
X151686819Y-41674857D01*
X151686819Y-40817714D02*
X151686819Y-41389142D01*
X151686819Y-41103428D02*
X150686819Y-41103428D01*
X150686819Y-41103428D02*
X150829676Y-41198666D01*
X150829676Y-41198666D02*
X150924914Y-41293904D01*
X150924914Y-41293904D02*
X150972533Y-41389142D01*
X198360533Y-96748666D02*
X198027200Y-96981999D01*
X198360533Y-97148666D02*
X197660533Y-97148666D01*
X197660533Y-97148666D02*
X197660533Y-96881999D01*
X197660533Y-96881999D02*
X197693866Y-96815333D01*
X197693866Y-96815333D02*
X197727200Y-96781999D01*
X197727200Y-96781999D02*
X197793866Y-96748666D01*
X197793866Y-96748666D02*
X197893866Y-96748666D01*
X197893866Y-96748666D02*
X197960533Y-96781999D01*
X197960533Y-96781999D02*
X197993866Y-96815333D01*
X197993866Y-96815333D02*
X198027200Y-96881999D01*
X198027200Y-96881999D02*
X198027200Y-97148666D01*
X197660533Y-96148666D02*
X197660533Y-96281999D01*
X197660533Y-96281999D02*
X197693866Y-96348666D01*
X197693866Y-96348666D02*
X197727200Y-96381999D01*
X197727200Y-96381999D02*
X197827200Y-96448666D01*
X197827200Y-96448666D02*
X197960533Y-96481999D01*
X197960533Y-96481999D02*
X198227200Y-96481999D01*
X198227200Y-96481999D02*
X198293866Y-96448666D01*
X198293866Y-96448666D02*
X198327200Y-96415333D01*
X198327200Y-96415333D02*
X198360533Y-96348666D01*
X198360533Y-96348666D02*
X198360533Y-96215333D01*
X198360533Y-96215333D02*
X198327200Y-96148666D01*
X198327200Y-96148666D02*
X198293866Y-96115333D01*
X198293866Y-96115333D02*
X198227200Y-96081999D01*
X198227200Y-96081999D02*
X198060533Y-96081999D01*
X198060533Y-96081999D02*
X197993866Y-96115333D01*
X197993866Y-96115333D02*
X197960533Y-96148666D01*
X197960533Y-96148666D02*
X197927200Y-96215333D01*
X197927200Y-96215333D02*
X197927200Y-96348666D01*
X197927200Y-96348666D02*
X197960533Y-96415333D01*
X197960533Y-96415333D02*
X197993866Y-96448666D01*
X197993866Y-96448666D02*
X198060533Y-96481999D01*
X196293866Y-96748666D02*
X196327200Y-96781999D01*
X196327200Y-96781999D02*
X196360533Y-96881999D01*
X196360533Y-96881999D02*
X196360533Y-96948666D01*
X196360533Y-96948666D02*
X196327200Y-97048666D01*
X196327200Y-97048666D02*
X196260533Y-97115333D01*
X196260533Y-97115333D02*
X196193866Y-97148666D01*
X196193866Y-97148666D02*
X196060533Y-97181999D01*
X196060533Y-97181999D02*
X195960533Y-97181999D01*
X195960533Y-97181999D02*
X195827200Y-97148666D01*
X195827200Y-97148666D02*
X195760533Y-97115333D01*
X195760533Y-97115333D02*
X195693866Y-97048666D01*
X195693866Y-97048666D02*
X195660533Y-96948666D01*
X195660533Y-96948666D02*
X195660533Y-96881999D01*
X195660533Y-96881999D02*
X195693866Y-96781999D01*
X195693866Y-96781999D02*
X195727200Y-96748666D01*
X195960533Y-96348666D02*
X195927200Y-96415333D01*
X195927200Y-96415333D02*
X195893866Y-96448666D01*
X195893866Y-96448666D02*
X195827200Y-96481999D01*
X195827200Y-96481999D02*
X195793866Y-96481999D01*
X195793866Y-96481999D02*
X195727200Y-96448666D01*
X195727200Y-96448666D02*
X195693866Y-96415333D01*
X195693866Y-96415333D02*
X195660533Y-96348666D01*
X195660533Y-96348666D02*
X195660533Y-96215333D01*
X195660533Y-96215333D02*
X195693866Y-96148666D01*
X195693866Y-96148666D02*
X195727200Y-96115333D01*
X195727200Y-96115333D02*
X195793866Y-96081999D01*
X195793866Y-96081999D02*
X195827200Y-96081999D01*
X195827200Y-96081999D02*
X195893866Y-96115333D01*
X195893866Y-96115333D02*
X195927200Y-96148666D01*
X195927200Y-96148666D02*
X195960533Y-96215333D01*
X195960533Y-96215333D02*
X195960533Y-96348666D01*
X195960533Y-96348666D02*
X195993866Y-96415333D01*
X195993866Y-96415333D02*
X196027200Y-96448666D01*
X196027200Y-96448666D02*
X196093866Y-96481999D01*
X196093866Y-96481999D02*
X196227200Y-96481999D01*
X196227200Y-96481999D02*
X196293866Y-96448666D01*
X196293866Y-96448666D02*
X196327200Y-96415333D01*
X196327200Y-96415333D02*
X196360533Y-96348666D01*
X196360533Y-96348666D02*
X196360533Y-96215333D01*
X196360533Y-96215333D02*
X196327200Y-96148666D01*
X196327200Y-96148666D02*
X196293866Y-96115333D01*
X196293866Y-96115333D02*
X196227200Y-96081999D01*
X196227200Y-96081999D02*
X196093866Y-96081999D01*
X196093866Y-96081999D02*
X196027200Y-96115333D01*
X196027200Y-96115333D02*
X195993866Y-96148666D01*
X195993866Y-96148666D02*
X195960533Y-96215333D01*
X104691033Y-69908333D02*
X105191033Y-69908333D01*
X105191033Y-69908333D02*
X105291033Y-69941666D01*
X105291033Y-69941666D02*
X105357700Y-70008333D01*
X105357700Y-70008333D02*
X105391033Y-70108333D01*
X105391033Y-70108333D02*
X105391033Y-70175000D01*
X105391033Y-69208333D02*
X105391033Y-69608333D01*
X105391033Y-69408333D02*
X104691033Y-69408333D01*
X104691033Y-69408333D02*
X104791033Y-69475000D01*
X104791033Y-69475000D02*
X104857700Y-69541667D01*
X104857700Y-69541667D02*
X104891033Y-69608333D01*
X98763009Y-67936761D02*
X98810628Y-67793904D01*
X98810628Y-67793904D02*
X98858247Y-67746285D01*
X98858247Y-67746285D02*
X98953485Y-67698666D01*
X98953485Y-67698666D02*
X99096342Y-67698666D01*
X99096342Y-67698666D02*
X99191580Y-67746285D01*
X99191580Y-67746285D02*
X99239200Y-67793904D01*
X99239200Y-67793904D02*
X99286819Y-67889142D01*
X99286819Y-67889142D02*
X99286819Y-68270094D01*
X99286819Y-68270094D02*
X98286819Y-68270094D01*
X98286819Y-68270094D02*
X98286819Y-67936761D01*
X98286819Y-67936761D02*
X98334438Y-67841523D01*
X98334438Y-67841523D02*
X98382057Y-67793904D01*
X98382057Y-67793904D02*
X98477295Y-67746285D01*
X98477295Y-67746285D02*
X98572533Y-67746285D01*
X98572533Y-67746285D02*
X98667771Y-67793904D01*
X98667771Y-67793904D02*
X98715390Y-67841523D01*
X98715390Y-67841523D02*
X98763009Y-67936761D01*
X98763009Y-67936761D02*
X98763009Y-68270094D01*
X99286819Y-66746285D02*
X99286819Y-67317713D01*
X99286819Y-67031999D02*
X98286819Y-67031999D01*
X98286819Y-67031999D02*
X98429676Y-67127237D01*
X98429676Y-67127237D02*
X98524914Y-67222475D01*
X98524914Y-67222475D02*
X98572533Y-67317713D01*
X101401104Y-68246285D02*
X101401104Y-67770095D01*
X101686819Y-68341523D02*
X100686819Y-68008190D01*
X100686819Y-68008190D02*
X101686819Y-67674857D01*
X101686819Y-66817714D02*
X101686819Y-67389142D01*
X101686819Y-67103428D02*
X100686819Y-67103428D01*
X100686819Y-67103428D02*
X100829676Y-67198666D01*
X100829676Y-67198666D02*
X100924914Y-67293904D01*
X100924914Y-67293904D02*
X100972533Y-67389142D01*
X90777833Y-129102200D02*
X90711166Y-129068866D01*
X90711166Y-129068866D02*
X90644500Y-129002200D01*
X90644500Y-129002200D02*
X90544500Y-128902200D01*
X90544500Y-128902200D02*
X90477833Y-128868866D01*
X90477833Y-128868866D02*
X90411166Y-128868866D01*
X90444500Y-129035533D02*
X90377833Y-129002200D01*
X90377833Y-129002200D02*
X90311166Y-128935533D01*
X90311166Y-128935533D02*
X90277833Y-128802200D01*
X90277833Y-128802200D02*
X90277833Y-128568866D01*
X90277833Y-128568866D02*
X90311166Y-128435533D01*
X90311166Y-128435533D02*
X90377833Y-128368866D01*
X90377833Y-128368866D02*
X90444500Y-128335533D01*
X90444500Y-128335533D02*
X90577833Y-128335533D01*
X90577833Y-128335533D02*
X90644500Y-128368866D01*
X90644500Y-128368866D02*
X90711166Y-128435533D01*
X90711166Y-128435533D02*
X90744500Y-128568866D01*
X90744500Y-128568866D02*
X90744500Y-128802200D01*
X90744500Y-128802200D02*
X90711166Y-128935533D01*
X90711166Y-128935533D02*
X90644500Y-129002200D01*
X90644500Y-129002200D02*
X90577833Y-129035533D01*
X90577833Y-129035533D02*
X90444500Y-129035533D01*
X91411166Y-129035533D02*
X91011166Y-129035533D01*
X91211166Y-129035533D02*
X91211166Y-128335533D01*
X91211166Y-128335533D02*
X91144499Y-128435533D01*
X91144499Y-128435533D02*
X91077833Y-128502200D01*
X91077833Y-128502200D02*
X91011166Y-128535533D01*
X204691033Y-44241666D02*
X205191033Y-44241666D01*
X205191033Y-44241666D02*
X205291033Y-44274999D01*
X205291033Y-44274999D02*
X205357700Y-44341666D01*
X205357700Y-44341666D02*
X205391033Y-44441666D01*
X205391033Y-44441666D02*
X205391033Y-44508333D01*
X205391033Y-43541666D02*
X205391033Y-43941666D01*
X205391033Y-43741666D02*
X204691033Y-43741666D01*
X204691033Y-43741666D02*
X204791033Y-43808333D01*
X204791033Y-43808333D02*
X204857700Y-43875000D01*
X204857700Y-43875000D02*
X204891033Y-43941666D01*
X204691033Y-43308333D02*
X204691033Y-42841666D01*
X204691033Y-42841666D02*
X205391033Y-43141666D01*
X198763009Y-41936761D02*
X198810628Y-41793904D01*
X198810628Y-41793904D02*
X198858247Y-41746285D01*
X198858247Y-41746285D02*
X198953485Y-41698666D01*
X198953485Y-41698666D02*
X199096342Y-41698666D01*
X199096342Y-41698666D02*
X199191580Y-41746285D01*
X199191580Y-41746285D02*
X199239200Y-41793904D01*
X199239200Y-41793904D02*
X199286819Y-41889142D01*
X199286819Y-41889142D02*
X199286819Y-42270094D01*
X199286819Y-42270094D02*
X198286819Y-42270094D01*
X198286819Y-42270094D02*
X198286819Y-41936761D01*
X198286819Y-41936761D02*
X198334438Y-41841523D01*
X198334438Y-41841523D02*
X198382057Y-41793904D01*
X198382057Y-41793904D02*
X198477295Y-41746285D01*
X198477295Y-41746285D02*
X198572533Y-41746285D01*
X198572533Y-41746285D02*
X198667771Y-41793904D01*
X198667771Y-41793904D02*
X198715390Y-41841523D01*
X198715390Y-41841523D02*
X198763009Y-41936761D01*
X198763009Y-41936761D02*
X198763009Y-42270094D01*
X199286819Y-40746285D02*
X199286819Y-41317713D01*
X199286819Y-41031999D02*
X198286819Y-41031999D01*
X198286819Y-41031999D02*
X198429676Y-41127237D01*
X198429676Y-41127237D02*
X198524914Y-41222475D01*
X198524914Y-41222475D02*
X198572533Y-41317713D01*
X201401104Y-42246285D02*
X201401104Y-41770095D01*
X201686819Y-42341523D02*
X200686819Y-42008190D01*
X200686819Y-42008190D02*
X201686819Y-41674857D01*
X201686819Y-40817714D02*
X201686819Y-41389142D01*
X201686819Y-41103428D02*
X200686819Y-41103428D01*
X200686819Y-41103428D02*
X200829676Y-41198666D01*
X200829676Y-41198666D02*
X200924914Y-41293904D01*
X200924914Y-41293904D02*
X200972533Y-41389142D01*
X104691033Y-44241666D02*
X105191033Y-44241666D01*
X105191033Y-44241666D02*
X105291033Y-44274999D01*
X105291033Y-44274999D02*
X105357700Y-44341666D01*
X105357700Y-44341666D02*
X105391033Y-44441666D01*
X105391033Y-44441666D02*
X105391033Y-44508333D01*
X105391033Y-43541666D02*
X105391033Y-43941666D01*
X105391033Y-43741666D02*
X104691033Y-43741666D01*
X104691033Y-43741666D02*
X104791033Y-43808333D01*
X104791033Y-43808333D02*
X104857700Y-43875000D01*
X104857700Y-43875000D02*
X104891033Y-43941666D01*
X104691033Y-42908333D02*
X104691033Y-43241666D01*
X104691033Y-43241666D02*
X105024366Y-43274999D01*
X105024366Y-43274999D02*
X104991033Y-43241666D01*
X104991033Y-43241666D02*
X104957700Y-43174999D01*
X104957700Y-43174999D02*
X104957700Y-43008333D01*
X104957700Y-43008333D02*
X104991033Y-42941666D01*
X104991033Y-42941666D02*
X105024366Y-42908333D01*
X105024366Y-42908333D02*
X105091033Y-42874999D01*
X105091033Y-42874999D02*
X105257700Y-42874999D01*
X105257700Y-42874999D02*
X105324366Y-42908333D01*
X105324366Y-42908333D02*
X105357700Y-42941666D01*
X105357700Y-42941666D02*
X105391033Y-43008333D01*
X105391033Y-43008333D02*
X105391033Y-43174999D01*
X105391033Y-43174999D02*
X105357700Y-43241666D01*
X105357700Y-43241666D02*
X105324366Y-43274999D01*
X101401104Y-42246285D02*
X101401104Y-41770095D01*
X101686819Y-42341523D02*
X100686819Y-42008190D01*
X100686819Y-42008190D02*
X101686819Y-41674857D01*
X101686819Y-40817714D02*
X101686819Y-41389142D01*
X101686819Y-41103428D02*
X100686819Y-41103428D01*
X100686819Y-41103428D02*
X100829676Y-41198666D01*
X100829676Y-41198666D02*
X100924914Y-41293904D01*
X100924914Y-41293904D02*
X100972533Y-41389142D01*
X98563009Y-41936761D02*
X98610628Y-41793904D01*
X98610628Y-41793904D02*
X98658247Y-41746285D01*
X98658247Y-41746285D02*
X98753485Y-41698666D01*
X98753485Y-41698666D02*
X98896342Y-41698666D01*
X98896342Y-41698666D02*
X98991580Y-41746285D01*
X98991580Y-41746285D02*
X99039200Y-41793904D01*
X99039200Y-41793904D02*
X99086819Y-41889142D01*
X99086819Y-41889142D02*
X99086819Y-42270094D01*
X99086819Y-42270094D02*
X98086819Y-42270094D01*
X98086819Y-42270094D02*
X98086819Y-41936761D01*
X98086819Y-41936761D02*
X98134438Y-41841523D01*
X98134438Y-41841523D02*
X98182057Y-41793904D01*
X98182057Y-41793904D02*
X98277295Y-41746285D01*
X98277295Y-41746285D02*
X98372533Y-41746285D01*
X98372533Y-41746285D02*
X98467771Y-41793904D01*
X98467771Y-41793904D02*
X98515390Y-41841523D01*
X98515390Y-41841523D02*
X98563009Y-41936761D01*
X98563009Y-41936761D02*
X98563009Y-42270094D01*
X99086819Y-40746285D02*
X99086819Y-41317713D01*
X99086819Y-41031999D02*
X98086819Y-41031999D01*
X98086819Y-41031999D02*
X98229676Y-41127237D01*
X98229676Y-41127237D02*
X98324914Y-41222475D01*
X98324914Y-41222475D02*
X98372533Y-41317713D01*
X204298033Y-115332000D02*
X203964700Y-115565333D01*
X204298033Y-115732000D02*
X203598033Y-115732000D01*
X203598033Y-115732000D02*
X203598033Y-115465333D01*
X203598033Y-115465333D02*
X203631366Y-115398667D01*
X203631366Y-115398667D02*
X203664700Y-115365333D01*
X203664700Y-115365333D02*
X203731366Y-115332000D01*
X203731366Y-115332000D02*
X203831366Y-115332000D01*
X203831366Y-115332000D02*
X203898033Y-115365333D01*
X203898033Y-115365333D02*
X203931366Y-115398667D01*
X203931366Y-115398667D02*
X203964700Y-115465333D01*
X203964700Y-115465333D02*
X203964700Y-115732000D01*
X204298033Y-114665333D02*
X204298033Y-115065333D01*
X204298033Y-114865333D02*
X203598033Y-114865333D01*
X203598033Y-114865333D02*
X203698033Y-114932000D01*
X203698033Y-114932000D02*
X203764700Y-114998667D01*
X203764700Y-114998667D02*
X203798033Y-115065333D01*
X203898033Y-114265333D02*
X203864700Y-114332000D01*
X203864700Y-114332000D02*
X203831366Y-114365333D01*
X203831366Y-114365333D02*
X203764700Y-114398666D01*
X203764700Y-114398666D02*
X203731366Y-114398666D01*
X203731366Y-114398666D02*
X203664700Y-114365333D01*
X203664700Y-114365333D02*
X203631366Y-114332000D01*
X203631366Y-114332000D02*
X203598033Y-114265333D01*
X203598033Y-114265333D02*
X203598033Y-114132000D01*
X203598033Y-114132000D02*
X203631366Y-114065333D01*
X203631366Y-114065333D02*
X203664700Y-114032000D01*
X203664700Y-114032000D02*
X203731366Y-113998666D01*
X203731366Y-113998666D02*
X203764700Y-113998666D01*
X203764700Y-113998666D02*
X203831366Y-114032000D01*
X203831366Y-114032000D02*
X203864700Y-114065333D01*
X203864700Y-114065333D02*
X203898033Y-114132000D01*
X203898033Y-114132000D02*
X203898033Y-114265333D01*
X203898033Y-114265333D02*
X203931366Y-114332000D01*
X203931366Y-114332000D02*
X203964700Y-114365333D01*
X203964700Y-114365333D02*
X204031366Y-114398666D01*
X204031366Y-114398666D02*
X204164700Y-114398666D01*
X204164700Y-114398666D02*
X204231366Y-114365333D01*
X204231366Y-114365333D02*
X204264700Y-114332000D01*
X204264700Y-114332000D02*
X204298033Y-114265333D01*
X204298033Y-114265333D02*
X204298033Y-114132000D01*
X204298033Y-114132000D02*
X204264700Y-114065333D01*
X204264700Y-114065333D02*
X204231366Y-114032000D01*
X204231366Y-114032000D02*
X204164700Y-113998666D01*
X204164700Y-113998666D02*
X204031366Y-113998666D01*
X204031366Y-113998666D02*
X203964700Y-114032000D01*
X203964700Y-114032000D02*
X203931366Y-114065333D01*
X203931366Y-114065333D02*
X203898033Y-114132000D01*
X212398666Y-75348033D02*
X212398666Y-75848033D01*
X212398666Y-75848033D02*
X212365333Y-75948033D01*
X212365333Y-75948033D02*
X212298666Y-76014700D01*
X212298666Y-76014700D02*
X212198666Y-76048033D01*
X212198666Y-76048033D02*
X212132000Y-76048033D01*
X213065333Y-75348033D02*
X212731999Y-75348033D01*
X212731999Y-75348033D02*
X212698666Y-75681366D01*
X212698666Y-75681366D02*
X212731999Y-75648033D01*
X212731999Y-75648033D02*
X212798666Y-75614700D01*
X212798666Y-75614700D02*
X212965333Y-75614700D01*
X212965333Y-75614700D02*
X213031999Y-75648033D01*
X213031999Y-75648033D02*
X213065333Y-75681366D01*
X213065333Y-75681366D02*
X213098666Y-75748033D01*
X213098666Y-75748033D02*
X213098666Y-75914700D01*
X213098666Y-75914700D02*
X213065333Y-75981366D01*
X213065333Y-75981366D02*
X213031999Y-76014700D01*
X213031999Y-76014700D02*
X212965333Y-76048033D01*
X212965333Y-76048033D02*
X212798666Y-76048033D01*
X212798666Y-76048033D02*
X212731999Y-76014700D01*
X212731999Y-76014700D02*
X212698666Y-75981366D01*
X203456366Y-101204666D02*
X203489700Y-101237999D01*
X203489700Y-101237999D02*
X203523033Y-101337999D01*
X203523033Y-101337999D02*
X203523033Y-101404666D01*
X203523033Y-101404666D02*
X203489700Y-101504666D01*
X203489700Y-101504666D02*
X203423033Y-101571333D01*
X203423033Y-101571333D02*
X203356366Y-101604666D01*
X203356366Y-101604666D02*
X203223033Y-101637999D01*
X203223033Y-101637999D02*
X203123033Y-101637999D01*
X203123033Y-101637999D02*
X202989700Y-101604666D01*
X202989700Y-101604666D02*
X202923033Y-101571333D01*
X202923033Y-101571333D02*
X202856366Y-101504666D01*
X202856366Y-101504666D02*
X202823033Y-101404666D01*
X202823033Y-101404666D02*
X202823033Y-101337999D01*
X202823033Y-101337999D02*
X202856366Y-101237999D01*
X202856366Y-101237999D02*
X202889700Y-101204666D01*
X202823033Y-100604666D02*
X202823033Y-100737999D01*
X202823033Y-100737999D02*
X202856366Y-100804666D01*
X202856366Y-100804666D02*
X202889700Y-100837999D01*
X202889700Y-100837999D02*
X202989700Y-100904666D01*
X202989700Y-100904666D02*
X203123033Y-100937999D01*
X203123033Y-100937999D02*
X203389700Y-100937999D01*
X203389700Y-100937999D02*
X203456366Y-100904666D01*
X203456366Y-100904666D02*
X203489700Y-100871333D01*
X203489700Y-100871333D02*
X203523033Y-100804666D01*
X203523033Y-100804666D02*
X203523033Y-100671333D01*
X203523033Y-100671333D02*
X203489700Y-100604666D01*
X203489700Y-100604666D02*
X203456366Y-100571333D01*
X203456366Y-100571333D02*
X203389700Y-100537999D01*
X203389700Y-100537999D02*
X203223033Y-100537999D01*
X203223033Y-100537999D02*
X203156366Y-100571333D01*
X203156366Y-100571333D02*
X203123033Y-100604666D01*
X203123033Y-100604666D02*
X203089700Y-100671333D01*
X203089700Y-100671333D02*
X203089700Y-100804666D01*
X203089700Y-100804666D02*
X203123033Y-100871333D01*
X203123033Y-100871333D02*
X203156366Y-100904666D01*
X203156366Y-100904666D02*
X203223033Y-100937999D01*
X170981366Y-98998666D02*
X171014700Y-99031999D01*
X171014700Y-99031999D02*
X171048033Y-99131999D01*
X171048033Y-99131999D02*
X171048033Y-99198666D01*
X171048033Y-99198666D02*
X171014700Y-99298666D01*
X171014700Y-99298666D02*
X170948033Y-99365333D01*
X170948033Y-99365333D02*
X170881366Y-99398666D01*
X170881366Y-99398666D02*
X170748033Y-99431999D01*
X170748033Y-99431999D02*
X170648033Y-99431999D01*
X170648033Y-99431999D02*
X170514700Y-99398666D01*
X170514700Y-99398666D02*
X170448033Y-99365333D01*
X170448033Y-99365333D02*
X170381366Y-99298666D01*
X170381366Y-99298666D02*
X170348033Y-99198666D01*
X170348033Y-99198666D02*
X170348033Y-99131999D01*
X170348033Y-99131999D02*
X170381366Y-99031999D01*
X170381366Y-99031999D02*
X170414700Y-98998666D01*
X170414700Y-98731999D02*
X170381366Y-98698666D01*
X170381366Y-98698666D02*
X170348033Y-98631999D01*
X170348033Y-98631999D02*
X170348033Y-98465333D01*
X170348033Y-98465333D02*
X170381366Y-98398666D01*
X170381366Y-98398666D02*
X170414700Y-98365333D01*
X170414700Y-98365333D02*
X170481366Y-98331999D01*
X170481366Y-98331999D02*
X170548033Y-98331999D01*
X170548033Y-98331999D02*
X170648033Y-98365333D01*
X170648033Y-98365333D02*
X171048033Y-98765333D01*
X171048033Y-98765333D02*
X171048033Y-98331999D01*
X139165333Y-95314700D02*
X139098666Y-95281366D01*
X139098666Y-95281366D02*
X139032000Y-95214700D01*
X139032000Y-95214700D02*
X138932000Y-95114700D01*
X138932000Y-95114700D02*
X138865333Y-95081366D01*
X138865333Y-95081366D02*
X138798666Y-95081366D01*
X138832000Y-95248033D02*
X138765333Y-95214700D01*
X138765333Y-95214700D02*
X138698666Y-95148033D01*
X138698666Y-95148033D02*
X138665333Y-95014700D01*
X138665333Y-95014700D02*
X138665333Y-94781366D01*
X138665333Y-94781366D02*
X138698666Y-94648033D01*
X138698666Y-94648033D02*
X138765333Y-94581366D01*
X138765333Y-94581366D02*
X138832000Y-94548033D01*
X138832000Y-94548033D02*
X138965333Y-94548033D01*
X138965333Y-94548033D02*
X139032000Y-94581366D01*
X139032000Y-94581366D02*
X139098666Y-94648033D01*
X139098666Y-94648033D02*
X139132000Y-94781366D01*
X139132000Y-94781366D02*
X139132000Y-95014700D01*
X139132000Y-95014700D02*
X139098666Y-95148033D01*
X139098666Y-95148033D02*
X139032000Y-95214700D01*
X139032000Y-95214700D02*
X138965333Y-95248033D01*
X138965333Y-95248033D02*
X138832000Y-95248033D01*
X139365333Y-94548033D02*
X139798666Y-94548033D01*
X139798666Y-94548033D02*
X139565333Y-94814700D01*
X139565333Y-94814700D02*
X139665333Y-94814700D01*
X139665333Y-94814700D02*
X139731999Y-94848033D01*
X139731999Y-94848033D02*
X139765333Y-94881366D01*
X139765333Y-94881366D02*
X139798666Y-94948033D01*
X139798666Y-94948033D02*
X139798666Y-95114700D01*
X139798666Y-95114700D02*
X139765333Y-95181366D01*
X139765333Y-95181366D02*
X139731999Y-95214700D01*
X139731999Y-95214700D02*
X139665333Y-95248033D01*
X139665333Y-95248033D02*
X139465333Y-95248033D01*
X139465333Y-95248033D02*
X139398666Y-95214700D01*
X139398666Y-95214700D02*
X139365333Y-95181366D01*
X110781999Y-97648033D02*
X110548666Y-97314700D01*
X110381999Y-97648033D02*
X110381999Y-96948033D01*
X110381999Y-96948033D02*
X110648666Y-96948033D01*
X110648666Y-96948033D02*
X110715333Y-96981366D01*
X110715333Y-96981366D02*
X110748666Y-97014700D01*
X110748666Y-97014700D02*
X110781999Y-97081366D01*
X110781999Y-97081366D02*
X110781999Y-97181366D01*
X110781999Y-97181366D02*
X110748666Y-97248033D01*
X110748666Y-97248033D02*
X110715333Y-97281366D01*
X110715333Y-97281366D02*
X110648666Y-97314700D01*
X110648666Y-97314700D02*
X110381999Y-97314700D01*
X111048666Y-97014700D02*
X111081999Y-96981366D01*
X111081999Y-96981366D02*
X111148666Y-96948033D01*
X111148666Y-96948033D02*
X111315333Y-96948033D01*
X111315333Y-96948033D02*
X111381999Y-96981366D01*
X111381999Y-96981366D02*
X111415333Y-97014700D01*
X111415333Y-97014700D02*
X111448666Y-97081366D01*
X111448666Y-97081366D02*
X111448666Y-97148033D01*
X111448666Y-97148033D02*
X111415333Y-97248033D01*
X111415333Y-97248033D02*
X111015333Y-97648033D01*
X111015333Y-97648033D02*
X111448666Y-97648033D01*
X112048666Y-97181366D02*
X112048666Y-97648033D01*
X111882000Y-96914700D02*
X111715333Y-97414700D01*
X111715333Y-97414700D02*
X112148666Y-97414700D01*
X87096666Y-44436033D02*
X87096666Y-43736033D01*
X87096666Y-44069366D02*
X87496666Y-44069366D01*
X87496666Y-44436033D02*
X87496666Y-43736033D01*
X88196666Y-44436033D02*
X87796666Y-44436033D01*
X87996666Y-44436033D02*
X87996666Y-43736033D01*
X87996666Y-43736033D02*
X87929999Y-43836033D01*
X87929999Y-43836033D02*
X87863333Y-43902700D01*
X87863333Y-43902700D02*
X87796666Y-43936033D01*
X139981999Y-87478033D02*
X139748666Y-87144700D01*
X139581999Y-87478033D02*
X139581999Y-86778033D01*
X139581999Y-86778033D02*
X139848666Y-86778033D01*
X139848666Y-86778033D02*
X139915333Y-86811366D01*
X139915333Y-86811366D02*
X139948666Y-86844700D01*
X139948666Y-86844700D02*
X139981999Y-86911366D01*
X139981999Y-86911366D02*
X139981999Y-87011366D01*
X139981999Y-87011366D02*
X139948666Y-87078033D01*
X139948666Y-87078033D02*
X139915333Y-87111366D01*
X139915333Y-87111366D02*
X139848666Y-87144700D01*
X139848666Y-87144700D02*
X139581999Y-87144700D01*
X140248666Y-86844700D02*
X140281999Y-86811366D01*
X140281999Y-86811366D02*
X140348666Y-86778033D01*
X140348666Y-86778033D02*
X140515333Y-86778033D01*
X140515333Y-86778033D02*
X140581999Y-86811366D01*
X140581999Y-86811366D02*
X140615333Y-86844700D01*
X140615333Y-86844700D02*
X140648666Y-86911366D01*
X140648666Y-86911366D02*
X140648666Y-86978033D01*
X140648666Y-86978033D02*
X140615333Y-87078033D01*
X140615333Y-87078033D02*
X140215333Y-87478033D01*
X140215333Y-87478033D02*
X140648666Y-87478033D01*
X141282000Y-86778033D02*
X140948666Y-86778033D01*
X140948666Y-86778033D02*
X140915333Y-87111366D01*
X140915333Y-87111366D02*
X140948666Y-87078033D01*
X140948666Y-87078033D02*
X141015333Y-87044700D01*
X141015333Y-87044700D02*
X141182000Y-87044700D01*
X141182000Y-87044700D02*
X141248666Y-87078033D01*
X141248666Y-87078033D02*
X141282000Y-87111366D01*
X141282000Y-87111366D02*
X141315333Y-87178033D01*
X141315333Y-87178033D02*
X141315333Y-87344700D01*
X141315333Y-87344700D02*
X141282000Y-87411366D01*
X141282000Y-87411366D02*
X141248666Y-87444700D01*
X141248666Y-87444700D02*
X141182000Y-87478033D01*
X141182000Y-87478033D02*
X141015333Y-87478033D01*
X141015333Y-87478033D02*
X140948666Y-87444700D01*
X140948666Y-87444700D02*
X140915333Y-87411366D01*
X205081366Y-111182000D02*
X205114700Y-111215333D01*
X205114700Y-111215333D02*
X205148033Y-111315333D01*
X205148033Y-111315333D02*
X205148033Y-111382000D01*
X205148033Y-111382000D02*
X205114700Y-111482000D01*
X205114700Y-111482000D02*
X205048033Y-111548667D01*
X205048033Y-111548667D02*
X204981366Y-111582000D01*
X204981366Y-111582000D02*
X204848033Y-111615333D01*
X204848033Y-111615333D02*
X204748033Y-111615333D01*
X204748033Y-111615333D02*
X204614700Y-111582000D01*
X204614700Y-111582000D02*
X204548033Y-111548667D01*
X204548033Y-111548667D02*
X204481366Y-111482000D01*
X204481366Y-111482000D02*
X204448033Y-111382000D01*
X204448033Y-111382000D02*
X204448033Y-111315333D01*
X204448033Y-111315333D02*
X204481366Y-111215333D01*
X204481366Y-111215333D02*
X204514700Y-111182000D01*
X205148033Y-110515333D02*
X205148033Y-110915333D01*
X205148033Y-110715333D02*
X204448033Y-110715333D01*
X204448033Y-110715333D02*
X204548033Y-110782000D01*
X204548033Y-110782000D02*
X204614700Y-110848667D01*
X204614700Y-110848667D02*
X204648033Y-110915333D01*
X205148033Y-109848666D02*
X205148033Y-110248666D01*
X205148033Y-110048666D02*
X204448033Y-110048666D01*
X204448033Y-110048666D02*
X204548033Y-110115333D01*
X204548033Y-110115333D02*
X204614700Y-110182000D01*
X204614700Y-110182000D02*
X204648033Y-110248666D01*
X194543866Y-96748666D02*
X194577200Y-96781999D01*
X194577200Y-96781999D02*
X194610533Y-96881999D01*
X194610533Y-96881999D02*
X194610533Y-96948666D01*
X194610533Y-96948666D02*
X194577200Y-97048666D01*
X194577200Y-97048666D02*
X194510533Y-97115333D01*
X194510533Y-97115333D02*
X194443866Y-97148666D01*
X194443866Y-97148666D02*
X194310533Y-97181999D01*
X194310533Y-97181999D02*
X194210533Y-97181999D01*
X194210533Y-97181999D02*
X194077200Y-97148666D01*
X194077200Y-97148666D02*
X194010533Y-97115333D01*
X194010533Y-97115333D02*
X193943866Y-97048666D01*
X193943866Y-97048666D02*
X193910533Y-96948666D01*
X193910533Y-96948666D02*
X193910533Y-96881999D01*
X193910533Y-96881999D02*
X193943866Y-96781999D01*
X193943866Y-96781999D02*
X193977200Y-96748666D01*
X193910533Y-96515333D02*
X193910533Y-96048666D01*
X193910533Y-96048666D02*
X194610533Y-96348666D01*
X151348033Y-104648666D02*
X151014700Y-104881999D01*
X151348033Y-105048666D02*
X150648033Y-105048666D01*
X150648033Y-105048666D02*
X150648033Y-104781999D01*
X150648033Y-104781999D02*
X150681366Y-104715333D01*
X150681366Y-104715333D02*
X150714700Y-104681999D01*
X150714700Y-104681999D02*
X150781366Y-104648666D01*
X150781366Y-104648666D02*
X150881366Y-104648666D01*
X150881366Y-104648666D02*
X150948033Y-104681999D01*
X150948033Y-104681999D02*
X150981366Y-104715333D01*
X150981366Y-104715333D02*
X151014700Y-104781999D01*
X151014700Y-104781999D02*
X151014700Y-105048666D01*
X150714700Y-104381999D02*
X150681366Y-104348666D01*
X150681366Y-104348666D02*
X150648033Y-104281999D01*
X150648033Y-104281999D02*
X150648033Y-104115333D01*
X150648033Y-104115333D02*
X150681366Y-104048666D01*
X150681366Y-104048666D02*
X150714700Y-104015333D01*
X150714700Y-104015333D02*
X150781366Y-103981999D01*
X150781366Y-103981999D02*
X150848033Y-103981999D01*
X150848033Y-103981999D02*
X150948033Y-104015333D01*
X150948033Y-104015333D02*
X151348033Y-104415333D01*
X151348033Y-104415333D02*
X151348033Y-103981999D01*
X185610533Y-105448666D02*
X185277200Y-105681999D01*
X185610533Y-105848666D02*
X184910533Y-105848666D01*
X184910533Y-105848666D02*
X184910533Y-105581999D01*
X184910533Y-105581999D02*
X184943866Y-105515333D01*
X184943866Y-105515333D02*
X184977200Y-105481999D01*
X184977200Y-105481999D02*
X185043866Y-105448666D01*
X185043866Y-105448666D02*
X185143866Y-105448666D01*
X185143866Y-105448666D02*
X185210533Y-105481999D01*
X185210533Y-105481999D02*
X185243866Y-105515333D01*
X185243866Y-105515333D02*
X185277200Y-105581999D01*
X185277200Y-105581999D02*
X185277200Y-105848666D01*
X184910533Y-105215333D02*
X184910533Y-104781999D01*
X184910533Y-104781999D02*
X185177200Y-105015333D01*
X185177200Y-105015333D02*
X185177200Y-104915333D01*
X185177200Y-104915333D02*
X185210533Y-104848666D01*
X185210533Y-104848666D02*
X185243866Y-104815333D01*
X185243866Y-104815333D02*
X185310533Y-104781999D01*
X185310533Y-104781999D02*
X185477200Y-104781999D01*
X185477200Y-104781999D02*
X185543866Y-104815333D01*
X185543866Y-104815333D02*
X185577200Y-104848666D01*
X185577200Y-104848666D02*
X185610533Y-104915333D01*
X185610533Y-104915333D02*
X185610533Y-105115333D01*
X185610533Y-105115333D02*
X185577200Y-105181999D01*
X185577200Y-105181999D02*
X185543866Y-105215333D01*
X193043866Y-96748666D02*
X193077200Y-96781999D01*
X193077200Y-96781999D02*
X193110533Y-96881999D01*
X193110533Y-96881999D02*
X193110533Y-96948666D01*
X193110533Y-96948666D02*
X193077200Y-97048666D01*
X193077200Y-97048666D02*
X193010533Y-97115333D01*
X193010533Y-97115333D02*
X192943866Y-97148666D01*
X192943866Y-97148666D02*
X192810533Y-97181999D01*
X192810533Y-97181999D02*
X192710533Y-97181999D01*
X192710533Y-97181999D02*
X192577200Y-97148666D01*
X192577200Y-97148666D02*
X192510533Y-97115333D01*
X192510533Y-97115333D02*
X192443866Y-97048666D01*
X192443866Y-97048666D02*
X192410533Y-96948666D01*
X192410533Y-96948666D02*
X192410533Y-96881999D01*
X192410533Y-96881999D02*
X192443866Y-96781999D01*
X192443866Y-96781999D02*
X192477200Y-96748666D01*
X193110533Y-96415333D02*
X193110533Y-96281999D01*
X193110533Y-96281999D02*
X193077200Y-96215333D01*
X193077200Y-96215333D02*
X193043866Y-96181999D01*
X193043866Y-96181999D02*
X192943866Y-96115333D01*
X192943866Y-96115333D02*
X192810533Y-96081999D01*
X192810533Y-96081999D02*
X192543866Y-96081999D01*
X192543866Y-96081999D02*
X192477200Y-96115333D01*
X192477200Y-96115333D02*
X192443866Y-96148666D01*
X192443866Y-96148666D02*
X192410533Y-96215333D01*
X192410533Y-96215333D02*
X192410533Y-96348666D01*
X192410533Y-96348666D02*
X192443866Y-96415333D01*
X192443866Y-96415333D02*
X192477200Y-96448666D01*
X192477200Y-96448666D02*
X192543866Y-96481999D01*
X192543866Y-96481999D02*
X192710533Y-96481999D01*
X192710533Y-96481999D02*
X192777200Y-96448666D01*
X192777200Y-96448666D02*
X192810533Y-96415333D01*
X192810533Y-96415333D02*
X192843866Y-96348666D01*
X192843866Y-96348666D02*
X192843866Y-96215333D01*
X192843866Y-96215333D02*
X192810533Y-96148666D01*
X192810533Y-96148666D02*
X192777200Y-96115333D01*
X192777200Y-96115333D02*
X192710533Y-96081999D01*
X87198666Y-138698033D02*
X87198666Y-137998033D01*
X87198666Y-138331366D02*
X87598666Y-138331366D01*
X87598666Y-138698033D02*
X87598666Y-137998033D01*
X88231999Y-138231366D02*
X88231999Y-138698033D01*
X88065333Y-137964700D02*
X87898666Y-138464700D01*
X87898666Y-138464700D02*
X88331999Y-138464700D01*
X189106533Y-96704666D02*
X188773200Y-96937999D01*
X189106533Y-97104666D02*
X188406533Y-97104666D01*
X188406533Y-97104666D02*
X188406533Y-96837999D01*
X188406533Y-96837999D02*
X188439866Y-96771333D01*
X188439866Y-96771333D02*
X188473200Y-96737999D01*
X188473200Y-96737999D02*
X188539866Y-96704666D01*
X188539866Y-96704666D02*
X188639866Y-96704666D01*
X188639866Y-96704666D02*
X188706533Y-96737999D01*
X188706533Y-96737999D02*
X188739866Y-96771333D01*
X188739866Y-96771333D02*
X188773200Y-96837999D01*
X188773200Y-96837999D02*
X188773200Y-97104666D01*
X188639866Y-96104666D02*
X189106533Y-96104666D01*
X188373200Y-96271333D02*
X188873200Y-96437999D01*
X188873200Y-96437999D02*
X188873200Y-96004666D01*
X180748033Y-118382000D02*
X180414700Y-118615333D01*
X180748033Y-118782000D02*
X180048033Y-118782000D01*
X180048033Y-118782000D02*
X180048033Y-118515333D01*
X180048033Y-118515333D02*
X180081366Y-118448667D01*
X180081366Y-118448667D02*
X180114700Y-118415333D01*
X180114700Y-118415333D02*
X180181366Y-118382000D01*
X180181366Y-118382000D02*
X180281366Y-118382000D01*
X180281366Y-118382000D02*
X180348033Y-118415333D01*
X180348033Y-118415333D02*
X180381366Y-118448667D01*
X180381366Y-118448667D02*
X180414700Y-118515333D01*
X180414700Y-118515333D02*
X180414700Y-118782000D01*
X180748033Y-117715333D02*
X180748033Y-118115333D01*
X180748033Y-117915333D02*
X180048033Y-117915333D01*
X180048033Y-117915333D02*
X180148033Y-117982000D01*
X180148033Y-117982000D02*
X180214700Y-118048667D01*
X180214700Y-118048667D02*
X180248033Y-118115333D01*
X180048033Y-117115333D02*
X180048033Y-117248666D01*
X180048033Y-117248666D02*
X180081366Y-117315333D01*
X180081366Y-117315333D02*
X180114700Y-117348666D01*
X180114700Y-117348666D02*
X180214700Y-117415333D01*
X180214700Y-117415333D02*
X180348033Y-117448666D01*
X180348033Y-117448666D02*
X180614700Y-117448666D01*
X180614700Y-117448666D02*
X180681366Y-117415333D01*
X180681366Y-117415333D02*
X180714700Y-117382000D01*
X180714700Y-117382000D02*
X180748033Y-117315333D01*
X180748033Y-117315333D02*
X180748033Y-117182000D01*
X180748033Y-117182000D02*
X180714700Y-117115333D01*
X180714700Y-117115333D02*
X180681366Y-117082000D01*
X180681366Y-117082000D02*
X180614700Y-117048666D01*
X180614700Y-117048666D02*
X180448033Y-117048666D01*
X180448033Y-117048666D02*
X180381366Y-117082000D01*
X180381366Y-117082000D02*
X180348033Y-117115333D01*
X180348033Y-117115333D02*
X180314700Y-117182000D01*
X180314700Y-117182000D02*
X180314700Y-117315333D01*
X180314700Y-117315333D02*
X180348033Y-117382000D01*
X180348033Y-117382000D02*
X180381366Y-117415333D01*
X180381366Y-117415333D02*
X180448033Y-117448666D01*
X200115333Y-113760533D02*
X199781999Y-113760533D01*
X199781999Y-113760533D02*
X199781999Y-113060533D01*
X200715333Y-113760533D02*
X200315333Y-113760533D01*
X200515333Y-113760533D02*
X200515333Y-113060533D01*
X200515333Y-113060533D02*
X200448666Y-113160533D01*
X200448666Y-113160533D02*
X200382000Y-113227200D01*
X200382000Y-113227200D02*
X200315333Y-113260533D01*
X196381999Y-106848033D02*
X196148666Y-106514700D01*
X195981999Y-106848033D02*
X195981999Y-106148033D01*
X195981999Y-106148033D02*
X196248666Y-106148033D01*
X196248666Y-106148033D02*
X196315333Y-106181366D01*
X196315333Y-106181366D02*
X196348666Y-106214700D01*
X196348666Y-106214700D02*
X196381999Y-106281366D01*
X196381999Y-106281366D02*
X196381999Y-106381366D01*
X196381999Y-106381366D02*
X196348666Y-106448033D01*
X196348666Y-106448033D02*
X196315333Y-106481366D01*
X196315333Y-106481366D02*
X196248666Y-106514700D01*
X196248666Y-106514700D02*
X195981999Y-106514700D01*
X197048666Y-106848033D02*
X196648666Y-106848033D01*
X196848666Y-106848033D02*
X196848666Y-106148033D01*
X196848666Y-106148033D02*
X196781999Y-106248033D01*
X196781999Y-106248033D02*
X196715333Y-106314700D01*
X196715333Y-106314700D02*
X196648666Y-106348033D01*
X197282000Y-106148033D02*
X197715333Y-106148033D01*
X197715333Y-106148033D02*
X197482000Y-106414700D01*
X197482000Y-106414700D02*
X197582000Y-106414700D01*
X197582000Y-106414700D02*
X197648666Y-106448033D01*
X197648666Y-106448033D02*
X197682000Y-106481366D01*
X197682000Y-106481366D02*
X197715333Y-106548033D01*
X197715333Y-106548033D02*
X197715333Y-106714700D01*
X197715333Y-106714700D02*
X197682000Y-106781366D01*
X197682000Y-106781366D02*
X197648666Y-106814700D01*
X197648666Y-106814700D02*
X197582000Y-106848033D01*
X197582000Y-106848033D02*
X197382000Y-106848033D01*
X197382000Y-106848033D02*
X197315333Y-106814700D01*
X197315333Y-106814700D02*
X197282000Y-106781366D01*
X154691033Y-69908333D02*
X155191033Y-69908333D01*
X155191033Y-69908333D02*
X155291033Y-69941666D01*
X155291033Y-69941666D02*
X155357700Y-70008333D01*
X155357700Y-70008333D02*
X155391033Y-70108333D01*
X155391033Y-70108333D02*
X155391033Y-70175000D01*
X154757700Y-69608333D02*
X154724366Y-69575000D01*
X154724366Y-69575000D02*
X154691033Y-69508333D01*
X154691033Y-69508333D02*
X154691033Y-69341667D01*
X154691033Y-69341667D02*
X154724366Y-69275000D01*
X154724366Y-69275000D02*
X154757700Y-69241667D01*
X154757700Y-69241667D02*
X154824366Y-69208333D01*
X154824366Y-69208333D02*
X154891033Y-69208333D01*
X154891033Y-69208333D02*
X154991033Y-69241667D01*
X154991033Y-69241667D02*
X155391033Y-69641667D01*
X155391033Y-69641667D02*
X155391033Y-69208333D01*
X151401104Y-68246285D02*
X151401104Y-67770095D01*
X151686819Y-68341523D02*
X150686819Y-68008190D01*
X150686819Y-68008190D02*
X151686819Y-67674857D01*
X151686819Y-66817714D02*
X151686819Y-67389142D01*
X151686819Y-67103428D02*
X150686819Y-67103428D01*
X150686819Y-67103428D02*
X150829676Y-67198666D01*
X150829676Y-67198666D02*
X150924914Y-67293904D01*
X150924914Y-67293904D02*
X150972533Y-67389142D01*
X148763009Y-67936761D02*
X148810628Y-67793904D01*
X148810628Y-67793904D02*
X148858247Y-67746285D01*
X148858247Y-67746285D02*
X148953485Y-67698666D01*
X148953485Y-67698666D02*
X149096342Y-67698666D01*
X149096342Y-67698666D02*
X149191580Y-67746285D01*
X149191580Y-67746285D02*
X149239200Y-67793904D01*
X149239200Y-67793904D02*
X149286819Y-67889142D01*
X149286819Y-67889142D02*
X149286819Y-68270094D01*
X149286819Y-68270094D02*
X148286819Y-68270094D01*
X148286819Y-68270094D02*
X148286819Y-67936761D01*
X148286819Y-67936761D02*
X148334438Y-67841523D01*
X148334438Y-67841523D02*
X148382057Y-67793904D01*
X148382057Y-67793904D02*
X148477295Y-67746285D01*
X148477295Y-67746285D02*
X148572533Y-67746285D01*
X148572533Y-67746285D02*
X148667771Y-67793904D01*
X148667771Y-67793904D02*
X148715390Y-67841523D01*
X148715390Y-67841523D02*
X148763009Y-67936761D01*
X148763009Y-67936761D02*
X148763009Y-68270094D01*
X149286819Y-66746285D02*
X149286819Y-67317713D01*
X149286819Y-67031999D02*
X148286819Y-67031999D01*
X148286819Y-67031999D02*
X148429676Y-67127237D01*
X148429676Y-67127237D02*
X148524914Y-67222475D01*
X148524914Y-67222475D02*
X148572533Y-67317713D01*
X106115333Y-119381366D02*
X106082000Y-119414700D01*
X106082000Y-119414700D02*
X105982000Y-119448033D01*
X105982000Y-119448033D02*
X105915333Y-119448033D01*
X105915333Y-119448033D02*
X105815333Y-119414700D01*
X105815333Y-119414700D02*
X105748667Y-119348033D01*
X105748667Y-119348033D02*
X105715333Y-119281366D01*
X105715333Y-119281366D02*
X105682000Y-119148033D01*
X105682000Y-119148033D02*
X105682000Y-119048033D01*
X105682000Y-119048033D02*
X105715333Y-118914700D01*
X105715333Y-118914700D02*
X105748667Y-118848033D01*
X105748667Y-118848033D02*
X105815333Y-118781366D01*
X105815333Y-118781366D02*
X105915333Y-118748033D01*
X105915333Y-118748033D02*
X105982000Y-118748033D01*
X105982000Y-118748033D02*
X106082000Y-118781366D01*
X106082000Y-118781366D02*
X106115333Y-118814700D01*
X106715333Y-118981366D02*
X106715333Y-119448033D01*
X106548667Y-118714700D02*
X106382000Y-119214700D01*
X106382000Y-119214700D02*
X106815333Y-119214700D01*
X189110533Y-114130000D02*
X188777200Y-114363333D01*
X189110533Y-114530000D02*
X188410533Y-114530000D01*
X188410533Y-114530000D02*
X188410533Y-114263333D01*
X188410533Y-114263333D02*
X188443866Y-114196667D01*
X188443866Y-114196667D02*
X188477200Y-114163333D01*
X188477200Y-114163333D02*
X188543866Y-114130000D01*
X188543866Y-114130000D02*
X188643866Y-114130000D01*
X188643866Y-114130000D02*
X188710533Y-114163333D01*
X188710533Y-114163333D02*
X188743866Y-114196667D01*
X188743866Y-114196667D02*
X188777200Y-114263333D01*
X188777200Y-114263333D02*
X188777200Y-114530000D01*
X189110533Y-113463333D02*
X189110533Y-113863333D01*
X189110533Y-113663333D02*
X188410533Y-113663333D01*
X188410533Y-113663333D02*
X188510533Y-113730000D01*
X188510533Y-113730000D02*
X188577200Y-113796667D01*
X188577200Y-113796667D02*
X188610533Y-113863333D01*
X188477200Y-113196666D02*
X188443866Y-113163333D01*
X188443866Y-113163333D02*
X188410533Y-113096666D01*
X188410533Y-113096666D02*
X188410533Y-112930000D01*
X188410533Y-112930000D02*
X188443866Y-112863333D01*
X188443866Y-112863333D02*
X188477200Y-112830000D01*
X188477200Y-112830000D02*
X188543866Y-112796666D01*
X188543866Y-112796666D02*
X188610533Y-112796666D01*
X188610533Y-112796666D02*
X188710533Y-112830000D01*
X188710533Y-112830000D02*
X189110533Y-113230000D01*
X189110533Y-113230000D02*
X189110533Y-112796666D01*
X130093033Y-106782000D02*
X129759700Y-107015333D01*
X130093033Y-107182000D02*
X129393033Y-107182000D01*
X129393033Y-107182000D02*
X129393033Y-106915333D01*
X129393033Y-106915333D02*
X129426366Y-106848667D01*
X129426366Y-106848667D02*
X129459700Y-106815333D01*
X129459700Y-106815333D02*
X129526366Y-106782000D01*
X129526366Y-106782000D02*
X129626366Y-106782000D01*
X129626366Y-106782000D02*
X129693033Y-106815333D01*
X129693033Y-106815333D02*
X129726366Y-106848667D01*
X129726366Y-106848667D02*
X129759700Y-106915333D01*
X129759700Y-106915333D02*
X129759700Y-107182000D01*
X129459700Y-106515333D02*
X129426366Y-106482000D01*
X129426366Y-106482000D02*
X129393033Y-106415333D01*
X129393033Y-106415333D02*
X129393033Y-106248667D01*
X129393033Y-106248667D02*
X129426366Y-106182000D01*
X129426366Y-106182000D02*
X129459700Y-106148667D01*
X129459700Y-106148667D02*
X129526366Y-106115333D01*
X129526366Y-106115333D02*
X129593033Y-106115333D01*
X129593033Y-106115333D02*
X129693033Y-106148667D01*
X129693033Y-106148667D02*
X130093033Y-106548667D01*
X130093033Y-106548667D02*
X130093033Y-106115333D01*
X129459700Y-105848666D02*
X129426366Y-105815333D01*
X129426366Y-105815333D02*
X129393033Y-105748666D01*
X129393033Y-105748666D02*
X129393033Y-105582000D01*
X129393033Y-105582000D02*
X129426366Y-105515333D01*
X129426366Y-105515333D02*
X129459700Y-105482000D01*
X129459700Y-105482000D02*
X129526366Y-105448666D01*
X129526366Y-105448666D02*
X129593033Y-105448666D01*
X129593033Y-105448666D02*
X129693033Y-105482000D01*
X129693033Y-105482000D02*
X130093033Y-105882000D01*
X130093033Y-105882000D02*
X130093033Y-105448666D01*
X196515333Y-104048033D02*
X196282000Y-103714700D01*
X196115333Y-104048033D02*
X196115333Y-103348033D01*
X196115333Y-103348033D02*
X196382000Y-103348033D01*
X196382000Y-103348033D02*
X196448667Y-103381366D01*
X196448667Y-103381366D02*
X196482000Y-103414700D01*
X196482000Y-103414700D02*
X196515333Y-103481366D01*
X196515333Y-103481366D02*
X196515333Y-103581366D01*
X196515333Y-103581366D02*
X196482000Y-103648033D01*
X196482000Y-103648033D02*
X196448667Y-103681366D01*
X196448667Y-103681366D02*
X196382000Y-103714700D01*
X196382000Y-103714700D02*
X196115333Y-103714700D01*
X196748667Y-103348033D02*
X197215333Y-103348033D01*
X197215333Y-103348033D02*
X196915333Y-104048033D01*
X134027833Y-106914700D02*
X133961166Y-106881366D01*
X133961166Y-106881366D02*
X133894500Y-106814700D01*
X133894500Y-106814700D02*
X133794500Y-106714700D01*
X133794500Y-106714700D02*
X133727833Y-106681366D01*
X133727833Y-106681366D02*
X133661166Y-106681366D01*
X133694500Y-106848033D02*
X133627833Y-106814700D01*
X133627833Y-106814700D02*
X133561166Y-106748033D01*
X133561166Y-106748033D02*
X133527833Y-106614700D01*
X133527833Y-106614700D02*
X133527833Y-106381366D01*
X133527833Y-106381366D02*
X133561166Y-106248033D01*
X133561166Y-106248033D02*
X133627833Y-106181366D01*
X133627833Y-106181366D02*
X133694500Y-106148033D01*
X133694500Y-106148033D02*
X133827833Y-106148033D01*
X133827833Y-106148033D02*
X133894500Y-106181366D01*
X133894500Y-106181366D02*
X133961166Y-106248033D01*
X133961166Y-106248033D02*
X133994500Y-106381366D01*
X133994500Y-106381366D02*
X133994500Y-106614700D01*
X133994500Y-106614700D02*
X133961166Y-106748033D01*
X133961166Y-106748033D02*
X133894500Y-106814700D01*
X133894500Y-106814700D02*
X133827833Y-106848033D01*
X133827833Y-106848033D02*
X133694500Y-106848033D01*
X134261166Y-106214700D02*
X134294499Y-106181366D01*
X134294499Y-106181366D02*
X134361166Y-106148033D01*
X134361166Y-106148033D02*
X134527833Y-106148033D01*
X134527833Y-106148033D02*
X134594499Y-106181366D01*
X134594499Y-106181366D02*
X134627833Y-106214700D01*
X134627833Y-106214700D02*
X134661166Y-106281366D01*
X134661166Y-106281366D02*
X134661166Y-106348033D01*
X134661166Y-106348033D02*
X134627833Y-106448033D01*
X134627833Y-106448033D02*
X134227833Y-106848033D01*
X134227833Y-106848033D02*
X134661166Y-106848033D01*
X90148033Y-119382000D02*
X89814700Y-119615333D01*
X90148033Y-119782000D02*
X89448033Y-119782000D01*
X89448033Y-119782000D02*
X89448033Y-119515333D01*
X89448033Y-119515333D02*
X89481366Y-119448667D01*
X89481366Y-119448667D02*
X89514700Y-119415333D01*
X89514700Y-119415333D02*
X89581366Y-119382000D01*
X89581366Y-119382000D02*
X89681366Y-119382000D01*
X89681366Y-119382000D02*
X89748033Y-119415333D01*
X89748033Y-119415333D02*
X89781366Y-119448667D01*
X89781366Y-119448667D02*
X89814700Y-119515333D01*
X89814700Y-119515333D02*
X89814700Y-119782000D01*
X89514700Y-119115333D02*
X89481366Y-119082000D01*
X89481366Y-119082000D02*
X89448033Y-119015333D01*
X89448033Y-119015333D02*
X89448033Y-118848667D01*
X89448033Y-118848667D02*
X89481366Y-118782000D01*
X89481366Y-118782000D02*
X89514700Y-118748667D01*
X89514700Y-118748667D02*
X89581366Y-118715333D01*
X89581366Y-118715333D02*
X89648033Y-118715333D01*
X89648033Y-118715333D02*
X89748033Y-118748667D01*
X89748033Y-118748667D02*
X90148033Y-119148667D01*
X90148033Y-119148667D02*
X90148033Y-118715333D01*
X90148033Y-118048666D02*
X90148033Y-118448666D01*
X90148033Y-118248666D02*
X89448033Y-118248666D01*
X89448033Y-118248666D02*
X89548033Y-118315333D01*
X89548033Y-118315333D02*
X89614700Y-118382000D01*
X89614700Y-118382000D02*
X89648033Y-118448666D01*
X202548033Y-115332000D02*
X202214700Y-115565333D01*
X202548033Y-115732000D02*
X201848033Y-115732000D01*
X201848033Y-115732000D02*
X201848033Y-115465333D01*
X201848033Y-115465333D02*
X201881366Y-115398667D01*
X201881366Y-115398667D02*
X201914700Y-115365333D01*
X201914700Y-115365333D02*
X201981366Y-115332000D01*
X201981366Y-115332000D02*
X202081366Y-115332000D01*
X202081366Y-115332000D02*
X202148033Y-115365333D01*
X202148033Y-115365333D02*
X202181366Y-115398667D01*
X202181366Y-115398667D02*
X202214700Y-115465333D01*
X202214700Y-115465333D02*
X202214700Y-115732000D01*
X202548033Y-114665333D02*
X202548033Y-115065333D01*
X202548033Y-114865333D02*
X201848033Y-114865333D01*
X201848033Y-114865333D02*
X201948033Y-114932000D01*
X201948033Y-114932000D02*
X202014700Y-114998667D01*
X202014700Y-114998667D02*
X202048033Y-115065333D01*
X201848033Y-114432000D02*
X201848033Y-113965333D01*
X201848033Y-113965333D02*
X202548033Y-114265333D01*
X184114533Y-113859166D02*
X183781200Y-114092499D01*
X184114533Y-114259166D02*
X183414533Y-114259166D01*
X183414533Y-114259166D02*
X183414533Y-113992499D01*
X183414533Y-113992499D02*
X183447866Y-113925833D01*
X183447866Y-113925833D02*
X183481200Y-113892499D01*
X183481200Y-113892499D02*
X183547866Y-113859166D01*
X183547866Y-113859166D02*
X183647866Y-113859166D01*
X183647866Y-113859166D02*
X183714533Y-113892499D01*
X183714533Y-113892499D02*
X183747866Y-113925833D01*
X183747866Y-113925833D02*
X183781200Y-113992499D01*
X183781200Y-113992499D02*
X183781200Y-114259166D01*
X183714533Y-113459166D02*
X183681200Y-113525833D01*
X183681200Y-113525833D02*
X183647866Y-113559166D01*
X183647866Y-113559166D02*
X183581200Y-113592499D01*
X183581200Y-113592499D02*
X183547866Y-113592499D01*
X183547866Y-113592499D02*
X183481200Y-113559166D01*
X183481200Y-113559166D02*
X183447866Y-113525833D01*
X183447866Y-113525833D02*
X183414533Y-113459166D01*
X183414533Y-113459166D02*
X183414533Y-113325833D01*
X183414533Y-113325833D02*
X183447866Y-113259166D01*
X183447866Y-113259166D02*
X183481200Y-113225833D01*
X183481200Y-113225833D02*
X183547866Y-113192499D01*
X183547866Y-113192499D02*
X183581200Y-113192499D01*
X183581200Y-113192499D02*
X183647866Y-113225833D01*
X183647866Y-113225833D02*
X183681200Y-113259166D01*
X183681200Y-113259166D02*
X183714533Y-113325833D01*
X183714533Y-113325833D02*
X183714533Y-113459166D01*
X183714533Y-113459166D02*
X183747866Y-113525833D01*
X183747866Y-113525833D02*
X183781200Y-113559166D01*
X183781200Y-113559166D02*
X183847866Y-113592499D01*
X183847866Y-113592499D02*
X183981200Y-113592499D01*
X183981200Y-113592499D02*
X184047866Y-113559166D01*
X184047866Y-113559166D02*
X184081200Y-113525833D01*
X184081200Y-113525833D02*
X184114533Y-113459166D01*
X184114533Y-113459166D02*
X184114533Y-113325833D01*
X184114533Y-113325833D02*
X184081200Y-113259166D01*
X184081200Y-113259166D02*
X184047866Y-113225833D01*
X184047866Y-113225833D02*
X183981200Y-113192499D01*
X183981200Y-113192499D02*
X183847866Y-113192499D01*
X183847866Y-113192499D02*
X183781200Y-113225833D01*
X183781200Y-113225833D02*
X183747866Y-113259166D01*
X183747866Y-113259166D02*
X183714533Y-113325833D01*
D12*
%TO.C,U1*%
X193904500Y-106579500D02*
X193904500Y-106814500D01*
X193904500Y-102834500D02*
X193904500Y-103309500D01*
X193429500Y-107054500D02*
X193604500Y-107054500D01*
X193429500Y-102834500D02*
X193904500Y-102834500D01*
X190159500Y-107054500D02*
X189684500Y-107054500D01*
X190159500Y-102834500D02*
X189684500Y-102834500D01*
X189684500Y-107054500D02*
X189684500Y-106579500D01*
X189684500Y-102834500D02*
X189684500Y-103309500D01*
X194144500Y-107384500D02*
X193664500Y-107384500D01*
X193904500Y-107054500D01*
X194144500Y-107384500D01*
G36*
X194144500Y-107384500D02*
G01*
X193664500Y-107384500D01*
X193904500Y-107054500D01*
X194144500Y-107384500D01*
G37*
%TO.C,C16*%
X192439000Y-55481000D02*
X192439000Y-56106000D01*
X192751500Y-55793500D02*
X192126500Y-55793500D01*
X192449563Y-56346000D02*
X191814000Y-56346000D01*
X192449563Y-56346000D02*
X193514000Y-57410437D01*
X189058437Y-56346000D02*
X189694000Y-56346000D01*
X189058437Y-56346000D02*
X187994000Y-57410437D01*
X193514000Y-57410437D02*
X193514000Y-61866000D01*
X187994000Y-57410437D02*
X187994000Y-61866000D01*
X193514000Y-61866000D02*
X191814000Y-61866000D01*
X187994000Y-61866000D02*
X189694000Y-61866000D01*
%TO.C,C15*%
X160435000Y-55481000D02*
X160435000Y-56106000D01*
X160747500Y-55793500D02*
X160122500Y-55793500D01*
X160445563Y-56346000D02*
X159810000Y-56346000D01*
X160445563Y-56346000D02*
X161510000Y-57410437D01*
X157054437Y-56346000D02*
X157690000Y-56346000D01*
X157054437Y-56346000D02*
X155990000Y-57410437D01*
X161510000Y-57410437D02*
X161510000Y-61866000D01*
X155990000Y-57410437D02*
X155990000Y-61866000D01*
X161510000Y-61866000D02*
X159810000Y-61866000D01*
X155990000Y-61866000D02*
X157690000Y-61866000D01*
%TO.C,C13*%
X110143000Y-55481000D02*
X110143000Y-56106000D01*
X110455500Y-55793500D02*
X109830500Y-55793500D01*
X110153563Y-56346000D02*
X109518000Y-56346000D01*
X110153563Y-56346000D02*
X111218000Y-57410437D01*
X106762437Y-56346000D02*
X107398000Y-56346000D01*
X106762437Y-56346000D02*
X105698000Y-57410437D01*
X111218000Y-57410437D02*
X111218000Y-61866000D01*
X105698000Y-57410437D02*
X105698000Y-61866000D01*
X111218000Y-61866000D02*
X109518000Y-61866000D01*
X105698000Y-61866000D02*
X107398000Y-61866000D01*
%TO.C,C1*%
X118472000Y-111686437D02*
X118472000Y-116142000D01*
X118472000Y-116142000D02*
X120172000Y-116142000D01*
X119536437Y-110622000D02*
X118472000Y-111686437D01*
X119536437Y-110622000D02*
X120172000Y-110622000D01*
X122917000Y-109757000D02*
X122917000Y-110382000D01*
X122927563Y-110622000D02*
X122292000Y-110622000D01*
X122927563Y-110622000D02*
X123992000Y-111686437D01*
X123229500Y-110069500D02*
X122604500Y-110069500D01*
X123992000Y-111686437D02*
X123992000Y-116142000D01*
X123992000Y-116142000D02*
X122292000Y-116142000D01*
%TO.C,R23*%
X165109500Y-128969258D02*
X165109500Y-128494742D01*
X166154500Y-128969258D02*
X166154500Y-128494742D01*
%TO.C,R10*%
X190272000Y-99144742D02*
X190272000Y-99619258D01*
X191317000Y-99144742D02*
X191317000Y-99619258D01*
D13*
%TO.C,J3*%
X194900000Y-66500000D02*
X203700000Y-66500000D01*
X194900000Y-91500000D02*
X194900000Y-66500000D01*
X203700000Y-66500000D02*
X203700000Y-69250000D01*
X203700000Y-91500000D02*
X194900000Y-91500000D01*
X203700000Y-91500000D02*
X203700000Y-89450000D01*
D12*
%TO.C,C14*%
X139190000Y-106717420D02*
X139190000Y-106998580D01*
X140210000Y-106717420D02*
X140210000Y-106998580D01*
%TO.C,X1*%
X198632000Y-105532000D02*
X201782000Y-105532000D01*
X201782000Y-105532000D02*
X201782000Y-101732000D01*
%TO.C,U2*%
X153122000Y-106362000D02*
X153122000Y-107362000D01*
X153122000Y-124602000D02*
X153122000Y-123602000D01*
X153742000Y-106362000D02*
X153122000Y-106362000D01*
X153742000Y-124602000D02*
X153122000Y-124602000D01*
X172562000Y-106362000D02*
X172562000Y-124602000D01*
X172562000Y-124602000D02*
X172142000Y-124602000D01*
X172317000Y-106357000D02*
X171817000Y-106357000D01*
X171817000Y-105857000D01*
X172317000Y-106357000D01*
G36*
X172317000Y-106357000D02*
G01*
X171817000Y-106357000D01*
X171817000Y-105857000D01*
X172317000Y-106357000D01*
G37*
%TO.C,R20*%
X148459500Y-101894742D02*
X148459500Y-102369258D01*
X149504500Y-101894742D02*
X149504500Y-102369258D01*
%TO.C,J6*%
X167052000Y-130712000D02*
X167052000Y-129382000D01*
X168382000Y-130712000D02*
X167052000Y-130712000D01*
X169652000Y-128052000D02*
X182412000Y-128052000D01*
X169652000Y-130712000D02*
X169652000Y-128052000D01*
X169652000Y-130712000D02*
X182412000Y-130712000D01*
X182412000Y-130712000D02*
X182412000Y-128052000D01*
%TO.C,R15*%
X192772000Y-110869258D02*
X192772000Y-110394742D01*
X193817000Y-110869258D02*
X193817000Y-110394742D01*
%TO.C,R19*%
X167959500Y-101894742D02*
X167959500Y-102369258D01*
X169004500Y-101894742D02*
X169004500Y-102369258D01*
%TO.C,U3*%
X108032000Y-109929500D02*
X114452000Y-109929500D01*
X108032000Y-116829500D02*
X114452000Y-116829500D01*
X114452000Y-109929500D02*
X114452000Y-110199500D01*
X114452000Y-116829500D02*
X114452000Y-116559500D01*
X116112000Y-116849500D02*
X115632000Y-116849500D01*
X115872000Y-116519500D01*
X116112000Y-116849500D01*
G36*
X116112000Y-116849500D02*
G01*
X115632000Y-116849500D01*
X115872000Y-116519500D01*
X116112000Y-116849500D01*
G37*
%TO.C,C5*%
X183034500Y-103272580D02*
X183034500Y-102991420D01*
X184054500Y-103272580D02*
X184054500Y-102991420D01*
%TO.C,R14*%
X194522000Y-110869258D02*
X194522000Y-110394742D01*
X195567000Y-110869258D02*
X195567000Y-110394742D01*
%TO.C,R1*%
X206209500Y-104119258D02*
X206209500Y-103644742D01*
X207254500Y-104119258D02*
X207254500Y-103644742D01*
%TO.C,C3*%
X92472000Y-122272580D02*
X92472000Y-121991420D01*
X93492000Y-122272580D02*
X93492000Y-121991420D01*
%TO.C,C10*%
X196534500Y-110835080D02*
X196534500Y-110553920D01*
X197554500Y-110835080D02*
X197554500Y-110553920D01*
%TO.C,R11*%
X190022000Y-110869258D02*
X190022000Y-110394742D01*
X191067000Y-110869258D02*
X191067000Y-110394742D01*
%TO.C,R9*%
X184772000Y-110931758D02*
X184772000Y-110457242D01*
X185817000Y-110931758D02*
X185817000Y-110457242D01*
%TO.C,C12*%
X186534500Y-110835080D02*
X186534500Y-110553920D01*
X187554500Y-110835080D02*
X187554500Y-110553920D01*
%TO.C,R5*%
X186772000Y-99207242D02*
X186772000Y-99681758D01*
X187817000Y-99207242D02*
X187817000Y-99681758D01*
D13*
%TO.C,J16*%
X144900000Y-40500000D02*
X153700000Y-40500000D01*
X144900000Y-65500000D02*
X144900000Y-40500000D01*
X153700000Y-40500000D02*
X153700000Y-43250000D01*
X153700000Y-65500000D02*
X144900000Y-65500000D01*
X153700000Y-65500000D02*
X153700000Y-63450000D01*
D12*
%TO.C,R6*%
X197522000Y-99144742D02*
X197522000Y-99619258D01*
X198567000Y-99144742D02*
X198567000Y-99619258D01*
%TO.C,C8*%
X195534500Y-99522580D02*
X195534500Y-99241420D01*
X196554500Y-99522580D02*
X196554500Y-99241420D01*
D13*
%TO.C,J1*%
X94900000Y-66500000D02*
X103700000Y-66500000D01*
X94900000Y-91500000D02*
X94900000Y-66500000D01*
X103700000Y-66500000D02*
X103700000Y-69250000D01*
X103700000Y-91500000D02*
X94900000Y-91500000D01*
X103700000Y-91500000D02*
X103700000Y-89450000D01*
D12*
%TO.C,Q1*%
X90932000Y-124459500D02*
X90282000Y-124459500D01*
X90932000Y-124459500D02*
X91582000Y-124459500D01*
X90932000Y-127579500D02*
X90282000Y-127579500D01*
X90932000Y-127579500D02*
X91582000Y-127579500D01*
X92334500Y-127859500D02*
X91854500Y-127859500D01*
X92094500Y-127529500D01*
X92334500Y-127859500D01*
G36*
X92334500Y-127859500D02*
G01*
X91854500Y-127859500D01*
X92094500Y-127529500D01*
X92334500Y-127859500D01*
G37*
D13*
%TO.C,J17*%
X194900000Y-40500000D02*
X203700000Y-40500000D01*
X194900000Y-65500000D02*
X194900000Y-40500000D01*
X203700000Y-40500000D02*
X203700000Y-43250000D01*
X203700000Y-65500000D02*
X194900000Y-65500000D01*
X203700000Y-65500000D02*
X203700000Y-63450000D01*
%TO.C,J15*%
X94900000Y-40500000D02*
X103700000Y-40500000D01*
X94900000Y-65500000D02*
X94900000Y-40500000D01*
X103700000Y-40500000D02*
X103700000Y-43250000D01*
X103700000Y-65500000D02*
X94900000Y-65500000D01*
X103700000Y-65500000D02*
X103700000Y-63450000D01*
D12*
%TO.C,R18*%
X203459500Y-118119258D02*
X203459500Y-117644742D01*
X204504500Y-118119258D02*
X204504500Y-117644742D01*
%TO.C,J5*%
X209022000Y-77472000D02*
X209022000Y-85192000D01*
X209022000Y-85192000D02*
X213042000Y-85192000D01*
X209522000Y-77972000D02*
X210732000Y-77972000D01*
X209522000Y-84692000D02*
X209522000Y-77972000D01*
X210732000Y-77972000D02*
X210732000Y-77472000D01*
X210732000Y-84692000D02*
X209522000Y-84692000D01*
X210732000Y-85192000D02*
X210732000Y-84692000D01*
X210842000Y-85492000D02*
X213342000Y-85492000D01*
X211542000Y-77472000D02*
X211542000Y-78472000D01*
X211542000Y-78472000D02*
X213042000Y-78472000D01*
X211542000Y-84192000D02*
X213042000Y-84192000D01*
X211542000Y-85192000D02*
X211542000Y-84192000D01*
X213042000Y-77472000D02*
X209022000Y-77472000D01*
X213042000Y-85192000D02*
X213042000Y-77472000D01*
X213342000Y-85492000D02*
X213342000Y-82992000D01*
%TO.C,C6*%
X202697000Y-104022580D02*
X202697000Y-103741420D01*
X203717000Y-104022580D02*
X203717000Y-103741420D01*
%TO.C,C2*%
X170222000Y-102272580D02*
X170222000Y-101991420D01*
X171242000Y-102272580D02*
X171242000Y-101991420D01*
%TO.C,Q3*%
X140894500Y-91822000D02*
X140244500Y-91822000D01*
X140894500Y-91822000D02*
X141544500Y-91822000D01*
X140894500Y-94942000D02*
X140244500Y-94942000D01*
X140894500Y-94942000D02*
X141544500Y-94942000D01*
X142297000Y-95222000D02*
X141817000Y-95222000D01*
X142057000Y-94892000D01*
X142297000Y-95222000D01*
G36*
X142297000Y-95222000D02*
G01*
X141817000Y-95222000D01*
X142057000Y-94892000D01*
X142297000Y-95222000D01*
G37*
%TO.C,R24*%
X87412000Y-89812000D02*
X87412000Y-91692000D01*
X87412000Y-96452000D02*
X87412000Y-94572000D01*
X112652000Y-89812000D02*
X87412000Y-89812000D01*
X112652000Y-91692000D02*
X112652000Y-89812000D01*
X112652000Y-94572000D02*
X112652000Y-96452000D01*
X112652000Y-96452000D02*
X87412000Y-96452000D01*
%TO.C,R25*%
X140278359Y-87952000D02*
X140585641Y-87952000D01*
X140278359Y-88712000D02*
X140585641Y-88712000D01*
%TO.C,C11*%
X202972000Y-110835080D02*
X202972000Y-110553920D01*
X203992000Y-110835080D02*
X203992000Y-110553920D01*
%TO.C,C7*%
X193784500Y-99522580D02*
X193784500Y-99241420D01*
X194804500Y-99522580D02*
X194804500Y-99241420D01*
%TO.C,R2*%
X150459500Y-101894742D02*
X150459500Y-102369258D01*
X151504500Y-101894742D02*
X151504500Y-102369258D01*
%TO.C,R3*%
X184772000Y-102894742D02*
X184772000Y-103369258D01*
X185817000Y-102894742D02*
X185817000Y-103369258D01*
%TO.C,C9*%
X192034500Y-99522580D02*
X192034500Y-99241420D01*
X193054500Y-99522580D02*
X193054500Y-99241420D01*
%TO.C,R4*%
X188522000Y-99144742D02*
X188522000Y-99619258D01*
X189567000Y-99144742D02*
X189567000Y-99619258D01*
%TO.C,R16*%
X181459500Y-118119258D02*
X181459500Y-117644742D01*
X182504500Y-118119258D02*
X182504500Y-117644742D01*
%TO.C,L1*%
X199832378Y-110884500D02*
X200631622Y-110884500D01*
X199832378Y-112004500D02*
X200631622Y-112004500D01*
%TO.C,R13*%
X196807242Y-107359500D02*
X197281758Y-107359500D01*
X196807242Y-108404500D02*
X197281758Y-108404500D01*
D13*
%TO.C,J2*%
X144900000Y-66500000D02*
X153700000Y-66500000D01*
X144900000Y-91500000D02*
X144900000Y-66500000D01*
X153700000Y-66500000D02*
X153700000Y-69250000D01*
X153700000Y-91500000D02*
X144900000Y-91500000D01*
X153700000Y-91500000D02*
X153700000Y-89450000D01*
D12*
%TO.C,C4*%
X109091420Y-118622000D02*
X109372580Y-118622000D01*
X109091420Y-119642000D02*
X109372580Y-119642000D01*
%TO.C,R12*%
X188272000Y-110869258D02*
X188272000Y-110394742D01*
X189317000Y-110869258D02*
X189317000Y-110394742D01*
%TO.C,R22*%
X130684500Y-106569258D02*
X130684500Y-106094742D01*
X131729500Y-106569258D02*
X131729500Y-106094742D01*
%TO.C,R7*%
X196869258Y-102009500D02*
X196394742Y-102009500D01*
X196869258Y-103054500D02*
X196394742Y-103054500D01*
%TO.C,Q2*%
X134094500Y-102322000D02*
X133444500Y-102322000D01*
X134094500Y-102322000D02*
X134744500Y-102322000D01*
X134094500Y-105442000D02*
X133444500Y-105442000D01*
X134094500Y-105442000D02*
X134744500Y-105442000D01*
X135497000Y-105722000D02*
X135017000Y-105722000D01*
X135257000Y-105392000D01*
X135497000Y-105722000D01*
G36*
X135497000Y-105722000D02*
G01*
X135017000Y-105722000D01*
X135257000Y-105392000D01*
X135497000Y-105722000D01*
G37*
%TO.C,R21*%
X89309500Y-121894742D02*
X89309500Y-122369258D01*
X90354500Y-121894742D02*
X90354500Y-122369258D01*
%TO.C,R17*%
X201709500Y-118119258D02*
X201709500Y-117644742D01*
X202754500Y-118119258D02*
X202754500Y-117644742D01*
%TO.C,R8*%
X183022000Y-110931758D02*
X183022000Y-110457242D01*
X184067000Y-110931758D02*
X184067000Y-110457242D01*
%TD*%
D14*
X195832000Y-124932000D02*
X195832000Y-126132000D01*
X195832000Y-126132000D02*
G75*
G02*
X193832000Y-128132000I-2000000J0D01*
G01*
X191032000Y-128132000D02*
G75*
G02*
X189032000Y-126132000I0J2000000D01*
G01*
X189032000Y-124932000D02*
G75*
G02*
X191032000Y-122932000I2000000J0D01*
G01*
X193832000Y-122932000D02*
G75*
G02*
X195832000Y-124932000I0J-2000000D01*
G01*
X193832000Y-128132000D02*
X191032000Y-128132000D01*
X191032000Y-122932000D02*
X193832000Y-122932000D01*
X189032000Y-126132000D02*
X189032000Y-124932000D01*
X78232000Y-40132000D02*
X218232000Y-40132000D01*
X218232000Y-140132000D01*
X78232000Y-140132000D01*
X78232000Y-40132000D01*
M02*
