%TF.GenerationSoftware,KiCad,Pcbnew,8.0.1*%
%TF.CreationDate,2024-04-21T01:25:57+02:00*%
%TF.ProjectId,EKO_MyMiner,454b4f5f-4d79-44d6-996e-65722e6b6963,rev?*%
%TF.SameCoordinates,Original*%
%TF.FileFunction,Paste,Top*%
%TF.FilePolarity,Positive*%
%FSLAX46Y46*%
G04 Gerber Fmt 4.6, Leading zero omitted, Abs format (unit mm)*
G04 Created by KiCad (PCBNEW 8.0.1) date 2024-04-21 01:25:57*
%MOMM*%
%LPD*%
G01*
G04 APERTURE LIST*
G04 Aperture macros list*
%AMRoundRect*
0 Rectangle with rounded corners*
0 $1 Rounding radius*
0 $2 $3 $4 $5 $6 $7 $8 $9 X,Y pos of 4 corners*
0 Add a 4 corners polygon primitive as box body*
4,1,4,$2,$3,$4,$5,$6,$7,$8,$9,$2,$3,0*
0 Add four circle primitives for the rounded corners*
1,1,$1+$1,$2,$3*
1,1,$1+$1,$4,$5*
1,1,$1+$1,$6,$7*
1,1,$1+$1,$8,$9*
0 Add four rect primitives between the rounded corners*
20,1,$1+$1,$2,$3,$4,$5,0*
20,1,$1+$1,$4,$5,$6,$7,0*
20,1,$1+$1,$6,$7,$8,$9,0*
20,1,$1+$1,$8,$9,$2,$3,0*%
%AMFreePoly0*
4,1,25,0.266375,0.443630,0.297109,0.420047,0.420047,0.297109,0.458455,0.230584,0.463512,0.192176,0.463512,-0.192176,0.443630,-0.266375,0.420047,-0.297109,0.297109,-0.420047,0.230584,-0.458455,0.192176,-0.463512,-0.192176,-0.463512,-0.266375,-0.443630,-0.297109,-0.420047,-0.420047,-0.297109,-0.458455,-0.230584,-0.463512,-0.192176,-0.463512,0.192176,-0.443630,0.266375,-0.420047,0.297109,
-0.297109,0.420047,-0.230584,0.458455,-0.192176,0.463512,0.192176,0.463512,0.266375,0.443630,0.266375,0.443630,$1*%
G04 Aperture macros list end*
%ADD10FreePoly0,180.000000*%
%ADD11RoundRect,0.062500X0.375000X0.062500X-0.375000X0.062500X-0.375000X-0.062500X0.375000X-0.062500X0*%
%ADD12RoundRect,0.062500X0.062500X0.375000X-0.062500X0.375000X-0.062500X-0.375000X0.062500X-0.375000X0*%
%ADD13RoundRect,0.250000X-0.550000X1.250000X-0.550000X-1.250000X0.550000X-1.250000X0.550000X1.250000X0*%
%ADD14RoundRect,0.200000X0.275000X-0.200000X0.275000X0.200000X-0.275000X0.200000X-0.275000X-0.200000X0*%
%ADD15RoundRect,0.200000X-0.275000X0.200000X-0.275000X-0.200000X0.275000X-0.200000X0.275000X0.200000X0*%
%ADD16RoundRect,0.225000X-0.250000X0.225000X-0.250000X-0.225000X0.250000X-0.225000X0.250000X0.225000X0*%
%ADD17R,1.100000X1.300000*%
%ADD18R,0.900000X1.500000*%
%ADD19R,1.500000X0.900000*%
%ADD20R,0.900000X0.900000*%
%ADD21RoundRect,0.250000X0.850000X0.350000X-0.850000X0.350000X-0.850000X-0.350000X0.850000X-0.350000X0*%
%ADD22RoundRect,0.250000X1.275000X1.125000X-1.275000X1.125000X-1.275000X-1.125000X1.275000X-1.125000X0*%
%ADD23RoundRect,0.225000X0.250000X-0.225000X0.250000X0.225000X-0.250000X0.225000X-0.250000X-0.225000X0*%
%ADD24RoundRect,0.150000X0.587500X0.150000X-0.587500X0.150000X-0.587500X-0.150000X0.587500X-0.150000X0*%
%ADD25RoundRect,0.135000X-0.135000X-0.185000X0.135000X-0.185000X0.135000X0.185000X-0.135000X0.185000X0*%
%ADD26RoundRect,0.218750X-0.218750X-0.381250X0.218750X-0.381250X0.218750X0.381250X-0.218750X0.381250X0*%
%ADD27RoundRect,0.200000X-0.200000X-0.275000X0.200000X-0.275000X0.200000X0.275000X-0.200000X0.275000X0*%
%ADD28RoundRect,0.225000X-0.225000X-0.250000X0.225000X-0.250000X0.225000X0.250000X-0.225000X0.250000X0*%
%ADD29RoundRect,0.200000X0.200000X0.275000X-0.200000X0.275000X-0.200000X-0.275000X0.200000X-0.275000X0*%
%TA.AperFunction,Profile*%
%ADD30C,0.100000*%
%TD*%
G04 APERTURE END LIST*
D10*
%TO.C,U1*%
X192364500Y-105514500D03*
X192364500Y-104374500D03*
X191224500Y-105514500D03*
X191224500Y-104374500D03*
D11*
X193732000Y-106194500D03*
X193732000Y-105694500D03*
X193732000Y-105194500D03*
X193732000Y-104694500D03*
X193732000Y-104194500D03*
X193732000Y-103694500D03*
D12*
X193044500Y-103007000D03*
X192544500Y-103007000D03*
X192044500Y-103007000D03*
X191544500Y-103007000D03*
X191044500Y-103007000D03*
X190544500Y-103007000D03*
D11*
X189857000Y-103694500D03*
X189857000Y-104194500D03*
X189857000Y-104694500D03*
X189857000Y-105194500D03*
X189857000Y-105694500D03*
X189857000Y-106194500D03*
D12*
X190544500Y-106882000D03*
X191044500Y-106882000D03*
X191544500Y-106882000D03*
X192044500Y-106882000D03*
X192544500Y-106882000D03*
X193044500Y-106882000D03*
%TD*%
D13*
%TO.C,C16*%
X190754000Y-56906000D03*
X190754000Y-61306000D03*
%TD*%
%TO.C,C15*%
X158750000Y-56906000D03*
X158750000Y-61306000D03*
%TD*%
%TO.C,C13*%
X108458000Y-56906000D03*
X108458000Y-61306000D03*
%TD*%
%TO.C,C1*%
X121232000Y-111182000D03*
X121232000Y-115582000D03*
%TD*%
D14*
%TO.C,R23*%
X165632000Y-129557000D03*
X165632000Y-127907000D03*
%TD*%
D15*
%TO.C,R10*%
X190794500Y-98557000D03*
X190794500Y-100207000D03*
%TD*%
D16*
%TO.C,C14*%
X139700000Y-106083000D03*
X139700000Y-107633000D03*
%TD*%
D17*
%TO.C,X1*%
X201032000Y-104682000D03*
X201032000Y-102582000D03*
X199382000Y-102582000D03*
X199382000Y-104682000D03*
%TD*%
D18*
%TO.C,U2*%
X171097000Y-106732000D03*
X169827000Y-106732000D03*
X168557000Y-106732000D03*
X167287000Y-106732000D03*
X166017000Y-106732000D03*
X164747000Y-106732000D03*
X163477000Y-106732000D03*
X162207000Y-106732000D03*
X160937000Y-106732000D03*
X159667000Y-106732000D03*
X158397000Y-106732000D03*
X157127000Y-106732000D03*
X155857000Y-106732000D03*
X154587000Y-106732000D03*
D19*
X153492000Y-109767000D03*
X153492000Y-111037000D03*
X153492000Y-112307000D03*
X153492000Y-113577000D03*
X153492000Y-114847000D03*
X153492000Y-116117000D03*
X153492000Y-117387000D03*
X153492000Y-118657000D03*
X153492000Y-119927000D03*
X153492000Y-121197000D03*
D18*
X154587000Y-124232000D03*
X155857000Y-124232000D03*
X157127000Y-124232000D03*
X158397000Y-124232000D03*
X159667000Y-124232000D03*
X160937000Y-124232000D03*
X162207000Y-124232000D03*
X163477000Y-124232000D03*
X164747000Y-124232000D03*
X166017000Y-124232000D03*
X167287000Y-124232000D03*
X168557000Y-124232000D03*
X169827000Y-124232000D03*
X171097000Y-124232000D03*
D20*
X164932000Y-112582000D03*
X163532000Y-112582000D03*
X162132000Y-112582000D03*
X164932000Y-113982000D03*
X163532000Y-113982000D03*
X162132000Y-113982000D03*
X164932000Y-115382000D03*
X163532000Y-115382000D03*
X162132000Y-115382000D03*
%TD*%
D15*
%TO.C,R20*%
X148982000Y-101307000D03*
X148982000Y-102957000D03*
%TD*%
D14*
%TO.C,R15*%
X193294500Y-111457000D03*
X193294500Y-109807000D03*
%TD*%
D15*
%TO.C,R19*%
X168482000Y-101307000D03*
X168482000Y-102957000D03*
%TD*%
D21*
%TO.C,U3*%
X116182000Y-115659500D03*
D22*
X111557000Y-114904500D03*
X111557000Y-111854500D03*
X108207000Y-114904500D03*
X108207000Y-111854500D03*
D21*
X116182000Y-111099500D03*
%TD*%
D23*
%TO.C,C5*%
X183544500Y-103907000D03*
X183544500Y-102357000D03*
%TD*%
D14*
%TO.C,R14*%
X195044500Y-111457000D03*
X195044500Y-109807000D03*
%TD*%
%TO.C,R1*%
X206732000Y-104707000D03*
X206732000Y-103057000D03*
%TD*%
D23*
%TO.C,C3*%
X92982000Y-122907000D03*
X92982000Y-121357000D03*
%TD*%
%TO.C,C10*%
X197044500Y-111469500D03*
X197044500Y-109919500D03*
%TD*%
D14*
%TO.C,R11*%
X190544500Y-111457000D03*
X190544500Y-109807000D03*
%TD*%
%TO.C,R9*%
X185294500Y-111519500D03*
X185294500Y-109869500D03*
%TD*%
D23*
%TO.C,C12*%
X187044500Y-111469500D03*
X187044500Y-109919500D03*
%TD*%
D15*
%TO.C,R5*%
X187294500Y-98619500D03*
X187294500Y-100269500D03*
%TD*%
%TO.C,R6*%
X198044500Y-98557000D03*
X198044500Y-100207000D03*
%TD*%
D23*
%TO.C,C8*%
X196044500Y-100157000D03*
X196044500Y-98607000D03*
%TD*%
D24*
%TO.C,Q1*%
X91869500Y-126969500D03*
X91869500Y-125069500D03*
X89994500Y-126019500D03*
%TD*%
D14*
%TO.C,R18*%
X203982000Y-118707000D03*
X203982000Y-117057000D03*
%TD*%
D23*
%TO.C,C6*%
X203207000Y-104657000D03*
X203207000Y-103107000D03*
%TD*%
%TO.C,C2*%
X170732000Y-102907000D03*
X170732000Y-101357000D03*
%TD*%
D24*
%TO.C,Q3*%
X141832000Y-94332000D03*
X141832000Y-92432000D03*
X139957000Y-93382000D03*
%TD*%
D25*
%TO.C,R25*%
X139922000Y-88332000D03*
X140942000Y-88332000D03*
%TD*%
D23*
%TO.C,C11*%
X203482000Y-111469500D03*
X203482000Y-109919500D03*
%TD*%
%TO.C,C7*%
X194294500Y-100157000D03*
X194294500Y-98607000D03*
%TD*%
D15*
%TO.C,R2*%
X150982000Y-101307000D03*
X150982000Y-102957000D03*
%TD*%
%TO.C,R3*%
X185294500Y-102307000D03*
X185294500Y-103957000D03*
%TD*%
D23*
%TO.C,C9*%
X192544500Y-100157000D03*
X192544500Y-98607000D03*
%TD*%
D15*
%TO.C,R4*%
X189044500Y-98557000D03*
X189044500Y-100207000D03*
%TD*%
D14*
%TO.C,R16*%
X181982000Y-118707000D03*
X181982000Y-117057000D03*
%TD*%
D26*
%TO.C,L1*%
X199169500Y-111444500D03*
X201294500Y-111444500D03*
%TD*%
D27*
%TO.C,R13*%
X196219500Y-107882000D03*
X197869500Y-107882000D03*
%TD*%
D28*
%TO.C,C4*%
X108457000Y-119132000D03*
X110007000Y-119132000D03*
%TD*%
D14*
%TO.C,R12*%
X188794500Y-111457000D03*
X188794500Y-109807000D03*
%TD*%
%TO.C,R22*%
X131207000Y-107157000D03*
X131207000Y-105507000D03*
%TD*%
D29*
%TO.C,R7*%
X197457000Y-102532000D03*
X195807000Y-102532000D03*
%TD*%
D24*
%TO.C,Q2*%
X135032000Y-104832000D03*
X135032000Y-102932000D03*
X133157000Y-103882000D03*
%TD*%
D15*
%TO.C,R21*%
X89832000Y-121307000D03*
X89832000Y-122957000D03*
%TD*%
D14*
%TO.C,R17*%
X202232000Y-118707000D03*
X202232000Y-117057000D03*
%TD*%
%TO.C,R8*%
X183544500Y-111519500D03*
X183544500Y-109869500D03*
%TD*%
D30*
X195832000Y-124932000D02*
X195832000Y-126132000D01*
X195832000Y-126132000D02*
G75*
G02*
X193832000Y-128132000I-2000000J0D01*
G01*
X191032000Y-128132000D02*
G75*
G02*
X189032000Y-126132000I0J2000000D01*
G01*
X189032000Y-124932000D02*
G75*
G02*
X191032000Y-122932000I2000000J0D01*
G01*
X193832000Y-122932000D02*
G75*
G02*
X195832000Y-124932000I0J-2000000D01*
G01*
X193832000Y-128132000D02*
X191032000Y-128132000D01*
X191032000Y-122932000D02*
X193832000Y-122932000D01*
X189032000Y-126132000D02*
X189032000Y-124932000D01*
X78232000Y-40132000D02*
X218232000Y-40132000D01*
X218232000Y-140132000D01*
X78232000Y-140132000D01*
X78232000Y-40132000D01*
M02*
