%TF.GenerationSoftware,KiCad,Pcbnew,8.0.1*%
%TF.CreationDate,2024-04-21T01:25:57+02:00*%
%TF.ProjectId,EKO_MyMiner,454b4f5f-4d79-44d6-996e-65722e6b6963,rev?*%
%TF.SameCoordinates,Original*%
%TF.FileFunction,Soldermask,Bot*%
%TF.FilePolarity,Negative*%
%FSLAX46Y46*%
G04 Gerber Fmt 4.6, Leading zero omitted, Abs format (unit mm)*
G04 Created by KiCad (PCBNEW 8.0.1) date 2024-04-21 01:25:57*
%MOMM*%
%LPD*%
G01*
G04 APERTURE LIST*
G04 Aperture macros list*
%AMRoundRect*
0 Rectangle with rounded corners*
0 $1 Rounding radius*
0 $2 $3 $4 $5 $6 $7 $8 $9 X,Y pos of 4 corners*
0 Add a 4 corners polygon primitive as box body*
4,1,4,$2,$3,$4,$5,$6,$7,$8,$9,$2,$3,0*
0 Add four circle primitives for the rounded corners*
1,1,$1+$1,$2,$3*
1,1,$1+$1,$4,$5*
1,1,$1+$1,$6,$7*
1,1,$1+$1,$8,$9*
0 Add four rect primitives between the rounded corners*
20,1,$1+$1,$2,$3,$4,$5,0*
20,1,$1+$1,$4,$5,$6,$7,0*
20,1,$1+$1,$6,$7,$8,$9,0*
20,1,$1+$1,$8,$9,$2,$3,0*%
G04 Aperture macros list end*
%ADD10C,2.350000*%
%ADD11RoundRect,0.102000X-0.604000X0.604000X-0.604000X-0.604000X0.604000X-0.604000X0.604000X0.604000X0*%
%ADD12C,1.412000*%
%ADD13R,1.700000X1.700000*%
%ADD14O,1.700000X1.700000*%
%ADD15C,5.600000*%
%ADD16RoundRect,0.250000X0.750000X-0.600000X0.750000X0.600000X-0.750000X0.600000X-0.750000X-0.600000X0*%
%ADD17O,2.000000X1.700000*%
%ADD18C,2.400000*%
%ADD19O,2.400000X2.400000*%
%ADD20C,2.000000*%
%ADD21C,3.000000*%
%ADD22RoundRect,0.250001X-1.399999X1.099999X-1.399999X-1.099999X1.399999X-1.099999X1.399999X1.099999X0*%
%ADD23O,3.300000X2.700000*%
%ADD24RoundRect,0.087500X1.162500X0.087500X-1.162500X0.087500X-1.162500X-0.087500X1.162500X-0.087500X0*%
%ADD25C,1.300000*%
%ADD26RoundRect,0.250001X-1.099999X-1.399999X1.099999X-1.399999X1.099999X1.399999X-1.099999X1.399999X0*%
%ADD27O,2.700000X3.300000*%
%ADD28C,3.251200*%
%ADD29R,1.778000X1.778000*%
%ADD30C,1.778000*%
%ADD31O,1.500000X2.032000*%
%ADD32O,1.500000X2.540000*%
%ADD33C,0.800000*%
%ADD34RoundRect,0.102000X0.350000X0.350000X-0.350000X0.350000X-0.350000X-0.350000X0.350000X-0.350000X0*%
%TA.AperFunction,Profile*%
%ADD35C,0.100000*%
%TD*%
G04 APERTURE END LIST*
D10*
%TO.C,J3*%
X200000000Y-81000000D03*
X200000000Y-90150000D03*
D11*
X201250000Y-69350000D03*
D12*
X203250000Y-70350000D03*
X201250000Y-71350000D03*
X203250000Y-72350000D03*
X201250000Y-73350000D03*
X203250000Y-74350000D03*
X201250000Y-75350000D03*
X203250000Y-76350000D03*
X201250000Y-77350000D03*
X203250000Y-78350000D03*
X201250000Y-79350000D03*
X203250000Y-82350000D03*
X201250000Y-83350000D03*
X203250000Y-84350000D03*
X201250000Y-85350000D03*
X203250000Y-86350000D03*
X201250000Y-87350000D03*
X203250000Y-88350000D03*
D11*
X198750000Y-69350000D03*
D12*
X196750000Y-70350000D03*
X198750000Y-71350000D03*
X196750000Y-72350000D03*
X198750000Y-73350000D03*
X196750000Y-74350000D03*
X198750000Y-75350000D03*
X196750000Y-76350000D03*
X198750000Y-77350000D03*
X196750000Y-78350000D03*
X198750000Y-79350000D03*
X196750000Y-82350000D03*
X198750000Y-83350000D03*
X196750000Y-84350000D03*
X198750000Y-85350000D03*
X196750000Y-86350000D03*
X198750000Y-87350000D03*
X196750000Y-88350000D03*
%TD*%
D13*
%TO.C,J6*%
X168382000Y-129382000D03*
D14*
X170922000Y-128582000D03*
X173462000Y-129382000D03*
X176002000Y-128582000D03*
X178542000Y-129382000D03*
X181082000Y-128582000D03*
%TD*%
D15*
%TO.C,H3*%
X213232000Y-136132000D03*
%TD*%
%TO.C,H2*%
X213232000Y-44132000D03*
%TD*%
D10*
%TO.C,J16*%
X150000000Y-55000000D03*
X150000000Y-64150000D03*
D11*
X151250000Y-43350000D03*
D12*
X153250000Y-44350000D03*
X151250000Y-45350000D03*
X153250000Y-46350000D03*
X151250000Y-47350000D03*
X153250000Y-48350000D03*
X151250000Y-49350000D03*
X153250000Y-50350000D03*
X151250000Y-51350000D03*
X153250000Y-52350000D03*
X151250000Y-53350000D03*
X153250000Y-56350000D03*
X151250000Y-57350000D03*
X153250000Y-58350000D03*
X151250000Y-59350000D03*
X153250000Y-60350000D03*
X151250000Y-61350000D03*
X153250000Y-62350000D03*
D11*
X148750000Y-43350000D03*
D12*
X146750000Y-44350000D03*
X148750000Y-45350000D03*
X146750000Y-46350000D03*
X148750000Y-47350000D03*
X146750000Y-48350000D03*
X148750000Y-49350000D03*
X146750000Y-50350000D03*
X148750000Y-51350000D03*
X146750000Y-52350000D03*
X148750000Y-53350000D03*
X146750000Y-56350000D03*
X148750000Y-57350000D03*
X146750000Y-58350000D03*
X148750000Y-59350000D03*
X146750000Y-60350000D03*
X148750000Y-61350000D03*
X146750000Y-62350000D03*
%TD*%
D10*
%TO.C,J1*%
X100000000Y-81000000D03*
X100000000Y-90150000D03*
D11*
X101250000Y-69350000D03*
D12*
X103250000Y-70350000D03*
X101250000Y-71350000D03*
X103250000Y-72350000D03*
X101250000Y-73350000D03*
X103250000Y-74350000D03*
X101250000Y-75350000D03*
X103250000Y-76350000D03*
X101250000Y-77350000D03*
X103250000Y-78350000D03*
X101250000Y-79350000D03*
X103250000Y-82350000D03*
X101250000Y-83350000D03*
X103250000Y-84350000D03*
X101250000Y-85350000D03*
X103250000Y-86350000D03*
X101250000Y-87350000D03*
X103250000Y-88350000D03*
D11*
X98750000Y-69350000D03*
D12*
X96750000Y-70350000D03*
X98750000Y-71350000D03*
X96750000Y-72350000D03*
X98750000Y-73350000D03*
X96750000Y-74350000D03*
X98750000Y-75350000D03*
X96750000Y-76350000D03*
X98750000Y-77350000D03*
X96750000Y-78350000D03*
X98750000Y-79350000D03*
X96750000Y-82350000D03*
X98750000Y-83350000D03*
X96750000Y-84350000D03*
X98750000Y-85350000D03*
X96750000Y-86350000D03*
X98750000Y-87350000D03*
X96750000Y-88350000D03*
%TD*%
D10*
%TO.C,J17*%
X200000000Y-55000000D03*
X200000000Y-64150000D03*
D11*
X201250000Y-43350000D03*
D12*
X203250000Y-44350000D03*
X201250000Y-45350000D03*
X203250000Y-46350000D03*
X201250000Y-47350000D03*
X203250000Y-48350000D03*
X201250000Y-49350000D03*
X203250000Y-50350000D03*
X201250000Y-51350000D03*
X203250000Y-52350000D03*
X201250000Y-53350000D03*
X203250000Y-56350000D03*
X201250000Y-57350000D03*
X203250000Y-58350000D03*
X201250000Y-59350000D03*
X203250000Y-60350000D03*
X201250000Y-61350000D03*
X203250000Y-62350000D03*
D11*
X198750000Y-43350000D03*
D12*
X196750000Y-44350000D03*
X198750000Y-45350000D03*
X196750000Y-46350000D03*
X198750000Y-47350000D03*
X196750000Y-48350000D03*
X198750000Y-49350000D03*
X196750000Y-50350000D03*
X198750000Y-51350000D03*
X196750000Y-52350000D03*
X198750000Y-53350000D03*
X196750000Y-56350000D03*
X198750000Y-57350000D03*
X196750000Y-58350000D03*
X198750000Y-59350000D03*
X196750000Y-60350000D03*
X198750000Y-61350000D03*
X196750000Y-62350000D03*
%TD*%
D10*
%TO.C,J15*%
X100000000Y-55000000D03*
X100000000Y-64150000D03*
D11*
X101250000Y-43350000D03*
D12*
X103250000Y-44350000D03*
X101250000Y-45350000D03*
X103250000Y-46350000D03*
X101250000Y-47350000D03*
X103250000Y-48350000D03*
X101250000Y-49350000D03*
X103250000Y-50350000D03*
X101250000Y-51350000D03*
X103250000Y-52350000D03*
X101250000Y-53350000D03*
X103250000Y-56350000D03*
X101250000Y-57350000D03*
X103250000Y-58350000D03*
X101250000Y-59350000D03*
X103250000Y-60350000D03*
X101250000Y-61350000D03*
X103250000Y-62350000D03*
D11*
X98750000Y-43350000D03*
D12*
X96750000Y-44350000D03*
X98750000Y-45350000D03*
X96750000Y-46350000D03*
X98750000Y-47350000D03*
X96750000Y-48350000D03*
X98750000Y-49350000D03*
X96750000Y-50350000D03*
X98750000Y-51350000D03*
X96750000Y-52350000D03*
X98750000Y-53350000D03*
X96750000Y-56350000D03*
X98750000Y-57350000D03*
X96750000Y-58350000D03*
X98750000Y-59350000D03*
X96750000Y-60350000D03*
X98750000Y-61350000D03*
X96750000Y-62350000D03*
%TD*%
D16*
%TO.C,J5*%
X210732000Y-82582000D03*
D17*
X210732000Y-80082000D03*
%TD*%
D18*
%TO.C,R24*%
X114002000Y-93132000D03*
D19*
X86062000Y-93132000D03*
%TD*%
D15*
%TO.C,H1*%
X83232000Y-44132000D03*
%TD*%
%TO.C,H4*%
X83232000Y-136132000D03*
%TD*%
D10*
%TO.C,J2*%
X150000000Y-81000000D03*
X150000000Y-90150000D03*
D11*
X151250000Y-69350000D03*
D12*
X153250000Y-70350000D03*
X151250000Y-71350000D03*
X153250000Y-72350000D03*
X151250000Y-73350000D03*
X153250000Y-74350000D03*
X151250000Y-75350000D03*
X153250000Y-76350000D03*
X151250000Y-77350000D03*
X153250000Y-78350000D03*
X151250000Y-79350000D03*
X153250000Y-82350000D03*
X151250000Y-83350000D03*
X153250000Y-84350000D03*
X151250000Y-85350000D03*
X153250000Y-86350000D03*
X151250000Y-87350000D03*
X153250000Y-88350000D03*
D11*
X148750000Y-69350000D03*
D12*
X146750000Y-70350000D03*
X148750000Y-71350000D03*
X146750000Y-72350000D03*
X148750000Y-73350000D03*
X146750000Y-74350000D03*
X148750000Y-75350000D03*
X146750000Y-76350000D03*
X148750000Y-77350000D03*
X146750000Y-78350000D03*
X148750000Y-79350000D03*
X146750000Y-82350000D03*
X148750000Y-83350000D03*
X146750000Y-84350000D03*
X148750000Y-85350000D03*
X146750000Y-86350000D03*
X148750000Y-87350000D03*
X146750000Y-88350000D03*
%TD*%
D20*
%TO.C,SW1*%
X163726000Y-128012000D03*
X157226000Y-128012000D03*
X163726000Y-132512000D03*
X157226000Y-132512000D03*
%TD*%
D13*
%TO.C,J13*%
X128778000Y-121600000D03*
D14*
X128778000Y-124140000D03*
X128778000Y-126680000D03*
X128778000Y-129220000D03*
%TD*%
D21*
%TO.C,J12*%
X88222000Y-68832000D03*
X88222000Y-86632000D03*
D22*
X83182000Y-73532000D03*
D23*
X83182000Y-77732000D03*
X83182000Y-81932000D03*
X88682000Y-73532000D03*
X88682000Y-77732000D03*
X88682000Y-81932000D03*
%TD*%
D24*
%TO.C,J9*%
X96782000Y-121882000D03*
X96782000Y-122582000D03*
X96782000Y-123282000D03*
X96782000Y-123982000D03*
X96782000Y-124682000D03*
X96782000Y-125382000D03*
X96782000Y-126082000D03*
X96782000Y-126782000D03*
X96782000Y-127482000D03*
X96782000Y-128182000D03*
X96782000Y-128882000D03*
X96782000Y-129582000D03*
D25*
X100482000Y-130782000D03*
X100482000Y-120782000D03*
%TD*%
D21*
%TO.C,J11*%
X113300000Y-54960000D03*
X135300000Y-54960000D03*
D26*
X118000000Y-60000000D03*
D27*
X122200000Y-60000000D03*
X126400000Y-60000000D03*
X130600000Y-60000000D03*
X118000000Y-54500000D03*
X122200000Y-54500000D03*
X126400000Y-54500000D03*
X130600000Y-54500000D03*
%TD*%
D21*
%TO.C,J10*%
X163300000Y-54960000D03*
X185300000Y-54960000D03*
D26*
X168000000Y-60000000D03*
D27*
X172200000Y-60000000D03*
X176400000Y-60000000D03*
X180600000Y-60000000D03*
X168000000Y-54500000D03*
X172200000Y-54500000D03*
X176400000Y-54500000D03*
X180600000Y-54500000D03*
%TD*%
D13*
%TO.C,J8*%
X146507000Y-96857000D03*
D14*
X146507000Y-99397000D03*
X149047000Y-96857000D03*
X149047000Y-99397000D03*
X151587000Y-96857000D03*
X151587000Y-99397000D03*
%TD*%
D28*
%TO.C,J4*%
X186772000Y-126955800D03*
X198202000Y-126955800D03*
D29*
X196932000Y-120605800D03*
D30*
X195662000Y-118065800D03*
X194392000Y-120605800D03*
X193122000Y-118065800D03*
X191852000Y-120605800D03*
X190582000Y-118065800D03*
X189312000Y-120605800D03*
X188042000Y-118065800D03*
D31*
X198834700Y-131070600D03*
X196294700Y-131070600D03*
X188704700Y-131070600D03*
X186164700Y-131070600D03*
D32*
X184613000Y-123605800D03*
X200361000Y-123605800D03*
%TD*%
D26*
%TO.C,J7*%
X87582000Y-106632000D03*
D27*
X91782000Y-106632000D03*
X95982000Y-106632000D03*
X100182000Y-106632000D03*
X104382000Y-106632000D03*
X108582000Y-106632000D03*
X112782000Y-106632000D03*
X116982000Y-106632000D03*
X121182000Y-106632000D03*
X125382000Y-106632000D03*
X87582000Y-101132000D03*
X91782000Y-101132000D03*
X95982000Y-101132000D03*
X100182000Y-101132000D03*
X104382000Y-101132000D03*
X108582000Y-101132000D03*
X112782000Y-101132000D03*
X116982000Y-101132000D03*
X121182000Y-101132000D03*
X125382000Y-101132000D03*
%TD*%
D33*
%TO.C,D1*%
X142282000Y-105582000D03*
X138182000Y-101482000D03*
D34*
X139317000Y-104082000D03*
X139317000Y-102982000D03*
X141147000Y-102982000D03*
X141147000Y-104082000D03*
%TD*%
D35*
X195832000Y-124932000D02*
X195832000Y-126132000D01*
X195832000Y-126132000D02*
G75*
G02*
X193832000Y-128132000I-2000000J0D01*
G01*
X191032000Y-128132000D02*
G75*
G02*
X189032000Y-126132000I0J2000000D01*
G01*
X189032000Y-124932000D02*
G75*
G02*
X191032000Y-122932000I2000000J0D01*
G01*
X193832000Y-122932000D02*
G75*
G02*
X195832000Y-124932000I0J-2000000D01*
G01*
X193832000Y-128132000D02*
X191032000Y-128132000D01*
X191032000Y-122932000D02*
X193832000Y-122932000D01*
X189032000Y-126132000D02*
X189032000Y-124932000D01*
X78232000Y-40132000D02*
X218232000Y-40132000D01*
X218232000Y-140132000D01*
X78232000Y-140132000D01*
X78232000Y-40132000D01*
M02*
