%TF.GenerationSoftware,KiCad,Pcbnew,8.0.6*%
%TF.CreationDate,2024-11-29T00:06:03+01:00*%
%TF.ProjectId,EKO_Miner_PowerBoard-53667,454b4f5f-4d69-46e6-9572-5f506f776572,rev?*%
%TF.SameCoordinates,Original*%
%TF.FileFunction,Paste,Top*%
%TF.FilePolarity,Positive*%
%FSLAX46Y46*%
G04 Gerber Fmt 4.6, Leading zero omitted, Abs format (unit mm)*
G04 Created by KiCad (PCBNEW 8.0.6) date 2024-11-29 00:06:03*
%MOMM*%
%LPD*%
G01*
G04 APERTURE LIST*
G04 Aperture macros list*
%AMRoundRect*
0 Rectangle with rounded corners*
0 $1 Rounding radius*
0 $2 $3 $4 $5 $6 $7 $8 $9 X,Y pos of 4 corners*
0 Add a 4 corners polygon primitive as box body*
4,1,4,$2,$3,$4,$5,$6,$7,$8,$9,$2,$3,0*
0 Add four circle primitives for the rounded corners*
1,1,$1+$1,$2,$3*
1,1,$1+$1,$4,$5*
1,1,$1+$1,$6,$7*
1,1,$1+$1,$8,$9*
0 Add four rect primitives between the rounded corners*
20,1,$1+$1,$2,$3,$4,$5,0*
20,1,$1+$1,$4,$5,$6,$7,0*
20,1,$1+$1,$6,$7,$8,$9,0*
20,1,$1+$1,$8,$9,$2,$3,0*%
G04 Aperture macros list end*
%ADD10RoundRect,0.250000X-1.100000X0.325000X-1.100000X-0.325000X1.100000X-0.325000X1.100000X0.325000X0*%
%ADD11RoundRect,0.250000X-0.475000X0.250000X-0.475000X-0.250000X0.475000X-0.250000X0.475000X0.250000X0*%
%ADD12RoundRect,0.250000X0.262500X0.450000X-0.262500X0.450000X-0.262500X-0.450000X0.262500X-0.450000X0*%
%ADD13RoundRect,0.250000X1.100000X-0.325000X1.100000X0.325000X-1.100000X0.325000X-1.100000X-0.325000X0*%
%ADD14RoundRect,0.250000X0.475000X-0.250000X0.475000X0.250000X-0.475000X0.250000X-0.475000X-0.250000X0*%
%ADD15RoundRect,0.250000X0.450000X-0.262500X0.450000X0.262500X-0.450000X0.262500X-0.450000X-0.262500X0*%
%ADD16RoundRect,0.250000X-0.650000X0.325000X-0.650000X-0.325000X0.650000X-0.325000X0.650000X0.325000X0*%
%ADD17RoundRect,0.100000X0.100000X-0.712500X0.100000X0.712500X-0.100000X0.712500X-0.100000X-0.712500X0*%
%ADD18RoundRect,0.250000X-0.450000X0.262500X-0.450000X-0.262500X0.450000X-0.262500X0.450000X0.262500X0*%
%ADD19RoundRect,0.150000X0.587500X0.150000X-0.587500X0.150000X-0.587500X-0.150000X0.587500X-0.150000X0*%
%ADD20RoundRect,0.250000X1.000000X-1.750000X1.000000X1.750000X-1.000000X1.750000X-1.000000X-1.750000X0*%
%ADD21R,1.800000X0.900000*%
%ADD22RoundRect,0.250000X0.250000X0.475000X-0.250000X0.475000X-0.250000X-0.475000X0.250000X-0.475000X0*%
%ADD23RoundRect,0.250000X-0.250000X-0.475000X0.250000X-0.475000X0.250000X0.475000X-0.250000X0.475000X0*%
%TA.AperFunction,Profile*%
%ADD24C,0.100000*%
%TD*%
G04 APERTURE END LIST*
D10*
%TO.C,C30*%
X120470000Y-43769000D03*
X120470000Y-46719000D03*
%TD*%
%TO.C,C27*%
X123772000Y-43769000D03*
X123772000Y-46719000D03*
%TD*%
%TO.C,C17*%
X127074000Y-43769000D03*
X127074000Y-46719000D03*
%TD*%
D11*
%TO.C,C77*%
X132916000Y-94078000D03*
X132916000Y-95978000D03*
%TD*%
D12*
%TO.C,R36*%
X203297500Y-62515999D03*
X201472500Y-62515999D03*
%TD*%
D13*
%TO.C,C50*%
X127074000Y-35289000D03*
X127074000Y-32339000D03*
%TD*%
D14*
%TO.C,C19*%
X151966000Y-42892000D03*
X151966000Y-40992000D03*
%TD*%
D11*
%TO.C,C86*%
X142822000Y-94078000D03*
X142822000Y-95978000D03*
%TD*%
D10*
%TO.C,C22*%
X115898000Y-43769000D03*
X115898000Y-46719000D03*
%TD*%
D11*
%TO.C,C88*%
X130884000Y-94078000D03*
X130884000Y-95978000D03*
%TD*%
%TO.C,C123*%
X130630000Y-65376000D03*
X130630000Y-67276000D03*
%TD*%
D15*
%TO.C,R44*%
X152474000Y-71556499D03*
X152474000Y-69731499D03*
%TD*%
D16*
%TO.C,C74*%
X199210000Y-93934000D03*
X199210000Y-96884000D03*
%TD*%
D15*
%TO.C,R45*%
X176604000Y-71556499D03*
X176604000Y-69731499D03*
%TD*%
D11*
%TO.C,C140*%
X154506000Y-65375999D03*
X154506000Y-67275999D03*
%TD*%
D15*
%TO.C,R57*%
X145870000Y-42854500D03*
X145870000Y-41029500D03*
%TD*%
D14*
%TO.C,C97*%
X132662000Y-66387000D03*
X132662000Y-64487000D03*
%TD*%
D11*
%TO.C,C121*%
X130630000Y-73250000D03*
X130630000Y-75150000D03*
%TD*%
D16*
%TO.C,C61*%
X127709000Y-93934000D03*
X127709000Y-96884000D03*
%TD*%
D15*
%TO.C,R50*%
X178636000Y-71556499D03*
X178636000Y-69731499D03*
%TD*%
D17*
%TO.C,U3*%
X204480500Y-43690500D03*
X205115500Y-43690500D03*
X205750500Y-43690500D03*
X206385500Y-43690500D03*
X207020500Y-43690500D03*
X207655500Y-43690500D03*
X208290500Y-43690500D03*
X208925500Y-43690500D03*
X208925500Y-38415500D03*
X208290500Y-38415500D03*
X207655500Y-38415500D03*
X207020500Y-38415500D03*
X206385500Y-38415500D03*
X205750500Y-38415500D03*
X205115500Y-38415500D03*
X204480500Y-38415500D03*
%TD*%
D15*
%TO.C,R20*%
X170000000Y-37774500D03*
X170000000Y-35949500D03*
%TD*%
D13*
%TO.C,C39*%
X120470000Y-35289000D03*
X120470000Y-32339000D03*
%TD*%
D18*
%TO.C,R25*%
X151966000Y-31885500D03*
X151966000Y-33710500D03*
%TD*%
D15*
%TO.C,R40*%
X152474000Y-75112499D03*
X152474000Y-73287499D03*
%TD*%
%TO.C,R41*%
X176604000Y-75112499D03*
X176604000Y-73287499D03*
%TD*%
D11*
%TO.C,C174*%
X202512000Y-65375999D03*
X202512000Y-67275999D03*
%TD*%
D19*
%TO.C,Q2*%
X177033500Y-33494000D03*
X177033500Y-31594000D03*
X175158500Y-32544000D03*
%TD*%
D10*
%TO.C,C21*%
X112469000Y-43769000D03*
X112469000Y-46719000D03*
%TD*%
D11*
%TO.C,C13*%
X175080000Y-40992000D03*
X175080000Y-42892000D03*
%TD*%
D12*
%TO.C,R32*%
X155291500Y-62515999D03*
X153466500Y-62515999D03*
%TD*%
D20*
%TO.C,C10*%
X97864000Y-40227000D03*
X97864000Y-32227000D03*
%TD*%
D14*
%TO.C,C36*%
X160094000Y-33748000D03*
X160094000Y-31848000D03*
%TD*%
%TO.C,C117*%
X170127000Y-81119000D03*
X170127000Y-79219000D03*
%TD*%
%TO.C,C38*%
X153998000Y-33748000D03*
X153998000Y-31848000D03*
%TD*%
D18*
%TO.C,R3*%
X145997000Y-31250500D03*
X145997000Y-33075500D03*
%TD*%
D14*
%TO.C,C120*%
X201369000Y-81119000D03*
X201369000Y-79219000D03*
%TD*%
D21*
%TO.C,J3*%
X83200000Y-83810000D03*
X76800000Y-83810000D03*
X83200000Y-81270000D03*
X76800000Y-81270000D03*
X83200000Y-78730000D03*
X76800000Y-78730000D03*
X83200000Y-76190000D03*
X76800000Y-76190000D03*
%TD*%
D11*
%TO.C,C65*%
X120851000Y-94078000D03*
X120851000Y-95978000D03*
%TD*%
D10*
%TO.C,C20*%
X109040000Y-43769000D03*
X109040000Y-46719000D03*
%TD*%
D22*
%TO.C,C125*%
X131453000Y-60484000D03*
X129553000Y-60484000D03*
%TD*%
D23*
%TO.C,C5*%
X206769000Y-35719000D03*
X208669000Y-35719000D03*
%TD*%
D16*
%TO.C,C64*%
X151585000Y-93934000D03*
X151585000Y-96884000D03*
%TD*%
D11*
%TO.C,C12*%
X177112000Y-39214000D03*
X177112000Y-41114000D03*
%TD*%
%TO.C,C172*%
X202512000Y-73249999D03*
X202512000Y-75149999D03*
%TD*%
D18*
%TO.C,R2*%
X148029000Y-31250500D03*
X148029000Y-33075500D03*
%TD*%
D15*
%TO.C,R48*%
X130630000Y-71556500D03*
X130630000Y-69731500D03*
%TD*%
D18*
%TO.C,R24*%
X164158000Y-31885500D03*
X164158000Y-33710500D03*
%TD*%
D15*
%TO.C,R38*%
X104468000Y-75112500D03*
X104468000Y-73287500D03*
%TD*%
D18*
%TO.C,R27*%
X153998000Y-41029500D03*
X153998000Y-42854500D03*
%TD*%
D11*
%TO.C,C96*%
X168857000Y-94078000D03*
X168857000Y-95978000D03*
%TD*%
D14*
%TO.C,C102*%
X204544000Y-66386999D03*
X204544000Y-64486999D03*
%TD*%
%TO.C,C105*%
X108532000Y-69816000D03*
X108532000Y-67916000D03*
%TD*%
%TO.C,C118*%
X177493000Y-81119000D03*
X177493000Y-79219000D03*
%TD*%
D22*
%TO.C,C176*%
X203335000Y-60483999D03*
X201435000Y-60483999D03*
%TD*%
D20*
%TO.C,C11*%
X86815000Y-40227000D03*
X86815000Y-32227000D03*
%TD*%
D11*
%TO.C,C106*%
X106500000Y-65376000D03*
X106500000Y-67276000D03*
%TD*%
D10*
%TO.C,C18*%
X105611000Y-43769000D03*
X105611000Y-46719000D03*
%TD*%
D14*
%TO.C,C156*%
X180668000Y-69815999D03*
X180668000Y-67915999D03*
%TD*%
D16*
%TO.C,C76*%
X195860000Y-93934000D03*
X195860000Y-96884000D03*
%TD*%
D14*
%TO.C,C116*%
X153363000Y-81119000D03*
X153363000Y-79219000D03*
%TD*%
D15*
%TO.C,R52*%
X134694000Y-66349500D03*
X134694000Y-64524500D03*
%TD*%
D11*
%TO.C,C82*%
X156919000Y-94078000D03*
X156919000Y-95978000D03*
%TD*%
D16*
%TO.C,C67*%
X148029000Y-93934000D03*
X148029000Y-96884000D03*
%TD*%
D14*
%TO.C,C98*%
X156538000Y-66386999D03*
X156538000Y-64486999D03*
%TD*%
%TO.C,C33*%
X162126000Y-33748000D03*
X162126000Y-31848000D03*
%TD*%
D15*
%TO.C,R46*%
X200480000Y-71556499D03*
X200480000Y-69731499D03*
%TD*%
D12*
%TO.C,R28*%
X107285500Y-62516000D03*
X105460500Y-62516000D03*
%TD*%
D18*
%TO.C,R26*%
X147902000Y-37473500D03*
X147902000Y-39298500D03*
%TD*%
D14*
%TO.C,C113*%
X122121000Y-81119001D03*
X122121000Y-79219001D03*
%TD*%
D11*
%TO.C,C157*%
X178636000Y-65375999D03*
X178636000Y-67275999D03*
%TD*%
D12*
%TO.C,R34*%
X179421500Y-62515999D03*
X177596500Y-62515999D03*
%TD*%
D14*
%TO.C,C139*%
X156538000Y-69815999D03*
X156538000Y-67915999D03*
%TD*%
D11*
%TO.C,C70*%
X154887000Y-94078000D03*
X154887000Y-95978000D03*
%TD*%
%TO.C,C99*%
X190701000Y-94078000D03*
X190701000Y-95978000D03*
%TD*%
D18*
%TO.C,R16*%
X167968000Y-35949500D03*
X167968000Y-37774500D03*
%TD*%
D14*
%TO.C,C119*%
X194003000Y-81119000D03*
X194003000Y-79219000D03*
%TD*%
D16*
%TO.C,C71*%
X172159000Y-93934000D03*
X172159000Y-96884000D03*
%TD*%
D14*
%TO.C,C111*%
X97991000Y-81119001D03*
X97991000Y-79219001D03*
%TD*%
D11*
%TO.C,C92*%
X144854000Y-94078000D03*
X144854000Y-95978000D03*
%TD*%
%TO.C,C75*%
X178763000Y-94078000D03*
X178763000Y-95978000D03*
%TD*%
D15*
%TO.C,R49*%
X154506000Y-71556499D03*
X154506000Y-69731499D03*
%TD*%
D11*
%TO.C,C90*%
X166825000Y-94078000D03*
X166825000Y-95978000D03*
%TD*%
%TO.C,C138*%
X154506000Y-73249999D03*
X154506000Y-75149999D03*
%TD*%
%TO.C,C104*%
X106500000Y-73250000D03*
X106500000Y-75150000D03*
%TD*%
D15*
%TO.C,R55*%
X206576000Y-66349499D03*
X206576000Y-64524499D03*
%TD*%
D16*
%TO.C,C69*%
X175715000Y-93934000D03*
X175715000Y-96884000D03*
%TD*%
D11*
%TO.C,C31*%
X166190000Y-31848000D03*
X166190000Y-33748000D03*
%TD*%
%TO.C,C94*%
X180795000Y-94078000D03*
X180795000Y-95978000D03*
%TD*%
D14*
%TO.C,C112*%
X105357000Y-81119001D03*
X105357000Y-79219001D03*
%TD*%
%TO.C,C40*%
X156030000Y-33748000D03*
X156030000Y-31848000D03*
%TD*%
D11*
%TO.C,C63*%
X94689000Y-94078000D03*
X94689000Y-95978000D03*
%TD*%
D18*
%TO.C,R14*%
X149934000Y-41029500D03*
X149934000Y-42854500D03*
%TD*%
D11*
%TO.C,C101*%
X192733000Y-94078000D03*
X192733000Y-95978000D03*
%TD*%
D14*
%TO.C,C115*%
X145997000Y-81119000D03*
X145997000Y-79219000D03*
%TD*%
D22*
%TO.C,C159*%
X179459000Y-60483999D03*
X177559000Y-60483999D03*
%TD*%
D16*
%TO.C,C56*%
X103325000Y-93934000D03*
X103325000Y-96884000D03*
%TD*%
D13*
%TO.C,C16*%
X123772000Y-35289000D03*
X123772000Y-32339000D03*
%TD*%
%TO.C,C215*%
X112342000Y-35289000D03*
X112342000Y-32339000D03*
%TD*%
D11*
%TO.C,C68*%
X108786000Y-94078000D03*
X108786000Y-95978000D03*
%TD*%
D15*
%TO.C,R18*%
X110564000Y-66349500D03*
X110564000Y-64524500D03*
%TD*%
D13*
%TO.C,C214*%
X109040000Y-35289000D03*
X109040000Y-32339000D03*
%TD*%
%TO.C,C216*%
X115644000Y-35289000D03*
X115644000Y-32339000D03*
%TD*%
D15*
%TO.C,R42*%
X200480000Y-75112499D03*
X200480000Y-73287499D03*
%TD*%
D22*
%TO.C,C108*%
X107323000Y-60484000D03*
X105423000Y-60484000D03*
%TD*%
D11*
%TO.C,C84*%
X106754000Y-94078000D03*
X106754000Y-95978000D03*
%TD*%
D21*
%TO.C,J4*%
X83200000Y-98810000D03*
X76800000Y-98810000D03*
X83200000Y-96270000D03*
X76800000Y-96270000D03*
X83200000Y-93730000D03*
X76800000Y-93730000D03*
X83200000Y-91190000D03*
X76800000Y-91190000D03*
%TD*%
D15*
%TO.C,R51*%
X202512000Y-71556499D03*
X202512000Y-69731499D03*
%TD*%
D14*
%TO.C,C95*%
X108532000Y-66387000D03*
X108532000Y-64487000D03*
%TD*%
D15*
%TO.C,R47*%
X106500000Y-71556500D03*
X106500000Y-69731500D03*
%TD*%
D14*
%TO.C,C173*%
X204544000Y-69815999D03*
X204544000Y-67915999D03*
%TD*%
D15*
%TO.C,R22*%
X158062000Y-33710500D03*
X158062000Y-31885500D03*
%TD*%
D13*
%TO.C,C213*%
X105738000Y-35289000D03*
X105738000Y-32339000D03*
%TD*%
D11*
%TO.C,C72*%
X118819000Y-94078000D03*
X118819000Y-95978000D03*
%TD*%
%TO.C,C14*%
X177112000Y-42770000D03*
X177112000Y-44670000D03*
%TD*%
D14*
%TO.C,C41*%
X156030000Y-42892000D03*
X156030000Y-40992000D03*
%TD*%
D18*
%TO.C,R23*%
X170254000Y-31885500D03*
X170254000Y-33710500D03*
%TD*%
D12*
%TO.C,R30*%
X131415500Y-62516000D03*
X129590500Y-62516000D03*
%TD*%
D16*
%TO.C,C58*%
X99975000Y-93934000D03*
X99975000Y-96884000D03*
%TD*%
D14*
%TO.C,C100*%
X180668000Y-66386999D03*
X180668000Y-64486999D03*
%TD*%
D16*
%TO.C,C62*%
X124105000Y-93934000D03*
X124105000Y-96884000D03*
%TD*%
D18*
%TO.C,R17*%
X172000000Y-39505500D03*
X172000000Y-41330500D03*
%TD*%
D15*
%TO.C,R54*%
X182700000Y-66349499D03*
X182700000Y-64524499D03*
%TD*%
D11*
%TO.C,C103*%
X204925000Y-94078000D03*
X204925000Y-95978000D03*
%TD*%
D22*
%TO.C,C142*%
X155329000Y-60483999D03*
X153429000Y-60483999D03*
%TD*%
D14*
%TO.C,C122*%
X132662000Y-69816000D03*
X132662000Y-67916000D03*
%TD*%
D18*
%TO.C,R15*%
X170000000Y-39505500D03*
X170000000Y-41330500D03*
%TD*%
D11*
%TO.C,C155*%
X178636000Y-73249999D03*
X178636000Y-75149999D03*
%TD*%
D15*
%TO.C,R53*%
X158570000Y-66349499D03*
X158570000Y-64524499D03*
%TD*%
%TO.C,R43*%
X128598000Y-71556500D03*
X128598000Y-69731500D03*
%TD*%
%TO.C,R56*%
X147902000Y-42854500D03*
X147902000Y-41029500D03*
%TD*%
D11*
%TO.C,C60*%
X96721000Y-94078000D03*
X96721000Y-95978000D03*
%TD*%
D19*
%TO.C,Q1*%
X177033500Y-37050000D03*
X177033500Y-35150000D03*
X175158500Y-36100000D03*
%TD*%
D11*
%TO.C,C79*%
X202893000Y-94078000D03*
X202893000Y-95978000D03*
%TD*%
D15*
%TO.C,R13*%
X104468000Y-71556500D03*
X104468000Y-69731500D03*
%TD*%
%TO.C,R39*%
X128598000Y-75112500D03*
X128598000Y-73287500D03*
%TD*%
D14*
%TO.C,C114*%
X129487000Y-81119001D03*
X129487000Y-79219001D03*
%TD*%
%TO.C,C32*%
X168222000Y-33748000D03*
X168222000Y-31848000D03*
%TD*%
D18*
%TO.C,R4*%
X143965000Y-31250500D03*
X143965000Y-33075500D03*
%TD*%
%TO.C,R19*%
X172032000Y-35949500D03*
X172032000Y-37774500D03*
%TD*%
D24*
X74750000Y-125000000D02*
X74750000Y-73850000D01*
X74750000Y-53550000D02*
X74750000Y-47850000D01*
X74750000Y-125000000D02*
X219350000Y-125000000D01*
X74750000Y-27550000D02*
X74750000Y-25250000D01*
X74750000Y-25250000D02*
X219350000Y-25250000D01*
X219350000Y-125000000D02*
X219350000Y-25250000D01*
%TO.C,J2*%
X66350000Y-54050000D02*
X66350000Y-64250000D01*
X66350000Y-67150000D02*
X66350000Y-73350000D01*
X66850000Y-53550000D02*
X66350000Y-54050000D01*
X66850000Y-64750000D02*
X66350000Y-64250000D01*
X66850000Y-66650000D02*
X66350000Y-67150000D01*
X66850000Y-73850000D02*
X66350000Y-73350000D01*
X73800000Y-64750000D02*
X66850000Y-64750000D01*
X73800000Y-66650000D02*
X66850000Y-66650000D01*
X74750000Y-53550000D02*
X66850000Y-53550000D01*
X74750000Y-73850000D02*
X66850000Y-73850000D01*
X73800000Y-64750000D02*
G75*
G02*
X73800000Y-66650000I0J-950000D01*
G01*
%TO.C,J1*%
X66350000Y-28050000D02*
X66350000Y-38250000D01*
X66350000Y-41150000D02*
X66350000Y-47350000D01*
X66850000Y-27550000D02*
X66350000Y-28050000D01*
X66850000Y-38750000D02*
X66350000Y-38250000D01*
X66850000Y-40650000D02*
X66350000Y-41150000D01*
X66850000Y-47850000D02*
X66350000Y-47350000D01*
X73800000Y-38750000D02*
X66850000Y-38750000D01*
X73800000Y-40650000D02*
X66850000Y-40650000D01*
X74750000Y-27550000D02*
X66850000Y-27550000D01*
X74750000Y-47850000D02*
X66850000Y-47850000D01*
X73800000Y-38750000D02*
G75*
G02*
X73800000Y-40650000I0J-950000D01*
G01*
%TD*%
M02*
