M48
; DRILL file {KiCad 8.0.6} date 2024-11-29T00:05:58+0100
; FORMAT={-:-/ absolute / inch / decimal}
; #@! TF.CreationDate,2024-11-29T00:05:58+01:00
; #@! TF.GenerationSoftware,Kicad,Pcbnew,8.0.6
; #@! TF.FileFunction,Plated,1,6,PTH
FMAT,2
INCH
; #@! TA.AperFunction,Plated,PTH,ViaDrill
T1C0.0118
; #@! TA.AperFunction,Plated,PTH,ComponentDrill
T2C0.0118
; #@! TA.AperFunction,Plated,PTH,ViaDrill
T3C0.0157
; #@! TA.AperFunction,Plated,PTH,ComponentDrill
T4C0.0197
; #@! TA.AperFunction,Plated,PTH,ComponentDrill
T5C0.0394
; #@! TA.AperFunction,Plated,PTH,ComponentDrill
T6C0.0402
; #@! TA.AperFunction,Plated,PTH,ComponentDrill
T7C0.1260
%
G90
G05
T1
X2.9885Y-2.6457
X3.0229Y-2.8179
X3.0236Y-2.9996
X3.0236Y-3.0996
X3.0236Y-3.1996
X3.0236Y-3.2996
X3.0236Y-3.7902
X3.0236Y-3.8902
X3.0329Y-2.5913
X3.0529Y-2.7913
X3.0679Y-4.0513
X3.0679Y-4.2013
X3.0829Y-2.9013
X3.1129Y-2.7244
X3.1129Y-2.8713
X3.1429Y-4.0513
X3.1429Y-4.2013
X3.1529Y-2.6913
X3.1779Y-2.8739
X3.1829Y-2.7659
X3.2129Y-2.5913
X3.2129Y-2.7113
X3.2129Y-2.8113
X3.2529Y-2.7413
X3.2529Y-2.8113
X3.2683Y-3.8902
X3.2756Y-2.9996
X3.2756Y-3.0996
X3.2756Y-3.1996
X3.2756Y-3.2996
X3.2756Y-3.5902
X3.2756Y-3.6902
X3.2756Y-3.7902
X3.2929Y-2.5913
X3.3353Y-2.7813
X3.4429Y-2.6413
X3.5129Y-2.6713
X3.5129Y-2.8763
X3.5229Y-2.7813
X3.5429Y-2.6913
X3.5529Y-2.7413
X3.6279Y-2.9613
X3.6279Y-3.0113
X3.6779Y-2.9613
X3.6779Y-3.0113
X3.7379Y-3.3113
X3.7379Y-3.3613
X3.7379Y-3.6113
X3.7379Y-3.6613
X3.7879Y-3.3113
X3.7879Y-3.3613
X3.7879Y-3.6113
X3.7879Y-3.6613
X3.8079Y-2.9613
X3.8079Y-3.0113
X3.8379Y-3.6117
X3.8379Y-3.2113
X3.8379Y-3.2613
X3.8379Y-3.3113
X3.8379Y-3.3613
X3.8379Y-3.6613
X3.8579Y-2.9613
X3.8579Y-3.0113
X3.8879Y-3.6117
X3.8879Y-3.2113
X3.8879Y-3.2613
X3.8879Y-3.3113
X3.8879Y-3.3613
X3.8879Y-3.6613
X3.9879Y-3.3113
X3.9879Y-3.3613
X3.9879Y-3.6113
X3.9879Y-3.6613
X4.0379Y-3.3113
X4.0379Y-3.3613
X4.0379Y-3.6113
X4.0379Y-3.6613
X4.1129Y-2.9277
X4.1179Y-2.3863
X4.1179Y-2.4613
X4.1279Y-3.6117
X4.1279Y-3.2113
X4.1279Y-3.2613
X4.1279Y-3.3113
X4.1279Y-3.3613
X4.1279Y-3.6613
X4.1329Y-2.8313
X4.1529Y-2.8853
X4.1679Y-2.9613
X4.1679Y-3.0113
X4.1779Y-3.6117
X4.1779Y-3.2113
X4.1779Y-3.2613
X4.1779Y-3.3113
X4.1779Y-3.3613
X4.1779Y-3.6613
X4.1929Y-2.5713
X4.1929Y-2.6889
X4.1929Y-2.7513
X4.1929Y-2.8172
X4.2172Y-2.527
X4.2179Y-2.9613
X4.2179Y-3.0113
X4.2229Y-3.3113
X4.2229Y-3.3613
X4.2229Y-3.6113
X4.2229Y-3.6613
X4.2513Y-2.5496
X4.2729Y-2.6463
X4.2729Y-3.3113
X4.2729Y-3.3613
X4.2729Y-3.6113
X4.2729Y-3.6613
X4.3479Y-2.9613
X4.3479Y-3.0113
X4.3979Y-2.9613
X4.3979Y-3.0113
X4.402Y-2.6122
X4.5779Y-2.9613
X4.5779Y-3.0113
X4.6279Y-2.9613
X4.6279Y-3.0113
X4.6879Y-3.3113
X4.6879Y-3.3613
X4.6879Y-3.6113
X4.6879Y-3.6613
X4.7379Y-3.3113
X4.7379Y-3.3613
X4.7379Y-3.6113
X4.7379Y-3.6613
X4.7579Y-2.9613
X4.7579Y-3.0113
X4.7879Y-3.6117
X4.7879Y-3.2113
X4.7879Y-3.2613
X4.7879Y-3.3113
X4.7879Y-3.3613
X4.7879Y-3.6613
X4.8079Y-2.9613
X4.8079Y-3.0113
X4.8379Y-3.6117
X4.8379Y-3.2113
X4.8379Y-3.2613
X4.8379Y-3.3113
X4.8379Y-3.3613
X4.8379Y-3.6613
X4.9379Y-3.3113
X4.9379Y-3.3613
X4.9379Y-3.6113
X4.9379Y-3.6613
X4.9879Y-3.3113
X4.9879Y-3.3613
X4.9879Y-3.6113
X4.9879Y-3.6613
X5.0629Y-2.9277
X5.0679Y-2.3863
X5.0679Y-2.4613
X5.0779Y-3.6117
X5.0779Y-3.2113
X5.0779Y-3.2613
X5.0779Y-3.3113
X5.0779Y-3.3613
X5.0779Y-3.6613
X5.0829Y-2.8313
X5.1029Y-2.8853
X5.1179Y-2.9613
X5.1179Y-3.0113
X5.1279Y-3.6117
X5.1279Y-3.2113
X5.1279Y-3.2613
X5.1279Y-3.3113
X5.1279Y-3.3613
X5.1279Y-3.6613
X5.1429Y-2.5713
X5.1429Y-2.6889
X5.1429Y-2.7513
X5.1429Y-2.8172
X5.1672Y-2.527
X5.1679Y-2.9613
X5.1679Y-3.0113
X5.1729Y-3.3113
X5.1729Y-3.3613
X5.1729Y-3.6113
X5.1729Y-3.6613
X5.2013Y-2.5496
X5.2229Y-2.6463
X5.2229Y-3.3113
X5.2229Y-3.3613
X5.2229Y-3.6113
X5.2229Y-3.6613
X5.2329Y-1.1013
X5.2979Y-2.9613
X5.2979Y-3.0113
X5.3329Y-1.0713
X5.3479Y-2.9613
X5.3479Y-3.0113
X5.352Y-2.6113
X5.5179Y-2.9613
X5.5179Y-3.0113
X5.5679Y-2.9613
X5.5679Y-3.0113
X5.5979Y-1.3013
X5.6279Y-3.3113
X5.6279Y-3.3613
X5.6279Y-3.6113
X5.6279Y-3.6613
X5.6629Y-1.1813
X5.6779Y-3.3113
X5.6779Y-3.3613
X5.6779Y-3.6113
X5.6779Y-3.6613
X5.6979Y-2.9613
X5.6979Y-3.0113
X5.7129Y-1.3022
X5.7279Y-3.6117
X5.7279Y-3.2113
X5.7279Y-3.2613
X5.7279Y-3.3113
X5.7279Y-3.3613
X5.7279Y-3.6613
X5.7379Y-2.6013
X5.7429Y-1.0713
X5.7429Y-1.5737
X5.7479Y-2.9613
X5.7479Y-3.0113
X5.7779Y-3.6117
X5.7779Y-3.2113
X5.7779Y-3.2613
X5.7779Y-3.3113
X5.7779Y-3.3613
X5.7779Y-3.6613
X5.7929Y-1.3022
X5.8229Y-1.1013
X5.8229Y-1.4337
X5.8229Y-1.7313
X5.8779Y-3.3113
X5.8779Y-3.3613
X5.8779Y-3.6113
X5.8779Y-3.6613
X5.9029Y-1.5737
X5.9279Y-3.3113
X5.9279Y-3.3613
X5.9279Y-3.6113
X5.9279Y-3.6613
X5.9829Y-1.5737
X6.0029Y-2.9277
X6.0079Y-2.3863
X6.0079Y-2.4613
X6.0179Y-3.6117
X6.0179Y-3.2113
X6.0179Y-3.2613
X6.0179Y-3.3113
X6.0179Y-3.3613
X6.0179Y-3.6613
X6.0229Y-2.8313
X6.0429Y-2.8853
X6.0579Y-2.9613
X6.0579Y-3.0113
X6.0629Y-1.2187
X6.0629Y-1.3813
X6.0629Y-1.5737
X6.0679Y-3.6117
X6.0679Y-3.2113
X6.0679Y-3.2613
X6.0679Y-3.3113
X6.0679Y-3.3613
X6.0679Y-3.6613
X6.0829Y-2.5713
X6.0829Y-2.6889
X6.0829Y-2.7513
X6.0829Y-2.8172
X6.1029Y-1.7913
X6.1072Y-2.527
X6.1079Y-2.9613
X6.1079Y-3.0113
X6.1129Y-3.3113
X6.1129Y-3.3613
X6.1129Y-3.6113
X6.1129Y-3.6613
X6.1413Y-2.5496
X6.1429Y-1.2187
X6.1429Y-1.5737
X6.1629Y-2.6463
X6.1629Y-3.3113
X6.1629Y-3.3613
X6.1629Y-3.6113
X6.1629Y-3.6613
X6.2013Y-1.756
X6.2029Y-1.4413
X6.2029Y-1.5363
X6.2029Y-1.6413
X6.2029Y-1.6913
X6.2033Y-1.5687
X6.2229Y-1.2187
X6.2229Y-1.7213
X6.2326Y-1.6209
X6.2329Y-1.5934
X6.2379Y-2.9613
X6.2379Y-3.0113
X6.2529Y-1.4413
X6.2829Y-1.4413
X6.2879Y-2.9613
X6.2879Y-3.0113
X6.2946Y-2.6118
X6.3029Y-1.2187
X6.3129Y-1.3913
X6.3129Y-1.7613
X6.3329Y-1.3613
X6.3393Y-1.8026
X6.3829Y-1.2187
X6.3829Y-1.3713
X6.3929Y-1.0313
X6.3931Y-1.8013
X6.4229Y-1.1913
X6.4429Y-1.7713
X6.4629Y-1.2187
X6.4629Y-1.3613
X6.4629Y-1.4213
X6.4679Y-2.9613
X6.4679Y-3.0113
X6.4829Y-1.3913
X6.5029Y-1.1413
X6.5029Y-1.7613
X6.5179Y-2.9613
X6.5179Y-3.0113
X6.5429Y-1.2187
X6.5429Y-1.4613
X6.5613Y-1.4913
X6.5779Y-3.3113
X6.5779Y-3.3613
X6.5779Y-3.6113
X6.5779Y-3.6613
X6.5829Y-1.1013
X6.5829Y-1.5313
X6.6129Y-1.3787
X6.6229Y-1.1413
X6.6229Y-1.2187
X6.6279Y-3.3113
X6.6279Y-3.3613
X6.6279Y-3.6113
X6.6279Y-3.6613
X6.6379Y-1.5313
X6.6379Y-1.5813
X6.6479Y-2.9613
X6.6479Y-3.0113
X6.6779Y-3.6117
X6.6779Y-3.2113
X6.6779Y-3.2613
X6.6779Y-3.3113
X6.6779Y-3.3613
X6.6779Y-3.6613
X6.6929Y-1.3787
X6.6979Y-2.9613
X6.6979Y-3.0113
X6.7029Y-1.1513
X6.7029Y-1.2213
X6.7279Y-3.6117
X6.7279Y-3.2113
X6.7279Y-3.2613
X6.7279Y-3.3113
X6.7279Y-3.3613
X6.7279Y-3.6613
X6.7329Y-1.5553
X6.7429Y-1.0713
X6.7729Y-1.3787
X6.8279Y-3.3113
X6.8279Y-3.3613
X6.8279Y-3.6113
X6.8279Y-3.6613
X6.8779Y-3.3113
X6.8779Y-3.3613
X6.8779Y-3.6113
X6.8779Y-3.6613
X6.9153Y-1.5513
X6.9153Y-1.7513
X6.9329Y-1.6213
X6.9329Y-1.6813
X6.9529Y-2.9277
X6.9579Y-2.3863
X6.9579Y-2.4613
X6.9679Y-3.6117
X6.9679Y-3.2113
X6.9679Y-3.2613
X6.9679Y-3.3113
X6.9679Y-3.3613
X6.9679Y-3.6613
X6.9729Y-2.8313
X6.9929Y-2.8853
X7.0079Y-2.9613
X7.0079Y-3.0113
X7.0105Y-1.2413
X7.0105Y-1.3213
X7.0105Y-1.3813
X7.0105Y-1.4613
X7.0179Y-3.6117
X7.0179Y-3.2113
X7.0179Y-3.2613
X7.0179Y-3.3113
X7.0179Y-3.3613
X7.0179Y-3.6613
X7.0329Y-2.5713
X7.0329Y-2.6889
X7.0329Y-2.7513
X7.0329Y-2.8172
X7.0429Y-1.6213
X7.0429Y-1.6813
X7.0572Y-2.527
X7.0579Y-2.9613
X7.0579Y-3.0113
X7.0629Y-3.3113
X7.0629Y-3.3613
X7.0629Y-3.6113
X7.0629Y-3.6613
X7.0913Y-2.5496
X7.1129Y-2.6463
X7.1129Y-3.3113
X7.1129Y-3.3613
X7.1129Y-3.6113
X7.1129Y-3.6613
X7.1879Y-2.9613
X7.1879Y-3.0113
X7.1951Y-1.1534
X7.2379Y-2.9613
X7.2379Y-3.0113
X7.242Y-2.6113
X7.2929Y-1.5813
X7.4079Y-2.9613
X7.4079Y-3.0113
X7.4579Y-2.9613
X7.4579Y-3.0113
X7.5129Y-3.3113
X7.5129Y-3.3613
X7.5129Y-3.6113
X7.5129Y-3.6613
X7.5629Y-3.3113
X7.5629Y-3.3613
X7.5629Y-3.6113
X7.5629Y-3.6613
X7.5879Y-2.9613
X7.5879Y-3.0113
X7.6129Y-3.6117
X7.6129Y-3.2113
X7.6129Y-3.2613
X7.6129Y-3.3113
X7.6129Y-3.3613
X7.6129Y-3.6613
X7.6379Y-2.9613
X7.6379Y-3.0113
X7.6407Y-1.1534
X7.6629Y-3.6117
X7.6629Y-3.2113
X7.6629Y-3.2613
X7.6629Y-3.3113
X7.6629Y-3.3613
X7.6629Y-3.6613
X7.7429Y-1.5813
X7.7629Y-3.3113
X7.7629Y-3.3613
X7.7629Y-3.6113
X7.7629Y-3.6613
X7.8129Y-3.3113
X7.8129Y-3.3613
X7.8129Y-3.6113
X7.8129Y-3.6613
X7.8929Y-2.9277
X7.8979Y-2.3863
X7.8979Y-2.4613
X7.9029Y-3.6117
X7.9029Y-3.2113
X7.9029Y-3.2613
X7.9029Y-3.3113
X7.9029Y-3.3613
X7.9029Y-3.6613
X7.9129Y-2.8313
X7.9329Y-2.8853
X7.9479Y-2.9613
X7.9479Y-3.0113
X7.9529Y-3.6117
X7.9529Y-3.2113
X7.9529Y-3.2613
X7.9529Y-3.3113
X7.9529Y-3.3613
X7.9529Y-3.6613
X7.9729Y-2.5713
X7.9729Y-2.6889
X7.9729Y-2.7513
X7.9729Y-2.8172
X7.9929Y-1.1613
X7.9972Y-2.527
X7.9979Y-2.9613
X7.9979Y-3.0113
X7.9979Y-3.3113
X7.9979Y-3.3613
X7.9979Y-3.6113
X7.9979Y-3.6613
X8.0129Y-1.5113
X8.0129Y-1.5613
X8.0129Y-1.6113
X8.0313Y-2.5496
X8.0479Y-3.3113
X8.0479Y-3.3613
X8.0479Y-3.6113
X8.0479Y-3.6613
X8.0529Y-1.0713
X8.0529Y-2.6463
X8.0754Y-1.6513
X8.1004Y-1.8713
X8.1254Y-1.8213
X8.1279Y-2.9613
X8.1279Y-3.0113
X8.1405Y-1.3537
X8.1779Y-2.9613
X8.1779Y-3.0113
X8.182Y-2.6113
X8.2555Y-1.4063
X8.2829Y-1.6063
X8.3173Y-1.8713
X8.3429Y-1.2113
X8.3529Y-2.2213
X8.3552Y-1.5158
X8.3552Y-1.6058
X8.3573Y-1.767
X8.3573Y-1.9789
X8.3929Y-1.375
X8.3929Y-2.2213
X8.4329Y-2.0466
X8.4329Y-2.0859
X8.4329Y-2.1863
X8.4629Y-2.2213
X8.4929Y-2.0466
X8.4929Y-2.0859
X8.4929Y-2.1863
X8.5229Y-2.2213
X8.5279Y-1.375
T2
X3.4329Y-2.7137
X3.4329Y-2.7688
X3.9584Y-2.6813
X4.0029Y-2.6261
X4.0029Y-2.6813
X4.0029Y-2.7364
X4.0549Y-2.6261
X4.0549Y-2.6813
X4.0549Y-2.7364
X4.1069Y-2.6261
X4.1069Y-2.6813
X4.1069Y-2.7364
X4.1513Y-2.6813
X4.9084Y-2.6813
X4.9529Y-2.6261
X4.9529Y-2.6813
X4.9529Y-2.7364
X5.0049Y-2.6261
X5.0049Y-2.6813
X5.0049Y-2.7364
X5.0569Y-2.6261
X5.0569Y-2.6813
X5.0569Y-2.7364
X5.1013Y-2.6813
X5.8484Y-2.6813
X5.8929Y-2.6261
X5.8929Y-2.6813
X5.8929Y-2.7364
X5.9449Y-2.6261
X5.9449Y-2.6813
X5.9449Y-2.7364
X5.9969Y-2.6261
X5.9969Y-2.6813
X5.9969Y-2.7364
X6.0413Y-2.6813
X6.3311Y-1.5543
X6.3311Y-1.6082
X6.3759Y-1.5094
X6.3759Y-1.5543
X6.3759Y-1.6082
X6.3759Y-1.6531
X6.4299Y-1.5094
X6.4299Y-1.5543
X6.4299Y-1.6082
X6.4299Y-1.6531
X6.4748Y-1.5543
X6.4748Y-1.6082
X6.7984Y-2.6813
X6.8429Y-2.6261
X6.8429Y-2.6813
X6.8429Y-2.7364
X6.8949Y-2.6261
X6.8949Y-2.6813
X6.8949Y-2.7364
X6.9469Y-2.6261
X6.9469Y-2.6813
X6.9469Y-2.7364
X6.9913Y-2.6813
X7.7384Y-2.6813
X7.7829Y-2.6261
X7.7829Y-2.6813
X7.7829Y-2.7364
X7.8349Y-2.6261
X7.8349Y-2.6813
X7.8349Y-2.7364
X7.8869Y-2.6261
X7.8869Y-2.6813
X7.8869Y-2.7364
X7.9313Y-2.6813
T3
X2.8879Y-1.1513
X2.8879Y-1.2513
X2.8879Y-1.3513
X2.8879Y-1.4513
X2.8879Y-1.6913
X2.8879Y-1.7913
X2.8879Y-2.1963
X2.8879Y-2.2963
X2.8879Y-2.3963
X2.8879Y-2.4963
X2.9429Y-1.2013
X2.9429Y-1.3013
X2.9429Y-1.4013
X2.9429Y-1.5013
X2.9429Y-1.6413
X2.9429Y-1.7413
X2.9429Y-2.1463
X2.9429Y-2.2463
X2.9429Y-2.3463
X2.9429Y-2.4463
X2.9929Y-1.9413
X2.9929Y-2.0413
X3.0229Y-3.4513
X3.0729Y-1.0463
X3.1979Y-4.0213
X3.1979Y-4.2713
X3.1979Y-4.5213
X3.1979Y-4.7713
X3.2329Y-1.2613
X3.2329Y-1.3113
X3.2329Y-1.8063
X3.2329Y-1.8563
X3.2329Y-1.9063
X3.2329Y-1.9563
X3.2329Y-2.0063
X3.2329Y-2.0563
X3.2329Y-2.1063
X3.2329Y-2.1563
X3.2329Y-2.2063
X3.2329Y-2.2563
X3.2329Y-2.3063
X3.2829Y-1.2613
X3.2829Y-1.3113
X3.2829Y-1.8063
X3.2829Y-1.8563
X3.2829Y-1.9063
X3.2829Y-1.9563
X3.2829Y-2.0063
X3.2829Y-2.0563
X3.2829Y-2.1063
X3.2829Y-2.1563
X3.2829Y-2.2063
X3.2829Y-2.2563
X3.2829Y-2.3063
X3.3179Y-1.5363
X3.3179Y-1.5863
X3.3179Y-1.6363
X3.3329Y-1.2613
X3.3329Y-1.3113
X3.4429Y-4.3213
X3.5129Y-1.2613
X3.5129Y-1.3113
X3.5179Y-1.5363
X3.5179Y-1.5863
X3.5179Y-1.6363
X3.5629Y-1.2613
X3.5629Y-1.3113
X3.6129Y-1.2613
X3.6129Y-1.3113
X3.6629Y-1.2613
X3.6629Y-1.3113
X3.6929Y-4.3213
X3.7129Y-1.2613
X3.7129Y-1.3113
X3.7229Y-2.2913
X3.7229Y-2.3413
X3.7229Y-2.3913
X3.7229Y-2.4413
X3.7229Y-2.4913
X3.7229Y-2.5413
X3.7529Y-1.5363
X3.7529Y-1.5863
X3.7529Y-1.6363
X3.7629Y-1.2613
X3.7629Y-1.3113
X3.7629Y-3.8563
X3.7629Y-3.9063
X3.7729Y-2.2913
X3.7729Y-2.3413
X3.7729Y-2.3913
X3.7729Y-2.4413
X3.7729Y-2.4913
X3.7729Y-2.5413
X3.8129Y-3.8563
X3.8129Y-3.9063
X3.8629Y-3.8563
X3.8629Y-3.9063
X3.9079Y-2.8607
X3.9079Y-2.9119
X3.9079Y-2.5913
X3.9079Y-2.7813
X3.9079Y-2.9613
X3.9129Y-3.8563
X3.9129Y-3.9063
X3.9329Y-1.2613
X3.9329Y-1.3113
X3.9329Y-2.0413
X3.9329Y-2.0913
X3.9329Y-2.1413
X3.9329Y-2.1913
X3.9329Y-2.2413
X3.9329Y-2.2913
X3.9329Y-2.3413
X3.9329Y-2.3913
X3.9329Y-2.4413
X3.9329Y-2.4913
X3.9329Y-2.5413
X3.9329Y-2.8213
X3.9429Y-4.3213
X3.9529Y-1.5363
X3.9529Y-1.5863
X3.9529Y-1.6363
X3.9629Y-3.8563
X3.9629Y-3.9063
X3.9829Y-1.2613
X3.9829Y-1.3113
X3.9829Y-2.0413
X3.9829Y-2.0913
X3.9829Y-2.1413
X3.9829Y-2.1913
X3.9829Y-2.2413
X3.9829Y-2.2913
X3.9829Y-2.3413
X3.9829Y-2.3913
X3.9829Y-2.4413
X3.9829Y-2.4913
X3.9829Y-2.5413
X3.9829Y-2.8213
X4.0129Y-3.8563
X4.0129Y-3.9063
X4.0329Y-1.2613
X4.0329Y-1.3113
X4.0329Y-2.0413
X4.0329Y-2.0913
X4.0329Y-2.1413
X4.0329Y-2.1913
X4.0329Y-2.2413
X4.0329Y-2.2913
X4.0329Y-2.3413
X4.0329Y-2.3913
X4.0329Y-2.4413
X4.0329Y-2.4913
X4.0329Y-2.5413
X4.0329Y-2.8213
X4.0629Y-3.8563
X4.0629Y-3.9063
X4.0929Y-1.8063
X4.1129Y-3.8563
X4.1129Y-3.9063
X4.1579Y-1.7813
X4.1629Y-1.3313
X4.1629Y-1.5063
X4.1629Y-1.5813
X4.1629Y-1.6563
X4.1629Y-3.8563
X4.1629Y-3.9063
X4.1929Y-4.3213
X4.2129Y-3.8563
X4.2129Y-3.9063
X4.2229Y-1.2413
X4.2229Y-1.8063
X4.2629Y-1.5063
X4.2629Y-1.5813
X4.2629Y-1.6563
X4.2629Y-3.8563
X4.2629Y-3.9063
X4.2929Y-1.3313
X4.2929Y-1.7813
X4.3629Y-1.2413
X4.3629Y-1.5063
X4.3629Y-1.5813
X4.3629Y-1.6563
X4.3629Y-1.8063
X4.4229Y-1.3313
X4.4279Y-1.7813
X4.4429Y-4.3213
X4.4629Y-1.5063
X4.4629Y-1.5813
X4.4629Y-1.6563
X4.4929Y-1.2413
X4.4934Y-1.8063
X4.5529Y-1.3313
X4.5629Y-1.5063
X4.5629Y-1.5813
X4.5629Y-1.6563
X4.5629Y-1.7863
X4.6329Y-1.8063
X4.6429Y-1.2413
X4.6629Y-1.5063
X4.6629Y-1.5813
X4.6629Y-1.6563
X4.6729Y-1.8063
X4.6729Y-2.2913
X4.6729Y-2.3413
X4.6729Y-2.3913
X4.6729Y-2.4413
X4.6729Y-2.4913
X4.6729Y-2.5413
X4.6929Y-4.3213
X4.7079Y-3.8563
X4.7079Y-3.9063
X4.7229Y-2.2913
X4.7229Y-2.3413
X4.7229Y-2.3913
X4.7229Y-2.4413
X4.7229Y-2.4913
X4.7229Y-2.5413
X4.7429Y-1.3313
X4.7429Y-1.7813
X4.7579Y-3.8563
X4.7579Y-3.9063
X4.7629Y-1.5063
X4.7629Y-1.5813
X4.7629Y-1.6563
X4.8029Y-1.2413
X4.8079Y-1.8063
X4.8079Y-3.8563
X4.8079Y-3.9063
X4.8576Y-2.5917
X4.8579Y-3.8563
X4.8579Y-3.9063
X4.8629Y-1.5063
X4.8629Y-1.5813
X4.8629Y-1.6563
X4.8629Y-2.7813
X4.8629Y-2.8607
X4.8629Y-2.9119
X4.8629Y-2.9613
X4.8729Y-1.3313
X4.8729Y-1.7813
X4.8829Y-2.0413
X4.8829Y-2.0913
X4.8829Y-2.1413
X4.8829Y-2.1913
X4.8829Y-2.2413
X4.8829Y-2.2913
X4.8829Y-2.3413
X4.8829Y-2.3913
X4.8829Y-2.4413
X4.8829Y-2.4913
X4.8829Y-2.5413
X4.8879Y-2.8213
X4.9079Y-3.8563
X4.9079Y-3.9063
X4.9329Y-2.0413
X4.9329Y-2.0913
X4.9329Y-2.1413
X4.9329Y-2.1913
X4.9329Y-2.2413
X4.9329Y-2.2913
X4.9329Y-2.3413
X4.9329Y-2.3913
X4.9329Y-2.4413
X4.9329Y-2.4913
X4.9329Y-2.5413
X4.9379Y-1.8063
X4.9379Y-2.8213
X4.9429Y-1.2413
X4.9429Y-4.3213
X4.9579Y-3.8563
X4.9579Y-3.9063
X4.9629Y-1.5063
X4.9629Y-1.5813
X4.9629Y-1.6563
X4.9829Y-2.0413
X4.9829Y-2.0913
X4.9829Y-2.1413
X4.9829Y-2.1913
X4.9829Y-2.2413
X4.9829Y-2.2913
X4.9829Y-2.3413
X4.9829Y-2.3913
X4.9829Y-2.4413
X4.9829Y-2.4913
X4.9829Y-2.5413
X4.9879Y-2.8213
X5.0029Y-1.3313
X5.0029Y-1.7813
X5.0079Y-3.8563
X5.0079Y-3.9063
X5.0579Y-3.8563
X5.0579Y-3.9063
X5.0629Y-1.5063
X5.0629Y-1.5813
X5.0629Y-1.6563
X5.0729Y-1.2413
X5.1079Y-3.8563
X5.1079Y-3.9063
X5.1579Y-3.8563
X5.1579Y-3.9063
X5.1629Y-1.5063
X5.1629Y-1.5813
X5.1629Y-1.6563
X5.1929Y-4.3213
X5.2079Y-3.8563
X5.2079Y-3.9063
X5.2629Y-1.5063
X5.2629Y-1.5813
X5.2629Y-1.6563
X5.3629Y-1.5063
X5.3629Y-1.5813
X5.3629Y-1.6563
X5.4429Y-4.3213
X5.4629Y-1.5063
X5.4629Y-1.5813
X5.4629Y-1.6563
X5.5629Y-1.5063
X5.5629Y-1.5813
X5.5629Y-1.6563
X5.6129Y-2.2913
X5.6129Y-2.3413
X5.6129Y-2.3913
X5.6129Y-2.4413
X5.6129Y-2.4913
X5.6129Y-2.5413
X5.6529Y-3.8563
X5.6529Y-3.9063
X5.6629Y-2.2913
X5.6629Y-2.3413
X5.6629Y-2.3913
X5.6629Y-2.4413
X5.6629Y-2.4913
X5.6629Y-2.5413
X5.6929Y-4.3213
X5.7029Y-3.8563
X5.7029Y-3.9063
X5.7529Y-3.8563
X5.7529Y-3.9063
X5.7976Y-2.5917
X5.8029Y-2.8607
X5.8029Y-2.7813
X5.8029Y-2.9123
X5.8029Y-2.9613
X5.8029Y-3.8563
X5.8029Y-3.9063
X5.8229Y-2.0413
X5.8229Y-2.0913
X5.8229Y-2.1413
X5.8229Y-2.1913
X5.8229Y-2.2413
X5.8229Y-2.2913
X5.8229Y-2.3413
X5.8229Y-2.3913
X5.8229Y-2.4413
X5.8229Y-2.4913
X5.8229Y-2.5413
X5.8279Y-2.8213
X5.8529Y-3.8563
X5.8529Y-3.9063
X5.8729Y-2.0413
X5.8729Y-2.0913
X5.8729Y-2.1413
X5.8729Y-2.1913
X5.8729Y-2.2413
X5.8729Y-2.2913
X5.8729Y-2.3413
X5.8729Y-2.3913
X5.8729Y-2.4413
X5.8729Y-2.4913
X5.8729Y-2.5413
X5.8779Y-2.8213
X5.9029Y-3.8563
X5.9029Y-3.9063
X5.9229Y-2.0413
X5.9229Y-2.0913
X5.9229Y-2.1413
X5.9229Y-2.1913
X5.9229Y-2.2413
X5.9229Y-2.2913
X5.9229Y-2.3413
X5.9229Y-2.3913
X5.9229Y-2.4413
X5.9229Y-2.4913
X5.9229Y-2.5413
X5.9279Y-2.8213
X5.9429Y-4.3213
X5.9529Y-3.8563
X5.9529Y-3.9063
X6.0029Y-3.8563
X6.0029Y-3.9063
X6.0529Y-3.8563
X6.0529Y-3.9063
X6.1029Y-3.8563
X6.1029Y-3.9063
X6.1529Y-3.8563
X6.1529Y-3.9063
X6.1929Y-4.3213
X6.4429Y-4.3213
X6.5629Y-2.2913
X6.5629Y-2.3413
X6.5629Y-2.3913
X6.5629Y-2.4413
X6.5629Y-2.4913
X6.5629Y-2.5413
X6.6029Y-3.8563
X6.6029Y-3.9063
X6.6129Y-2.2913
X6.6129Y-2.3413
X6.6129Y-2.3913
X6.6129Y-2.4413
X6.6129Y-2.4913
X6.6129Y-2.5413
X6.6529Y-3.8563
X6.6529Y-3.9063
X6.6929Y-4.3213
X6.7029Y-3.8563
X6.7029Y-3.9063
X6.7476Y-2.5917
X6.7529Y-2.7813
X6.7529Y-2.8607
X6.7529Y-2.9119
X6.7529Y-2.9613
X6.7529Y-3.8563
X6.7529Y-3.9063
X6.7729Y-2.0413
X6.7729Y-2.0913
X6.7729Y-2.1413
X6.7729Y-2.1913
X6.7729Y-2.2413
X6.7729Y-2.2913
X6.7729Y-2.3413
X6.7729Y-2.3913
X6.7729Y-2.4413
X6.7729Y-2.4913
X6.7729Y-2.5413
X6.7779Y-2.8213
X6.8029Y-3.8563
X6.8029Y-3.9063
X6.8229Y-2.0413
X6.8229Y-2.0913
X6.8229Y-2.1413
X6.8229Y-2.1913
X6.8229Y-2.2413
X6.8229Y-2.2913
X6.8229Y-2.3413
X6.8229Y-2.3913
X6.8229Y-2.4413
X6.8229Y-2.4913
X6.8229Y-2.5413
X6.8279Y-2.8213
X6.8529Y-3.8563
X6.8529Y-3.9063
X6.8729Y-2.0413
X6.8729Y-2.0913
X6.8729Y-2.1413
X6.8729Y-2.1913
X6.8729Y-2.2413
X6.8729Y-2.2913
X6.8729Y-2.3413
X6.8729Y-2.3913
X6.8729Y-2.4413
X6.8729Y-2.4913
X6.8729Y-2.5413
X6.8779Y-2.8213
X6.9029Y-3.8563
X6.9029Y-3.9063
X6.9438Y-4.322
X6.9529Y-3.8563
X6.9529Y-3.9063
X7.0029Y-3.8563
X7.0029Y-3.9063
X7.0529Y-3.8563
X7.0529Y-3.9063
X7.1029Y-3.8563
X7.1029Y-3.9063
X7.1929Y-4.3213
X7.4429Y-4.3213
X7.5029Y-2.2913
X7.5029Y-2.3413
X7.5029Y-2.3913
X7.5029Y-2.4413
X7.5029Y-2.4913
X7.5029Y-2.5413
X7.5379Y-3.8563
X7.5379Y-3.9063
X7.5529Y-2.2913
X7.5529Y-2.3413
X7.5529Y-2.3913
X7.5529Y-2.4413
X7.5529Y-2.4913
X7.5529Y-2.5413
X7.5879Y-3.8563
X7.5879Y-3.9063
X7.6379Y-3.8563
X7.6379Y-3.9063
X7.6876Y-2.5917
X7.6879Y-3.8563
X7.6879Y-3.9063
X7.6929Y-2.8607
X7.6929Y-2.9119
X7.6929Y-2.7813
X7.6929Y-2.9613
X7.6936Y-4.322
X7.7129Y-2.0413
X7.7129Y-2.0913
X7.7129Y-2.1413
X7.7129Y-2.1913
X7.7129Y-2.2413
X7.7129Y-2.2913
X7.7129Y-2.3413
X7.7129Y-2.3913
X7.7129Y-2.4413
X7.7129Y-2.4913
X7.7129Y-2.5413
X7.7179Y-2.8213
X7.7379Y-3.8563
X7.7379Y-3.9063
X7.7629Y-2.0413
X7.7629Y-2.0913
X7.7629Y-2.1413
X7.7629Y-2.1913
X7.7629Y-2.2413
X7.7629Y-2.2913
X7.7629Y-2.3413
X7.7629Y-2.3913
X7.7629Y-2.4413
X7.7629Y-2.4913
X7.7629Y-2.5413
X7.7679Y-2.8213
X7.7879Y-3.8563
X7.7879Y-3.9063
X7.8129Y-2.0413
X7.8129Y-2.0913
X7.8129Y-2.1413
X7.8129Y-2.1913
X7.8129Y-2.2413
X7.8129Y-2.2913
X7.8129Y-2.3413
X7.8129Y-2.3913
X7.8129Y-2.4413
X7.8129Y-2.4913
X7.8129Y-2.5413
X7.8179Y-2.8213
X7.8379Y-3.8563
X7.8379Y-3.9063
X7.8879Y-3.8563
X7.8879Y-3.9063
X7.9379Y-3.8563
X7.9379Y-3.9063
X7.9438Y-4.322
X7.9879Y-3.8563
X7.9879Y-3.9063
X8.0379Y-3.8563
X8.0379Y-3.9063
X8.3179Y-1.0863
X8.5429Y-4.8313
X8.5679Y-1.0863
X8.5679Y-1.3363
X8.5679Y-1.5863
X8.5679Y-1.8363
T4
X3.4488Y-2.3622
X3.4488Y-3.3071
X3.4488Y-3.5827
X3.4488Y-4.5276
X3.4765Y-2.2954
X3.4765Y-2.429
X3.4765Y-3.2403
X3.4765Y-3.3739
X3.4765Y-3.5159
X3.4765Y-3.6495
X3.4765Y-4.4607
X3.4765Y-4.5944
X3.5433Y-2.2677
X3.5433Y-2.4567
X3.5433Y-3.2126
X3.5433Y-3.4016
X3.5433Y-3.4882
X3.5433Y-3.6772
X3.5433Y-4.4331
X3.5433Y-4.622
X3.6101Y-2.2954
X3.6101Y-2.429
X3.6101Y-3.2403
X3.6101Y-3.3739
X3.6101Y-3.5159
X3.6101Y-3.6495
X3.6101Y-4.4607
X3.6101Y-4.5944
X3.6378Y-2.3622
X3.6378Y-3.3071
X3.6378Y-3.5827
X3.6378Y-4.5276
X4.3937Y-2.3622
X4.3937Y-3.3071
X4.3937Y-3.5827
X4.3937Y-4.5276
X4.4214Y-2.2954
X4.4214Y-2.429
X4.4214Y-3.2403
X4.4214Y-3.3739
X4.4214Y-3.5159
X4.4214Y-3.6495
X4.4214Y-4.4607
X4.4214Y-4.5944
X4.4882Y-2.2677
X4.4882Y-2.4567
X4.4882Y-3.2126
X4.4882Y-3.4016
X4.4882Y-3.4882
X4.4882Y-3.6772
X4.4882Y-4.4331
X4.4882Y-4.622
X4.555Y-2.2954
X4.555Y-2.429
X4.555Y-3.2403
X4.555Y-3.3739
X4.555Y-3.5159
X4.555Y-3.6495
X4.555Y-4.4607
X4.555Y-4.5944
X4.5827Y-2.3622
X4.5827Y-3.3071
X4.5827Y-3.5827
X4.5827Y-4.5276
X5.3386Y-2.3622
X5.3386Y-3.3071
X5.3386Y-3.5827
X5.3386Y-4.5276
X5.3663Y-2.2954
X5.3663Y-2.429
X5.3663Y-3.2403
X5.3663Y-3.3739
X5.3663Y-3.5159
X5.3663Y-3.6495
X5.3663Y-4.4607
X5.3663Y-4.5944
X5.4331Y-2.2677
X5.4331Y-2.4567
X5.4331Y-3.2126
X5.4331Y-3.4016
X5.4331Y-3.4882
X5.4331Y-3.6772
X5.4331Y-4.4331
X5.4331Y-4.622
X5.4999Y-2.2954
X5.4999Y-2.429
X5.4999Y-3.2403
X5.4999Y-3.3739
X5.4999Y-3.5159
X5.4999Y-3.6495
X5.4999Y-4.4607
X5.4999Y-4.5944
X5.5276Y-2.3622
X5.5276Y-3.3071
X5.5276Y-3.5827
X5.5276Y-4.5276
X6.2835Y-2.3622
X6.2835Y-3.3071
X6.2835Y-3.5827
X6.2835Y-4.5276
X6.3111Y-2.2954
X6.3111Y-2.429
X6.3111Y-3.2403
X6.3111Y-3.3739
X6.3111Y-3.5159
X6.3111Y-3.6495
X6.3111Y-4.4607
X6.3111Y-4.5944
X6.378Y-2.2677
X6.378Y-2.4567
X6.378Y-3.2126
X6.378Y-3.4016
X6.378Y-3.4882
X6.378Y-3.6772
X6.378Y-4.4331
X6.378Y-4.622
X6.4448Y-2.2954
X6.4448Y-2.429
X6.4448Y-3.2403
X6.4448Y-3.3739
X6.4448Y-3.5159
X6.4448Y-3.6495
X6.4448Y-4.4607
X6.4448Y-4.5944
X6.4724Y-2.3622
X6.4724Y-3.3071
X6.4724Y-3.5827
X6.4724Y-4.5276
X7.2283Y-2.3622
X7.2283Y-3.3071
X7.2283Y-3.5827
X7.2283Y-4.5276
X7.256Y-2.2954
X7.256Y-2.429
X7.256Y-3.2403
X7.256Y-3.3739
X7.256Y-3.5159
X7.256Y-3.6495
X7.256Y-4.4607
X7.256Y-4.5944
X7.3228Y-2.2677
X7.3228Y-2.4567
X7.3228Y-3.2126
X7.3228Y-3.4016
X7.3228Y-3.4882
X7.3228Y-3.6772
X7.3228Y-4.4331
X7.3228Y-4.622
X7.3896Y-2.2954
X7.3896Y-2.429
X7.3896Y-3.2403
X7.3896Y-3.3739
X7.3896Y-3.5159
X7.3896Y-3.6495
X7.3896Y-4.4607
X7.3896Y-4.5944
X7.4173Y-2.3622
X7.4173Y-3.3071
X7.4173Y-3.5827
X7.4173Y-4.5276
X8.1732Y-2.3622
X8.1732Y-3.3071
X8.1732Y-3.5827
X8.1732Y-4.5276
X8.2009Y-2.2954
X8.2009Y-2.429
X8.2009Y-3.2403
X8.2009Y-3.3739
X8.2009Y-3.5159
X8.2009Y-3.6495
X8.2009Y-4.4607
X8.2009Y-4.5944
X8.2677Y-2.2677
X8.2677Y-2.4567
X8.2677Y-3.2126
X8.2677Y-3.4016
X8.2677Y-3.4882
X8.2677Y-3.6772
X8.2677Y-4.4331
X8.2677Y-4.622
X8.3345Y-2.2954
X8.3345Y-2.429
X8.3345Y-3.2403
X8.3345Y-3.3739
X8.3345Y-3.5159
X8.3345Y-3.6495
X8.3345Y-4.4607
X8.3345Y-4.5944
X8.3622Y-2.3622
X8.3622Y-3.3071
X8.3622Y-3.5827
X8.3622Y-4.5276
T5
X5.2329Y-1.2713
X5.3329Y-1.2713
X5.4329Y-1.2713
T6
X7.0951Y-1.3588
X7.1951Y-1.3588
X7.2951Y-1.3588
X7.3951Y-1.3588
X7.5479Y-1.3613
X7.6479Y-1.3613
X7.7479Y-1.3613
X7.8479Y-1.3613
T7
X3.5433Y-2.3622
X3.5433Y-3.3071
X3.5433Y-3.5827
X3.5433Y-4.5276
X4.4882Y-2.3622
X4.4882Y-3.3071
X4.4882Y-3.5827
X4.4882Y-4.5276
X5.4331Y-2.3622
X5.4331Y-3.3071
X5.4331Y-3.5827
X5.4331Y-4.5276
X6.378Y-2.3622
X6.378Y-3.3071
X6.378Y-3.5827
X6.378Y-4.5276
X7.3228Y-2.3622
X7.3228Y-3.3071
X7.3228Y-3.5827
X7.3228Y-4.5276
X8.2677Y-2.3622
X8.2677Y-3.3071
X8.2677Y-3.5827
X8.2677Y-4.5276
M30
