%TF.GenerationSoftware,KiCad,Pcbnew,8.0.6*%
%TF.CreationDate,2024-12-06T19:08:15+01:00*%
%TF.ProjectId,AsicsBoard - 10xBM1370 - 01A,41736963-7342-46f6-9172-64202d203130,rev?*%
%TF.SameCoordinates,Original*%
%TF.FileFunction,Soldermask,Bot*%
%TF.FilePolarity,Negative*%
%FSLAX46Y46*%
G04 Gerber Fmt 4.6, Leading zero omitted, Abs format (unit mm)*
G04 Created by KiCad (PCBNEW 8.0.6) date 2024-12-06 19:08:15*
%MOMM*%
%LPD*%
G01*
G04 APERTURE LIST*
G04 Aperture macros list*
%AMRoundRect*
0 Rectangle with rounded corners*
0 $1 Rounding radius*
0 $2 $3 $4 $5 $6 $7 $8 $9 X,Y pos of 4 corners*
0 Add a 4 corners polygon primitive as box body*
4,1,4,$2,$3,$4,$5,$6,$7,$8,$9,$2,$3,0*
0 Add four circle primitives for the rounded corners*
1,1,$1+$1,$2,$3*
1,1,$1+$1,$4,$5*
1,1,$1+$1,$6,$7*
1,1,$1+$1,$8,$9*
0 Add four rect primitives between the rounded corners*
20,1,$1+$1,$2,$3,$4,$5,0*
20,1,$1+$1,$4,$5,$6,$7,0*
20,1,$1+$1,$6,$7,$8,$9,0*
20,1,$1+$1,$8,$9,$2,$3,0*%
G04 Aperture macros list end*
%ADD10RoundRect,0.250000X0.325000X1.100000X-0.325000X1.100000X-0.325000X-1.100000X0.325000X-1.100000X0*%
%ADD11RoundRect,0.250000X-0.325000X-1.100000X0.325000X-1.100000X0.325000X1.100000X-0.325000X1.100000X0*%
%ADD12C,3.200000*%
%ADD13RoundRect,0.250000X0.337500X0.475000X-0.337500X0.475000X-0.337500X-0.475000X0.337500X-0.475000X0*%
%ADD14RoundRect,0.250000X1.100000X-0.325000X1.100000X0.325000X-1.100000X0.325000X-1.100000X-0.325000X0*%
%ADD15C,1.000000*%
%ADD16R,3.150000X1.000000*%
%ADD17C,0.800000*%
%ADD18C,6.400000*%
%ADD19RoundRect,0.512160X-0.469840X0.069840X-0.469840X-0.069840X0.469840X-0.069840X0.469840X0.069840X0*%
%ADD20RoundRect,0.510640X-0.471360X1.221360X-0.471360X-1.221360X0.471360X-1.221360X0.471360X1.221360X0*%
%ADD21RoundRect,0.250000X-1.100000X0.325000X-1.100000X-0.325000X1.100000X-0.325000X1.100000X0.325000X0*%
%ADD22C,2.000000*%
%ADD23R,1.300000X1.100000*%
%ADD24RoundRect,0.250000X-0.475000X0.337500X-0.475000X-0.337500X0.475000X-0.337500X0.475000X0.337500X0*%
%TA.AperFunction,Profile*%
%ADD25C,0.100000*%
%TD*%
G04 APERTURE END LIST*
D10*
%TO.C,C185*%
X196275000Y-87500000D03*
X193325000Y-87500000D03*
%TD*%
D11*
%TO.C,C184*%
X179725000Y-87500000D03*
X182675000Y-87500000D03*
%TD*%
D10*
%TO.C,C183*%
X172200000Y-87500000D03*
X169250000Y-87500000D03*
%TD*%
D11*
%TO.C,C182*%
X155725000Y-87500000D03*
X158675000Y-87500000D03*
%TD*%
D10*
%TO.C,C181*%
X148275000Y-87500000D03*
X145325000Y-87500000D03*
%TD*%
D11*
%TO.C,C180*%
X131725000Y-87500000D03*
X134675000Y-87500000D03*
%TD*%
D10*
%TO.C,C179*%
X124275000Y-87500000D03*
X121325000Y-87500000D03*
%TD*%
D11*
%TO.C,C178*%
X107725000Y-87500000D03*
X110675000Y-87500000D03*
%TD*%
D10*
%TO.C,C177*%
X100275000Y-87500000D03*
X97325000Y-87500000D03*
%TD*%
D11*
%TO.C,C176*%
X83725000Y-87500000D03*
X86675000Y-87500000D03*
%TD*%
D12*
%TO.C,H6*%
X92000000Y-115000000D03*
%TD*%
%TO.C,H3*%
X188000000Y-60000000D03*
%TD*%
%TO.C,H7*%
X116000000Y-60000000D03*
%TD*%
%TO.C,H9*%
X116000000Y-115000000D03*
%TD*%
%TO.C,H5*%
X140000000Y-115000000D03*
%TD*%
%TO.C,H10*%
X164000000Y-115000000D03*
%TD*%
%TO.C,H4*%
X188000000Y-115000000D03*
%TD*%
%TO.C,H1*%
X92000000Y-60000000D03*
%TD*%
%TO.C,H8*%
X164000000Y-60000000D03*
%TD*%
%TO.C,H2*%
X140000000Y-60000000D03*
%TD*%
D13*
%TO.C,C3*%
X73149500Y-116952000D03*
X71074500Y-116952000D03*
%TD*%
D14*
%TO.C,C112*%
X188000000Y-75017000D03*
X188000000Y-72067000D03*
%TD*%
D15*
%TO.C,TP21*%
X172188000Y-72502000D03*
%TD*%
%TO.C,TP23*%
X174220000Y-70978000D03*
%TD*%
D16*
%TO.C,J1*%
X72195000Y-91232000D03*
X67145000Y-91232000D03*
X72195000Y-93772000D03*
X67145000Y-93772000D03*
X72195000Y-96312000D03*
X67145000Y-96312000D03*
X72195000Y-98852000D03*
X67145000Y-98852000D03*
%TD*%
D17*
%TO.C,H33*%
X202600000Y-91000000D03*
X201900000Y-92900000D03*
X201900000Y-89100000D03*
X200000000Y-93600000D03*
D18*
X200000000Y-91000000D03*
D17*
X200000000Y-88400000D03*
X198100000Y-92900000D03*
X198100000Y-89100000D03*
X197400000Y-91000000D03*
%TD*%
D15*
%TO.C,TP9*%
X202414000Y-73264000D03*
%TD*%
%TO.C,TP11*%
X200382000Y-73264000D03*
%TD*%
D17*
%TO.C,H11*%
X82600000Y-84000000D03*
X81900000Y-85900000D03*
X81900000Y-82100000D03*
X80000000Y-86600000D03*
D18*
X80000000Y-84000000D03*
D17*
X80000000Y-81400000D03*
X78100000Y-85900000D03*
X78100000Y-82100000D03*
X77400000Y-84000000D03*
%TD*%
D15*
%TO.C,TP15*%
X81002000Y-100188000D03*
%TD*%
%TO.C,TP1*%
X75400000Y-114666000D03*
%TD*%
%TO.C,TP5*%
X103100000Y-102300000D03*
%TD*%
%TO.C,TP14*%
X82018000Y-71232000D03*
%TD*%
D13*
%TO.C,C2*%
X73276500Y-58067500D03*
X71201500Y-58067500D03*
%TD*%
D17*
%TO.C,H27*%
X178600000Y-84000000D03*
X177900000Y-85900000D03*
X177900000Y-82100000D03*
X176000000Y-86600000D03*
D18*
X176000000Y-84000000D03*
D17*
X176000000Y-81400000D03*
X174100000Y-85900000D03*
X174100000Y-82100000D03*
X173400000Y-84000000D03*
%TD*%
D15*
%TO.C,TP4*%
X101500000Y-103000000D03*
%TD*%
D19*
%TO.C,U2*%
X73205000Y-110080000D03*
X73205000Y-112380000D03*
X73205000Y-114680000D03*
D20*
X66955000Y-112380000D03*
%TD*%
D15*
%TO.C,TP19*%
X174220000Y-74026000D03*
%TD*%
D21*
%TO.C,C10*%
X116000000Y-99983000D03*
X116000000Y-102933000D03*
%TD*%
D15*
%TO.C,TP8*%
X200382000Y-75296000D03*
%TD*%
D17*
%TO.C,H14*%
X82600000Y-115000000D03*
X81900000Y-116900000D03*
X81900000Y-113100000D03*
X80000000Y-117600000D03*
D18*
X80000000Y-115000000D03*
D17*
X80000000Y-112400000D03*
X78100000Y-116900000D03*
X78100000Y-113100000D03*
X77400000Y-115000000D03*
%TD*%
%TO.C,H34*%
X202600000Y-115000000D03*
X201900000Y-116900000D03*
X201900000Y-113100000D03*
X200000000Y-117600000D03*
D18*
X200000000Y-115000000D03*
D17*
X200000000Y-112400000D03*
X198100000Y-116900000D03*
X198100000Y-113100000D03*
X197400000Y-115000000D03*
%TD*%
%TO.C,H21*%
X130600000Y-91000000D03*
X129900000Y-92900000D03*
X129900000Y-89100000D03*
X128000000Y-93600000D03*
D18*
X128000000Y-91000000D03*
D17*
X128000000Y-88400000D03*
X126100000Y-92900000D03*
X126100000Y-89100000D03*
X125400000Y-91000000D03*
%TD*%
%TO.C,H20*%
X130600000Y-60000000D03*
X129900000Y-61900000D03*
X129900000Y-58100000D03*
X128000000Y-62600000D03*
D18*
X128000000Y-60000000D03*
D17*
X128000000Y-57400000D03*
X126100000Y-61900000D03*
X126100000Y-58100000D03*
X125400000Y-60000000D03*
%TD*%
%TO.C,H19*%
X130600000Y-84000000D03*
X129900000Y-85900000D03*
X129900000Y-82100000D03*
X128000000Y-86600000D03*
D18*
X128000000Y-84000000D03*
D17*
X128000000Y-81400000D03*
X126100000Y-85900000D03*
X126100000Y-82100000D03*
X125400000Y-84000000D03*
%TD*%
%TO.C,H32*%
X202600000Y-60000000D03*
X201900000Y-61900000D03*
X201900000Y-58100000D03*
X200000000Y-62600000D03*
D18*
X200000000Y-60000000D03*
D17*
X200000000Y-57400000D03*
X198100000Y-61900000D03*
X198100000Y-58100000D03*
X197400000Y-60000000D03*
%TD*%
D22*
%TO.C,FID4*%
X67000000Y-58000000D03*
%TD*%
D21*
%TO.C,C61*%
X140000000Y-99983000D03*
X140000000Y-102933000D03*
%TD*%
D17*
%TO.C,H13*%
X82600000Y-91000000D03*
X81900000Y-92900000D03*
X81900000Y-89100000D03*
X80000000Y-93600000D03*
D18*
X80000000Y-91000000D03*
D17*
X80000000Y-88400000D03*
X78100000Y-92900000D03*
X78100000Y-89100000D03*
X77400000Y-91000000D03*
%TD*%
%TO.C,H31*%
X202600000Y-84000000D03*
X201900000Y-85900000D03*
X201900000Y-82100000D03*
X200000000Y-86600000D03*
D18*
X200000000Y-84000000D03*
D17*
X200000000Y-81400000D03*
X198100000Y-85900000D03*
X198100000Y-82100000D03*
X197400000Y-84000000D03*
%TD*%
D21*
%TO.C,C95*%
X164000000Y-99983000D03*
X164000000Y-102933000D03*
%TD*%
D17*
%TO.C,H30*%
X178600000Y-115000000D03*
X177900000Y-116900000D03*
X177900000Y-113100000D03*
X176000000Y-117600000D03*
D18*
X176000000Y-115000000D03*
D17*
X176000000Y-112400000D03*
X174100000Y-116900000D03*
X174100000Y-113100000D03*
X173400000Y-115000000D03*
%TD*%
%TO.C,H23*%
X154600000Y-84000000D03*
X153900000Y-85900000D03*
X153900000Y-82100000D03*
X152000000Y-86600000D03*
D18*
X152000000Y-84000000D03*
D17*
X152000000Y-81400000D03*
X150100000Y-85900000D03*
X150100000Y-82100000D03*
X149400000Y-84000000D03*
%TD*%
%TO.C,H17*%
X106600000Y-91000000D03*
X105900000Y-92900000D03*
X105900000Y-89100000D03*
X104000000Y-93600000D03*
D18*
X104000000Y-91000000D03*
D17*
X104000000Y-88400000D03*
X102100000Y-92900000D03*
X102100000Y-89100000D03*
X101400000Y-91000000D03*
%TD*%
D15*
%TO.C,TP3*%
X101500000Y-101200000D03*
%TD*%
%TO.C,TP16*%
X75414000Y-103998000D03*
%TD*%
D17*
%TO.C,H25*%
X154600000Y-91000000D03*
X153900000Y-92900000D03*
X153900000Y-89100000D03*
X152000000Y-93600000D03*
D18*
X152000000Y-91000000D03*
D17*
X152000000Y-88400000D03*
X150100000Y-92900000D03*
X150100000Y-89100000D03*
X149400000Y-91000000D03*
%TD*%
D15*
%TO.C,TP7*%
X99700000Y-104000000D03*
%TD*%
D23*
%TO.C,U3*%
X71062000Y-102157000D03*
X73162000Y-102157000D03*
X73162000Y-103807000D03*
X71062000Y-103807000D03*
%TD*%
D17*
%TO.C,H22*%
X130600000Y-115000000D03*
X129900000Y-116900000D03*
X129900000Y-113100000D03*
X128000000Y-117600000D03*
D18*
X128000000Y-115000000D03*
D17*
X128000000Y-112400000D03*
X126100000Y-116900000D03*
X126100000Y-113100000D03*
X125400000Y-115000000D03*
%TD*%
D15*
%TO.C,TP6*%
X98900000Y-102000000D03*
%TD*%
%TO.C,TP12*%
X202922000Y-71486000D03*
%TD*%
D22*
%TO.C,FID5*%
X67000000Y-116000000D03*
%TD*%
D13*
%TO.C,C4*%
X73276500Y-67084500D03*
X71201500Y-67084500D03*
%TD*%
D21*
%TO.C,C146*%
X188000000Y-99983000D03*
X188000000Y-102933000D03*
%TD*%
D17*
%TO.C,H15*%
X106600000Y-84000000D03*
X105900000Y-85900000D03*
X105900000Y-82100000D03*
X104000000Y-86600000D03*
D18*
X104000000Y-84000000D03*
D17*
X104000000Y-81400000D03*
X102100000Y-85900000D03*
X102100000Y-82100000D03*
X101400000Y-84000000D03*
%TD*%
D16*
%TO.C,J2*%
X72195000Y-76232000D03*
X67145000Y-76232000D03*
X72195000Y-78772000D03*
X67145000Y-78772000D03*
X72195000Y-81312000D03*
X67145000Y-81312000D03*
X72195000Y-83852000D03*
X67145000Y-83852000D03*
%TD*%
D17*
%TO.C,H12*%
X82600000Y-60000000D03*
X81900000Y-61900000D03*
X81900000Y-58100000D03*
X80000000Y-62600000D03*
D18*
X80000000Y-60000000D03*
D17*
X80000000Y-57400000D03*
X78100000Y-61900000D03*
X78100000Y-58100000D03*
X77400000Y-60000000D03*
%TD*%
D15*
%TO.C,TP2*%
X75300000Y-67100000D03*
%TD*%
%TO.C,TP18*%
X77446000Y-101458000D03*
%TD*%
%TO.C,TP13*%
X83600000Y-73900000D03*
%TD*%
%TO.C,TP10*%
X202414000Y-75550000D03*
%TD*%
D14*
%TO.C,C78*%
X140000000Y-75017000D03*
X140000000Y-72067000D03*
%TD*%
D17*
%TO.C,H29*%
X178600000Y-91000000D03*
X177900000Y-92900000D03*
X177900000Y-89100000D03*
X176000000Y-93600000D03*
D18*
X176000000Y-91000000D03*
D17*
X176000000Y-88400000D03*
X174100000Y-92900000D03*
X174100000Y-89100000D03*
X173400000Y-91000000D03*
%TD*%
D14*
%TO.C,C163*%
X92000000Y-75017000D03*
X92000000Y-72067000D03*
%TD*%
D15*
%TO.C,TP17*%
X79224000Y-101458000D03*
%TD*%
D17*
%TO.C,H24*%
X154600000Y-60000000D03*
X153900000Y-61900000D03*
X153900000Y-58100000D03*
X152000000Y-62600000D03*
D18*
X152000000Y-60000000D03*
D17*
X152000000Y-57400000D03*
X150100000Y-61900000D03*
X150100000Y-58100000D03*
X149400000Y-60000000D03*
%TD*%
D19*
%TO.C,U1*%
X73205000Y-60296000D03*
X73205000Y-62596000D03*
X73205000Y-64896000D03*
D20*
X66955000Y-62596000D03*
%TD*%
D21*
%TO.C,C27*%
X92000000Y-99983000D03*
X92000000Y-102933000D03*
%TD*%
D15*
%TO.C,TP20*%
X178284000Y-71740000D03*
%TD*%
%TO.C,TP22*%
X176252000Y-73264000D03*
%TD*%
D17*
%TO.C,H18*%
X106600000Y-115000000D03*
X105900000Y-116900000D03*
X105900000Y-113100000D03*
X104000000Y-117600000D03*
D18*
X104000000Y-115000000D03*
D17*
X104000000Y-112400000D03*
X102100000Y-116900000D03*
X102100000Y-113100000D03*
X101400000Y-115000000D03*
%TD*%
%TO.C,H26*%
X154600000Y-115000000D03*
X153900000Y-116900000D03*
X153900000Y-113100000D03*
X152000000Y-117600000D03*
D18*
X152000000Y-115000000D03*
D17*
X152000000Y-112400000D03*
X150100000Y-116900000D03*
X150100000Y-113100000D03*
X149400000Y-115000000D03*
%TD*%
D14*
%TO.C,C44*%
X164000000Y-75017000D03*
X164000000Y-72067000D03*
%TD*%
D22*
%TO.C,FID6*%
X194000000Y-58000000D03*
%TD*%
D17*
%TO.C,H28*%
X178600000Y-60000000D03*
X177900000Y-61900000D03*
X177900000Y-58100000D03*
X176000000Y-62600000D03*
D18*
X176000000Y-60000000D03*
D17*
X176000000Y-57400000D03*
X174100000Y-61900000D03*
X174100000Y-58100000D03*
X173400000Y-60000000D03*
%TD*%
%TO.C,H16*%
X106600000Y-60000000D03*
X105900000Y-61900000D03*
X105900000Y-58100000D03*
X104000000Y-62600000D03*
D18*
X104000000Y-60000000D03*
D17*
X104000000Y-57400000D03*
X102100000Y-61900000D03*
X102100000Y-58100000D03*
X101400000Y-60000000D03*
%TD*%
D14*
%TO.C,C129*%
X116000000Y-75017000D03*
X116000000Y-72067000D03*
%TD*%
D24*
%TO.C,C5*%
X68810000Y-101944500D03*
X68810000Y-104019500D03*
%TD*%
D13*
%TO.C,C1*%
X73149500Y-107808000D03*
X71074500Y-107808000D03*
%TD*%
D25*
X204750000Y-55000000D02*
X204750000Y-120000000D01*
X65000000Y-55000000D02*
X65000000Y-120000000D01*
X65000000Y-120000000D02*
X204750000Y-120000000D01*
X65000000Y-55000000D02*
X204750000Y-55000000D01*
M02*
