%TF.GenerationSoftware,KiCad,Pcbnew,8.0.6*%
%TF.CreationDate,2024-12-06T19:08:14+01:00*%
%TF.ProjectId,AsicsBoard - 10xBM1370 - 01A,41736963-7342-46f6-9172-64202d203130,rev?*%
%TF.SameCoordinates,Original*%
%TF.FileFunction,Paste,Top*%
%TF.FilePolarity,Positive*%
%FSLAX46Y46*%
G04 Gerber Fmt 4.6, Leading zero omitted, Abs format (unit mm)*
G04 Created by KiCad (PCBNEW 8.0.6) date 2024-12-06 19:08:14*
%MOMM*%
%LPD*%
G01*
G04 APERTURE LIST*
G04 Aperture macros list*
%AMRoundRect*
0 Rectangle with rounded corners*
0 $1 Rounding radius*
0 $2 $3 $4 $5 $6 $7 $8 $9 X,Y pos of 4 corners*
0 Add a 4 corners polygon primitive as box body*
4,1,4,$2,$3,$4,$5,$6,$7,$8,$9,$2,$3,0*
0 Add four circle primitives for the rounded corners*
1,1,$1+$1,$2,$3*
1,1,$1+$1,$4,$5*
1,1,$1+$1,$6,$7*
1,1,$1+$1,$8,$9*
0 Add four rect primitives between the rounded corners*
20,1,$1+$1,$2,$3,$4,$5,0*
20,1,$1+$1,$4,$5,$6,$7,0*
20,1,$1+$1,$6,$7,$8,$9,0*
20,1,$1+$1,$8,$9,$2,$3,0*%
G04 Aperture macros list end*
%ADD10C,0.001000*%
%ADD11RoundRect,0.140000X-0.170000X0.140000X-0.170000X-0.140000X0.170000X-0.140000X0.170000X0.140000X0*%
%ADD12RoundRect,0.135000X-0.135000X-0.185000X0.135000X-0.185000X0.135000X0.185000X-0.135000X0.185000X0*%
%ADD13RoundRect,0.140000X0.140000X0.170000X-0.140000X0.170000X-0.140000X-0.170000X0.140000X-0.170000X0*%
%ADD14RoundRect,0.140000X0.170000X-0.140000X0.170000X0.140000X-0.170000X0.140000X-0.170000X-0.140000X0*%
%ADD15RoundRect,0.135000X0.135000X0.185000X-0.135000X0.185000X-0.135000X-0.185000X0.135000X-0.185000X0*%
%ADD16RoundRect,0.140000X-0.140000X-0.170000X0.140000X-0.170000X0.140000X0.170000X-0.140000X0.170000X0*%
%ADD17RoundRect,0.055250X0.340750X0.055250X-0.340750X0.055250X-0.340750X-0.055250X0.340750X-0.055250X0*%
%ADD18RoundRect,0.055250X-0.340750X-0.055250X0.340750X-0.055250X0.340750X0.055250X-0.340750X0.055250X0*%
%ADD19RoundRect,0.250000X0.350000X0.450000X-0.350000X0.450000X-0.350000X-0.450000X0.350000X-0.450000X0*%
%ADD20RoundRect,0.200000X0.275000X-0.200000X0.275000X0.200000X-0.275000X0.200000X-0.275000X-0.200000X0*%
%TA.AperFunction,Profile*%
%ADD21C,0.100000*%
%TD*%
G04 APERTURE END LIST*
%TO.C,U10*%
D10*
X185200000Y-68435000D02*
X186400000Y-68435000D01*
X186400000Y-69385000D01*
X185200000Y-69385000D01*
X185200000Y-68435000D01*
G36*
X185200000Y-68435000D02*
G01*
X186400000Y-68435000D01*
X186400000Y-69385000D01*
X185200000Y-69385000D01*
X185200000Y-68435000D01*
G37*
X185210000Y-70295000D02*
X186410000Y-70295000D01*
X186410000Y-71245000D01*
X185210000Y-71245000D01*
X185210000Y-70295000D01*
G36*
X185210000Y-70295000D02*
G01*
X186410000Y-70295000D01*
X186410000Y-71245000D01*
X185210000Y-71245000D01*
X185210000Y-70295000D01*
G37*
X185220000Y-72125000D02*
X186420000Y-72125000D01*
X186420000Y-73075000D01*
X185220000Y-73075000D01*
X185220000Y-72125000D01*
G36*
X185220000Y-72125000D02*
G01*
X186420000Y-72125000D01*
X186420000Y-73075000D01*
X185220000Y-73075000D01*
X185220000Y-72125000D01*
G37*
X185220000Y-74370000D02*
X186420000Y-74370000D01*
X186420000Y-75480000D01*
X185220000Y-75480000D01*
X185220000Y-74370000D01*
G36*
X185220000Y-74370000D02*
G01*
X186420000Y-74370000D01*
X186420000Y-75480000D01*
X185220000Y-75480000D01*
X185220000Y-74370000D01*
G37*
X187350000Y-68435000D02*
X188550000Y-68435000D01*
X188550000Y-69385000D01*
X187350000Y-69385000D01*
X187350000Y-68435000D01*
G36*
X187350000Y-68435000D02*
G01*
X188550000Y-68435000D01*
X188550000Y-69385000D01*
X187350000Y-69385000D01*
X187350000Y-68435000D01*
G37*
X187360000Y-70295000D02*
X188560000Y-70295000D01*
X188560000Y-71245000D01*
X187360000Y-71245000D01*
X187360000Y-70295000D01*
G36*
X187360000Y-70295000D02*
G01*
X188560000Y-70295000D01*
X188560000Y-71245000D01*
X187360000Y-71245000D01*
X187360000Y-70295000D01*
G37*
X187370000Y-72125000D02*
X188570000Y-72125000D01*
X188570000Y-73075000D01*
X187370000Y-73075000D01*
X187370000Y-72125000D01*
G36*
X187370000Y-72125000D02*
G01*
X188570000Y-72125000D01*
X188570000Y-73075000D01*
X187370000Y-73075000D01*
X187370000Y-72125000D01*
G37*
X187400000Y-74350000D02*
X188600000Y-74350000D01*
X188600000Y-75460000D01*
X187400000Y-75460000D01*
X187400000Y-74350000D01*
G36*
X187400000Y-74350000D02*
G01*
X188600000Y-74350000D01*
X188600000Y-75460000D01*
X187400000Y-75460000D01*
X187400000Y-74350000D01*
G37*
X189540000Y-74340000D02*
X190740000Y-74340000D01*
X190740000Y-75460000D01*
X189540000Y-75460000D01*
X189540000Y-74340000D01*
G36*
X189540000Y-74340000D02*
G01*
X190740000Y-74340000D01*
X190740000Y-75460000D01*
X189540000Y-75460000D01*
X189540000Y-74340000D01*
G37*
X189560000Y-68445000D02*
X190760000Y-68445000D01*
X190760000Y-69395000D01*
X189560000Y-69395000D01*
X189560000Y-68445000D01*
G36*
X189560000Y-68445000D02*
G01*
X190760000Y-68445000D01*
X190760000Y-69395000D01*
X189560000Y-69395000D01*
X189560000Y-68445000D01*
G37*
X189570000Y-70305000D02*
X190770000Y-70305000D01*
X190770000Y-71255000D01*
X189570000Y-71255000D01*
X189570000Y-70305000D01*
G36*
X189570000Y-70305000D02*
G01*
X190770000Y-70305000D01*
X190770000Y-71255000D01*
X189570000Y-71255000D01*
X189570000Y-70305000D01*
G37*
X189580000Y-72135000D02*
X190780000Y-72135000D01*
X190780000Y-73085000D01*
X189580000Y-73085000D01*
X189580000Y-72135000D01*
G36*
X189580000Y-72135000D02*
G01*
X190780000Y-72135000D01*
X190780000Y-73085000D01*
X189580000Y-73085000D01*
X189580000Y-72135000D01*
G37*
%TO.C,U12*%
X186420000Y-102865000D02*
X185220000Y-102865000D01*
X185220000Y-101915000D01*
X186420000Y-101915000D01*
X186420000Y-102865000D01*
G36*
X186420000Y-102865000D02*
G01*
X185220000Y-102865000D01*
X185220000Y-101915000D01*
X186420000Y-101915000D01*
X186420000Y-102865000D01*
G37*
X186430000Y-104695000D02*
X185230000Y-104695000D01*
X185230000Y-103745000D01*
X186430000Y-103745000D01*
X186430000Y-104695000D01*
G36*
X186430000Y-104695000D02*
G01*
X185230000Y-104695000D01*
X185230000Y-103745000D01*
X186430000Y-103745000D01*
X186430000Y-104695000D01*
G37*
X186440000Y-106555000D02*
X185240000Y-106555000D01*
X185240000Y-105605000D01*
X186440000Y-105605000D01*
X186440000Y-106555000D01*
G36*
X186440000Y-106555000D02*
G01*
X185240000Y-106555000D01*
X185240000Y-105605000D01*
X186440000Y-105605000D01*
X186440000Y-106555000D01*
G37*
X186460000Y-100660000D02*
X185260000Y-100660000D01*
X185260000Y-99540000D01*
X186460000Y-99540000D01*
X186460000Y-100660000D01*
G36*
X186460000Y-100660000D02*
G01*
X185260000Y-100660000D01*
X185260000Y-99540000D01*
X186460000Y-99540000D01*
X186460000Y-100660000D01*
G37*
X188600000Y-100650000D02*
X187400000Y-100650000D01*
X187400000Y-99540000D01*
X188600000Y-99540000D01*
X188600000Y-100650000D01*
G36*
X188600000Y-100650000D02*
G01*
X187400000Y-100650000D01*
X187400000Y-99540000D01*
X188600000Y-99540000D01*
X188600000Y-100650000D01*
G37*
X188630000Y-102875000D02*
X187430000Y-102875000D01*
X187430000Y-101925000D01*
X188630000Y-101925000D01*
X188630000Y-102875000D01*
G36*
X188630000Y-102875000D02*
G01*
X187430000Y-102875000D01*
X187430000Y-101925000D01*
X188630000Y-101925000D01*
X188630000Y-102875000D01*
G37*
X188640000Y-104705000D02*
X187440000Y-104705000D01*
X187440000Y-103755000D01*
X188640000Y-103755000D01*
X188640000Y-104705000D01*
G36*
X188640000Y-104705000D02*
G01*
X187440000Y-104705000D01*
X187440000Y-103755000D01*
X188640000Y-103755000D01*
X188640000Y-104705000D01*
G37*
X188650000Y-106565000D02*
X187450000Y-106565000D01*
X187450000Y-105615000D01*
X188650000Y-105615000D01*
X188650000Y-106565000D01*
G36*
X188650000Y-106565000D02*
G01*
X187450000Y-106565000D01*
X187450000Y-105615000D01*
X188650000Y-105615000D01*
X188650000Y-106565000D01*
G37*
X190780000Y-100630000D02*
X189580000Y-100630000D01*
X189580000Y-99520000D01*
X190780000Y-99520000D01*
X190780000Y-100630000D01*
G36*
X190780000Y-100630000D02*
G01*
X189580000Y-100630000D01*
X189580000Y-99520000D01*
X190780000Y-99520000D01*
X190780000Y-100630000D01*
G37*
X190780000Y-102875000D02*
X189580000Y-102875000D01*
X189580000Y-101925000D01*
X190780000Y-101925000D01*
X190780000Y-102875000D01*
G36*
X190780000Y-102875000D02*
G01*
X189580000Y-102875000D01*
X189580000Y-101925000D01*
X190780000Y-101925000D01*
X190780000Y-102875000D01*
G37*
X190790000Y-104705000D02*
X189590000Y-104705000D01*
X189590000Y-103755000D01*
X190790000Y-103755000D01*
X190790000Y-104705000D01*
G36*
X190790000Y-104705000D02*
G01*
X189590000Y-104705000D01*
X189590000Y-103755000D01*
X190790000Y-103755000D01*
X190790000Y-104705000D01*
G37*
X190800000Y-106565000D02*
X189600000Y-106565000D01*
X189600000Y-105615000D01*
X190800000Y-105615000D01*
X190800000Y-106565000D01*
G36*
X190800000Y-106565000D02*
G01*
X189600000Y-106565000D01*
X189600000Y-105615000D01*
X190800000Y-105615000D01*
X190800000Y-106565000D01*
G37*
%TO.C,U4*%
X114420000Y-102865000D02*
X113220000Y-102865000D01*
X113220000Y-101915000D01*
X114420000Y-101915000D01*
X114420000Y-102865000D01*
G36*
X114420000Y-102865000D02*
G01*
X113220000Y-102865000D01*
X113220000Y-101915000D01*
X114420000Y-101915000D01*
X114420000Y-102865000D01*
G37*
X114430000Y-104695000D02*
X113230000Y-104695000D01*
X113230000Y-103745000D01*
X114430000Y-103745000D01*
X114430000Y-104695000D01*
G36*
X114430000Y-104695000D02*
G01*
X113230000Y-104695000D01*
X113230000Y-103745000D01*
X114430000Y-103745000D01*
X114430000Y-104695000D01*
G37*
X114440000Y-106555000D02*
X113240000Y-106555000D01*
X113240000Y-105605000D01*
X114440000Y-105605000D01*
X114440000Y-106555000D01*
G36*
X114440000Y-106555000D02*
G01*
X113240000Y-106555000D01*
X113240000Y-105605000D01*
X114440000Y-105605000D01*
X114440000Y-106555000D01*
G37*
X114460000Y-100660000D02*
X113260000Y-100660000D01*
X113260000Y-99540000D01*
X114460000Y-99540000D01*
X114460000Y-100660000D01*
G36*
X114460000Y-100660000D02*
G01*
X113260000Y-100660000D01*
X113260000Y-99540000D01*
X114460000Y-99540000D01*
X114460000Y-100660000D01*
G37*
X116600000Y-100650000D02*
X115400000Y-100650000D01*
X115400000Y-99540000D01*
X116600000Y-99540000D01*
X116600000Y-100650000D01*
G36*
X116600000Y-100650000D02*
G01*
X115400000Y-100650000D01*
X115400000Y-99540000D01*
X116600000Y-99540000D01*
X116600000Y-100650000D01*
G37*
X116630000Y-102875000D02*
X115430000Y-102875000D01*
X115430000Y-101925000D01*
X116630000Y-101925000D01*
X116630000Y-102875000D01*
G36*
X116630000Y-102875000D02*
G01*
X115430000Y-102875000D01*
X115430000Y-101925000D01*
X116630000Y-101925000D01*
X116630000Y-102875000D01*
G37*
X116640000Y-104705000D02*
X115440000Y-104705000D01*
X115440000Y-103755000D01*
X116640000Y-103755000D01*
X116640000Y-104705000D01*
G36*
X116640000Y-104705000D02*
G01*
X115440000Y-104705000D01*
X115440000Y-103755000D01*
X116640000Y-103755000D01*
X116640000Y-104705000D01*
G37*
X116650000Y-106565000D02*
X115450000Y-106565000D01*
X115450000Y-105615000D01*
X116650000Y-105615000D01*
X116650000Y-106565000D01*
G36*
X116650000Y-106565000D02*
G01*
X115450000Y-106565000D01*
X115450000Y-105615000D01*
X116650000Y-105615000D01*
X116650000Y-106565000D01*
G37*
X118780000Y-100630000D02*
X117580000Y-100630000D01*
X117580000Y-99520000D01*
X118780000Y-99520000D01*
X118780000Y-100630000D01*
G36*
X118780000Y-100630000D02*
G01*
X117580000Y-100630000D01*
X117580000Y-99520000D01*
X118780000Y-99520000D01*
X118780000Y-100630000D01*
G37*
X118780000Y-102875000D02*
X117580000Y-102875000D01*
X117580000Y-101925000D01*
X118780000Y-101925000D01*
X118780000Y-102875000D01*
G36*
X118780000Y-102875000D02*
G01*
X117580000Y-102875000D01*
X117580000Y-101925000D01*
X118780000Y-101925000D01*
X118780000Y-102875000D01*
G37*
X118790000Y-104705000D02*
X117590000Y-104705000D01*
X117590000Y-103755000D01*
X118790000Y-103755000D01*
X118790000Y-104705000D01*
G36*
X118790000Y-104705000D02*
G01*
X117590000Y-104705000D01*
X117590000Y-103755000D01*
X118790000Y-103755000D01*
X118790000Y-104705000D01*
G37*
X118800000Y-106565000D02*
X117600000Y-106565000D01*
X117600000Y-105615000D01*
X118800000Y-105615000D01*
X118800000Y-106565000D01*
G36*
X118800000Y-106565000D02*
G01*
X117600000Y-106565000D01*
X117600000Y-105615000D01*
X118800000Y-105615000D01*
X118800000Y-106565000D01*
G37*
%TO.C,U8*%
X137200000Y-68435000D02*
X138400000Y-68435000D01*
X138400000Y-69385000D01*
X137200000Y-69385000D01*
X137200000Y-68435000D01*
G36*
X137200000Y-68435000D02*
G01*
X138400000Y-68435000D01*
X138400000Y-69385000D01*
X137200000Y-69385000D01*
X137200000Y-68435000D01*
G37*
X137210000Y-70295000D02*
X138410000Y-70295000D01*
X138410000Y-71245000D01*
X137210000Y-71245000D01*
X137210000Y-70295000D01*
G36*
X137210000Y-70295000D02*
G01*
X138410000Y-70295000D01*
X138410000Y-71245000D01*
X137210000Y-71245000D01*
X137210000Y-70295000D01*
G37*
X137220000Y-72125000D02*
X138420000Y-72125000D01*
X138420000Y-73075000D01*
X137220000Y-73075000D01*
X137220000Y-72125000D01*
G36*
X137220000Y-72125000D02*
G01*
X138420000Y-72125000D01*
X138420000Y-73075000D01*
X137220000Y-73075000D01*
X137220000Y-72125000D01*
G37*
X137220000Y-74370000D02*
X138420000Y-74370000D01*
X138420000Y-75480000D01*
X137220000Y-75480000D01*
X137220000Y-74370000D01*
G36*
X137220000Y-74370000D02*
G01*
X138420000Y-74370000D01*
X138420000Y-75480000D01*
X137220000Y-75480000D01*
X137220000Y-74370000D01*
G37*
X139350000Y-68435000D02*
X140550000Y-68435000D01*
X140550000Y-69385000D01*
X139350000Y-69385000D01*
X139350000Y-68435000D01*
G36*
X139350000Y-68435000D02*
G01*
X140550000Y-68435000D01*
X140550000Y-69385000D01*
X139350000Y-69385000D01*
X139350000Y-68435000D01*
G37*
X139360000Y-70295000D02*
X140560000Y-70295000D01*
X140560000Y-71245000D01*
X139360000Y-71245000D01*
X139360000Y-70295000D01*
G36*
X139360000Y-70295000D02*
G01*
X140560000Y-70295000D01*
X140560000Y-71245000D01*
X139360000Y-71245000D01*
X139360000Y-70295000D01*
G37*
X139370000Y-72125000D02*
X140570000Y-72125000D01*
X140570000Y-73075000D01*
X139370000Y-73075000D01*
X139370000Y-72125000D01*
G36*
X139370000Y-72125000D02*
G01*
X140570000Y-72125000D01*
X140570000Y-73075000D01*
X139370000Y-73075000D01*
X139370000Y-72125000D01*
G37*
X139400000Y-74350000D02*
X140600000Y-74350000D01*
X140600000Y-75460000D01*
X139400000Y-75460000D01*
X139400000Y-74350000D01*
G36*
X139400000Y-74350000D02*
G01*
X140600000Y-74350000D01*
X140600000Y-75460000D01*
X139400000Y-75460000D01*
X139400000Y-74350000D01*
G37*
X141540000Y-74340000D02*
X142740000Y-74340000D01*
X142740000Y-75460000D01*
X141540000Y-75460000D01*
X141540000Y-74340000D01*
G36*
X141540000Y-74340000D02*
G01*
X142740000Y-74340000D01*
X142740000Y-75460000D01*
X141540000Y-75460000D01*
X141540000Y-74340000D01*
G37*
X141560000Y-68445000D02*
X142760000Y-68445000D01*
X142760000Y-69395000D01*
X141560000Y-69395000D01*
X141560000Y-68445000D01*
G36*
X141560000Y-68445000D02*
G01*
X142760000Y-68445000D01*
X142760000Y-69395000D01*
X141560000Y-69395000D01*
X141560000Y-68445000D01*
G37*
X141570000Y-70305000D02*
X142770000Y-70305000D01*
X142770000Y-71255000D01*
X141570000Y-71255000D01*
X141570000Y-70305000D01*
G36*
X141570000Y-70305000D02*
G01*
X142770000Y-70305000D01*
X142770000Y-71255000D01*
X141570000Y-71255000D01*
X141570000Y-70305000D01*
G37*
X141580000Y-72135000D02*
X142780000Y-72135000D01*
X142780000Y-73085000D01*
X141580000Y-73085000D01*
X141580000Y-72135000D01*
G36*
X141580000Y-72135000D02*
G01*
X142780000Y-72135000D01*
X142780000Y-73085000D01*
X141580000Y-73085000D01*
X141580000Y-72135000D01*
G37*
%TO.C,U13*%
X89200000Y-68435000D02*
X90400000Y-68435000D01*
X90400000Y-69385000D01*
X89200000Y-69385000D01*
X89200000Y-68435000D01*
G36*
X89200000Y-68435000D02*
G01*
X90400000Y-68435000D01*
X90400000Y-69385000D01*
X89200000Y-69385000D01*
X89200000Y-68435000D01*
G37*
X89210000Y-70295000D02*
X90410000Y-70295000D01*
X90410000Y-71245000D01*
X89210000Y-71245000D01*
X89210000Y-70295000D01*
G36*
X89210000Y-70295000D02*
G01*
X90410000Y-70295000D01*
X90410000Y-71245000D01*
X89210000Y-71245000D01*
X89210000Y-70295000D01*
G37*
X89220000Y-72125000D02*
X90420000Y-72125000D01*
X90420000Y-73075000D01*
X89220000Y-73075000D01*
X89220000Y-72125000D01*
G36*
X89220000Y-72125000D02*
G01*
X90420000Y-72125000D01*
X90420000Y-73075000D01*
X89220000Y-73075000D01*
X89220000Y-72125000D01*
G37*
X89220000Y-74370000D02*
X90420000Y-74370000D01*
X90420000Y-75480000D01*
X89220000Y-75480000D01*
X89220000Y-74370000D01*
G36*
X89220000Y-74370000D02*
G01*
X90420000Y-74370000D01*
X90420000Y-75480000D01*
X89220000Y-75480000D01*
X89220000Y-74370000D01*
G37*
X91350000Y-68435000D02*
X92550000Y-68435000D01*
X92550000Y-69385000D01*
X91350000Y-69385000D01*
X91350000Y-68435000D01*
G36*
X91350000Y-68435000D02*
G01*
X92550000Y-68435000D01*
X92550000Y-69385000D01*
X91350000Y-69385000D01*
X91350000Y-68435000D01*
G37*
X91360000Y-70295000D02*
X92560000Y-70295000D01*
X92560000Y-71245000D01*
X91360000Y-71245000D01*
X91360000Y-70295000D01*
G36*
X91360000Y-70295000D02*
G01*
X92560000Y-70295000D01*
X92560000Y-71245000D01*
X91360000Y-71245000D01*
X91360000Y-70295000D01*
G37*
X91370000Y-72125000D02*
X92570000Y-72125000D01*
X92570000Y-73075000D01*
X91370000Y-73075000D01*
X91370000Y-72125000D01*
G36*
X91370000Y-72125000D02*
G01*
X92570000Y-72125000D01*
X92570000Y-73075000D01*
X91370000Y-73075000D01*
X91370000Y-72125000D01*
G37*
X91400000Y-74350000D02*
X92600000Y-74350000D01*
X92600000Y-75460000D01*
X91400000Y-75460000D01*
X91400000Y-74350000D01*
G36*
X91400000Y-74350000D02*
G01*
X92600000Y-74350000D01*
X92600000Y-75460000D01*
X91400000Y-75460000D01*
X91400000Y-74350000D01*
G37*
X93540000Y-74340000D02*
X94740000Y-74340000D01*
X94740000Y-75460000D01*
X93540000Y-75460000D01*
X93540000Y-74340000D01*
G36*
X93540000Y-74340000D02*
G01*
X94740000Y-74340000D01*
X94740000Y-75460000D01*
X93540000Y-75460000D01*
X93540000Y-74340000D01*
G37*
X93560000Y-68445000D02*
X94760000Y-68445000D01*
X94760000Y-69395000D01*
X93560000Y-69395000D01*
X93560000Y-68445000D01*
G36*
X93560000Y-68445000D02*
G01*
X94760000Y-68445000D01*
X94760000Y-69395000D01*
X93560000Y-69395000D01*
X93560000Y-68445000D01*
G37*
X93570000Y-70305000D02*
X94770000Y-70305000D01*
X94770000Y-71255000D01*
X93570000Y-71255000D01*
X93570000Y-70305000D01*
G36*
X93570000Y-70305000D02*
G01*
X94770000Y-70305000D01*
X94770000Y-71255000D01*
X93570000Y-71255000D01*
X93570000Y-70305000D01*
G37*
X93580000Y-72135000D02*
X94780000Y-72135000D01*
X94780000Y-73085000D01*
X93580000Y-73085000D01*
X93580000Y-72135000D01*
G36*
X93580000Y-72135000D02*
G01*
X94780000Y-72135000D01*
X94780000Y-73085000D01*
X93580000Y-73085000D01*
X93580000Y-72135000D01*
G37*
%TO.C,U9*%
X162420000Y-102865000D02*
X161220000Y-102865000D01*
X161220000Y-101915000D01*
X162420000Y-101915000D01*
X162420000Y-102865000D01*
G36*
X162420000Y-102865000D02*
G01*
X161220000Y-102865000D01*
X161220000Y-101915000D01*
X162420000Y-101915000D01*
X162420000Y-102865000D01*
G37*
X162430000Y-104695000D02*
X161230000Y-104695000D01*
X161230000Y-103745000D01*
X162430000Y-103745000D01*
X162430000Y-104695000D01*
G36*
X162430000Y-104695000D02*
G01*
X161230000Y-104695000D01*
X161230000Y-103745000D01*
X162430000Y-103745000D01*
X162430000Y-104695000D01*
G37*
X162440000Y-106555000D02*
X161240000Y-106555000D01*
X161240000Y-105605000D01*
X162440000Y-105605000D01*
X162440000Y-106555000D01*
G36*
X162440000Y-106555000D02*
G01*
X161240000Y-106555000D01*
X161240000Y-105605000D01*
X162440000Y-105605000D01*
X162440000Y-106555000D01*
G37*
X162460000Y-100660000D02*
X161260000Y-100660000D01*
X161260000Y-99540000D01*
X162460000Y-99540000D01*
X162460000Y-100660000D01*
G36*
X162460000Y-100660000D02*
G01*
X161260000Y-100660000D01*
X161260000Y-99540000D01*
X162460000Y-99540000D01*
X162460000Y-100660000D01*
G37*
X164600000Y-100650000D02*
X163400000Y-100650000D01*
X163400000Y-99540000D01*
X164600000Y-99540000D01*
X164600000Y-100650000D01*
G36*
X164600000Y-100650000D02*
G01*
X163400000Y-100650000D01*
X163400000Y-99540000D01*
X164600000Y-99540000D01*
X164600000Y-100650000D01*
G37*
X164630000Y-102875000D02*
X163430000Y-102875000D01*
X163430000Y-101925000D01*
X164630000Y-101925000D01*
X164630000Y-102875000D01*
G36*
X164630000Y-102875000D02*
G01*
X163430000Y-102875000D01*
X163430000Y-101925000D01*
X164630000Y-101925000D01*
X164630000Y-102875000D01*
G37*
X164640000Y-104705000D02*
X163440000Y-104705000D01*
X163440000Y-103755000D01*
X164640000Y-103755000D01*
X164640000Y-104705000D01*
G36*
X164640000Y-104705000D02*
G01*
X163440000Y-104705000D01*
X163440000Y-103755000D01*
X164640000Y-103755000D01*
X164640000Y-104705000D01*
G37*
X164650000Y-106565000D02*
X163450000Y-106565000D01*
X163450000Y-105615000D01*
X164650000Y-105615000D01*
X164650000Y-106565000D01*
G36*
X164650000Y-106565000D02*
G01*
X163450000Y-106565000D01*
X163450000Y-105615000D01*
X164650000Y-105615000D01*
X164650000Y-106565000D01*
G37*
X166780000Y-100630000D02*
X165580000Y-100630000D01*
X165580000Y-99520000D01*
X166780000Y-99520000D01*
X166780000Y-100630000D01*
G36*
X166780000Y-100630000D02*
G01*
X165580000Y-100630000D01*
X165580000Y-99520000D01*
X166780000Y-99520000D01*
X166780000Y-100630000D01*
G37*
X166780000Y-102875000D02*
X165580000Y-102875000D01*
X165580000Y-101925000D01*
X166780000Y-101925000D01*
X166780000Y-102875000D01*
G36*
X166780000Y-102875000D02*
G01*
X165580000Y-102875000D01*
X165580000Y-101925000D01*
X166780000Y-101925000D01*
X166780000Y-102875000D01*
G37*
X166790000Y-104705000D02*
X165590000Y-104705000D01*
X165590000Y-103755000D01*
X166790000Y-103755000D01*
X166790000Y-104705000D01*
G36*
X166790000Y-104705000D02*
G01*
X165590000Y-104705000D01*
X165590000Y-103755000D01*
X166790000Y-103755000D01*
X166790000Y-104705000D01*
G37*
X166800000Y-106565000D02*
X165600000Y-106565000D01*
X165600000Y-105615000D01*
X166800000Y-105615000D01*
X166800000Y-106565000D01*
G36*
X166800000Y-106565000D02*
G01*
X165600000Y-106565000D01*
X165600000Y-105615000D01*
X166800000Y-105615000D01*
X166800000Y-106565000D01*
G37*
%TO.C,U5*%
X90420000Y-102865000D02*
X89220000Y-102865000D01*
X89220000Y-101915000D01*
X90420000Y-101915000D01*
X90420000Y-102865000D01*
G36*
X90420000Y-102865000D02*
G01*
X89220000Y-102865000D01*
X89220000Y-101915000D01*
X90420000Y-101915000D01*
X90420000Y-102865000D01*
G37*
X90430000Y-104695000D02*
X89230000Y-104695000D01*
X89230000Y-103745000D01*
X90430000Y-103745000D01*
X90430000Y-104695000D01*
G36*
X90430000Y-104695000D02*
G01*
X89230000Y-104695000D01*
X89230000Y-103745000D01*
X90430000Y-103745000D01*
X90430000Y-104695000D01*
G37*
X90440000Y-106555000D02*
X89240000Y-106555000D01*
X89240000Y-105605000D01*
X90440000Y-105605000D01*
X90440000Y-106555000D01*
G36*
X90440000Y-106555000D02*
G01*
X89240000Y-106555000D01*
X89240000Y-105605000D01*
X90440000Y-105605000D01*
X90440000Y-106555000D01*
G37*
X90460000Y-100660000D02*
X89260000Y-100660000D01*
X89260000Y-99540000D01*
X90460000Y-99540000D01*
X90460000Y-100660000D01*
G36*
X90460000Y-100660000D02*
G01*
X89260000Y-100660000D01*
X89260000Y-99540000D01*
X90460000Y-99540000D01*
X90460000Y-100660000D01*
G37*
X92600000Y-100650000D02*
X91400000Y-100650000D01*
X91400000Y-99540000D01*
X92600000Y-99540000D01*
X92600000Y-100650000D01*
G36*
X92600000Y-100650000D02*
G01*
X91400000Y-100650000D01*
X91400000Y-99540000D01*
X92600000Y-99540000D01*
X92600000Y-100650000D01*
G37*
X92630000Y-102875000D02*
X91430000Y-102875000D01*
X91430000Y-101925000D01*
X92630000Y-101925000D01*
X92630000Y-102875000D01*
G36*
X92630000Y-102875000D02*
G01*
X91430000Y-102875000D01*
X91430000Y-101925000D01*
X92630000Y-101925000D01*
X92630000Y-102875000D01*
G37*
X92640000Y-104705000D02*
X91440000Y-104705000D01*
X91440000Y-103755000D01*
X92640000Y-103755000D01*
X92640000Y-104705000D01*
G36*
X92640000Y-104705000D02*
G01*
X91440000Y-104705000D01*
X91440000Y-103755000D01*
X92640000Y-103755000D01*
X92640000Y-104705000D01*
G37*
X92650000Y-106565000D02*
X91450000Y-106565000D01*
X91450000Y-105615000D01*
X92650000Y-105615000D01*
X92650000Y-106565000D01*
G36*
X92650000Y-106565000D02*
G01*
X91450000Y-106565000D01*
X91450000Y-105615000D01*
X92650000Y-105615000D01*
X92650000Y-106565000D01*
G37*
X94780000Y-100630000D02*
X93580000Y-100630000D01*
X93580000Y-99520000D01*
X94780000Y-99520000D01*
X94780000Y-100630000D01*
G36*
X94780000Y-100630000D02*
G01*
X93580000Y-100630000D01*
X93580000Y-99520000D01*
X94780000Y-99520000D01*
X94780000Y-100630000D01*
G37*
X94780000Y-102875000D02*
X93580000Y-102875000D01*
X93580000Y-101925000D01*
X94780000Y-101925000D01*
X94780000Y-102875000D01*
G36*
X94780000Y-102875000D02*
G01*
X93580000Y-102875000D01*
X93580000Y-101925000D01*
X94780000Y-101925000D01*
X94780000Y-102875000D01*
G37*
X94790000Y-104705000D02*
X93590000Y-104705000D01*
X93590000Y-103755000D01*
X94790000Y-103755000D01*
X94790000Y-104705000D01*
G36*
X94790000Y-104705000D02*
G01*
X93590000Y-104705000D01*
X93590000Y-103755000D01*
X94790000Y-103755000D01*
X94790000Y-104705000D01*
G37*
X94800000Y-106565000D02*
X93600000Y-106565000D01*
X93600000Y-105615000D01*
X94800000Y-105615000D01*
X94800000Y-106565000D01*
G36*
X94800000Y-106565000D02*
G01*
X93600000Y-106565000D01*
X93600000Y-105615000D01*
X94800000Y-105615000D01*
X94800000Y-106565000D01*
G37*
%TO.C,U11*%
X113200000Y-68435000D02*
X114400000Y-68435000D01*
X114400000Y-69385000D01*
X113200000Y-69385000D01*
X113200000Y-68435000D01*
G36*
X113200000Y-68435000D02*
G01*
X114400000Y-68435000D01*
X114400000Y-69385000D01*
X113200000Y-69385000D01*
X113200000Y-68435000D01*
G37*
X113210000Y-70295000D02*
X114410000Y-70295000D01*
X114410000Y-71245000D01*
X113210000Y-71245000D01*
X113210000Y-70295000D01*
G36*
X113210000Y-70295000D02*
G01*
X114410000Y-70295000D01*
X114410000Y-71245000D01*
X113210000Y-71245000D01*
X113210000Y-70295000D01*
G37*
X113220000Y-72125000D02*
X114420000Y-72125000D01*
X114420000Y-73075000D01*
X113220000Y-73075000D01*
X113220000Y-72125000D01*
G36*
X113220000Y-72125000D02*
G01*
X114420000Y-72125000D01*
X114420000Y-73075000D01*
X113220000Y-73075000D01*
X113220000Y-72125000D01*
G37*
X113220000Y-74370000D02*
X114420000Y-74370000D01*
X114420000Y-75480000D01*
X113220000Y-75480000D01*
X113220000Y-74370000D01*
G36*
X113220000Y-74370000D02*
G01*
X114420000Y-74370000D01*
X114420000Y-75480000D01*
X113220000Y-75480000D01*
X113220000Y-74370000D01*
G37*
X115350000Y-68435000D02*
X116550000Y-68435000D01*
X116550000Y-69385000D01*
X115350000Y-69385000D01*
X115350000Y-68435000D01*
G36*
X115350000Y-68435000D02*
G01*
X116550000Y-68435000D01*
X116550000Y-69385000D01*
X115350000Y-69385000D01*
X115350000Y-68435000D01*
G37*
X115360000Y-70295000D02*
X116560000Y-70295000D01*
X116560000Y-71245000D01*
X115360000Y-71245000D01*
X115360000Y-70295000D01*
G36*
X115360000Y-70295000D02*
G01*
X116560000Y-70295000D01*
X116560000Y-71245000D01*
X115360000Y-71245000D01*
X115360000Y-70295000D01*
G37*
X115370000Y-72125000D02*
X116570000Y-72125000D01*
X116570000Y-73075000D01*
X115370000Y-73075000D01*
X115370000Y-72125000D01*
G36*
X115370000Y-72125000D02*
G01*
X116570000Y-72125000D01*
X116570000Y-73075000D01*
X115370000Y-73075000D01*
X115370000Y-72125000D01*
G37*
X115400000Y-74350000D02*
X116600000Y-74350000D01*
X116600000Y-75460000D01*
X115400000Y-75460000D01*
X115400000Y-74350000D01*
G36*
X115400000Y-74350000D02*
G01*
X116600000Y-74350000D01*
X116600000Y-75460000D01*
X115400000Y-75460000D01*
X115400000Y-74350000D01*
G37*
X117540000Y-74340000D02*
X118740000Y-74340000D01*
X118740000Y-75460000D01*
X117540000Y-75460000D01*
X117540000Y-74340000D01*
G36*
X117540000Y-74340000D02*
G01*
X118740000Y-74340000D01*
X118740000Y-75460000D01*
X117540000Y-75460000D01*
X117540000Y-74340000D01*
G37*
X117560000Y-68445000D02*
X118760000Y-68445000D01*
X118760000Y-69395000D01*
X117560000Y-69395000D01*
X117560000Y-68445000D01*
G36*
X117560000Y-68445000D02*
G01*
X118760000Y-68445000D01*
X118760000Y-69395000D01*
X117560000Y-69395000D01*
X117560000Y-68445000D01*
G37*
X117570000Y-70305000D02*
X118770000Y-70305000D01*
X118770000Y-71255000D01*
X117570000Y-71255000D01*
X117570000Y-70305000D01*
G36*
X117570000Y-70305000D02*
G01*
X118770000Y-70305000D01*
X118770000Y-71255000D01*
X117570000Y-71255000D01*
X117570000Y-70305000D01*
G37*
X117580000Y-72135000D02*
X118780000Y-72135000D01*
X118780000Y-73085000D01*
X117580000Y-73085000D01*
X117580000Y-72135000D01*
G36*
X117580000Y-72135000D02*
G01*
X118780000Y-72135000D01*
X118780000Y-73085000D01*
X117580000Y-73085000D01*
X117580000Y-72135000D01*
G37*
%TO.C,U6*%
X161200000Y-68435000D02*
X162400000Y-68435000D01*
X162400000Y-69385000D01*
X161200000Y-69385000D01*
X161200000Y-68435000D01*
G36*
X161200000Y-68435000D02*
G01*
X162400000Y-68435000D01*
X162400000Y-69385000D01*
X161200000Y-69385000D01*
X161200000Y-68435000D01*
G37*
X161210000Y-70295000D02*
X162410000Y-70295000D01*
X162410000Y-71245000D01*
X161210000Y-71245000D01*
X161210000Y-70295000D01*
G36*
X161210000Y-70295000D02*
G01*
X162410000Y-70295000D01*
X162410000Y-71245000D01*
X161210000Y-71245000D01*
X161210000Y-70295000D01*
G37*
X161220000Y-72125000D02*
X162420000Y-72125000D01*
X162420000Y-73075000D01*
X161220000Y-73075000D01*
X161220000Y-72125000D01*
G36*
X161220000Y-72125000D02*
G01*
X162420000Y-72125000D01*
X162420000Y-73075000D01*
X161220000Y-73075000D01*
X161220000Y-72125000D01*
G37*
X161220000Y-74370000D02*
X162420000Y-74370000D01*
X162420000Y-75480000D01*
X161220000Y-75480000D01*
X161220000Y-74370000D01*
G36*
X161220000Y-74370000D02*
G01*
X162420000Y-74370000D01*
X162420000Y-75480000D01*
X161220000Y-75480000D01*
X161220000Y-74370000D01*
G37*
X163350000Y-68435000D02*
X164550000Y-68435000D01*
X164550000Y-69385000D01*
X163350000Y-69385000D01*
X163350000Y-68435000D01*
G36*
X163350000Y-68435000D02*
G01*
X164550000Y-68435000D01*
X164550000Y-69385000D01*
X163350000Y-69385000D01*
X163350000Y-68435000D01*
G37*
X163360000Y-70295000D02*
X164560000Y-70295000D01*
X164560000Y-71245000D01*
X163360000Y-71245000D01*
X163360000Y-70295000D01*
G36*
X163360000Y-70295000D02*
G01*
X164560000Y-70295000D01*
X164560000Y-71245000D01*
X163360000Y-71245000D01*
X163360000Y-70295000D01*
G37*
X163370000Y-72125000D02*
X164570000Y-72125000D01*
X164570000Y-73075000D01*
X163370000Y-73075000D01*
X163370000Y-72125000D01*
G36*
X163370000Y-72125000D02*
G01*
X164570000Y-72125000D01*
X164570000Y-73075000D01*
X163370000Y-73075000D01*
X163370000Y-72125000D01*
G37*
X163400000Y-74350000D02*
X164600000Y-74350000D01*
X164600000Y-75460000D01*
X163400000Y-75460000D01*
X163400000Y-74350000D01*
G36*
X163400000Y-74350000D02*
G01*
X164600000Y-74350000D01*
X164600000Y-75460000D01*
X163400000Y-75460000D01*
X163400000Y-74350000D01*
G37*
X165540000Y-74340000D02*
X166740000Y-74340000D01*
X166740000Y-75460000D01*
X165540000Y-75460000D01*
X165540000Y-74340000D01*
G36*
X165540000Y-74340000D02*
G01*
X166740000Y-74340000D01*
X166740000Y-75460000D01*
X165540000Y-75460000D01*
X165540000Y-74340000D01*
G37*
X165560000Y-68445000D02*
X166760000Y-68445000D01*
X166760000Y-69395000D01*
X165560000Y-69395000D01*
X165560000Y-68445000D01*
G36*
X165560000Y-68445000D02*
G01*
X166760000Y-68445000D01*
X166760000Y-69395000D01*
X165560000Y-69395000D01*
X165560000Y-68445000D01*
G37*
X165570000Y-70305000D02*
X166770000Y-70305000D01*
X166770000Y-71255000D01*
X165570000Y-71255000D01*
X165570000Y-70305000D01*
G36*
X165570000Y-70305000D02*
G01*
X166770000Y-70305000D01*
X166770000Y-71255000D01*
X165570000Y-71255000D01*
X165570000Y-70305000D01*
G37*
X165580000Y-72135000D02*
X166780000Y-72135000D01*
X166780000Y-73085000D01*
X165580000Y-73085000D01*
X165580000Y-72135000D01*
G36*
X165580000Y-72135000D02*
G01*
X166780000Y-72135000D01*
X166780000Y-73085000D01*
X165580000Y-73085000D01*
X165580000Y-72135000D01*
G37*
%TO.C,U7*%
X138420000Y-102865000D02*
X137220000Y-102865000D01*
X137220000Y-101915000D01*
X138420000Y-101915000D01*
X138420000Y-102865000D01*
G36*
X138420000Y-102865000D02*
G01*
X137220000Y-102865000D01*
X137220000Y-101915000D01*
X138420000Y-101915000D01*
X138420000Y-102865000D01*
G37*
X138430000Y-104695000D02*
X137230000Y-104695000D01*
X137230000Y-103745000D01*
X138430000Y-103745000D01*
X138430000Y-104695000D01*
G36*
X138430000Y-104695000D02*
G01*
X137230000Y-104695000D01*
X137230000Y-103745000D01*
X138430000Y-103745000D01*
X138430000Y-104695000D01*
G37*
X138440000Y-106555000D02*
X137240000Y-106555000D01*
X137240000Y-105605000D01*
X138440000Y-105605000D01*
X138440000Y-106555000D01*
G36*
X138440000Y-106555000D02*
G01*
X137240000Y-106555000D01*
X137240000Y-105605000D01*
X138440000Y-105605000D01*
X138440000Y-106555000D01*
G37*
X138460000Y-100660000D02*
X137260000Y-100660000D01*
X137260000Y-99540000D01*
X138460000Y-99540000D01*
X138460000Y-100660000D01*
G36*
X138460000Y-100660000D02*
G01*
X137260000Y-100660000D01*
X137260000Y-99540000D01*
X138460000Y-99540000D01*
X138460000Y-100660000D01*
G37*
X140600000Y-100650000D02*
X139400000Y-100650000D01*
X139400000Y-99540000D01*
X140600000Y-99540000D01*
X140600000Y-100650000D01*
G36*
X140600000Y-100650000D02*
G01*
X139400000Y-100650000D01*
X139400000Y-99540000D01*
X140600000Y-99540000D01*
X140600000Y-100650000D01*
G37*
X140630000Y-102875000D02*
X139430000Y-102875000D01*
X139430000Y-101925000D01*
X140630000Y-101925000D01*
X140630000Y-102875000D01*
G36*
X140630000Y-102875000D02*
G01*
X139430000Y-102875000D01*
X139430000Y-101925000D01*
X140630000Y-101925000D01*
X140630000Y-102875000D01*
G37*
X140640000Y-104705000D02*
X139440000Y-104705000D01*
X139440000Y-103755000D01*
X140640000Y-103755000D01*
X140640000Y-104705000D01*
G36*
X140640000Y-104705000D02*
G01*
X139440000Y-104705000D01*
X139440000Y-103755000D01*
X140640000Y-103755000D01*
X140640000Y-104705000D01*
G37*
X140650000Y-106565000D02*
X139450000Y-106565000D01*
X139450000Y-105615000D01*
X140650000Y-105615000D01*
X140650000Y-106565000D01*
G36*
X140650000Y-106565000D02*
G01*
X139450000Y-106565000D01*
X139450000Y-105615000D01*
X140650000Y-105615000D01*
X140650000Y-106565000D01*
G37*
X142780000Y-100630000D02*
X141580000Y-100630000D01*
X141580000Y-99520000D01*
X142780000Y-99520000D01*
X142780000Y-100630000D01*
G36*
X142780000Y-100630000D02*
G01*
X141580000Y-100630000D01*
X141580000Y-99520000D01*
X142780000Y-99520000D01*
X142780000Y-100630000D01*
G37*
X142780000Y-102875000D02*
X141580000Y-102875000D01*
X141580000Y-101925000D01*
X142780000Y-101925000D01*
X142780000Y-102875000D01*
G36*
X142780000Y-102875000D02*
G01*
X141580000Y-102875000D01*
X141580000Y-101925000D01*
X142780000Y-101925000D01*
X142780000Y-102875000D01*
G37*
X142790000Y-104705000D02*
X141590000Y-104705000D01*
X141590000Y-103755000D01*
X142790000Y-103755000D01*
X142790000Y-104705000D01*
G36*
X142790000Y-104705000D02*
G01*
X141590000Y-104705000D01*
X141590000Y-103755000D01*
X142790000Y-103755000D01*
X142790000Y-104705000D01*
G37*
X142800000Y-106565000D02*
X141600000Y-106565000D01*
X141600000Y-105615000D01*
X142800000Y-105615000D01*
X142800000Y-106565000D01*
G36*
X142800000Y-106565000D02*
G01*
X141600000Y-106565000D01*
X141600000Y-105615000D01*
X142800000Y-105615000D01*
X142800000Y-106565000D01*
G37*
%TD*%
D11*
%TO.C,C158*%
X194500000Y-107020000D03*
X194500000Y-107980000D03*
%TD*%
%TO.C,C98*%
X158900000Y-97220000D03*
X158900000Y-98180000D03*
%TD*%
D12*
%TO.C,R29*%
X81508000Y-104506000D03*
X82528000Y-104506000D03*
%TD*%
D13*
%TO.C,C142*%
X184980000Y-96200000D03*
X184020000Y-96200000D03*
%TD*%
D12*
%TO.C,R45*%
X193490000Y-102000000D03*
X194510000Y-102000000D03*
%TD*%
D14*
%TO.C,C56*%
X157500001Y-67980000D03*
X157500001Y-67020000D03*
%TD*%
D13*
%TO.C,C109*%
X184980000Y-78800000D03*
X184020000Y-78800000D03*
%TD*%
D14*
%TO.C,C69*%
X147300000Y-98180000D03*
X147300000Y-97220000D03*
%TD*%
D11*
%TO.C,C22*%
X122500000Y-107020000D03*
X122500000Y-107980000D03*
%TD*%
D15*
%TO.C,R40*%
X110510000Y-72999999D03*
X109490000Y-72999999D03*
%TD*%
D16*
%TO.C,C125*%
X119019999Y-78800000D03*
X119979999Y-78800000D03*
%TD*%
D14*
%TO.C,C141*%
X109500001Y-67980000D03*
X109500001Y-67020000D03*
%TD*%
%TO.C,C139*%
X121500000Y-67980001D03*
X121500000Y-67020001D03*
%TD*%
D11*
%TO.C,C64*%
X134900000Y-97220000D03*
X134900000Y-98180000D03*
%TD*%
%TO.C,C118*%
X182900000Y-76819999D03*
X182900000Y-77779999D03*
%TD*%
D13*
%TO.C,C93*%
X160980000Y-95200000D03*
X160020000Y-95200000D03*
%TD*%
D17*
%TO.C,U10*%
X191916000Y-75514000D03*
X191916000Y-75012000D03*
X191916000Y-74510000D03*
X191916000Y-74008000D03*
X191916000Y-73506000D03*
X191916000Y-73004000D03*
X191916000Y-72502000D03*
X191916000Y-72000000D03*
X191916000Y-71498000D03*
X191916000Y-70996000D03*
X191916000Y-70494000D03*
X191916000Y-69992000D03*
X191916000Y-69490000D03*
X191916000Y-68988000D03*
X191916000Y-68486000D03*
X184084000Y-68486000D03*
X184084000Y-68988000D03*
X184084000Y-69490000D03*
X184084000Y-69992000D03*
X184084000Y-70494000D03*
X184084000Y-70996000D03*
X184084000Y-71498000D03*
X184084000Y-72000000D03*
X184084000Y-72502000D03*
X184084000Y-73004000D03*
X184084000Y-73506000D03*
X184084000Y-74008000D03*
X184084000Y-74510000D03*
X184084000Y-75012000D03*
X184084000Y-75514000D03*
%TD*%
D14*
%TO.C,C152*%
X193100000Y-98180000D03*
X193100000Y-97220000D03*
%TD*%
D16*
%TO.C,C58*%
X143020000Y-96200000D03*
X143980000Y-96200000D03*
%TD*%
D11*
%TO.C,C20*%
X110500000Y-107020000D03*
X110500000Y-107980000D03*
%TD*%
D14*
%TO.C,C88*%
X145500000Y-67980001D03*
X145500000Y-67020001D03*
%TD*%
%TO.C,C124*%
X181500001Y-67980000D03*
X181500001Y-67020000D03*
%TD*%
D16*
%TO.C,C159*%
X95019999Y-78800000D03*
X95979999Y-78800000D03*
%TD*%
D12*
%TO.C,R44*%
X121490000Y-70500001D03*
X122510000Y-70500001D03*
%TD*%
D14*
%TO.C,C138*%
X122500000Y-67980001D03*
X122500000Y-67020001D03*
%TD*%
D11*
%TO.C,C148*%
X181800000Y-97220000D03*
X181800000Y-98180000D03*
%TD*%
D14*
%TO.C,C166*%
X97099999Y-77780000D03*
X97099999Y-76820000D03*
%TD*%
D13*
%TO.C,C8*%
X112980000Y-95200000D03*
X112020000Y-95200000D03*
%TD*%
D11*
%TO.C,C19*%
X109500000Y-107020000D03*
X109500000Y-107980000D03*
%TD*%
D16*
%TO.C,C66*%
X143020000Y-97200000D03*
X143980000Y-97200000D03*
%TD*%
D13*
%TO.C,C167*%
X95979999Y-77800000D03*
X95019999Y-77800000D03*
%TD*%
%TO.C,C6*%
X112980000Y-96200000D03*
X112020000Y-96200000D03*
%TD*%
D15*
%TO.C,R49*%
X182510000Y-104500000D03*
X181490000Y-104500000D03*
%TD*%
D11*
%TO.C,C11*%
X108700000Y-97220000D03*
X108700000Y-98180000D03*
%TD*%
D14*
%TO.C,C140*%
X110500001Y-67980000D03*
X110500001Y-67020000D03*
%TD*%
D18*
%TO.C,U12*%
X184084000Y-99486000D03*
X184084000Y-99988000D03*
X184084000Y-100490000D03*
X184084000Y-100992000D03*
X184084000Y-101494000D03*
X184084000Y-101996000D03*
X184084000Y-102498000D03*
X184084000Y-103000000D03*
X184084000Y-103502000D03*
X184084000Y-104004000D03*
X184084000Y-104506000D03*
X184084000Y-105008000D03*
X184084000Y-105510000D03*
X184084000Y-106012000D03*
X184084000Y-106514000D03*
X191916000Y-106514000D03*
X191916000Y-106012000D03*
X191916000Y-105510000D03*
X191916000Y-105008000D03*
X191916000Y-104506000D03*
X191916000Y-104004000D03*
X191916000Y-103502000D03*
X191916000Y-103000000D03*
X191916000Y-102498000D03*
X191916000Y-101996000D03*
X191916000Y-101494000D03*
X191916000Y-100992000D03*
X191916000Y-100490000D03*
X191916000Y-99988000D03*
X191916000Y-99486000D03*
%TD*%
D13*
%TO.C,C75*%
X136980000Y-78800000D03*
X136020000Y-78800000D03*
%TD*%
D11*
%TO.C,C36*%
X85500000Y-107020000D03*
X85500000Y-107980000D03*
%TD*%
%TO.C,C73*%
X146500000Y-107020000D03*
X146500000Y-107980000D03*
%TD*%
%TO.C,C12*%
X109800000Y-97220000D03*
X109800000Y-98180000D03*
%TD*%
%TO.C,C28*%
X84700000Y-97220000D03*
X84700000Y-98180000D03*
%TD*%
D18*
%TO.C,U4*%
X112084000Y-99486000D03*
X112084000Y-99988000D03*
X112084000Y-100490000D03*
X112084000Y-100992000D03*
X112084000Y-101494000D03*
X112084000Y-101996000D03*
X112084000Y-102498000D03*
X112084000Y-103000000D03*
X112084000Y-103502000D03*
X112084000Y-104004000D03*
X112084000Y-104506000D03*
X112084000Y-105008000D03*
X112084000Y-105510000D03*
X112084000Y-106012000D03*
X112084000Y-106514000D03*
X119916000Y-106514000D03*
X119916000Y-106012000D03*
X119916000Y-105510000D03*
X119916000Y-105008000D03*
X119916000Y-104506000D03*
X119916000Y-104004000D03*
X119916000Y-103502000D03*
X119916000Y-103000000D03*
X119916000Y-102498000D03*
X119916000Y-101996000D03*
X119916000Y-101494000D03*
X119916000Y-100992000D03*
X119916000Y-100490000D03*
X119916000Y-99988000D03*
X119916000Y-99486000D03*
%TD*%
D19*
%TO.C,R1*%
X74300000Y-86400000D03*
X72300000Y-86400000D03*
%TD*%
D11*
%TO.C,C156*%
X182500000Y-107020000D03*
X182500000Y-107980000D03*
%TD*%
D16*
%TO.C,C99*%
X160020000Y-97200000D03*
X160980000Y-97200000D03*
%TD*%
D11*
%TO.C,C169*%
X86900000Y-76819999D03*
X86900000Y-77779999D03*
%TD*%
D16*
%TO.C,C108*%
X191019999Y-78800000D03*
X191979999Y-78800000D03*
%TD*%
D13*
%TO.C,C133*%
X119979999Y-77800000D03*
X119019999Y-77800000D03*
%TD*%
D12*
%TO.C,R21*%
X145490000Y-103900000D03*
X146510000Y-103900000D03*
%TD*%
D13*
%TO.C,C57*%
X136980000Y-96200000D03*
X136020000Y-96200000D03*
%TD*%
D14*
%TO.C,C123*%
X182500001Y-67980000D03*
X182500001Y-67020000D03*
%TD*%
D16*
%TO.C,C9*%
X119020000Y-95200000D03*
X119980000Y-95200000D03*
%TD*%
D15*
%TO.C,R19*%
X134510000Y-102400000D03*
X133490000Y-102400000D03*
%TD*%
D12*
%TO.C,R20*%
X147590000Y-103100000D03*
X148610000Y-103100000D03*
%TD*%
D11*
%TO.C,C62*%
X132700000Y-97220000D03*
X132700000Y-98180000D03*
%TD*%
D14*
%TO.C,C101*%
X169100000Y-98180000D03*
X169100000Y-97220000D03*
%TD*%
%TO.C,C172*%
X98500000Y-67980001D03*
X98500000Y-67020001D03*
%TD*%
D13*
%TO.C,C111*%
X184980000Y-79800000D03*
X184020000Y-79800000D03*
%TD*%
D15*
%TO.C,R38*%
X182510000Y-71100000D03*
X181490000Y-71100000D03*
%TD*%
D11*
%TO.C,C157*%
X193500000Y-107020000D03*
X193500000Y-107980000D03*
%TD*%
D12*
%TO.C,R36*%
X193490000Y-72600000D03*
X194510000Y-72600000D03*
%TD*%
D14*
%TO.C,C46*%
X170199999Y-77780000D03*
X170199999Y-76820000D03*
%TD*%
D12*
%TO.C,R8*%
X97490000Y-102000000D03*
X98510000Y-102000000D03*
%TD*%
D14*
%TO.C,C35*%
X99300000Y-98180000D03*
X99300000Y-97220000D03*
%TD*%
%TO.C,C68*%
X146200000Y-98180000D03*
X146200000Y-97220000D03*
%TD*%
D16*
%TO.C,C14*%
X112020000Y-97200000D03*
X112980000Y-97200000D03*
%TD*%
%TO.C,C92*%
X167020000Y-96200000D03*
X167980000Y-96200000D03*
%TD*%
D12*
%TO.C,R54*%
X97490000Y-70500001D03*
X98510000Y-70500001D03*
%TD*%
D11*
%TO.C,C37*%
X86500000Y-107020000D03*
X86500000Y-107980000D03*
%TD*%
D17*
%TO.C,U8*%
X143916000Y-75514000D03*
X143916000Y-75012000D03*
X143916000Y-74510000D03*
X143916000Y-74008000D03*
X143916000Y-73506000D03*
X143916000Y-73004000D03*
X143916000Y-72502000D03*
X143916000Y-72000000D03*
X143916000Y-71498000D03*
X143916000Y-70996000D03*
X143916000Y-70494000D03*
X143916000Y-69992000D03*
X143916000Y-69490000D03*
X143916000Y-68988000D03*
X143916000Y-68486000D03*
X136084000Y-68486000D03*
X136084000Y-68988000D03*
X136084000Y-69490000D03*
X136084000Y-69992000D03*
X136084000Y-70494000D03*
X136084000Y-70996000D03*
X136084000Y-71498000D03*
X136084000Y-72000000D03*
X136084000Y-72502000D03*
X136084000Y-73004000D03*
X136084000Y-73506000D03*
X136084000Y-74008000D03*
X136084000Y-74510000D03*
X136084000Y-75012000D03*
X136084000Y-75514000D03*
%TD*%
D15*
%TO.C,R16*%
X158510000Y-71100000D03*
X157490000Y-71100000D03*
%TD*%
D14*
%TO.C,C132*%
X121099999Y-77780000D03*
X121099999Y-76820000D03*
%TD*%
D11*
%TO.C,C147*%
X180700000Y-97220000D03*
X180700000Y-98180000D03*
%TD*%
D14*
%TO.C,C80*%
X146199999Y-77780000D03*
X146199999Y-76820000D03*
%TD*%
D12*
%TO.C,R11*%
X97490000Y-103900000D03*
X98510000Y-103900000D03*
%TD*%
D16*
%TO.C,C40*%
X167019999Y-78800000D03*
X167979999Y-78800000D03*
%TD*%
D11*
%TO.C,C70*%
X133500000Y-107020000D03*
X133500000Y-107980000D03*
%TD*%
D20*
%TO.C,TH2*%
X164000000Y-88325000D03*
X164000000Y-86675000D03*
%TD*%
D17*
%TO.C,U13*%
X95916000Y-75514000D03*
X95916000Y-75012000D03*
X95916000Y-74510000D03*
X95916000Y-74008000D03*
X95916000Y-73506000D03*
X95916000Y-73004000D03*
X95916000Y-72502000D03*
X95916000Y-72000000D03*
X95916000Y-71498000D03*
X95916000Y-70996000D03*
X95916000Y-70494000D03*
X95916000Y-69992000D03*
X95916000Y-69490000D03*
X95916000Y-68988000D03*
X95916000Y-68486000D03*
X88084000Y-68486000D03*
X88084000Y-68988000D03*
X88084000Y-69490000D03*
X88084000Y-69992000D03*
X88084000Y-70494000D03*
X88084000Y-70996000D03*
X88084000Y-71498000D03*
X88084000Y-72000000D03*
X88084000Y-72502000D03*
X88084000Y-73004000D03*
X88084000Y-73506000D03*
X88084000Y-74008000D03*
X88084000Y-74510000D03*
X88084000Y-75012000D03*
X88084000Y-75514000D03*
%TD*%
D12*
%TO.C,R47*%
X195590000Y-103100000D03*
X196610000Y-103100000D03*
%TD*%
D13*
%TO.C,C23*%
X88980000Y-96200000D03*
X88020000Y-96200000D03*
%TD*%
D12*
%TO.C,R18*%
X145490000Y-102000000D03*
X146510000Y-102000000D03*
%TD*%
D19*
%TO.C,R2*%
X74300000Y-88500000D03*
X72300000Y-88500000D03*
%TD*%
D12*
%TO.C,R27*%
X145490000Y-70500001D03*
X146510000Y-70500001D03*
%TD*%
%TO.C,R33*%
X169490000Y-103900000D03*
X170510000Y-103900000D03*
%TD*%
D16*
%TO.C,C7*%
X119020000Y-96200000D03*
X119980000Y-96200000D03*
%TD*%
D11*
%TO.C,C149*%
X182900000Y-97220000D03*
X182900000Y-98180000D03*
%TD*%
D15*
%TO.C,R4*%
X110510000Y-102400000D03*
X109490000Y-102400000D03*
%TD*%
D14*
%TO.C,C114*%
X194199999Y-77780000D03*
X194199999Y-76820000D03*
%TD*%
%TO.C,C90*%
X133500001Y-67980000D03*
X133500001Y-67020000D03*
%TD*%
D12*
%TO.C,R41*%
X121490000Y-72600000D03*
X122510000Y-72600000D03*
%TD*%
D14*
%TO.C,C174*%
X86500001Y-67980000D03*
X86500001Y-67020000D03*
%TD*%
D12*
%TO.C,R51*%
X97490000Y-72600000D03*
X98510000Y-72600000D03*
%TD*%
D13*
%TO.C,C160*%
X88980000Y-78800000D03*
X88020000Y-78800000D03*
%TD*%
D14*
%TO.C,C53*%
X170500000Y-67980001D03*
X170500000Y-67020001D03*
%TD*%
D11*
%TO.C,C135*%
X110900000Y-76819999D03*
X110900000Y-77779999D03*
%TD*%
D16*
%TO.C,C32*%
X95020000Y-97200000D03*
X95980000Y-97200000D03*
%TD*%
D11*
%TO.C,C119*%
X181800000Y-76819999D03*
X181800000Y-77779999D03*
%TD*%
D14*
%TO.C,C87*%
X146500000Y-67980001D03*
X146500000Y-67020001D03*
%TD*%
D15*
%TO.C,R12*%
X86510000Y-104500000D03*
X85490000Y-104500000D03*
%TD*%
%TO.C,R15*%
X156410000Y-71900000D03*
X155390000Y-71900000D03*
%TD*%
D14*
%TO.C,C165*%
X98199999Y-77780000D03*
X98199999Y-76820000D03*
%TD*%
D18*
%TO.C,U9*%
X160084000Y-99486000D03*
X160084000Y-99988000D03*
X160084000Y-100490000D03*
X160084000Y-100992000D03*
X160084000Y-101494000D03*
X160084000Y-101996000D03*
X160084000Y-102498000D03*
X160084000Y-103000000D03*
X160084000Y-103502000D03*
X160084000Y-104004000D03*
X160084000Y-104506000D03*
X160084000Y-105008000D03*
X160084000Y-105510000D03*
X160084000Y-106012000D03*
X160084000Y-106514000D03*
X167916000Y-106514000D03*
X167916000Y-106012000D03*
X167916000Y-105510000D03*
X167916000Y-105008000D03*
X167916000Y-104506000D03*
X167916000Y-104004000D03*
X167916000Y-103502000D03*
X167916000Y-103000000D03*
X167916000Y-102498000D03*
X167916000Y-101996000D03*
X167916000Y-101494000D03*
X167916000Y-100992000D03*
X167916000Y-100490000D03*
X167916000Y-99988000D03*
X167916000Y-99486000D03*
%TD*%
D13*
%TO.C,C116*%
X191979999Y-77800000D03*
X191019999Y-77800000D03*
%TD*%
D12*
%TO.C,R6*%
X121490000Y-103900000D03*
X122510000Y-103900000D03*
%TD*%
D13*
%TO.C,C126*%
X112980000Y-78800000D03*
X112020000Y-78800000D03*
%TD*%
D16*
%TO.C,C42*%
X167019999Y-79800000D03*
X167979999Y-79800000D03*
%TD*%
D18*
%TO.C,U5*%
X88084000Y-99486000D03*
X88084000Y-99988000D03*
X88084000Y-100490000D03*
X88084000Y-100992000D03*
X88084000Y-101494000D03*
X88084000Y-101996000D03*
X88084000Y-102498000D03*
X88084000Y-103000000D03*
X88084000Y-103502000D03*
X88084000Y-104004000D03*
X88084000Y-104506000D03*
X88084000Y-105008000D03*
X88084000Y-105510000D03*
X88084000Y-106012000D03*
X88084000Y-106514000D03*
X95916000Y-106514000D03*
X95916000Y-106012000D03*
X95916000Y-105510000D03*
X95916000Y-105008000D03*
X95916000Y-104506000D03*
X95916000Y-104004000D03*
X95916000Y-103502000D03*
X95916000Y-103000000D03*
X95916000Y-102498000D03*
X95916000Y-101996000D03*
X95916000Y-101494000D03*
X95916000Y-100992000D03*
X95916000Y-100490000D03*
X95916000Y-99988000D03*
X95916000Y-99486000D03*
%TD*%
D13*
%TO.C,C134*%
X112980000Y-77800000D03*
X112020000Y-77800000D03*
%TD*%
%TO.C,C43*%
X160980000Y-79800000D03*
X160020000Y-79800000D03*
%TD*%
D15*
%TO.C,R7*%
X110510000Y-104500000D03*
X109490000Y-104500000D03*
%TD*%
D12*
%TO.C,R48*%
X193490000Y-103900000D03*
X194510000Y-103900000D03*
%TD*%
%TO.C,R3*%
X121490000Y-102000000D03*
X122510000Y-102000000D03*
%TD*%
D13*
%TO.C,C59*%
X136980000Y-95200000D03*
X136020000Y-95200000D03*
%TD*%
D14*
%TO.C,C153*%
X194200000Y-98180000D03*
X194200000Y-97220000D03*
%TD*%
D16*
%TO.C,C26*%
X95020000Y-95200000D03*
X95980000Y-95200000D03*
%TD*%
D11*
%TO.C,C96*%
X156700000Y-97220000D03*
X156700000Y-98180000D03*
%TD*%
%TO.C,C51*%
X157800000Y-76819999D03*
X157800000Y-77779999D03*
%TD*%
D14*
%TO.C,C113*%
X195299999Y-77780000D03*
X195299999Y-76820000D03*
%TD*%
D12*
%TO.C,R32*%
X171590000Y-103100000D03*
X172610000Y-103100000D03*
%TD*%
D15*
%TO.C,R50*%
X86510000Y-72999999D03*
X85490000Y-72999999D03*
%TD*%
D14*
%TO.C,C67*%
X145100000Y-98180000D03*
X145100000Y-97220000D03*
%TD*%
D12*
%TO.C,R39*%
X193490000Y-70500001D03*
X194510000Y-70500001D03*
%TD*%
D14*
%TO.C,C122*%
X193500000Y-67980001D03*
X193500000Y-67020001D03*
%TD*%
D16*
%TO.C,C100*%
X167020000Y-97200000D03*
X167980000Y-97200000D03*
%TD*%
D14*
%TO.C,C103*%
X171300000Y-98180000D03*
X171300000Y-97220000D03*
%TD*%
D16*
%TO.C,C150*%
X184020000Y-97200000D03*
X184980000Y-97200000D03*
%TD*%
%TO.C,C161*%
X95019999Y-79800000D03*
X95979999Y-79800000D03*
%TD*%
D13*
%TO.C,C162*%
X88980000Y-79800000D03*
X88020000Y-79800000D03*
%TD*%
D15*
%TO.C,R37*%
X180410000Y-71900000D03*
X179390000Y-71900000D03*
%TD*%
D16*
%TO.C,C24*%
X95020000Y-96200000D03*
X95980000Y-96200000D03*
%TD*%
D11*
%TO.C,C120*%
X180700000Y-76819999D03*
X180700000Y-77779999D03*
%TD*%
D13*
%TO.C,C117*%
X184980000Y-77800000D03*
X184020000Y-77800000D03*
%TD*%
D15*
%TO.C,R53*%
X86510000Y-71100000D03*
X85490000Y-71100000D03*
%TD*%
D16*
%TO.C,C76*%
X143019999Y-79800000D03*
X143979999Y-79800000D03*
%TD*%
D17*
%TO.C,U11*%
X119916000Y-75514000D03*
X119916000Y-75012000D03*
X119916000Y-74510000D03*
X119916000Y-74008000D03*
X119916000Y-73506000D03*
X119916000Y-73004000D03*
X119916000Y-72502000D03*
X119916000Y-72000000D03*
X119916000Y-71498000D03*
X119916000Y-70996000D03*
X119916000Y-70494000D03*
X119916000Y-69992000D03*
X119916000Y-69490000D03*
X119916000Y-68988000D03*
X119916000Y-68486000D03*
X112084000Y-68486000D03*
X112084000Y-68988000D03*
X112084000Y-69490000D03*
X112084000Y-69992000D03*
X112084000Y-70494000D03*
X112084000Y-70996000D03*
X112084000Y-71498000D03*
X112084000Y-72000000D03*
X112084000Y-72502000D03*
X112084000Y-73004000D03*
X112084000Y-73506000D03*
X112084000Y-74008000D03*
X112084000Y-74510000D03*
X112084000Y-75012000D03*
X112084000Y-75514000D03*
%TD*%
D11*
%TO.C,C136*%
X109800000Y-76819999D03*
X109800000Y-77779999D03*
%TD*%
D14*
%TO.C,C47*%
X169099999Y-77780000D03*
X169099999Y-76820000D03*
%TD*%
D16*
%TO.C,C74*%
X143019999Y-78800000D03*
X143979999Y-78800000D03*
%TD*%
D11*
%TO.C,C171*%
X84700000Y-76819999D03*
X84700000Y-77779999D03*
%TD*%
%TO.C,C21*%
X121500000Y-107020000D03*
X121500000Y-107980000D03*
%TD*%
D14*
%TO.C,C81*%
X145099999Y-77780000D03*
X145099999Y-76820000D03*
%TD*%
D11*
%TO.C,C72*%
X145500000Y-107020000D03*
X145500000Y-107980000D03*
%TD*%
D15*
%TO.C,R43*%
X110510000Y-71100000D03*
X109490000Y-71100000D03*
%TD*%
D14*
%TO.C,C54*%
X169500000Y-67980001D03*
X169500000Y-67020001D03*
%TD*%
D11*
%TO.C,C107*%
X170500000Y-107020000D03*
X170500000Y-107980000D03*
%TD*%
D14*
%TO.C,C33*%
X97100000Y-98180000D03*
X97100000Y-97220000D03*
%TD*%
D12*
%TO.C,R10*%
X99590000Y-103100000D03*
X100610000Y-103100000D03*
%TD*%
D16*
%TO.C,C31*%
X88020000Y-97200000D03*
X88980000Y-97200000D03*
%TD*%
D14*
%TO.C,C18*%
X123300000Y-98180000D03*
X123300000Y-97220000D03*
%TD*%
D13*
%TO.C,C144*%
X184980000Y-95200000D03*
X184020000Y-95200000D03*
%TD*%
D14*
%TO.C,C115*%
X193099999Y-77780000D03*
X193099999Y-76820000D03*
%TD*%
D11*
%TO.C,C38*%
X97500000Y-107020000D03*
X97500000Y-107980000D03*
%TD*%
D17*
%TO.C,U6*%
X167916000Y-75514000D03*
X167916000Y-75012000D03*
X167916000Y-74510000D03*
X167916000Y-74008000D03*
X167916000Y-73506000D03*
X167916000Y-73004000D03*
X167916000Y-72502000D03*
X167916000Y-72000000D03*
X167916000Y-71498000D03*
X167916000Y-70996000D03*
X167916000Y-70494000D03*
X167916000Y-69992000D03*
X167916000Y-69490000D03*
X167916000Y-68988000D03*
X167916000Y-68486000D03*
X160084000Y-68486000D03*
X160084000Y-68988000D03*
X160084000Y-69490000D03*
X160084000Y-69992000D03*
X160084000Y-70494000D03*
X160084000Y-70996000D03*
X160084000Y-71498000D03*
X160084000Y-72000000D03*
X160084000Y-72502000D03*
X160084000Y-73004000D03*
X160084000Y-73506000D03*
X160084000Y-74008000D03*
X160084000Y-74510000D03*
X160084000Y-75012000D03*
X160084000Y-75514000D03*
%TD*%
D11*
%TO.C,C50*%
X158900000Y-76819999D03*
X158900000Y-77779999D03*
%TD*%
D15*
%TO.C,R25*%
X132410000Y-71900000D03*
X131390000Y-71900000D03*
%TD*%
D13*
%TO.C,C77*%
X136980000Y-79800000D03*
X136020000Y-79800000D03*
%TD*%
%TO.C,C49*%
X160980000Y-77800000D03*
X160020000Y-77800000D03*
%TD*%
D14*
%TO.C,C16*%
X121100000Y-98180000D03*
X121100000Y-97220000D03*
%TD*%
D20*
%TO.C,TH1*%
X116000000Y-88325000D03*
X116000000Y-86675000D03*
%TD*%
D13*
%TO.C,C128*%
X112980000Y-79800000D03*
X112020000Y-79800000D03*
%TD*%
D15*
%TO.C,R34*%
X158510000Y-104500000D03*
X157490000Y-104500000D03*
%TD*%
%TO.C,R42*%
X108410000Y-71900000D03*
X107390000Y-71900000D03*
%TD*%
D11*
%TO.C,C84*%
X134900000Y-76819999D03*
X134900000Y-77779999D03*
%TD*%
%TO.C,C63*%
X133800000Y-97220000D03*
X133800000Y-98180000D03*
%TD*%
D14*
%TO.C,C45*%
X171299999Y-77780000D03*
X171299999Y-76820000D03*
%TD*%
D12*
%TO.C,R5*%
X123590000Y-103100000D03*
X124610000Y-103100000D03*
%TD*%
D11*
%TO.C,C104*%
X157500000Y-107020000D03*
X157500000Y-107980000D03*
%TD*%
%TO.C,C170*%
X85800000Y-76819999D03*
X85800000Y-77779999D03*
%TD*%
D14*
%TO.C,C34*%
X98200000Y-98180000D03*
X98200000Y-97220000D03*
%TD*%
%TO.C,C17*%
X122200000Y-98180000D03*
X122200000Y-97220000D03*
%TD*%
D16*
%TO.C,C143*%
X191020000Y-96200000D03*
X191980000Y-96200000D03*
%TD*%
%TO.C,C110*%
X191019999Y-79800000D03*
X191979999Y-79800000D03*
%TD*%
%TO.C,C15*%
X119020000Y-97200000D03*
X119980000Y-97200000D03*
%TD*%
D14*
%TO.C,C175*%
X85500001Y-67980000D03*
X85500001Y-67020000D03*
%TD*%
D12*
%TO.C,R24*%
X145490000Y-72600000D03*
X146510000Y-72600000D03*
%TD*%
D13*
%TO.C,C91*%
X160980000Y-96200000D03*
X160020000Y-96200000D03*
%TD*%
D15*
%TO.C,R52*%
X84410000Y-71900000D03*
X83390000Y-71900000D03*
%TD*%
D11*
%TO.C,C39*%
X98500000Y-107020000D03*
X98500000Y-107980000D03*
%TD*%
%TO.C,C85*%
X133800000Y-76819999D03*
X133800000Y-77779999D03*
%TD*%
D16*
%TO.C,C145*%
X191020000Y-95200000D03*
X191980000Y-95200000D03*
%TD*%
D13*
%TO.C,C25*%
X88980000Y-95200000D03*
X88020000Y-95200000D03*
%TD*%
%TO.C,C48*%
X167979999Y-77800000D03*
X167019999Y-77800000D03*
%TD*%
%TO.C,C83*%
X136980000Y-77800000D03*
X136020000Y-77800000D03*
%TD*%
D12*
%TO.C,R28*%
X81090000Y-72900000D03*
X82110000Y-72900000D03*
%TD*%
D14*
%TO.C,C164*%
X99299999Y-77780000D03*
X99299999Y-76820000D03*
%TD*%
D16*
%TO.C,C127*%
X119019999Y-79800000D03*
X119979999Y-79800000D03*
%TD*%
D11*
%TO.C,C52*%
X156700000Y-76819999D03*
X156700000Y-77779999D03*
%TD*%
D15*
%TO.C,R23*%
X134510000Y-72999999D03*
X133490000Y-72999999D03*
%TD*%
D14*
%TO.C,C131*%
X122199999Y-77780000D03*
X122199999Y-76820000D03*
%TD*%
D11*
%TO.C,C30*%
X86900000Y-97220000D03*
X86900000Y-98180000D03*
%TD*%
D14*
%TO.C,C173*%
X97500000Y-67980001D03*
X97500000Y-67020001D03*
%TD*%
D16*
%TO.C,C94*%
X167020000Y-95200000D03*
X167980000Y-95200000D03*
%TD*%
D18*
%TO.C,U7*%
X136084000Y-99486000D03*
X136084000Y-99988000D03*
X136084000Y-100490000D03*
X136084000Y-100992000D03*
X136084000Y-101494000D03*
X136084000Y-101996000D03*
X136084000Y-102498000D03*
X136084000Y-103000000D03*
X136084000Y-103502000D03*
X136084000Y-104004000D03*
X136084000Y-104506000D03*
X136084000Y-105008000D03*
X136084000Y-105510000D03*
X136084000Y-106012000D03*
X136084000Y-106514000D03*
X143916000Y-106514000D03*
X143916000Y-106012000D03*
X143916000Y-105510000D03*
X143916000Y-105008000D03*
X143916000Y-104506000D03*
X143916000Y-104004000D03*
X143916000Y-103502000D03*
X143916000Y-103000000D03*
X143916000Y-102498000D03*
X143916000Y-101996000D03*
X143916000Y-101494000D03*
X143916000Y-100992000D03*
X143916000Y-100490000D03*
X143916000Y-99988000D03*
X143916000Y-99486000D03*
%TD*%
D14*
%TO.C,C121*%
X194500000Y-67980001D03*
X194500000Y-67020001D03*
%TD*%
D11*
%TO.C,C29*%
X85800000Y-97220000D03*
X85800000Y-98180000D03*
%TD*%
%TO.C,C86*%
X132700000Y-76819999D03*
X132700000Y-77779999D03*
%TD*%
D15*
%TO.C,R35*%
X182510000Y-72999999D03*
X181490000Y-72999999D03*
%TD*%
D11*
%TO.C,C105*%
X158500000Y-107020000D03*
X158500000Y-107980000D03*
%TD*%
%TO.C,C97*%
X157800000Y-97220000D03*
X157800000Y-98180000D03*
%TD*%
D15*
%TO.C,R22*%
X134510000Y-104500000D03*
X133490000Y-104500000D03*
%TD*%
D12*
%TO.C,R14*%
X169490000Y-72600000D03*
X170510000Y-72600000D03*
%TD*%
D11*
%TO.C,C13*%
X110900000Y-97220000D03*
X110900000Y-98180000D03*
%TD*%
D15*
%TO.C,R13*%
X158510000Y-72999999D03*
X157490000Y-72999999D03*
%TD*%
%TO.C,R31*%
X158510000Y-102400000D03*
X157490000Y-102400000D03*
%TD*%
D14*
%TO.C,C89*%
X134500001Y-67980000D03*
X134500001Y-67020000D03*
%TD*%
D15*
%TO.C,R9*%
X86510000Y-102400000D03*
X85490000Y-102400000D03*
%TD*%
D14*
%TO.C,C154*%
X195300000Y-98180000D03*
X195300000Y-97220000D03*
%TD*%
D11*
%TO.C,C137*%
X108700000Y-76819999D03*
X108700000Y-77779999D03*
%TD*%
D13*
%TO.C,C41*%
X160980000Y-78800000D03*
X160020000Y-78800000D03*
%TD*%
D11*
%TO.C,C71*%
X134500000Y-107020000D03*
X134500000Y-107980000D03*
%TD*%
%TO.C,C106*%
X169500000Y-107020000D03*
X169500000Y-107980000D03*
%TD*%
D13*
%TO.C,C82*%
X143979999Y-77800000D03*
X143019999Y-77800000D03*
%TD*%
D15*
%TO.C,R46*%
X182510000Y-102400000D03*
X181490000Y-102400000D03*
%TD*%
D16*
%TO.C,C60*%
X143020000Y-95200000D03*
X143980000Y-95200000D03*
%TD*%
D12*
%TO.C,R30*%
X169490000Y-102000000D03*
X170510000Y-102000000D03*
%TD*%
D14*
%TO.C,C55*%
X158500001Y-67980000D03*
X158500001Y-67020000D03*
%TD*%
D16*
%TO.C,C151*%
X191020000Y-97200000D03*
X191980000Y-97200000D03*
%TD*%
D11*
%TO.C,C155*%
X181500000Y-107020000D03*
X181500000Y-107980000D03*
%TD*%
D15*
%TO.C,R26*%
X134510000Y-71100000D03*
X133490000Y-71100000D03*
%TD*%
D14*
%TO.C,C130*%
X123299999Y-77780000D03*
X123299999Y-76820000D03*
%TD*%
D16*
%TO.C,C65*%
X136020000Y-97200000D03*
X136980000Y-97200000D03*
%TD*%
D14*
%TO.C,C102*%
X170200000Y-98180000D03*
X170200000Y-97220000D03*
%TD*%
D13*
%TO.C,C168*%
X88980000Y-77800000D03*
X88020000Y-77800000D03*
%TD*%
D12*
%TO.C,R17*%
X169490000Y-70500001D03*
X170510000Y-70500001D03*
%TD*%
D14*
%TO.C,C79*%
X147299999Y-77780000D03*
X147299999Y-76820000D03*
%TD*%
D21*
X204750000Y-55000000D02*
X204750000Y-120000000D01*
X65000000Y-55000000D02*
X65000000Y-120000000D01*
X65000000Y-120000000D02*
X204750000Y-120000000D01*
X65000000Y-55000000D02*
X204750000Y-55000000D01*
M02*
