%TF.GenerationSoftware,KiCad,Pcbnew,8.0.6*%
%TF.CreationDate,2024-12-06T19:08:14+01:00*%
%TF.ProjectId,AsicsBoard - 10xBM1370 - 01A,41736963-7342-46f6-9172-64202d203130,rev?*%
%TF.SameCoordinates,Original*%
%TF.FileFunction,Copper,L3,Inr*%
%TF.FilePolarity,Positive*%
%FSLAX46Y46*%
G04 Gerber Fmt 4.6, Leading zero omitted, Abs format (unit mm)*
G04 Created by KiCad (PCBNEW 8.0.6) date 2024-12-06 19:08:14*
%MOMM*%
%LPD*%
G01*
G04 APERTURE LIST*
%ADD10C,0.300000*%
%TA.AperFunction,ComponentPad*%
%ADD11C,0.800000*%
%TD*%
%TA.AperFunction,ComponentPad*%
%ADD12C,6.400000*%
%TD*%
%TA.AperFunction,ViaPad*%
%ADD13C,0.500000*%
%TD*%
%TA.AperFunction,ViaPad*%
%ADD14C,0.800000*%
%TD*%
%TA.AperFunction,Conductor*%
%ADD15C,0.200000*%
%TD*%
%TA.AperFunction,Conductor*%
%ADD16C,0.500000*%
%TD*%
%TA.AperFunction,Conductor*%
%ADD17C,0.250000*%
%TD*%
%TA.AperFunction,Profile*%
%ADD18C,0.100000*%
%TD*%
G04 APERTURE END LIST*
D10*
G36*
X71454330Y-119482495D02*
G01*
X69895306Y-119482495D01*
X69895306Y-117636564D01*
X70061973Y-117636564D01*
X70061973Y-117695092D01*
X70084371Y-117749164D01*
X70125755Y-117790548D01*
X70179827Y-117812946D01*
X70209091Y-117815828D01*
X70807098Y-117815828D01*
X70524776Y-118138481D01*
X70515732Y-118151131D01*
X70512943Y-118153921D01*
X70511846Y-118156566D01*
X70507675Y-118162403D01*
X70499868Y-118185484D01*
X70490545Y-118207993D01*
X70490545Y-118213052D01*
X70488924Y-118217845D01*
X70490545Y-118242154D01*
X70490545Y-118266521D01*
X70492481Y-118271196D01*
X70492818Y-118276241D01*
X70503616Y-118298076D01*
X70512943Y-118320593D01*
X70516519Y-118324169D01*
X70518762Y-118328704D01*
X70537097Y-118344747D01*
X70554327Y-118361977D01*
X70559001Y-118363913D01*
X70562809Y-118367245D01*
X70585890Y-118375051D01*
X70608399Y-118384375D01*
X70615536Y-118385077D01*
X70618251Y-118385996D01*
X70622190Y-118385733D01*
X70637663Y-118387257D01*
X70816539Y-118387257D01*
X70905952Y-118431963D01*
X70942955Y-118468967D01*
X70987663Y-118558381D01*
X70987663Y-118844703D01*
X70942955Y-118934117D01*
X70905952Y-118971121D01*
X70816539Y-119015828D01*
X70458787Y-119015828D01*
X70369373Y-118971121D01*
X70315157Y-118916905D01*
X70292426Y-118898250D01*
X70238354Y-118875853D01*
X70179828Y-118875853D01*
X70125756Y-118898250D01*
X70084370Y-118939636D01*
X70061973Y-118993708D01*
X70061973Y-119052234D01*
X70084370Y-119106306D01*
X70103025Y-119129037D01*
X70174454Y-119200466D01*
X70185958Y-119209907D01*
X70188553Y-119212899D01*
X70193062Y-119215737D01*
X70197185Y-119219121D01*
X70200846Y-119220637D01*
X70213438Y-119228564D01*
X70356296Y-119299992D01*
X70383759Y-119310502D01*
X70389134Y-119310883D01*
X70394113Y-119312946D01*
X70423377Y-119315828D01*
X70851948Y-119315828D01*
X70881212Y-119312946D01*
X70886190Y-119310883D01*
X70891566Y-119310502D01*
X70919029Y-119299992D01*
X71061888Y-119228564D01*
X71074482Y-119220635D01*
X71078142Y-119219120D01*
X71082262Y-119215738D01*
X71086773Y-119212899D01*
X71089367Y-119209907D01*
X71100873Y-119200465D01*
X71172301Y-119129036D01*
X71181739Y-119117535D01*
X71184733Y-119114939D01*
X71187573Y-119110426D01*
X71190955Y-119106306D01*
X71192470Y-119102646D01*
X71200398Y-119090053D01*
X71271827Y-118947197D01*
X71282336Y-118919733D01*
X71282717Y-118914358D01*
X71284781Y-118909378D01*
X71287663Y-118880114D01*
X71287663Y-118522971D01*
X71284781Y-118493707D01*
X71282717Y-118488726D01*
X71282336Y-118483352D01*
X71271827Y-118455888D01*
X71200398Y-118313032D01*
X71192470Y-118300438D01*
X71190955Y-118296779D01*
X71187573Y-118292658D01*
X71184733Y-118288146D01*
X71181739Y-118285549D01*
X71172301Y-118274049D01*
X71100873Y-118202620D01*
X71089367Y-118193177D01*
X71086773Y-118190186D01*
X71082262Y-118187346D01*
X71078142Y-118183965D01*
X71074482Y-118182449D01*
X71061888Y-118174521D01*
X70943615Y-118115386D01*
X71250549Y-117764604D01*
X71259592Y-117751954D01*
X71262383Y-117749164D01*
X71263478Y-117746519D01*
X71267651Y-117740683D01*
X71275456Y-117717603D01*
X71284781Y-117695092D01*
X71284781Y-117690030D01*
X71286401Y-117685240D01*
X71284781Y-117660939D01*
X71284781Y-117636564D01*
X71282844Y-117631888D01*
X71282508Y-117626844D01*
X71271709Y-117605008D01*
X71262383Y-117582492D01*
X71258806Y-117578915D01*
X71256564Y-117574381D01*
X71238228Y-117558337D01*
X71220999Y-117541108D01*
X71216324Y-117539171D01*
X71212517Y-117535840D01*
X71189441Y-117528036D01*
X71166927Y-117518710D01*
X71159785Y-117518006D01*
X71157075Y-117517090D01*
X71153140Y-117517352D01*
X71137663Y-117515828D01*
X70209091Y-117515828D01*
X70179827Y-117518710D01*
X70125755Y-117541108D01*
X70084371Y-117582492D01*
X70061973Y-117636564D01*
X69895306Y-117636564D01*
X69895306Y-117349161D01*
X71454330Y-117349161D01*
X71454330Y-119482495D01*
G37*
D11*
%TO.N,VPWR_ASIC*%
%TO.C,H33*%
X202600000Y-91000000D03*
X201900000Y-92900000D03*
X201900000Y-89100000D03*
X200000000Y-93600000D03*
D12*
X200000000Y-91000000D03*
D11*
X200000000Y-88400000D03*
X198100000Y-92900000D03*
X198100000Y-89100000D03*
X197400000Y-91000000D03*
%TD*%
%TO.N,VPWR_ASIC*%
%TO.C,H11*%
X82600000Y-84000000D03*
X81900000Y-85900000D03*
X81900000Y-82100000D03*
X80000000Y-86600000D03*
D12*
X80000000Y-84000000D03*
D11*
X80000000Y-81400000D03*
X78100000Y-85900000D03*
X78100000Y-82100000D03*
X77400000Y-84000000D03*
%TD*%
%TO.N,VPWR_ASIC*%
%TO.C,H27*%
X178600000Y-84000000D03*
X177900000Y-85900000D03*
X177900000Y-82100000D03*
X176000000Y-86600000D03*
D12*
X176000000Y-84000000D03*
D11*
X176000000Y-81400000D03*
X174100000Y-85900000D03*
X174100000Y-82100000D03*
X173400000Y-84000000D03*
%TD*%
%TO.N,GND*%
%TO.C,H14*%
X82600000Y-115000000D03*
X81900000Y-116900000D03*
X81900000Y-113100000D03*
X80000000Y-117600000D03*
D12*
X80000000Y-115000000D03*
D11*
X80000000Y-112400000D03*
X78100000Y-116900000D03*
X78100000Y-113100000D03*
X77400000Y-115000000D03*
%TD*%
%TO.N,GND*%
%TO.C,H34*%
X202600000Y-115000000D03*
X201900000Y-116900000D03*
X201900000Y-113100000D03*
X200000000Y-117600000D03*
D12*
X200000000Y-115000000D03*
D11*
X200000000Y-112400000D03*
X198100000Y-116900000D03*
X198100000Y-113100000D03*
X197400000Y-115000000D03*
%TD*%
%TO.N,VPWR_ASIC*%
%TO.C,H21*%
X130600000Y-91000000D03*
X129900000Y-92900000D03*
X129900000Y-89100000D03*
X128000000Y-93600000D03*
D12*
X128000000Y-91000000D03*
D11*
X128000000Y-88400000D03*
X126100000Y-92900000D03*
X126100000Y-89100000D03*
X125400000Y-91000000D03*
%TD*%
%TO.N,GND*%
%TO.C,H20*%
X130600000Y-60000000D03*
X129900000Y-61900000D03*
X129900000Y-58100000D03*
X128000000Y-62600000D03*
D12*
X128000000Y-60000000D03*
D11*
X128000000Y-57400000D03*
X126100000Y-61900000D03*
X126100000Y-58100000D03*
X125400000Y-60000000D03*
%TD*%
%TO.N,VPWR_ASIC*%
%TO.C,H19*%
X130600000Y-84000000D03*
X129900000Y-85900000D03*
X129900000Y-82100000D03*
X128000000Y-86600000D03*
D12*
X128000000Y-84000000D03*
D11*
X128000000Y-81400000D03*
X126100000Y-85900000D03*
X126100000Y-82100000D03*
X125400000Y-84000000D03*
%TD*%
%TO.N,GND*%
%TO.C,H32*%
X202600000Y-60000000D03*
X201900000Y-61900000D03*
X201900000Y-58100000D03*
X200000000Y-62600000D03*
D12*
X200000000Y-60000000D03*
D11*
X200000000Y-57400000D03*
X198100000Y-61900000D03*
X198100000Y-58100000D03*
X197400000Y-60000000D03*
%TD*%
%TO.N,VPWR_ASIC*%
%TO.C,H13*%
X82600000Y-91000000D03*
X81900000Y-92900000D03*
X81900000Y-89100000D03*
X80000000Y-93600000D03*
D12*
X80000000Y-91000000D03*
D11*
X80000000Y-88400000D03*
X78100000Y-92900000D03*
X78100000Y-89100000D03*
X77400000Y-91000000D03*
%TD*%
%TO.N,VPWR_ASIC*%
%TO.C,H31*%
X202600000Y-84000000D03*
X201900000Y-85900000D03*
X201900000Y-82100000D03*
X200000000Y-86600000D03*
D12*
X200000000Y-84000000D03*
D11*
X200000000Y-81400000D03*
X198100000Y-85900000D03*
X198100000Y-82100000D03*
X197400000Y-84000000D03*
%TD*%
%TO.N,GND*%
%TO.C,H30*%
X178600000Y-115000000D03*
X177900000Y-116900000D03*
X177900000Y-113100000D03*
X176000000Y-117600000D03*
D12*
X176000000Y-115000000D03*
D11*
X176000000Y-112400000D03*
X174100000Y-116900000D03*
X174100000Y-113100000D03*
X173400000Y-115000000D03*
%TD*%
%TO.N,VPWR_ASIC*%
%TO.C,H23*%
X154600000Y-84000000D03*
X153900000Y-85900000D03*
X153900000Y-82100000D03*
X152000000Y-86600000D03*
D12*
X152000000Y-84000000D03*
D11*
X152000000Y-81400000D03*
X150100000Y-85900000D03*
X150100000Y-82100000D03*
X149400000Y-84000000D03*
%TD*%
%TO.N,VPWR_ASIC*%
%TO.C,H17*%
X106600000Y-91000000D03*
X105900000Y-92900000D03*
X105900000Y-89100000D03*
X104000000Y-93600000D03*
D12*
X104000000Y-91000000D03*
D11*
X104000000Y-88400000D03*
X102100000Y-92900000D03*
X102100000Y-89100000D03*
X101400000Y-91000000D03*
%TD*%
%TO.N,VPWR_ASIC*%
%TO.C,H25*%
X154600000Y-91000000D03*
X153900000Y-92900000D03*
X153900000Y-89100000D03*
X152000000Y-93600000D03*
D12*
X152000000Y-91000000D03*
D11*
X152000000Y-88400000D03*
X150100000Y-92900000D03*
X150100000Y-89100000D03*
X149400000Y-91000000D03*
%TD*%
%TO.N,GND*%
%TO.C,H22*%
X130600000Y-115000000D03*
X129900000Y-116900000D03*
X129900000Y-113100000D03*
X128000000Y-117600000D03*
D12*
X128000000Y-115000000D03*
D11*
X128000000Y-112400000D03*
X126100000Y-116900000D03*
X126100000Y-113100000D03*
X125400000Y-115000000D03*
%TD*%
%TO.N,VPWR_ASIC*%
%TO.C,H15*%
X106600000Y-84000000D03*
X105900000Y-85900000D03*
X105900000Y-82100000D03*
X104000000Y-86600000D03*
D12*
X104000000Y-84000000D03*
D11*
X104000000Y-81400000D03*
X102100000Y-85900000D03*
X102100000Y-82100000D03*
X101400000Y-84000000D03*
%TD*%
%TO.N,GND*%
%TO.C,H12*%
X82600000Y-60000000D03*
X81900000Y-61900000D03*
X81900000Y-58100000D03*
X80000000Y-62600000D03*
D12*
X80000000Y-60000000D03*
D11*
X80000000Y-57400000D03*
X78100000Y-61900000D03*
X78100000Y-58100000D03*
X77400000Y-60000000D03*
%TD*%
%TO.N,VPWR_ASIC*%
%TO.C,H29*%
X178600000Y-91000000D03*
X177900000Y-92900000D03*
X177900000Y-89100000D03*
X176000000Y-93600000D03*
D12*
X176000000Y-91000000D03*
D11*
X176000000Y-88400000D03*
X174100000Y-92900000D03*
X174100000Y-89100000D03*
X173400000Y-91000000D03*
%TD*%
%TO.N,GND*%
%TO.C,H24*%
X154600000Y-60000000D03*
X153900000Y-61900000D03*
X153900000Y-58100000D03*
X152000000Y-62600000D03*
D12*
X152000000Y-60000000D03*
D11*
X152000000Y-57400000D03*
X150100000Y-61900000D03*
X150100000Y-58100000D03*
X149400000Y-60000000D03*
%TD*%
%TO.N,GND*%
%TO.C,H18*%
X106600000Y-115000000D03*
X105900000Y-116900000D03*
X105900000Y-113100000D03*
X104000000Y-117600000D03*
D12*
X104000000Y-115000000D03*
D11*
X104000000Y-112400000D03*
X102100000Y-116900000D03*
X102100000Y-113100000D03*
X101400000Y-115000000D03*
%TD*%
%TO.N,GND*%
%TO.C,H26*%
X154600000Y-115000000D03*
X153900000Y-116900000D03*
X153900000Y-113100000D03*
X152000000Y-117600000D03*
D12*
X152000000Y-115000000D03*
D11*
X152000000Y-112400000D03*
X150100000Y-116900000D03*
X150100000Y-113100000D03*
X149400000Y-115000000D03*
%TD*%
%TO.N,GND*%
%TO.C,H28*%
X178600000Y-60000000D03*
X177900000Y-61900000D03*
X177900000Y-58100000D03*
X176000000Y-62600000D03*
D12*
X176000000Y-60000000D03*
D11*
X176000000Y-57400000D03*
X174100000Y-61900000D03*
X174100000Y-58100000D03*
X173400000Y-60000000D03*
%TD*%
%TO.N,GND*%
%TO.C,H16*%
X106600000Y-60000000D03*
X105900000Y-61900000D03*
X105900000Y-58100000D03*
X104000000Y-62600000D03*
D12*
X104000000Y-60000000D03*
D11*
X104000000Y-57400000D03*
X102100000Y-61900000D03*
X102100000Y-58100000D03*
X101400000Y-60000000D03*
%TD*%
D13*
%TO.N,/CTN2*%
X72195000Y-91232000D03*
%TO.N,/CTN2_RTN*%
X72195000Y-93772000D03*
%TO.N,/CTN1*%
X72195000Y-96312000D03*
%TO.N,/CTN1_RTN*%
X72195000Y-98852000D03*
%TO.N,/VSP*%
X67145000Y-91232000D03*
%TO.N,/VSN*%
X67145000Y-93772000D03*
%TO.N,+1.2V*%
X70715000Y-83900000D03*
%TO.N,/ASICs/ASICs_BM1370_1/CO1*%
X98900000Y-102000000D03*
%TO.N,/ASICs/ASICs_BM1370_1/RSTO1*%
X101500000Y-101200000D03*
%TO.N,/ASICs/ASICs_BM1370_1/RI1*%
X103100000Y-102380000D03*
%TO.N,/ASICs/ASICs_BM1370_1/CLKO1*%
X101500000Y-103100000D03*
%TO.N,/ASICs/ASICs_BM1370_1/BO1*%
X99700000Y-104000000D03*
%TO.N,+1.2V*%
X74017000Y-72883000D03*
%TO.N,/CTN1*%
X114914000Y-88377000D03*
%TO.N,/CTN1_RTN*%
X114860000Y-86675000D03*
%TO.N,/CTN2*%
X162920000Y-88377000D03*
%TO.N,/CTN2_RTN*%
X162866000Y-86675000D03*
%TO.N,+0.8V*%
X84627000Y-67930000D03*
X99348000Y-67930000D03*
X108630000Y-67930000D03*
X123351000Y-67930000D03*
X132633000Y-67930000D03*
X147354000Y-67930000D03*
X171357000Y-67930000D03*
X180639000Y-67930000D03*
X195360000Y-67930000D03*
%TO.N,+5V_STDBY*%
X73128000Y-106284000D03*
X67145000Y-76185000D03*
X73255000Y-56754000D03*
D14*
%TO.N,GND*%
X94000000Y-103500000D03*
D13*
X99320000Y-108000000D03*
X122200000Y-74500000D03*
X67032000Y-64882000D03*
D14*
X114000000Y-103500000D03*
X138000000Y-108508000D03*
D13*
X159180000Y-96200000D03*
D14*
X162000000Y-73000000D03*
D13*
X180680000Y-104500000D03*
X157500000Y-105700000D03*
D14*
X166000000Y-71500000D03*
D13*
X134596000Y-66160000D03*
X96820000Y-96200000D03*
D14*
X190000000Y-103500000D03*
X90000000Y-68500000D03*
X166000000Y-66500000D03*
X186000000Y-106500000D03*
D13*
X194500000Y-69454010D03*
X168820000Y-95200000D03*
X192820000Y-95200000D03*
X193524000Y-108816000D03*
X135180000Y-79800000D03*
X67032000Y-60310000D03*
X168820000Y-78800000D03*
D14*
X118000000Y-66500000D03*
D13*
X123300000Y-78620000D03*
D14*
X138000000Y-71500000D03*
D13*
X144820000Y-95200000D03*
X183200000Y-95200000D03*
D14*
X162000000Y-108508000D03*
D13*
X158472000Y-69708000D03*
X108700000Y-78620000D03*
D14*
X186000000Y-68500000D03*
D13*
X108680000Y-67000000D03*
D14*
X114000000Y-73000000D03*
X116000000Y-66500000D03*
D13*
X183180000Y-78800000D03*
D14*
X114000000Y-106500000D03*
D13*
X144800000Y-79800000D03*
X99320000Y-70500000D03*
D14*
X162000000Y-66500000D03*
X142000000Y-106500000D03*
X92000000Y-66500000D03*
X90000000Y-102000000D03*
D13*
X98200000Y-100500000D03*
X159180000Y-78800000D03*
D14*
X94000000Y-68500000D03*
D13*
X87180000Y-79800000D03*
D14*
X138000000Y-105000000D03*
D13*
X195300000Y-78620000D03*
D14*
X186000000Y-70000000D03*
D13*
X86500000Y-108734000D03*
D14*
X92000000Y-108500000D03*
X190000000Y-68500000D03*
X162000000Y-106500000D03*
D13*
X180700000Y-96380000D03*
D14*
X186000000Y-105000000D03*
D13*
X66943500Y-114704500D03*
X183180000Y-96200000D03*
D14*
X90000000Y-70000000D03*
X94000000Y-70000000D03*
D13*
X99320000Y-67000000D03*
X135180000Y-78800000D03*
X109500000Y-105700000D03*
X97512000Y-108816000D03*
D14*
X190000000Y-105000000D03*
X138000000Y-66500000D03*
D13*
X144820000Y-78800000D03*
D14*
X188000000Y-66500000D03*
D13*
X110466000Y-69708000D03*
X84680000Y-108000000D03*
X110466000Y-108816000D03*
D14*
X114000000Y-108500000D03*
X114000000Y-70000000D03*
D13*
X156700000Y-78620000D03*
X97512000Y-66160000D03*
X123320000Y-108000000D03*
X108700000Y-96380000D03*
D14*
X186000000Y-108508000D03*
X94000000Y-71500000D03*
D13*
X84700000Y-96380000D03*
X181800000Y-74500000D03*
D14*
X162000000Y-70000000D03*
X94000000Y-102000000D03*
D13*
X120820000Y-95200000D03*
D14*
X166000000Y-108508000D03*
D13*
X86590000Y-69708000D03*
X84700000Y-78620000D03*
D14*
X114000000Y-105000000D03*
X114000000Y-71500000D03*
X142000000Y-66500000D03*
X90000000Y-73000000D03*
D13*
X182602000Y-66160000D03*
X145518000Y-108816000D03*
X180700000Y-78620000D03*
D14*
X94000000Y-66500000D03*
D13*
X171320000Y-108000000D03*
X146500000Y-105700000D03*
X157800000Y-100500000D03*
X168820000Y-96200000D03*
D14*
X189996441Y-66468000D03*
D13*
X147320000Y-70500000D03*
D14*
X190000000Y-102000000D03*
D13*
X170200000Y-100500000D03*
D14*
X186000000Y-71500000D03*
D13*
X85446994Y-105268000D03*
X171320000Y-67000000D03*
D14*
X138000000Y-68500000D03*
X166000000Y-106500000D03*
X166000000Y-68500000D03*
X90000000Y-103500000D03*
D13*
X171300000Y-78620000D03*
D14*
X142000000Y-70000000D03*
X114000000Y-66500000D03*
D13*
X181500000Y-105700000D03*
X122500000Y-105700000D03*
D14*
X90000000Y-71500000D03*
X186000000Y-66500000D03*
X138000000Y-106500000D03*
X118000000Y-73000000D03*
X142000000Y-103500000D03*
X94000000Y-108500000D03*
D13*
X111200000Y-95200000D03*
X67145000Y-83852000D03*
X183180000Y-79800000D03*
X109800000Y-74500000D03*
X109800000Y-100500000D03*
X182602000Y-108816000D03*
X71096000Y-106284000D03*
D14*
X94000000Y-73000000D03*
D13*
X146200000Y-100500000D03*
D14*
X162000000Y-68500000D03*
D13*
X84680000Y-67000000D03*
X156680000Y-67000000D03*
X99300000Y-96380000D03*
D14*
X142000000Y-68500000D03*
X94000000Y-105000000D03*
X138000000Y-73000000D03*
D13*
X133800000Y-100500000D03*
D14*
X162000000Y-103500000D03*
D13*
X194200000Y-100500000D03*
X156680000Y-108000000D03*
X133500000Y-105700000D03*
D14*
X142000000Y-71500000D03*
X90000000Y-105000000D03*
D13*
X133800000Y-74500000D03*
X111180000Y-79800000D03*
D14*
X140000000Y-66500000D03*
D13*
X96820000Y-95200000D03*
X120820000Y-78800000D03*
D14*
X118000000Y-108500000D03*
D13*
X156680000Y-104500000D03*
X98200000Y-74500000D03*
X70080000Y-58024000D03*
D14*
X118000000Y-71500000D03*
D13*
X157800000Y-74500000D03*
X108680000Y-108000000D03*
D14*
X166000000Y-70000000D03*
D13*
X134596000Y-69708000D03*
X132700000Y-78620000D03*
D14*
X118000000Y-103500000D03*
D13*
X159180000Y-79800000D03*
X147300000Y-78620000D03*
X71096000Y-115809000D03*
D14*
X164000000Y-66500000D03*
D13*
X182602000Y-69708000D03*
X170500000Y-69454000D03*
D14*
X166000000Y-103500000D03*
D13*
X87180000Y-96200000D03*
D14*
X118000000Y-106500000D03*
D13*
X144820000Y-96200000D03*
X193524000Y-66160000D03*
D14*
X164000000Y-108508000D03*
D13*
X86590000Y-66160000D03*
D14*
X118000000Y-102000000D03*
D13*
X156700000Y-96380000D03*
D14*
X142000000Y-108508000D03*
X118000000Y-70000000D03*
D13*
X180680000Y-108000000D03*
X98500000Y-69454002D03*
D14*
X142000000Y-105000000D03*
D13*
X111180000Y-78800000D03*
X158472000Y-108816000D03*
D14*
X190000000Y-108508000D03*
D13*
X169394000Y-108816000D03*
X85800000Y-74500000D03*
D14*
X138000000Y-102000000D03*
X118000000Y-68500000D03*
D13*
X195320000Y-70500000D03*
X121388000Y-66160000D03*
D14*
X186000000Y-102000000D03*
D13*
X195320000Y-108000000D03*
X96820000Y-78800000D03*
X146500000Y-69454000D03*
X98500000Y-105700000D03*
D14*
X190000000Y-73000000D03*
D13*
X68810000Y-105141000D03*
X123320000Y-70500000D03*
X71527000Y-112380000D03*
X134596000Y-108816000D03*
X192820000Y-96200000D03*
X110466000Y-66160000D03*
X170500000Y-105700000D03*
X135180000Y-96200000D03*
D14*
X118000000Y-105000000D03*
D13*
X120820000Y-96200000D03*
X132680000Y-108000000D03*
X146200000Y-74500000D03*
X121388000Y-108816000D03*
D14*
X166000000Y-105000000D03*
D13*
X87180000Y-78800000D03*
X147320000Y-67000000D03*
X123320000Y-67000000D03*
X159200000Y-95200000D03*
X122200000Y-100500000D03*
X145518000Y-66160000D03*
X171300000Y-96380000D03*
D14*
X166000000Y-102000000D03*
D13*
X87200000Y-95200000D03*
X181800000Y-100500000D03*
D14*
X188000000Y-108508000D03*
D13*
X168800000Y-79800000D03*
X132680000Y-67000000D03*
X71477000Y-62596000D03*
X192800000Y-79800000D03*
D14*
X90000000Y-66500000D03*
X90000000Y-106500000D03*
X190000000Y-106500000D03*
D13*
X192820000Y-78800000D03*
X99300000Y-78620000D03*
D14*
X186000000Y-73000000D03*
D13*
X66943500Y-110132500D03*
X195300000Y-96380000D03*
X85800000Y-100500000D03*
X84680000Y-104500000D03*
D14*
X162000000Y-102000000D03*
X142000000Y-102000000D03*
D13*
X169394000Y-66160000D03*
D14*
X114000000Y-68500000D03*
X142000000Y-73000000D03*
X190000000Y-71500000D03*
D13*
X132700000Y-96380000D03*
D14*
X140000000Y-108508000D03*
D13*
X75600000Y-88500000D03*
X120800000Y-79800000D03*
X158472000Y-66160000D03*
X194500000Y-105700000D03*
D14*
X162000000Y-71500000D03*
X94000000Y-106500000D03*
X190000000Y-70000000D03*
D13*
X96800000Y-79800000D03*
X147300000Y-96380000D03*
X111180000Y-96200000D03*
X132680000Y-104500000D03*
D14*
X114000000Y-102000000D03*
X138000000Y-70000000D03*
D13*
X123300000Y-96380000D03*
X170200000Y-74500000D03*
D14*
X166000000Y-73000000D03*
D13*
X195320000Y-67000000D03*
D14*
X138000000Y-103500000D03*
D13*
X180680000Y-67000000D03*
X194200000Y-74500000D03*
D14*
X162000000Y-105000000D03*
D13*
X122500000Y-69453982D03*
D14*
X186000000Y-103500000D03*
D13*
X70080000Y-67168000D03*
X171320000Y-70500000D03*
X147320000Y-108000000D03*
X73166500Y-101204000D03*
X108680000Y-104500000D03*
D14*
X90000000Y-108500000D03*
X116000000Y-108500000D03*
D13*
X135200000Y-95200000D03*
%TO.N,+0.8V*%
X123412000Y-107046000D03*
X156702000Y-107046000D03*
X147288000Y-107046000D03*
X84566000Y-107046000D03*
X180578000Y-107046000D03*
X99282000Y-107046000D03*
X108696000Y-107046000D03*
X171418000Y-107046000D03*
X132826000Y-107046000D03*
X74398000Y-116317000D03*
X195294000Y-107046000D03*
%TO.N,+1.2V*%
X86810000Y-106710000D03*
X97190000Y-68290000D03*
X72195000Y-83852000D03*
X86860000Y-68340000D03*
X97140000Y-106660000D03*
X158860000Y-68340000D03*
X193190000Y-68290000D03*
X70715000Y-100442000D03*
X134810000Y-106710000D03*
X169190000Y-68290000D03*
X121190000Y-68290000D03*
X110860000Y-68340000D03*
X110810000Y-106710000D03*
X182860000Y-68340000D03*
X158810000Y-106710000D03*
X73276500Y-68543500D03*
X134860000Y-68340000D03*
X182810000Y-106710000D03*
X121140000Y-106660000D03*
X193140000Y-106660000D03*
X145190000Y-68290000D03*
X145140000Y-106660000D03*
X169140000Y-106660000D03*
D14*
%TO.N,VPWR_ASIC*%
X162000000Y-78600000D03*
X116000000Y-96400000D03*
X118000000Y-94400000D03*
X166000000Y-98400000D03*
X186000000Y-76600000D03*
X118000000Y-96400000D03*
X164000000Y-96400000D03*
X118000000Y-78600000D03*
X118000000Y-100400000D03*
X186000000Y-80600000D03*
X92000000Y-80600000D03*
X116000000Y-98400000D03*
X118000000Y-74600000D03*
X162000000Y-80600000D03*
X188000000Y-78600000D03*
X190000000Y-98400000D03*
X114000000Y-98400000D03*
X186000000Y-94400000D03*
X138000000Y-94400000D03*
X116000000Y-76600000D03*
X116000000Y-78600000D03*
X190000000Y-96400000D03*
X162000000Y-100400000D03*
X114000000Y-74600000D03*
X116000000Y-94400000D03*
X166000000Y-100400000D03*
X140000000Y-78600000D03*
X140000000Y-98400000D03*
X138000000Y-74600000D03*
X142000000Y-94400000D03*
X114000000Y-100400000D03*
X164000000Y-80600000D03*
X90000000Y-98400000D03*
X92000000Y-78600000D03*
X138000000Y-100400000D03*
X186000000Y-74600000D03*
X94000000Y-74600000D03*
X94000000Y-100400000D03*
X142000000Y-78600000D03*
X190000000Y-94400000D03*
X94000000Y-98400000D03*
X142000000Y-80600000D03*
X186000000Y-96400000D03*
X90000000Y-94400000D03*
X118000000Y-80600000D03*
X140000000Y-80600000D03*
X140000000Y-76600000D03*
X190000000Y-76600000D03*
X114000000Y-94400000D03*
X190000000Y-80600000D03*
X140000000Y-96400000D03*
X164000000Y-78600000D03*
X166000000Y-78600000D03*
X92000000Y-94400000D03*
X116000000Y-80600000D03*
X114000000Y-96400000D03*
X164000000Y-76600000D03*
X164000000Y-94400000D03*
X186000000Y-100400000D03*
X166000000Y-74600000D03*
X186000000Y-98400000D03*
X94000000Y-94400000D03*
X114000000Y-76600000D03*
X90000000Y-74600000D03*
X166000000Y-96400000D03*
X94000000Y-96400000D03*
X142000000Y-100400000D03*
X162000000Y-76600000D03*
X190000000Y-78600000D03*
X142000000Y-74600000D03*
X138000000Y-80600000D03*
X166000000Y-94400000D03*
X94000000Y-78600000D03*
X90000000Y-76600000D03*
X114000000Y-78600000D03*
X186000000Y-78600000D03*
X94000000Y-76600000D03*
X118000000Y-98400000D03*
X188000000Y-98400000D03*
X166000000Y-76600000D03*
X162000000Y-74600000D03*
X166000000Y-80600000D03*
X188000000Y-96400000D03*
X90000000Y-78600000D03*
X138000000Y-96400000D03*
X138000000Y-76600000D03*
X162000000Y-96400000D03*
X90000000Y-96400000D03*
X190000000Y-74600000D03*
X190000000Y-100400000D03*
X140000000Y-94400000D03*
X92000000Y-98400000D03*
X90000000Y-80600000D03*
X114000000Y-80600000D03*
X188000000Y-80600000D03*
X138000000Y-98400000D03*
X92000000Y-96400000D03*
X162000000Y-94400000D03*
X142000000Y-96400000D03*
X92000000Y-76600000D03*
X138000000Y-78600000D03*
X94000000Y-80600000D03*
X142000000Y-76600000D03*
X188000000Y-76600000D03*
X142000000Y-98400000D03*
X162000000Y-98400000D03*
X90000000Y-100400000D03*
X188000000Y-94400000D03*
X164000000Y-98400000D03*
X118000000Y-76600000D03*
D13*
%TO.N,/VSP*%
X72239000Y-85555000D03*
%TO.N,/VSN*%
X72200000Y-89548000D03*
%TO.N,/CTN1_RTN*%
X103100000Y-108824000D03*
X76811000Y-108117591D03*
%TO.N,/CTN1*%
X104116000Y-108824000D03*
X75795000Y-108697000D03*
%TO.N,/CTN2*%
X75804668Y-110592332D03*
X153138000Y-108824000D03*
%TO.N,/CTN2_RTN*%
X151868000Y-108824000D03*
X76811000Y-109840000D03*
%TO.N,/RSTIn*%
X81002000Y-100188000D03*
X72195000Y-76232000D03*
%TO.N,/CLKI*%
X75160000Y-103871000D03*
%TO.N,/CI*%
X72195000Y-78772000D03*
X79224000Y-101458000D03*
%TO.N,/RO*%
X72195000Y-81312000D03*
X77446000Y-101458000D03*
%TO.N,/ASICs/ASICs_BM1370_2/RI1*%
X172188000Y-72620000D03*
%TO.N,/ASICs/ASICs_BM1370_2/CO1*%
X176252000Y-73220000D03*
%TO.N,/ASICs/ASICs_BM1370_1/BM1370-4/RI*%
X200382000Y-73264000D03*
X202922000Y-101204000D03*
%TO.N,/ASICs/ASICs_BM1370_2/CLKO1*%
X178284000Y-71900000D03*
%TO.N,/ASICs/ASICs_BM1370_2/BO1*%
X174220000Y-71100000D03*
%TO.N,/ASICs/ASICs_BM1370_1/BM1370-4/CO*%
X202414000Y-75550000D03*
X201000000Y-100400000D03*
%TO.N,/ASICs/ASICs_BM1370_1/BM1370-4/CLKO*%
X202414000Y-73264000D03*
X203699996Y-102500000D03*
%TO.N,/ASICs/ASICs_BM1370_1/BM1370-4/BO*%
X201600000Y-103900000D03*
X202922000Y-71486000D03*
%TO.N,/ASICs/ASICs_BM1370_2/BM1370-4/CLKO*%
X82018000Y-71232000D03*
%TO.N,/ASICs/ASICs_BM1370_1/BM1370-4/RSTO_n*%
X200382000Y-75296000D03*
X201094027Y-99029027D03*
%TO.N,/ASICs/ASICs_BM1370_2/BM1370-4/RSTO_n*%
X83600000Y-73900000D03*
%TO.N,/ASICs/ASICs_BM1370_2/RSTO1*%
X174220000Y-74026000D03*
%TO.N,+0.8V*%
X156636000Y-67930000D03*
%TD*%
D15*
%TO.N,/ASICs/ASICs_BM1370_1/BM1370-4/RI*%
X203900000Y-98100000D02*
X202922000Y-99078000D01*
X203900000Y-76020000D02*
X203900000Y-98100000D01*
X201144000Y-73264000D02*
X203900000Y-76020000D01*
X200382000Y-73264000D02*
X201144000Y-73264000D01*
X202922000Y-99078000D02*
X202922000Y-101204000D01*
%TO.N,/ASICs/ASICs_BM1370_1/BM1370-4/RSTO_n*%
X203500000Y-96623054D02*
X203500000Y-78414000D01*
X201094027Y-99029027D02*
X203500000Y-96623054D01*
X203500000Y-78414000D02*
X200382000Y-75296000D01*
%TO.N,/ASICs/ASICs_BM1370_1/BM1370-4/CLKO*%
X204300000Y-101899996D02*
X203699996Y-102500000D01*
X204300000Y-75150000D02*
X204300000Y-101899996D01*
X202414000Y-73264000D02*
X204300000Y-75150000D01*
D16*
%TO.N,+1.2V*%
X70715000Y-83900000D02*
X70715000Y-101458000D01*
X70715000Y-101458000D02*
X75467000Y-106210000D01*
X75467000Y-106210000D02*
X86310000Y-106210000D01*
X70715000Y-71105000D02*
X70715000Y-83900000D01*
X73276500Y-68543500D02*
X70715000Y-71105000D01*
X86310000Y-106210000D02*
X86810000Y-106710000D01*
%TO.N,+0.8V*%
X75414000Y-107046000D02*
X84566000Y-107046000D01*
X74398000Y-108062000D02*
X75414000Y-107046000D01*
X74398000Y-116317000D02*
X74398000Y-108062000D01*
%TO.N,+1.2V*%
X74017000Y-69284000D02*
X73276500Y-68543500D01*
X74017000Y-72883000D02*
X74017000Y-69284000D01*
D15*
%TO.N,+0.8V*%
X84696000Y-67861000D02*
X84696000Y-67930000D01*
X85262000Y-67295000D02*
X84696000Y-67861000D01*
X98713000Y-67295000D02*
X85262000Y-67295000D01*
X99348000Y-67930000D02*
X98713000Y-67295000D01*
%TO.N,+1.2V*%
X87505000Y-67695000D02*
X86917000Y-68283000D01*
X97190000Y-68290000D02*
X96595000Y-67695000D01*
X96595000Y-67695000D02*
X87505000Y-67695000D01*
X86917000Y-68283000D02*
X86917000Y-68340000D01*
%TO.N,+0.8V*%
X109265000Y-67295000D02*
X108699000Y-67861000D01*
X122716000Y-67295000D02*
X109265000Y-67295000D01*
X108699000Y-67861000D02*
X108699000Y-67930000D01*
X123351000Y-67930000D02*
X122716000Y-67295000D01*
%TO.N,+1.2V*%
X111505000Y-67695000D02*
X110920000Y-68280000D01*
X120595000Y-67695000D02*
X111505000Y-67695000D01*
X110920000Y-68280000D02*
X110920000Y-68340000D01*
X121190000Y-68290000D02*
X120595000Y-67695000D01*
%TO.N,+0.8V*%
X132702000Y-67861000D02*
X132702000Y-67930000D01*
X146719000Y-67295000D02*
X133268000Y-67295000D01*
X147354000Y-67930000D02*
X146719000Y-67295000D01*
X133268000Y-67295000D02*
X132702000Y-67861000D01*
%TO.N,+1.2V*%
X134923000Y-68277000D02*
X134923000Y-68340000D01*
X135505000Y-67695000D02*
X134923000Y-68277000D01*
X144595000Y-67695000D02*
X135505000Y-67695000D01*
X145190000Y-68290000D02*
X144595000Y-67695000D01*
%TO.N,+0.8V*%
X156705000Y-67861000D02*
X156705000Y-67930000D01*
X157271000Y-67295000D02*
X156705000Y-67861000D01*
X171357000Y-67930000D02*
X170722000Y-67295000D01*
X170722000Y-67295000D02*
X157271000Y-67295000D01*
%TO.N,+1.2V*%
X158926000Y-68274000D02*
X158926000Y-68340000D01*
X159505000Y-67695000D02*
X158926000Y-68274000D01*
X168595000Y-67695000D02*
X159505000Y-67695000D01*
X169190000Y-68290000D02*
X168595000Y-67695000D01*
%TO.N,+0.8V*%
X181274000Y-67295000D02*
X180639000Y-67930000D01*
X194725000Y-67295000D02*
X181274000Y-67295000D01*
X195360000Y-67930000D02*
X194725000Y-67295000D01*
%TO.N,+1.2V*%
X183505000Y-67695000D02*
X182860000Y-68340000D01*
X192595000Y-67695000D02*
X183505000Y-67695000D01*
X193190000Y-68290000D02*
X192595000Y-67695000D01*
%TO.N,+0.8V*%
X99348000Y-67930000D02*
X108630000Y-67930000D01*
X123351000Y-67930000D02*
X132633000Y-67930000D01*
X147354000Y-67930000D02*
X156636000Y-67930000D01*
%TO.N,+1.2V*%
X97592000Y-68692000D02*
X97190000Y-68290000D01*
X110508000Y-68692000D02*
X97592000Y-68692000D01*
X110860000Y-68340000D02*
X110508000Y-68692000D01*
X134508000Y-68692000D02*
X134860000Y-68340000D01*
X121190000Y-68290000D02*
X121592000Y-68692000D01*
X121592000Y-68692000D02*
X134508000Y-68692000D01*
X145592000Y-68692000D02*
X145190000Y-68290000D01*
X158508000Y-68692000D02*
X145592000Y-68692000D01*
X158860000Y-68340000D02*
X158508000Y-68692000D01*
X182508000Y-68692000D02*
X182860000Y-68340000D01*
X169592000Y-68692000D02*
X182508000Y-68692000D01*
X169190000Y-68290000D02*
X169592000Y-68692000D01*
D16*
%TO.N,+5V_STDBY*%
X67145000Y-76185000D02*
X67145000Y-66700050D01*
X67145000Y-76232000D02*
X67145000Y-76185000D01*
X67145000Y-66700050D02*
X69572000Y-64273050D01*
X69572000Y-64273050D02*
X69572000Y-60437000D01*
X69064000Y-78151000D02*
X69064000Y-102220000D01*
X67145000Y-76232000D02*
X69064000Y-78151000D01*
X69572000Y-60437000D02*
X73255000Y-56754000D01*
X69064000Y-102220000D02*
X73128000Y-106284000D01*
D15*
%TO.N,+0.8V*%
X181340000Y-107808000D02*
X194532000Y-107808000D01*
X123412000Y-107046000D02*
X132826000Y-107046000D01*
X122658000Y-107800000D02*
X123412000Y-107046000D01*
X84566000Y-107046000D02*
X85220000Y-107700000D01*
X180578000Y-107046000D02*
X181340000Y-107808000D01*
X99282000Y-107046000D02*
X108696000Y-107046000D01*
X85220000Y-107700000D02*
X98628000Y-107700000D01*
X147288000Y-107046000D02*
X156702000Y-107046000D01*
X109450000Y-107800000D02*
X122658000Y-107800000D01*
X146526000Y-107808000D02*
X147288000Y-107046000D01*
X194532000Y-107808000D02*
X195294000Y-107046000D01*
X108696000Y-107046000D02*
X109450000Y-107800000D01*
X171418000Y-107046000D02*
X180578000Y-107046000D01*
X132826000Y-107046000D02*
X133588000Y-107808000D01*
X133588000Y-107808000D02*
X146526000Y-107808000D01*
X98628000Y-107700000D02*
X99282000Y-107046000D01*
X156702000Y-107046000D02*
X157464000Y-107808000D01*
X157464000Y-107808000D02*
X170656000Y-107808000D01*
X170656000Y-107808000D02*
X171418000Y-107046000D01*
%TO.N,+1.2V*%
X145142000Y-106660000D02*
X145391000Y-106411000D01*
X97516000Y-106284000D02*
X110384000Y-106284000D01*
X182511000Y-106411000D02*
X182810000Y-106710000D01*
X111400000Y-107300000D02*
X120500000Y-107300000D01*
X182810000Y-106710000D02*
X183400000Y-107300000D01*
X134511000Y-106411000D02*
X134810000Y-106710000D01*
X86810000Y-106710000D02*
X87400000Y-107300000D01*
X144500000Y-107300000D02*
X135400000Y-107300000D01*
X97140000Y-106660000D02*
X97516000Y-106284000D01*
X145140000Y-106660000D02*
X144500000Y-107300000D01*
X96500000Y-107300000D02*
X97140000Y-106660000D01*
X110810000Y-106710000D02*
X111400000Y-107300000D01*
X169140000Y-106660000D02*
X168500000Y-107300000D01*
X159400000Y-107300000D02*
X158810000Y-106710000D01*
X169394000Y-106411000D02*
X182511000Y-106411000D01*
X120500000Y-107300000D02*
X121140000Y-106660000D01*
X183400000Y-107300000D02*
X192500000Y-107300000D01*
X168500000Y-107300000D02*
X159400000Y-107300000D01*
X135400000Y-107300000D02*
X134810000Y-106710000D01*
X121389000Y-106411000D02*
X134511000Y-106411000D01*
X121140000Y-106660000D02*
X121389000Y-106411000D01*
X169140000Y-106660000D02*
X169145000Y-106660000D01*
X145140000Y-106660000D02*
X145142000Y-106660000D01*
X110384000Y-106284000D02*
X110810000Y-106710000D01*
X169145000Y-106660000D02*
X169394000Y-106411000D01*
X87400000Y-107300000D02*
X96500000Y-107300000D01*
X158511000Y-106411000D02*
X158810000Y-106710000D01*
X145391000Y-106411000D02*
X158511000Y-106411000D01*
X192500000Y-107300000D02*
X193140000Y-106660000D01*
%TO.N,/CTN1_RTN*%
X102338000Y-109586000D02*
X103100000Y-108824000D01*
X76811000Y-108117591D02*
X78279409Y-109586000D01*
X78279409Y-109586000D02*
X102338000Y-109586000D01*
%TO.N,/CTN1*%
X78113723Y-109986000D02*
X78094724Y-109967000D01*
X102954000Y-109986000D02*
X78113723Y-109986000D01*
X104116000Y-108824000D02*
X102954000Y-109986000D01*
X78081000Y-109967000D02*
X76811000Y-108697000D01*
X78094724Y-109967000D02*
X78081000Y-109967000D01*
X76811000Y-108697000D02*
X75795000Y-108697000D01*
%TO.N,/CTN2*%
X153138000Y-108824000D02*
X151175996Y-110786004D01*
X75804668Y-110592332D02*
X75804667Y-110592332D01*
X75804668Y-110592333D02*
X75804668Y-110592332D01*
X75998339Y-110786004D02*
X75804668Y-110592333D01*
X151175996Y-110786004D02*
X75998339Y-110786004D01*
%TO.N,/CTN2_RTN*%
X151868000Y-108824000D02*
X150306000Y-110386000D01*
X150306000Y-110386000D02*
X77357000Y-110386000D01*
X77357000Y-110386000D02*
X76811000Y-109840000D01*
D17*
%TO.N,/RSTIn*%
X74906000Y-78943000D02*
X72195000Y-76232000D01*
X79986000Y-100188000D02*
X74906000Y-95108000D01*
X74906000Y-95108000D02*
X74906000Y-78943000D01*
X81002000Y-100188000D02*
X79986000Y-100188000D01*
%TO.N,/CI*%
X74398000Y-96632000D02*
X74398000Y-80975000D01*
X79224000Y-101458000D02*
X74398000Y-96632000D01*
X74398000Y-80975000D02*
X72195000Y-78772000D01*
%TO.N,/RO*%
X77446000Y-101458000D02*
X73382000Y-97394000D01*
X73382000Y-82499000D02*
X72195000Y-81312000D01*
X73382000Y-97394000D02*
X73382000Y-82499000D01*
D15*
%TO.N,+0.8V*%
X171357000Y-67930000D02*
X180639000Y-67930000D01*
%TD*%
%TA.AperFunction,Conductor*%
%TO.N,VPWR_ASIC*%
G36*
X86703148Y-79887685D02*
G01*
X86748902Y-79940487D01*
X86797118Y-80046063D01*
X86881951Y-80143967D01*
X86990931Y-80214004D01*
X87115225Y-80250499D01*
X87115227Y-80250500D01*
X87115228Y-80250500D01*
X87244773Y-80250500D01*
X87244773Y-80250499D01*
X87369069Y-80214004D01*
X87478049Y-80143967D01*
X87562882Y-80046063D01*
X87611097Y-79940487D01*
X87656852Y-79887684D01*
X87723891Y-79868000D01*
X88700000Y-79868000D01*
X95300000Y-79868000D01*
X96256109Y-79868000D01*
X96323148Y-79887685D01*
X96368902Y-79940487D01*
X96417118Y-80046063D01*
X96501951Y-80143967D01*
X96610931Y-80214004D01*
X96735225Y-80250499D01*
X96735227Y-80250500D01*
X96735228Y-80250500D01*
X96864773Y-80250500D01*
X96864773Y-80250499D01*
X96989069Y-80214004D01*
X97098049Y-80143967D01*
X97182882Y-80046063D01*
X97231097Y-79940487D01*
X97276852Y-79887684D01*
X97343891Y-79868000D01*
X110636109Y-79868000D01*
X110703148Y-79887685D01*
X110748902Y-79940487D01*
X110797118Y-80046063D01*
X110881951Y-80143967D01*
X110990931Y-80214004D01*
X111115225Y-80250499D01*
X111115227Y-80250500D01*
X111115228Y-80250500D01*
X111244773Y-80250500D01*
X111244773Y-80250499D01*
X111369069Y-80214004D01*
X111478049Y-80143967D01*
X111562882Y-80046063D01*
X111611097Y-79940487D01*
X111656852Y-79887684D01*
X111723891Y-79868000D01*
X112700000Y-79868000D01*
X119300000Y-79868000D01*
X120256109Y-79868000D01*
X120323148Y-79887685D01*
X120368902Y-79940487D01*
X120417118Y-80046063D01*
X120501951Y-80143967D01*
X120610931Y-80214004D01*
X120735225Y-80250499D01*
X120735227Y-80250500D01*
X120735228Y-80250500D01*
X120864773Y-80250500D01*
X120864773Y-80250499D01*
X120989069Y-80214004D01*
X121098049Y-80143967D01*
X121182882Y-80046063D01*
X121231097Y-79940487D01*
X121276852Y-79887684D01*
X121343891Y-79868000D01*
X134636109Y-79868000D01*
X134703148Y-79887685D01*
X134748902Y-79940487D01*
X134797118Y-80046063D01*
X134881951Y-80143967D01*
X134990931Y-80214004D01*
X135115225Y-80250499D01*
X135115227Y-80250500D01*
X135115228Y-80250500D01*
X135244773Y-80250500D01*
X135244773Y-80250499D01*
X135369069Y-80214004D01*
X135478049Y-80143967D01*
X135562882Y-80046063D01*
X135611097Y-79940487D01*
X135656852Y-79887684D01*
X135723891Y-79868000D01*
X136700000Y-79868000D01*
X143300000Y-79868000D01*
X144256109Y-79868000D01*
X144323148Y-79887685D01*
X144368902Y-79940487D01*
X144417118Y-80046063D01*
X144501951Y-80143967D01*
X144610931Y-80214004D01*
X144735225Y-80250499D01*
X144735227Y-80250500D01*
X144735228Y-80250500D01*
X144864773Y-80250500D01*
X144864773Y-80250499D01*
X144989069Y-80214004D01*
X145098049Y-80143967D01*
X145182882Y-80046063D01*
X145231097Y-79940487D01*
X145276852Y-79887684D01*
X145343891Y-79868000D01*
X158636109Y-79868000D01*
X158703148Y-79887685D01*
X158748902Y-79940487D01*
X158797118Y-80046063D01*
X158881951Y-80143967D01*
X158990931Y-80214004D01*
X159115225Y-80250499D01*
X159115227Y-80250500D01*
X159115228Y-80250500D01*
X159244773Y-80250500D01*
X159244773Y-80250499D01*
X159369069Y-80214004D01*
X159478049Y-80143967D01*
X159562882Y-80046063D01*
X159611097Y-79940487D01*
X159656852Y-79887684D01*
X159723891Y-79868000D01*
X160700000Y-79868000D01*
X167300000Y-79868000D01*
X168256109Y-79868000D01*
X168323148Y-79887685D01*
X168368902Y-79940487D01*
X168417118Y-80046063D01*
X168501951Y-80143967D01*
X168610931Y-80214004D01*
X168735225Y-80250499D01*
X168735227Y-80250500D01*
X168735228Y-80250500D01*
X168864773Y-80250500D01*
X168864773Y-80250499D01*
X168989069Y-80214004D01*
X169098049Y-80143967D01*
X169182882Y-80046063D01*
X169231097Y-79940487D01*
X169276852Y-79887684D01*
X169343891Y-79868000D01*
X182636109Y-79868000D01*
X182703148Y-79887685D01*
X182748902Y-79940487D01*
X182797118Y-80046063D01*
X182881951Y-80143967D01*
X182990931Y-80214004D01*
X183115225Y-80250499D01*
X183115227Y-80250500D01*
X183115228Y-80250500D01*
X183244773Y-80250500D01*
X183244773Y-80250499D01*
X183369069Y-80214004D01*
X183478049Y-80143967D01*
X183562882Y-80046063D01*
X183611097Y-79940487D01*
X183656852Y-79887684D01*
X183723891Y-79868000D01*
X184700000Y-79868000D01*
X191300000Y-79868000D01*
X192256109Y-79868000D01*
X192323148Y-79887685D01*
X192368902Y-79940487D01*
X192417118Y-80046063D01*
X192501951Y-80143967D01*
X192610931Y-80214004D01*
X192735225Y-80250499D01*
X192735227Y-80250500D01*
X192735228Y-80250500D01*
X192864773Y-80250500D01*
X192864773Y-80250499D01*
X192989069Y-80214004D01*
X193098049Y-80143967D01*
X193182882Y-80046063D01*
X193231097Y-79940487D01*
X193276852Y-79887684D01*
X193343891Y-79868000D01*
X203075500Y-79868000D01*
X203142539Y-79887685D01*
X203188294Y-79940489D01*
X203199500Y-79992000D01*
X203199500Y-94984000D01*
X203179815Y-95051039D01*
X203127011Y-95096794D01*
X203075500Y-95108000D01*
X193352931Y-95108000D01*
X193285892Y-95088315D01*
X193240137Y-95035512D01*
X193202882Y-94953938D01*
X193202882Y-94953937D01*
X193118049Y-94856033D01*
X193009069Y-94785996D01*
X193009065Y-94785994D01*
X193009064Y-94785994D01*
X192884774Y-94749500D01*
X192884772Y-94749500D01*
X192755228Y-94749500D01*
X192755226Y-94749500D01*
X192630935Y-94785994D01*
X192630932Y-94785995D01*
X192630931Y-94785996D01*
X192601855Y-94804682D01*
X192521950Y-94856033D01*
X192437118Y-94953937D01*
X192437117Y-94953938D01*
X192399863Y-95035512D01*
X192354108Y-95088316D01*
X192287069Y-95108000D01*
X183732931Y-95108000D01*
X183665892Y-95088315D01*
X183620137Y-95035512D01*
X183582882Y-94953938D01*
X183582882Y-94953937D01*
X183498049Y-94856033D01*
X183389069Y-94785996D01*
X183389065Y-94785994D01*
X183389064Y-94785994D01*
X183264774Y-94749500D01*
X183264772Y-94749500D01*
X183135228Y-94749500D01*
X183135226Y-94749500D01*
X183010935Y-94785994D01*
X183010932Y-94785995D01*
X183010931Y-94785996D01*
X182981855Y-94804682D01*
X182901950Y-94856033D01*
X182817118Y-94953937D01*
X182817117Y-94953938D01*
X182779863Y-95035512D01*
X182734108Y-95088316D01*
X182667069Y-95108000D01*
X169352931Y-95108000D01*
X169285892Y-95088315D01*
X169240137Y-95035512D01*
X169202882Y-94953938D01*
X169202882Y-94953937D01*
X169118049Y-94856033D01*
X169009069Y-94785996D01*
X169009065Y-94785994D01*
X169009064Y-94785994D01*
X168884774Y-94749500D01*
X168884772Y-94749500D01*
X168755228Y-94749500D01*
X168755226Y-94749500D01*
X168630935Y-94785994D01*
X168630932Y-94785995D01*
X168630931Y-94785996D01*
X168601855Y-94804682D01*
X168521950Y-94856033D01*
X168437118Y-94953937D01*
X168437117Y-94953938D01*
X168399863Y-95035512D01*
X168354108Y-95088316D01*
X168287069Y-95108000D01*
X159732931Y-95108000D01*
X159665892Y-95088315D01*
X159620137Y-95035512D01*
X159582882Y-94953938D01*
X159582882Y-94953937D01*
X159498049Y-94856033D01*
X159389069Y-94785996D01*
X159389065Y-94785994D01*
X159389064Y-94785994D01*
X159264774Y-94749500D01*
X159264772Y-94749500D01*
X159135228Y-94749500D01*
X159135226Y-94749500D01*
X159010935Y-94785994D01*
X159010932Y-94785995D01*
X159010931Y-94785996D01*
X158981855Y-94804682D01*
X158901950Y-94856033D01*
X158817118Y-94953937D01*
X158817117Y-94953938D01*
X158779863Y-95035512D01*
X158734108Y-95088316D01*
X158667069Y-95108000D01*
X145352931Y-95108000D01*
X145285892Y-95088315D01*
X145240137Y-95035512D01*
X145202882Y-94953938D01*
X145202882Y-94953937D01*
X145118049Y-94856033D01*
X145009069Y-94785996D01*
X145009065Y-94785994D01*
X145009064Y-94785994D01*
X144884774Y-94749500D01*
X144884772Y-94749500D01*
X144755228Y-94749500D01*
X144755226Y-94749500D01*
X144630935Y-94785994D01*
X144630932Y-94785995D01*
X144630931Y-94785996D01*
X144601855Y-94804682D01*
X144521950Y-94856033D01*
X144437118Y-94953937D01*
X144437117Y-94953938D01*
X144399863Y-95035512D01*
X144354108Y-95088316D01*
X144287069Y-95108000D01*
X135732931Y-95108000D01*
X135665892Y-95088315D01*
X135620137Y-95035512D01*
X135582882Y-94953938D01*
X135582882Y-94953937D01*
X135498049Y-94856033D01*
X135389069Y-94785996D01*
X135389065Y-94785994D01*
X135389064Y-94785994D01*
X135264774Y-94749500D01*
X135264772Y-94749500D01*
X135135228Y-94749500D01*
X135135226Y-94749500D01*
X135010935Y-94785994D01*
X135010932Y-94785995D01*
X135010931Y-94785996D01*
X134981855Y-94804682D01*
X134901950Y-94856033D01*
X134817118Y-94953937D01*
X134817117Y-94953938D01*
X134779863Y-95035512D01*
X134734108Y-95088316D01*
X134667069Y-95108000D01*
X121352931Y-95108000D01*
X121285892Y-95088315D01*
X121240137Y-95035512D01*
X121202882Y-94953938D01*
X121202882Y-94953937D01*
X121118049Y-94856033D01*
X121009069Y-94785996D01*
X121009065Y-94785994D01*
X121009064Y-94785994D01*
X120884774Y-94749500D01*
X120884772Y-94749500D01*
X120755228Y-94749500D01*
X120755226Y-94749500D01*
X120630935Y-94785994D01*
X120630932Y-94785995D01*
X120630931Y-94785996D01*
X120601855Y-94804682D01*
X120521950Y-94856033D01*
X120437118Y-94953937D01*
X120437117Y-94953938D01*
X120399863Y-95035512D01*
X120354108Y-95088316D01*
X120287069Y-95108000D01*
X111732931Y-95108000D01*
X111665892Y-95088315D01*
X111620137Y-95035512D01*
X111582882Y-94953938D01*
X111582882Y-94953937D01*
X111498049Y-94856033D01*
X111389069Y-94785996D01*
X111389065Y-94785994D01*
X111389064Y-94785994D01*
X111264774Y-94749500D01*
X111264772Y-94749500D01*
X111135228Y-94749500D01*
X111135226Y-94749500D01*
X111010935Y-94785994D01*
X111010932Y-94785995D01*
X111010931Y-94785996D01*
X110981855Y-94804682D01*
X110901950Y-94856033D01*
X110817118Y-94953937D01*
X110817117Y-94953938D01*
X110779863Y-95035512D01*
X110734108Y-95088316D01*
X110667069Y-95108000D01*
X97352931Y-95108000D01*
X97285892Y-95088315D01*
X97240137Y-95035512D01*
X97202882Y-94953938D01*
X97202882Y-94953937D01*
X97118049Y-94856033D01*
X97009069Y-94785996D01*
X97009065Y-94785994D01*
X97009064Y-94785994D01*
X96884774Y-94749500D01*
X96884772Y-94749500D01*
X96755228Y-94749500D01*
X96755226Y-94749500D01*
X96630935Y-94785994D01*
X96630932Y-94785995D01*
X96630931Y-94785996D01*
X96601855Y-94804682D01*
X96521950Y-94856033D01*
X96437118Y-94953937D01*
X96437117Y-94953938D01*
X96399863Y-95035512D01*
X96354108Y-95088316D01*
X96287069Y-95108000D01*
X87732931Y-95108000D01*
X87665892Y-95088315D01*
X87620137Y-95035512D01*
X87582882Y-94953938D01*
X87582882Y-94953937D01*
X87498049Y-94856033D01*
X87389069Y-94785996D01*
X87389065Y-94785994D01*
X87389064Y-94785994D01*
X87264774Y-94749500D01*
X87264772Y-94749500D01*
X87135228Y-94749500D01*
X87135226Y-94749500D01*
X87010935Y-94785994D01*
X87010932Y-94785995D01*
X87010931Y-94785996D01*
X86981855Y-94804682D01*
X86901950Y-94856033D01*
X86817118Y-94953937D01*
X86817117Y-94953938D01*
X86779863Y-95035512D01*
X86734108Y-95088316D01*
X86667069Y-95108000D01*
X76427000Y-95108000D01*
X76359961Y-95088315D01*
X76314206Y-95035511D01*
X76303000Y-94984000D01*
X76303000Y-88377000D01*
X114458867Y-88377000D01*
X114477302Y-88505225D01*
X114531117Y-88623061D01*
X114531118Y-88623063D01*
X114615951Y-88720967D01*
X114724931Y-88791004D01*
X114849225Y-88827499D01*
X114849227Y-88827500D01*
X114849228Y-88827500D01*
X114978773Y-88827500D01*
X114978773Y-88827499D01*
X115103069Y-88791004D01*
X115212049Y-88720967D01*
X115296882Y-88623063D01*
X115350697Y-88505226D01*
X115369133Y-88377000D01*
X162464867Y-88377000D01*
X162483302Y-88505225D01*
X162537117Y-88623061D01*
X162537118Y-88623063D01*
X162621951Y-88720967D01*
X162730931Y-88791004D01*
X162855225Y-88827499D01*
X162855227Y-88827500D01*
X162855228Y-88827500D01*
X162984773Y-88827500D01*
X162984773Y-88827499D01*
X163109069Y-88791004D01*
X163218049Y-88720967D01*
X163302882Y-88623063D01*
X163356697Y-88505226D01*
X163375133Y-88377000D01*
X163356697Y-88248774D01*
X163302882Y-88130937D01*
X163218049Y-88033033D01*
X163109069Y-87962996D01*
X163109065Y-87962994D01*
X163109064Y-87962994D01*
X162984774Y-87926500D01*
X162984772Y-87926500D01*
X162855228Y-87926500D01*
X162855226Y-87926500D01*
X162730935Y-87962994D01*
X162730932Y-87962995D01*
X162730931Y-87962996D01*
X162679677Y-87995934D01*
X162621950Y-88033033D01*
X162537118Y-88130937D01*
X162537117Y-88130938D01*
X162483302Y-88248774D01*
X162464867Y-88377000D01*
X115369133Y-88377000D01*
X115350697Y-88248774D01*
X115296882Y-88130937D01*
X115212049Y-88033033D01*
X115103069Y-87962996D01*
X115103065Y-87962994D01*
X115103064Y-87962994D01*
X114978774Y-87926500D01*
X114978772Y-87926500D01*
X114849228Y-87926500D01*
X114849226Y-87926500D01*
X114724935Y-87962994D01*
X114724932Y-87962995D01*
X114724931Y-87962996D01*
X114673677Y-87995934D01*
X114615950Y-88033033D01*
X114531118Y-88130937D01*
X114531117Y-88130938D01*
X114477302Y-88248774D01*
X114458867Y-88377000D01*
X76303000Y-88377000D01*
X76303000Y-86675000D01*
X114404867Y-86675000D01*
X114423302Y-86803225D01*
X114477117Y-86921061D01*
X114477118Y-86921063D01*
X114561951Y-87018967D01*
X114670931Y-87089004D01*
X114795225Y-87125499D01*
X114795227Y-87125500D01*
X114795228Y-87125500D01*
X114924773Y-87125500D01*
X114924773Y-87125499D01*
X115049069Y-87089004D01*
X115158049Y-87018967D01*
X115242882Y-86921063D01*
X115296697Y-86803226D01*
X115315133Y-86675000D01*
X162410867Y-86675000D01*
X162429302Y-86803225D01*
X162483117Y-86921061D01*
X162483118Y-86921063D01*
X162567951Y-87018967D01*
X162676931Y-87089004D01*
X162801225Y-87125499D01*
X162801227Y-87125500D01*
X162801228Y-87125500D01*
X162930773Y-87125500D01*
X162930773Y-87125499D01*
X163055069Y-87089004D01*
X163164049Y-87018967D01*
X163248882Y-86921063D01*
X163302697Y-86803226D01*
X163321133Y-86675000D01*
X163302697Y-86546774D01*
X163248882Y-86428937D01*
X163164049Y-86331033D01*
X163055069Y-86260996D01*
X163055065Y-86260994D01*
X163055064Y-86260994D01*
X162930774Y-86224500D01*
X162930772Y-86224500D01*
X162801228Y-86224500D01*
X162801226Y-86224500D01*
X162676935Y-86260994D01*
X162676932Y-86260995D01*
X162676931Y-86260996D01*
X162625677Y-86293934D01*
X162567950Y-86331033D01*
X162483118Y-86428937D01*
X162483117Y-86428938D01*
X162429302Y-86546774D01*
X162410867Y-86675000D01*
X115315133Y-86675000D01*
X115296697Y-86546774D01*
X115242882Y-86428937D01*
X115158049Y-86331033D01*
X115049069Y-86260996D01*
X115049065Y-86260994D01*
X115049064Y-86260994D01*
X114924774Y-86224500D01*
X114924772Y-86224500D01*
X114795228Y-86224500D01*
X114795226Y-86224500D01*
X114670935Y-86260994D01*
X114670932Y-86260995D01*
X114670931Y-86260996D01*
X114619677Y-86293934D01*
X114561950Y-86331033D01*
X114477118Y-86428937D01*
X114477117Y-86428938D01*
X114423302Y-86546774D01*
X114404867Y-86675000D01*
X76303000Y-86675000D01*
X76303000Y-79992000D01*
X76322685Y-79924961D01*
X76375489Y-79879206D01*
X76427000Y-79868000D01*
X86636109Y-79868000D01*
X86703148Y-79887685D01*
G37*
%TD.AperFunction*%
%TD*%
%TA.AperFunction,Conductor*%
%TO.N,GND*%
G36*
X204392539Y-55503685D02*
G01*
X204438294Y-55556489D01*
X204449500Y-55608000D01*
X204449500Y-74575167D01*
X204429815Y-74642206D01*
X204377011Y-74687961D01*
X204307853Y-74697905D01*
X204244297Y-74668880D01*
X204237819Y-74662848D01*
X202903381Y-73328410D01*
X202869896Y-73267087D01*
X202868324Y-73258375D01*
X202866183Y-73243487D01*
X202850697Y-73135774D01*
X202796882Y-73017937D01*
X202712049Y-72920033D01*
X202603069Y-72849996D01*
X202603065Y-72849994D01*
X202603064Y-72849994D01*
X202478774Y-72813500D01*
X202478772Y-72813500D01*
X202349228Y-72813500D01*
X202349226Y-72813500D01*
X202224935Y-72849994D01*
X202224932Y-72849995D01*
X202224931Y-72849996D01*
X202184417Y-72876033D01*
X202115950Y-72920033D01*
X202031118Y-73017937D01*
X202031117Y-73017938D01*
X201977302Y-73135774D01*
X201958867Y-73264000D01*
X201971318Y-73350600D01*
X201961374Y-73419759D01*
X201915619Y-73472563D01*
X201848580Y-73492247D01*
X201781540Y-73472562D01*
X201760899Y-73455928D01*
X201328512Y-73023541D01*
X201328511Y-73023540D01*
X201307182Y-73011226D01*
X201307182Y-73011224D01*
X201307179Y-73011224D01*
X201259994Y-72983981D01*
X201259991Y-72983979D01*
X201221516Y-72973670D01*
X201183562Y-72963500D01*
X201183560Y-72963500D01*
X200774343Y-72963500D01*
X200707304Y-72943815D01*
X200680631Y-72920704D01*
X200680050Y-72920034D01*
X200680049Y-72920033D01*
X200571069Y-72849996D01*
X200571065Y-72849994D01*
X200571064Y-72849994D01*
X200446774Y-72813500D01*
X200446772Y-72813500D01*
X200317228Y-72813500D01*
X200317226Y-72813500D01*
X200192935Y-72849994D01*
X200192932Y-72849995D01*
X200192931Y-72849996D01*
X200152417Y-72876033D01*
X200083950Y-72920033D01*
X199999118Y-73017937D01*
X199999117Y-73017938D01*
X199945302Y-73135774D01*
X199926867Y-73264000D01*
X199945302Y-73392225D01*
X199999117Y-73510061D01*
X199999118Y-73510063D01*
X200050640Y-73569523D01*
X200083369Y-73607296D01*
X200083951Y-73607967D01*
X200192931Y-73678004D01*
X200315508Y-73713995D01*
X200317225Y-73714499D01*
X200317227Y-73714500D01*
X200317228Y-73714500D01*
X200446773Y-73714500D01*
X200446773Y-73714499D01*
X200571069Y-73678004D01*
X200680049Y-73607967D01*
X200680374Y-73607591D01*
X200680631Y-73607296D01*
X200681379Y-73606815D01*
X200686754Y-73602158D01*
X200687423Y-73602930D01*
X200739409Y-73569523D01*
X200774343Y-73564500D01*
X200968167Y-73564500D01*
X201035206Y-73584185D01*
X201055848Y-73600819D01*
X202360150Y-74905121D01*
X202393635Y-74966444D01*
X202388651Y-75036136D01*
X202346779Y-75092069D01*
X202307404Y-75111779D01*
X202224934Y-75135994D01*
X202115950Y-75206033D01*
X202031118Y-75303937D01*
X202031117Y-75303938D01*
X201977302Y-75421774D01*
X201958867Y-75550000D01*
X201977302Y-75678225D01*
X202031117Y-75796061D01*
X202031118Y-75796063D01*
X202115951Y-75893967D01*
X202224931Y-75964004D01*
X202349225Y-76000499D01*
X202349227Y-76000500D01*
X202349228Y-76000500D01*
X202478773Y-76000500D01*
X202478773Y-76000499D01*
X202603069Y-75964004D01*
X202712049Y-75893967D01*
X202796882Y-75796063D01*
X202850697Y-75678226D01*
X202850960Y-75676392D01*
X202851730Y-75674705D01*
X202853197Y-75669713D01*
X202853914Y-75669923D01*
X202879980Y-75612836D01*
X202938756Y-75575057D01*
X203008625Y-75575052D01*
X203061380Y-75606351D01*
X203563181Y-76108152D01*
X203596666Y-76169475D01*
X203599500Y-76195833D01*
X203599500Y-77789167D01*
X203579815Y-77856206D01*
X203527011Y-77901961D01*
X203457853Y-77911905D01*
X203394297Y-77882880D01*
X203387819Y-77876848D01*
X200871381Y-75360410D01*
X200837896Y-75299087D01*
X200836324Y-75290375D01*
X200834037Y-75274471D01*
X200818697Y-75167774D01*
X200764882Y-75049937D01*
X200680049Y-74952033D01*
X200571069Y-74881996D01*
X200571065Y-74881994D01*
X200571064Y-74881994D01*
X200446774Y-74845500D01*
X200446772Y-74845500D01*
X200317228Y-74845500D01*
X200317226Y-74845500D01*
X200192935Y-74881994D01*
X200192932Y-74881995D01*
X200192931Y-74881996D01*
X200156948Y-74905121D01*
X200083950Y-74952033D01*
X199999118Y-75049937D01*
X199999117Y-75049938D01*
X199945302Y-75167774D01*
X199926867Y-75296000D01*
X199945302Y-75424225D01*
X199962648Y-75462206D01*
X199999118Y-75542063D01*
X200083951Y-75639967D01*
X200192931Y-75710004D01*
X200317225Y-75746499D01*
X200317227Y-75746500D01*
X200317228Y-75746500D01*
X200356167Y-75746500D01*
X200423206Y-75766185D01*
X200443848Y-75782819D01*
X203163181Y-78502152D01*
X203196666Y-78563475D01*
X203199500Y-78589833D01*
X203199500Y-79538500D01*
X203179815Y-79605539D01*
X203127011Y-79651294D01*
X203075500Y-79662500D01*
X193343890Y-79662500D01*
X193286003Y-79670822D01*
X193285987Y-79670826D01*
X193218986Y-79690498D01*
X193218959Y-79690507D01*
X193195313Y-79699052D01*
X193121548Y-79753107D01*
X193075795Y-79805908D01*
X193044167Y-79855120D01*
X193044164Y-79855126D01*
X193015632Y-79917600D01*
X192996553Y-79947287D01*
X192973763Y-79973589D01*
X192947090Y-79996702D01*
X192917822Y-80015512D01*
X192885715Y-80030175D01*
X192852332Y-80039977D01*
X192817399Y-80045000D01*
X192782601Y-80045000D01*
X192747672Y-80039978D01*
X192714279Y-80030173D01*
X192682176Y-80015512D01*
X192652908Y-79996702D01*
X192626236Y-79973591D01*
X192603446Y-79947290D01*
X192584365Y-79917598D01*
X192555836Y-79855128D01*
X192555831Y-79855119D01*
X192555831Y-79855118D01*
X192524207Y-79805912D01*
X192478453Y-79753110D01*
X192460863Y-79735157D01*
X192460861Y-79735156D01*
X192460859Y-79735154D01*
X192381049Y-79690511D01*
X192381044Y-79690509D01*
X192314012Y-79670826D01*
X192314008Y-79670825D01*
X192314007Y-79670825D01*
X192256109Y-79662500D01*
X192256105Y-79662500D01*
X191629500Y-79662500D01*
X191562461Y-79642815D01*
X191516706Y-79590011D01*
X191505500Y-79538500D01*
X191505500Y-73924008D01*
X191505499Y-73923992D01*
X191502680Y-73897774D01*
X191500803Y-73880316D01*
X191496304Y-73859634D01*
X191489602Y-73828825D01*
X191489348Y-73827789D01*
X191487110Y-73818627D01*
X191444100Y-73737915D01*
X191398345Y-73685111D01*
X191398339Y-73685104D01*
X191380757Y-73667160D01*
X191380756Y-73667159D01*
X191380754Y-73667157D01*
X191380752Y-73667156D01*
X191380750Y-73667154D01*
X191300940Y-73622511D01*
X191300935Y-73622509D01*
X191233903Y-73602826D01*
X191233899Y-73602825D01*
X191233898Y-73602825D01*
X191176000Y-73594500D01*
X184824000Y-73594500D01*
X184823992Y-73594500D01*
X184780313Y-73599197D01*
X184728825Y-73610397D01*
X184718627Y-73612890D01*
X184718624Y-73612891D01*
X184637916Y-73655899D01*
X184637913Y-73655901D01*
X184585104Y-73701660D01*
X184567160Y-73719242D01*
X184567154Y-73719249D01*
X184522511Y-73799059D01*
X184522509Y-73799064D01*
X184502826Y-73866096D01*
X184502825Y-73866101D01*
X184502825Y-73866102D01*
X184494502Y-73923992D01*
X184494500Y-73924003D01*
X184494500Y-79538500D01*
X184474815Y-79605539D01*
X184422011Y-79651294D01*
X184370500Y-79662500D01*
X183723890Y-79662500D01*
X183666003Y-79670822D01*
X183665987Y-79670826D01*
X183598986Y-79690498D01*
X183598959Y-79690507D01*
X183575313Y-79699052D01*
X183501548Y-79753107D01*
X183455795Y-79805908D01*
X183424167Y-79855120D01*
X183424164Y-79855126D01*
X183395632Y-79917600D01*
X183376553Y-79947287D01*
X183353763Y-79973589D01*
X183327090Y-79996702D01*
X183297822Y-80015512D01*
X183265715Y-80030175D01*
X183232332Y-80039977D01*
X183197399Y-80045000D01*
X183162601Y-80045000D01*
X183127672Y-80039978D01*
X183094279Y-80030173D01*
X183062176Y-80015512D01*
X183032908Y-79996702D01*
X183006236Y-79973591D01*
X182983446Y-79947290D01*
X182964365Y-79917598D01*
X182935836Y-79855128D01*
X182935831Y-79855119D01*
X182935831Y-79855118D01*
X182904207Y-79805912D01*
X182858453Y-79753110D01*
X182840863Y-79735157D01*
X182840861Y-79735156D01*
X182840859Y-79735154D01*
X182761049Y-79690511D01*
X182761044Y-79690509D01*
X182694012Y-79670826D01*
X182694008Y-79670825D01*
X182694007Y-79670825D01*
X182636109Y-79662500D01*
X169343891Y-79662500D01*
X169343890Y-79662500D01*
X169286003Y-79670822D01*
X169285987Y-79670826D01*
X169218986Y-79690498D01*
X169218959Y-79690507D01*
X169195313Y-79699052D01*
X169121548Y-79753107D01*
X169075795Y-79805908D01*
X169044167Y-79855120D01*
X169044164Y-79855126D01*
X169015632Y-79917600D01*
X168996553Y-79947287D01*
X168973763Y-79973589D01*
X168947090Y-79996702D01*
X168917822Y-80015512D01*
X168885715Y-80030175D01*
X168852332Y-80039977D01*
X168817399Y-80045000D01*
X168782601Y-80045000D01*
X168747672Y-80039978D01*
X168714279Y-80030173D01*
X168682176Y-80015512D01*
X168652908Y-79996702D01*
X168626236Y-79973591D01*
X168603446Y-79947290D01*
X168584365Y-79917598D01*
X168555836Y-79855128D01*
X168555831Y-79855119D01*
X168555831Y-79855118D01*
X168524207Y-79805912D01*
X168478453Y-79753110D01*
X168460863Y-79735157D01*
X168460861Y-79735156D01*
X168460859Y-79735154D01*
X168381049Y-79690511D01*
X168381044Y-79690509D01*
X168314012Y-79670826D01*
X168314008Y-79670825D01*
X168314007Y-79670825D01*
X168256109Y-79662500D01*
X168256105Y-79662500D01*
X167629500Y-79662500D01*
X167562461Y-79642815D01*
X167516706Y-79590011D01*
X167505500Y-79538500D01*
X167505500Y-74026000D01*
X173764867Y-74026000D01*
X173783302Y-74154225D01*
X173824286Y-74243966D01*
X173837118Y-74272063D01*
X173921951Y-74369967D01*
X174030931Y-74440004D01*
X174155225Y-74476499D01*
X174155227Y-74476500D01*
X174155228Y-74476500D01*
X174284773Y-74476500D01*
X174284773Y-74476499D01*
X174409069Y-74440004D01*
X174518049Y-74369967D01*
X174602882Y-74272063D01*
X174656697Y-74154226D01*
X174675133Y-74026000D01*
X174656697Y-73897774D01*
X174602882Y-73779937D01*
X174518049Y-73682033D01*
X174409069Y-73611996D01*
X174409065Y-73611994D01*
X174409064Y-73611994D01*
X174284774Y-73575500D01*
X174284772Y-73575500D01*
X174155228Y-73575500D01*
X174155226Y-73575500D01*
X174030935Y-73611994D01*
X174030932Y-73611995D01*
X174030931Y-73611996D01*
X173979677Y-73644934D01*
X173921950Y-73682033D01*
X173837118Y-73779937D01*
X173837117Y-73779938D01*
X173783302Y-73897774D01*
X173764867Y-74026000D01*
X167505500Y-74026000D01*
X167505500Y-73924008D01*
X167505499Y-73923992D01*
X167502680Y-73897774D01*
X167500803Y-73880316D01*
X167496304Y-73859634D01*
X167489602Y-73828825D01*
X167489348Y-73827789D01*
X167487110Y-73818627D01*
X167444100Y-73737915D01*
X167398345Y-73685111D01*
X167398339Y-73685104D01*
X167380757Y-73667160D01*
X167380756Y-73667159D01*
X167380754Y-73667157D01*
X167380752Y-73667156D01*
X167380750Y-73667154D01*
X167300940Y-73622511D01*
X167300935Y-73622509D01*
X167233903Y-73602826D01*
X167233899Y-73602825D01*
X167233898Y-73602825D01*
X167176000Y-73594500D01*
X160824000Y-73594500D01*
X160823992Y-73594500D01*
X160780313Y-73599197D01*
X160728825Y-73610397D01*
X160718627Y-73612890D01*
X160718624Y-73612891D01*
X160637916Y-73655899D01*
X160637913Y-73655901D01*
X160585104Y-73701660D01*
X160567160Y-73719242D01*
X160567154Y-73719249D01*
X160522511Y-73799059D01*
X160522509Y-73799064D01*
X160502826Y-73866096D01*
X160502825Y-73866101D01*
X160502825Y-73866102D01*
X160494502Y-73923992D01*
X160494500Y-73924003D01*
X160494500Y-79538500D01*
X160474815Y-79605539D01*
X160422011Y-79651294D01*
X160370500Y-79662500D01*
X159723890Y-79662500D01*
X159666003Y-79670822D01*
X159665987Y-79670826D01*
X159598986Y-79690498D01*
X159598959Y-79690507D01*
X159575313Y-79699052D01*
X159501548Y-79753107D01*
X159455795Y-79805908D01*
X159424167Y-79855120D01*
X159424164Y-79855126D01*
X159395632Y-79917600D01*
X159376553Y-79947287D01*
X159353763Y-79973589D01*
X159327090Y-79996702D01*
X159297822Y-80015512D01*
X159265715Y-80030175D01*
X159232332Y-80039977D01*
X159197399Y-80045000D01*
X159162601Y-80045000D01*
X159127672Y-80039978D01*
X159094279Y-80030173D01*
X159062176Y-80015512D01*
X159032908Y-79996702D01*
X159006236Y-79973591D01*
X158983446Y-79947290D01*
X158964365Y-79917598D01*
X158935836Y-79855128D01*
X158935831Y-79855119D01*
X158935831Y-79855118D01*
X158904207Y-79805912D01*
X158858453Y-79753110D01*
X158840863Y-79735157D01*
X158840861Y-79735156D01*
X158840859Y-79735154D01*
X158761049Y-79690511D01*
X158761044Y-79690509D01*
X158694012Y-79670826D01*
X158694008Y-79670825D01*
X158694007Y-79670825D01*
X158636109Y-79662500D01*
X145343891Y-79662500D01*
X145343890Y-79662500D01*
X145286003Y-79670822D01*
X145285987Y-79670826D01*
X145218986Y-79690498D01*
X145218959Y-79690507D01*
X145195313Y-79699052D01*
X145121548Y-79753107D01*
X145075795Y-79805908D01*
X145044167Y-79855120D01*
X145044164Y-79855126D01*
X145015632Y-79917600D01*
X144996553Y-79947287D01*
X144973763Y-79973589D01*
X144947090Y-79996702D01*
X144917822Y-80015512D01*
X144885715Y-80030175D01*
X144852332Y-80039977D01*
X144817399Y-80045000D01*
X144782601Y-80045000D01*
X144747672Y-80039978D01*
X144714279Y-80030173D01*
X144682176Y-80015512D01*
X144652908Y-79996702D01*
X144626236Y-79973591D01*
X144603446Y-79947290D01*
X144584365Y-79917598D01*
X144555836Y-79855128D01*
X144555831Y-79855119D01*
X144555831Y-79855118D01*
X144524207Y-79805912D01*
X144478453Y-79753110D01*
X144460863Y-79735157D01*
X144460861Y-79735156D01*
X144460859Y-79735154D01*
X144381049Y-79690511D01*
X144381044Y-79690509D01*
X144314012Y-79670826D01*
X144314008Y-79670825D01*
X144314007Y-79670825D01*
X144256109Y-79662500D01*
X144256105Y-79662500D01*
X143629500Y-79662500D01*
X143562461Y-79642815D01*
X143516706Y-79590011D01*
X143505500Y-79538500D01*
X143505500Y-73924008D01*
X143505499Y-73923992D01*
X143502680Y-73897774D01*
X143500803Y-73880316D01*
X143496304Y-73859634D01*
X143489602Y-73828825D01*
X143489348Y-73827789D01*
X143487110Y-73818627D01*
X143444100Y-73737915D01*
X143398345Y-73685111D01*
X143398339Y-73685104D01*
X143380757Y-73667160D01*
X143380756Y-73667159D01*
X143380754Y-73667157D01*
X143380752Y-73667156D01*
X143380750Y-73667154D01*
X143300940Y-73622511D01*
X143300935Y-73622509D01*
X143233903Y-73602826D01*
X143233899Y-73602825D01*
X143233898Y-73602825D01*
X143176000Y-73594500D01*
X136824000Y-73594500D01*
X136823992Y-73594500D01*
X136780313Y-73599197D01*
X136728825Y-73610397D01*
X136718627Y-73612890D01*
X136718624Y-73612891D01*
X136637916Y-73655899D01*
X136637913Y-73655901D01*
X136585104Y-73701660D01*
X136567160Y-73719242D01*
X136567154Y-73719249D01*
X136522511Y-73799059D01*
X136522509Y-73799064D01*
X136502826Y-73866096D01*
X136502825Y-73866101D01*
X136502825Y-73866102D01*
X136494502Y-73923992D01*
X136494500Y-73924003D01*
X136494500Y-79538500D01*
X136474815Y-79605539D01*
X136422011Y-79651294D01*
X136370500Y-79662500D01*
X135723890Y-79662500D01*
X135666003Y-79670822D01*
X135665987Y-79670826D01*
X135598986Y-79690498D01*
X135598959Y-79690507D01*
X135575313Y-79699052D01*
X135501548Y-79753107D01*
X135455795Y-79805908D01*
X135424167Y-79855120D01*
X135424164Y-79855126D01*
X135395632Y-79917600D01*
X135376553Y-79947287D01*
X135353763Y-79973589D01*
X135327090Y-79996702D01*
X135297822Y-80015512D01*
X135265715Y-80030175D01*
X135232332Y-80039977D01*
X135197399Y-80045000D01*
X135162601Y-80045000D01*
X135127672Y-80039978D01*
X135094279Y-80030173D01*
X135062176Y-80015512D01*
X135032908Y-79996702D01*
X135006236Y-79973591D01*
X134983446Y-79947290D01*
X134964365Y-79917598D01*
X134935836Y-79855128D01*
X134935831Y-79855119D01*
X134935831Y-79855118D01*
X134904207Y-79805912D01*
X134858453Y-79753110D01*
X134840863Y-79735157D01*
X134840861Y-79735156D01*
X134840859Y-79735154D01*
X134761049Y-79690511D01*
X134761044Y-79690509D01*
X134694012Y-79670826D01*
X134694008Y-79670825D01*
X134694007Y-79670825D01*
X134636109Y-79662500D01*
X121343891Y-79662500D01*
X121343890Y-79662500D01*
X121286003Y-79670822D01*
X121285987Y-79670826D01*
X121218986Y-79690498D01*
X121218959Y-79690507D01*
X121195313Y-79699052D01*
X121121548Y-79753107D01*
X121075795Y-79805908D01*
X121044167Y-79855120D01*
X121044164Y-79855126D01*
X121015632Y-79917600D01*
X120996553Y-79947287D01*
X120973763Y-79973589D01*
X120947090Y-79996702D01*
X120917822Y-80015512D01*
X120885715Y-80030175D01*
X120852332Y-80039977D01*
X120817399Y-80045000D01*
X120782601Y-80045000D01*
X120747672Y-80039978D01*
X120714279Y-80030173D01*
X120682176Y-80015512D01*
X120652908Y-79996702D01*
X120626236Y-79973591D01*
X120603446Y-79947290D01*
X120584365Y-79917598D01*
X120555836Y-79855128D01*
X120555831Y-79855119D01*
X120555831Y-79855118D01*
X120524207Y-79805912D01*
X120478453Y-79753110D01*
X120460863Y-79735157D01*
X120460861Y-79735156D01*
X120460859Y-79735154D01*
X120381049Y-79690511D01*
X120381044Y-79690509D01*
X120314012Y-79670826D01*
X120314008Y-79670825D01*
X120314007Y-79670825D01*
X120256109Y-79662500D01*
X120256105Y-79662500D01*
X119629500Y-79662500D01*
X119562461Y-79642815D01*
X119516706Y-79590011D01*
X119505500Y-79538500D01*
X119505500Y-73924008D01*
X119505499Y-73923992D01*
X119502680Y-73897774D01*
X119500803Y-73880316D01*
X119496304Y-73859634D01*
X119489602Y-73828825D01*
X119489348Y-73827789D01*
X119487110Y-73818627D01*
X119444100Y-73737915D01*
X119398345Y-73685111D01*
X119398339Y-73685104D01*
X119380757Y-73667160D01*
X119380756Y-73667159D01*
X119380754Y-73667157D01*
X119380752Y-73667156D01*
X119380750Y-73667154D01*
X119300940Y-73622511D01*
X119300935Y-73622509D01*
X119233903Y-73602826D01*
X119233899Y-73602825D01*
X119233898Y-73602825D01*
X119176000Y-73594500D01*
X112824000Y-73594500D01*
X112823992Y-73594500D01*
X112780313Y-73599197D01*
X112728825Y-73610397D01*
X112718627Y-73612890D01*
X112718624Y-73612891D01*
X112637916Y-73655899D01*
X112637913Y-73655901D01*
X112585104Y-73701660D01*
X112567160Y-73719242D01*
X112567154Y-73719249D01*
X112522511Y-73799059D01*
X112522509Y-73799064D01*
X112502826Y-73866096D01*
X112502825Y-73866101D01*
X112502825Y-73866102D01*
X112494502Y-73923992D01*
X112494500Y-73924003D01*
X112494500Y-79538500D01*
X112474815Y-79605539D01*
X112422011Y-79651294D01*
X112370500Y-79662500D01*
X111723890Y-79662500D01*
X111666003Y-79670822D01*
X111665987Y-79670826D01*
X111598986Y-79690498D01*
X111598959Y-79690507D01*
X111575313Y-79699052D01*
X111501548Y-79753107D01*
X111455795Y-79805908D01*
X111424167Y-79855120D01*
X111424164Y-79855126D01*
X111395632Y-79917600D01*
X111376553Y-79947287D01*
X111353763Y-79973589D01*
X111327090Y-79996702D01*
X111297822Y-80015512D01*
X111265715Y-80030175D01*
X111232332Y-80039977D01*
X111197399Y-80045000D01*
X111162601Y-80045000D01*
X111127672Y-80039978D01*
X111094279Y-80030173D01*
X111062176Y-80015512D01*
X111032908Y-79996702D01*
X111006236Y-79973591D01*
X110983446Y-79947290D01*
X110964365Y-79917598D01*
X110935836Y-79855128D01*
X110935831Y-79855119D01*
X110935831Y-79855118D01*
X110904207Y-79805912D01*
X110858453Y-79753110D01*
X110840863Y-79735157D01*
X110840861Y-79735156D01*
X110840859Y-79735154D01*
X110761049Y-79690511D01*
X110761044Y-79690509D01*
X110694012Y-79670826D01*
X110694008Y-79670825D01*
X110694007Y-79670825D01*
X110636109Y-79662500D01*
X97343891Y-79662500D01*
X97343890Y-79662500D01*
X97286003Y-79670822D01*
X97285987Y-79670826D01*
X97218986Y-79690498D01*
X97218959Y-79690507D01*
X97195313Y-79699052D01*
X97121548Y-79753107D01*
X97075795Y-79805908D01*
X97044167Y-79855120D01*
X97044164Y-79855126D01*
X97015632Y-79917600D01*
X96996553Y-79947287D01*
X96973763Y-79973589D01*
X96947090Y-79996702D01*
X96917822Y-80015512D01*
X96885715Y-80030175D01*
X96852332Y-80039977D01*
X96817399Y-80045000D01*
X96782601Y-80045000D01*
X96747672Y-80039978D01*
X96714279Y-80030173D01*
X96682176Y-80015512D01*
X96652908Y-79996702D01*
X96626236Y-79973591D01*
X96603446Y-79947290D01*
X96584365Y-79917598D01*
X96555836Y-79855128D01*
X96555831Y-79855119D01*
X96555831Y-79855118D01*
X96524207Y-79805912D01*
X96478453Y-79753110D01*
X96460863Y-79735157D01*
X96460861Y-79735156D01*
X96460859Y-79735154D01*
X96381049Y-79690511D01*
X96381044Y-79690509D01*
X96314012Y-79670826D01*
X96314008Y-79670825D01*
X96314007Y-79670825D01*
X96256109Y-79662500D01*
X96256105Y-79662500D01*
X95629500Y-79662500D01*
X95562461Y-79642815D01*
X95516706Y-79590011D01*
X95505500Y-79538500D01*
X95505500Y-73924008D01*
X95505499Y-73923992D01*
X95502680Y-73897774D01*
X95500803Y-73880316D01*
X95496304Y-73859634D01*
X95489602Y-73828825D01*
X95489348Y-73827789D01*
X95487110Y-73818627D01*
X95444100Y-73737915D01*
X95398345Y-73685111D01*
X95398339Y-73685104D01*
X95380757Y-73667160D01*
X95380756Y-73667159D01*
X95380754Y-73667157D01*
X95380752Y-73667156D01*
X95380750Y-73667154D01*
X95300940Y-73622511D01*
X95300935Y-73622509D01*
X95233903Y-73602826D01*
X95233899Y-73602825D01*
X95233898Y-73602825D01*
X95176000Y-73594500D01*
X88824000Y-73594500D01*
X88823992Y-73594500D01*
X88780313Y-73599197D01*
X88728825Y-73610397D01*
X88718627Y-73612890D01*
X88718624Y-73612891D01*
X88637916Y-73655899D01*
X88637913Y-73655901D01*
X88585104Y-73701660D01*
X88567160Y-73719242D01*
X88567154Y-73719249D01*
X88522511Y-73799059D01*
X88522509Y-73799064D01*
X88502826Y-73866096D01*
X88502825Y-73866101D01*
X88502825Y-73866102D01*
X88494502Y-73923992D01*
X88494500Y-73924003D01*
X88494500Y-79538500D01*
X88474815Y-79605539D01*
X88422011Y-79651294D01*
X88370500Y-79662500D01*
X87723890Y-79662500D01*
X87666003Y-79670822D01*
X87665987Y-79670826D01*
X87598986Y-79690498D01*
X87598959Y-79690507D01*
X87575313Y-79699052D01*
X87501548Y-79753107D01*
X87455795Y-79805908D01*
X87424167Y-79855120D01*
X87424164Y-79855126D01*
X87395632Y-79917600D01*
X87376553Y-79947287D01*
X87353763Y-79973589D01*
X87327090Y-79996702D01*
X87297822Y-80015512D01*
X87265715Y-80030175D01*
X87232332Y-80039977D01*
X87197399Y-80045000D01*
X87162601Y-80045000D01*
X87127672Y-80039978D01*
X87094279Y-80030173D01*
X87062176Y-80015512D01*
X87032908Y-79996702D01*
X87006236Y-79973591D01*
X86983446Y-79947290D01*
X86964365Y-79917598D01*
X86935836Y-79855128D01*
X86935831Y-79855119D01*
X86935831Y-79855118D01*
X86904207Y-79805912D01*
X86858453Y-79753110D01*
X86840863Y-79735157D01*
X86840861Y-79735156D01*
X86840859Y-79735154D01*
X86761049Y-79690511D01*
X86761044Y-79690509D01*
X86694012Y-79670826D01*
X86694008Y-79670825D01*
X86694007Y-79670825D01*
X86636109Y-79662500D01*
X76427000Y-79662500D01*
X76426992Y-79662500D01*
X76383313Y-79667197D01*
X76331825Y-79678397D01*
X76321627Y-79680890D01*
X76321624Y-79680891D01*
X76240916Y-79723899D01*
X76240913Y-79723901D01*
X76188104Y-79769660D01*
X76170160Y-79787242D01*
X76170154Y-79787249D01*
X76125511Y-79867059D01*
X76125509Y-79867064D01*
X76105826Y-79934096D01*
X76105825Y-79934101D01*
X76105825Y-79934102D01*
X76100148Y-79973589D01*
X76097500Y-79992003D01*
X76097500Y-94984007D01*
X76102197Y-95027686D01*
X76113397Y-95079174D01*
X76115890Y-95089372D01*
X76115891Y-95089375D01*
X76158899Y-95170083D01*
X76158901Y-95170086D01*
X76204660Y-95222895D01*
X76222242Y-95240839D01*
X76222246Y-95240843D01*
X76222247Y-95240844D01*
X76222249Y-95240845D01*
X76302059Y-95285488D01*
X76302063Y-95285490D01*
X76369102Y-95305175D01*
X76427000Y-95313500D01*
X76427004Y-95313500D01*
X86667066Y-95313500D01*
X86667069Y-95313500D01*
X86724964Y-95305176D01*
X86792003Y-95285492D01*
X86815645Y-95276948D01*
X86889414Y-95222890D01*
X86935169Y-95170086D01*
X86966792Y-95120881D01*
X86984367Y-95082394D01*
X87003447Y-95052707D01*
X87026235Y-95026408D01*
X87052906Y-95003297D01*
X87077963Y-94987194D01*
X87077973Y-94987190D01*
X87082168Y-94984494D01*
X87114292Y-94969821D01*
X87147667Y-94960022D01*
X87182599Y-94955000D01*
X87217400Y-94955000D01*
X87252332Y-94960022D01*
X87285714Y-94969823D01*
X87317823Y-94984487D01*
X87347091Y-95003297D01*
X87373763Y-95026409D01*
X87396551Y-95052708D01*
X87415630Y-95082394D01*
X87433208Y-95120882D01*
X87456507Y-95157134D01*
X87464832Y-95170087D01*
X87510587Y-95222890D01*
X87528177Y-95240843D01*
X87528178Y-95240844D01*
X87528180Y-95240845D01*
X87607990Y-95285488D01*
X87607994Y-95285490D01*
X87675033Y-95305175D01*
X87732931Y-95313500D01*
X88419500Y-95313500D01*
X88486539Y-95333185D01*
X88532294Y-95385989D01*
X88543500Y-95437500D01*
X88543500Y-101076007D01*
X88548197Y-101119686D01*
X88559397Y-101171174D01*
X88561890Y-101181372D01*
X88561891Y-101181375D01*
X88574446Y-101204935D01*
X88596537Y-101246392D01*
X88604899Y-101262083D01*
X88604901Y-101262086D01*
X88650660Y-101314895D01*
X88663721Y-101328225D01*
X88668246Y-101332843D01*
X88668247Y-101332844D01*
X88668249Y-101332845D01*
X88695521Y-101348100D01*
X88748063Y-101377490D01*
X88815102Y-101397175D01*
X88873000Y-101405500D01*
X88873004Y-101405500D01*
X95175991Y-101405500D01*
X95176000Y-101405500D01*
X95219684Y-101400803D01*
X95252808Y-101393597D01*
X95271174Y-101389602D01*
X95271190Y-101389598D01*
X95271195Y-101389597D01*
X95281373Y-101387110D01*
X95362085Y-101344100D01*
X95414889Y-101298345D01*
X95432843Y-101280754D01*
X95477490Y-101200937D01*
X95477765Y-101200000D01*
X101044867Y-101200000D01*
X101063302Y-101328225D01*
X101100420Y-101409500D01*
X101117118Y-101446063D01*
X101201951Y-101543967D01*
X101310931Y-101614004D01*
X101435225Y-101650499D01*
X101435227Y-101650500D01*
X101435228Y-101650500D01*
X101564773Y-101650500D01*
X101564773Y-101650499D01*
X101689069Y-101614004D01*
X101798049Y-101543967D01*
X101882882Y-101446063D01*
X101936697Y-101328226D01*
X101955133Y-101200000D01*
X101936697Y-101071774D01*
X101882882Y-100953937D01*
X101798049Y-100856033D01*
X101689069Y-100785996D01*
X101689065Y-100785994D01*
X101689064Y-100785994D01*
X101564774Y-100749500D01*
X101564772Y-100749500D01*
X101435228Y-100749500D01*
X101435226Y-100749500D01*
X101310935Y-100785994D01*
X101310932Y-100785995D01*
X101310931Y-100785996D01*
X101267350Y-100814004D01*
X101201950Y-100856033D01*
X101117118Y-100953937D01*
X101117117Y-100953938D01*
X101063302Y-101071774D01*
X101044867Y-101200000D01*
X95477765Y-101200000D01*
X95497175Y-101133898D01*
X95505500Y-101076000D01*
X95505500Y-95437500D01*
X95525185Y-95370461D01*
X95577989Y-95324706D01*
X95629500Y-95313500D01*
X96287066Y-95313500D01*
X96287069Y-95313500D01*
X96344964Y-95305176D01*
X96412003Y-95285492D01*
X96435645Y-95276948D01*
X96509414Y-95222890D01*
X96555169Y-95170086D01*
X96586792Y-95120881D01*
X96604367Y-95082394D01*
X96623447Y-95052707D01*
X96646235Y-95026408D01*
X96672906Y-95003297D01*
X96697963Y-94987194D01*
X96697973Y-94987190D01*
X96702168Y-94984494D01*
X96734292Y-94969821D01*
X96767667Y-94960022D01*
X96802599Y-94955000D01*
X96837400Y-94955000D01*
X96872332Y-94960022D01*
X96905714Y-94969823D01*
X96937823Y-94984487D01*
X96967091Y-95003297D01*
X96993763Y-95026409D01*
X97016551Y-95052708D01*
X97035630Y-95082394D01*
X97053208Y-95120882D01*
X97076507Y-95157134D01*
X97084832Y-95170087D01*
X97130587Y-95222890D01*
X97148177Y-95240843D01*
X97148178Y-95240844D01*
X97148180Y-95240845D01*
X97227990Y-95285488D01*
X97227994Y-95285490D01*
X97295033Y-95305175D01*
X97352931Y-95313500D01*
X97352935Y-95313500D01*
X110667066Y-95313500D01*
X110667069Y-95313500D01*
X110724964Y-95305176D01*
X110792003Y-95285492D01*
X110815645Y-95276948D01*
X110889414Y-95222890D01*
X110935169Y-95170086D01*
X110966792Y-95120881D01*
X110984367Y-95082394D01*
X111003447Y-95052707D01*
X111026235Y-95026408D01*
X111052906Y-95003297D01*
X111077963Y-94987194D01*
X111077973Y-94987190D01*
X111082168Y-94984494D01*
X111114292Y-94969821D01*
X111147667Y-94960022D01*
X111182599Y-94955000D01*
X111217400Y-94955000D01*
X111252332Y-94960022D01*
X111285714Y-94969823D01*
X111317823Y-94984487D01*
X111347091Y-95003297D01*
X111373763Y-95026409D01*
X111396551Y-95052708D01*
X111415630Y-95082394D01*
X111433208Y-95120882D01*
X111456507Y-95157134D01*
X111464832Y-95170087D01*
X111510587Y-95222890D01*
X111528177Y-95240843D01*
X111528178Y-95240844D01*
X111528180Y-95240845D01*
X111607990Y-95285488D01*
X111607994Y-95285490D01*
X111675033Y-95305175D01*
X111732931Y-95313500D01*
X112422500Y-95313500D01*
X112489539Y-95333185D01*
X112535294Y-95385989D01*
X112546500Y-95437500D01*
X112546500Y-101080007D01*
X112551197Y-101123686D01*
X112562397Y-101175174D01*
X112563913Y-101181375D01*
X112564890Y-101185373D01*
X112605768Y-101262085D01*
X112607899Y-101266083D01*
X112607901Y-101266086D01*
X112653660Y-101318895D01*
X112662802Y-101328225D01*
X112671246Y-101336843D01*
X112671247Y-101336844D01*
X112671249Y-101336845D01*
X112743908Y-101377488D01*
X112751063Y-101381490D01*
X112818102Y-101401175D01*
X112876000Y-101409500D01*
X112876004Y-101409500D01*
X119154991Y-101409500D01*
X119155000Y-101409500D01*
X119198684Y-101404803D01*
X119233748Y-101397175D01*
X119250174Y-101393602D01*
X119250190Y-101393598D01*
X119250195Y-101393597D01*
X119260373Y-101391110D01*
X119341085Y-101348100D01*
X119393889Y-101302345D01*
X119411843Y-101284754D01*
X119456490Y-101204937D01*
X119476175Y-101137898D01*
X119484500Y-101080000D01*
X119484500Y-95437500D01*
X119504185Y-95370461D01*
X119556989Y-95324706D01*
X119608500Y-95313500D01*
X120287066Y-95313500D01*
X120287069Y-95313500D01*
X120344964Y-95305176D01*
X120412003Y-95285492D01*
X120435645Y-95276948D01*
X120509414Y-95222890D01*
X120555169Y-95170086D01*
X120586792Y-95120881D01*
X120604367Y-95082394D01*
X120623447Y-95052707D01*
X120646235Y-95026408D01*
X120672906Y-95003297D01*
X120697963Y-94987194D01*
X120697973Y-94987190D01*
X120702168Y-94984494D01*
X120734292Y-94969821D01*
X120767667Y-94960022D01*
X120802599Y-94955000D01*
X120837400Y-94955000D01*
X120872332Y-94960022D01*
X120905714Y-94969823D01*
X120937823Y-94984487D01*
X120967091Y-95003297D01*
X120993763Y-95026409D01*
X121016551Y-95052708D01*
X121035630Y-95082394D01*
X121053208Y-95120882D01*
X121076507Y-95157134D01*
X121084832Y-95170087D01*
X121130587Y-95222890D01*
X121148177Y-95240843D01*
X121148178Y-95240844D01*
X121148180Y-95240845D01*
X121227990Y-95285488D01*
X121227994Y-95285490D01*
X121295033Y-95305175D01*
X121352931Y-95313500D01*
X121352935Y-95313500D01*
X134667066Y-95313500D01*
X134667069Y-95313500D01*
X134724964Y-95305176D01*
X134792003Y-95285492D01*
X134815645Y-95276948D01*
X134889414Y-95222890D01*
X134935169Y-95170086D01*
X134966792Y-95120881D01*
X134984367Y-95082394D01*
X135003447Y-95052707D01*
X135026235Y-95026408D01*
X135052906Y-95003297D01*
X135077963Y-94987194D01*
X135077973Y-94987190D01*
X135082168Y-94984494D01*
X135114292Y-94969821D01*
X135147667Y-94960022D01*
X135182599Y-94955000D01*
X135217400Y-94955000D01*
X135252332Y-94960022D01*
X135285714Y-94969823D01*
X135317823Y-94984487D01*
X135347091Y-95003297D01*
X135373763Y-95026409D01*
X135396551Y-95052708D01*
X135415630Y-95082394D01*
X135433208Y-95120882D01*
X135456507Y-95157134D01*
X135464832Y-95170087D01*
X135510587Y-95222890D01*
X135528177Y-95240843D01*
X135528178Y-95240844D01*
X135528180Y-95240845D01*
X135607990Y-95285488D01*
X135607994Y-95285490D01*
X135675033Y-95305175D01*
X135732931Y-95313500D01*
X136425500Y-95313500D01*
X136492539Y-95333185D01*
X136538294Y-95385989D01*
X136549500Y-95437500D01*
X136549500Y-101080007D01*
X136554197Y-101123686D01*
X136565397Y-101175174D01*
X136566913Y-101181375D01*
X136567890Y-101185373D01*
X136608768Y-101262085D01*
X136610899Y-101266083D01*
X136610901Y-101266086D01*
X136656660Y-101318895D01*
X136665802Y-101328225D01*
X136674246Y-101336843D01*
X136674247Y-101336844D01*
X136674249Y-101336845D01*
X136746908Y-101377488D01*
X136754063Y-101381490D01*
X136821102Y-101401175D01*
X136879000Y-101409500D01*
X136879004Y-101409500D01*
X143107991Y-101409500D01*
X143108000Y-101409500D01*
X143151684Y-101404803D01*
X143186748Y-101397175D01*
X143203174Y-101393602D01*
X143203190Y-101393598D01*
X143203195Y-101393597D01*
X143213373Y-101391110D01*
X143294085Y-101348100D01*
X143346889Y-101302345D01*
X143364843Y-101284754D01*
X143409490Y-101204937D01*
X143429175Y-101137898D01*
X143437500Y-101080000D01*
X143437500Y-95437500D01*
X143457185Y-95370461D01*
X143509989Y-95324706D01*
X143561500Y-95313500D01*
X144287066Y-95313500D01*
X144287069Y-95313500D01*
X144344964Y-95305176D01*
X144412003Y-95285492D01*
X144435645Y-95276948D01*
X144509414Y-95222890D01*
X144555169Y-95170086D01*
X144586792Y-95120881D01*
X144604367Y-95082394D01*
X144623447Y-95052707D01*
X144646235Y-95026408D01*
X144672906Y-95003297D01*
X144697963Y-94987194D01*
X144697973Y-94987190D01*
X144702168Y-94984494D01*
X144734292Y-94969821D01*
X144767667Y-94960022D01*
X144802599Y-94955000D01*
X144837400Y-94955000D01*
X144872332Y-94960022D01*
X144905714Y-94969823D01*
X144937823Y-94984487D01*
X144967091Y-95003297D01*
X144993763Y-95026409D01*
X145016551Y-95052708D01*
X145035630Y-95082394D01*
X145053208Y-95120882D01*
X145076507Y-95157134D01*
X145084832Y-95170087D01*
X145130587Y-95222890D01*
X145148177Y-95240843D01*
X145148178Y-95240844D01*
X145148180Y-95240845D01*
X145227990Y-95285488D01*
X145227994Y-95285490D01*
X145295033Y-95305175D01*
X145352931Y-95313500D01*
X145352935Y-95313500D01*
X158667066Y-95313500D01*
X158667069Y-95313500D01*
X158724964Y-95305176D01*
X158792003Y-95285492D01*
X158815645Y-95276948D01*
X158889414Y-95222890D01*
X158935169Y-95170086D01*
X158966792Y-95120881D01*
X158984367Y-95082394D01*
X159003447Y-95052707D01*
X159026235Y-95026408D01*
X159052906Y-95003297D01*
X159077963Y-94987194D01*
X159077973Y-94987190D01*
X159082168Y-94984494D01*
X159114292Y-94969821D01*
X159147667Y-94960022D01*
X159182599Y-94955000D01*
X159217400Y-94955000D01*
X159252332Y-94960022D01*
X159285714Y-94969823D01*
X159317823Y-94984487D01*
X159347091Y-95003297D01*
X159373763Y-95026409D01*
X159396551Y-95052708D01*
X159415630Y-95082394D01*
X159433208Y-95120882D01*
X159456507Y-95157134D01*
X159464832Y-95170087D01*
X159510587Y-95222890D01*
X159528177Y-95240843D01*
X159528178Y-95240844D01*
X159528180Y-95240845D01*
X159607990Y-95285488D01*
X159607994Y-95285490D01*
X159675033Y-95305175D01*
X159732931Y-95313500D01*
X160428500Y-95313500D01*
X160495539Y-95333185D01*
X160541294Y-95385989D01*
X160552500Y-95437500D01*
X160552500Y-101080007D01*
X160557197Y-101123686D01*
X160568397Y-101175174D01*
X160569913Y-101181375D01*
X160570890Y-101185373D01*
X160611768Y-101262085D01*
X160613899Y-101266083D01*
X160613901Y-101266086D01*
X160659660Y-101318895D01*
X160668802Y-101328225D01*
X160677246Y-101336843D01*
X160677247Y-101336844D01*
X160677249Y-101336845D01*
X160749908Y-101377488D01*
X160757063Y-101381490D01*
X160824102Y-101401175D01*
X160882000Y-101409500D01*
X160882004Y-101409500D01*
X167175991Y-101409500D01*
X167176000Y-101409500D01*
X167219684Y-101404803D01*
X167254748Y-101397175D01*
X167271174Y-101393602D01*
X167271190Y-101393598D01*
X167271195Y-101393597D01*
X167281373Y-101391110D01*
X167362085Y-101348100D01*
X167414889Y-101302345D01*
X167432843Y-101284754D01*
X167477490Y-101204937D01*
X167497175Y-101137898D01*
X167505500Y-101080000D01*
X167505500Y-95437500D01*
X167525185Y-95370461D01*
X167577989Y-95324706D01*
X167629500Y-95313500D01*
X168287066Y-95313500D01*
X168287069Y-95313500D01*
X168344964Y-95305176D01*
X168412003Y-95285492D01*
X168435645Y-95276948D01*
X168509414Y-95222890D01*
X168555169Y-95170086D01*
X168586792Y-95120881D01*
X168604367Y-95082394D01*
X168623447Y-95052707D01*
X168646235Y-95026408D01*
X168672906Y-95003297D01*
X168697963Y-94987194D01*
X168697973Y-94987190D01*
X168702168Y-94984494D01*
X168734292Y-94969821D01*
X168767667Y-94960022D01*
X168802599Y-94955000D01*
X168837400Y-94955000D01*
X168872332Y-94960022D01*
X168905714Y-94969823D01*
X168937823Y-94984487D01*
X168967091Y-95003297D01*
X168993763Y-95026409D01*
X169016551Y-95052708D01*
X169035630Y-95082394D01*
X169053208Y-95120882D01*
X169076507Y-95157134D01*
X169084832Y-95170087D01*
X169130587Y-95222890D01*
X169148177Y-95240843D01*
X169148178Y-95240844D01*
X169148180Y-95240845D01*
X169227990Y-95285488D01*
X169227994Y-95285490D01*
X169295033Y-95305175D01*
X169352931Y-95313500D01*
X169352935Y-95313500D01*
X182667066Y-95313500D01*
X182667069Y-95313500D01*
X182724964Y-95305176D01*
X182792003Y-95285492D01*
X182815645Y-95276948D01*
X182889414Y-95222890D01*
X182935169Y-95170086D01*
X182966792Y-95120881D01*
X182984367Y-95082394D01*
X183003447Y-95052707D01*
X183026235Y-95026408D01*
X183052906Y-95003297D01*
X183077963Y-94987194D01*
X183077973Y-94987190D01*
X183082168Y-94984494D01*
X183114292Y-94969821D01*
X183147667Y-94960022D01*
X183182599Y-94955000D01*
X183217400Y-94955000D01*
X183252332Y-94960022D01*
X183285714Y-94969823D01*
X183317823Y-94984487D01*
X183347091Y-95003297D01*
X183373763Y-95026409D01*
X183396551Y-95052708D01*
X183415630Y-95082394D01*
X183433208Y-95120882D01*
X183456507Y-95157134D01*
X183464832Y-95170087D01*
X183510587Y-95222890D01*
X183528177Y-95240843D01*
X183528178Y-95240844D01*
X183528180Y-95240845D01*
X183607990Y-95285488D01*
X183607994Y-95285490D01*
X183675033Y-95305175D01*
X183732931Y-95313500D01*
X184370500Y-95313500D01*
X184437539Y-95333185D01*
X184483294Y-95385989D01*
X184494500Y-95437500D01*
X184494500Y-101076007D01*
X184499197Y-101119686D01*
X184510397Y-101171174D01*
X184512890Y-101181372D01*
X184512891Y-101181375D01*
X184525446Y-101204935D01*
X184547537Y-101246392D01*
X184555899Y-101262083D01*
X184555901Y-101262086D01*
X184601660Y-101314895D01*
X184614721Y-101328225D01*
X184619246Y-101332843D01*
X184619247Y-101332844D01*
X184619249Y-101332845D01*
X184646521Y-101348100D01*
X184699063Y-101377490D01*
X184766102Y-101397175D01*
X184824000Y-101405500D01*
X184824004Y-101405500D01*
X191175991Y-101405500D01*
X191176000Y-101405500D01*
X191219684Y-101400803D01*
X191252808Y-101393597D01*
X191271174Y-101389602D01*
X191271190Y-101389598D01*
X191271195Y-101389597D01*
X191281373Y-101387110D01*
X191362085Y-101344100D01*
X191414889Y-101298345D01*
X191432843Y-101280754D01*
X191477490Y-101200937D01*
X191497175Y-101133898D01*
X191505500Y-101076000D01*
X191505500Y-100400000D01*
X200544867Y-100400000D01*
X200563302Y-100528225D01*
X200613664Y-100638500D01*
X200617118Y-100646063D01*
X200701951Y-100743967D01*
X200810931Y-100814004D01*
X200819810Y-100816611D01*
X200935225Y-100850499D01*
X200935227Y-100850500D01*
X200935228Y-100850500D01*
X201064773Y-100850500D01*
X201064773Y-100850499D01*
X201189069Y-100814004D01*
X201298049Y-100743967D01*
X201382882Y-100646063D01*
X201436697Y-100528226D01*
X201455133Y-100400000D01*
X201436697Y-100271774D01*
X201382882Y-100153937D01*
X201298049Y-100056033D01*
X201189069Y-99985996D01*
X201189065Y-99985994D01*
X201189064Y-99985994D01*
X201064774Y-99949500D01*
X201064772Y-99949500D01*
X200935228Y-99949500D01*
X200935226Y-99949500D01*
X200810935Y-99985994D01*
X200810932Y-99985995D01*
X200810931Y-99985996D01*
X200759677Y-100018934D01*
X200701950Y-100056033D01*
X200617118Y-100153937D01*
X200617117Y-100153938D01*
X200563302Y-100271774D01*
X200544867Y-100400000D01*
X191505500Y-100400000D01*
X191505500Y-95437500D01*
X191525185Y-95370461D01*
X191577989Y-95324706D01*
X191629500Y-95313500D01*
X192287066Y-95313500D01*
X192287069Y-95313500D01*
X192344964Y-95305176D01*
X192412003Y-95285492D01*
X192435645Y-95276948D01*
X192509414Y-95222890D01*
X192555169Y-95170086D01*
X192586792Y-95120881D01*
X192604367Y-95082394D01*
X192623447Y-95052707D01*
X192646235Y-95026408D01*
X192672906Y-95003297D01*
X192697963Y-94987194D01*
X192697973Y-94987190D01*
X192702168Y-94984494D01*
X192734292Y-94969821D01*
X192767667Y-94960022D01*
X192802599Y-94955000D01*
X192837400Y-94955000D01*
X192872332Y-94960022D01*
X192905714Y-94969823D01*
X192937823Y-94984487D01*
X192967091Y-95003297D01*
X192993763Y-95026409D01*
X193016551Y-95052708D01*
X193035630Y-95082394D01*
X193053208Y-95120882D01*
X193076507Y-95157134D01*
X193084832Y-95170087D01*
X193130587Y-95222890D01*
X193148177Y-95240843D01*
X193148178Y-95240844D01*
X193148180Y-95240845D01*
X193227990Y-95285488D01*
X193227994Y-95285490D01*
X193295033Y-95305175D01*
X193352931Y-95313500D01*
X193352935Y-95313500D01*
X203075500Y-95313500D01*
X203142539Y-95333185D01*
X203188294Y-95385989D01*
X203199500Y-95437500D01*
X203199500Y-96447221D01*
X203179815Y-96514260D01*
X203163181Y-96534902D01*
X201155875Y-98542208D01*
X201094552Y-98575693D01*
X201068194Y-98578527D01*
X201029253Y-98578527D01*
X200904962Y-98615021D01*
X200904959Y-98615022D01*
X200904958Y-98615023D01*
X200870525Y-98637152D01*
X200795977Y-98685060D01*
X200711145Y-98782964D01*
X200711144Y-98782965D01*
X200657329Y-98900801D01*
X200638894Y-99029027D01*
X200657329Y-99157252D01*
X200706996Y-99266005D01*
X200711145Y-99275090D01*
X200795978Y-99372994D01*
X200904958Y-99443031D01*
X201029252Y-99479526D01*
X201029254Y-99479527D01*
X201029255Y-99479527D01*
X201158800Y-99479527D01*
X201158800Y-99479526D01*
X201283096Y-99443031D01*
X201392076Y-99372994D01*
X201476909Y-99275090D01*
X201530724Y-99157253D01*
X201548351Y-99034648D01*
X201577376Y-98971094D01*
X201583394Y-98964629D01*
X203387820Y-97160203D01*
X203449142Y-97126720D01*
X203518834Y-97131704D01*
X203574767Y-97173576D01*
X203599184Y-97239040D01*
X203599500Y-97247886D01*
X203599500Y-97924167D01*
X203579815Y-97991206D01*
X203563181Y-98011848D01*
X202681541Y-98893487D01*
X202681535Y-98893495D01*
X202641982Y-98962004D01*
X202641979Y-98962009D01*
X202621500Y-99038439D01*
X202621500Y-100816611D01*
X202601815Y-100883650D01*
X202591214Y-100897812D01*
X202539120Y-100957932D01*
X202539117Y-100957938D01*
X202485302Y-101075774D01*
X202466867Y-101204000D01*
X202485302Y-101332225D01*
X202532185Y-101434882D01*
X202539118Y-101450063D01*
X202623951Y-101547967D01*
X202732931Y-101618004D01*
X202843602Y-101650499D01*
X202857225Y-101654499D01*
X202857227Y-101654500D01*
X202857228Y-101654500D01*
X202986773Y-101654500D01*
X202986773Y-101654499D01*
X203111069Y-101618004D01*
X203220049Y-101547967D01*
X203304882Y-101450063D01*
X203358697Y-101332226D01*
X203377133Y-101204000D01*
X203358697Y-101075774D01*
X203304882Y-100957937D01*
X203304880Y-100957935D01*
X203304879Y-100957932D01*
X203252786Y-100897812D01*
X203223762Y-100834256D01*
X203222500Y-100816611D01*
X203222500Y-99253833D01*
X203242185Y-99186794D01*
X203258819Y-99166152D01*
X203787819Y-98637152D01*
X203849142Y-98603667D01*
X203918834Y-98608651D01*
X203974767Y-98650523D01*
X203999184Y-98715987D01*
X203999500Y-98724833D01*
X203999500Y-101724163D01*
X203979815Y-101791202D01*
X203963181Y-101811844D01*
X203761844Y-102013181D01*
X203700521Y-102046666D01*
X203674163Y-102049500D01*
X203635222Y-102049500D01*
X203510931Y-102085994D01*
X203510928Y-102085995D01*
X203510927Y-102085996D01*
X203459673Y-102118934D01*
X203401946Y-102156033D01*
X203317114Y-102253937D01*
X203317113Y-102253938D01*
X203263298Y-102371774D01*
X203244863Y-102500000D01*
X203263298Y-102628225D01*
X203307023Y-102723967D01*
X203317114Y-102746063D01*
X203401947Y-102843967D01*
X203510927Y-102914004D01*
X203635221Y-102950499D01*
X203635223Y-102950500D01*
X203635224Y-102950500D01*
X203764769Y-102950500D01*
X203764769Y-102950499D01*
X203889065Y-102914004D01*
X203998045Y-102843967D01*
X204082878Y-102746063D01*
X204136693Y-102628226D01*
X204154320Y-102505621D01*
X204183345Y-102442067D01*
X204189362Y-102435603D01*
X204237820Y-102387145D01*
X204299143Y-102353662D01*
X204368835Y-102358647D01*
X204424768Y-102400519D01*
X204449184Y-102465983D01*
X204449500Y-102474828D01*
X204449500Y-119368000D01*
X204429815Y-119435039D01*
X204377011Y-119480794D01*
X204325500Y-119492000D01*
X71418388Y-119492000D01*
X71351349Y-119472315D01*
X71305594Y-119419511D01*
X71294388Y-119368000D01*
X71294388Y-117509187D01*
X70054091Y-117509187D01*
X70054091Y-119368000D01*
X70034406Y-119435039D01*
X69981602Y-119480794D01*
X69930091Y-119492000D01*
X65632000Y-119492000D01*
X65564961Y-119472315D01*
X65519206Y-119419511D01*
X65508000Y-119368000D01*
X65508000Y-93772000D01*
X66689867Y-93772000D01*
X66708302Y-93900225D01*
X66762117Y-94018061D01*
X66762118Y-94018063D01*
X66846951Y-94115967D01*
X66955931Y-94186004D01*
X67080225Y-94222499D01*
X67080227Y-94222500D01*
X67080228Y-94222500D01*
X67209773Y-94222500D01*
X67209773Y-94222499D01*
X67334069Y-94186004D01*
X67443049Y-94115967D01*
X67527882Y-94018063D01*
X67581697Y-93900226D01*
X67600133Y-93772000D01*
X67581697Y-93643774D01*
X67527882Y-93525937D01*
X67443049Y-93428033D01*
X67334069Y-93357996D01*
X67334065Y-93357994D01*
X67334064Y-93357994D01*
X67209774Y-93321500D01*
X67209772Y-93321500D01*
X67080228Y-93321500D01*
X67080226Y-93321500D01*
X66955935Y-93357994D01*
X66955932Y-93357995D01*
X66955931Y-93357996D01*
X66904677Y-93390934D01*
X66846950Y-93428033D01*
X66762118Y-93525937D01*
X66762117Y-93525938D01*
X66708302Y-93643774D01*
X66689867Y-93772000D01*
X65508000Y-93772000D01*
X65508000Y-91232000D01*
X66689867Y-91232000D01*
X66708302Y-91360225D01*
X66762117Y-91478061D01*
X66762118Y-91478063D01*
X66846951Y-91575967D01*
X66955931Y-91646004D01*
X67080225Y-91682499D01*
X67080227Y-91682500D01*
X67080228Y-91682500D01*
X67209773Y-91682500D01*
X67209773Y-91682499D01*
X67334069Y-91646004D01*
X67443049Y-91575967D01*
X67527882Y-91478063D01*
X67581697Y-91360226D01*
X67600133Y-91232000D01*
X67581697Y-91103774D01*
X67527882Y-90985937D01*
X67443049Y-90888033D01*
X67334069Y-90817996D01*
X67334065Y-90817994D01*
X67334064Y-90817994D01*
X67209774Y-90781500D01*
X67209772Y-90781500D01*
X67080228Y-90781500D01*
X67080226Y-90781500D01*
X66955935Y-90817994D01*
X66955932Y-90817995D01*
X66955931Y-90817996D01*
X66904677Y-90850934D01*
X66846950Y-90888033D01*
X66762118Y-90985937D01*
X66762117Y-90985938D01*
X66708302Y-91103774D01*
X66689867Y-91232000D01*
X65508000Y-91232000D01*
X65508000Y-76184999D01*
X66689867Y-76184999D01*
X66693238Y-76208445D01*
X66694500Y-76226092D01*
X66694500Y-76291308D01*
X66718712Y-76381672D01*
X66725200Y-76405885D01*
X66725200Y-76405886D01*
X66725201Y-76405887D01*
X66784511Y-76508614D01*
X66784513Y-76508616D01*
X68577181Y-78301284D01*
X68610666Y-78362607D01*
X68613500Y-78388965D01*
X68613500Y-102279308D01*
X68637712Y-102369672D01*
X68644200Y-102393885D01*
X68644200Y-102393886D01*
X68655816Y-102414005D01*
X68703511Y-102496614D01*
X68703513Y-102496616D01*
X72794933Y-106588036D01*
X72800951Y-106594499D01*
X72829951Y-106627967D01*
X72832488Y-106629597D01*
X72844898Y-106639598D01*
X72844941Y-106639543D01*
X72851389Y-106644491D01*
X72853291Y-106645589D01*
X72890896Y-106667300D01*
X72895886Y-106670340D01*
X72938931Y-106698004D01*
X72938936Y-106698005D01*
X72938937Y-106698006D01*
X72940235Y-106698599D01*
X72949170Y-106701751D01*
X72954111Y-106703798D01*
X72954113Y-106703799D01*
X72954114Y-106703799D01*
X72954116Y-106703800D01*
X73004777Y-106717374D01*
X73007584Y-106718161D01*
X73063228Y-106734500D01*
X73192772Y-106734500D01*
X73248423Y-106718159D01*
X73251218Y-106717374D01*
X73301887Y-106703799D01*
X73301899Y-106703791D01*
X73306823Y-106701753D01*
X73315764Y-106698599D01*
X73317065Y-106698005D01*
X73317069Y-106698004D01*
X73360081Y-106670360D01*
X73365085Y-106667310D01*
X73404614Y-106644489D01*
X73404616Y-106644487D01*
X73411069Y-106639536D01*
X73411112Y-106639592D01*
X73423519Y-106629592D01*
X73426049Y-106627967D01*
X73455049Y-106594497D01*
X73461054Y-106588047D01*
X73488489Y-106560614D01*
X73490711Y-106556763D01*
X73504389Y-106537554D01*
X73510882Y-106530063D01*
X73526423Y-106496031D01*
X73531824Y-106485554D01*
X73547799Y-106457887D01*
X73550734Y-106446932D01*
X73557717Y-106427509D01*
X73563915Y-106413938D01*
X73564697Y-106412226D01*
X73569045Y-106381977D01*
X73572009Y-106367528D01*
X73572410Y-106366033D01*
X73578499Y-106343309D01*
X73578499Y-106325099D01*
X73579761Y-106307452D01*
X73581408Y-106295996D01*
X73583133Y-106284000D01*
X73579761Y-106260545D01*
X73578499Y-106242899D01*
X73578499Y-106224693D01*
X73578498Y-106224689D01*
X73574428Y-106209500D01*
X73572007Y-106200465D01*
X73569045Y-106186019D01*
X73567199Y-106173181D01*
X73564697Y-106155774D01*
X73557713Y-106140481D01*
X73550734Y-106121067D01*
X73547799Y-106110113D01*
X73531821Y-106082439D01*
X73526426Y-106071975D01*
X73510882Y-106037937D01*
X73504386Y-106030440D01*
X73490714Y-106011241D01*
X73488489Y-106007386D01*
X73461073Y-105979970D01*
X73455040Y-105973491D01*
X73426050Y-105940034D01*
X73426048Y-105940032D01*
X73423511Y-105938402D01*
X73402872Y-105921769D01*
X69550819Y-102069716D01*
X69517334Y-102008393D01*
X69514500Y-101982035D01*
X69514500Y-83899999D01*
X70259867Y-83899999D01*
X70263238Y-83923445D01*
X70264500Y-83941092D01*
X70264500Y-100400906D01*
X70263238Y-100418552D01*
X70259867Y-100442000D01*
X70260797Y-100448465D01*
X70263238Y-100465445D01*
X70264500Y-100483092D01*
X70264500Y-101517308D01*
X70286521Y-101599495D01*
X70295200Y-101631885D01*
X70295200Y-101631886D01*
X70305947Y-101650500D01*
X70354511Y-101734614D01*
X70354513Y-101734616D01*
X75133715Y-106513819D01*
X75167200Y-106575142D01*
X75162216Y-106644834D01*
X75133715Y-106689181D01*
X74037513Y-107785383D01*
X74037511Y-107785386D01*
X73978200Y-107888113D01*
X73978199Y-107888116D01*
X73971712Y-107912324D01*
X73971713Y-107912325D01*
X73947500Y-108002691D01*
X73947500Y-116275906D01*
X73946238Y-116293552D01*
X73942867Y-116316999D01*
X73946238Y-116340445D01*
X73947500Y-116358092D01*
X73947500Y-116376310D01*
X73953991Y-116400537D01*
X73956952Y-116414976D01*
X73961301Y-116445222D01*
X73961302Y-116445225D01*
X73968286Y-116460518D01*
X73975264Y-116479927D01*
X73975267Y-116479940D01*
X73978201Y-116490886D01*
X73994170Y-116518545D01*
X73999574Y-116529027D01*
X74015118Y-116563063D01*
X74021612Y-116570558D01*
X74035291Y-116589767D01*
X74037510Y-116593612D01*
X74064920Y-116621022D01*
X74070952Y-116627500D01*
X74099951Y-116660967D01*
X74102485Y-116662595D01*
X74114897Y-116672598D01*
X74114941Y-116672542D01*
X74121381Y-116677483D01*
X74121387Y-116677489D01*
X74160871Y-116700285D01*
X74160878Y-116700289D01*
X74165918Y-116703361D01*
X74208930Y-116731004D01*
X74210226Y-116731595D01*
X74219171Y-116734751D01*
X74224107Y-116736795D01*
X74224114Y-116736799D01*
X74272940Y-116749881D01*
X74274778Y-116750374D01*
X74277580Y-116751160D01*
X74333228Y-116767500D01*
X74462772Y-116767500D01*
X74518426Y-116751157D01*
X74521243Y-116750368D01*
X74571886Y-116736799D01*
X74571892Y-116736795D01*
X74576821Y-116734754D01*
X74585768Y-116731597D01*
X74587062Y-116731005D01*
X74587069Y-116731004D01*
X74630114Y-116703339D01*
X74635086Y-116700309D01*
X74674613Y-116677489D01*
X74674618Y-116677483D01*
X74681068Y-116672536D01*
X74681111Y-116672593D01*
X74693525Y-116662588D01*
X74696049Y-116660967D01*
X74725054Y-116627491D01*
X74731060Y-116621040D01*
X74758489Y-116593613D01*
X74760708Y-116589767D01*
X74774391Y-116570553D01*
X74780882Y-116563063D01*
X74796428Y-116529018D01*
X74801822Y-116518555D01*
X74817799Y-116490886D01*
X74820734Y-116479931D01*
X74827715Y-116460513D01*
X74834697Y-116445226D01*
X74839046Y-116414976D01*
X74842007Y-116400537D01*
X74848500Y-116376309D01*
X74848500Y-116358092D01*
X74849762Y-116340445D01*
X74853133Y-116316999D01*
X74849762Y-116293552D01*
X74848500Y-116275906D01*
X74848500Y-114885258D01*
X90249500Y-114885258D01*
X90249500Y-115114741D01*
X90274446Y-115304215D01*
X90279452Y-115342238D01*
X90279453Y-115342240D01*
X90338842Y-115563887D01*
X90426650Y-115775876D01*
X90426657Y-115775890D01*
X90541392Y-115974617D01*
X90681081Y-116156661D01*
X90681089Y-116156670D01*
X90843330Y-116318911D01*
X90843338Y-116318918D01*
X91025382Y-116458607D01*
X91025385Y-116458608D01*
X91025388Y-116458611D01*
X91224112Y-116573344D01*
X91224117Y-116573346D01*
X91224123Y-116573349D01*
X91315480Y-116611190D01*
X91436113Y-116661158D01*
X91657762Y-116720548D01*
X91885266Y-116750500D01*
X91885273Y-116750500D01*
X92114727Y-116750500D01*
X92114734Y-116750500D01*
X92342238Y-116720548D01*
X92563887Y-116661158D01*
X92775888Y-116573344D01*
X92974612Y-116458611D01*
X93156661Y-116318919D01*
X93156665Y-116318914D01*
X93156670Y-116318911D01*
X93318911Y-116156670D01*
X93318914Y-116156665D01*
X93318919Y-116156661D01*
X93458611Y-115974612D01*
X93573344Y-115775888D01*
X93661158Y-115563887D01*
X93720548Y-115342238D01*
X93750500Y-115114734D01*
X93750500Y-114885266D01*
X93750499Y-114885258D01*
X114249500Y-114885258D01*
X114249500Y-115114741D01*
X114274446Y-115304215D01*
X114279452Y-115342238D01*
X114279453Y-115342240D01*
X114338842Y-115563887D01*
X114426650Y-115775876D01*
X114426657Y-115775890D01*
X114541392Y-115974617D01*
X114681081Y-116156661D01*
X114681089Y-116156670D01*
X114843330Y-116318911D01*
X114843338Y-116318918D01*
X115025382Y-116458607D01*
X115025385Y-116458608D01*
X115025388Y-116458611D01*
X115224112Y-116573344D01*
X115224117Y-116573346D01*
X115224123Y-116573349D01*
X115315480Y-116611190D01*
X115436113Y-116661158D01*
X115657762Y-116720548D01*
X115885266Y-116750500D01*
X115885273Y-116750500D01*
X116114727Y-116750500D01*
X116114734Y-116750500D01*
X116342238Y-116720548D01*
X116563887Y-116661158D01*
X116775888Y-116573344D01*
X116974612Y-116458611D01*
X117156661Y-116318919D01*
X117156665Y-116318914D01*
X117156670Y-116318911D01*
X117318911Y-116156670D01*
X117318914Y-116156665D01*
X117318919Y-116156661D01*
X117458611Y-115974612D01*
X117573344Y-115775888D01*
X117661158Y-115563887D01*
X117720548Y-115342238D01*
X117750500Y-115114734D01*
X117750500Y-114885266D01*
X117750499Y-114885258D01*
X138249500Y-114885258D01*
X138249500Y-115114741D01*
X138274446Y-115304215D01*
X138279452Y-115342238D01*
X138279453Y-115342240D01*
X138338842Y-115563887D01*
X138426650Y-115775876D01*
X138426657Y-115775890D01*
X138541392Y-115974617D01*
X138681081Y-116156661D01*
X138681089Y-116156670D01*
X138843330Y-116318911D01*
X138843338Y-116318918D01*
X139025382Y-116458607D01*
X139025385Y-116458608D01*
X139025388Y-116458611D01*
X139224112Y-116573344D01*
X139224117Y-116573346D01*
X139224123Y-116573349D01*
X139315480Y-116611190D01*
X139436113Y-116661158D01*
X139657762Y-116720548D01*
X139885266Y-116750500D01*
X139885273Y-116750500D01*
X140114727Y-116750500D01*
X140114734Y-116750500D01*
X140342238Y-116720548D01*
X140563887Y-116661158D01*
X140775888Y-116573344D01*
X140974612Y-116458611D01*
X141156661Y-116318919D01*
X141156665Y-116318914D01*
X141156670Y-116318911D01*
X141318911Y-116156670D01*
X141318914Y-116156665D01*
X141318919Y-116156661D01*
X141458611Y-115974612D01*
X141573344Y-115775888D01*
X141661158Y-115563887D01*
X141720548Y-115342238D01*
X141750500Y-115114734D01*
X141750500Y-114885266D01*
X141750499Y-114885258D01*
X162249500Y-114885258D01*
X162249500Y-115114741D01*
X162274446Y-115304215D01*
X162279452Y-115342238D01*
X162279453Y-115342240D01*
X162338842Y-115563887D01*
X162426650Y-115775876D01*
X162426657Y-115775890D01*
X162541392Y-115974617D01*
X162681081Y-116156661D01*
X162681089Y-116156670D01*
X162843330Y-116318911D01*
X162843338Y-116318918D01*
X163025382Y-116458607D01*
X163025385Y-116458608D01*
X163025388Y-116458611D01*
X163224112Y-116573344D01*
X163224117Y-116573346D01*
X163224123Y-116573349D01*
X163315480Y-116611190D01*
X163436113Y-116661158D01*
X163657762Y-116720548D01*
X163885266Y-116750500D01*
X163885273Y-116750500D01*
X164114727Y-116750500D01*
X164114734Y-116750500D01*
X164342238Y-116720548D01*
X164563887Y-116661158D01*
X164775888Y-116573344D01*
X164974612Y-116458611D01*
X165156661Y-116318919D01*
X165156665Y-116318914D01*
X165156670Y-116318911D01*
X165318911Y-116156670D01*
X165318914Y-116156665D01*
X165318919Y-116156661D01*
X165458611Y-115974612D01*
X165573344Y-115775888D01*
X165661158Y-115563887D01*
X165720548Y-115342238D01*
X165750500Y-115114734D01*
X165750500Y-114885266D01*
X165750499Y-114885258D01*
X186249500Y-114885258D01*
X186249500Y-115114741D01*
X186274446Y-115304215D01*
X186279452Y-115342238D01*
X186279453Y-115342240D01*
X186338842Y-115563887D01*
X186426650Y-115775876D01*
X186426657Y-115775890D01*
X186541392Y-115974617D01*
X186681081Y-116156661D01*
X186681089Y-116156670D01*
X186843330Y-116318911D01*
X186843338Y-116318918D01*
X187025382Y-116458607D01*
X187025385Y-116458608D01*
X187025388Y-116458611D01*
X187224112Y-116573344D01*
X187224117Y-116573346D01*
X187224123Y-116573349D01*
X187315480Y-116611190D01*
X187436113Y-116661158D01*
X187657762Y-116720548D01*
X187885266Y-116750500D01*
X187885273Y-116750500D01*
X188114727Y-116750500D01*
X188114734Y-116750500D01*
X188342238Y-116720548D01*
X188563887Y-116661158D01*
X188775888Y-116573344D01*
X188974612Y-116458611D01*
X189156661Y-116318919D01*
X189156665Y-116318914D01*
X189156670Y-116318911D01*
X189318911Y-116156670D01*
X189318914Y-116156665D01*
X189318919Y-116156661D01*
X189458611Y-115974612D01*
X189573344Y-115775888D01*
X189661158Y-115563887D01*
X189720548Y-115342238D01*
X189750500Y-115114734D01*
X189750500Y-114885266D01*
X189720548Y-114657762D01*
X189661158Y-114436113D01*
X189573344Y-114224112D01*
X189458611Y-114025388D01*
X189458608Y-114025385D01*
X189458607Y-114025382D01*
X189318918Y-113843338D01*
X189318911Y-113843330D01*
X189156670Y-113681089D01*
X189156661Y-113681081D01*
X188974617Y-113541392D01*
X188775890Y-113426657D01*
X188775876Y-113426650D01*
X188563887Y-113338842D01*
X188342238Y-113279452D01*
X188304215Y-113274446D01*
X188114741Y-113249500D01*
X188114734Y-113249500D01*
X187885266Y-113249500D01*
X187885258Y-113249500D01*
X187668715Y-113278009D01*
X187657762Y-113279452D01*
X187564076Y-113304554D01*
X187436112Y-113338842D01*
X187224123Y-113426650D01*
X187224109Y-113426657D01*
X187025382Y-113541392D01*
X186843338Y-113681081D01*
X186681081Y-113843338D01*
X186541392Y-114025382D01*
X186426657Y-114224109D01*
X186426650Y-114224123D01*
X186338842Y-114436112D01*
X186279453Y-114657759D01*
X186279451Y-114657770D01*
X186249500Y-114885258D01*
X165750499Y-114885258D01*
X165720548Y-114657762D01*
X165661158Y-114436113D01*
X165573344Y-114224112D01*
X165458611Y-114025388D01*
X165458608Y-114025385D01*
X165458607Y-114025382D01*
X165318918Y-113843338D01*
X165318911Y-113843330D01*
X165156670Y-113681089D01*
X165156661Y-113681081D01*
X164974617Y-113541392D01*
X164775890Y-113426657D01*
X164775876Y-113426650D01*
X164563887Y-113338842D01*
X164342238Y-113279452D01*
X164304215Y-113274446D01*
X164114741Y-113249500D01*
X164114734Y-113249500D01*
X163885266Y-113249500D01*
X163885258Y-113249500D01*
X163668715Y-113278009D01*
X163657762Y-113279452D01*
X163564076Y-113304554D01*
X163436112Y-113338842D01*
X163224123Y-113426650D01*
X163224109Y-113426657D01*
X163025382Y-113541392D01*
X162843338Y-113681081D01*
X162681081Y-113843338D01*
X162541392Y-114025382D01*
X162426657Y-114224109D01*
X162426650Y-114224123D01*
X162338842Y-114436112D01*
X162279453Y-114657759D01*
X162279451Y-114657770D01*
X162249500Y-114885258D01*
X141750499Y-114885258D01*
X141720548Y-114657762D01*
X141661158Y-114436113D01*
X141573344Y-114224112D01*
X141458611Y-114025388D01*
X141458608Y-114025385D01*
X141458607Y-114025382D01*
X141318918Y-113843338D01*
X141318911Y-113843330D01*
X141156670Y-113681089D01*
X141156661Y-113681081D01*
X140974617Y-113541392D01*
X140775890Y-113426657D01*
X140775876Y-113426650D01*
X140563887Y-113338842D01*
X140342238Y-113279452D01*
X140304215Y-113274446D01*
X140114741Y-113249500D01*
X140114734Y-113249500D01*
X139885266Y-113249500D01*
X139885258Y-113249500D01*
X139668715Y-113278009D01*
X139657762Y-113279452D01*
X139564076Y-113304554D01*
X139436112Y-113338842D01*
X139224123Y-113426650D01*
X139224109Y-113426657D01*
X139025382Y-113541392D01*
X138843338Y-113681081D01*
X138681081Y-113843338D01*
X138541392Y-114025382D01*
X138426657Y-114224109D01*
X138426650Y-114224123D01*
X138338842Y-114436112D01*
X138279453Y-114657759D01*
X138279451Y-114657770D01*
X138249500Y-114885258D01*
X117750499Y-114885258D01*
X117720548Y-114657762D01*
X117661158Y-114436113D01*
X117573344Y-114224112D01*
X117458611Y-114025388D01*
X117458608Y-114025385D01*
X117458607Y-114025382D01*
X117318918Y-113843338D01*
X117318911Y-113843330D01*
X117156670Y-113681089D01*
X117156661Y-113681081D01*
X116974617Y-113541392D01*
X116775890Y-113426657D01*
X116775876Y-113426650D01*
X116563887Y-113338842D01*
X116342238Y-113279452D01*
X116304215Y-113274446D01*
X116114741Y-113249500D01*
X116114734Y-113249500D01*
X115885266Y-113249500D01*
X115885258Y-113249500D01*
X115668715Y-113278009D01*
X115657762Y-113279452D01*
X115564076Y-113304554D01*
X115436112Y-113338842D01*
X115224123Y-113426650D01*
X115224109Y-113426657D01*
X115025382Y-113541392D01*
X114843338Y-113681081D01*
X114681081Y-113843338D01*
X114541392Y-114025382D01*
X114426657Y-114224109D01*
X114426650Y-114224123D01*
X114338842Y-114436112D01*
X114279453Y-114657759D01*
X114279451Y-114657770D01*
X114249500Y-114885258D01*
X93750499Y-114885258D01*
X93720548Y-114657762D01*
X93661158Y-114436113D01*
X93573344Y-114224112D01*
X93458611Y-114025388D01*
X93458608Y-114025385D01*
X93458607Y-114025382D01*
X93318918Y-113843338D01*
X93318911Y-113843330D01*
X93156670Y-113681089D01*
X93156661Y-113681081D01*
X92974617Y-113541392D01*
X92775890Y-113426657D01*
X92775876Y-113426650D01*
X92563887Y-113338842D01*
X92342238Y-113279452D01*
X92304215Y-113274446D01*
X92114741Y-113249500D01*
X92114734Y-113249500D01*
X91885266Y-113249500D01*
X91885258Y-113249500D01*
X91668715Y-113278009D01*
X91657762Y-113279452D01*
X91564076Y-113304554D01*
X91436112Y-113338842D01*
X91224123Y-113426650D01*
X91224109Y-113426657D01*
X91025382Y-113541392D01*
X90843338Y-113681081D01*
X90681081Y-113843338D01*
X90541392Y-114025382D01*
X90426657Y-114224109D01*
X90426650Y-114224123D01*
X90338842Y-114436112D01*
X90279453Y-114657759D01*
X90279451Y-114657770D01*
X90249500Y-114885258D01*
X74848500Y-114885258D01*
X74848500Y-108299965D01*
X74868185Y-108232926D01*
X74884819Y-108212284D01*
X75564284Y-107532819D01*
X75625607Y-107499334D01*
X75651965Y-107496500D01*
X76521860Y-107496500D01*
X76588899Y-107516185D01*
X76634654Y-107568989D01*
X76644598Y-107638147D01*
X76615573Y-107701703D01*
X76588902Y-107724813D01*
X76549819Y-107749930D01*
X76512950Y-107773624D01*
X76428118Y-107871528D01*
X76428117Y-107871529D01*
X76374302Y-107989365D01*
X76355867Y-108117591D01*
X76375565Y-108254595D01*
X76371865Y-108255126D01*
X76371911Y-108307331D01*
X76334187Y-108366142D01*
X76270657Y-108395222D01*
X76252903Y-108396500D01*
X76187343Y-108396500D01*
X76120304Y-108376815D01*
X76093631Y-108353704D01*
X76093050Y-108353034D01*
X76093049Y-108353033D01*
X75984069Y-108282996D01*
X75984065Y-108282994D01*
X75984064Y-108282994D01*
X75859774Y-108246500D01*
X75859772Y-108246500D01*
X75730228Y-108246500D01*
X75730226Y-108246500D01*
X75605935Y-108282994D01*
X75605932Y-108282995D01*
X75605931Y-108282996D01*
X75579527Y-108299965D01*
X75496950Y-108353033D01*
X75412118Y-108450937D01*
X75412117Y-108450938D01*
X75358302Y-108568774D01*
X75339867Y-108697000D01*
X75358302Y-108825225D01*
X75412117Y-108943061D01*
X75412118Y-108943063D01*
X75461692Y-109000275D01*
X75496369Y-109040296D01*
X75496951Y-109040967D01*
X75605931Y-109111004D01*
X75730225Y-109147499D01*
X75730227Y-109147500D01*
X75730228Y-109147500D01*
X75859773Y-109147500D01*
X75859773Y-109147499D01*
X75984069Y-109111004D01*
X76093049Y-109040967D01*
X76093374Y-109040591D01*
X76093631Y-109040296D01*
X76094379Y-109039815D01*
X76099754Y-109035158D01*
X76100423Y-109035930D01*
X76152409Y-109002523D01*
X76187343Y-108997500D01*
X76635167Y-108997500D01*
X76702206Y-109017185D01*
X76722848Y-109033819D01*
X76866848Y-109177819D01*
X76900333Y-109239142D01*
X76895349Y-109308834D01*
X76853477Y-109364767D01*
X76788013Y-109389184D01*
X76779167Y-109389500D01*
X76746226Y-109389500D01*
X76621935Y-109425994D01*
X76621932Y-109425995D01*
X76621931Y-109425996D01*
X76592709Y-109444776D01*
X76512950Y-109496033D01*
X76428118Y-109593937D01*
X76428117Y-109593938D01*
X76374302Y-109711774D01*
X76355867Y-109840000D01*
X76374302Y-109968225D01*
X76411274Y-110049181D01*
X76428118Y-110086063D01*
X76512951Y-110183967D01*
X76621931Y-110254004D01*
X76621933Y-110254004D01*
X76626887Y-110257188D01*
X76672642Y-110309992D01*
X76682586Y-110379150D01*
X76653561Y-110442706D01*
X76594784Y-110480481D01*
X76559848Y-110485504D01*
X76330827Y-110485504D01*
X76263788Y-110465819D01*
X76218033Y-110413016D01*
X76187550Y-110346270D01*
X76187550Y-110346269D01*
X76102717Y-110248365D01*
X75993737Y-110178328D01*
X75993733Y-110178326D01*
X75993732Y-110178326D01*
X75869442Y-110141832D01*
X75869440Y-110141832D01*
X75739896Y-110141832D01*
X75739894Y-110141832D01*
X75615603Y-110178326D01*
X75615600Y-110178327D01*
X75615599Y-110178328D01*
X75606825Y-110183967D01*
X75506618Y-110248365D01*
X75421786Y-110346269D01*
X75421785Y-110346270D01*
X75367970Y-110464106D01*
X75349535Y-110592332D01*
X75367970Y-110720557D01*
X75421785Y-110838393D01*
X75421786Y-110838395D01*
X75506619Y-110936299D01*
X75615599Y-111006336D01*
X75684164Y-111026468D01*
X75739893Y-111042831D01*
X75739895Y-111042832D01*
X75739896Y-111042832D01*
X75808953Y-111042832D01*
X75870952Y-111059444D01*
X75882350Y-111066025D01*
X75958777Y-111086504D01*
X75958779Y-111086504D01*
X151215556Y-111086504D01*
X151215558Y-111086504D01*
X151291985Y-111066025D01*
X151360507Y-111026464D01*
X151416456Y-110970515D01*
X153076152Y-109310819D01*
X153137475Y-109277334D01*
X153163833Y-109274500D01*
X153202773Y-109274500D01*
X153202773Y-109274499D01*
X153327069Y-109238004D01*
X153436049Y-109167967D01*
X153520882Y-109070063D01*
X153574697Y-108952226D01*
X153593133Y-108824000D01*
X153574697Y-108695774D01*
X153520882Y-108577937D01*
X153436049Y-108480033D01*
X153327069Y-108409996D01*
X153327065Y-108409994D01*
X153327064Y-108409994D01*
X153202774Y-108373500D01*
X153202772Y-108373500D01*
X153073228Y-108373500D01*
X153073226Y-108373500D01*
X152948935Y-108409994D01*
X152948932Y-108409995D01*
X152948931Y-108409996D01*
X152897677Y-108442934D01*
X152839950Y-108480033D01*
X152755118Y-108577937D01*
X152755117Y-108577938D01*
X152701302Y-108695774D01*
X152683675Y-108818376D01*
X152654650Y-108881931D01*
X152648618Y-108888409D01*
X152521100Y-109015928D01*
X152459779Y-109049412D01*
X152390087Y-109044428D01*
X152334153Y-109002557D01*
X152309736Y-108937093D01*
X152310682Y-108910599D01*
X152313872Y-108888409D01*
X152323133Y-108824000D01*
X152304697Y-108695774D01*
X152250882Y-108577937D01*
X152166049Y-108480033D01*
X152057069Y-108409996D01*
X152057065Y-108409994D01*
X152057064Y-108409994D01*
X151932774Y-108373500D01*
X151932772Y-108373500D01*
X151803228Y-108373500D01*
X151803226Y-108373500D01*
X151678935Y-108409994D01*
X151678932Y-108409995D01*
X151678931Y-108409996D01*
X151627677Y-108442934D01*
X151569950Y-108480033D01*
X151485118Y-108577937D01*
X151485117Y-108577938D01*
X151431302Y-108695774D01*
X151413675Y-108818376D01*
X151384650Y-108881931D01*
X151378618Y-108888409D01*
X150217848Y-110049181D01*
X150156525Y-110082666D01*
X150130167Y-110085500D01*
X103578833Y-110085500D01*
X103511794Y-110065815D01*
X103466039Y-110013011D01*
X103456095Y-109943853D01*
X103485120Y-109880297D01*
X103491152Y-109873819D01*
X104054152Y-109310819D01*
X104115475Y-109277334D01*
X104141833Y-109274500D01*
X104180773Y-109274500D01*
X104180773Y-109274499D01*
X104305069Y-109238004D01*
X104414049Y-109167967D01*
X104498882Y-109070063D01*
X104552697Y-108952226D01*
X104571133Y-108824000D01*
X104552697Y-108695774D01*
X104498882Y-108577937D01*
X104414049Y-108480033D01*
X104305069Y-108409996D01*
X104305065Y-108409994D01*
X104305064Y-108409994D01*
X104180774Y-108373500D01*
X104180772Y-108373500D01*
X104051228Y-108373500D01*
X104051226Y-108373500D01*
X103926935Y-108409994D01*
X103926932Y-108409995D01*
X103926931Y-108409996D01*
X103875677Y-108442934D01*
X103817950Y-108480033D01*
X103733118Y-108577937D01*
X103733117Y-108577938D01*
X103720794Y-108604922D01*
X103675039Y-108657726D01*
X103607999Y-108677410D01*
X103540960Y-108657725D01*
X103495206Y-108604922D01*
X103482882Y-108577938D01*
X103482882Y-108577937D01*
X103398049Y-108480033D01*
X103289069Y-108409996D01*
X103289065Y-108409994D01*
X103289064Y-108409994D01*
X103164774Y-108373500D01*
X103164772Y-108373500D01*
X103035228Y-108373500D01*
X103035226Y-108373500D01*
X102910935Y-108409994D01*
X102910932Y-108409995D01*
X102910931Y-108409996D01*
X102859677Y-108442934D01*
X102801950Y-108480033D01*
X102717118Y-108577937D01*
X102717117Y-108577938D01*
X102663302Y-108695774D01*
X102645675Y-108818376D01*
X102616650Y-108881931D01*
X102610618Y-108888409D01*
X102249848Y-109249181D01*
X102188525Y-109282666D01*
X102162167Y-109285500D01*
X78455242Y-109285500D01*
X78388203Y-109265815D01*
X78367561Y-109249181D01*
X77300381Y-108182001D01*
X77266896Y-108120678D01*
X77265324Y-108111966D01*
X77263675Y-108100500D01*
X77247697Y-107989365D01*
X77193882Y-107871528D01*
X77109049Y-107773624D01*
X77033099Y-107724814D01*
X76987346Y-107672012D01*
X76977402Y-107602854D01*
X77006427Y-107539298D01*
X77065204Y-107501523D01*
X77100140Y-107496500D01*
X84501228Y-107496500D01*
X84540167Y-107496500D01*
X84607206Y-107516185D01*
X84627848Y-107532819D01*
X85035489Y-107940460D01*
X85094829Y-107974720D01*
X85104008Y-107980020D01*
X85104012Y-107980022D01*
X85180438Y-108000500D01*
X85180440Y-108000500D01*
X98667560Y-108000500D01*
X98667562Y-108000500D01*
X98743989Y-107980021D01*
X98812511Y-107940460D01*
X98868460Y-107884511D01*
X99220152Y-107532819D01*
X99281475Y-107499334D01*
X99307833Y-107496500D01*
X99346773Y-107496500D01*
X99346773Y-107496499D01*
X99471069Y-107460004D01*
X99580049Y-107389967D01*
X99580374Y-107389591D01*
X99580631Y-107389296D01*
X99581379Y-107388815D01*
X99586754Y-107384158D01*
X99587423Y-107384930D01*
X99639409Y-107351523D01*
X99674343Y-107346500D01*
X108303657Y-107346500D01*
X108370696Y-107366185D01*
X108397369Y-107389296D01*
X108397949Y-107389965D01*
X108397951Y-107389967D01*
X108506931Y-107460004D01*
X108601649Y-107487815D01*
X108631225Y-107496499D01*
X108631227Y-107496500D01*
X108631228Y-107496500D01*
X108670167Y-107496500D01*
X108737206Y-107516185D01*
X108757848Y-107532819D01*
X109209540Y-107984511D01*
X109265489Y-108040460D01*
X109265491Y-108040461D01*
X109265495Y-108040464D01*
X109279345Y-108048460D01*
X109334011Y-108080021D01*
X109410438Y-108100500D01*
X109410440Y-108100500D01*
X122697560Y-108100500D01*
X122697562Y-108100500D01*
X122773989Y-108080021D01*
X122842511Y-108040460D01*
X122898460Y-107984511D01*
X123350152Y-107532819D01*
X123411475Y-107499334D01*
X123437833Y-107496500D01*
X123476773Y-107496500D01*
X123476773Y-107496499D01*
X123601069Y-107460004D01*
X123710049Y-107389967D01*
X123710374Y-107389591D01*
X123710631Y-107389296D01*
X123711379Y-107388815D01*
X123716754Y-107384158D01*
X123717423Y-107384930D01*
X123769409Y-107351523D01*
X123804343Y-107346500D01*
X132433657Y-107346500D01*
X132500696Y-107366185D01*
X132527369Y-107389296D01*
X132527949Y-107389965D01*
X132527951Y-107389967D01*
X132636931Y-107460004D01*
X132731649Y-107487815D01*
X132761225Y-107496499D01*
X132761227Y-107496500D01*
X132761228Y-107496500D01*
X132800167Y-107496500D01*
X132867206Y-107516185D01*
X132887848Y-107532819D01*
X133403489Y-108048460D01*
X133458147Y-108080017D01*
X133472008Y-108088020D01*
X133472012Y-108088022D01*
X133548438Y-108108500D01*
X133548440Y-108108500D01*
X146565560Y-108108500D01*
X146565562Y-108108500D01*
X146641989Y-108088021D01*
X146710511Y-108048460D01*
X146766460Y-107992511D01*
X147226152Y-107532819D01*
X147287475Y-107499334D01*
X147313833Y-107496500D01*
X147352773Y-107496500D01*
X147352773Y-107496499D01*
X147477069Y-107460004D01*
X147586049Y-107389967D01*
X147586374Y-107389591D01*
X147586631Y-107389296D01*
X147587379Y-107388815D01*
X147592754Y-107384158D01*
X147593423Y-107384930D01*
X147645409Y-107351523D01*
X147680343Y-107346500D01*
X156309657Y-107346500D01*
X156376696Y-107366185D01*
X156403369Y-107389296D01*
X156403949Y-107389965D01*
X156403951Y-107389967D01*
X156512931Y-107460004D01*
X156607649Y-107487815D01*
X156637225Y-107496499D01*
X156637227Y-107496500D01*
X156637228Y-107496500D01*
X156676167Y-107496500D01*
X156743206Y-107516185D01*
X156763848Y-107532819D01*
X157279489Y-108048460D01*
X157334147Y-108080017D01*
X157348008Y-108088020D01*
X157348012Y-108088022D01*
X157424438Y-108108500D01*
X157424440Y-108108500D01*
X170695560Y-108108500D01*
X170695562Y-108108500D01*
X170771989Y-108088021D01*
X170840511Y-108048460D01*
X170896460Y-107992511D01*
X171356152Y-107532819D01*
X171417475Y-107499334D01*
X171443833Y-107496500D01*
X171482773Y-107496500D01*
X171482773Y-107496499D01*
X171607069Y-107460004D01*
X171716049Y-107389967D01*
X171716374Y-107389591D01*
X171716631Y-107389296D01*
X171717379Y-107388815D01*
X171722754Y-107384158D01*
X171723423Y-107384930D01*
X171775409Y-107351523D01*
X171810343Y-107346500D01*
X180185657Y-107346500D01*
X180252696Y-107366185D01*
X180279369Y-107389296D01*
X180279949Y-107389965D01*
X180279951Y-107389967D01*
X180388931Y-107460004D01*
X180483649Y-107487815D01*
X180513225Y-107496499D01*
X180513227Y-107496500D01*
X180513228Y-107496500D01*
X180552167Y-107496500D01*
X180619206Y-107516185D01*
X180639848Y-107532819D01*
X181155489Y-108048460D01*
X181210147Y-108080017D01*
X181224008Y-108088020D01*
X181224012Y-108088022D01*
X181300438Y-108108500D01*
X181300440Y-108108500D01*
X194571560Y-108108500D01*
X194571562Y-108108500D01*
X194647989Y-108088021D01*
X194716511Y-108048460D01*
X194772460Y-107992511D01*
X195232152Y-107532819D01*
X195293475Y-107499334D01*
X195319833Y-107496500D01*
X195358773Y-107496500D01*
X195358773Y-107496499D01*
X195483069Y-107460004D01*
X195592049Y-107389967D01*
X195676882Y-107292063D01*
X195730697Y-107174226D01*
X195749133Y-107046000D01*
X195730697Y-106917774D01*
X195676882Y-106799937D01*
X195592049Y-106702033D01*
X195483069Y-106631996D01*
X195483065Y-106631994D01*
X195483064Y-106631994D01*
X195358774Y-106595500D01*
X195358772Y-106595500D01*
X195229228Y-106595500D01*
X195229226Y-106595500D01*
X195104935Y-106631994D01*
X195104932Y-106631995D01*
X195104931Y-106631996D01*
X195084955Y-106644834D01*
X194995950Y-106702033D01*
X194911118Y-106799937D01*
X194911117Y-106799938D01*
X194857302Y-106917774D01*
X194839675Y-107040376D01*
X194810650Y-107103931D01*
X194804618Y-107110409D01*
X194443848Y-107471181D01*
X194382525Y-107504666D01*
X194356167Y-107507500D01*
X193016833Y-107507500D01*
X192949794Y-107487815D01*
X192904039Y-107435011D01*
X192894095Y-107365853D01*
X192923120Y-107302297D01*
X192929152Y-107295819D01*
X193078152Y-107146819D01*
X193139475Y-107113334D01*
X193165833Y-107110500D01*
X193204773Y-107110500D01*
X193204773Y-107110499D01*
X193329069Y-107074004D01*
X193438049Y-107003967D01*
X193522882Y-106906063D01*
X193576697Y-106788226D01*
X193595133Y-106660000D01*
X193576697Y-106531774D01*
X193522882Y-106413937D01*
X193438049Y-106316033D01*
X193329069Y-106245996D01*
X193329065Y-106245994D01*
X193329064Y-106245994D01*
X193204774Y-106209500D01*
X193204772Y-106209500D01*
X193075228Y-106209500D01*
X193075226Y-106209500D01*
X192950935Y-106245994D01*
X192950932Y-106245995D01*
X192950931Y-106245996D01*
X192899677Y-106278934D01*
X192841950Y-106316033D01*
X192757118Y-106413937D01*
X192757117Y-106413938D01*
X192703302Y-106531774D01*
X192685675Y-106654376D01*
X192656650Y-106717931D01*
X192650619Y-106724409D01*
X192411846Y-106963182D01*
X192350526Y-106996666D01*
X192324167Y-106999500D01*
X183575833Y-106999500D01*
X183508794Y-106979815D01*
X183488152Y-106963181D01*
X183299381Y-106774410D01*
X183265896Y-106713087D01*
X183264324Y-106704375D01*
X183264241Y-106703800D01*
X183246697Y-106581774D01*
X183192882Y-106463937D01*
X183108049Y-106366033D01*
X182999069Y-106295996D01*
X182999065Y-106295994D01*
X182999064Y-106295994D01*
X182874774Y-106259500D01*
X182874772Y-106259500D01*
X182835833Y-106259500D01*
X182768794Y-106239815D01*
X182748152Y-106223181D01*
X182695512Y-106170541D01*
X182695504Y-106170535D01*
X182661131Y-106150690D01*
X182661127Y-106150689D01*
X182649215Y-106143811D01*
X182626990Y-106130979D01*
X182626991Y-106130979D01*
X182588775Y-106120739D01*
X182550562Y-106110500D01*
X169354438Y-106110500D01*
X169303486Y-106124152D01*
X169278010Y-106130979D01*
X169251085Y-106146524D01*
X169243873Y-106150689D01*
X169243871Y-106150690D01*
X169243869Y-106150690D01*
X169209495Y-106170535D01*
X169209487Y-106170541D01*
X169206848Y-106173181D01*
X169204073Y-106174696D01*
X169203044Y-106175486D01*
X169202920Y-106175325D01*
X169145525Y-106206666D01*
X169119167Y-106209500D01*
X169075226Y-106209500D01*
X168950935Y-106245994D01*
X168950932Y-106245995D01*
X168950931Y-106245996D01*
X168899677Y-106278934D01*
X168841950Y-106316033D01*
X168757118Y-106413937D01*
X168757117Y-106413938D01*
X168703302Y-106531774D01*
X168685675Y-106654376D01*
X168656650Y-106717931D01*
X168650619Y-106724409D01*
X168411846Y-106963182D01*
X168350526Y-106996666D01*
X168324167Y-106999500D01*
X159575833Y-106999500D01*
X159508794Y-106979815D01*
X159488152Y-106963181D01*
X159299381Y-106774410D01*
X159265896Y-106713087D01*
X159264324Y-106704375D01*
X159264241Y-106703800D01*
X159246697Y-106581774D01*
X159192882Y-106463937D01*
X159108049Y-106366033D01*
X158999069Y-106295996D01*
X158999065Y-106295994D01*
X158999064Y-106295994D01*
X158874774Y-106259500D01*
X158874772Y-106259500D01*
X158835833Y-106259500D01*
X158768794Y-106239815D01*
X158748152Y-106223181D01*
X158695512Y-106170541D01*
X158695504Y-106170535D01*
X158661131Y-106150690D01*
X158661127Y-106150689D01*
X158649215Y-106143811D01*
X158626990Y-106130979D01*
X158626991Y-106130979D01*
X158588775Y-106120739D01*
X158550562Y-106110500D01*
X145351438Y-106110500D01*
X145300486Y-106124152D01*
X145275010Y-106130979D01*
X145248085Y-106146524D01*
X145240873Y-106150689D01*
X145240871Y-106150690D01*
X145240869Y-106150690D01*
X145206495Y-106170535D01*
X145206487Y-106170541D01*
X145203848Y-106173181D01*
X145201073Y-106174696D01*
X145200044Y-106175486D01*
X145199920Y-106175325D01*
X145142525Y-106206666D01*
X145116167Y-106209500D01*
X145075226Y-106209500D01*
X144950935Y-106245994D01*
X144950932Y-106245995D01*
X144950931Y-106245996D01*
X144899677Y-106278934D01*
X144841950Y-106316033D01*
X144757118Y-106413937D01*
X144757117Y-106413938D01*
X144703302Y-106531774D01*
X144685675Y-106654376D01*
X144656650Y-106717931D01*
X144650619Y-106724409D01*
X144411846Y-106963182D01*
X144350526Y-106996666D01*
X144324167Y-106999500D01*
X135575833Y-106999500D01*
X135508794Y-106979815D01*
X135488152Y-106963181D01*
X135299381Y-106774410D01*
X135265896Y-106713087D01*
X135264324Y-106704375D01*
X135264241Y-106703800D01*
X135246697Y-106581774D01*
X135192882Y-106463937D01*
X135108049Y-106366033D01*
X134999069Y-106295996D01*
X134999065Y-106295994D01*
X134999064Y-106295994D01*
X134874774Y-106259500D01*
X134874772Y-106259500D01*
X134835833Y-106259500D01*
X134768794Y-106239815D01*
X134748152Y-106223181D01*
X134695512Y-106170541D01*
X134695504Y-106170535D01*
X134661131Y-106150690D01*
X134661127Y-106150689D01*
X134649215Y-106143811D01*
X134626990Y-106130979D01*
X134626991Y-106130979D01*
X134588775Y-106120739D01*
X134550562Y-106110500D01*
X121349438Y-106110500D01*
X121298486Y-106124152D01*
X121273010Y-106130979D01*
X121246085Y-106146524D01*
X121238873Y-106150689D01*
X121238871Y-106150690D01*
X121238869Y-106150690D01*
X121204495Y-106170535D01*
X121204487Y-106170541D01*
X121201848Y-106173181D01*
X121199073Y-106174696D01*
X121198044Y-106175486D01*
X121197920Y-106175325D01*
X121140525Y-106206666D01*
X121114167Y-106209500D01*
X121075226Y-106209500D01*
X120950935Y-106245994D01*
X120950932Y-106245995D01*
X120950931Y-106245996D01*
X120899677Y-106278934D01*
X120841950Y-106316033D01*
X120757118Y-106413937D01*
X120757117Y-106413938D01*
X120703302Y-106531774D01*
X120685675Y-106654376D01*
X120656650Y-106717931D01*
X120650619Y-106724409D01*
X120411846Y-106963182D01*
X120350526Y-106996666D01*
X120324167Y-106999500D01*
X111575833Y-106999500D01*
X111508794Y-106979815D01*
X111488152Y-106963181D01*
X111299381Y-106774410D01*
X111265896Y-106713087D01*
X111264324Y-106704375D01*
X111264241Y-106703800D01*
X111246697Y-106581774D01*
X111192882Y-106463937D01*
X111108049Y-106366033D01*
X110999069Y-106295996D01*
X110999065Y-106295994D01*
X110999064Y-106295994D01*
X110874774Y-106259500D01*
X110874772Y-106259500D01*
X110835833Y-106259500D01*
X110768794Y-106239815D01*
X110748152Y-106223181D01*
X110568512Y-106043541D01*
X110568507Y-106043537D01*
X110555649Y-106036114D01*
X110555647Y-106036113D01*
X110499991Y-106003980D01*
X110499990Y-106003979D01*
X110474513Y-105997152D01*
X110423562Y-105983500D01*
X97476438Y-105983500D01*
X97438224Y-105993739D01*
X97400009Y-106003979D01*
X97400008Y-106003980D01*
X97344353Y-106036113D01*
X97344351Y-106036114D01*
X97331492Y-106043537D01*
X97331487Y-106043541D01*
X97201848Y-106173181D01*
X97140525Y-106206666D01*
X97114167Y-106209500D01*
X97075226Y-106209500D01*
X96950935Y-106245994D01*
X96950932Y-106245995D01*
X96950931Y-106245996D01*
X96899677Y-106278934D01*
X96841950Y-106316033D01*
X96757118Y-106413937D01*
X96757117Y-106413938D01*
X96703302Y-106531774D01*
X96685675Y-106654376D01*
X96656650Y-106717931D01*
X96650619Y-106724409D01*
X96411846Y-106963182D01*
X96350526Y-106996666D01*
X96324167Y-106999500D01*
X87575833Y-106999500D01*
X87508794Y-106979815D01*
X87488152Y-106963181D01*
X87299381Y-106774410D01*
X87265896Y-106713087D01*
X87264324Y-106704372D01*
X87261761Y-106686542D01*
X87260499Y-106668899D01*
X87260499Y-106650693D01*
X87260498Y-106650689D01*
X87259131Y-106645589D01*
X87254007Y-106626465D01*
X87251045Y-106612019D01*
X87246697Y-106581775D01*
X87243668Y-106575142D01*
X87239713Y-106566481D01*
X87232734Y-106547067D01*
X87229799Y-106536113D01*
X87213825Y-106508445D01*
X87208418Y-106497956D01*
X87192884Y-106463941D01*
X87192882Y-106463938D01*
X87192882Y-106463937D01*
X87186387Y-106456441D01*
X87172715Y-106437240D01*
X87172538Y-106436933D01*
X87170490Y-106433386D01*
X87143066Y-106405962D01*
X87137034Y-106399484D01*
X87121868Y-106381981D01*
X87108049Y-106366033D01*
X87108048Y-106366032D01*
X87108047Y-106366031D01*
X87105516Y-106364405D01*
X87084874Y-106347770D01*
X86586616Y-105849513D01*
X86586614Y-105849511D01*
X86535250Y-105819856D01*
X86483888Y-105790201D01*
X86471780Y-105786957D01*
X86459673Y-105783713D01*
X86459670Y-105783712D01*
X86421478Y-105773478D01*
X86369309Y-105759500D01*
X86369308Y-105759500D01*
X75704966Y-105759500D01*
X75637927Y-105739815D01*
X75617285Y-105723181D01*
X73765104Y-103871000D01*
X74704867Y-103871000D01*
X74723302Y-103999225D01*
X74736547Y-104028226D01*
X74777118Y-104117063D01*
X74861951Y-104214967D01*
X74970931Y-104285004D01*
X75069702Y-104314005D01*
X75095225Y-104321499D01*
X75095227Y-104321500D01*
X75095228Y-104321500D01*
X75224773Y-104321500D01*
X75224773Y-104321499D01*
X75349069Y-104285004D01*
X75458049Y-104214967D01*
X75542882Y-104117063D01*
X75596344Y-104000000D01*
X99244867Y-104000000D01*
X99263302Y-104128225D01*
X99271449Y-104146063D01*
X99317118Y-104246063D01*
X99401951Y-104343967D01*
X99510931Y-104414004D01*
X99635225Y-104450499D01*
X99635227Y-104450500D01*
X99635228Y-104450500D01*
X99764773Y-104450500D01*
X99764773Y-104450499D01*
X99889069Y-104414004D01*
X99998049Y-104343967D01*
X100082882Y-104246063D01*
X100136697Y-104128226D01*
X100155133Y-104000000D01*
X100140755Y-103900000D01*
X201144867Y-103900000D01*
X201163302Y-104028225D01*
X201208972Y-104128226D01*
X201217118Y-104146063D01*
X201301951Y-104243967D01*
X201410931Y-104314004D01*
X201535225Y-104350499D01*
X201535227Y-104350500D01*
X201535228Y-104350500D01*
X201664773Y-104350500D01*
X201664773Y-104350499D01*
X201789069Y-104314004D01*
X201898049Y-104243967D01*
X201982882Y-104146063D01*
X202036697Y-104028226D01*
X202055133Y-103900000D01*
X202036697Y-103771774D01*
X201982882Y-103653937D01*
X201898049Y-103556033D01*
X201789069Y-103485996D01*
X201789065Y-103485994D01*
X201789064Y-103485994D01*
X201664774Y-103449500D01*
X201664772Y-103449500D01*
X201535228Y-103449500D01*
X201535226Y-103449500D01*
X201410935Y-103485994D01*
X201410932Y-103485995D01*
X201410931Y-103485996D01*
X201367350Y-103514004D01*
X201301950Y-103556033D01*
X201217118Y-103653937D01*
X201217117Y-103653938D01*
X201163302Y-103771774D01*
X201144867Y-103900000D01*
X100140755Y-103900000D01*
X100136697Y-103871774D01*
X100082882Y-103753937D01*
X99998049Y-103656033D01*
X99889069Y-103585996D01*
X99889065Y-103585994D01*
X99889064Y-103585994D01*
X99764774Y-103549500D01*
X99764772Y-103549500D01*
X99635228Y-103549500D01*
X99635226Y-103549500D01*
X99510935Y-103585994D01*
X99510932Y-103585995D01*
X99510931Y-103585996D01*
X99459677Y-103618934D01*
X99401950Y-103656033D01*
X99317118Y-103753937D01*
X99317117Y-103753938D01*
X99263302Y-103871774D01*
X99244867Y-104000000D01*
X75596344Y-104000000D01*
X75596697Y-103999226D01*
X75615133Y-103871000D01*
X75596697Y-103742774D01*
X75542882Y-103624937D01*
X75458049Y-103527033D01*
X75349069Y-103456996D01*
X75349065Y-103456994D01*
X75349064Y-103456994D01*
X75224774Y-103420500D01*
X75224772Y-103420500D01*
X75095228Y-103420500D01*
X75095226Y-103420500D01*
X74970935Y-103456994D01*
X74970932Y-103456995D01*
X74970931Y-103456996D01*
X74925809Y-103485994D01*
X74861950Y-103527033D01*
X74777118Y-103624937D01*
X74777117Y-103624938D01*
X74723302Y-103742774D01*
X74704867Y-103871000D01*
X73765104Y-103871000D01*
X72994104Y-103100000D01*
X101044867Y-103100000D01*
X101063302Y-103228225D01*
X101117117Y-103346061D01*
X101117118Y-103346063D01*
X101201951Y-103443967D01*
X101310931Y-103514004D01*
X101435225Y-103550499D01*
X101435227Y-103550500D01*
X101435228Y-103550500D01*
X101564773Y-103550500D01*
X101564773Y-103550499D01*
X101689069Y-103514004D01*
X101798049Y-103443967D01*
X101882882Y-103346063D01*
X101936697Y-103228226D01*
X101955133Y-103100000D01*
X101936697Y-102971774D01*
X101882882Y-102853937D01*
X101798049Y-102756033D01*
X101689069Y-102685996D01*
X101689065Y-102685994D01*
X101689064Y-102685994D01*
X101564774Y-102649500D01*
X101564772Y-102649500D01*
X101435228Y-102649500D01*
X101435226Y-102649500D01*
X101310935Y-102685994D01*
X101310932Y-102685995D01*
X101310931Y-102685996D01*
X101259677Y-102718934D01*
X101201950Y-102756033D01*
X101117118Y-102853937D01*
X101117117Y-102853938D01*
X101063302Y-102971774D01*
X101044867Y-103100000D01*
X72994104Y-103100000D01*
X71894104Y-102000000D01*
X98444867Y-102000000D01*
X98463302Y-102128225D01*
X98517117Y-102246061D01*
X98517118Y-102246063D01*
X98601951Y-102343967D01*
X98710931Y-102414004D01*
X98835225Y-102450499D01*
X98835227Y-102450500D01*
X98835228Y-102450500D01*
X98964773Y-102450500D01*
X98964773Y-102450499D01*
X99089069Y-102414004D01*
X99141980Y-102380000D01*
X102644867Y-102380000D01*
X102663302Y-102508225D01*
X102717117Y-102626061D01*
X102717118Y-102626063D01*
X102801951Y-102723967D01*
X102910931Y-102794004D01*
X103035225Y-102830499D01*
X103035227Y-102830500D01*
X103035228Y-102830500D01*
X103164773Y-102830500D01*
X103164773Y-102830499D01*
X103289069Y-102794004D01*
X103398049Y-102723967D01*
X103482882Y-102626063D01*
X103536697Y-102508226D01*
X103555133Y-102380000D01*
X103536697Y-102251774D01*
X103482882Y-102133937D01*
X103398049Y-102036033D01*
X103289069Y-101965996D01*
X103289065Y-101965994D01*
X103289064Y-101965994D01*
X103164774Y-101929500D01*
X103164772Y-101929500D01*
X103035228Y-101929500D01*
X103035226Y-101929500D01*
X102910935Y-101965994D01*
X102910932Y-101965995D01*
X102910931Y-101965996D01*
X102885974Y-101982035D01*
X102801950Y-102036033D01*
X102717118Y-102133937D01*
X102717117Y-102133938D01*
X102663302Y-102251774D01*
X102644867Y-102380000D01*
X99141980Y-102380000D01*
X99198049Y-102343967D01*
X99282882Y-102246063D01*
X99336697Y-102128226D01*
X99355133Y-102000000D01*
X99336697Y-101871774D01*
X99282882Y-101753937D01*
X99198049Y-101656033D01*
X99089069Y-101585996D01*
X99089065Y-101585994D01*
X99089064Y-101585994D01*
X98964774Y-101549500D01*
X98964772Y-101549500D01*
X98835228Y-101549500D01*
X98835226Y-101549500D01*
X98710935Y-101585994D01*
X98710932Y-101585995D01*
X98710931Y-101585996D01*
X98689925Y-101599496D01*
X98601950Y-101656033D01*
X98517118Y-101753937D01*
X98517117Y-101753938D01*
X98463302Y-101871774D01*
X98444867Y-102000000D01*
X71894104Y-102000000D01*
X71201819Y-101307715D01*
X71168334Y-101246392D01*
X71165500Y-101220034D01*
X71165500Y-100483092D01*
X71166762Y-100465445D01*
X71169203Y-100448465D01*
X71170133Y-100442000D01*
X71166762Y-100418552D01*
X71165500Y-100400906D01*
X71165500Y-98852000D01*
X71739867Y-98852000D01*
X71758302Y-98980225D01*
X71780590Y-99029027D01*
X71812118Y-99098063D01*
X71896951Y-99195967D01*
X72005931Y-99266004D01*
X72036876Y-99275090D01*
X72130225Y-99302499D01*
X72130227Y-99302500D01*
X72130228Y-99302500D01*
X72259773Y-99302500D01*
X72259773Y-99302499D01*
X72384069Y-99266004D01*
X72493049Y-99195967D01*
X72577882Y-99098063D01*
X72631697Y-98980226D01*
X72650133Y-98852000D01*
X72631697Y-98723774D01*
X72577882Y-98605937D01*
X72493049Y-98508033D01*
X72384069Y-98437996D01*
X72384065Y-98437994D01*
X72384064Y-98437994D01*
X72259774Y-98401500D01*
X72259772Y-98401500D01*
X72130228Y-98401500D01*
X72130226Y-98401500D01*
X72005935Y-98437994D01*
X72005932Y-98437995D01*
X72005931Y-98437996D01*
X71954677Y-98470934D01*
X71896950Y-98508033D01*
X71812118Y-98605937D01*
X71812117Y-98605938D01*
X71758302Y-98723774D01*
X71739867Y-98852000D01*
X71165500Y-98852000D01*
X71165500Y-96312000D01*
X71739867Y-96312000D01*
X71758302Y-96440225D01*
X71812117Y-96558061D01*
X71812118Y-96558063D01*
X71896951Y-96655967D01*
X72005931Y-96726004D01*
X72113673Y-96757639D01*
X72130225Y-96762499D01*
X72130227Y-96762500D01*
X72130228Y-96762500D01*
X72259773Y-96762500D01*
X72259773Y-96762499D01*
X72384069Y-96726004D01*
X72493049Y-96655967D01*
X72577882Y-96558063D01*
X72631697Y-96440226D01*
X72650133Y-96312000D01*
X72631697Y-96183774D01*
X72577882Y-96065937D01*
X72493049Y-95968033D01*
X72384069Y-95897996D01*
X72384065Y-95897994D01*
X72384064Y-95897994D01*
X72259774Y-95861500D01*
X72259772Y-95861500D01*
X72130228Y-95861500D01*
X72130226Y-95861500D01*
X72005935Y-95897994D01*
X72005932Y-95897995D01*
X72005931Y-95897996D01*
X71954677Y-95930934D01*
X71896950Y-95968033D01*
X71812118Y-96065937D01*
X71812117Y-96065938D01*
X71758302Y-96183774D01*
X71739867Y-96312000D01*
X71165500Y-96312000D01*
X71165500Y-93772000D01*
X71739867Y-93772000D01*
X71758302Y-93900225D01*
X71812117Y-94018061D01*
X71812118Y-94018063D01*
X71896951Y-94115967D01*
X72005931Y-94186004D01*
X72130225Y-94222499D01*
X72130227Y-94222500D01*
X72130228Y-94222500D01*
X72259773Y-94222500D01*
X72259773Y-94222499D01*
X72384069Y-94186004D01*
X72493049Y-94115967D01*
X72577882Y-94018063D01*
X72631697Y-93900226D01*
X72650133Y-93772000D01*
X72631697Y-93643774D01*
X72577882Y-93525937D01*
X72493049Y-93428033D01*
X72384069Y-93357996D01*
X72384065Y-93357994D01*
X72384064Y-93357994D01*
X72259774Y-93321500D01*
X72259772Y-93321500D01*
X72130228Y-93321500D01*
X72130226Y-93321500D01*
X72005935Y-93357994D01*
X72005932Y-93357995D01*
X72005931Y-93357996D01*
X71954677Y-93390934D01*
X71896950Y-93428033D01*
X71812118Y-93525937D01*
X71812117Y-93525938D01*
X71758302Y-93643774D01*
X71739867Y-93772000D01*
X71165500Y-93772000D01*
X71165500Y-91232000D01*
X71739867Y-91232000D01*
X71758302Y-91360225D01*
X71812117Y-91478061D01*
X71812118Y-91478063D01*
X71896951Y-91575967D01*
X72005931Y-91646004D01*
X72130225Y-91682499D01*
X72130227Y-91682500D01*
X72130228Y-91682500D01*
X72259773Y-91682500D01*
X72259773Y-91682499D01*
X72384069Y-91646004D01*
X72493049Y-91575967D01*
X72577882Y-91478063D01*
X72631697Y-91360226D01*
X72650133Y-91232000D01*
X72631697Y-91103774D01*
X72577882Y-90985937D01*
X72493049Y-90888033D01*
X72384069Y-90817996D01*
X72384065Y-90817994D01*
X72384064Y-90817994D01*
X72259774Y-90781500D01*
X72259772Y-90781500D01*
X72130228Y-90781500D01*
X72130226Y-90781500D01*
X72005935Y-90817994D01*
X72005932Y-90817995D01*
X72005931Y-90817996D01*
X71954677Y-90850934D01*
X71896950Y-90888033D01*
X71812118Y-90985937D01*
X71812117Y-90985938D01*
X71758302Y-91103774D01*
X71739867Y-91232000D01*
X71165500Y-91232000D01*
X71165500Y-89548000D01*
X71744867Y-89548000D01*
X71763302Y-89676225D01*
X71817117Y-89794061D01*
X71817118Y-89794063D01*
X71901951Y-89891967D01*
X72010931Y-89962004D01*
X72135225Y-89998499D01*
X72135227Y-89998500D01*
X72135228Y-89998500D01*
X72264773Y-89998500D01*
X72264773Y-89998499D01*
X72389069Y-89962004D01*
X72498049Y-89891967D01*
X72582882Y-89794063D01*
X72636697Y-89676226D01*
X72655133Y-89548000D01*
X72636697Y-89419774D01*
X72582882Y-89301937D01*
X72498049Y-89204033D01*
X72389069Y-89133996D01*
X72389065Y-89133994D01*
X72389064Y-89133994D01*
X72264774Y-89097500D01*
X72264772Y-89097500D01*
X72135228Y-89097500D01*
X72135226Y-89097500D01*
X72010935Y-89133994D01*
X72010932Y-89133995D01*
X72010931Y-89133996D01*
X71959677Y-89166934D01*
X71901950Y-89204033D01*
X71817118Y-89301937D01*
X71817117Y-89301938D01*
X71763302Y-89419774D01*
X71744867Y-89548000D01*
X71165500Y-89548000D01*
X71165500Y-85555000D01*
X71783867Y-85555000D01*
X71802302Y-85683225D01*
X71856117Y-85801061D01*
X71856118Y-85801063D01*
X71940951Y-85898967D01*
X72049931Y-85969004D01*
X72174225Y-86005499D01*
X72174227Y-86005500D01*
X72174228Y-86005500D01*
X72303773Y-86005500D01*
X72303773Y-86005499D01*
X72428069Y-85969004D01*
X72537049Y-85898967D01*
X72621882Y-85801063D01*
X72675697Y-85683226D01*
X72694133Y-85555000D01*
X72675697Y-85426774D01*
X72621882Y-85308937D01*
X72537049Y-85211033D01*
X72428069Y-85140996D01*
X72428065Y-85140994D01*
X72428064Y-85140994D01*
X72303774Y-85104500D01*
X72303772Y-85104500D01*
X72174228Y-85104500D01*
X72174226Y-85104500D01*
X72049935Y-85140994D01*
X72049932Y-85140995D01*
X72049931Y-85140996D01*
X71998677Y-85173934D01*
X71940950Y-85211033D01*
X71856118Y-85308937D01*
X71856117Y-85308938D01*
X71802302Y-85426774D01*
X71783867Y-85555000D01*
X71165500Y-85555000D01*
X71165500Y-83941092D01*
X71166762Y-83923445D01*
X71170133Y-83899999D01*
X71166762Y-83876552D01*
X71165500Y-83858906D01*
X71165500Y-83852000D01*
X71739867Y-83852000D01*
X71758302Y-83980225D01*
X71812117Y-84098061D01*
X71812118Y-84098063D01*
X71896951Y-84195967D01*
X72005931Y-84266004D01*
X72130225Y-84302499D01*
X72130227Y-84302500D01*
X72130228Y-84302500D01*
X72259773Y-84302500D01*
X72259773Y-84302499D01*
X72384069Y-84266004D01*
X72493049Y-84195967D01*
X72577882Y-84098063D01*
X72631697Y-83980226D01*
X72650133Y-83852000D01*
X72631697Y-83723774D01*
X72577882Y-83605937D01*
X72493049Y-83508033D01*
X72384069Y-83437996D01*
X72384065Y-83437994D01*
X72384064Y-83437994D01*
X72259774Y-83401500D01*
X72259772Y-83401500D01*
X72130228Y-83401500D01*
X72130226Y-83401500D01*
X72005935Y-83437994D01*
X72005932Y-83437995D01*
X72005931Y-83437996D01*
X71954677Y-83470934D01*
X71896950Y-83508033D01*
X71812118Y-83605937D01*
X71812117Y-83605938D01*
X71758302Y-83723774D01*
X71739867Y-83852000D01*
X71165500Y-83852000D01*
X71165500Y-81312000D01*
X71739867Y-81312000D01*
X71758302Y-81440225D01*
X71812117Y-81558061D01*
X71812118Y-81558063D01*
X71896951Y-81655967D01*
X72005931Y-81726004D01*
X72130225Y-81762499D01*
X72130227Y-81762500D01*
X72130228Y-81762500D01*
X72133811Y-81762500D01*
X72137249Y-81763509D01*
X72139005Y-81763762D01*
X72138968Y-81764014D01*
X72200850Y-81782185D01*
X72221492Y-81798819D01*
X73020181Y-82597508D01*
X73053666Y-82658831D01*
X73056500Y-82685189D01*
X73056500Y-97436852D01*
X73078682Y-97519640D01*
X73100108Y-97556750D01*
X73121535Y-97593862D01*
X73121537Y-97593864D01*
X76962555Y-101434882D01*
X76996040Y-101496205D01*
X76997612Y-101504916D01*
X77009302Y-101586222D01*
X77009303Y-101586227D01*
X77040483Y-101654500D01*
X77063118Y-101704063D01*
X77147951Y-101801967D01*
X77256931Y-101872004D01*
X77381225Y-101908499D01*
X77381227Y-101908500D01*
X77381228Y-101908500D01*
X77510773Y-101908500D01*
X77510773Y-101908499D01*
X77635069Y-101872004D01*
X77744049Y-101801967D01*
X77828882Y-101704063D01*
X77882697Y-101586226D01*
X77901133Y-101458000D01*
X77882697Y-101329774D01*
X77828882Y-101211937D01*
X77744049Y-101114033D01*
X77635069Y-101043996D01*
X77635065Y-101043994D01*
X77635064Y-101043994D01*
X77510774Y-101007500D01*
X77510772Y-101007500D01*
X77507189Y-101007500D01*
X77503750Y-101006490D01*
X77501995Y-101006238D01*
X77502031Y-101005985D01*
X77440150Y-100987815D01*
X77419508Y-100971181D01*
X73743819Y-97295492D01*
X73710334Y-97234169D01*
X73707500Y-97207811D01*
X73707500Y-82456149D01*
X73707500Y-82456147D01*
X73685318Y-82373362D01*
X73685314Y-82373355D01*
X73642469Y-82299144D01*
X73642463Y-82299136D01*
X72678443Y-81335116D01*
X72644958Y-81273793D01*
X72643386Y-81265080D01*
X72631698Y-81183779D01*
X72631697Y-81183777D01*
X72631697Y-81183774D01*
X72581340Y-81073508D01*
X72577884Y-81065940D01*
X72577882Y-81065938D01*
X72577882Y-81065937D01*
X72493049Y-80968033D01*
X72384069Y-80897996D01*
X72384065Y-80897994D01*
X72384064Y-80897994D01*
X72259774Y-80861500D01*
X72259772Y-80861500D01*
X72130228Y-80861500D01*
X72130226Y-80861500D01*
X72005935Y-80897994D01*
X72005932Y-80897995D01*
X72005931Y-80897996D01*
X71954677Y-80930934D01*
X71896950Y-80968033D01*
X71812118Y-81065937D01*
X71812117Y-81065938D01*
X71758302Y-81183774D01*
X71739867Y-81312000D01*
X71165500Y-81312000D01*
X71165500Y-76232000D01*
X71739867Y-76232000D01*
X71758302Y-76360225D01*
X71779155Y-76405885D01*
X71812118Y-76478063D01*
X71896951Y-76575967D01*
X72005931Y-76646004D01*
X72130225Y-76682499D01*
X72130227Y-76682500D01*
X72130228Y-76682500D01*
X72133811Y-76682500D01*
X72137249Y-76683509D01*
X72139005Y-76683762D01*
X72138968Y-76684014D01*
X72200850Y-76702185D01*
X72221492Y-76718819D01*
X74544181Y-79041508D01*
X74577666Y-79102831D01*
X74580500Y-79129189D01*
X74580500Y-80397811D01*
X74560815Y-80464850D01*
X74508011Y-80510605D01*
X74438853Y-80520549D01*
X74375297Y-80491524D01*
X74368819Y-80485492D01*
X72678443Y-78795116D01*
X72644958Y-78733793D01*
X72643386Y-78725080D01*
X72631698Y-78643779D01*
X72631697Y-78643777D01*
X72631697Y-78643774D01*
X72607063Y-78589833D01*
X72577884Y-78525940D01*
X72577882Y-78525938D01*
X72577882Y-78525937D01*
X72493049Y-78428033D01*
X72384069Y-78357996D01*
X72384065Y-78357994D01*
X72384064Y-78357994D01*
X72259774Y-78321500D01*
X72259772Y-78321500D01*
X72130228Y-78321500D01*
X72130226Y-78321500D01*
X72005935Y-78357994D01*
X72005932Y-78357995D01*
X72005931Y-78357996D01*
X71957742Y-78388965D01*
X71896950Y-78428033D01*
X71812118Y-78525937D01*
X71812117Y-78525938D01*
X71758302Y-78643774D01*
X71739867Y-78772000D01*
X71758302Y-78900225D01*
X71812117Y-79018061D01*
X71812118Y-79018063D01*
X71896951Y-79115967D01*
X72005931Y-79186004D01*
X72130225Y-79222499D01*
X72130227Y-79222500D01*
X72130228Y-79222500D01*
X72133811Y-79222500D01*
X72137249Y-79223509D01*
X72139005Y-79223762D01*
X72138968Y-79224014D01*
X72200850Y-79242185D01*
X72221492Y-79258819D01*
X74036181Y-81073508D01*
X74069666Y-81134831D01*
X74072500Y-81161189D01*
X74072500Y-96674852D01*
X74094682Y-96757640D01*
X74116108Y-96794750D01*
X74137535Y-96831862D01*
X74137536Y-96831863D01*
X74137537Y-96831864D01*
X78740555Y-101434881D01*
X78774040Y-101496204D01*
X78775612Y-101504915D01*
X78787302Y-101586225D01*
X78818483Y-101654500D01*
X78841118Y-101704063D01*
X78925951Y-101801967D01*
X79034931Y-101872004D01*
X79159225Y-101908499D01*
X79159227Y-101908500D01*
X79159228Y-101908500D01*
X79288773Y-101908500D01*
X79288773Y-101908499D01*
X79413069Y-101872004D01*
X79522049Y-101801967D01*
X79606882Y-101704063D01*
X79660697Y-101586226D01*
X79679133Y-101458000D01*
X79660697Y-101329774D01*
X79606882Y-101211937D01*
X79522049Y-101114033D01*
X79413069Y-101043996D01*
X79413065Y-101043994D01*
X79413064Y-101043994D01*
X79288774Y-101007500D01*
X79288772Y-101007500D01*
X79285188Y-101007500D01*
X79281748Y-101006490D01*
X79279995Y-101006238D01*
X79280031Y-101005985D01*
X79218149Y-100987815D01*
X79197507Y-100971181D01*
X74759819Y-96533492D01*
X74726334Y-96472169D01*
X74723500Y-96445811D01*
X74723500Y-95685189D01*
X74743185Y-95618150D01*
X74795989Y-95572395D01*
X74865147Y-95562451D01*
X74928703Y-95591476D01*
X74935181Y-95597508D01*
X79786138Y-100448465D01*
X79860361Y-100491318D01*
X79943147Y-100513500D01*
X80638806Y-100513500D01*
X80705844Y-100533183D01*
X80812931Y-100602004D01*
X80937225Y-100638499D01*
X80937227Y-100638500D01*
X80937228Y-100638500D01*
X81066773Y-100638500D01*
X81066773Y-100638499D01*
X81191069Y-100602004D01*
X81300049Y-100531967D01*
X81384882Y-100434063D01*
X81438697Y-100316226D01*
X81457133Y-100188000D01*
X81438697Y-100059774D01*
X81384882Y-99941937D01*
X81300049Y-99844033D01*
X81191069Y-99773996D01*
X81191065Y-99773994D01*
X81191064Y-99773994D01*
X81066774Y-99737500D01*
X81066772Y-99737500D01*
X80937228Y-99737500D01*
X80937226Y-99737500D01*
X80812935Y-99773994D01*
X80812932Y-99773995D01*
X80812931Y-99773996D01*
X80705845Y-99842816D01*
X80638806Y-99862500D01*
X80172189Y-99862500D01*
X80105150Y-99842815D01*
X80084508Y-99826181D01*
X75267819Y-95009492D01*
X75234334Y-94948169D01*
X75231500Y-94921811D01*
X75231500Y-78900149D01*
X75231500Y-78900147D01*
X75209318Y-78817362D01*
X75209318Y-78817361D01*
X75166465Y-78743138D01*
X72678443Y-76255116D01*
X72644958Y-76193793D01*
X72643386Y-76185080D01*
X72643374Y-76185000D01*
X72634848Y-76125691D01*
X72631698Y-76103779D01*
X72631697Y-76103777D01*
X72631697Y-76103774D01*
X72620088Y-76078354D01*
X72577884Y-75985940D01*
X72577882Y-75985938D01*
X72577882Y-75985937D01*
X72493049Y-75888033D01*
X72384069Y-75817996D01*
X72384065Y-75817994D01*
X72384064Y-75817994D01*
X72259774Y-75781500D01*
X72259772Y-75781500D01*
X72130228Y-75781500D01*
X72130226Y-75781500D01*
X72005935Y-75817994D01*
X72005932Y-75817995D01*
X72005931Y-75817996D01*
X71954677Y-75850934D01*
X71896950Y-75888033D01*
X71812118Y-75985937D01*
X71812117Y-75985938D01*
X71758302Y-76103774D01*
X71739867Y-76232000D01*
X71165500Y-76232000D01*
X71165500Y-73900000D01*
X83144867Y-73900000D01*
X83163302Y-74028225D01*
X83217117Y-74146061D01*
X83217118Y-74146063D01*
X83301951Y-74243967D01*
X83410931Y-74314004D01*
X83535225Y-74350499D01*
X83535227Y-74350500D01*
X83535228Y-74350500D01*
X83664773Y-74350500D01*
X83664773Y-74350499D01*
X83789069Y-74314004D01*
X83898049Y-74243967D01*
X83982882Y-74146063D01*
X84036697Y-74028226D01*
X84055133Y-73900000D01*
X84036697Y-73771774D01*
X83982882Y-73653937D01*
X83898049Y-73556033D01*
X83789069Y-73485996D01*
X83789065Y-73485994D01*
X83789064Y-73485994D01*
X83664774Y-73449500D01*
X83664772Y-73449500D01*
X83535228Y-73449500D01*
X83535226Y-73449500D01*
X83410935Y-73485994D01*
X83410932Y-73485995D01*
X83410931Y-73485996D01*
X83373482Y-73510063D01*
X83301950Y-73556033D01*
X83217118Y-73653937D01*
X83217117Y-73653938D01*
X83163302Y-73771774D01*
X83144867Y-73900000D01*
X71165500Y-73900000D01*
X71165500Y-71342965D01*
X71185185Y-71275926D01*
X71201819Y-71255284D01*
X73188819Y-69268284D01*
X73250142Y-69234799D01*
X73319834Y-69239783D01*
X73364181Y-69268284D01*
X73530181Y-69434284D01*
X73563666Y-69495607D01*
X73566500Y-69521965D01*
X73566500Y-72841906D01*
X73565238Y-72859552D01*
X73561867Y-72882999D01*
X73565238Y-72906445D01*
X73566500Y-72924092D01*
X73566500Y-72942310D01*
X73572991Y-72966537D01*
X73575952Y-72980976D01*
X73580301Y-73011222D01*
X73580302Y-73011224D01*
X73587286Y-73026518D01*
X73594264Y-73045927D01*
X73594267Y-73045940D01*
X73597201Y-73056886D01*
X73613170Y-73084545D01*
X73618574Y-73095027D01*
X73634118Y-73129063D01*
X73640612Y-73136558D01*
X73654291Y-73155767D01*
X73656510Y-73159612D01*
X73683920Y-73187022D01*
X73689952Y-73193500D01*
X73718951Y-73226967D01*
X73721485Y-73228595D01*
X73733897Y-73238598D01*
X73733941Y-73238542D01*
X73740381Y-73243483D01*
X73740387Y-73243489D01*
X73775913Y-73264000D01*
X73779878Y-73266289D01*
X73784918Y-73269361D01*
X73827930Y-73297004D01*
X73829226Y-73297595D01*
X73838171Y-73300751D01*
X73843107Y-73302795D01*
X73843114Y-73302799D01*
X73891940Y-73315881D01*
X73893778Y-73316374D01*
X73896580Y-73317160D01*
X73952228Y-73333500D01*
X74081772Y-73333500D01*
X74137426Y-73317157D01*
X74140243Y-73316368D01*
X74190886Y-73302799D01*
X74190892Y-73302795D01*
X74195821Y-73300754D01*
X74204768Y-73297597D01*
X74206062Y-73297005D01*
X74206069Y-73297004D01*
X74249114Y-73269339D01*
X74254086Y-73266309D01*
X74293613Y-73243489D01*
X74293618Y-73243483D01*
X74300068Y-73238536D01*
X74300111Y-73238593D01*
X74312525Y-73228588D01*
X74315049Y-73226967D01*
X74321085Y-73220000D01*
X175796867Y-73220000D01*
X175815302Y-73348225D01*
X175816387Y-73350600D01*
X175869118Y-73466063D01*
X175953951Y-73563967D01*
X176062931Y-73634004D01*
X176175843Y-73667157D01*
X176187225Y-73670499D01*
X176187227Y-73670500D01*
X176187228Y-73670500D01*
X176316773Y-73670500D01*
X176316773Y-73670499D01*
X176441069Y-73634004D01*
X176550049Y-73563967D01*
X176634882Y-73466063D01*
X176688697Y-73348226D01*
X176707133Y-73220000D01*
X176688697Y-73091774D01*
X176634882Y-72973937D01*
X176550049Y-72876033D01*
X176441069Y-72805996D01*
X176441065Y-72805994D01*
X176441064Y-72805994D01*
X176316774Y-72769500D01*
X176316772Y-72769500D01*
X176187228Y-72769500D01*
X176187226Y-72769500D01*
X176062935Y-72805994D01*
X176062932Y-72805995D01*
X176062931Y-72805996D01*
X176051255Y-72813500D01*
X175953950Y-72876033D01*
X175869118Y-72973937D01*
X175869117Y-72973938D01*
X175815302Y-73091774D01*
X175796867Y-73220000D01*
X74321085Y-73220000D01*
X74344054Y-73193491D01*
X74350060Y-73187040D01*
X74377489Y-73159613D01*
X74379708Y-73155767D01*
X74393391Y-73136553D01*
X74399882Y-73129063D01*
X74415428Y-73095018D01*
X74420822Y-73084555D01*
X74436799Y-73056886D01*
X74439734Y-73045931D01*
X74446715Y-73026513D01*
X74453697Y-73011226D01*
X74453697Y-73011224D01*
X74453698Y-73011224D01*
X74458044Y-72980987D01*
X74461007Y-72966537D01*
X74467500Y-72942309D01*
X74467500Y-72924092D01*
X74468762Y-72906445D01*
X74472133Y-72882999D01*
X74468762Y-72859552D01*
X74467500Y-72841906D01*
X74467500Y-72620000D01*
X171732867Y-72620000D01*
X171751302Y-72748225D01*
X171802144Y-72859552D01*
X171805118Y-72866063D01*
X171889951Y-72963967D01*
X171998931Y-73034004D01*
X172076862Y-73056886D01*
X172123225Y-73070499D01*
X172123227Y-73070500D01*
X172123228Y-73070500D01*
X172252773Y-73070500D01*
X172252773Y-73070499D01*
X172377069Y-73034004D01*
X172486049Y-72963967D01*
X172570882Y-72866063D01*
X172624697Y-72748226D01*
X172643133Y-72620000D01*
X172624697Y-72491774D01*
X172570882Y-72373937D01*
X172486049Y-72276033D01*
X172377069Y-72205996D01*
X172377065Y-72205994D01*
X172377064Y-72205994D01*
X172252774Y-72169500D01*
X172252772Y-72169500D01*
X172123228Y-72169500D01*
X172123226Y-72169500D01*
X171998935Y-72205994D01*
X171998932Y-72205995D01*
X171998931Y-72205996D01*
X171947677Y-72238934D01*
X171889950Y-72276033D01*
X171805118Y-72373937D01*
X171805117Y-72373938D01*
X171751302Y-72491774D01*
X171732867Y-72620000D01*
X74467500Y-72620000D01*
X74467500Y-71900000D01*
X177828867Y-71900000D01*
X177847302Y-72028225D01*
X177901117Y-72146061D01*
X177901118Y-72146063D01*
X177985951Y-72243967D01*
X178094931Y-72314004D01*
X178219225Y-72350499D01*
X178219227Y-72350500D01*
X178219228Y-72350500D01*
X178348773Y-72350500D01*
X178348773Y-72350499D01*
X178473069Y-72314004D01*
X178582049Y-72243967D01*
X178666882Y-72146063D01*
X178720697Y-72028226D01*
X178739133Y-71900000D01*
X178720697Y-71771774D01*
X178666882Y-71653937D01*
X178582049Y-71556033D01*
X178473075Y-71486000D01*
X202466867Y-71486000D01*
X202485302Y-71614225D01*
X202516483Y-71682500D01*
X202539118Y-71732063D01*
X202623951Y-71829967D01*
X202732931Y-71900004D01*
X202857225Y-71936499D01*
X202857227Y-71936500D01*
X202857228Y-71936500D01*
X202986773Y-71936500D01*
X202986773Y-71936499D01*
X203111069Y-71900004D01*
X203220049Y-71829967D01*
X203304882Y-71732063D01*
X203358697Y-71614226D01*
X203377133Y-71486000D01*
X203358697Y-71357774D01*
X203304882Y-71239937D01*
X203220049Y-71142033D01*
X203111069Y-71071996D01*
X203111065Y-71071994D01*
X203111064Y-71071994D01*
X202986774Y-71035500D01*
X202986772Y-71035500D01*
X202857228Y-71035500D01*
X202857226Y-71035500D01*
X202732935Y-71071994D01*
X202732932Y-71071995D01*
X202732931Y-71071996D01*
X202689356Y-71100000D01*
X202623950Y-71142033D01*
X202539118Y-71239937D01*
X202539117Y-71239938D01*
X202485302Y-71357774D01*
X202466867Y-71486000D01*
X178473075Y-71486000D01*
X178473069Y-71485996D01*
X178473065Y-71485994D01*
X178473064Y-71485994D01*
X178348774Y-71449500D01*
X178348772Y-71449500D01*
X178219228Y-71449500D01*
X178219226Y-71449500D01*
X178094935Y-71485994D01*
X178094932Y-71485995D01*
X178094931Y-71485996D01*
X178051350Y-71514004D01*
X177985950Y-71556033D01*
X177901118Y-71653937D01*
X177901117Y-71653938D01*
X177847302Y-71771774D01*
X177828867Y-71900000D01*
X74467500Y-71900000D01*
X74467500Y-71232000D01*
X81562867Y-71232000D01*
X81581302Y-71360225D01*
X81635117Y-71478061D01*
X81635118Y-71478063D01*
X81719951Y-71575967D01*
X81828931Y-71646004D01*
X81953225Y-71682499D01*
X81953227Y-71682500D01*
X81953228Y-71682500D01*
X82082773Y-71682500D01*
X82082773Y-71682499D01*
X82207069Y-71646004D01*
X82316049Y-71575967D01*
X82400882Y-71478063D01*
X82454697Y-71360226D01*
X82473133Y-71232000D01*
X82454697Y-71103774D01*
X82452973Y-71100000D01*
X173764867Y-71100000D01*
X173783302Y-71228225D01*
X173835703Y-71342965D01*
X173837118Y-71346063D01*
X173921951Y-71443967D01*
X174030931Y-71514004D01*
X174155225Y-71550499D01*
X174155227Y-71550500D01*
X174155228Y-71550500D01*
X174284773Y-71550500D01*
X174284773Y-71550499D01*
X174409069Y-71514004D01*
X174518049Y-71443967D01*
X174602882Y-71346063D01*
X174656697Y-71228226D01*
X174675133Y-71100000D01*
X174656697Y-70971774D01*
X174602882Y-70853937D01*
X174518049Y-70756033D01*
X174409069Y-70685996D01*
X174409065Y-70685994D01*
X174409064Y-70685994D01*
X174284774Y-70649500D01*
X174284772Y-70649500D01*
X174155228Y-70649500D01*
X174155226Y-70649500D01*
X174030935Y-70685994D01*
X174030932Y-70685995D01*
X174030931Y-70685996D01*
X173979677Y-70718934D01*
X173921950Y-70756033D01*
X173837118Y-70853937D01*
X173837117Y-70853938D01*
X173783302Y-70971774D01*
X173764867Y-71100000D01*
X82452973Y-71100000D01*
X82400882Y-70985937D01*
X82316049Y-70888033D01*
X82207069Y-70817996D01*
X82207065Y-70817994D01*
X82207064Y-70817994D01*
X82082774Y-70781500D01*
X82082772Y-70781500D01*
X81953228Y-70781500D01*
X81953226Y-70781500D01*
X81828935Y-70817994D01*
X81828932Y-70817995D01*
X81828931Y-70817996D01*
X81777677Y-70850934D01*
X81719950Y-70888033D01*
X81635118Y-70985937D01*
X81635117Y-70985938D01*
X81581302Y-71103774D01*
X81562867Y-71232000D01*
X74467500Y-71232000D01*
X74467500Y-69224693D01*
X74467500Y-69224691D01*
X74436799Y-69110114D01*
X74436799Y-69110113D01*
X74377489Y-69007386D01*
X73609573Y-68239470D01*
X73603540Y-68232991D01*
X73574550Y-68199534D01*
X73574548Y-68199532D01*
X73572011Y-68197902D01*
X73559602Y-68187902D01*
X73559560Y-68187958D01*
X73553117Y-68183014D01*
X73553114Y-68183011D01*
X73513603Y-68160199D01*
X73508578Y-68157136D01*
X73465570Y-68129496D01*
X73464264Y-68128900D01*
X73455343Y-68125753D01*
X73450392Y-68123702D01*
X73399733Y-68110127D01*
X73396899Y-68109331D01*
X73341274Y-68093000D01*
X73341272Y-68093000D01*
X73211728Y-68093000D01*
X73186737Y-68100337D01*
X73156082Y-68109337D01*
X73153248Y-68110132D01*
X73102611Y-68123700D01*
X73097646Y-68125757D01*
X73088730Y-68128902D01*
X73087433Y-68129494D01*
X73044430Y-68157130D01*
X73039395Y-68160199D01*
X72999887Y-68183009D01*
X72993441Y-68187956D01*
X72993399Y-68187901D01*
X72980994Y-68197897D01*
X72978455Y-68199528D01*
X72978453Y-68199530D01*
X72949465Y-68232984D01*
X72943434Y-68239461D01*
X70354513Y-70828383D01*
X70354509Y-70828389D01*
X70295201Y-70931112D01*
X70295200Y-70931117D01*
X70264500Y-71045691D01*
X70264500Y-83858906D01*
X70263238Y-83876552D01*
X70259867Y-83899999D01*
X69514500Y-83899999D01*
X69514500Y-78091693D01*
X69514500Y-78091691D01*
X69483799Y-77977114D01*
X69483799Y-77977113D01*
X69483799Y-77977112D01*
X69424492Y-77874389D01*
X69424488Y-77874384D01*
X67631819Y-76081715D01*
X67598334Y-76020392D01*
X67595500Y-75994034D01*
X67595500Y-67930000D01*
X84171867Y-67930000D01*
X84190302Y-68058225D01*
X84221447Y-68126422D01*
X84244118Y-68176063D01*
X84328951Y-68273967D01*
X84437931Y-68344004D01*
X84532649Y-68371815D01*
X84562225Y-68380499D01*
X84562227Y-68380500D01*
X84562228Y-68380500D01*
X84691773Y-68380500D01*
X84691773Y-68380499D01*
X84816069Y-68344004D01*
X84925049Y-68273967D01*
X85009882Y-68176063D01*
X85063697Y-68058226D01*
X85081324Y-67935621D01*
X85110349Y-67872067D01*
X85116352Y-67865617D01*
X85350153Y-67631816D01*
X85411475Y-67598334D01*
X85437833Y-67595500D01*
X86880167Y-67595500D01*
X86947206Y-67615185D01*
X86992961Y-67667989D01*
X87002905Y-67737147D01*
X86973880Y-67800703D01*
X86967848Y-67807181D01*
X86921848Y-67853181D01*
X86860525Y-67886666D01*
X86834167Y-67889500D01*
X86795226Y-67889500D01*
X86670935Y-67925994D01*
X86670932Y-67925995D01*
X86670931Y-67925996D01*
X86639753Y-67946033D01*
X86561950Y-67996033D01*
X86477118Y-68093937D01*
X86477117Y-68093938D01*
X86423302Y-68211774D01*
X86404867Y-68340000D01*
X86423302Y-68468225D01*
X86454283Y-68536062D01*
X86477118Y-68586063D01*
X86561951Y-68683967D01*
X86670931Y-68754004D01*
X86748634Y-68776819D01*
X86795225Y-68790499D01*
X86795227Y-68790500D01*
X86795228Y-68790500D01*
X86924773Y-68790500D01*
X86924773Y-68790499D01*
X87049069Y-68754004D01*
X87158049Y-68683967D01*
X87242882Y-68586063D01*
X87296697Y-68468226D01*
X87314324Y-68345621D01*
X87343349Y-68282067D01*
X87349352Y-68275617D01*
X87593153Y-68031816D01*
X87654475Y-67998334D01*
X87680833Y-67995500D01*
X96419167Y-67995500D01*
X96486206Y-68015185D01*
X96506848Y-68031819D01*
X96700618Y-68225589D01*
X96734103Y-68286912D01*
X96735675Y-68295623D01*
X96753302Y-68418225D01*
X96807117Y-68536061D01*
X96807118Y-68536063D01*
X96891951Y-68633967D01*
X97000931Y-68704004D01*
X97125225Y-68740499D01*
X97125227Y-68740500D01*
X97125228Y-68740500D01*
X97164167Y-68740500D01*
X97231206Y-68760185D01*
X97251848Y-68776819D01*
X97351540Y-68876511D01*
X97407489Y-68932460D01*
X97407491Y-68932461D01*
X97407495Y-68932464D01*
X97476004Y-68972017D01*
X97476011Y-68972021D01*
X97552438Y-68992500D01*
X97552440Y-68992500D01*
X110547560Y-68992500D01*
X110547562Y-68992500D01*
X110623989Y-68972021D01*
X110692511Y-68932460D01*
X110748460Y-68876511D01*
X110798152Y-68826819D01*
X110859475Y-68793334D01*
X110885833Y-68790500D01*
X110924773Y-68790500D01*
X110924773Y-68790499D01*
X111049069Y-68754004D01*
X111158049Y-68683967D01*
X111242882Y-68586063D01*
X111296697Y-68468226D01*
X111314324Y-68345621D01*
X111343349Y-68282067D01*
X111349352Y-68275617D01*
X111593153Y-68031816D01*
X111654475Y-67998334D01*
X111680833Y-67995500D01*
X120419167Y-67995500D01*
X120486206Y-68015185D01*
X120506848Y-68031819D01*
X120700618Y-68225589D01*
X120734103Y-68286912D01*
X120735675Y-68295623D01*
X120753302Y-68418225D01*
X120807117Y-68536061D01*
X120807118Y-68536063D01*
X120891951Y-68633967D01*
X121000931Y-68704004D01*
X121125225Y-68740499D01*
X121125227Y-68740500D01*
X121125228Y-68740500D01*
X121164167Y-68740500D01*
X121231206Y-68760185D01*
X121251848Y-68776819D01*
X121351540Y-68876511D01*
X121407489Y-68932460D01*
X121407491Y-68932461D01*
X121407495Y-68932464D01*
X121476004Y-68972017D01*
X121476011Y-68972021D01*
X121552438Y-68992500D01*
X121552440Y-68992500D01*
X134547560Y-68992500D01*
X134547562Y-68992500D01*
X134623989Y-68972021D01*
X134692511Y-68932460D01*
X134748460Y-68876511D01*
X134798152Y-68826819D01*
X134859475Y-68793334D01*
X134885833Y-68790500D01*
X134924773Y-68790500D01*
X134924773Y-68790499D01*
X135049069Y-68754004D01*
X135158049Y-68683967D01*
X135242882Y-68586063D01*
X135296697Y-68468226D01*
X135314324Y-68345621D01*
X135343349Y-68282067D01*
X135349352Y-68275617D01*
X135593153Y-68031816D01*
X135654475Y-67998334D01*
X135680833Y-67995500D01*
X144419167Y-67995500D01*
X144486206Y-68015185D01*
X144506848Y-68031819D01*
X144700618Y-68225589D01*
X144734103Y-68286912D01*
X144735675Y-68295623D01*
X144753302Y-68418225D01*
X144807117Y-68536061D01*
X144807118Y-68536063D01*
X144891951Y-68633967D01*
X145000931Y-68704004D01*
X145125225Y-68740499D01*
X145125227Y-68740500D01*
X145125228Y-68740500D01*
X145164167Y-68740500D01*
X145231206Y-68760185D01*
X145251848Y-68776819D01*
X145351540Y-68876511D01*
X145407489Y-68932460D01*
X145407491Y-68932461D01*
X145407495Y-68932464D01*
X145476004Y-68972017D01*
X145476011Y-68972021D01*
X145552438Y-68992500D01*
X145552440Y-68992500D01*
X158547560Y-68992500D01*
X158547562Y-68992500D01*
X158623989Y-68972021D01*
X158692511Y-68932460D01*
X158748460Y-68876511D01*
X158798152Y-68826819D01*
X158859475Y-68793334D01*
X158885833Y-68790500D01*
X158924773Y-68790500D01*
X158924773Y-68790499D01*
X159049069Y-68754004D01*
X159158049Y-68683967D01*
X159242882Y-68586063D01*
X159296697Y-68468226D01*
X159314324Y-68345621D01*
X159343349Y-68282067D01*
X159349352Y-68275617D01*
X159593153Y-68031816D01*
X159654475Y-67998334D01*
X159680833Y-67995500D01*
X168419167Y-67995500D01*
X168486206Y-68015185D01*
X168506848Y-68031819D01*
X168700618Y-68225589D01*
X168734103Y-68286912D01*
X168735675Y-68295623D01*
X168753302Y-68418225D01*
X168807117Y-68536061D01*
X168807118Y-68536063D01*
X168891951Y-68633967D01*
X169000931Y-68704004D01*
X169125225Y-68740499D01*
X169125227Y-68740500D01*
X169125228Y-68740500D01*
X169164167Y-68740500D01*
X169231206Y-68760185D01*
X169251848Y-68776819D01*
X169351540Y-68876511D01*
X169407489Y-68932460D01*
X169407491Y-68932461D01*
X169407495Y-68932464D01*
X169476004Y-68972017D01*
X169476011Y-68972021D01*
X169552438Y-68992500D01*
X169552440Y-68992500D01*
X182547560Y-68992500D01*
X182547562Y-68992500D01*
X182623989Y-68972021D01*
X182692511Y-68932460D01*
X182748460Y-68876511D01*
X182798152Y-68826819D01*
X182859475Y-68793334D01*
X182885833Y-68790500D01*
X182924773Y-68790500D01*
X182924773Y-68790499D01*
X183049069Y-68754004D01*
X183158049Y-68683967D01*
X183242882Y-68586063D01*
X183296697Y-68468226D01*
X183314324Y-68345621D01*
X183343349Y-68282067D01*
X183349352Y-68275617D01*
X183593153Y-68031816D01*
X183654475Y-67998334D01*
X183680833Y-67995500D01*
X192419167Y-67995500D01*
X192486206Y-68015185D01*
X192506848Y-68031819D01*
X192700618Y-68225589D01*
X192734103Y-68286912D01*
X192735675Y-68295623D01*
X192753302Y-68418225D01*
X192807117Y-68536061D01*
X192807118Y-68536063D01*
X192891951Y-68633967D01*
X193000931Y-68704004D01*
X193125225Y-68740499D01*
X193125227Y-68740500D01*
X193125228Y-68740500D01*
X193254773Y-68740500D01*
X193254773Y-68740499D01*
X193379069Y-68704004D01*
X193488049Y-68633967D01*
X193572882Y-68536063D01*
X193626697Y-68418226D01*
X193645133Y-68290000D01*
X193626697Y-68161774D01*
X193572882Y-68043937D01*
X193488049Y-67946033D01*
X193379069Y-67875996D01*
X193379065Y-67875994D01*
X193379064Y-67875994D01*
X193251290Y-67838477D01*
X193192512Y-67800703D01*
X193163486Y-67737148D01*
X193173429Y-67667989D01*
X193219184Y-67615185D01*
X193286223Y-67595500D01*
X194549167Y-67595500D01*
X194616206Y-67615185D01*
X194636848Y-67631819D01*
X194870618Y-67865589D01*
X194904103Y-67926912D01*
X194905675Y-67935623D01*
X194923302Y-68058225D01*
X194954447Y-68126422D01*
X194977118Y-68176063D01*
X195061951Y-68273967D01*
X195170931Y-68344004D01*
X195265649Y-68371815D01*
X195295225Y-68380499D01*
X195295227Y-68380500D01*
X195295228Y-68380500D01*
X195424773Y-68380500D01*
X195424773Y-68380499D01*
X195549069Y-68344004D01*
X195658049Y-68273967D01*
X195742882Y-68176063D01*
X195796697Y-68058226D01*
X195815133Y-67930000D01*
X195796697Y-67801774D01*
X195742882Y-67683937D01*
X195658049Y-67586033D01*
X195549069Y-67515996D01*
X195549065Y-67515994D01*
X195549064Y-67515994D01*
X195424774Y-67479500D01*
X195424772Y-67479500D01*
X195385833Y-67479500D01*
X195318794Y-67459815D01*
X195298152Y-67443181D01*
X194909512Y-67054541D01*
X194909504Y-67054535D01*
X194840995Y-67014982D01*
X194840990Y-67014979D01*
X194815513Y-67008152D01*
X194764562Y-66994500D01*
X181313562Y-66994500D01*
X181234438Y-66994500D01*
X181158010Y-67014978D01*
X181089489Y-67054540D01*
X181089486Y-67054542D01*
X180700848Y-67443181D01*
X180639525Y-67476666D01*
X180613167Y-67479500D01*
X180574226Y-67479500D01*
X180449935Y-67515994D01*
X180449932Y-67515995D01*
X180449931Y-67515996D01*
X180377277Y-67562687D01*
X180340949Y-67586034D01*
X180340369Y-67586704D01*
X180339620Y-67587184D01*
X180334246Y-67591842D01*
X180333576Y-67591069D01*
X180281591Y-67624477D01*
X180246657Y-67629500D01*
X171749343Y-67629500D01*
X171682304Y-67609815D01*
X171655631Y-67586704D01*
X171655050Y-67586034D01*
X171655049Y-67586033D01*
X171546069Y-67515996D01*
X171546065Y-67515994D01*
X171546064Y-67515994D01*
X171421774Y-67479500D01*
X171421772Y-67479500D01*
X171382833Y-67479500D01*
X171315794Y-67459815D01*
X171295152Y-67443181D01*
X170906512Y-67054541D01*
X170906504Y-67054535D01*
X170837995Y-67014982D01*
X170837990Y-67014979D01*
X170812513Y-67008152D01*
X170761562Y-66994500D01*
X157231438Y-66994500D01*
X157193224Y-67004739D01*
X157155009Y-67014979D01*
X157155004Y-67014982D01*
X157086495Y-67054535D01*
X157086487Y-67054541D01*
X156697848Y-67443181D01*
X156636525Y-67476666D01*
X156610167Y-67479500D01*
X156571226Y-67479500D01*
X156446935Y-67515994D01*
X156446932Y-67515995D01*
X156446931Y-67515996D01*
X156374277Y-67562687D01*
X156337949Y-67586034D01*
X156337369Y-67586704D01*
X156336620Y-67587184D01*
X156331246Y-67591842D01*
X156330576Y-67591069D01*
X156278591Y-67624477D01*
X156243657Y-67629500D01*
X147746343Y-67629500D01*
X147679304Y-67609815D01*
X147652631Y-67586704D01*
X147652050Y-67586034D01*
X147652049Y-67586033D01*
X147543069Y-67515996D01*
X147543065Y-67515994D01*
X147543064Y-67515994D01*
X147418774Y-67479500D01*
X147418772Y-67479500D01*
X147379833Y-67479500D01*
X147312794Y-67459815D01*
X147292152Y-67443181D01*
X146903512Y-67054541D01*
X146903504Y-67054535D01*
X146834995Y-67014982D01*
X146834990Y-67014979D01*
X146809513Y-67008152D01*
X146758562Y-66994500D01*
X133228438Y-66994500D01*
X133190224Y-67004739D01*
X133152009Y-67014979D01*
X133152004Y-67014982D01*
X133083495Y-67054535D01*
X133083487Y-67054541D01*
X132694848Y-67443181D01*
X132633525Y-67476666D01*
X132607167Y-67479500D01*
X132568226Y-67479500D01*
X132443935Y-67515994D01*
X132443932Y-67515995D01*
X132443931Y-67515996D01*
X132371277Y-67562687D01*
X132334949Y-67586034D01*
X132334369Y-67586704D01*
X132333620Y-67587184D01*
X132328246Y-67591842D01*
X132327576Y-67591069D01*
X132275591Y-67624477D01*
X132240657Y-67629500D01*
X123743343Y-67629500D01*
X123676304Y-67609815D01*
X123649631Y-67586704D01*
X123649050Y-67586034D01*
X123649049Y-67586033D01*
X123540069Y-67515996D01*
X123540065Y-67515994D01*
X123540064Y-67515994D01*
X123415774Y-67479500D01*
X123415772Y-67479500D01*
X123376833Y-67479500D01*
X123309794Y-67459815D01*
X123289152Y-67443181D01*
X122900512Y-67054541D01*
X122900504Y-67054535D01*
X122831995Y-67014982D01*
X122831990Y-67014979D01*
X122806513Y-67008152D01*
X122755562Y-66994500D01*
X109225438Y-66994500D01*
X109187224Y-67004739D01*
X109149009Y-67014979D01*
X109149004Y-67014982D01*
X109080495Y-67054535D01*
X109080487Y-67054541D01*
X108691848Y-67443181D01*
X108630525Y-67476666D01*
X108604167Y-67479500D01*
X108565226Y-67479500D01*
X108440935Y-67515994D01*
X108440932Y-67515995D01*
X108440931Y-67515996D01*
X108368277Y-67562687D01*
X108331949Y-67586034D01*
X108331369Y-67586704D01*
X108330620Y-67587184D01*
X108325246Y-67591842D01*
X108324576Y-67591069D01*
X108272591Y-67624477D01*
X108237657Y-67629500D01*
X99740343Y-67629500D01*
X99673304Y-67609815D01*
X99646631Y-67586704D01*
X99646050Y-67586034D01*
X99646049Y-67586033D01*
X99537069Y-67515996D01*
X99537065Y-67515994D01*
X99537064Y-67515994D01*
X99412774Y-67479500D01*
X99412772Y-67479500D01*
X99373833Y-67479500D01*
X99306794Y-67459815D01*
X99286152Y-67443181D01*
X98897512Y-67054541D01*
X98897504Y-67054535D01*
X98828995Y-67014982D01*
X98828990Y-67014979D01*
X98803513Y-67008152D01*
X98752562Y-66994500D01*
X85222438Y-66994500D01*
X85184224Y-67004739D01*
X85146009Y-67014979D01*
X85146004Y-67014982D01*
X85077495Y-67054535D01*
X85077487Y-67054541D01*
X84688848Y-67443181D01*
X84627525Y-67476666D01*
X84601167Y-67479500D01*
X84562226Y-67479500D01*
X84437935Y-67515994D01*
X84437932Y-67515995D01*
X84437931Y-67515996D01*
X84386677Y-67548934D01*
X84328950Y-67586033D01*
X84244118Y-67683937D01*
X84244117Y-67683938D01*
X84190302Y-67801774D01*
X84171867Y-67930000D01*
X67595500Y-67930000D01*
X67595500Y-66938015D01*
X67615185Y-66870976D01*
X67631819Y-66850334D01*
X68058720Y-66423433D01*
X69932489Y-64549664D01*
X69991798Y-64446937D01*
X69991799Y-64446936D01*
X70022500Y-64332359D01*
X70022500Y-60674964D01*
X70042185Y-60607925D01*
X70058814Y-60587288D01*
X70760844Y-59885258D01*
X90249500Y-59885258D01*
X90249500Y-60114741D01*
X90269035Y-60263113D01*
X90279452Y-60342238D01*
X90338842Y-60563887D01*
X90426650Y-60775876D01*
X90426657Y-60775890D01*
X90541392Y-60974617D01*
X90681081Y-61156661D01*
X90681089Y-61156670D01*
X90843330Y-61318911D01*
X90843338Y-61318918D01*
X91025382Y-61458607D01*
X91025385Y-61458608D01*
X91025388Y-61458611D01*
X91224112Y-61573344D01*
X91224117Y-61573346D01*
X91224123Y-61573349D01*
X91315480Y-61611190D01*
X91436113Y-61661158D01*
X91657762Y-61720548D01*
X91885266Y-61750500D01*
X91885273Y-61750500D01*
X92114727Y-61750500D01*
X92114734Y-61750500D01*
X92342238Y-61720548D01*
X92563887Y-61661158D01*
X92775888Y-61573344D01*
X92974612Y-61458611D01*
X93156661Y-61318919D01*
X93156665Y-61318914D01*
X93156670Y-61318911D01*
X93318911Y-61156670D01*
X93318914Y-61156665D01*
X93318919Y-61156661D01*
X93458611Y-60974612D01*
X93573344Y-60775888D01*
X93661158Y-60563887D01*
X93720548Y-60342238D01*
X93750500Y-60114734D01*
X93750500Y-59885266D01*
X93750499Y-59885258D01*
X114249500Y-59885258D01*
X114249500Y-60114741D01*
X114269035Y-60263113D01*
X114279452Y-60342238D01*
X114338842Y-60563887D01*
X114426650Y-60775876D01*
X114426657Y-60775890D01*
X114541392Y-60974617D01*
X114681081Y-61156661D01*
X114681089Y-61156670D01*
X114843330Y-61318911D01*
X114843338Y-61318918D01*
X115025382Y-61458607D01*
X115025385Y-61458608D01*
X115025388Y-61458611D01*
X115224112Y-61573344D01*
X115224117Y-61573346D01*
X115224123Y-61573349D01*
X115315480Y-61611190D01*
X115436113Y-61661158D01*
X115657762Y-61720548D01*
X115885266Y-61750500D01*
X115885273Y-61750500D01*
X116114727Y-61750500D01*
X116114734Y-61750500D01*
X116342238Y-61720548D01*
X116563887Y-61661158D01*
X116775888Y-61573344D01*
X116974612Y-61458611D01*
X117156661Y-61318919D01*
X117156665Y-61318914D01*
X117156670Y-61318911D01*
X117318911Y-61156670D01*
X117318914Y-61156665D01*
X117318919Y-61156661D01*
X117458611Y-60974612D01*
X117573344Y-60775888D01*
X117661158Y-60563887D01*
X117720548Y-60342238D01*
X117750500Y-60114734D01*
X117750500Y-59885266D01*
X117750499Y-59885258D01*
X138249500Y-59885258D01*
X138249500Y-60114741D01*
X138269035Y-60263113D01*
X138279452Y-60342238D01*
X138338842Y-60563887D01*
X138426650Y-60775876D01*
X138426657Y-60775890D01*
X138541392Y-60974617D01*
X138681081Y-61156661D01*
X138681089Y-61156670D01*
X138843330Y-61318911D01*
X138843338Y-61318918D01*
X139025382Y-61458607D01*
X139025385Y-61458608D01*
X139025388Y-61458611D01*
X139224112Y-61573344D01*
X139224117Y-61573346D01*
X139224123Y-61573349D01*
X139315480Y-61611190D01*
X139436113Y-61661158D01*
X139657762Y-61720548D01*
X139885266Y-61750500D01*
X139885273Y-61750500D01*
X140114727Y-61750500D01*
X140114734Y-61750500D01*
X140342238Y-61720548D01*
X140563887Y-61661158D01*
X140775888Y-61573344D01*
X140974612Y-61458611D01*
X141156661Y-61318919D01*
X141156665Y-61318914D01*
X141156670Y-61318911D01*
X141318911Y-61156670D01*
X141318914Y-61156665D01*
X141318919Y-61156661D01*
X141458611Y-60974612D01*
X141573344Y-60775888D01*
X141661158Y-60563887D01*
X141720548Y-60342238D01*
X141750500Y-60114734D01*
X141750500Y-59885266D01*
X141750499Y-59885258D01*
X162249500Y-59885258D01*
X162249500Y-60114741D01*
X162269035Y-60263113D01*
X162279452Y-60342238D01*
X162338842Y-60563887D01*
X162426650Y-60775876D01*
X162426657Y-60775890D01*
X162541392Y-60974617D01*
X162681081Y-61156661D01*
X162681089Y-61156670D01*
X162843330Y-61318911D01*
X162843338Y-61318918D01*
X163025382Y-61458607D01*
X163025385Y-61458608D01*
X163025388Y-61458611D01*
X163224112Y-61573344D01*
X163224117Y-61573346D01*
X163224123Y-61573349D01*
X163315480Y-61611190D01*
X163436113Y-61661158D01*
X163657762Y-61720548D01*
X163885266Y-61750500D01*
X163885273Y-61750500D01*
X164114727Y-61750500D01*
X164114734Y-61750500D01*
X164342238Y-61720548D01*
X164563887Y-61661158D01*
X164775888Y-61573344D01*
X164974612Y-61458611D01*
X165156661Y-61318919D01*
X165156665Y-61318914D01*
X165156670Y-61318911D01*
X165318911Y-61156670D01*
X165318914Y-61156665D01*
X165318919Y-61156661D01*
X165458611Y-60974612D01*
X165573344Y-60775888D01*
X165661158Y-60563887D01*
X165720548Y-60342238D01*
X165750500Y-60114734D01*
X165750500Y-59885266D01*
X165750499Y-59885258D01*
X186249500Y-59885258D01*
X186249500Y-60114741D01*
X186269035Y-60263113D01*
X186279452Y-60342238D01*
X186338842Y-60563887D01*
X186426650Y-60775876D01*
X186426657Y-60775890D01*
X186541392Y-60974617D01*
X186681081Y-61156661D01*
X186681089Y-61156670D01*
X186843330Y-61318911D01*
X186843338Y-61318918D01*
X187025382Y-61458607D01*
X187025385Y-61458608D01*
X187025388Y-61458611D01*
X187224112Y-61573344D01*
X187224117Y-61573346D01*
X187224123Y-61573349D01*
X187315480Y-61611190D01*
X187436113Y-61661158D01*
X187657762Y-61720548D01*
X187885266Y-61750500D01*
X187885273Y-61750500D01*
X188114727Y-61750500D01*
X188114734Y-61750500D01*
X188342238Y-61720548D01*
X188563887Y-61661158D01*
X188775888Y-61573344D01*
X188974612Y-61458611D01*
X189156661Y-61318919D01*
X189156665Y-61318914D01*
X189156670Y-61318911D01*
X189318911Y-61156670D01*
X189318914Y-61156665D01*
X189318919Y-61156661D01*
X189458611Y-60974612D01*
X189573344Y-60775888D01*
X189661158Y-60563887D01*
X189720548Y-60342238D01*
X189750500Y-60114734D01*
X189750500Y-59885266D01*
X189720548Y-59657762D01*
X189661158Y-59436113D01*
X189573344Y-59224112D01*
X189458611Y-59025388D01*
X189458608Y-59025385D01*
X189458607Y-59025382D01*
X189318918Y-58843338D01*
X189318911Y-58843330D01*
X189156670Y-58681089D01*
X189156661Y-58681081D01*
X188974617Y-58541392D01*
X188775890Y-58426657D01*
X188775876Y-58426650D01*
X188563887Y-58338842D01*
X188342238Y-58279452D01*
X188304215Y-58274446D01*
X188114741Y-58249500D01*
X188114734Y-58249500D01*
X187885266Y-58249500D01*
X187885258Y-58249500D01*
X187668715Y-58278009D01*
X187657762Y-58279452D01*
X187564076Y-58304554D01*
X187436112Y-58338842D01*
X187224123Y-58426650D01*
X187224109Y-58426657D01*
X187025382Y-58541392D01*
X186843338Y-58681081D01*
X186681081Y-58843338D01*
X186541392Y-59025382D01*
X186426657Y-59224109D01*
X186426650Y-59224123D01*
X186338842Y-59436112D01*
X186279453Y-59657759D01*
X186279451Y-59657770D01*
X186249500Y-59885258D01*
X165750499Y-59885258D01*
X165720548Y-59657762D01*
X165661158Y-59436113D01*
X165573344Y-59224112D01*
X165458611Y-59025388D01*
X165458608Y-59025385D01*
X165458607Y-59025382D01*
X165318918Y-58843338D01*
X165318911Y-58843330D01*
X165156670Y-58681089D01*
X165156661Y-58681081D01*
X164974617Y-58541392D01*
X164775890Y-58426657D01*
X164775876Y-58426650D01*
X164563887Y-58338842D01*
X164342238Y-58279452D01*
X164304215Y-58274446D01*
X164114741Y-58249500D01*
X164114734Y-58249500D01*
X163885266Y-58249500D01*
X163885258Y-58249500D01*
X163668715Y-58278009D01*
X163657762Y-58279452D01*
X163564076Y-58304554D01*
X163436112Y-58338842D01*
X163224123Y-58426650D01*
X163224109Y-58426657D01*
X163025382Y-58541392D01*
X162843338Y-58681081D01*
X162681081Y-58843338D01*
X162541392Y-59025382D01*
X162426657Y-59224109D01*
X162426650Y-59224123D01*
X162338842Y-59436112D01*
X162279453Y-59657759D01*
X162279451Y-59657770D01*
X162249500Y-59885258D01*
X141750499Y-59885258D01*
X141720548Y-59657762D01*
X141661158Y-59436113D01*
X141573344Y-59224112D01*
X141458611Y-59025388D01*
X141458608Y-59025385D01*
X141458607Y-59025382D01*
X141318918Y-58843338D01*
X141318911Y-58843330D01*
X141156670Y-58681089D01*
X141156661Y-58681081D01*
X140974617Y-58541392D01*
X140775890Y-58426657D01*
X140775876Y-58426650D01*
X140563887Y-58338842D01*
X140342238Y-58279452D01*
X140304215Y-58274446D01*
X140114741Y-58249500D01*
X140114734Y-58249500D01*
X139885266Y-58249500D01*
X139885258Y-58249500D01*
X139668715Y-58278009D01*
X139657762Y-58279452D01*
X139564076Y-58304554D01*
X139436112Y-58338842D01*
X139224123Y-58426650D01*
X139224109Y-58426657D01*
X139025382Y-58541392D01*
X138843338Y-58681081D01*
X138681081Y-58843338D01*
X138541392Y-59025382D01*
X138426657Y-59224109D01*
X138426650Y-59224123D01*
X138338842Y-59436112D01*
X138279453Y-59657759D01*
X138279451Y-59657770D01*
X138249500Y-59885258D01*
X117750499Y-59885258D01*
X117720548Y-59657762D01*
X117661158Y-59436113D01*
X117573344Y-59224112D01*
X117458611Y-59025388D01*
X117458608Y-59025385D01*
X117458607Y-59025382D01*
X117318918Y-58843338D01*
X117318911Y-58843330D01*
X117156670Y-58681089D01*
X117156661Y-58681081D01*
X116974617Y-58541392D01*
X116775890Y-58426657D01*
X116775876Y-58426650D01*
X116563887Y-58338842D01*
X116342238Y-58279452D01*
X116304215Y-58274446D01*
X116114741Y-58249500D01*
X116114734Y-58249500D01*
X115885266Y-58249500D01*
X115885258Y-58249500D01*
X115668715Y-58278009D01*
X115657762Y-58279452D01*
X115564076Y-58304554D01*
X115436112Y-58338842D01*
X115224123Y-58426650D01*
X115224109Y-58426657D01*
X115025382Y-58541392D01*
X114843338Y-58681081D01*
X114681081Y-58843338D01*
X114541392Y-59025382D01*
X114426657Y-59224109D01*
X114426650Y-59224123D01*
X114338842Y-59436112D01*
X114279453Y-59657759D01*
X114279451Y-59657770D01*
X114249500Y-59885258D01*
X93750499Y-59885258D01*
X93720548Y-59657762D01*
X93661158Y-59436113D01*
X93573344Y-59224112D01*
X93458611Y-59025388D01*
X93458608Y-59025385D01*
X93458607Y-59025382D01*
X93318918Y-58843338D01*
X93318911Y-58843330D01*
X93156670Y-58681089D01*
X93156661Y-58681081D01*
X92974617Y-58541392D01*
X92775890Y-58426657D01*
X92775876Y-58426650D01*
X92563887Y-58338842D01*
X92342238Y-58279452D01*
X92304215Y-58274446D01*
X92114741Y-58249500D01*
X92114734Y-58249500D01*
X91885266Y-58249500D01*
X91885258Y-58249500D01*
X91668715Y-58278009D01*
X91657762Y-58279452D01*
X91564076Y-58304554D01*
X91436112Y-58338842D01*
X91224123Y-58426650D01*
X91224109Y-58426657D01*
X91025382Y-58541392D01*
X90843338Y-58681081D01*
X90681081Y-58843338D01*
X90541392Y-59025382D01*
X90426657Y-59224109D01*
X90426650Y-59224123D01*
X90338842Y-59436112D01*
X90279453Y-59657759D01*
X90279451Y-59657770D01*
X90249500Y-59885258D01*
X70760844Y-59885258D01*
X73529875Y-57116226D01*
X73550516Y-57099594D01*
X73553049Y-57097967D01*
X73582049Y-57064497D01*
X73588054Y-57058047D01*
X73615490Y-57030613D01*
X73617712Y-57026762D01*
X73631391Y-57007553D01*
X73637882Y-57000063D01*
X73653424Y-56966028D01*
X73658825Y-56955550D01*
X73674799Y-56927886D01*
X73677731Y-56916939D01*
X73684716Y-56897510D01*
X73691697Y-56882226D01*
X73696048Y-56851956D01*
X73699006Y-56837537D01*
X73705499Y-56813309D01*
X73705499Y-56795099D01*
X73706761Y-56777452D01*
X73710133Y-56753999D01*
X73706761Y-56730545D01*
X73705499Y-56712899D01*
X73705499Y-56694693D01*
X73705499Y-56694690D01*
X73699008Y-56670464D01*
X73696046Y-56656022D01*
X73691698Y-56625778D01*
X73691697Y-56625776D01*
X73691697Y-56625774D01*
X73684713Y-56610481D01*
X73677734Y-56591067D01*
X73674799Y-56580113D01*
X73658825Y-56552445D01*
X73653418Y-56541956D01*
X73637884Y-56507941D01*
X73637883Y-56507940D01*
X73637882Y-56507937D01*
X73631387Y-56500441D01*
X73617715Y-56481240D01*
X73615490Y-56477386D01*
X73588065Y-56449961D01*
X73582033Y-56443483D01*
X73553049Y-56410033D01*
X73550517Y-56408406D01*
X73538102Y-56398401D01*
X73538060Y-56398457D01*
X73531619Y-56393515D01*
X73531614Y-56393510D01*
X73492108Y-56370701D01*
X73487069Y-56367630D01*
X73444067Y-56339994D01*
X73442771Y-56339403D01*
X73433837Y-56336251D01*
X73428885Y-56334200D01*
X73378251Y-56320632D01*
X73375415Y-56319836D01*
X73319774Y-56303500D01*
X73319772Y-56303500D01*
X73190228Y-56303500D01*
X73177762Y-56307159D01*
X73134592Y-56319834D01*
X73131760Y-56320629D01*
X73081108Y-56334202D01*
X73076148Y-56336257D01*
X73067223Y-56339405D01*
X73065925Y-56339998D01*
X73022914Y-56367638D01*
X73017882Y-56370705D01*
X72978390Y-56393506D01*
X72971942Y-56398455D01*
X72971900Y-56398400D01*
X72959494Y-56408397D01*
X72956955Y-56410028D01*
X72956953Y-56410030D01*
X72927965Y-56443484D01*
X72921934Y-56449961D01*
X69211513Y-60160383D01*
X69211509Y-60160389D01*
X69152201Y-60263112D01*
X69152200Y-60263117D01*
X69121500Y-60377691D01*
X69121500Y-64035085D01*
X69101815Y-64102124D01*
X69085181Y-64122766D01*
X66784513Y-66423433D01*
X66784509Y-66423439D01*
X66725201Y-66526162D01*
X66725200Y-66526167D01*
X66694500Y-66640741D01*
X66694500Y-76143906D01*
X66693238Y-76161552D01*
X66689867Y-76184999D01*
X65508000Y-76184999D01*
X65508000Y-55608000D01*
X65527685Y-55540961D01*
X65580489Y-55495206D01*
X65632000Y-55484000D01*
X204325500Y-55484000D01*
X204392539Y-55503685D01*
G37*
%TD.AperFunction*%
%TD*%
%TA.AperFunction,Conductor*%
%TO.N,VPWR_ASIC*%
G36*
X95300000Y-101076000D02*
G01*
X95280315Y-101143039D01*
X95227511Y-101188794D01*
X95176000Y-101200000D01*
X88873000Y-101200000D01*
X88805961Y-101180315D01*
X88760206Y-101127511D01*
X88749000Y-101076000D01*
X88749000Y-95108000D01*
X95300000Y-95108000D01*
X95300000Y-101076000D01*
G37*
%TD.AperFunction*%
%TD*%
%TA.AperFunction,Conductor*%
%TO.N,VPWR_ASIC*%
G36*
X119279000Y-101080000D02*
G01*
X119259315Y-101147039D01*
X119206511Y-101192794D01*
X119155000Y-101204000D01*
X112876000Y-101204000D01*
X112808961Y-101184315D01*
X112763206Y-101131511D01*
X112752000Y-101080000D01*
X112752000Y-95108000D01*
X119279000Y-95108000D01*
X119279000Y-101080000D01*
G37*
%TD.AperFunction*%
%TD*%
%TA.AperFunction,Conductor*%
%TO.N,VPWR_ASIC*%
G36*
X143232000Y-101080000D02*
G01*
X143212315Y-101147039D01*
X143159511Y-101192794D01*
X143108000Y-101204000D01*
X136879000Y-101204000D01*
X136811961Y-101184315D01*
X136766206Y-101131511D01*
X136755000Y-101080000D01*
X136755000Y-95108000D01*
X143232000Y-95108000D01*
X143232000Y-101080000D01*
G37*
%TD.AperFunction*%
%TD*%
%TA.AperFunction,Conductor*%
%TO.N,VPWR_ASIC*%
G36*
X167300000Y-101080000D02*
G01*
X167280315Y-101147039D01*
X167227511Y-101192794D01*
X167176000Y-101204000D01*
X160882000Y-101204000D01*
X160814961Y-101184315D01*
X160769206Y-101131511D01*
X160758000Y-101080000D01*
X160758000Y-95108000D01*
X167300000Y-95108000D01*
X167300000Y-101080000D01*
G37*
%TD.AperFunction*%
%TD*%
%TA.AperFunction,Conductor*%
%TO.N,VPWR_ASIC*%
G36*
X191300000Y-101076000D02*
G01*
X191280315Y-101143039D01*
X191227511Y-101188794D01*
X191176000Y-101200000D01*
X184824000Y-101200000D01*
X184756961Y-101180315D01*
X184711206Y-101127511D01*
X184700000Y-101076000D01*
X184700000Y-95108000D01*
X191300000Y-95108000D01*
X191300000Y-101076000D01*
G37*
%TD.AperFunction*%
%TD*%
%TA.AperFunction,Conductor*%
%TO.N,VPWR_ASIC*%
G36*
X191243039Y-73819685D02*
G01*
X191288794Y-73872489D01*
X191300000Y-73924000D01*
X191300000Y-79868000D01*
X184700000Y-79868000D01*
X184700000Y-73924000D01*
X184719685Y-73856961D01*
X184772489Y-73811206D01*
X184824000Y-73800000D01*
X191176000Y-73800000D01*
X191243039Y-73819685D01*
G37*
%TD.AperFunction*%
%TD*%
%TA.AperFunction,Conductor*%
%TO.N,VPWR_ASIC*%
G36*
X167243039Y-73819685D02*
G01*
X167288794Y-73872489D01*
X167300000Y-73924000D01*
X167300000Y-79868000D01*
X160700000Y-79868000D01*
X160700000Y-73924000D01*
X160719685Y-73856961D01*
X160772489Y-73811206D01*
X160824000Y-73800000D01*
X167176000Y-73800000D01*
X167243039Y-73819685D01*
G37*
%TD.AperFunction*%
%TD*%
%TA.AperFunction,Conductor*%
%TO.N,VPWR_ASIC*%
G36*
X143243039Y-73819685D02*
G01*
X143288794Y-73872489D01*
X143300000Y-73924000D01*
X143300000Y-79868000D01*
X136700000Y-79868000D01*
X136700000Y-73924000D01*
X136719685Y-73856961D01*
X136772489Y-73811206D01*
X136824000Y-73800000D01*
X143176000Y-73800000D01*
X143243039Y-73819685D01*
G37*
%TD.AperFunction*%
%TD*%
%TA.AperFunction,Conductor*%
%TO.N,VPWR_ASIC*%
G36*
X119243039Y-73819685D02*
G01*
X119288794Y-73872489D01*
X119300000Y-73924000D01*
X119300000Y-79868000D01*
X112700000Y-79868000D01*
X112700000Y-73924000D01*
X112719685Y-73856961D01*
X112772489Y-73811206D01*
X112824000Y-73800000D01*
X119176000Y-73800000D01*
X119243039Y-73819685D01*
G37*
%TD.AperFunction*%
%TD*%
%TA.AperFunction,Conductor*%
%TO.N,VPWR_ASIC*%
G36*
X95243039Y-73819685D02*
G01*
X95288794Y-73872489D01*
X95300000Y-73924000D01*
X95300000Y-79868000D01*
X88700000Y-79868000D01*
X88700000Y-73924000D01*
X88719685Y-73856961D01*
X88772489Y-73811206D01*
X88824000Y-73800000D01*
X95176000Y-73800000D01*
X95243039Y-73819685D01*
G37*
%TD.AperFunction*%
%TD*%
D18*
X204750000Y-55000000D02*
X204750000Y-120000000D01*
X65000000Y-55000000D02*
X65000000Y-120000000D01*
X65000000Y-120000000D02*
X204750000Y-120000000D01*
X65000000Y-55000000D02*
X204750000Y-55000000D01*
M02*
