%TF.GenerationSoftware,KiCad,Pcbnew,8.0.6*%
%TF.CreationDate,2024-12-06T19:08:15+01:00*%
%TF.ProjectId,AsicsBoard - 10xBM1370 - 01A,41736963-7342-46f6-9172-64202d203130,rev?*%
%TF.SameCoordinates,Original*%
%TF.FileFunction,Soldermask,Top*%
%TF.FilePolarity,Negative*%
%FSLAX46Y46*%
G04 Gerber Fmt 4.6, Leading zero omitted, Abs format (unit mm)*
G04 Created by KiCad (PCBNEW 8.0.6) date 2024-12-06 19:08:15*
%MOMM*%
%LPD*%
G01*
G04 APERTURE LIST*
G04 Aperture macros list*
%AMRoundRect*
0 Rectangle with rounded corners*
0 $1 Rounding radius*
0 $2 $3 $4 $5 $6 $7 $8 $9 X,Y pos of 4 corners*
0 Add a 4 corners polygon primitive as box body*
4,1,4,$2,$3,$4,$5,$6,$7,$8,$9,$2,$3,0*
0 Add four circle primitives for the rounded corners*
1,1,$1+$1,$2,$3*
1,1,$1+$1,$4,$5*
1,1,$1+$1,$6,$7*
1,1,$1+$1,$8,$9*
0 Add four rect primitives between the rounded corners*
20,1,$1+$1,$2,$3,$4,$5,0*
20,1,$1+$1,$4,$5,$6,$7,0*
20,1,$1+$1,$6,$7,$8,$9,0*
20,1,$1+$1,$8,$9,$2,$3,0*%
G04 Aperture macros list end*
%ADD10C,0.120000*%
%ADD11RoundRect,0.140000X-0.170000X0.140000X-0.170000X-0.140000X0.170000X-0.140000X0.170000X0.140000X0*%
%ADD12C,3.200000*%
%ADD13RoundRect,0.135000X-0.135000X-0.185000X0.135000X-0.185000X0.135000X0.185000X-0.135000X0.185000X0*%
%ADD14RoundRect,0.140000X0.140000X0.170000X-0.140000X0.170000X-0.140000X-0.170000X0.140000X-0.170000X0*%
%ADD15RoundRect,0.140000X0.170000X-0.140000X0.170000X0.140000X-0.170000X0.140000X-0.170000X-0.140000X0*%
%ADD16RoundRect,0.135000X0.135000X0.185000X-0.135000X0.185000X-0.135000X-0.185000X0.135000X-0.185000X0*%
%ADD17RoundRect,0.140000X-0.140000X-0.170000X0.140000X-0.170000X0.140000X0.170000X-0.140000X0.170000X0*%
%ADD18RoundRect,0.055250X0.340750X0.055250X-0.340750X0.055250X-0.340750X-0.055250X0.340750X-0.055250X0*%
%ADD19RoundRect,0.055250X-0.340750X-0.055250X0.340750X-0.055250X0.340750X0.055250X-0.340750X0.055250X0*%
%ADD20RoundRect,0.250000X0.350000X0.450000X-0.350000X0.450000X-0.350000X-0.450000X0.350000X-0.450000X0*%
%ADD21C,2.000000*%
%ADD22RoundRect,0.200000X0.275000X-0.200000X0.275000X0.200000X-0.275000X0.200000X-0.275000X-0.200000X0*%
%ADD23C,0.800000*%
%ADD24C,6.400000*%
%TA.AperFunction,Profile*%
%ADD25C,0.100000*%
%TD*%
G04 APERTURE END LIST*
D10*
X70042093Y-85497719D02*
X70042093Y-85164386D01*
X70242093Y-85564386D02*
X69542093Y-85331053D01*
X69542093Y-85331053D02*
X70242093Y-85097719D01*
X70208760Y-84897719D02*
X70242093Y-84797719D01*
X70242093Y-84797719D02*
X70242093Y-84631053D01*
X70242093Y-84631053D02*
X70208760Y-84564386D01*
X70208760Y-84564386D02*
X70175426Y-84531053D01*
X70175426Y-84531053D02*
X70108760Y-84497719D01*
X70108760Y-84497719D02*
X70042093Y-84497719D01*
X70042093Y-84497719D02*
X69975426Y-84531053D01*
X69975426Y-84531053D02*
X69942093Y-84564386D01*
X69942093Y-84564386D02*
X69908760Y-84631053D01*
X69908760Y-84631053D02*
X69875426Y-84764386D01*
X69875426Y-84764386D02*
X69842093Y-84831053D01*
X69842093Y-84831053D02*
X69808760Y-84864386D01*
X69808760Y-84864386D02*
X69742093Y-84897719D01*
X69742093Y-84897719D02*
X69675426Y-84897719D01*
X69675426Y-84897719D02*
X69608760Y-84864386D01*
X69608760Y-84864386D02*
X69575426Y-84831053D01*
X69575426Y-84831053D02*
X69542093Y-84764386D01*
X69542093Y-84764386D02*
X69542093Y-84597719D01*
X69542093Y-84597719D02*
X69575426Y-84497719D01*
X70242093Y-84197719D02*
X69542093Y-84197719D01*
X70175426Y-83464386D02*
X70208760Y-83497719D01*
X70208760Y-83497719D02*
X70242093Y-83597719D01*
X70242093Y-83597719D02*
X70242093Y-83664386D01*
X70242093Y-83664386D02*
X70208760Y-83764386D01*
X70208760Y-83764386D02*
X70142093Y-83831053D01*
X70142093Y-83831053D02*
X70075426Y-83864386D01*
X70075426Y-83864386D02*
X69942093Y-83897719D01*
X69942093Y-83897719D02*
X69842093Y-83897719D01*
X69842093Y-83897719D02*
X69708760Y-83864386D01*
X69708760Y-83864386D02*
X69642093Y-83831053D01*
X69642093Y-83831053D02*
X69575426Y-83764386D01*
X69575426Y-83764386D02*
X69542093Y-83664386D01*
X69542093Y-83664386D02*
X69542093Y-83597719D01*
X69542093Y-83597719D02*
X69575426Y-83497719D01*
X69575426Y-83497719D02*
X69608760Y-83464386D01*
X70242093Y-83164386D02*
X69542093Y-83164386D01*
X69808760Y-83164386D02*
X69775426Y-83097719D01*
X69775426Y-83097719D02*
X69775426Y-82964386D01*
X69775426Y-82964386D02*
X69808760Y-82897719D01*
X69808760Y-82897719D02*
X69842093Y-82864386D01*
X69842093Y-82864386D02*
X69908760Y-82831053D01*
X69908760Y-82831053D02*
X70108760Y-82831053D01*
X70108760Y-82831053D02*
X70175426Y-82864386D01*
X70175426Y-82864386D02*
X70208760Y-82897719D01*
X70208760Y-82897719D02*
X70242093Y-82964386D01*
X70242093Y-82964386D02*
X70242093Y-83097719D01*
X70242093Y-83097719D02*
X70208760Y-83164386D01*
X70242093Y-82431053D02*
X70208760Y-82497720D01*
X70208760Y-82497720D02*
X70175426Y-82531053D01*
X70175426Y-82531053D02*
X70108760Y-82564386D01*
X70108760Y-82564386D02*
X69908760Y-82564386D01*
X69908760Y-82564386D02*
X69842093Y-82531053D01*
X69842093Y-82531053D02*
X69808760Y-82497720D01*
X69808760Y-82497720D02*
X69775426Y-82431053D01*
X69775426Y-82431053D02*
X69775426Y-82331053D01*
X69775426Y-82331053D02*
X69808760Y-82264386D01*
X69808760Y-82264386D02*
X69842093Y-82231053D01*
X69842093Y-82231053D02*
X69908760Y-82197720D01*
X69908760Y-82197720D02*
X70108760Y-82197720D01*
X70108760Y-82197720D02*
X70175426Y-82231053D01*
X70175426Y-82231053D02*
X70208760Y-82264386D01*
X70208760Y-82264386D02*
X70242093Y-82331053D01*
X70242093Y-82331053D02*
X70242093Y-82431053D01*
X70242093Y-81597720D02*
X69875426Y-81597720D01*
X69875426Y-81597720D02*
X69808760Y-81631053D01*
X69808760Y-81631053D02*
X69775426Y-81697720D01*
X69775426Y-81697720D02*
X69775426Y-81831053D01*
X69775426Y-81831053D02*
X69808760Y-81897720D01*
X70208760Y-81597720D02*
X70242093Y-81664387D01*
X70242093Y-81664387D02*
X70242093Y-81831053D01*
X70242093Y-81831053D02*
X70208760Y-81897720D01*
X70208760Y-81897720D02*
X70142093Y-81931053D01*
X70142093Y-81931053D02*
X70075426Y-81931053D01*
X70075426Y-81931053D02*
X70008760Y-81897720D01*
X70008760Y-81897720D02*
X69975426Y-81831053D01*
X69975426Y-81831053D02*
X69975426Y-81664387D01*
X69975426Y-81664387D02*
X69942093Y-81597720D01*
X70242093Y-81264387D02*
X69775426Y-81264387D01*
X69908760Y-81264387D02*
X69842093Y-81231054D01*
X69842093Y-81231054D02*
X69808760Y-81197720D01*
X69808760Y-81197720D02*
X69775426Y-81131054D01*
X69775426Y-81131054D02*
X69775426Y-81064387D01*
X70242093Y-80531054D02*
X69542093Y-80531054D01*
X70208760Y-80531054D02*
X70242093Y-80597721D01*
X70242093Y-80597721D02*
X70242093Y-80731054D01*
X70242093Y-80731054D02*
X70208760Y-80797721D01*
X70208760Y-80797721D02*
X70175426Y-80831054D01*
X70175426Y-80831054D02*
X70108760Y-80864387D01*
X70108760Y-80864387D02*
X69908760Y-80864387D01*
X69908760Y-80864387D02*
X69842093Y-80831054D01*
X69842093Y-80831054D02*
X69808760Y-80797721D01*
X69808760Y-80797721D02*
X69775426Y-80731054D01*
X69775426Y-80731054D02*
X69775426Y-80597721D01*
X69775426Y-80597721D02*
X69808760Y-80531054D01*
X70242093Y-79297721D02*
X70242093Y-79697721D01*
X70242093Y-79497721D02*
X69542093Y-79497721D01*
X69542093Y-79497721D02*
X69642093Y-79564388D01*
X69642093Y-79564388D02*
X69708760Y-79631055D01*
X69708760Y-79631055D02*
X69742093Y-79697721D01*
X69542093Y-78864388D02*
X69542093Y-78797721D01*
X69542093Y-78797721D02*
X69575426Y-78731054D01*
X69575426Y-78731054D02*
X69608760Y-78697721D01*
X69608760Y-78697721D02*
X69675426Y-78664388D01*
X69675426Y-78664388D02*
X69808760Y-78631054D01*
X69808760Y-78631054D02*
X69975426Y-78631054D01*
X69975426Y-78631054D02*
X70108760Y-78664388D01*
X70108760Y-78664388D02*
X70175426Y-78697721D01*
X70175426Y-78697721D02*
X70208760Y-78731054D01*
X70208760Y-78731054D02*
X70242093Y-78797721D01*
X70242093Y-78797721D02*
X70242093Y-78864388D01*
X70242093Y-78864388D02*
X70208760Y-78931054D01*
X70208760Y-78931054D02*
X70175426Y-78964388D01*
X70175426Y-78964388D02*
X70108760Y-78997721D01*
X70108760Y-78997721D02*
X69975426Y-79031054D01*
X69975426Y-79031054D02*
X69808760Y-79031054D01*
X69808760Y-79031054D02*
X69675426Y-78997721D01*
X69675426Y-78997721D02*
X69608760Y-78964388D01*
X69608760Y-78964388D02*
X69575426Y-78931054D01*
X69575426Y-78931054D02*
X69542093Y-78864388D01*
X70242093Y-78397721D02*
X69775426Y-78031054D01*
X69775426Y-78397721D02*
X70242093Y-78031054D01*
X69875426Y-77531054D02*
X69908760Y-77431054D01*
X69908760Y-77431054D02*
X69942093Y-77397720D01*
X69942093Y-77397720D02*
X70008760Y-77364387D01*
X70008760Y-77364387D02*
X70108760Y-77364387D01*
X70108760Y-77364387D02*
X70175426Y-77397720D01*
X70175426Y-77397720D02*
X70208760Y-77431054D01*
X70208760Y-77431054D02*
X70242093Y-77497720D01*
X70242093Y-77497720D02*
X70242093Y-77764387D01*
X70242093Y-77764387D02*
X69542093Y-77764387D01*
X69542093Y-77764387D02*
X69542093Y-77531054D01*
X69542093Y-77531054D02*
X69575426Y-77464387D01*
X69575426Y-77464387D02*
X69608760Y-77431054D01*
X69608760Y-77431054D02*
X69675426Y-77397720D01*
X69675426Y-77397720D02*
X69742093Y-77397720D01*
X69742093Y-77397720D02*
X69808760Y-77431054D01*
X69808760Y-77431054D02*
X69842093Y-77464387D01*
X69842093Y-77464387D02*
X69875426Y-77531054D01*
X69875426Y-77531054D02*
X69875426Y-77764387D01*
X70242093Y-77064387D02*
X69542093Y-77064387D01*
X69542093Y-77064387D02*
X70042093Y-76831054D01*
X70042093Y-76831054D02*
X69542093Y-76597720D01*
X69542093Y-76597720D02*
X70242093Y-76597720D01*
X70242093Y-75897720D02*
X70242093Y-76297720D01*
X70242093Y-76097720D02*
X69542093Y-76097720D01*
X69542093Y-76097720D02*
X69642093Y-76164387D01*
X69642093Y-76164387D02*
X69708760Y-76231054D01*
X69708760Y-76231054D02*
X69742093Y-76297720D01*
X69542093Y-75664387D02*
X69542093Y-75231053D01*
X69542093Y-75231053D02*
X69808760Y-75464387D01*
X69808760Y-75464387D02*
X69808760Y-75364387D01*
X69808760Y-75364387D02*
X69842093Y-75297720D01*
X69842093Y-75297720D02*
X69875426Y-75264387D01*
X69875426Y-75264387D02*
X69942093Y-75231053D01*
X69942093Y-75231053D02*
X70108760Y-75231053D01*
X70108760Y-75231053D02*
X70175426Y-75264387D01*
X70175426Y-75264387D02*
X70208760Y-75297720D01*
X70208760Y-75297720D02*
X70242093Y-75364387D01*
X70242093Y-75364387D02*
X70242093Y-75564387D01*
X70242093Y-75564387D02*
X70208760Y-75631053D01*
X70208760Y-75631053D02*
X70175426Y-75664387D01*
X69542093Y-74997720D02*
X69542093Y-74531053D01*
X69542093Y-74531053D02*
X70242093Y-74831053D01*
X69542093Y-74131053D02*
X69542093Y-74064386D01*
X69542093Y-74064386D02*
X69575426Y-73997719D01*
X69575426Y-73997719D02*
X69608760Y-73964386D01*
X69608760Y-73964386D02*
X69675426Y-73931053D01*
X69675426Y-73931053D02*
X69808760Y-73897719D01*
X69808760Y-73897719D02*
X69975426Y-73897719D01*
X69975426Y-73897719D02*
X70108760Y-73931053D01*
X70108760Y-73931053D02*
X70175426Y-73964386D01*
X70175426Y-73964386D02*
X70208760Y-73997719D01*
X70208760Y-73997719D02*
X70242093Y-74064386D01*
X70242093Y-74064386D02*
X70242093Y-74131053D01*
X70242093Y-74131053D02*
X70208760Y-74197719D01*
X70208760Y-74197719D02*
X70175426Y-74231053D01*
X70175426Y-74231053D02*
X70108760Y-74264386D01*
X70108760Y-74264386D02*
X69975426Y-74297719D01*
X69975426Y-74297719D02*
X69808760Y-74297719D01*
X69808760Y-74297719D02*
X69675426Y-74264386D01*
X69675426Y-74264386D02*
X69608760Y-74231053D01*
X69608760Y-74231053D02*
X69575426Y-74197719D01*
X69575426Y-74197719D02*
X69542093Y-74131053D01*
X69975426Y-73064386D02*
X69975426Y-72531053D01*
X69542093Y-71531053D02*
X69542093Y-71464386D01*
X69542093Y-71464386D02*
X69575426Y-71397719D01*
X69575426Y-71397719D02*
X69608760Y-71364386D01*
X69608760Y-71364386D02*
X69675426Y-71331053D01*
X69675426Y-71331053D02*
X69808760Y-71297719D01*
X69808760Y-71297719D02*
X69975426Y-71297719D01*
X69975426Y-71297719D02*
X70108760Y-71331053D01*
X70108760Y-71331053D02*
X70175426Y-71364386D01*
X70175426Y-71364386D02*
X70208760Y-71397719D01*
X70208760Y-71397719D02*
X70242093Y-71464386D01*
X70242093Y-71464386D02*
X70242093Y-71531053D01*
X70242093Y-71531053D02*
X70208760Y-71597719D01*
X70208760Y-71597719D02*
X70175426Y-71631053D01*
X70175426Y-71631053D02*
X70108760Y-71664386D01*
X70108760Y-71664386D02*
X69975426Y-71697719D01*
X69975426Y-71697719D02*
X69808760Y-71697719D01*
X69808760Y-71697719D02*
X69675426Y-71664386D01*
X69675426Y-71664386D02*
X69608760Y-71631053D01*
X69608760Y-71631053D02*
X69575426Y-71597719D01*
X69575426Y-71597719D02*
X69542093Y-71531053D01*
X70242093Y-70631052D02*
X70242093Y-71031052D01*
X70242093Y-70831052D02*
X69542093Y-70831052D01*
X69542093Y-70831052D02*
X69642093Y-70897719D01*
X69642093Y-70897719D02*
X69708760Y-70964386D01*
X69708760Y-70964386D02*
X69742093Y-71031052D01*
X70042093Y-70364385D02*
X70042093Y-70031052D01*
X70242093Y-70431052D02*
X69542093Y-70197719D01*
X69542093Y-70197719D02*
X70242093Y-69964385D01*
X68605426Y-85591386D02*
X68605426Y-85358053D01*
X68972093Y-85258053D02*
X68972093Y-85591386D01*
X68972093Y-85591386D02*
X68272093Y-85591386D01*
X68272093Y-85591386D02*
X68272093Y-85258053D01*
X68972093Y-84958053D02*
X68272093Y-84958053D01*
X68972093Y-84558053D02*
X68572093Y-84858053D01*
X68272093Y-84558053D02*
X68672093Y-84958053D01*
X68272093Y-84124720D02*
X68272093Y-83991386D01*
X68272093Y-83991386D02*
X68305426Y-83924720D01*
X68305426Y-83924720D02*
X68372093Y-83858053D01*
X68372093Y-83858053D02*
X68505426Y-83824720D01*
X68505426Y-83824720D02*
X68738760Y-83824720D01*
X68738760Y-83824720D02*
X68872093Y-83858053D01*
X68872093Y-83858053D02*
X68938760Y-83924720D01*
X68938760Y-83924720D02*
X68972093Y-83991386D01*
X68972093Y-83991386D02*
X68972093Y-84124720D01*
X68972093Y-84124720D02*
X68938760Y-84191386D01*
X68938760Y-84191386D02*
X68872093Y-84258053D01*
X68872093Y-84258053D02*
X68738760Y-84291386D01*
X68738760Y-84291386D02*
X68505426Y-84291386D01*
X68505426Y-84291386D02*
X68372093Y-84258053D01*
X68372093Y-84258053D02*
X68305426Y-84191386D01*
X68305426Y-84191386D02*
X68272093Y-84124720D01*
X69038760Y-83691387D02*
X69038760Y-83158053D01*
X68972093Y-82991387D02*
X68272093Y-82991387D01*
X68272093Y-82991387D02*
X68772093Y-82758054D01*
X68772093Y-82758054D02*
X68272093Y-82524720D01*
X68272093Y-82524720D02*
X68972093Y-82524720D01*
X68972093Y-82191387D02*
X68505426Y-82191387D01*
X68272093Y-82191387D02*
X68305426Y-82224720D01*
X68305426Y-82224720D02*
X68338760Y-82191387D01*
X68338760Y-82191387D02*
X68305426Y-82158054D01*
X68305426Y-82158054D02*
X68272093Y-82191387D01*
X68272093Y-82191387D02*
X68338760Y-82191387D01*
X68505426Y-81858054D02*
X68972093Y-81858054D01*
X68572093Y-81858054D02*
X68538760Y-81824721D01*
X68538760Y-81824721D02*
X68505426Y-81758054D01*
X68505426Y-81758054D02*
X68505426Y-81658054D01*
X68505426Y-81658054D02*
X68538760Y-81591387D01*
X68538760Y-81591387D02*
X68605426Y-81558054D01*
X68605426Y-81558054D02*
X68972093Y-81558054D01*
X68938760Y-80958054D02*
X68972093Y-81024721D01*
X68972093Y-81024721D02*
X68972093Y-81158054D01*
X68972093Y-81158054D02*
X68938760Y-81224721D01*
X68938760Y-81224721D02*
X68872093Y-81258054D01*
X68872093Y-81258054D02*
X68605426Y-81258054D01*
X68605426Y-81258054D02*
X68538760Y-81224721D01*
X68538760Y-81224721D02*
X68505426Y-81158054D01*
X68505426Y-81158054D02*
X68505426Y-81024721D01*
X68505426Y-81024721D02*
X68538760Y-80958054D01*
X68538760Y-80958054D02*
X68605426Y-80924721D01*
X68605426Y-80924721D02*
X68672093Y-80924721D01*
X68672093Y-80924721D02*
X68738760Y-81258054D01*
X68972093Y-80624721D02*
X68505426Y-80624721D01*
X68638760Y-80624721D02*
X68572093Y-80591388D01*
X68572093Y-80591388D02*
X68538760Y-80558054D01*
X68538760Y-80558054D02*
X68505426Y-80491388D01*
X68505426Y-80491388D02*
X68505426Y-80424721D01*
X68972093Y-79658055D02*
X68272093Y-79658055D01*
X68272093Y-79658055D02*
X68272093Y-79391388D01*
X68272093Y-79391388D02*
X68305426Y-79324722D01*
X68305426Y-79324722D02*
X68338760Y-79291388D01*
X68338760Y-79291388D02*
X68405426Y-79258055D01*
X68405426Y-79258055D02*
X68505426Y-79258055D01*
X68505426Y-79258055D02*
X68572093Y-79291388D01*
X68572093Y-79291388D02*
X68605426Y-79324722D01*
X68605426Y-79324722D02*
X68638760Y-79391388D01*
X68638760Y-79391388D02*
X68638760Y-79658055D01*
X68972093Y-78958055D02*
X68272093Y-78958055D01*
X68972093Y-78658055D02*
X68605426Y-78658055D01*
X68605426Y-78658055D02*
X68538760Y-78691388D01*
X68538760Y-78691388D02*
X68505426Y-78758055D01*
X68505426Y-78758055D02*
X68505426Y-78858055D01*
X68505426Y-78858055D02*
X68538760Y-78924722D01*
X68538760Y-78924722D02*
X68572093Y-78958055D01*
X68972093Y-78324722D02*
X68505426Y-78324722D01*
X68272093Y-78324722D02*
X68305426Y-78358055D01*
X68305426Y-78358055D02*
X68338760Y-78324722D01*
X68338760Y-78324722D02*
X68305426Y-78291389D01*
X68305426Y-78291389D02*
X68272093Y-78324722D01*
X68272093Y-78324722D02*
X68338760Y-78324722D01*
X68972093Y-77891389D02*
X68938760Y-77958056D01*
X68938760Y-77958056D02*
X68872093Y-77991389D01*
X68872093Y-77991389D02*
X68272093Y-77991389D01*
X68272093Y-77691389D02*
X68272093Y-77258055D01*
X68272093Y-77258055D02*
X68538760Y-77491389D01*
X68538760Y-77491389D02*
X68538760Y-77391389D01*
X68538760Y-77391389D02*
X68572093Y-77324722D01*
X68572093Y-77324722D02*
X68605426Y-77291389D01*
X68605426Y-77291389D02*
X68672093Y-77258055D01*
X68672093Y-77258055D02*
X68838760Y-77258055D01*
X68838760Y-77258055D02*
X68905426Y-77291389D01*
X68905426Y-77291389D02*
X68938760Y-77324722D01*
X68938760Y-77324722D02*
X68972093Y-77391389D01*
X68972093Y-77391389D02*
X68972093Y-77591389D01*
X68972093Y-77591389D02*
X68938760Y-77658055D01*
X68938760Y-77658055D02*
X68905426Y-77691389D01*
X68972093Y-76591388D02*
X68972093Y-76991388D01*
X68972093Y-76791388D02*
X68272093Y-76791388D01*
X68272093Y-76791388D02*
X68372093Y-76858055D01*
X68372093Y-76858055D02*
X68438760Y-76924722D01*
X68438760Y-76924722D02*
X68472093Y-76991388D01*
X68338760Y-75791388D02*
X68305426Y-75758055D01*
X68305426Y-75758055D02*
X68272093Y-75691388D01*
X68272093Y-75691388D02*
X68272093Y-75524722D01*
X68272093Y-75524722D02*
X68305426Y-75458055D01*
X68305426Y-75458055D02*
X68338760Y-75424722D01*
X68338760Y-75424722D02*
X68405426Y-75391388D01*
X68405426Y-75391388D02*
X68472093Y-75391388D01*
X68472093Y-75391388D02*
X68572093Y-75424722D01*
X68572093Y-75424722D02*
X68972093Y-75824722D01*
X68972093Y-75824722D02*
X68972093Y-75391388D01*
X68272093Y-74958055D02*
X68272093Y-74891388D01*
X68272093Y-74891388D02*
X68305426Y-74824721D01*
X68305426Y-74824721D02*
X68338760Y-74791388D01*
X68338760Y-74791388D02*
X68405426Y-74758055D01*
X68405426Y-74758055D02*
X68538760Y-74724721D01*
X68538760Y-74724721D02*
X68705426Y-74724721D01*
X68705426Y-74724721D02*
X68838760Y-74758055D01*
X68838760Y-74758055D02*
X68905426Y-74791388D01*
X68905426Y-74791388D02*
X68938760Y-74824721D01*
X68938760Y-74824721D02*
X68972093Y-74891388D01*
X68972093Y-74891388D02*
X68972093Y-74958055D01*
X68972093Y-74958055D02*
X68938760Y-75024721D01*
X68938760Y-75024721D02*
X68905426Y-75058055D01*
X68905426Y-75058055D02*
X68838760Y-75091388D01*
X68838760Y-75091388D02*
X68705426Y-75124721D01*
X68705426Y-75124721D02*
X68538760Y-75124721D01*
X68538760Y-75124721D02*
X68405426Y-75091388D01*
X68405426Y-75091388D02*
X68338760Y-75058055D01*
X68338760Y-75058055D02*
X68305426Y-75024721D01*
X68305426Y-75024721D02*
X68272093Y-74958055D01*
X68338760Y-74458054D02*
X68305426Y-74424721D01*
X68305426Y-74424721D02*
X68272093Y-74358054D01*
X68272093Y-74358054D02*
X68272093Y-74191388D01*
X68272093Y-74191388D02*
X68305426Y-74124721D01*
X68305426Y-74124721D02*
X68338760Y-74091388D01*
X68338760Y-74091388D02*
X68405426Y-74058054D01*
X68405426Y-74058054D02*
X68472093Y-74058054D01*
X68472093Y-74058054D02*
X68572093Y-74091388D01*
X68572093Y-74091388D02*
X68972093Y-74491388D01*
X68972093Y-74491388D02*
X68972093Y-74058054D01*
X68505426Y-73458054D02*
X68972093Y-73458054D01*
X68238760Y-73624721D02*
X68738760Y-73791387D01*
X68738760Y-73791387D02*
X68738760Y-73358054D01*
X68905426Y-73091387D02*
X68938760Y-73058054D01*
X68938760Y-73058054D02*
X68972093Y-73091387D01*
X68972093Y-73091387D02*
X68938760Y-73124720D01*
X68938760Y-73124720D02*
X68905426Y-73091387D01*
X68905426Y-73091387D02*
X68972093Y-73091387D01*
X68972093Y-72391387D02*
X68972093Y-72791387D01*
X68972093Y-72591387D02*
X68272093Y-72591387D01*
X68272093Y-72591387D02*
X68372093Y-72658054D01*
X68372093Y-72658054D02*
X68438760Y-72724721D01*
X68438760Y-72724721D02*
X68472093Y-72791387D01*
X68338760Y-72124720D02*
X68305426Y-72091387D01*
X68305426Y-72091387D02*
X68272093Y-72024720D01*
X68272093Y-72024720D02*
X68272093Y-71858054D01*
X68272093Y-71858054D02*
X68305426Y-71791387D01*
X68305426Y-71791387D02*
X68338760Y-71758054D01*
X68338760Y-71758054D02*
X68405426Y-71724720D01*
X68405426Y-71724720D02*
X68472093Y-71724720D01*
X68472093Y-71724720D02*
X68572093Y-71758054D01*
X68572093Y-71758054D02*
X68972093Y-72158054D01*
X68972093Y-72158054D02*
X68972093Y-71724720D01*
%TO.C,U10*%
X184900000Y-68190000D02*
X186680000Y-68190000D01*
X186680000Y-69630000D01*
X184900000Y-69630000D01*
X184900000Y-68190000D01*
G36*
X184900000Y-68190000D02*
G01*
X186680000Y-68190000D01*
X186680000Y-69630000D01*
X184900000Y-69630000D01*
X184900000Y-68190000D01*
G37*
X184900000Y-71900000D02*
X186680000Y-71900000D01*
X186680000Y-73340000D01*
X184900000Y-73340000D01*
X184900000Y-71900000D01*
G36*
X184900000Y-71900000D02*
G01*
X186680000Y-71900000D01*
X186680000Y-73340000D01*
X184900000Y-73340000D01*
X184900000Y-71900000D01*
G37*
X184910000Y-70060000D02*
X186690000Y-70060000D01*
X186690000Y-71500000D01*
X184910000Y-71500000D01*
X184910000Y-70060000D01*
G36*
X184910000Y-70060000D02*
G01*
X186690000Y-70060000D01*
X186690000Y-71500000D01*
X184910000Y-71500000D01*
X184910000Y-70060000D01*
G37*
X184910000Y-73950000D02*
X186690000Y-73950000D01*
X186690000Y-75820000D01*
X184910000Y-75820000D01*
X184910000Y-73950000D01*
G36*
X184910000Y-73950000D02*
G01*
X186690000Y-73950000D01*
X186690000Y-75820000D01*
X184910000Y-75820000D01*
X184910000Y-73950000D01*
G37*
X187110000Y-68190000D02*
X188890000Y-68190000D01*
X188890000Y-69630000D01*
X187110000Y-69630000D01*
X187110000Y-68190000D01*
G36*
X187110000Y-68190000D02*
G01*
X188890000Y-68190000D01*
X188890000Y-69630000D01*
X187110000Y-69630000D01*
X187110000Y-68190000D01*
G37*
X187110000Y-71900000D02*
X188890000Y-71900000D01*
X188890000Y-73340000D01*
X187110000Y-73340000D01*
X187110000Y-71900000D01*
G36*
X187110000Y-71900000D02*
G01*
X188890000Y-71900000D01*
X188890000Y-73340000D01*
X187110000Y-73340000D01*
X187110000Y-71900000D01*
G37*
X187120000Y-70060000D02*
X188900000Y-70060000D01*
X188900000Y-71500000D01*
X187120000Y-71500000D01*
X187120000Y-70060000D01*
G36*
X187120000Y-70060000D02*
G01*
X188900000Y-70060000D01*
X188900000Y-71500000D01*
X187120000Y-71500000D01*
X187120000Y-70060000D01*
G37*
X187120000Y-73940000D02*
X188900000Y-73940000D01*
X188900000Y-75810000D01*
X187120000Y-75810000D01*
X187120000Y-73940000D01*
G36*
X187120000Y-73940000D02*
G01*
X188900000Y-73940000D01*
X188900000Y-75810000D01*
X187120000Y-75810000D01*
X187120000Y-73940000D01*
G37*
X189320000Y-68180000D02*
X191100000Y-68180000D01*
X191100000Y-69620000D01*
X189320000Y-69620000D01*
X189320000Y-68180000D01*
G36*
X189320000Y-68180000D02*
G01*
X191100000Y-68180000D01*
X191100000Y-69620000D01*
X189320000Y-69620000D01*
X189320000Y-68180000D01*
G37*
X189320000Y-71890000D02*
X191100000Y-71890000D01*
X191100000Y-73330000D01*
X189320000Y-73330000D01*
X189320000Y-71890000D01*
G36*
X189320000Y-71890000D02*
G01*
X191100000Y-71890000D01*
X191100000Y-73330000D01*
X189320000Y-73330000D01*
X189320000Y-71890000D01*
G37*
X189320000Y-73920000D02*
X191100000Y-73920000D01*
X191100000Y-75800000D01*
X189320000Y-75800000D01*
X189320000Y-73920000D01*
G36*
X189320000Y-73920000D02*
G01*
X191100000Y-73920000D01*
X191100000Y-75800000D01*
X189320000Y-75800000D01*
X189320000Y-73920000D01*
G37*
X189330000Y-70050000D02*
X191110000Y-70050000D01*
X191110000Y-71490000D01*
X189330000Y-71490000D01*
X189330000Y-70050000D01*
G36*
X189330000Y-70050000D02*
G01*
X191110000Y-70050000D01*
X191110000Y-71490000D01*
X189330000Y-71490000D01*
X189330000Y-70050000D01*
G37*
%TO.C,U12*%
X186670000Y-104950000D02*
X184890000Y-104950000D01*
X184890000Y-103510000D01*
X186670000Y-103510000D01*
X186670000Y-104950000D01*
G36*
X186670000Y-104950000D02*
G01*
X184890000Y-104950000D01*
X184890000Y-103510000D01*
X186670000Y-103510000D01*
X186670000Y-104950000D01*
G37*
X186680000Y-101080000D02*
X184900000Y-101080000D01*
X184900000Y-99200000D01*
X186680000Y-99200000D01*
X186680000Y-101080000D01*
G36*
X186680000Y-101080000D02*
G01*
X184900000Y-101080000D01*
X184900000Y-99200000D01*
X186680000Y-99200000D01*
X186680000Y-101080000D01*
G37*
X186680000Y-103110000D02*
X184900000Y-103110000D01*
X184900000Y-101670000D01*
X186680000Y-101670000D01*
X186680000Y-103110000D01*
G36*
X186680000Y-103110000D02*
G01*
X184900000Y-103110000D01*
X184900000Y-101670000D01*
X186680000Y-101670000D01*
X186680000Y-103110000D01*
G37*
X186680000Y-106820000D02*
X184900000Y-106820000D01*
X184900000Y-105380000D01*
X186680000Y-105380000D01*
X186680000Y-106820000D01*
G36*
X186680000Y-106820000D02*
G01*
X184900000Y-106820000D01*
X184900000Y-105380000D01*
X186680000Y-105380000D01*
X186680000Y-106820000D01*
G37*
X188880000Y-101060000D02*
X187100000Y-101060000D01*
X187100000Y-99190000D01*
X188880000Y-99190000D01*
X188880000Y-101060000D01*
G36*
X188880000Y-101060000D02*
G01*
X187100000Y-101060000D01*
X187100000Y-99190000D01*
X188880000Y-99190000D01*
X188880000Y-101060000D01*
G37*
X188880000Y-104940000D02*
X187100000Y-104940000D01*
X187100000Y-103500000D01*
X188880000Y-103500000D01*
X188880000Y-104940000D01*
G36*
X188880000Y-104940000D02*
G01*
X187100000Y-104940000D01*
X187100000Y-103500000D01*
X188880000Y-103500000D01*
X188880000Y-104940000D01*
G37*
X188890000Y-103100000D02*
X187110000Y-103100000D01*
X187110000Y-101660000D01*
X188890000Y-101660000D01*
X188890000Y-103100000D01*
G36*
X188890000Y-103100000D02*
G01*
X187110000Y-103100000D01*
X187110000Y-101660000D01*
X188890000Y-101660000D01*
X188890000Y-103100000D01*
G37*
X188890000Y-106810000D02*
X187110000Y-106810000D01*
X187110000Y-105370000D01*
X188890000Y-105370000D01*
X188890000Y-106810000D01*
G36*
X188890000Y-106810000D02*
G01*
X187110000Y-106810000D01*
X187110000Y-105370000D01*
X188890000Y-105370000D01*
X188890000Y-106810000D01*
G37*
X191090000Y-101050000D02*
X189310000Y-101050000D01*
X189310000Y-99180000D01*
X191090000Y-99180000D01*
X191090000Y-101050000D01*
G36*
X191090000Y-101050000D02*
G01*
X189310000Y-101050000D01*
X189310000Y-99180000D01*
X191090000Y-99180000D01*
X191090000Y-101050000D01*
G37*
X191090000Y-104940000D02*
X189310000Y-104940000D01*
X189310000Y-103500000D01*
X191090000Y-103500000D01*
X191090000Y-104940000D01*
G36*
X191090000Y-104940000D02*
G01*
X189310000Y-104940000D01*
X189310000Y-103500000D01*
X191090000Y-103500000D01*
X191090000Y-104940000D01*
G37*
X191100000Y-103100000D02*
X189320000Y-103100000D01*
X189320000Y-101660000D01*
X191100000Y-101660000D01*
X191100000Y-103100000D01*
G36*
X191100000Y-103100000D02*
G01*
X189320000Y-103100000D01*
X189320000Y-101660000D01*
X191100000Y-101660000D01*
X191100000Y-103100000D01*
G37*
X191100000Y-106810000D02*
X189320000Y-106810000D01*
X189320000Y-105370000D01*
X191100000Y-105370000D01*
X191100000Y-106810000D01*
G36*
X191100000Y-106810000D02*
G01*
X189320000Y-106810000D01*
X189320000Y-105370000D01*
X191100000Y-105370000D01*
X191100000Y-106810000D01*
G37*
%TO.C,U4*%
X114670000Y-104950000D02*
X112890000Y-104950000D01*
X112890000Y-103510000D01*
X114670000Y-103510000D01*
X114670000Y-104950000D01*
G36*
X114670000Y-104950000D02*
G01*
X112890000Y-104950000D01*
X112890000Y-103510000D01*
X114670000Y-103510000D01*
X114670000Y-104950000D01*
G37*
X114680000Y-101080000D02*
X112900000Y-101080000D01*
X112900000Y-99200000D01*
X114680000Y-99200000D01*
X114680000Y-101080000D01*
G36*
X114680000Y-101080000D02*
G01*
X112900000Y-101080000D01*
X112900000Y-99200000D01*
X114680000Y-99200000D01*
X114680000Y-101080000D01*
G37*
X114680000Y-103110000D02*
X112900000Y-103110000D01*
X112900000Y-101670000D01*
X114680000Y-101670000D01*
X114680000Y-103110000D01*
G36*
X114680000Y-103110000D02*
G01*
X112900000Y-103110000D01*
X112900000Y-101670000D01*
X114680000Y-101670000D01*
X114680000Y-103110000D01*
G37*
X114680000Y-106820000D02*
X112900000Y-106820000D01*
X112900000Y-105380000D01*
X114680000Y-105380000D01*
X114680000Y-106820000D01*
G36*
X114680000Y-106820000D02*
G01*
X112900000Y-106820000D01*
X112900000Y-105380000D01*
X114680000Y-105380000D01*
X114680000Y-106820000D01*
G37*
X116880000Y-101060000D02*
X115100000Y-101060000D01*
X115100000Y-99190000D01*
X116880000Y-99190000D01*
X116880000Y-101060000D01*
G36*
X116880000Y-101060000D02*
G01*
X115100000Y-101060000D01*
X115100000Y-99190000D01*
X116880000Y-99190000D01*
X116880000Y-101060000D01*
G37*
X116880000Y-104940000D02*
X115100000Y-104940000D01*
X115100000Y-103500000D01*
X116880000Y-103500000D01*
X116880000Y-104940000D01*
G36*
X116880000Y-104940000D02*
G01*
X115100000Y-104940000D01*
X115100000Y-103500000D01*
X116880000Y-103500000D01*
X116880000Y-104940000D01*
G37*
X116890000Y-103100000D02*
X115110000Y-103100000D01*
X115110000Y-101660000D01*
X116890000Y-101660000D01*
X116890000Y-103100000D01*
G36*
X116890000Y-103100000D02*
G01*
X115110000Y-103100000D01*
X115110000Y-101660000D01*
X116890000Y-101660000D01*
X116890000Y-103100000D01*
G37*
X116890000Y-106810000D02*
X115110000Y-106810000D01*
X115110000Y-105370000D01*
X116890000Y-105370000D01*
X116890000Y-106810000D01*
G36*
X116890000Y-106810000D02*
G01*
X115110000Y-106810000D01*
X115110000Y-105370000D01*
X116890000Y-105370000D01*
X116890000Y-106810000D01*
G37*
X119090000Y-101050000D02*
X117310000Y-101050000D01*
X117310000Y-99180000D01*
X119090000Y-99180000D01*
X119090000Y-101050000D01*
G36*
X119090000Y-101050000D02*
G01*
X117310000Y-101050000D01*
X117310000Y-99180000D01*
X119090000Y-99180000D01*
X119090000Y-101050000D01*
G37*
X119090000Y-104940000D02*
X117310000Y-104940000D01*
X117310000Y-103500000D01*
X119090000Y-103500000D01*
X119090000Y-104940000D01*
G36*
X119090000Y-104940000D02*
G01*
X117310000Y-104940000D01*
X117310000Y-103500000D01*
X119090000Y-103500000D01*
X119090000Y-104940000D01*
G37*
X119100000Y-103100000D02*
X117320000Y-103100000D01*
X117320000Y-101660000D01*
X119100000Y-101660000D01*
X119100000Y-103100000D01*
G36*
X119100000Y-103100000D02*
G01*
X117320000Y-103100000D01*
X117320000Y-101660000D01*
X119100000Y-101660000D01*
X119100000Y-103100000D01*
G37*
X119100000Y-106810000D02*
X117320000Y-106810000D01*
X117320000Y-105370000D01*
X119100000Y-105370000D01*
X119100000Y-106810000D01*
G36*
X119100000Y-106810000D02*
G01*
X117320000Y-106810000D01*
X117320000Y-105370000D01*
X119100000Y-105370000D01*
X119100000Y-106810000D01*
G37*
%TO.C,U8*%
X136900000Y-68190000D02*
X138680000Y-68190000D01*
X138680000Y-69630000D01*
X136900000Y-69630000D01*
X136900000Y-68190000D01*
G36*
X136900000Y-68190000D02*
G01*
X138680000Y-68190000D01*
X138680000Y-69630000D01*
X136900000Y-69630000D01*
X136900000Y-68190000D01*
G37*
X136900000Y-71900000D02*
X138680000Y-71900000D01*
X138680000Y-73340000D01*
X136900000Y-73340000D01*
X136900000Y-71900000D01*
G36*
X136900000Y-71900000D02*
G01*
X138680000Y-71900000D01*
X138680000Y-73340000D01*
X136900000Y-73340000D01*
X136900000Y-71900000D01*
G37*
X136910000Y-70060000D02*
X138690000Y-70060000D01*
X138690000Y-71500000D01*
X136910000Y-71500000D01*
X136910000Y-70060000D01*
G36*
X136910000Y-70060000D02*
G01*
X138690000Y-70060000D01*
X138690000Y-71500000D01*
X136910000Y-71500000D01*
X136910000Y-70060000D01*
G37*
X136910000Y-73950000D02*
X138690000Y-73950000D01*
X138690000Y-75820000D01*
X136910000Y-75820000D01*
X136910000Y-73950000D01*
G36*
X136910000Y-73950000D02*
G01*
X138690000Y-73950000D01*
X138690000Y-75820000D01*
X136910000Y-75820000D01*
X136910000Y-73950000D01*
G37*
X139110000Y-68190000D02*
X140890000Y-68190000D01*
X140890000Y-69630000D01*
X139110000Y-69630000D01*
X139110000Y-68190000D01*
G36*
X139110000Y-68190000D02*
G01*
X140890000Y-68190000D01*
X140890000Y-69630000D01*
X139110000Y-69630000D01*
X139110000Y-68190000D01*
G37*
X139110000Y-71900000D02*
X140890000Y-71900000D01*
X140890000Y-73340000D01*
X139110000Y-73340000D01*
X139110000Y-71900000D01*
G36*
X139110000Y-71900000D02*
G01*
X140890000Y-71900000D01*
X140890000Y-73340000D01*
X139110000Y-73340000D01*
X139110000Y-71900000D01*
G37*
X139120000Y-70060000D02*
X140900000Y-70060000D01*
X140900000Y-71500000D01*
X139120000Y-71500000D01*
X139120000Y-70060000D01*
G36*
X139120000Y-70060000D02*
G01*
X140900000Y-70060000D01*
X140900000Y-71500000D01*
X139120000Y-71500000D01*
X139120000Y-70060000D01*
G37*
X139120000Y-73940000D02*
X140900000Y-73940000D01*
X140900000Y-75810000D01*
X139120000Y-75810000D01*
X139120000Y-73940000D01*
G36*
X139120000Y-73940000D02*
G01*
X140900000Y-73940000D01*
X140900000Y-75810000D01*
X139120000Y-75810000D01*
X139120000Y-73940000D01*
G37*
X141320000Y-68180000D02*
X143100000Y-68180000D01*
X143100000Y-69620000D01*
X141320000Y-69620000D01*
X141320000Y-68180000D01*
G36*
X141320000Y-68180000D02*
G01*
X143100000Y-68180000D01*
X143100000Y-69620000D01*
X141320000Y-69620000D01*
X141320000Y-68180000D01*
G37*
X141320000Y-71890000D02*
X143100000Y-71890000D01*
X143100000Y-73330000D01*
X141320000Y-73330000D01*
X141320000Y-71890000D01*
G36*
X141320000Y-71890000D02*
G01*
X143100000Y-71890000D01*
X143100000Y-73330000D01*
X141320000Y-73330000D01*
X141320000Y-71890000D01*
G37*
X141320000Y-73920000D02*
X143100000Y-73920000D01*
X143100000Y-75800000D01*
X141320000Y-75800000D01*
X141320000Y-73920000D01*
G36*
X141320000Y-73920000D02*
G01*
X143100000Y-73920000D01*
X143100000Y-75800000D01*
X141320000Y-75800000D01*
X141320000Y-73920000D01*
G37*
X141330000Y-70050000D02*
X143110000Y-70050000D01*
X143110000Y-71490000D01*
X141330000Y-71490000D01*
X141330000Y-70050000D01*
G36*
X141330000Y-70050000D02*
G01*
X143110000Y-70050000D01*
X143110000Y-71490000D01*
X141330000Y-71490000D01*
X141330000Y-70050000D01*
G37*
%TO.C,U13*%
X88900000Y-68190000D02*
X90680000Y-68190000D01*
X90680000Y-69630000D01*
X88900000Y-69630000D01*
X88900000Y-68190000D01*
G36*
X88900000Y-68190000D02*
G01*
X90680000Y-68190000D01*
X90680000Y-69630000D01*
X88900000Y-69630000D01*
X88900000Y-68190000D01*
G37*
X88900000Y-71900000D02*
X90680000Y-71900000D01*
X90680000Y-73340000D01*
X88900000Y-73340000D01*
X88900000Y-71900000D01*
G36*
X88900000Y-71900000D02*
G01*
X90680000Y-71900000D01*
X90680000Y-73340000D01*
X88900000Y-73340000D01*
X88900000Y-71900000D01*
G37*
X88910000Y-70060000D02*
X90690000Y-70060000D01*
X90690000Y-71500000D01*
X88910000Y-71500000D01*
X88910000Y-70060000D01*
G36*
X88910000Y-70060000D02*
G01*
X90690000Y-70060000D01*
X90690000Y-71500000D01*
X88910000Y-71500000D01*
X88910000Y-70060000D01*
G37*
X88910000Y-73950000D02*
X90690000Y-73950000D01*
X90690000Y-75820000D01*
X88910000Y-75820000D01*
X88910000Y-73950000D01*
G36*
X88910000Y-73950000D02*
G01*
X90690000Y-73950000D01*
X90690000Y-75820000D01*
X88910000Y-75820000D01*
X88910000Y-73950000D01*
G37*
X91110000Y-68190000D02*
X92890000Y-68190000D01*
X92890000Y-69630000D01*
X91110000Y-69630000D01*
X91110000Y-68190000D01*
G36*
X91110000Y-68190000D02*
G01*
X92890000Y-68190000D01*
X92890000Y-69630000D01*
X91110000Y-69630000D01*
X91110000Y-68190000D01*
G37*
X91110000Y-71900000D02*
X92890000Y-71900000D01*
X92890000Y-73340000D01*
X91110000Y-73340000D01*
X91110000Y-71900000D01*
G36*
X91110000Y-71900000D02*
G01*
X92890000Y-71900000D01*
X92890000Y-73340000D01*
X91110000Y-73340000D01*
X91110000Y-71900000D01*
G37*
X91120000Y-70060000D02*
X92900000Y-70060000D01*
X92900000Y-71500000D01*
X91120000Y-71500000D01*
X91120000Y-70060000D01*
G36*
X91120000Y-70060000D02*
G01*
X92900000Y-70060000D01*
X92900000Y-71500000D01*
X91120000Y-71500000D01*
X91120000Y-70060000D01*
G37*
X91120000Y-73940000D02*
X92900000Y-73940000D01*
X92900000Y-75810000D01*
X91120000Y-75810000D01*
X91120000Y-73940000D01*
G36*
X91120000Y-73940000D02*
G01*
X92900000Y-73940000D01*
X92900000Y-75810000D01*
X91120000Y-75810000D01*
X91120000Y-73940000D01*
G37*
X93320000Y-68180000D02*
X95100000Y-68180000D01*
X95100000Y-69620000D01*
X93320000Y-69620000D01*
X93320000Y-68180000D01*
G36*
X93320000Y-68180000D02*
G01*
X95100000Y-68180000D01*
X95100000Y-69620000D01*
X93320000Y-69620000D01*
X93320000Y-68180000D01*
G37*
X93320000Y-71890000D02*
X95100000Y-71890000D01*
X95100000Y-73330000D01*
X93320000Y-73330000D01*
X93320000Y-71890000D01*
G36*
X93320000Y-71890000D02*
G01*
X95100000Y-71890000D01*
X95100000Y-73330000D01*
X93320000Y-73330000D01*
X93320000Y-71890000D01*
G37*
X93320000Y-73920000D02*
X95100000Y-73920000D01*
X95100000Y-75800000D01*
X93320000Y-75800000D01*
X93320000Y-73920000D01*
G36*
X93320000Y-73920000D02*
G01*
X95100000Y-73920000D01*
X95100000Y-75800000D01*
X93320000Y-75800000D01*
X93320000Y-73920000D01*
G37*
X93330000Y-70050000D02*
X95110000Y-70050000D01*
X95110000Y-71490000D01*
X93330000Y-71490000D01*
X93330000Y-70050000D01*
G36*
X93330000Y-70050000D02*
G01*
X95110000Y-70050000D01*
X95110000Y-71490000D01*
X93330000Y-71490000D01*
X93330000Y-70050000D01*
G37*
%TO.C,U9*%
X162670000Y-104950000D02*
X160890000Y-104950000D01*
X160890000Y-103510000D01*
X162670000Y-103510000D01*
X162670000Y-104950000D01*
G36*
X162670000Y-104950000D02*
G01*
X160890000Y-104950000D01*
X160890000Y-103510000D01*
X162670000Y-103510000D01*
X162670000Y-104950000D01*
G37*
X162680000Y-101080000D02*
X160900000Y-101080000D01*
X160900000Y-99200000D01*
X162680000Y-99200000D01*
X162680000Y-101080000D01*
G36*
X162680000Y-101080000D02*
G01*
X160900000Y-101080000D01*
X160900000Y-99200000D01*
X162680000Y-99200000D01*
X162680000Y-101080000D01*
G37*
X162680000Y-103110000D02*
X160900000Y-103110000D01*
X160900000Y-101670000D01*
X162680000Y-101670000D01*
X162680000Y-103110000D01*
G36*
X162680000Y-103110000D02*
G01*
X160900000Y-103110000D01*
X160900000Y-101670000D01*
X162680000Y-101670000D01*
X162680000Y-103110000D01*
G37*
X162680000Y-106820000D02*
X160900000Y-106820000D01*
X160900000Y-105380000D01*
X162680000Y-105380000D01*
X162680000Y-106820000D01*
G36*
X162680000Y-106820000D02*
G01*
X160900000Y-106820000D01*
X160900000Y-105380000D01*
X162680000Y-105380000D01*
X162680000Y-106820000D01*
G37*
X164880000Y-101060000D02*
X163100000Y-101060000D01*
X163100000Y-99190000D01*
X164880000Y-99190000D01*
X164880000Y-101060000D01*
G36*
X164880000Y-101060000D02*
G01*
X163100000Y-101060000D01*
X163100000Y-99190000D01*
X164880000Y-99190000D01*
X164880000Y-101060000D01*
G37*
X164880000Y-104940000D02*
X163100000Y-104940000D01*
X163100000Y-103500000D01*
X164880000Y-103500000D01*
X164880000Y-104940000D01*
G36*
X164880000Y-104940000D02*
G01*
X163100000Y-104940000D01*
X163100000Y-103500000D01*
X164880000Y-103500000D01*
X164880000Y-104940000D01*
G37*
X164890000Y-103100000D02*
X163110000Y-103100000D01*
X163110000Y-101660000D01*
X164890000Y-101660000D01*
X164890000Y-103100000D01*
G36*
X164890000Y-103100000D02*
G01*
X163110000Y-103100000D01*
X163110000Y-101660000D01*
X164890000Y-101660000D01*
X164890000Y-103100000D01*
G37*
X164890000Y-106810000D02*
X163110000Y-106810000D01*
X163110000Y-105370000D01*
X164890000Y-105370000D01*
X164890000Y-106810000D01*
G36*
X164890000Y-106810000D02*
G01*
X163110000Y-106810000D01*
X163110000Y-105370000D01*
X164890000Y-105370000D01*
X164890000Y-106810000D01*
G37*
X167090000Y-101050000D02*
X165310000Y-101050000D01*
X165310000Y-99180000D01*
X167090000Y-99180000D01*
X167090000Y-101050000D01*
G36*
X167090000Y-101050000D02*
G01*
X165310000Y-101050000D01*
X165310000Y-99180000D01*
X167090000Y-99180000D01*
X167090000Y-101050000D01*
G37*
X167090000Y-104940000D02*
X165310000Y-104940000D01*
X165310000Y-103500000D01*
X167090000Y-103500000D01*
X167090000Y-104940000D01*
G36*
X167090000Y-104940000D02*
G01*
X165310000Y-104940000D01*
X165310000Y-103500000D01*
X167090000Y-103500000D01*
X167090000Y-104940000D01*
G37*
X167100000Y-103100000D02*
X165320000Y-103100000D01*
X165320000Y-101660000D01*
X167100000Y-101660000D01*
X167100000Y-103100000D01*
G36*
X167100000Y-103100000D02*
G01*
X165320000Y-103100000D01*
X165320000Y-101660000D01*
X167100000Y-101660000D01*
X167100000Y-103100000D01*
G37*
X167100000Y-106810000D02*
X165320000Y-106810000D01*
X165320000Y-105370000D01*
X167100000Y-105370000D01*
X167100000Y-106810000D01*
G36*
X167100000Y-106810000D02*
G01*
X165320000Y-106810000D01*
X165320000Y-105370000D01*
X167100000Y-105370000D01*
X167100000Y-106810000D01*
G37*
%TO.C,U5*%
X90670000Y-104950000D02*
X88890000Y-104950000D01*
X88890000Y-103510000D01*
X90670000Y-103510000D01*
X90670000Y-104950000D01*
G36*
X90670000Y-104950000D02*
G01*
X88890000Y-104950000D01*
X88890000Y-103510000D01*
X90670000Y-103510000D01*
X90670000Y-104950000D01*
G37*
X90680000Y-101080000D02*
X88900000Y-101080000D01*
X88900000Y-99200000D01*
X90680000Y-99200000D01*
X90680000Y-101080000D01*
G36*
X90680000Y-101080000D02*
G01*
X88900000Y-101080000D01*
X88900000Y-99200000D01*
X90680000Y-99200000D01*
X90680000Y-101080000D01*
G37*
X90680000Y-103110000D02*
X88900000Y-103110000D01*
X88900000Y-101670000D01*
X90680000Y-101670000D01*
X90680000Y-103110000D01*
G36*
X90680000Y-103110000D02*
G01*
X88900000Y-103110000D01*
X88900000Y-101670000D01*
X90680000Y-101670000D01*
X90680000Y-103110000D01*
G37*
X90680000Y-106820000D02*
X88900000Y-106820000D01*
X88900000Y-105380000D01*
X90680000Y-105380000D01*
X90680000Y-106820000D01*
G36*
X90680000Y-106820000D02*
G01*
X88900000Y-106820000D01*
X88900000Y-105380000D01*
X90680000Y-105380000D01*
X90680000Y-106820000D01*
G37*
X92880000Y-101060000D02*
X91100000Y-101060000D01*
X91100000Y-99190000D01*
X92880000Y-99190000D01*
X92880000Y-101060000D01*
G36*
X92880000Y-101060000D02*
G01*
X91100000Y-101060000D01*
X91100000Y-99190000D01*
X92880000Y-99190000D01*
X92880000Y-101060000D01*
G37*
X92880000Y-104940000D02*
X91100000Y-104940000D01*
X91100000Y-103500000D01*
X92880000Y-103500000D01*
X92880000Y-104940000D01*
G36*
X92880000Y-104940000D02*
G01*
X91100000Y-104940000D01*
X91100000Y-103500000D01*
X92880000Y-103500000D01*
X92880000Y-104940000D01*
G37*
X92890000Y-103100000D02*
X91110000Y-103100000D01*
X91110000Y-101660000D01*
X92890000Y-101660000D01*
X92890000Y-103100000D01*
G36*
X92890000Y-103100000D02*
G01*
X91110000Y-103100000D01*
X91110000Y-101660000D01*
X92890000Y-101660000D01*
X92890000Y-103100000D01*
G37*
X92890000Y-106810000D02*
X91110000Y-106810000D01*
X91110000Y-105370000D01*
X92890000Y-105370000D01*
X92890000Y-106810000D01*
G36*
X92890000Y-106810000D02*
G01*
X91110000Y-106810000D01*
X91110000Y-105370000D01*
X92890000Y-105370000D01*
X92890000Y-106810000D01*
G37*
X95090000Y-101050000D02*
X93310000Y-101050000D01*
X93310000Y-99180000D01*
X95090000Y-99180000D01*
X95090000Y-101050000D01*
G36*
X95090000Y-101050000D02*
G01*
X93310000Y-101050000D01*
X93310000Y-99180000D01*
X95090000Y-99180000D01*
X95090000Y-101050000D01*
G37*
X95090000Y-104940000D02*
X93310000Y-104940000D01*
X93310000Y-103500000D01*
X95090000Y-103500000D01*
X95090000Y-104940000D01*
G36*
X95090000Y-104940000D02*
G01*
X93310000Y-104940000D01*
X93310000Y-103500000D01*
X95090000Y-103500000D01*
X95090000Y-104940000D01*
G37*
X95100000Y-103100000D02*
X93320000Y-103100000D01*
X93320000Y-101660000D01*
X95100000Y-101660000D01*
X95100000Y-103100000D01*
G36*
X95100000Y-103100000D02*
G01*
X93320000Y-103100000D01*
X93320000Y-101660000D01*
X95100000Y-101660000D01*
X95100000Y-103100000D01*
G37*
X95100000Y-106810000D02*
X93320000Y-106810000D01*
X93320000Y-105370000D01*
X95100000Y-105370000D01*
X95100000Y-106810000D01*
G36*
X95100000Y-106810000D02*
G01*
X93320000Y-106810000D01*
X93320000Y-105370000D01*
X95100000Y-105370000D01*
X95100000Y-106810000D01*
G37*
%TO.C,U11*%
X112900000Y-68190000D02*
X114680000Y-68190000D01*
X114680000Y-69630000D01*
X112900000Y-69630000D01*
X112900000Y-68190000D01*
G36*
X112900000Y-68190000D02*
G01*
X114680000Y-68190000D01*
X114680000Y-69630000D01*
X112900000Y-69630000D01*
X112900000Y-68190000D01*
G37*
X112900000Y-71900000D02*
X114680000Y-71900000D01*
X114680000Y-73340000D01*
X112900000Y-73340000D01*
X112900000Y-71900000D01*
G36*
X112900000Y-71900000D02*
G01*
X114680000Y-71900000D01*
X114680000Y-73340000D01*
X112900000Y-73340000D01*
X112900000Y-71900000D01*
G37*
X112910000Y-70060000D02*
X114690000Y-70060000D01*
X114690000Y-71500000D01*
X112910000Y-71500000D01*
X112910000Y-70060000D01*
G36*
X112910000Y-70060000D02*
G01*
X114690000Y-70060000D01*
X114690000Y-71500000D01*
X112910000Y-71500000D01*
X112910000Y-70060000D01*
G37*
X112910000Y-73950000D02*
X114690000Y-73950000D01*
X114690000Y-75820000D01*
X112910000Y-75820000D01*
X112910000Y-73950000D01*
G36*
X112910000Y-73950000D02*
G01*
X114690000Y-73950000D01*
X114690000Y-75820000D01*
X112910000Y-75820000D01*
X112910000Y-73950000D01*
G37*
X115110000Y-68190000D02*
X116890000Y-68190000D01*
X116890000Y-69630000D01*
X115110000Y-69630000D01*
X115110000Y-68190000D01*
G36*
X115110000Y-68190000D02*
G01*
X116890000Y-68190000D01*
X116890000Y-69630000D01*
X115110000Y-69630000D01*
X115110000Y-68190000D01*
G37*
X115110000Y-71900000D02*
X116890000Y-71900000D01*
X116890000Y-73340000D01*
X115110000Y-73340000D01*
X115110000Y-71900000D01*
G36*
X115110000Y-71900000D02*
G01*
X116890000Y-71900000D01*
X116890000Y-73340000D01*
X115110000Y-73340000D01*
X115110000Y-71900000D01*
G37*
X115120000Y-70060000D02*
X116900000Y-70060000D01*
X116900000Y-71500000D01*
X115120000Y-71500000D01*
X115120000Y-70060000D01*
G36*
X115120000Y-70060000D02*
G01*
X116900000Y-70060000D01*
X116900000Y-71500000D01*
X115120000Y-71500000D01*
X115120000Y-70060000D01*
G37*
X115120000Y-73940000D02*
X116900000Y-73940000D01*
X116900000Y-75810000D01*
X115120000Y-75810000D01*
X115120000Y-73940000D01*
G36*
X115120000Y-73940000D02*
G01*
X116900000Y-73940000D01*
X116900000Y-75810000D01*
X115120000Y-75810000D01*
X115120000Y-73940000D01*
G37*
X117320000Y-68180000D02*
X119100000Y-68180000D01*
X119100000Y-69620000D01*
X117320000Y-69620000D01*
X117320000Y-68180000D01*
G36*
X117320000Y-68180000D02*
G01*
X119100000Y-68180000D01*
X119100000Y-69620000D01*
X117320000Y-69620000D01*
X117320000Y-68180000D01*
G37*
X117320000Y-71890000D02*
X119100000Y-71890000D01*
X119100000Y-73330000D01*
X117320000Y-73330000D01*
X117320000Y-71890000D01*
G36*
X117320000Y-71890000D02*
G01*
X119100000Y-71890000D01*
X119100000Y-73330000D01*
X117320000Y-73330000D01*
X117320000Y-71890000D01*
G37*
X117320000Y-73920000D02*
X119100000Y-73920000D01*
X119100000Y-75800000D01*
X117320000Y-75800000D01*
X117320000Y-73920000D01*
G36*
X117320000Y-73920000D02*
G01*
X119100000Y-73920000D01*
X119100000Y-75800000D01*
X117320000Y-75800000D01*
X117320000Y-73920000D01*
G37*
X117330000Y-70050000D02*
X119110000Y-70050000D01*
X119110000Y-71490000D01*
X117330000Y-71490000D01*
X117330000Y-70050000D01*
G36*
X117330000Y-70050000D02*
G01*
X119110000Y-70050000D01*
X119110000Y-71490000D01*
X117330000Y-71490000D01*
X117330000Y-70050000D01*
G37*
%TO.C,U6*%
X160900000Y-68190000D02*
X162680000Y-68190000D01*
X162680000Y-69630000D01*
X160900000Y-69630000D01*
X160900000Y-68190000D01*
G36*
X160900000Y-68190000D02*
G01*
X162680000Y-68190000D01*
X162680000Y-69630000D01*
X160900000Y-69630000D01*
X160900000Y-68190000D01*
G37*
X160900000Y-71900000D02*
X162680000Y-71900000D01*
X162680000Y-73340000D01*
X160900000Y-73340000D01*
X160900000Y-71900000D01*
G36*
X160900000Y-71900000D02*
G01*
X162680000Y-71900000D01*
X162680000Y-73340000D01*
X160900000Y-73340000D01*
X160900000Y-71900000D01*
G37*
X160910000Y-70060000D02*
X162690000Y-70060000D01*
X162690000Y-71500000D01*
X160910000Y-71500000D01*
X160910000Y-70060000D01*
G36*
X160910000Y-70060000D02*
G01*
X162690000Y-70060000D01*
X162690000Y-71500000D01*
X160910000Y-71500000D01*
X160910000Y-70060000D01*
G37*
X160910000Y-73950000D02*
X162690000Y-73950000D01*
X162690000Y-75820000D01*
X160910000Y-75820000D01*
X160910000Y-73950000D01*
G36*
X160910000Y-73950000D02*
G01*
X162690000Y-73950000D01*
X162690000Y-75820000D01*
X160910000Y-75820000D01*
X160910000Y-73950000D01*
G37*
X163110000Y-68190000D02*
X164890000Y-68190000D01*
X164890000Y-69630000D01*
X163110000Y-69630000D01*
X163110000Y-68190000D01*
G36*
X163110000Y-68190000D02*
G01*
X164890000Y-68190000D01*
X164890000Y-69630000D01*
X163110000Y-69630000D01*
X163110000Y-68190000D01*
G37*
X163110000Y-71900000D02*
X164890000Y-71900000D01*
X164890000Y-73340000D01*
X163110000Y-73340000D01*
X163110000Y-71900000D01*
G36*
X163110000Y-71900000D02*
G01*
X164890000Y-71900000D01*
X164890000Y-73340000D01*
X163110000Y-73340000D01*
X163110000Y-71900000D01*
G37*
X163120000Y-70060000D02*
X164900000Y-70060000D01*
X164900000Y-71500000D01*
X163120000Y-71500000D01*
X163120000Y-70060000D01*
G36*
X163120000Y-70060000D02*
G01*
X164900000Y-70060000D01*
X164900000Y-71500000D01*
X163120000Y-71500000D01*
X163120000Y-70060000D01*
G37*
X163120000Y-73940000D02*
X164900000Y-73940000D01*
X164900000Y-75810000D01*
X163120000Y-75810000D01*
X163120000Y-73940000D01*
G36*
X163120000Y-73940000D02*
G01*
X164900000Y-73940000D01*
X164900000Y-75810000D01*
X163120000Y-75810000D01*
X163120000Y-73940000D01*
G37*
X165320000Y-68180000D02*
X167100000Y-68180000D01*
X167100000Y-69620000D01*
X165320000Y-69620000D01*
X165320000Y-68180000D01*
G36*
X165320000Y-68180000D02*
G01*
X167100000Y-68180000D01*
X167100000Y-69620000D01*
X165320000Y-69620000D01*
X165320000Y-68180000D01*
G37*
X165320000Y-71890000D02*
X167100000Y-71890000D01*
X167100000Y-73330000D01*
X165320000Y-73330000D01*
X165320000Y-71890000D01*
G36*
X165320000Y-71890000D02*
G01*
X167100000Y-71890000D01*
X167100000Y-73330000D01*
X165320000Y-73330000D01*
X165320000Y-71890000D01*
G37*
X165320000Y-73920000D02*
X167100000Y-73920000D01*
X167100000Y-75800000D01*
X165320000Y-75800000D01*
X165320000Y-73920000D01*
G36*
X165320000Y-73920000D02*
G01*
X167100000Y-73920000D01*
X167100000Y-75800000D01*
X165320000Y-75800000D01*
X165320000Y-73920000D01*
G37*
X165330000Y-70050000D02*
X167110000Y-70050000D01*
X167110000Y-71490000D01*
X165330000Y-71490000D01*
X165330000Y-70050000D01*
G36*
X165330000Y-70050000D02*
G01*
X167110000Y-70050000D01*
X167110000Y-71490000D01*
X165330000Y-71490000D01*
X165330000Y-70050000D01*
G37*
%TO.C,U7*%
X138670000Y-104950000D02*
X136890000Y-104950000D01*
X136890000Y-103510000D01*
X138670000Y-103510000D01*
X138670000Y-104950000D01*
G36*
X138670000Y-104950000D02*
G01*
X136890000Y-104950000D01*
X136890000Y-103510000D01*
X138670000Y-103510000D01*
X138670000Y-104950000D01*
G37*
X138680000Y-101080000D02*
X136900000Y-101080000D01*
X136900000Y-99200000D01*
X138680000Y-99200000D01*
X138680000Y-101080000D01*
G36*
X138680000Y-101080000D02*
G01*
X136900000Y-101080000D01*
X136900000Y-99200000D01*
X138680000Y-99200000D01*
X138680000Y-101080000D01*
G37*
X138680000Y-103110000D02*
X136900000Y-103110000D01*
X136900000Y-101670000D01*
X138680000Y-101670000D01*
X138680000Y-103110000D01*
G36*
X138680000Y-103110000D02*
G01*
X136900000Y-103110000D01*
X136900000Y-101670000D01*
X138680000Y-101670000D01*
X138680000Y-103110000D01*
G37*
X138680000Y-106820000D02*
X136900000Y-106820000D01*
X136900000Y-105380000D01*
X138680000Y-105380000D01*
X138680000Y-106820000D01*
G36*
X138680000Y-106820000D02*
G01*
X136900000Y-106820000D01*
X136900000Y-105380000D01*
X138680000Y-105380000D01*
X138680000Y-106820000D01*
G37*
X140880000Y-101060000D02*
X139100000Y-101060000D01*
X139100000Y-99190000D01*
X140880000Y-99190000D01*
X140880000Y-101060000D01*
G36*
X140880000Y-101060000D02*
G01*
X139100000Y-101060000D01*
X139100000Y-99190000D01*
X140880000Y-99190000D01*
X140880000Y-101060000D01*
G37*
X140880000Y-104940000D02*
X139100000Y-104940000D01*
X139100000Y-103500000D01*
X140880000Y-103500000D01*
X140880000Y-104940000D01*
G36*
X140880000Y-104940000D02*
G01*
X139100000Y-104940000D01*
X139100000Y-103500000D01*
X140880000Y-103500000D01*
X140880000Y-104940000D01*
G37*
X140890000Y-103100000D02*
X139110000Y-103100000D01*
X139110000Y-101660000D01*
X140890000Y-101660000D01*
X140890000Y-103100000D01*
G36*
X140890000Y-103100000D02*
G01*
X139110000Y-103100000D01*
X139110000Y-101660000D01*
X140890000Y-101660000D01*
X140890000Y-103100000D01*
G37*
X140890000Y-106810000D02*
X139110000Y-106810000D01*
X139110000Y-105370000D01*
X140890000Y-105370000D01*
X140890000Y-106810000D01*
G36*
X140890000Y-106810000D02*
G01*
X139110000Y-106810000D01*
X139110000Y-105370000D01*
X140890000Y-105370000D01*
X140890000Y-106810000D01*
G37*
X143090000Y-101050000D02*
X141310000Y-101050000D01*
X141310000Y-99180000D01*
X143090000Y-99180000D01*
X143090000Y-101050000D01*
G36*
X143090000Y-101050000D02*
G01*
X141310000Y-101050000D01*
X141310000Y-99180000D01*
X143090000Y-99180000D01*
X143090000Y-101050000D01*
G37*
X143090000Y-104940000D02*
X141310000Y-104940000D01*
X141310000Y-103500000D01*
X143090000Y-103500000D01*
X143090000Y-104940000D01*
G36*
X143090000Y-104940000D02*
G01*
X141310000Y-104940000D01*
X141310000Y-103500000D01*
X143090000Y-103500000D01*
X143090000Y-104940000D01*
G37*
X143100000Y-103100000D02*
X141320000Y-103100000D01*
X141320000Y-101660000D01*
X143100000Y-101660000D01*
X143100000Y-103100000D01*
G36*
X143100000Y-103100000D02*
G01*
X141320000Y-103100000D01*
X141320000Y-101660000D01*
X143100000Y-101660000D01*
X143100000Y-103100000D01*
G37*
X143100000Y-106810000D02*
X141320000Y-106810000D01*
X141320000Y-105370000D01*
X143100000Y-105370000D01*
X143100000Y-106810000D01*
G36*
X143100000Y-106810000D02*
G01*
X141320000Y-106810000D01*
X141320000Y-105370000D01*
X143100000Y-105370000D01*
X143100000Y-106810000D01*
G37*
%TD*%
D11*
%TO.C,C158*%
X194500000Y-107020000D03*
X194500000Y-107980000D03*
%TD*%
D12*
%TO.C,H6*%
X92000000Y-115000000D03*
%TD*%
D11*
%TO.C,C98*%
X158900000Y-97220000D03*
X158900000Y-98180000D03*
%TD*%
D13*
%TO.C,R29*%
X81508000Y-104506000D03*
X82528000Y-104506000D03*
%TD*%
D14*
%TO.C,C142*%
X184980000Y-96200000D03*
X184020000Y-96200000D03*
%TD*%
D13*
%TO.C,R45*%
X193490000Y-102000000D03*
X194510000Y-102000000D03*
%TD*%
D15*
%TO.C,C56*%
X157500001Y-67980000D03*
X157500001Y-67020000D03*
%TD*%
D14*
%TO.C,C109*%
X184980000Y-78800000D03*
X184020000Y-78800000D03*
%TD*%
D15*
%TO.C,C69*%
X147300000Y-98180000D03*
X147300000Y-97220000D03*
%TD*%
D11*
%TO.C,C22*%
X122500000Y-107020000D03*
X122500000Y-107980000D03*
%TD*%
D16*
%TO.C,R40*%
X110510000Y-72999999D03*
X109490000Y-72999999D03*
%TD*%
D17*
%TO.C,C125*%
X119019999Y-78800000D03*
X119979999Y-78800000D03*
%TD*%
D15*
%TO.C,C141*%
X109500001Y-67980000D03*
X109500001Y-67020000D03*
%TD*%
%TO.C,C139*%
X121500000Y-67980001D03*
X121500000Y-67020001D03*
%TD*%
D11*
%TO.C,C64*%
X134900000Y-97220000D03*
X134900000Y-98180000D03*
%TD*%
%TO.C,C118*%
X182900000Y-76819999D03*
X182900000Y-77779999D03*
%TD*%
D14*
%TO.C,C93*%
X160980000Y-95200000D03*
X160020000Y-95200000D03*
%TD*%
D18*
%TO.C,U10*%
X191916000Y-75514000D03*
X191916000Y-75012000D03*
X191916000Y-74510000D03*
X191916000Y-74008000D03*
X191916000Y-73506000D03*
X191916000Y-73004000D03*
X191916000Y-72502000D03*
X191916000Y-72000000D03*
X191916000Y-71498000D03*
X191916000Y-70996000D03*
X191916000Y-70494000D03*
X191916000Y-69992000D03*
X191916000Y-69490000D03*
X191916000Y-68988000D03*
X191916000Y-68486000D03*
X184084000Y-68486000D03*
X184084000Y-68988000D03*
X184084000Y-69490000D03*
X184084000Y-69992000D03*
X184084000Y-70494000D03*
X184084000Y-70996000D03*
X184084000Y-71498000D03*
X184084000Y-72000000D03*
X184084000Y-72502000D03*
X184084000Y-73004000D03*
X184084000Y-73506000D03*
X184084000Y-74008000D03*
X184084000Y-74510000D03*
X184084000Y-75012000D03*
X184084000Y-75514000D03*
%TD*%
D15*
%TO.C,C152*%
X193100000Y-98180000D03*
X193100000Y-97220000D03*
%TD*%
D17*
%TO.C,C58*%
X143020000Y-96200000D03*
X143980000Y-96200000D03*
%TD*%
D11*
%TO.C,C20*%
X110500000Y-107020000D03*
X110500000Y-107980000D03*
%TD*%
D15*
%TO.C,C88*%
X145500000Y-67980001D03*
X145500000Y-67020001D03*
%TD*%
%TO.C,C124*%
X181500001Y-67980000D03*
X181500001Y-67020000D03*
%TD*%
D17*
%TO.C,C159*%
X95019999Y-78800000D03*
X95979999Y-78800000D03*
%TD*%
D13*
%TO.C,R44*%
X121490000Y-70500001D03*
X122510000Y-70500001D03*
%TD*%
D15*
%TO.C,C138*%
X122500000Y-67980001D03*
X122500000Y-67020001D03*
%TD*%
D11*
%TO.C,C148*%
X181800000Y-97220000D03*
X181800000Y-98180000D03*
%TD*%
D15*
%TO.C,C166*%
X97099999Y-77780000D03*
X97099999Y-76820000D03*
%TD*%
D14*
%TO.C,C8*%
X112980000Y-95200000D03*
X112020000Y-95200000D03*
%TD*%
D11*
%TO.C,C19*%
X109500000Y-107020000D03*
X109500000Y-107980000D03*
%TD*%
D17*
%TO.C,C66*%
X143020000Y-97200000D03*
X143980000Y-97200000D03*
%TD*%
D14*
%TO.C,C167*%
X95979999Y-77800000D03*
X95019999Y-77800000D03*
%TD*%
%TO.C,C6*%
X112980000Y-96200000D03*
X112020000Y-96200000D03*
%TD*%
D16*
%TO.C,R49*%
X182510000Y-104500000D03*
X181490000Y-104500000D03*
%TD*%
D11*
%TO.C,C11*%
X108700000Y-97220000D03*
X108700000Y-98180000D03*
%TD*%
D15*
%TO.C,C140*%
X110500001Y-67980000D03*
X110500001Y-67020000D03*
%TD*%
D19*
%TO.C,U12*%
X184084000Y-99486000D03*
X184084000Y-99988000D03*
X184084000Y-100490000D03*
X184084000Y-100992000D03*
X184084000Y-101494000D03*
X184084000Y-101996000D03*
X184084000Y-102498000D03*
X184084000Y-103000000D03*
X184084000Y-103502000D03*
X184084000Y-104004000D03*
X184084000Y-104506000D03*
X184084000Y-105008000D03*
X184084000Y-105510000D03*
X184084000Y-106012000D03*
X184084000Y-106514000D03*
X191916000Y-106514000D03*
X191916000Y-106012000D03*
X191916000Y-105510000D03*
X191916000Y-105008000D03*
X191916000Y-104506000D03*
X191916000Y-104004000D03*
X191916000Y-103502000D03*
X191916000Y-103000000D03*
X191916000Y-102498000D03*
X191916000Y-101996000D03*
X191916000Y-101494000D03*
X191916000Y-100992000D03*
X191916000Y-100490000D03*
X191916000Y-99988000D03*
X191916000Y-99486000D03*
%TD*%
D14*
%TO.C,C75*%
X136980000Y-78800000D03*
X136020000Y-78800000D03*
%TD*%
D11*
%TO.C,C36*%
X85500000Y-107020000D03*
X85500000Y-107980000D03*
%TD*%
%TO.C,C73*%
X146500000Y-107020000D03*
X146500000Y-107980000D03*
%TD*%
%TO.C,C12*%
X109800000Y-97220000D03*
X109800000Y-98180000D03*
%TD*%
%TO.C,C28*%
X84700000Y-97220000D03*
X84700000Y-98180000D03*
%TD*%
D19*
%TO.C,U4*%
X112084000Y-99486000D03*
X112084000Y-99988000D03*
X112084000Y-100490000D03*
X112084000Y-100992000D03*
X112084000Y-101494000D03*
X112084000Y-101996000D03*
X112084000Y-102498000D03*
X112084000Y-103000000D03*
X112084000Y-103502000D03*
X112084000Y-104004000D03*
X112084000Y-104506000D03*
X112084000Y-105008000D03*
X112084000Y-105510000D03*
X112084000Y-106012000D03*
X112084000Y-106514000D03*
X119916000Y-106514000D03*
X119916000Y-106012000D03*
X119916000Y-105510000D03*
X119916000Y-105008000D03*
X119916000Y-104506000D03*
X119916000Y-104004000D03*
X119916000Y-103502000D03*
X119916000Y-103000000D03*
X119916000Y-102498000D03*
X119916000Y-101996000D03*
X119916000Y-101494000D03*
X119916000Y-100992000D03*
X119916000Y-100490000D03*
X119916000Y-99988000D03*
X119916000Y-99486000D03*
%TD*%
D20*
%TO.C,R1*%
X74300000Y-86400000D03*
X72300000Y-86400000D03*
%TD*%
D11*
%TO.C,C156*%
X182500000Y-107020000D03*
X182500000Y-107980000D03*
%TD*%
D12*
%TO.C,H3*%
X188000000Y-60000000D03*
%TD*%
D17*
%TO.C,C99*%
X160020000Y-97200000D03*
X160980000Y-97200000D03*
%TD*%
D11*
%TO.C,C169*%
X86900000Y-76819999D03*
X86900000Y-77779999D03*
%TD*%
D17*
%TO.C,C108*%
X191019999Y-78800000D03*
X191979999Y-78800000D03*
%TD*%
D14*
%TO.C,C133*%
X119979999Y-77800000D03*
X119019999Y-77800000D03*
%TD*%
D13*
%TO.C,R21*%
X145490000Y-103900000D03*
X146510000Y-103900000D03*
%TD*%
D14*
%TO.C,C57*%
X136980000Y-96200000D03*
X136020000Y-96200000D03*
%TD*%
D15*
%TO.C,C123*%
X182500001Y-67980000D03*
X182500001Y-67020000D03*
%TD*%
D17*
%TO.C,C9*%
X119020000Y-95200000D03*
X119980000Y-95200000D03*
%TD*%
D16*
%TO.C,R19*%
X134510000Y-102400000D03*
X133490000Y-102400000D03*
%TD*%
D13*
%TO.C,R20*%
X147590000Y-103100000D03*
X148610000Y-103100000D03*
%TD*%
D11*
%TO.C,C62*%
X132700000Y-97220000D03*
X132700000Y-98180000D03*
%TD*%
D15*
%TO.C,C101*%
X169100000Y-98180000D03*
X169100000Y-97220000D03*
%TD*%
%TO.C,C172*%
X98500000Y-67980001D03*
X98500000Y-67020001D03*
%TD*%
D14*
%TO.C,C111*%
X184980000Y-79800000D03*
X184020000Y-79800000D03*
%TD*%
D16*
%TO.C,R38*%
X182510000Y-71100000D03*
X181490000Y-71100000D03*
%TD*%
D11*
%TO.C,C157*%
X193500000Y-107020000D03*
X193500000Y-107980000D03*
%TD*%
D13*
%TO.C,R36*%
X193490000Y-72600000D03*
X194510000Y-72600000D03*
%TD*%
D15*
%TO.C,C46*%
X170199999Y-77780000D03*
X170199999Y-76820000D03*
%TD*%
D12*
%TO.C,H7*%
X116000000Y-60000000D03*
%TD*%
D13*
%TO.C,R8*%
X97490000Y-102000000D03*
X98510000Y-102000000D03*
%TD*%
D15*
%TO.C,C35*%
X99300000Y-98180000D03*
X99300000Y-97220000D03*
%TD*%
%TO.C,C68*%
X146200000Y-98180000D03*
X146200000Y-97220000D03*
%TD*%
D17*
%TO.C,C14*%
X112020000Y-97200000D03*
X112980000Y-97200000D03*
%TD*%
%TO.C,C92*%
X167020000Y-96200000D03*
X167980000Y-96200000D03*
%TD*%
D13*
%TO.C,R54*%
X97490000Y-70500001D03*
X98510000Y-70500001D03*
%TD*%
D11*
%TO.C,C37*%
X86500000Y-107020000D03*
X86500000Y-107980000D03*
%TD*%
D21*
%TO.C,FID3*%
X194000000Y-58000000D03*
%TD*%
D18*
%TO.C,U8*%
X143916000Y-75514000D03*
X143916000Y-75012000D03*
X143916000Y-74510000D03*
X143916000Y-74008000D03*
X143916000Y-73506000D03*
X143916000Y-73004000D03*
X143916000Y-72502000D03*
X143916000Y-72000000D03*
X143916000Y-71498000D03*
X143916000Y-70996000D03*
X143916000Y-70494000D03*
X143916000Y-69992000D03*
X143916000Y-69490000D03*
X143916000Y-68988000D03*
X143916000Y-68486000D03*
X136084000Y-68486000D03*
X136084000Y-68988000D03*
X136084000Y-69490000D03*
X136084000Y-69992000D03*
X136084000Y-70494000D03*
X136084000Y-70996000D03*
X136084000Y-71498000D03*
X136084000Y-72000000D03*
X136084000Y-72502000D03*
X136084000Y-73004000D03*
X136084000Y-73506000D03*
X136084000Y-74008000D03*
X136084000Y-74510000D03*
X136084000Y-75012000D03*
X136084000Y-75514000D03*
%TD*%
D16*
%TO.C,R16*%
X158510000Y-71100000D03*
X157490000Y-71100000D03*
%TD*%
D15*
%TO.C,C132*%
X121099999Y-77780000D03*
X121099999Y-76820000D03*
%TD*%
D11*
%TO.C,C147*%
X180700000Y-97220000D03*
X180700000Y-98180000D03*
%TD*%
D15*
%TO.C,C80*%
X146199999Y-77780000D03*
X146199999Y-76820000D03*
%TD*%
D13*
%TO.C,R11*%
X97490000Y-103900000D03*
X98510000Y-103900000D03*
%TD*%
D12*
%TO.C,H9*%
X116000000Y-115000000D03*
%TD*%
D17*
%TO.C,C40*%
X167019999Y-78800000D03*
X167979999Y-78800000D03*
%TD*%
D11*
%TO.C,C70*%
X133500000Y-107020000D03*
X133500000Y-107980000D03*
%TD*%
D22*
%TO.C,TH2*%
X164000000Y-88325000D03*
X164000000Y-86675000D03*
%TD*%
D18*
%TO.C,U13*%
X95916000Y-75514000D03*
X95916000Y-75012000D03*
X95916000Y-74510000D03*
X95916000Y-74008000D03*
X95916000Y-73506000D03*
X95916000Y-73004000D03*
X95916000Y-72502000D03*
X95916000Y-72000000D03*
X95916000Y-71498000D03*
X95916000Y-70996000D03*
X95916000Y-70494000D03*
X95916000Y-69992000D03*
X95916000Y-69490000D03*
X95916000Y-68988000D03*
X95916000Y-68486000D03*
X88084000Y-68486000D03*
X88084000Y-68988000D03*
X88084000Y-69490000D03*
X88084000Y-69992000D03*
X88084000Y-70494000D03*
X88084000Y-70996000D03*
X88084000Y-71498000D03*
X88084000Y-72000000D03*
X88084000Y-72502000D03*
X88084000Y-73004000D03*
X88084000Y-73506000D03*
X88084000Y-74008000D03*
X88084000Y-74510000D03*
X88084000Y-75012000D03*
X88084000Y-75514000D03*
%TD*%
D13*
%TO.C,R47*%
X195590000Y-103100000D03*
X196610000Y-103100000D03*
%TD*%
D12*
%TO.C,H5*%
X140000000Y-115000000D03*
%TD*%
D14*
%TO.C,C23*%
X88980000Y-96200000D03*
X88020000Y-96200000D03*
%TD*%
D13*
%TO.C,R18*%
X145490000Y-102000000D03*
X146510000Y-102000000D03*
%TD*%
D12*
%TO.C,H10*%
X164000000Y-115000000D03*
%TD*%
D20*
%TO.C,R2*%
X74300000Y-88500000D03*
X72300000Y-88500000D03*
%TD*%
D13*
%TO.C,R27*%
X145490000Y-70500001D03*
X146510000Y-70500001D03*
%TD*%
%TO.C,R33*%
X169490000Y-103900000D03*
X170510000Y-103900000D03*
%TD*%
D17*
%TO.C,C7*%
X119020000Y-96200000D03*
X119980000Y-96200000D03*
%TD*%
D21*
%TO.C,FID2*%
X67000000Y-116000000D03*
%TD*%
D11*
%TO.C,C149*%
X182900000Y-97220000D03*
X182900000Y-98180000D03*
%TD*%
D16*
%TO.C,R4*%
X110510000Y-102400000D03*
X109490000Y-102400000D03*
%TD*%
D15*
%TO.C,C114*%
X194199999Y-77780000D03*
X194199999Y-76820000D03*
%TD*%
%TO.C,C90*%
X133500001Y-67980000D03*
X133500001Y-67020000D03*
%TD*%
D13*
%TO.C,R41*%
X121490000Y-72600000D03*
X122510000Y-72600000D03*
%TD*%
D15*
%TO.C,C174*%
X86500001Y-67980000D03*
X86500001Y-67020000D03*
%TD*%
D13*
%TO.C,R51*%
X97490000Y-72600000D03*
X98510000Y-72600000D03*
%TD*%
D14*
%TO.C,C160*%
X88980000Y-78800000D03*
X88020000Y-78800000D03*
%TD*%
D15*
%TO.C,C53*%
X170500000Y-67980001D03*
X170500000Y-67020001D03*
%TD*%
D11*
%TO.C,C135*%
X110900000Y-76819999D03*
X110900000Y-77779999D03*
%TD*%
D17*
%TO.C,C32*%
X95020000Y-97200000D03*
X95980000Y-97200000D03*
%TD*%
D11*
%TO.C,C119*%
X181800000Y-76819999D03*
X181800000Y-77779999D03*
%TD*%
D15*
%TO.C,C87*%
X146500000Y-67980001D03*
X146500000Y-67020001D03*
%TD*%
D16*
%TO.C,R12*%
X86510000Y-104500000D03*
X85490000Y-104500000D03*
%TD*%
%TO.C,R15*%
X156410000Y-71900000D03*
X155390000Y-71900000D03*
%TD*%
D15*
%TO.C,C165*%
X98199999Y-77780000D03*
X98199999Y-76820000D03*
%TD*%
D19*
%TO.C,U9*%
X160084000Y-99486000D03*
X160084000Y-99988000D03*
X160084000Y-100490000D03*
X160084000Y-100992000D03*
X160084000Y-101494000D03*
X160084000Y-101996000D03*
X160084000Y-102498000D03*
X160084000Y-103000000D03*
X160084000Y-103502000D03*
X160084000Y-104004000D03*
X160084000Y-104506000D03*
X160084000Y-105008000D03*
X160084000Y-105510000D03*
X160084000Y-106012000D03*
X160084000Y-106514000D03*
X167916000Y-106514000D03*
X167916000Y-106012000D03*
X167916000Y-105510000D03*
X167916000Y-105008000D03*
X167916000Y-104506000D03*
X167916000Y-104004000D03*
X167916000Y-103502000D03*
X167916000Y-103000000D03*
X167916000Y-102498000D03*
X167916000Y-101996000D03*
X167916000Y-101494000D03*
X167916000Y-100992000D03*
X167916000Y-100490000D03*
X167916000Y-99988000D03*
X167916000Y-99486000D03*
%TD*%
D14*
%TO.C,C116*%
X191979999Y-77800000D03*
X191019999Y-77800000D03*
%TD*%
D13*
%TO.C,R6*%
X121490000Y-103900000D03*
X122510000Y-103900000D03*
%TD*%
D14*
%TO.C,C126*%
X112980000Y-78800000D03*
X112020000Y-78800000D03*
%TD*%
D17*
%TO.C,C42*%
X167019999Y-79800000D03*
X167979999Y-79800000D03*
%TD*%
D19*
%TO.C,U5*%
X88084000Y-99486000D03*
X88084000Y-99988000D03*
X88084000Y-100490000D03*
X88084000Y-100992000D03*
X88084000Y-101494000D03*
X88084000Y-101996000D03*
X88084000Y-102498000D03*
X88084000Y-103000000D03*
X88084000Y-103502000D03*
X88084000Y-104004000D03*
X88084000Y-104506000D03*
X88084000Y-105008000D03*
X88084000Y-105510000D03*
X88084000Y-106012000D03*
X88084000Y-106514000D03*
X95916000Y-106514000D03*
X95916000Y-106012000D03*
X95916000Y-105510000D03*
X95916000Y-105008000D03*
X95916000Y-104506000D03*
X95916000Y-104004000D03*
X95916000Y-103502000D03*
X95916000Y-103000000D03*
X95916000Y-102498000D03*
X95916000Y-101996000D03*
X95916000Y-101494000D03*
X95916000Y-100992000D03*
X95916000Y-100490000D03*
X95916000Y-99988000D03*
X95916000Y-99486000D03*
%TD*%
D14*
%TO.C,C134*%
X112980000Y-77800000D03*
X112020000Y-77800000D03*
%TD*%
%TO.C,C43*%
X160980000Y-79800000D03*
X160020000Y-79800000D03*
%TD*%
D16*
%TO.C,R7*%
X110510000Y-104500000D03*
X109490000Y-104500000D03*
%TD*%
D13*
%TO.C,R48*%
X193490000Y-103900000D03*
X194510000Y-103900000D03*
%TD*%
%TO.C,R3*%
X121490000Y-102000000D03*
X122510000Y-102000000D03*
%TD*%
D14*
%TO.C,C59*%
X136980000Y-95200000D03*
X136020000Y-95200000D03*
%TD*%
D15*
%TO.C,C153*%
X194200000Y-98180000D03*
X194200000Y-97220000D03*
%TD*%
D17*
%TO.C,C26*%
X95020000Y-95200000D03*
X95980000Y-95200000D03*
%TD*%
D11*
%TO.C,C96*%
X156700000Y-97220000D03*
X156700000Y-98180000D03*
%TD*%
%TO.C,C51*%
X157800000Y-76819999D03*
X157800000Y-77779999D03*
%TD*%
D15*
%TO.C,C113*%
X195299999Y-77780000D03*
X195299999Y-76820000D03*
%TD*%
D13*
%TO.C,R32*%
X171590000Y-103100000D03*
X172610000Y-103100000D03*
%TD*%
D16*
%TO.C,R50*%
X86510000Y-72999999D03*
X85490000Y-72999999D03*
%TD*%
D15*
%TO.C,C67*%
X145100000Y-98180000D03*
X145100000Y-97220000D03*
%TD*%
D13*
%TO.C,R39*%
X193490000Y-70500001D03*
X194510000Y-70500001D03*
%TD*%
D15*
%TO.C,C122*%
X193500000Y-67980001D03*
X193500000Y-67020001D03*
%TD*%
D12*
%TO.C,H4*%
X188000000Y-115000000D03*
%TD*%
D17*
%TO.C,C100*%
X167020000Y-97200000D03*
X167980000Y-97200000D03*
%TD*%
D15*
%TO.C,C103*%
X171300000Y-98180000D03*
X171300000Y-97220000D03*
%TD*%
D17*
%TO.C,C150*%
X184020000Y-97200000D03*
X184980000Y-97200000D03*
%TD*%
%TO.C,C161*%
X95019999Y-79800000D03*
X95979999Y-79800000D03*
%TD*%
D14*
%TO.C,C162*%
X88980000Y-79800000D03*
X88020000Y-79800000D03*
%TD*%
D16*
%TO.C,R37*%
X180410000Y-71900000D03*
X179390000Y-71900000D03*
%TD*%
D17*
%TO.C,C24*%
X95020000Y-96200000D03*
X95980000Y-96200000D03*
%TD*%
D11*
%TO.C,C120*%
X180700000Y-76819999D03*
X180700000Y-77779999D03*
%TD*%
D14*
%TO.C,C117*%
X184980000Y-77800000D03*
X184020000Y-77800000D03*
%TD*%
D16*
%TO.C,R53*%
X86510000Y-71100000D03*
X85490000Y-71100000D03*
%TD*%
D17*
%TO.C,C76*%
X143019999Y-79800000D03*
X143979999Y-79800000D03*
%TD*%
D18*
%TO.C,U11*%
X119916000Y-75514000D03*
X119916000Y-75012000D03*
X119916000Y-74510000D03*
X119916000Y-74008000D03*
X119916000Y-73506000D03*
X119916000Y-73004000D03*
X119916000Y-72502000D03*
X119916000Y-72000000D03*
X119916000Y-71498000D03*
X119916000Y-70996000D03*
X119916000Y-70494000D03*
X119916000Y-69992000D03*
X119916000Y-69490000D03*
X119916000Y-68988000D03*
X119916000Y-68486000D03*
X112084000Y-68486000D03*
X112084000Y-68988000D03*
X112084000Y-69490000D03*
X112084000Y-69992000D03*
X112084000Y-70494000D03*
X112084000Y-70996000D03*
X112084000Y-71498000D03*
X112084000Y-72000000D03*
X112084000Y-72502000D03*
X112084000Y-73004000D03*
X112084000Y-73506000D03*
X112084000Y-74008000D03*
X112084000Y-74510000D03*
X112084000Y-75012000D03*
X112084000Y-75514000D03*
%TD*%
D11*
%TO.C,C136*%
X109800000Y-76819999D03*
X109800000Y-77779999D03*
%TD*%
D15*
%TO.C,C47*%
X169099999Y-77780000D03*
X169099999Y-76820000D03*
%TD*%
D17*
%TO.C,C74*%
X143019999Y-78800000D03*
X143979999Y-78800000D03*
%TD*%
D11*
%TO.C,C171*%
X84700000Y-76819999D03*
X84700000Y-77779999D03*
%TD*%
%TO.C,C21*%
X121500000Y-107020000D03*
X121500000Y-107980000D03*
%TD*%
D15*
%TO.C,C81*%
X145099999Y-77780000D03*
X145099999Y-76820000D03*
%TD*%
D11*
%TO.C,C72*%
X145500000Y-107020000D03*
X145500000Y-107980000D03*
%TD*%
D16*
%TO.C,R43*%
X110510000Y-71100000D03*
X109490000Y-71100000D03*
%TD*%
D15*
%TO.C,C54*%
X169500000Y-67980001D03*
X169500000Y-67020001D03*
%TD*%
D11*
%TO.C,C107*%
X170500000Y-107020000D03*
X170500000Y-107980000D03*
%TD*%
D15*
%TO.C,C33*%
X97100000Y-98180000D03*
X97100000Y-97220000D03*
%TD*%
D13*
%TO.C,R10*%
X99590000Y-103100000D03*
X100610000Y-103100000D03*
%TD*%
D17*
%TO.C,C31*%
X88020000Y-97200000D03*
X88980000Y-97200000D03*
%TD*%
D15*
%TO.C,C18*%
X123300000Y-98180000D03*
X123300000Y-97220000D03*
%TD*%
D14*
%TO.C,C144*%
X184980000Y-95200000D03*
X184020000Y-95200000D03*
%TD*%
D15*
%TO.C,C115*%
X193099999Y-77780000D03*
X193099999Y-76820000D03*
%TD*%
D11*
%TO.C,C38*%
X97500000Y-107020000D03*
X97500000Y-107980000D03*
%TD*%
D18*
%TO.C,U6*%
X167916000Y-75514000D03*
X167916000Y-75012000D03*
X167916000Y-74510000D03*
X167916000Y-74008000D03*
X167916000Y-73506000D03*
X167916000Y-73004000D03*
X167916000Y-72502000D03*
X167916000Y-72000000D03*
X167916000Y-71498000D03*
X167916000Y-70996000D03*
X167916000Y-70494000D03*
X167916000Y-69992000D03*
X167916000Y-69490000D03*
X167916000Y-68988000D03*
X167916000Y-68486000D03*
X160084000Y-68486000D03*
X160084000Y-68988000D03*
X160084000Y-69490000D03*
X160084000Y-69992000D03*
X160084000Y-70494000D03*
X160084000Y-70996000D03*
X160084000Y-71498000D03*
X160084000Y-72000000D03*
X160084000Y-72502000D03*
X160084000Y-73004000D03*
X160084000Y-73506000D03*
X160084000Y-74008000D03*
X160084000Y-74510000D03*
X160084000Y-75012000D03*
X160084000Y-75514000D03*
%TD*%
D11*
%TO.C,C50*%
X158900000Y-76819999D03*
X158900000Y-77779999D03*
%TD*%
D16*
%TO.C,R25*%
X132410000Y-71900000D03*
X131390000Y-71900000D03*
%TD*%
D14*
%TO.C,C77*%
X136980000Y-79800000D03*
X136020000Y-79800000D03*
%TD*%
%TO.C,C49*%
X160980000Y-77800000D03*
X160020000Y-77800000D03*
%TD*%
D15*
%TO.C,C16*%
X121100000Y-98180000D03*
X121100000Y-97220000D03*
%TD*%
D22*
%TO.C,TH1*%
X116000000Y-88325000D03*
X116000000Y-86675000D03*
%TD*%
D14*
%TO.C,C128*%
X112980000Y-79800000D03*
X112020000Y-79800000D03*
%TD*%
D16*
%TO.C,R34*%
X158510000Y-104500000D03*
X157490000Y-104500000D03*
%TD*%
%TO.C,R42*%
X108410000Y-71900000D03*
X107390000Y-71900000D03*
%TD*%
D11*
%TO.C,C84*%
X134900000Y-76819999D03*
X134900000Y-77779999D03*
%TD*%
%TO.C,C63*%
X133800000Y-97220000D03*
X133800000Y-98180000D03*
%TD*%
D15*
%TO.C,C45*%
X171299999Y-77780000D03*
X171299999Y-76820000D03*
%TD*%
D13*
%TO.C,R5*%
X123590000Y-103100000D03*
X124610000Y-103100000D03*
%TD*%
D11*
%TO.C,C104*%
X157500000Y-107020000D03*
X157500000Y-107980000D03*
%TD*%
%TO.C,C170*%
X85800000Y-76819999D03*
X85800000Y-77779999D03*
%TD*%
D15*
%TO.C,C34*%
X98200000Y-98180000D03*
X98200000Y-97220000D03*
%TD*%
%TO.C,C17*%
X122200000Y-98180000D03*
X122200000Y-97220000D03*
%TD*%
D17*
%TO.C,C143*%
X191020000Y-96200000D03*
X191980000Y-96200000D03*
%TD*%
%TO.C,C110*%
X191019999Y-79800000D03*
X191979999Y-79800000D03*
%TD*%
%TO.C,C15*%
X119020000Y-97200000D03*
X119980000Y-97200000D03*
%TD*%
D15*
%TO.C,C175*%
X85500001Y-67980000D03*
X85500001Y-67020000D03*
%TD*%
D13*
%TO.C,R24*%
X145490000Y-72600000D03*
X146510000Y-72600000D03*
%TD*%
D14*
%TO.C,C91*%
X160980000Y-96200000D03*
X160020000Y-96200000D03*
%TD*%
D16*
%TO.C,R52*%
X84410000Y-71900000D03*
X83390000Y-71900000D03*
%TD*%
D11*
%TO.C,C39*%
X98500000Y-107020000D03*
X98500000Y-107980000D03*
%TD*%
%TO.C,C85*%
X133800000Y-76819999D03*
X133800000Y-77779999D03*
%TD*%
D17*
%TO.C,C145*%
X191020000Y-95200000D03*
X191980000Y-95200000D03*
%TD*%
D14*
%TO.C,C25*%
X88980000Y-95200000D03*
X88020000Y-95200000D03*
%TD*%
%TO.C,C48*%
X167979999Y-77800000D03*
X167019999Y-77800000D03*
%TD*%
%TO.C,C83*%
X136980000Y-77800000D03*
X136020000Y-77800000D03*
%TD*%
D13*
%TO.C,R28*%
X81090000Y-72900000D03*
X82110000Y-72900000D03*
%TD*%
D15*
%TO.C,C164*%
X99299999Y-77780000D03*
X99299999Y-76820000D03*
%TD*%
D17*
%TO.C,C127*%
X119019999Y-79800000D03*
X119979999Y-79800000D03*
%TD*%
D11*
%TO.C,C52*%
X156700000Y-76819999D03*
X156700000Y-77779999D03*
%TD*%
D16*
%TO.C,R23*%
X134510000Y-72999999D03*
X133490000Y-72999999D03*
%TD*%
D15*
%TO.C,C131*%
X122199999Y-77780000D03*
X122199999Y-76820000D03*
%TD*%
D11*
%TO.C,C30*%
X86900000Y-97220000D03*
X86900000Y-98180000D03*
%TD*%
D15*
%TO.C,C173*%
X97500000Y-67980001D03*
X97500000Y-67020001D03*
%TD*%
D17*
%TO.C,C94*%
X167020000Y-95200000D03*
X167980000Y-95200000D03*
%TD*%
D19*
%TO.C,U7*%
X136084000Y-99486000D03*
X136084000Y-99988000D03*
X136084000Y-100490000D03*
X136084000Y-100992000D03*
X136084000Y-101494000D03*
X136084000Y-101996000D03*
X136084000Y-102498000D03*
X136084000Y-103000000D03*
X136084000Y-103502000D03*
X136084000Y-104004000D03*
X136084000Y-104506000D03*
X136084000Y-105008000D03*
X136084000Y-105510000D03*
X136084000Y-106012000D03*
X136084000Y-106514000D03*
X143916000Y-106514000D03*
X143916000Y-106012000D03*
X143916000Y-105510000D03*
X143916000Y-105008000D03*
X143916000Y-104506000D03*
X143916000Y-104004000D03*
X143916000Y-103502000D03*
X143916000Y-103000000D03*
X143916000Y-102498000D03*
X143916000Y-101996000D03*
X143916000Y-101494000D03*
X143916000Y-100992000D03*
X143916000Y-100490000D03*
X143916000Y-99988000D03*
X143916000Y-99486000D03*
%TD*%
D15*
%TO.C,C121*%
X194500000Y-67980001D03*
X194500000Y-67020001D03*
%TD*%
D11*
%TO.C,C29*%
X85800000Y-97220000D03*
X85800000Y-98180000D03*
%TD*%
%TO.C,C86*%
X132700000Y-76819999D03*
X132700000Y-77779999D03*
%TD*%
D12*
%TO.C,H1*%
X92000000Y-60000000D03*
%TD*%
D16*
%TO.C,R35*%
X182510000Y-72999999D03*
X181490000Y-72999999D03*
%TD*%
D11*
%TO.C,C105*%
X158500000Y-107020000D03*
X158500000Y-107980000D03*
%TD*%
D21*
%TO.C,FID1*%
X67000000Y-58000000D03*
%TD*%
D11*
%TO.C,C97*%
X157800000Y-97220000D03*
X157800000Y-98180000D03*
%TD*%
D16*
%TO.C,R22*%
X134510000Y-104500000D03*
X133490000Y-104500000D03*
%TD*%
D13*
%TO.C,R14*%
X169490000Y-72600000D03*
X170510000Y-72600000D03*
%TD*%
D11*
%TO.C,C13*%
X110900000Y-97220000D03*
X110900000Y-98180000D03*
%TD*%
D16*
%TO.C,R13*%
X158510000Y-72999999D03*
X157490000Y-72999999D03*
%TD*%
%TO.C,R31*%
X158510000Y-102400000D03*
X157490000Y-102400000D03*
%TD*%
D15*
%TO.C,C89*%
X134500001Y-67980000D03*
X134500001Y-67020000D03*
%TD*%
D16*
%TO.C,R9*%
X86510000Y-102400000D03*
X85490000Y-102400000D03*
%TD*%
D15*
%TO.C,C154*%
X195300000Y-98180000D03*
X195300000Y-97220000D03*
%TD*%
D11*
%TO.C,C137*%
X108700000Y-76819999D03*
X108700000Y-77779999D03*
%TD*%
D14*
%TO.C,C41*%
X160980000Y-78800000D03*
X160020000Y-78800000D03*
%TD*%
D11*
%TO.C,C71*%
X134500000Y-107020000D03*
X134500000Y-107980000D03*
%TD*%
%TO.C,C106*%
X169500000Y-107020000D03*
X169500000Y-107980000D03*
%TD*%
D12*
%TO.C,H8*%
X164000000Y-60000000D03*
%TD*%
D14*
%TO.C,C82*%
X143979999Y-77800000D03*
X143019999Y-77800000D03*
%TD*%
D16*
%TO.C,R46*%
X182510000Y-102400000D03*
X181490000Y-102400000D03*
%TD*%
D17*
%TO.C,C60*%
X143020000Y-95200000D03*
X143980000Y-95200000D03*
%TD*%
D13*
%TO.C,R30*%
X169490000Y-102000000D03*
X170510000Y-102000000D03*
%TD*%
D15*
%TO.C,C55*%
X158500001Y-67980000D03*
X158500001Y-67020000D03*
%TD*%
D17*
%TO.C,C151*%
X191020000Y-97200000D03*
X191980000Y-97200000D03*
%TD*%
D11*
%TO.C,C155*%
X181500000Y-107020000D03*
X181500000Y-107980000D03*
%TD*%
D12*
%TO.C,H2*%
X140000000Y-60000000D03*
%TD*%
D16*
%TO.C,R26*%
X134510000Y-71100000D03*
X133490000Y-71100000D03*
%TD*%
D15*
%TO.C,C130*%
X123299999Y-77780000D03*
X123299999Y-76820000D03*
%TD*%
D17*
%TO.C,C65*%
X136020000Y-97200000D03*
X136980000Y-97200000D03*
%TD*%
D15*
%TO.C,C102*%
X170200000Y-98180000D03*
X170200000Y-97220000D03*
%TD*%
D14*
%TO.C,C168*%
X88980000Y-77800000D03*
X88020000Y-77800000D03*
%TD*%
D13*
%TO.C,R17*%
X169490000Y-70500001D03*
X170510000Y-70500001D03*
%TD*%
D15*
%TO.C,C79*%
X147299999Y-77780000D03*
X147299999Y-76820000D03*
%TD*%
D23*
%TO.C,H33*%
X202600000Y-91000000D03*
X201900000Y-92900000D03*
X201900000Y-89100000D03*
X200000000Y-93600000D03*
D24*
X200000000Y-91000000D03*
D23*
X200000000Y-88400000D03*
X198100000Y-92900000D03*
X198100000Y-89100000D03*
X197400000Y-91000000D03*
%TD*%
%TO.C,H11*%
X82600000Y-84000000D03*
X81900000Y-85900000D03*
X81900000Y-82100000D03*
X80000000Y-86600000D03*
D24*
X80000000Y-84000000D03*
D23*
X80000000Y-81400000D03*
X78100000Y-85900000D03*
X78100000Y-82100000D03*
X77400000Y-84000000D03*
%TD*%
%TO.C,H27*%
X178600000Y-84000000D03*
X177900000Y-85900000D03*
X177900000Y-82100000D03*
X176000000Y-86600000D03*
D24*
X176000000Y-84000000D03*
D23*
X176000000Y-81400000D03*
X174100000Y-85900000D03*
X174100000Y-82100000D03*
X173400000Y-84000000D03*
%TD*%
%TO.C,H14*%
X82600000Y-115000000D03*
X81900000Y-116900000D03*
X81900000Y-113100000D03*
X80000000Y-117600000D03*
D24*
X80000000Y-115000000D03*
D23*
X80000000Y-112400000D03*
X78100000Y-116900000D03*
X78100000Y-113100000D03*
X77400000Y-115000000D03*
%TD*%
%TO.C,H34*%
X202600000Y-115000000D03*
X201900000Y-116900000D03*
X201900000Y-113100000D03*
X200000000Y-117600000D03*
D24*
X200000000Y-115000000D03*
D23*
X200000000Y-112400000D03*
X198100000Y-116900000D03*
X198100000Y-113100000D03*
X197400000Y-115000000D03*
%TD*%
%TO.C,H21*%
X130600000Y-91000000D03*
X129900000Y-92900000D03*
X129900000Y-89100000D03*
X128000000Y-93600000D03*
D24*
X128000000Y-91000000D03*
D23*
X128000000Y-88400000D03*
X126100000Y-92900000D03*
X126100000Y-89100000D03*
X125400000Y-91000000D03*
%TD*%
%TO.C,H20*%
X130600000Y-60000000D03*
X129900000Y-61900000D03*
X129900000Y-58100000D03*
X128000000Y-62600000D03*
D24*
X128000000Y-60000000D03*
D23*
X128000000Y-57400000D03*
X126100000Y-61900000D03*
X126100000Y-58100000D03*
X125400000Y-60000000D03*
%TD*%
%TO.C,H19*%
X130600000Y-84000000D03*
X129900000Y-85900000D03*
X129900000Y-82100000D03*
X128000000Y-86600000D03*
D24*
X128000000Y-84000000D03*
D23*
X128000000Y-81400000D03*
X126100000Y-85900000D03*
X126100000Y-82100000D03*
X125400000Y-84000000D03*
%TD*%
%TO.C,H32*%
X202600000Y-60000000D03*
X201900000Y-61900000D03*
X201900000Y-58100000D03*
X200000000Y-62600000D03*
D24*
X200000000Y-60000000D03*
D23*
X200000000Y-57400000D03*
X198100000Y-61900000D03*
X198100000Y-58100000D03*
X197400000Y-60000000D03*
%TD*%
%TO.C,H13*%
X82600000Y-91000000D03*
X81900000Y-92900000D03*
X81900000Y-89100000D03*
X80000000Y-93600000D03*
D24*
X80000000Y-91000000D03*
D23*
X80000000Y-88400000D03*
X78100000Y-92900000D03*
X78100000Y-89100000D03*
X77400000Y-91000000D03*
%TD*%
%TO.C,H31*%
X202600000Y-84000000D03*
X201900000Y-85900000D03*
X201900000Y-82100000D03*
X200000000Y-86600000D03*
D24*
X200000000Y-84000000D03*
D23*
X200000000Y-81400000D03*
X198100000Y-85900000D03*
X198100000Y-82100000D03*
X197400000Y-84000000D03*
%TD*%
%TO.C,H30*%
X178600000Y-115000000D03*
X177900000Y-116900000D03*
X177900000Y-113100000D03*
X176000000Y-117600000D03*
D24*
X176000000Y-115000000D03*
D23*
X176000000Y-112400000D03*
X174100000Y-116900000D03*
X174100000Y-113100000D03*
X173400000Y-115000000D03*
%TD*%
%TO.C,H23*%
X154600000Y-84000000D03*
X153900000Y-85900000D03*
X153900000Y-82100000D03*
X152000000Y-86600000D03*
D24*
X152000000Y-84000000D03*
D23*
X152000000Y-81400000D03*
X150100000Y-85900000D03*
X150100000Y-82100000D03*
X149400000Y-84000000D03*
%TD*%
%TO.C,H17*%
X106600000Y-91000000D03*
X105900000Y-92900000D03*
X105900000Y-89100000D03*
X104000000Y-93600000D03*
D24*
X104000000Y-91000000D03*
D23*
X104000000Y-88400000D03*
X102100000Y-92900000D03*
X102100000Y-89100000D03*
X101400000Y-91000000D03*
%TD*%
%TO.C,H25*%
X154600000Y-91000000D03*
X153900000Y-92900000D03*
X153900000Y-89100000D03*
X152000000Y-93600000D03*
D24*
X152000000Y-91000000D03*
D23*
X152000000Y-88400000D03*
X150100000Y-92900000D03*
X150100000Y-89100000D03*
X149400000Y-91000000D03*
%TD*%
%TO.C,H22*%
X130600000Y-115000000D03*
X129900000Y-116900000D03*
X129900000Y-113100000D03*
X128000000Y-117600000D03*
D24*
X128000000Y-115000000D03*
D23*
X128000000Y-112400000D03*
X126100000Y-116900000D03*
X126100000Y-113100000D03*
X125400000Y-115000000D03*
%TD*%
%TO.C,H15*%
X106600000Y-84000000D03*
X105900000Y-85900000D03*
X105900000Y-82100000D03*
X104000000Y-86600000D03*
D24*
X104000000Y-84000000D03*
D23*
X104000000Y-81400000D03*
X102100000Y-85900000D03*
X102100000Y-82100000D03*
X101400000Y-84000000D03*
%TD*%
%TO.C,H12*%
X82600000Y-60000000D03*
X81900000Y-61900000D03*
X81900000Y-58100000D03*
X80000000Y-62600000D03*
D24*
X80000000Y-60000000D03*
D23*
X80000000Y-57400000D03*
X78100000Y-61900000D03*
X78100000Y-58100000D03*
X77400000Y-60000000D03*
%TD*%
%TO.C,H29*%
X178600000Y-91000000D03*
X177900000Y-92900000D03*
X177900000Y-89100000D03*
X176000000Y-93600000D03*
D24*
X176000000Y-91000000D03*
D23*
X176000000Y-88400000D03*
X174100000Y-92900000D03*
X174100000Y-89100000D03*
X173400000Y-91000000D03*
%TD*%
%TO.C,H24*%
X154600000Y-60000000D03*
X153900000Y-61900000D03*
X153900000Y-58100000D03*
X152000000Y-62600000D03*
D24*
X152000000Y-60000000D03*
D23*
X152000000Y-57400000D03*
X150100000Y-61900000D03*
X150100000Y-58100000D03*
X149400000Y-60000000D03*
%TD*%
%TO.C,H18*%
X106600000Y-115000000D03*
X105900000Y-116900000D03*
X105900000Y-113100000D03*
X104000000Y-117600000D03*
D24*
X104000000Y-115000000D03*
D23*
X104000000Y-112400000D03*
X102100000Y-116900000D03*
X102100000Y-113100000D03*
X101400000Y-115000000D03*
%TD*%
%TO.C,H26*%
X154600000Y-115000000D03*
X153900000Y-116900000D03*
X153900000Y-113100000D03*
X152000000Y-117600000D03*
D24*
X152000000Y-115000000D03*
D23*
X152000000Y-112400000D03*
X150100000Y-116900000D03*
X150100000Y-113100000D03*
X149400000Y-115000000D03*
%TD*%
%TO.C,H28*%
X178600000Y-60000000D03*
X177900000Y-61900000D03*
X177900000Y-58100000D03*
X176000000Y-62600000D03*
D24*
X176000000Y-60000000D03*
D23*
X176000000Y-57400000D03*
X174100000Y-61900000D03*
X174100000Y-58100000D03*
X173400000Y-60000000D03*
%TD*%
%TO.C,H16*%
X106600000Y-60000000D03*
X105900000Y-61900000D03*
X105900000Y-58100000D03*
X104000000Y-62600000D03*
D24*
X104000000Y-60000000D03*
D23*
X104000000Y-57400000D03*
X102100000Y-61900000D03*
X102100000Y-58100000D03*
X101400000Y-60000000D03*
%TD*%
D25*
X204750000Y-55000000D02*
X204750000Y-120000000D01*
X65000000Y-55000000D02*
X65000000Y-120000000D01*
X65000000Y-120000000D02*
X204750000Y-120000000D01*
X65000000Y-55000000D02*
X204750000Y-55000000D01*
M02*
