M48
; DRILL file {KiCad 8.0.6} date 2024-12-06T19:08:08+0100
; FORMAT={-:-/ absolute / inch / decimal}
; #@! TF.CreationDate,2024-12-06T19:08:08+01:00
; #@! TF.GenerationSoftware,Kicad,Pcbnew,8.0.6
; #@! TF.FileFunction,Plated,1,6,PTH
FMAT,2
INCH
; #@! TA.AperFunction,Plated,PTH,ViaDrill
T1C0.0118
; #@! TA.AperFunction,Plated,PTH,ComponentDrill
T2C0.0197
; #@! TA.AperFunction,Plated,PTH,ViaDrill
T3C0.0236
; #@! TA.AperFunction,Plated,PTH,ComponentDrill
T4C0.1654
%
G90
G05
T1
X2.6356Y-4.3359
X2.6356Y-4.5159
X2.6391Y-2.3744
X2.6391Y-2.5544
X2.6435Y-2.9994
X2.6435Y-3.3013
X2.6435Y-3.5918
X2.6435Y-3.6918
X2.7091Y-4.1394
X2.7591Y-2.2844
X2.7591Y-2.6444
X2.7841Y-3.3031
X2.7841Y-3.9544
X2.7991Y-4.1844
X2.7991Y-4.5594
X2.8141Y-2.4644
X2.816Y-4.4244
X2.8423Y-3.0013
X2.8423Y-3.1013
X2.8423Y-3.2013
X2.8423Y-3.3013
X2.8423Y-3.5918
X2.8423Y-3.6918
X2.8423Y-3.7918
X2.8423Y-3.8918
X2.8425Y-3.5255
X2.8441Y-3.3683
X2.8791Y-4.1844
X2.8806Y-3.9844
X2.8841Y-2.2344
X2.8849Y-2.6986
X2.9141Y-2.8694
X2.9291Y-4.5794
X2.9591Y-4.0894
X2.9764Y-3.4843
X2.9841Y-4.2794
X2.9844Y-4.354
X3.0241Y-4.2566
X3.0241Y-4.3244
X3.0491Y-3.9944
X3.1191Y-3.9944
X3.1891Y-3.9444
X3.2291Y-2.8044
X3.2913Y-2.9094
X3.3294Y-4.2144
X3.3318Y-2.6744
X3.3339Y-2.6378
X3.3339Y-4.1142
X3.3339Y-4.252
X3.3346Y-3.0953
X3.3346Y-3.7945
X3.3641Y-4.1444
X3.378Y-2.9331
X3.378Y-3.9567
X3.4055Y-4.2809
X3.4091Y-2.6047
X3.4091Y-2.7444
X3.4177Y-4.2012
X3.4197Y-2.6906
X3.4323Y-3.1024
X3.4323Y-3.1417
X3.4323Y-3.7874
X3.4331Y-3.748
X3.811Y-3.1417
X3.8118Y-3.1024
X3.8118Y-3.748
X3.8118Y-3.7874
X3.8244Y-4.1992
X3.8264Y-2.6886
X3.8391Y-2.6047
X3.8391Y-4.2841
X3.8661Y-2.9331
X3.8661Y-3.9567
X3.878Y-2.7344
X3.878Y-4.1614
X3.8937Y-4.0157
X3.9087Y-4.2144
X3.9094Y-3.0953
X3.9094Y-3.7945
X3.9102Y-2.6378
X3.9102Y-2.7756
X3.9102Y-4.252
X3.9113Y-2.6744
X3.9252Y-4.0945
X3.9961Y-3.9843
X3.9961Y-4.0591
X4.0591Y-4.0307
X4.0591Y-4.2844
X4.0991Y-4.2844
X4.2768Y-2.6744
X4.2787Y-2.6378
X4.2787Y-4.1142
X4.2787Y-4.252
X4.2794Y-4.2144
X4.2795Y-3.0953
X4.2795Y-3.7945
X4.311Y-4.1614
X4.3228Y-2.9331
X4.3228Y-3.9567
X4.3491Y-2.6047
X4.3491Y-2.7444
X4.3491Y-4.2841
X4.3626Y-4.2012
X4.3646Y-2.6906
X4.3772Y-3.1024
X4.3772Y-3.1417
X4.3772Y-3.7874
X4.378Y-3.748
X4.522Y-3.4124
X4.5242Y-3.4794
X4.7559Y-3.1417
X4.7567Y-3.1024
X4.7567Y-3.748
X4.7567Y-3.7874
X4.7693Y-4.1992
X4.7713Y-2.6886
X4.7791Y-2.6047
X4.7791Y-4.2841
X4.811Y-2.9331
X4.811Y-3.9567
X4.8228Y-2.7344
X4.8228Y-4.1614
X4.8543Y-3.0953
X4.8543Y-3.7945
X4.8551Y-2.6378
X4.8551Y-2.7756
X4.8551Y-4.252
X4.8563Y-2.6744
X4.8587Y-4.2144
X5.2218Y-2.6744
X5.2236Y-2.6378
X5.2236Y-4.1142
X5.2236Y-4.252
X5.2244Y-3.0953
X5.2244Y-3.7945
X5.2294Y-4.2144
X5.2559Y-4.1614
X5.2677Y-2.9331
X5.2677Y-3.9567
X5.2991Y-2.6047
X5.2991Y-2.7444
X5.2991Y-4.2841
X5.3075Y-4.2012
X5.3094Y-2.6906
X5.322Y-3.1024
X5.322Y-3.1417
X5.322Y-3.7874
X5.3228Y-3.748
X5.7008Y-3.1417
X5.7016Y-3.1024
X5.7016Y-3.748
X5.7016Y-3.7874
X5.7142Y-4.1992
X5.7161Y-2.6886
X5.7291Y-2.6047
X5.7291Y-4.2841
X5.7559Y-2.9331
X5.7559Y-3.9567
X5.7677Y-2.7344
X5.7677Y-4.1614
X5.7987Y-4.2144
X5.7992Y-3.0953
X5.7992Y-3.7945
X5.8Y-2.6378
X5.8Y-2.7756
X5.8Y-4.252
X5.8013Y-2.6744
X5.9791Y-4.2844
X6.0291Y-4.2844
X6.1668Y-2.6744
X6.1685Y-2.6378
X6.1685Y-4.1142
X6.1685Y-4.252
X6.1693Y-3.0953
X6.1693Y-3.7945
X6.1694Y-4.2144
X6.2008Y-4.1614
X6.2126Y-2.9331
X6.2126Y-3.9567
X6.2391Y-2.6047
X6.2391Y-2.7444
X6.2391Y-4.2841
X6.2524Y-4.2012
X6.2543Y-2.6906
X6.2669Y-3.1024
X6.2669Y-3.1417
X6.2669Y-3.7874
X6.2677Y-3.748
X6.412Y-3.4124
X6.4142Y-3.4794
X6.6457Y-3.1417
X6.6465Y-3.1024
X6.6465Y-3.748
X6.6465Y-3.7874
X6.6591Y-4.1992
X6.661Y-2.6886
X6.6691Y-2.6047
X6.6691Y-4.2841
X6.7008Y-2.9331
X6.7008Y-3.9567
X6.7126Y-2.7344
X6.7126Y-4.1614
X6.7441Y-3.0953
X6.7441Y-3.7945
X6.7449Y-2.6378
X6.7449Y-2.7756
X6.7449Y-4.252
X6.7463Y-2.6744
X6.7487Y-4.2144
X6.7791Y-2.8591
X6.8591Y-2.7992
X6.8591Y-2.9144
X6.9391Y-2.8827
X7.0191Y-2.8307
X7.1094Y-4.2144
X7.1118Y-2.6744
X7.1134Y-2.6378
X7.1134Y-4.1142
X7.1134Y-4.252
X7.1142Y-3.0953
X7.1142Y-3.7945
X7.1457Y-4.1614
X7.1575Y-2.9331
X7.1575Y-3.9567
X7.1891Y-2.6047
X7.1891Y-2.7444
X7.1891Y-4.2841
X7.1972Y-4.2012
X7.1992Y-2.6906
X7.2118Y-3.1024
X7.2118Y-3.1417
X7.2118Y-3.7874
X7.2126Y-3.748
X7.5906Y-3.1417
X7.5913Y-3.1024
X7.5913Y-3.748
X7.5913Y-3.7874
X7.6039Y-4.1992
X7.6059Y-2.6886
X7.6191Y-2.6047
X7.6191Y-4.2841
X7.6457Y-2.9331
X7.6457Y-3.9567
X7.6575Y-2.7344
X7.6575Y-4.1614
X7.6887Y-4.2144
X7.689Y-3.0953
X7.689Y-3.7945
X7.6898Y-2.6378
X7.6898Y-2.7756
X7.6898Y-4.252
X7.6913Y-2.6744
X7.8891Y-2.8844
X7.8891Y-2.9644
X7.9134Y-3.9528
X7.9171Y-3.8988
X7.937Y-4.0906
X7.9691Y-2.8844
X7.9691Y-2.9744
X7.9891Y-2.8144
X7.9891Y-3.9844
X8.0197Y-4.0354
T2
X3.0472Y-2.3622
X3.0472Y-3.3071
X3.0472Y-3.5827
X3.0472Y-4.5276
X3.0748Y-2.2874
X3.0748Y-2.437
X3.0748Y-3.2323
X3.0748Y-3.3819
X3.0748Y-3.5079
X3.0748Y-3.6575
X3.0748Y-4.4528
X3.0748Y-4.6024
X3.1496Y-2.2598
X3.1496Y-2.4646
X3.1496Y-3.2047
X3.1496Y-3.4094
X3.1496Y-3.4803
X3.1496Y-3.685
X3.1496Y-4.4252
X3.1496Y-4.6299
X3.2244Y-2.2874
X3.2244Y-2.437
X3.2244Y-3.2323
X3.2244Y-3.3819
X3.2244Y-3.5079
X3.2244Y-3.6575
X3.2244Y-4.4528
X3.2244Y-4.6024
X3.252Y-2.3622
X3.252Y-3.3071
X3.252Y-3.5827
X3.252Y-4.5276
X3.9921Y-2.3622
X3.9921Y-3.3071
X3.9921Y-3.5827
X3.9921Y-4.5276
X4.0197Y-2.2874
X4.0197Y-2.437
X4.0197Y-3.2323
X4.0197Y-3.3819
X4.0197Y-3.5079
X4.0197Y-3.6575
X4.0197Y-4.4528
X4.0197Y-4.6024
X4.0945Y-2.2598
X4.0945Y-2.4646
X4.0945Y-3.2047
X4.0945Y-3.4094
X4.0945Y-3.4803
X4.0945Y-3.685
X4.0945Y-4.4252
X4.0945Y-4.6299
X4.1693Y-2.2874
X4.1693Y-2.437
X4.1693Y-3.2323
X4.1693Y-3.3819
X4.1693Y-3.5079
X4.1693Y-3.6575
X4.1693Y-4.4528
X4.1693Y-4.6024
X4.1969Y-2.3622
X4.1969Y-3.3071
X4.1969Y-3.5827
X4.1969Y-4.5276
X4.937Y-2.3622
X4.937Y-3.3071
X4.937Y-3.5827
X4.937Y-4.5276
X4.9646Y-2.2874
X4.9646Y-2.437
X4.9646Y-3.2323
X4.9646Y-3.3819
X4.9646Y-3.5079
X4.9646Y-3.6575
X4.9646Y-4.4528
X4.9646Y-4.6024
X5.0394Y-2.2598
X5.0394Y-2.4646
X5.0394Y-3.2047
X5.0394Y-3.4094
X5.0394Y-3.4803
X5.0394Y-3.685
X5.0394Y-4.4252
X5.0394Y-4.6299
X5.1142Y-2.2874
X5.1142Y-2.437
X5.1142Y-3.2323
X5.1142Y-3.3819
X5.1142Y-3.5079
X5.1142Y-3.6575
X5.1142Y-4.4528
X5.1142Y-4.6024
X5.1417Y-2.3622
X5.1417Y-3.3071
X5.1417Y-3.5827
X5.1417Y-4.5276
X5.8819Y-2.3622
X5.8819Y-3.3071
X5.8819Y-3.5827
X5.8819Y-4.5276
X5.9094Y-2.2874
X5.9094Y-2.437
X5.9094Y-3.2323
X5.9094Y-3.3819
X5.9094Y-3.5079
X5.9094Y-3.6575
X5.9094Y-4.4528
X5.9094Y-4.6024
X5.9843Y-2.2598
X5.9843Y-2.4646
X5.9843Y-3.2047
X5.9843Y-3.4094
X5.9843Y-3.4803
X5.9843Y-3.685
X5.9843Y-4.4252
X5.9843Y-4.6299
X6.0591Y-2.2874
X6.0591Y-2.437
X6.0591Y-3.2323
X6.0591Y-3.3819
X6.0591Y-3.5079
X6.0591Y-3.6575
X6.0591Y-4.4528
X6.0591Y-4.6024
X6.0866Y-2.3622
X6.0866Y-3.3071
X6.0866Y-3.5827
X6.0866Y-4.5276
X6.8268Y-2.3622
X6.8268Y-3.3071
X6.8268Y-3.5827
X6.8268Y-4.5276
X6.8543Y-2.2874
X6.8543Y-2.437
X6.8543Y-3.2323
X6.8543Y-3.3819
X6.8543Y-3.5079
X6.8543Y-3.6575
X6.8543Y-4.4528
X6.8543Y-4.6024
X6.9291Y-2.2598
X6.9291Y-2.4646
X6.9291Y-3.2047
X6.9291Y-3.4094
X6.9291Y-3.4803
X6.9291Y-3.685
X6.9291Y-4.4252
X6.9291Y-4.6299
X7.0039Y-2.2874
X7.0039Y-2.437
X7.0039Y-3.2323
X7.0039Y-3.3819
X7.0039Y-3.5079
X7.0039Y-3.6575
X7.0039Y-4.4528
X7.0039Y-4.6024
X7.0315Y-2.3622
X7.0315Y-3.3071
X7.0315Y-3.5827
X7.0315Y-4.5276
X7.7717Y-2.3622
X7.7717Y-3.3071
X7.7717Y-3.5827
X7.7717Y-4.5276
X7.7992Y-2.2874
X7.7992Y-2.437
X7.7992Y-3.2323
X7.7992Y-3.3819
X7.7992Y-3.5079
X7.7992Y-3.6575
X7.7992Y-4.4528
X7.7992Y-4.6024
X7.874Y-2.2598
X7.874Y-2.4646
X7.874Y-3.2047
X7.874Y-3.4094
X7.874Y-3.4803
X7.874Y-3.685
X7.874Y-4.4252
X7.874Y-4.6299
X7.9488Y-2.2874
X7.9488Y-2.437
X7.9488Y-3.2323
X7.9488Y-3.3819
X7.9488Y-3.5079
X7.9488Y-3.6575
X7.9488Y-4.4528
X7.9488Y-4.6024
X7.9764Y-2.3622
X7.9764Y-3.3071
X7.9764Y-3.5827
X7.9764Y-4.5276
T3
X3.5433Y-2.6181
X3.5433Y-2.6969
X3.5433Y-2.7559
X3.5433Y-2.815
X3.5433Y-2.874
X3.5433Y-2.937
X3.5433Y-3.0157
X3.5433Y-3.0945
X3.5433Y-3.1732
X3.5433Y-3.7165
X3.5433Y-3.7953
X3.5433Y-3.874
X3.5433Y-3.9528
X3.5433Y-4.0157
X3.5433Y-4.0748
X3.5433Y-4.1339
X3.5433Y-4.1929
X3.5433Y-4.2717
X3.622Y-2.6181
X3.622Y-3.0157
X3.622Y-3.0945
X3.622Y-3.1732
X3.622Y-3.7165
X3.622Y-3.7953
X3.622Y-3.874
X3.622Y-4.2717
X3.7008Y-2.6181
X3.7008Y-2.6969
X3.7008Y-2.7559
X3.7008Y-2.815
X3.7008Y-2.874
X3.7008Y-2.937
X3.7008Y-3.0157
X3.7008Y-3.0945
X3.7008Y-3.1732
X3.7008Y-3.7165
X3.7008Y-3.7953
X3.7008Y-3.874
X3.7008Y-3.9528
X3.7008Y-4.0157
X3.7008Y-4.0748
X3.7008Y-4.1339
X3.7008Y-4.1929
X3.7008Y-4.2717
X4.4882Y-2.6181
X4.4882Y-2.6969
X4.4882Y-2.7559
X4.4882Y-2.815
X4.4882Y-2.874
X4.4882Y-2.937
X4.4882Y-3.0157
X4.4882Y-3.0945
X4.4882Y-3.1732
X4.4882Y-3.7165
X4.4882Y-3.7953
X4.4882Y-3.874
X4.4882Y-3.9528
X4.4882Y-4.0157
X4.4882Y-4.0748
X4.4882Y-4.1339
X4.4882Y-4.1929
X4.4882Y-4.2717
X4.5669Y-2.6181
X4.5669Y-3.0157
X4.5669Y-3.0945
X4.5669Y-3.1732
X4.5669Y-3.7165
X4.5669Y-3.7953
X4.5669Y-3.874
X4.5669Y-4.2717
X4.6457Y-2.6181
X4.6457Y-2.6969
X4.6457Y-2.7559
X4.6457Y-2.815
X4.6457Y-2.874
X4.6457Y-2.937
X4.6457Y-3.0157
X4.6457Y-3.0945
X4.6457Y-3.1732
X4.6457Y-3.7165
X4.6457Y-3.7953
X4.6457Y-3.874
X4.6457Y-3.9528
X4.6457Y-4.0157
X4.6457Y-4.0748
X4.6457Y-4.1339
X4.6457Y-4.1929
X4.6457Y-4.2717
X5.4331Y-2.6181
X5.4331Y-2.6969
X5.4331Y-2.7559
X5.4331Y-2.815
X5.4331Y-2.874
X5.4331Y-2.937
X5.4331Y-3.0157
X5.4331Y-3.0945
X5.4331Y-3.1732
X5.4331Y-3.7165
X5.4331Y-3.7953
X5.4331Y-3.874
X5.4331Y-3.9528
X5.4331Y-4.0157
X5.4331Y-4.0748
X5.4331Y-4.1339
X5.4331Y-4.1929
X5.4331Y-4.272
X5.5118Y-2.6181
X5.5118Y-3.0157
X5.5118Y-3.0945
X5.5118Y-3.1732
X5.5118Y-3.7165
X5.5118Y-3.7953
X5.5118Y-3.874
X5.5118Y-4.272
X5.5906Y-2.6181
X5.5906Y-2.6969
X5.5906Y-2.7559
X5.5906Y-2.815
X5.5906Y-2.874
X5.5906Y-2.937
X5.5906Y-3.0157
X5.5906Y-3.0945
X5.5906Y-3.1732
X5.5906Y-3.7165
X5.5906Y-3.7953
X5.5906Y-3.874
X5.5906Y-3.9528
X5.5906Y-4.0157
X5.5906Y-4.0748
X5.5906Y-4.1339
X5.5906Y-4.1929
X5.5906Y-4.272
X6.378Y-2.6181
X6.378Y-2.6969
X6.378Y-2.7559
X6.378Y-2.815
X6.378Y-2.874
X6.378Y-2.937
X6.378Y-3.0157
X6.378Y-3.0945
X6.378Y-3.1732
X6.378Y-3.7165
X6.378Y-3.7953
X6.378Y-3.874
X6.378Y-3.9528
X6.378Y-4.0157
X6.378Y-4.0748
X6.378Y-4.1339
X6.378Y-4.1929
X6.378Y-4.272
X6.4567Y-2.6181
X6.4567Y-3.0157
X6.4567Y-3.0945
X6.4567Y-3.1732
X6.4567Y-3.7165
X6.4567Y-3.7953
X6.4567Y-3.874
X6.4567Y-4.272
X6.5354Y-2.6181
X6.5354Y-2.6969
X6.5354Y-2.7559
X6.5354Y-2.815
X6.5354Y-2.874
X6.5354Y-2.937
X6.5354Y-3.0157
X6.5354Y-3.0945
X6.5354Y-3.1732
X6.5354Y-3.7165
X6.5354Y-3.7953
X6.5354Y-3.874
X6.5354Y-3.9528
X6.5354Y-4.0157
X6.5354Y-4.0748
X6.5354Y-4.1339
X6.5354Y-4.1929
X6.5354Y-4.272
X7.3228Y-2.6181
X7.3228Y-2.6969
X7.3228Y-2.7559
X7.3228Y-2.815
X7.3228Y-2.874
X7.3228Y-2.937
X7.3228Y-3.0157
X7.3228Y-3.0945
X7.3228Y-3.1732
X7.3228Y-3.7165
X7.3228Y-3.7953
X7.3228Y-3.874
X7.3228Y-3.9528
X7.3228Y-4.0157
X7.3228Y-4.0748
X7.3228Y-4.1339
X7.3228Y-4.1929
X7.3228Y-4.272
X7.4016Y-2.6181
X7.4016Y-3.0157
X7.4016Y-3.0945
X7.4016Y-3.1732
X7.4016Y-3.7165
X7.4016Y-3.7953
X7.4016Y-3.874
X7.4016Y-4.272
X7.4802Y-2.6169
X7.4803Y-2.6969
X7.4803Y-2.7559
X7.4803Y-2.815
X7.4803Y-2.874
X7.4803Y-2.937
X7.4803Y-3.0157
X7.4803Y-3.0945
X7.4803Y-3.1732
X7.4803Y-3.7165
X7.4803Y-3.7953
X7.4803Y-3.874
X7.4803Y-3.9528
X7.4803Y-4.0157
X7.4803Y-4.0748
X7.4803Y-4.1339
X7.4803Y-4.1929
X7.4803Y-4.272
T4
X3.1496Y-2.3622
X3.1496Y-3.3071
X3.1496Y-3.5827
X3.1496Y-4.5276
X4.0945Y-2.3622
X4.0945Y-3.3071
X4.0945Y-3.5827
X4.0945Y-4.5276
X5.0394Y-2.3622
X5.0394Y-3.3071
X5.0394Y-3.5827
X5.0394Y-4.5276
X5.9843Y-2.3622
X5.9843Y-3.3071
X5.9843Y-3.5827
X5.9843Y-4.5276
X6.9291Y-2.3622
X6.9291Y-3.3071
X6.9291Y-3.5827
X6.9291Y-4.5276
X7.874Y-2.3622
X7.874Y-3.3071
X7.874Y-3.5827
X7.874Y-4.5276
M30
