%TF.GenerationSoftware,KiCad,Pcbnew,8.0.1*%
%TF.CreationDate,2024-04-21T01:40:19+02:00*%
%TF.ProjectId,EKO_Miner_BM1366-13xx_16-01A,454b4f5f-4d69-46e6-9572-5f424d313336,rev?*%
%TF.SameCoordinates,Original*%
%TF.FileFunction,Paste,Top*%
%TF.FilePolarity,Positive*%
%FSLAX46Y46*%
G04 Gerber Fmt 4.6, Leading zero omitted, Abs format (unit mm)*
G04 Created by KiCad (PCBNEW 8.0.1) date 2024-04-21 01:40:19*
%MOMM*%
%LPD*%
G01*
G04 APERTURE LIST*
G04 Aperture macros list*
%AMRoundRect*
0 Rectangle with rounded corners*
0 $1 Rounding radius*
0 $2 $3 $4 $5 $6 $7 $8 $9 X,Y pos of 4 corners*
0 Add a 4 corners polygon primitive as box body*
4,1,4,$2,$3,$4,$5,$6,$7,$8,$9,$2,$3,0*
0 Add four circle primitives for the rounded corners*
1,1,$1+$1,$2,$3*
1,1,$1+$1,$4,$5*
1,1,$1+$1,$6,$7*
1,1,$1+$1,$8,$9*
0 Add four rect primitives between the rounded corners*
20,1,$1+$1,$2,$3,$4,$5,0*
20,1,$1+$1,$4,$5,$6,$7,0*
20,1,$1+$1,$6,$7,$8,$9,0*
20,1,$1+$1,$8,$9,$2,$3,0*%
G04 Aperture macros list end*
%ADD10C,0.000000*%
%ADD11C,0.001000*%
%ADD12C,0.010000*%
%ADD13RoundRect,0.135000X0.135000X0.185000X-0.135000X0.185000X-0.135000X-0.185000X0.135000X-0.185000X0*%
%ADD14RoundRect,0.135000X-0.135000X-0.185000X0.135000X-0.185000X0.135000X0.185000X-0.135000X0.185000X0*%
%ADD15R,0.249999X0.700001*%
%ADD16R,0.249998X1.100000*%
%ADD17R,2.849999X0.800001*%
%ADD18RoundRect,0.250000X-1.100000X0.325000X-1.100000X-0.325000X1.100000X-0.325000X1.100000X0.325000X0*%
%ADD19RoundRect,0.140000X0.170000X-0.140000X0.170000X0.140000X-0.170000X0.140000X-0.170000X-0.140000X0*%
%ADD20RoundRect,0.140000X0.140000X0.170000X-0.140000X0.170000X-0.140000X-0.170000X0.140000X-0.170000X0*%
%ADD21RoundRect,0.135000X0.185000X-0.135000X0.185000X0.135000X-0.185000X0.135000X-0.185000X-0.135000X0*%
%ADD22RoundRect,0.250000X0.325000X1.100000X-0.325000X1.100000X-0.325000X-1.100000X0.325000X-1.100000X0*%
%ADD23RoundRect,0.250000X-0.325000X-1.100000X0.325000X-1.100000X0.325000X1.100000X-0.325000X1.100000X0*%
%ADD24R,0.792000X0.221000*%
%ADD25RoundRect,0.250000X0.550000X-1.500000X0.550000X1.500000X-0.550000X1.500000X-0.550000X-1.500000X0*%
%ADD26RoundRect,0.135000X-0.185000X0.135000X-0.185000X-0.135000X0.185000X-0.135000X0.185000X0.135000X0*%
%ADD27RoundRect,0.140000X-0.140000X-0.170000X0.140000X-0.170000X0.140000X0.170000X-0.140000X0.170000X0*%
%ADD28RoundRect,0.140000X-0.170000X0.140000X-0.170000X-0.140000X0.170000X-0.140000X0.170000X0.140000X0*%
%ADD29RoundRect,0.250000X0.625000X-0.400000X0.625000X0.400000X-0.625000X0.400000X-0.625000X-0.400000X0*%
%ADD30RoundRect,0.150000X-0.825000X-0.150000X0.825000X-0.150000X0.825000X0.150000X-0.825000X0.150000X0*%
%ADD31R,3.300000X3.050000*%
%ADD32R,1.100000X1.300000*%
%ADD33R,0.300000X0.600000*%
%ADD34RoundRect,0.075000X0.075000X-0.225000X0.075000X0.225000X-0.075000X0.225000X-0.075000X-0.225000X0*%
%ADD35RoundRect,0.075000X0.474999X0.075000X-0.474999X0.075000X-0.474999X-0.075000X0.474999X-0.075000X0*%
%ADD36RoundRect,0.181250X-0.181250X0.618750X-0.181250X-0.618750X0.181250X-0.618750X0.181250X0.618750X0*%
%ADD37RoundRect,0.075000X-0.474999X-0.075000X0.474999X-0.075000X0.474999X0.075000X-0.474999X0.075000X0*%
%ADD38RoundRect,0.181250X0.181250X-0.618750X0.181250X0.618750X-0.181250X0.618750X-0.181250X-0.618750X0*%
%ADD39RoundRect,0.250000X1.100000X-0.325000X1.100000X0.325000X-1.100000X0.325000X-1.100000X-0.325000X0*%
%ADD40RoundRect,0.250000X0.325000X0.450000X-0.325000X0.450000X-0.325000X-0.450000X0.325000X-0.450000X0*%
%ADD41RoundRect,0.422400X0.457600X-0.057600X0.457600X0.057600X-0.457600X0.057600X-0.457600X-0.057600X0*%
%ADD42RoundRect,0.457600X0.422400X-1.172400X0.422400X1.172400X-0.422400X1.172400X-0.422400X-1.172400X0*%
%ADD43RoundRect,0.150000X-0.512500X-0.150000X0.512500X-0.150000X0.512500X0.150000X-0.512500X0.150000X0*%
%ADD44RoundRect,0.007800X0.437200X0.122200X-0.437200X0.122200X-0.437200X-0.122200X0.437200X-0.122200X0*%
%ADD45RoundRect,0.007800X-0.122200X0.437200X-0.122200X-0.437200X0.122200X-0.437200X0.122200X0.437200X0*%
%ADD46RoundRect,0.100000X-0.712500X-0.100000X0.712500X-0.100000X0.712500X0.100000X-0.712500X0.100000X0*%
%ADD47RoundRect,0.028600X-0.401400X0.101400X-0.401400X-0.101400X0.401400X-0.101400X0.401400X0.101400X0*%
%ADD48RoundRect,0.007800X-0.122200X0.422200X-0.122200X-0.422200X0.122200X-0.422200X0.122200X0.422200X0*%
%ADD49RoundRect,0.150000X0.150000X-0.587500X0.150000X0.587500X-0.150000X0.587500X-0.150000X-0.587500X0*%
%TA.AperFunction,Profile*%
%ADD50C,0.100000*%
%TD*%
G04 APERTURE END LIST*
D10*
%TO.C,U19*%
G36*
X89489431Y-62100968D02*
G01*
X89498885Y-62103835D01*
X89507600Y-62108494D01*
X89515238Y-62114762D01*
X89521504Y-62122400D01*
X89526162Y-62131112D01*
X89529030Y-62140566D01*
X89529998Y-62150401D01*
X89529998Y-63459598D01*
X89529030Y-63469433D01*
X89526162Y-63478887D01*
X89521504Y-63487599D01*
X89515238Y-63495237D01*
X89507600Y-63501506D01*
X89498885Y-63506164D01*
X89489431Y-63509032D01*
X89479599Y-63510000D01*
X88460399Y-63510000D01*
X88450566Y-63509032D01*
X88441112Y-63506164D01*
X88432398Y-63501506D01*
X88424760Y-63495237D01*
X88418494Y-63487599D01*
X88413835Y-63478887D01*
X88410968Y-63469433D01*
X88409997Y-63459598D01*
X88409997Y-62150401D01*
X88410968Y-62140566D01*
X88413835Y-62131112D01*
X88418494Y-62122400D01*
X88424760Y-62114762D01*
X88432398Y-62108494D01*
X88441112Y-62103835D01*
X88450566Y-62100968D01*
X88460399Y-62100000D01*
X89479599Y-62100000D01*
X89489431Y-62100968D01*
G37*
G36*
X89489431Y-60490968D02*
G01*
X89498885Y-60493836D01*
X89507600Y-60498494D01*
X89515238Y-60504763D01*
X89521504Y-60512401D01*
X89526162Y-60521113D01*
X89529030Y-60530567D01*
X89529998Y-60540402D01*
X89529998Y-61849599D01*
X89529030Y-61859434D01*
X89526162Y-61868888D01*
X89521504Y-61877600D01*
X89515238Y-61885238D01*
X89507600Y-61891506D01*
X89498885Y-61896165D01*
X89489431Y-61899032D01*
X89479599Y-61900000D01*
X88460399Y-61900000D01*
X88450566Y-61899032D01*
X88441112Y-61896165D01*
X88432398Y-61891506D01*
X88424760Y-61885238D01*
X88418494Y-61877600D01*
X88413835Y-61868888D01*
X88410968Y-61859434D01*
X88409997Y-61849599D01*
X88409997Y-60540402D01*
X88410968Y-60530567D01*
X88413835Y-60521113D01*
X88418494Y-60512401D01*
X88424760Y-60504763D01*
X88432398Y-60498494D01*
X88441112Y-60493836D01*
X88450566Y-60490968D01*
X88460399Y-60490000D01*
X89479599Y-60490000D01*
X89489431Y-60490968D01*
G37*
G36*
X90809431Y-62100968D02*
G01*
X90818885Y-62103835D01*
X90827600Y-62108494D01*
X90835238Y-62114762D01*
X90841504Y-62122400D01*
X90846162Y-62131112D01*
X90849030Y-62140566D01*
X90849998Y-62150401D01*
X90849998Y-63459598D01*
X90849030Y-63469433D01*
X90846162Y-63478887D01*
X90841504Y-63487599D01*
X90835238Y-63495237D01*
X90827600Y-63501506D01*
X90818885Y-63506164D01*
X90809431Y-63509032D01*
X90799599Y-63510000D01*
X89780399Y-63510000D01*
X89770566Y-63509032D01*
X89761112Y-63506164D01*
X89752398Y-63501506D01*
X89744760Y-63495237D01*
X89738494Y-63487599D01*
X89733835Y-63478887D01*
X89730968Y-63469433D01*
X89729997Y-63459598D01*
X89729997Y-62150401D01*
X89730968Y-62140566D01*
X89733835Y-62131112D01*
X89738494Y-62122400D01*
X89744760Y-62114762D01*
X89752398Y-62108494D01*
X89761112Y-62103835D01*
X89770566Y-62100968D01*
X89780399Y-62100000D01*
X90799599Y-62100000D01*
X90809431Y-62100968D01*
G37*
G36*
X90809431Y-60490968D02*
G01*
X90818885Y-60493836D01*
X90827600Y-60498494D01*
X90835238Y-60504763D01*
X90841504Y-60512401D01*
X90846162Y-60521113D01*
X90849030Y-60530567D01*
X90849998Y-60540402D01*
X90849998Y-61849599D01*
X90849030Y-61859434D01*
X90846162Y-61868888D01*
X90841504Y-61877600D01*
X90835238Y-61885238D01*
X90827600Y-61891506D01*
X90818885Y-61896165D01*
X90809431Y-61899032D01*
X90799599Y-61900000D01*
X89780399Y-61900000D01*
X89770566Y-61899032D01*
X89761112Y-61896165D01*
X89752398Y-61891506D01*
X89744760Y-61885238D01*
X89738494Y-61877600D01*
X89733835Y-61868888D01*
X89730968Y-61859434D01*
X89729997Y-61849599D01*
X89729997Y-60540402D01*
X89730968Y-60530567D01*
X89733835Y-60521113D01*
X89738494Y-60512401D01*
X89744760Y-60504763D01*
X89752398Y-60498494D01*
X89761112Y-60493836D01*
X89770566Y-60490968D01*
X89780399Y-60490000D01*
X90799599Y-60490000D01*
X90809431Y-60490968D01*
G37*
G36*
X92129434Y-62100968D02*
G01*
X92138888Y-62103835D01*
X92147602Y-62108494D01*
X92155240Y-62114762D01*
X92161506Y-62122400D01*
X92166165Y-62131112D01*
X92169032Y-62140566D01*
X92170003Y-62150401D01*
X92170003Y-63459598D01*
X92169032Y-63469433D01*
X92166165Y-63478887D01*
X92161506Y-63487599D01*
X92155240Y-63495237D01*
X92147602Y-63501506D01*
X92138888Y-63506164D01*
X92129434Y-63509032D01*
X92119601Y-63510000D01*
X91100401Y-63510000D01*
X91090569Y-63509032D01*
X91081115Y-63506164D01*
X91072400Y-63501506D01*
X91064762Y-63495237D01*
X91058496Y-63487599D01*
X91053838Y-63478887D01*
X91050970Y-63469433D01*
X91050002Y-63459598D01*
X91050002Y-62150401D01*
X91050970Y-62140566D01*
X91053838Y-62131112D01*
X91058496Y-62122400D01*
X91064762Y-62114762D01*
X91072400Y-62108494D01*
X91081115Y-62103835D01*
X91090569Y-62100968D01*
X91100401Y-62100000D01*
X92119601Y-62100000D01*
X92129434Y-62100968D01*
G37*
G36*
X92129434Y-60490968D02*
G01*
X92138888Y-60493836D01*
X92147602Y-60498494D01*
X92155240Y-60504763D01*
X92161506Y-60512401D01*
X92166165Y-60521113D01*
X92169032Y-60530567D01*
X92170003Y-60540402D01*
X92170003Y-61849599D01*
X92169032Y-61859434D01*
X92166165Y-61868888D01*
X92161506Y-61877600D01*
X92155240Y-61885238D01*
X92147602Y-61891506D01*
X92138888Y-61896165D01*
X92129434Y-61899032D01*
X92119601Y-61900000D01*
X91100401Y-61900000D01*
X91090569Y-61899032D01*
X91081115Y-61896165D01*
X91072400Y-61891506D01*
X91064762Y-61885238D01*
X91058496Y-61877600D01*
X91053838Y-61868888D01*
X91050970Y-61859434D01*
X91050002Y-61849599D01*
X91050002Y-60540402D01*
X91050970Y-60530567D01*
X91053838Y-60521113D01*
X91058496Y-60512401D01*
X91064762Y-60504763D01*
X91072400Y-60498494D01*
X91081115Y-60493836D01*
X91090569Y-60490968D01*
X91100401Y-60490000D01*
X92119601Y-60490000D01*
X92129434Y-60490968D01*
G37*
G36*
X93449434Y-62100968D02*
G01*
X93458888Y-62103835D01*
X93467602Y-62108494D01*
X93475240Y-62114762D01*
X93481506Y-62122400D01*
X93486165Y-62131112D01*
X93489032Y-62140566D01*
X93490003Y-62150401D01*
X93490003Y-63459598D01*
X93489032Y-63469433D01*
X93486165Y-63478887D01*
X93481506Y-63487599D01*
X93475240Y-63495237D01*
X93467602Y-63501506D01*
X93458888Y-63506164D01*
X93449434Y-63509032D01*
X93439601Y-63510000D01*
X92420401Y-63510000D01*
X92410569Y-63509032D01*
X92401115Y-63506164D01*
X92392400Y-63501506D01*
X92384762Y-63495237D01*
X92378496Y-63487599D01*
X92373838Y-63478887D01*
X92370970Y-63469433D01*
X92370002Y-63459598D01*
X92370002Y-62150401D01*
X92370970Y-62140566D01*
X92373838Y-62131112D01*
X92378496Y-62122400D01*
X92384762Y-62114762D01*
X92392400Y-62108494D01*
X92401115Y-62103835D01*
X92410569Y-62100968D01*
X92420401Y-62100000D01*
X93439601Y-62100000D01*
X93449434Y-62100968D01*
G37*
G36*
X93449434Y-60490968D02*
G01*
X93458888Y-60493836D01*
X93467602Y-60498494D01*
X93475240Y-60504763D01*
X93481506Y-60512401D01*
X93486165Y-60521113D01*
X93489032Y-60530567D01*
X93490003Y-60540402D01*
X93490003Y-61849599D01*
X93489032Y-61859434D01*
X93486165Y-61868888D01*
X93481506Y-61877600D01*
X93475240Y-61885238D01*
X93467602Y-61891506D01*
X93458888Y-61896165D01*
X93449434Y-61899032D01*
X93439601Y-61900000D01*
X92420401Y-61900000D01*
X92410569Y-61899032D01*
X92401115Y-61896165D01*
X92392400Y-61891506D01*
X92384762Y-61885238D01*
X92378496Y-61877600D01*
X92373838Y-61868888D01*
X92370970Y-61859434D01*
X92370002Y-61849599D01*
X92370002Y-60540402D01*
X92370970Y-60530567D01*
X92373838Y-60521113D01*
X92378496Y-60512401D01*
X92384762Y-60504763D01*
X92392400Y-60498494D01*
X92401115Y-60493836D01*
X92410569Y-60490968D01*
X92420401Y-60490000D01*
X93439601Y-60490000D01*
X93449434Y-60490968D01*
G37*
G36*
X91074998Y-59350000D02*
G01*
X91074998Y-59560002D01*
X91124998Y-59610002D01*
X91274998Y-59610002D01*
X91324998Y-59560002D01*
X91324998Y-59350000D01*
X91374998Y-59300000D01*
X91525000Y-59300000D01*
X91575000Y-59350000D01*
X91575000Y-59560002D01*
X91625000Y-59610002D01*
X91775000Y-59610002D01*
X91825000Y-59560002D01*
X91825000Y-59350000D01*
X91874999Y-59300000D01*
X92024999Y-59300000D01*
X92074999Y-59350000D01*
X92074999Y-59560002D01*
X92124999Y-59610002D01*
X92274999Y-59610002D01*
X92324999Y-59560002D01*
X92324999Y-59350000D01*
X92374998Y-59300000D01*
X92524998Y-59300000D01*
X92574998Y-59350000D01*
X92574998Y-59560002D01*
X92624998Y-59610002D01*
X92775000Y-59610002D01*
X92825000Y-59560002D01*
X92825000Y-59350000D01*
X92875000Y-59300000D01*
X93025000Y-59300000D01*
X93075000Y-59350000D01*
X93075000Y-59560002D01*
X93124999Y-59610002D01*
X93274999Y-59610002D01*
X93324999Y-59560002D01*
X93324999Y-59350000D01*
X93374999Y-59300000D01*
X93524999Y-59300000D01*
X93574999Y-59350000D01*
X93574999Y-59950002D01*
X93524999Y-60000001D01*
X90874999Y-60000001D01*
X90824999Y-59950002D01*
X90824999Y-59350000D01*
X90874999Y-59300000D01*
X91024999Y-59300000D01*
X91074998Y-59350000D01*
G37*
G36*
X93574999Y-64049998D02*
G01*
X93574999Y-64650000D01*
X93524999Y-64700000D01*
X93374999Y-64700000D01*
X93324999Y-64650000D01*
X93324999Y-64439998D01*
X93274999Y-64389998D01*
X93124999Y-64389998D01*
X93075000Y-64439998D01*
X93075000Y-64650000D01*
X93025000Y-64700000D01*
X92875000Y-64700000D01*
X92825000Y-64650000D01*
X92825000Y-64439998D01*
X92775000Y-64389998D01*
X92624998Y-64389998D01*
X92574998Y-64439998D01*
X92574998Y-64650000D01*
X92524998Y-64700000D01*
X92374998Y-64700000D01*
X92324999Y-64650000D01*
X92324999Y-64439998D01*
X92274999Y-64389998D01*
X92124999Y-64389998D01*
X92074999Y-64439998D01*
X92074999Y-64650000D01*
X92024999Y-64700000D01*
X91874999Y-64700000D01*
X91825000Y-64650000D01*
X91825000Y-64439998D01*
X91775000Y-64389998D01*
X91625000Y-64389998D01*
X91575000Y-64439998D01*
X91575000Y-64650000D01*
X91525000Y-64700000D01*
X91374998Y-64700000D01*
X91324998Y-64650000D01*
X91324998Y-64439998D01*
X91274998Y-64389998D01*
X91124998Y-64389998D01*
X91074998Y-64439998D01*
X91074998Y-64650000D01*
X91024999Y-64700000D01*
X90874999Y-64700000D01*
X90824999Y-64650000D01*
X90824999Y-64049998D01*
X90874999Y-63999999D01*
X93524999Y-63999999D01*
X93574999Y-64049998D01*
G37*
%TO.C,U29*%
D11*
X185950000Y-105328000D02*
X185180000Y-105328000D01*
X185180000Y-104538000D01*
X185950000Y-104538000D01*
X185950000Y-105328000D01*
G36*
X185950000Y-105328000D02*
G01*
X185180000Y-105328000D01*
X185180000Y-104538000D01*
X185950000Y-104538000D01*
X185950000Y-105328000D01*
G37*
X185960000Y-102298000D02*
X185170000Y-102298000D01*
X185170000Y-101508000D01*
X185960000Y-101508000D01*
X185960000Y-102298000D01*
G36*
X185960000Y-102298000D02*
G01*
X185170000Y-102298000D01*
X185170000Y-101508000D01*
X185960000Y-101508000D01*
X185960000Y-102298000D01*
G37*
X185960000Y-103738000D02*
X185170000Y-103738000D01*
X185170000Y-102948000D01*
X185960000Y-102948000D01*
X185960000Y-103738000D01*
G36*
X185960000Y-103738000D02*
G01*
X185170000Y-103738000D01*
X185170000Y-102948000D01*
X185960000Y-102948000D01*
X185960000Y-103738000D01*
G37*
X185960000Y-107408000D02*
X185180000Y-107408000D01*
X185180000Y-106618000D01*
X185960000Y-106618000D01*
X185960000Y-107408000D01*
G36*
X185960000Y-107408000D02*
G01*
X185180000Y-107408000D01*
X185180000Y-106618000D01*
X185960000Y-106618000D01*
X185960000Y-107408000D01*
G37*
X187705000Y-103733000D02*
X186895000Y-103733000D01*
X186895000Y-102943000D01*
X187705000Y-102943000D01*
X187705000Y-103733000D01*
G36*
X187705000Y-103733000D02*
G01*
X186895000Y-103733000D01*
X186895000Y-102943000D01*
X187705000Y-102943000D01*
X187705000Y-103733000D01*
G37*
X187710000Y-102293000D02*
X186895000Y-102293000D01*
X186895000Y-101503000D01*
X187710000Y-101503000D01*
X187710000Y-102293000D01*
G36*
X187710000Y-102293000D02*
G01*
X186895000Y-102293000D01*
X186895000Y-101503000D01*
X187710000Y-101503000D01*
X187710000Y-102293000D01*
G37*
X187710000Y-105323000D02*
X186890000Y-105323000D01*
X186890000Y-104533000D01*
X187710000Y-104533000D01*
X187710000Y-105323000D01*
G36*
X187710000Y-105323000D02*
G01*
X186890000Y-105323000D01*
X186890000Y-104533000D01*
X187710000Y-104533000D01*
X187710000Y-105323000D01*
G37*
X187720000Y-107403000D02*
X186890000Y-107403000D01*
X186890000Y-106613000D01*
X187720000Y-106613000D01*
X187720000Y-107403000D01*
G36*
X187720000Y-107403000D02*
G01*
X186890000Y-107403000D01*
X186890000Y-106613000D01*
X187720000Y-106613000D01*
X187720000Y-107403000D01*
G37*
%TO.C,U26*%
X89938000Y-105328000D02*
X89168000Y-105328000D01*
X89168000Y-104538000D01*
X89938000Y-104538000D01*
X89938000Y-105328000D01*
G36*
X89938000Y-105328000D02*
G01*
X89168000Y-105328000D01*
X89168000Y-104538000D01*
X89938000Y-104538000D01*
X89938000Y-105328000D01*
G37*
X89948000Y-102298000D02*
X89158000Y-102298000D01*
X89158000Y-101508000D01*
X89948000Y-101508000D01*
X89948000Y-102298000D01*
G36*
X89948000Y-102298000D02*
G01*
X89158000Y-102298000D01*
X89158000Y-101508000D01*
X89948000Y-101508000D01*
X89948000Y-102298000D01*
G37*
X89948000Y-103738000D02*
X89158000Y-103738000D01*
X89158000Y-102948000D01*
X89948000Y-102948000D01*
X89948000Y-103738000D01*
G36*
X89948000Y-103738000D02*
G01*
X89158000Y-103738000D01*
X89158000Y-102948000D01*
X89948000Y-102948000D01*
X89948000Y-103738000D01*
G37*
X89948000Y-107408000D02*
X89168000Y-107408000D01*
X89168000Y-106618000D01*
X89948000Y-106618000D01*
X89948000Y-107408000D01*
G36*
X89948000Y-107408000D02*
G01*
X89168000Y-107408000D01*
X89168000Y-106618000D01*
X89948000Y-106618000D01*
X89948000Y-107408000D01*
G37*
X91693000Y-103733000D02*
X90883000Y-103733000D01*
X90883000Y-102943000D01*
X91693000Y-102943000D01*
X91693000Y-103733000D01*
G36*
X91693000Y-103733000D02*
G01*
X90883000Y-103733000D01*
X90883000Y-102943000D01*
X91693000Y-102943000D01*
X91693000Y-103733000D01*
G37*
X91698000Y-102293000D02*
X90883000Y-102293000D01*
X90883000Y-101503000D01*
X91698000Y-101503000D01*
X91698000Y-102293000D01*
G36*
X91698000Y-102293000D02*
G01*
X90883000Y-102293000D01*
X90883000Y-101503000D01*
X91698000Y-101503000D01*
X91698000Y-102293000D01*
G37*
X91698000Y-105323000D02*
X90878000Y-105323000D01*
X90878000Y-104533000D01*
X91698000Y-104533000D01*
X91698000Y-105323000D01*
G36*
X91698000Y-105323000D02*
G01*
X90878000Y-105323000D01*
X90878000Y-104533000D01*
X91698000Y-104533000D01*
X91698000Y-105323000D01*
G37*
X91708000Y-107403000D02*
X90878000Y-107403000D01*
X90878000Y-106613000D01*
X91708000Y-106613000D01*
X91708000Y-107403000D01*
G36*
X91708000Y-107403000D02*
G01*
X90878000Y-107403000D01*
X90878000Y-106613000D01*
X91708000Y-106613000D01*
X91708000Y-107403000D01*
G37*
%TO.C,U31*%
X154112666Y-105328000D02*
X153342666Y-105328000D01*
X153342666Y-104538000D01*
X154112666Y-104538000D01*
X154112666Y-105328000D01*
G36*
X154112666Y-105328000D02*
G01*
X153342666Y-105328000D01*
X153342666Y-104538000D01*
X154112666Y-104538000D01*
X154112666Y-105328000D01*
G37*
X154122666Y-102298000D02*
X153332666Y-102298000D01*
X153332666Y-101508000D01*
X154122666Y-101508000D01*
X154122666Y-102298000D01*
G36*
X154122666Y-102298000D02*
G01*
X153332666Y-102298000D01*
X153332666Y-101508000D01*
X154122666Y-101508000D01*
X154122666Y-102298000D01*
G37*
X154122666Y-103738000D02*
X153332666Y-103738000D01*
X153332666Y-102948000D01*
X154122666Y-102948000D01*
X154122666Y-103738000D01*
G36*
X154122666Y-103738000D02*
G01*
X153332666Y-103738000D01*
X153332666Y-102948000D01*
X154122666Y-102948000D01*
X154122666Y-103738000D01*
G37*
X154122666Y-107408000D02*
X153342666Y-107408000D01*
X153342666Y-106618000D01*
X154122666Y-106618000D01*
X154122666Y-107408000D01*
G36*
X154122666Y-107408000D02*
G01*
X153342666Y-107408000D01*
X153342666Y-106618000D01*
X154122666Y-106618000D01*
X154122666Y-107408000D01*
G37*
X155867666Y-103733000D02*
X155057666Y-103733000D01*
X155057666Y-102943000D01*
X155867666Y-102943000D01*
X155867666Y-103733000D01*
G36*
X155867666Y-103733000D02*
G01*
X155057666Y-103733000D01*
X155057666Y-102943000D01*
X155867666Y-102943000D01*
X155867666Y-103733000D01*
G37*
X155872666Y-102293000D02*
X155057666Y-102293000D01*
X155057666Y-101503000D01*
X155872666Y-101503000D01*
X155872666Y-102293000D01*
G36*
X155872666Y-102293000D02*
G01*
X155057666Y-102293000D01*
X155057666Y-101503000D01*
X155872666Y-101503000D01*
X155872666Y-102293000D01*
G37*
X155872666Y-105323000D02*
X155052666Y-105323000D01*
X155052666Y-104533000D01*
X155872666Y-104533000D01*
X155872666Y-105323000D01*
G36*
X155872666Y-105323000D02*
G01*
X155052666Y-105323000D01*
X155052666Y-104533000D01*
X155872666Y-104533000D01*
X155872666Y-105323000D01*
G37*
X155882666Y-107403000D02*
X155052666Y-107403000D01*
X155052666Y-106613000D01*
X155882666Y-106613000D01*
X155882666Y-107403000D01*
G36*
X155882666Y-107403000D02*
G01*
X155052666Y-107403000D01*
X155052666Y-106613000D01*
X155882666Y-106613000D01*
X155882666Y-107403000D01*
G37*
%TO.C,U13*%
X89288000Y-81637000D02*
X90118000Y-81637000D01*
X90118000Y-82427000D01*
X89288000Y-82427000D01*
X89288000Y-81637000D01*
G36*
X89288000Y-81637000D02*
G01*
X90118000Y-81637000D01*
X90118000Y-82427000D01*
X89288000Y-82427000D01*
X89288000Y-81637000D01*
G37*
X89298000Y-83717000D02*
X90118000Y-83717000D01*
X90118000Y-84507000D01*
X89298000Y-84507000D01*
X89298000Y-83717000D01*
G36*
X89298000Y-83717000D02*
G01*
X90118000Y-83717000D01*
X90118000Y-84507000D01*
X89298000Y-84507000D01*
X89298000Y-83717000D01*
G37*
X89298000Y-86747000D02*
X90113000Y-86747000D01*
X90113000Y-87537000D01*
X89298000Y-87537000D01*
X89298000Y-86747000D01*
G36*
X89298000Y-86747000D02*
G01*
X90113000Y-86747000D01*
X90113000Y-87537000D01*
X89298000Y-87537000D01*
X89298000Y-86747000D01*
G37*
X89303000Y-85307000D02*
X90113000Y-85307000D01*
X90113000Y-86097000D01*
X89303000Y-86097000D01*
X89303000Y-85307000D01*
G36*
X89303000Y-85307000D02*
G01*
X90113000Y-85307000D01*
X90113000Y-86097000D01*
X89303000Y-86097000D01*
X89303000Y-85307000D01*
G37*
X91048000Y-81632000D02*
X91828000Y-81632000D01*
X91828000Y-82422000D01*
X91048000Y-82422000D01*
X91048000Y-81632000D01*
G36*
X91048000Y-81632000D02*
G01*
X91828000Y-81632000D01*
X91828000Y-82422000D01*
X91048000Y-82422000D01*
X91048000Y-81632000D01*
G37*
X91048000Y-85302000D02*
X91838000Y-85302000D01*
X91838000Y-86092000D01*
X91048000Y-86092000D01*
X91048000Y-85302000D01*
G36*
X91048000Y-85302000D02*
G01*
X91838000Y-85302000D01*
X91838000Y-86092000D01*
X91048000Y-86092000D01*
X91048000Y-85302000D01*
G37*
X91048000Y-86742000D02*
X91838000Y-86742000D01*
X91838000Y-87532000D01*
X91048000Y-87532000D01*
X91048000Y-86742000D01*
G36*
X91048000Y-86742000D02*
G01*
X91838000Y-86742000D01*
X91838000Y-87532000D01*
X91048000Y-87532000D01*
X91048000Y-86742000D01*
G37*
X91058000Y-83712000D02*
X91828000Y-83712000D01*
X91828000Y-84502000D01*
X91058000Y-84502000D01*
X91058000Y-83712000D01*
G36*
X91058000Y-83712000D02*
G01*
X91828000Y-83712000D01*
X91828000Y-84502000D01*
X91058000Y-84502000D01*
X91058000Y-83712000D01*
G37*
D10*
%TO.C,U21*%
G36*
X154422763Y-62100968D02*
G01*
X154432217Y-62103835D01*
X154440932Y-62108494D01*
X154448570Y-62114762D01*
X154454836Y-62122400D01*
X154459494Y-62131112D01*
X154462362Y-62140566D01*
X154463330Y-62150401D01*
X154463330Y-63459598D01*
X154462362Y-63469433D01*
X154459494Y-63478887D01*
X154454836Y-63487599D01*
X154448570Y-63495237D01*
X154440932Y-63501506D01*
X154432217Y-63506164D01*
X154422763Y-63509032D01*
X154412931Y-63510000D01*
X153393731Y-63510000D01*
X153383898Y-63509032D01*
X153374444Y-63506164D01*
X153365730Y-63501506D01*
X153358092Y-63495237D01*
X153351826Y-63487599D01*
X153347167Y-63478887D01*
X153344300Y-63469433D01*
X153343329Y-63459598D01*
X153343329Y-62150401D01*
X153344300Y-62140566D01*
X153347167Y-62131112D01*
X153351826Y-62122400D01*
X153358092Y-62114762D01*
X153365730Y-62108494D01*
X153374444Y-62103835D01*
X153383898Y-62100968D01*
X153393731Y-62100000D01*
X154412931Y-62100000D01*
X154422763Y-62100968D01*
G37*
G36*
X154422763Y-60490968D02*
G01*
X154432217Y-60493836D01*
X154440932Y-60498494D01*
X154448570Y-60504763D01*
X154454836Y-60512401D01*
X154459494Y-60521113D01*
X154462362Y-60530567D01*
X154463330Y-60540402D01*
X154463330Y-61849599D01*
X154462362Y-61859434D01*
X154459494Y-61868888D01*
X154454836Y-61877600D01*
X154448570Y-61885238D01*
X154440932Y-61891506D01*
X154432217Y-61896165D01*
X154422763Y-61899032D01*
X154412931Y-61900000D01*
X153393731Y-61900000D01*
X153383898Y-61899032D01*
X153374444Y-61896165D01*
X153365730Y-61891506D01*
X153358092Y-61885238D01*
X153351826Y-61877600D01*
X153347167Y-61868888D01*
X153344300Y-61859434D01*
X153343329Y-61849599D01*
X153343329Y-60540402D01*
X153344300Y-60530567D01*
X153347167Y-60521113D01*
X153351826Y-60512401D01*
X153358092Y-60504763D01*
X153365730Y-60498494D01*
X153374444Y-60493836D01*
X153383898Y-60490968D01*
X153393731Y-60490000D01*
X154412931Y-60490000D01*
X154422763Y-60490968D01*
G37*
G36*
X155742763Y-62100968D02*
G01*
X155752217Y-62103835D01*
X155760932Y-62108494D01*
X155768570Y-62114762D01*
X155774836Y-62122400D01*
X155779494Y-62131112D01*
X155782362Y-62140566D01*
X155783330Y-62150401D01*
X155783330Y-63459598D01*
X155782362Y-63469433D01*
X155779494Y-63478887D01*
X155774836Y-63487599D01*
X155768570Y-63495237D01*
X155760932Y-63501506D01*
X155752217Y-63506164D01*
X155742763Y-63509032D01*
X155732931Y-63510000D01*
X154713731Y-63510000D01*
X154703898Y-63509032D01*
X154694444Y-63506164D01*
X154685730Y-63501506D01*
X154678092Y-63495237D01*
X154671826Y-63487599D01*
X154667167Y-63478887D01*
X154664300Y-63469433D01*
X154663329Y-63459598D01*
X154663329Y-62150401D01*
X154664300Y-62140566D01*
X154667167Y-62131112D01*
X154671826Y-62122400D01*
X154678092Y-62114762D01*
X154685730Y-62108494D01*
X154694444Y-62103835D01*
X154703898Y-62100968D01*
X154713731Y-62100000D01*
X155732931Y-62100000D01*
X155742763Y-62100968D01*
G37*
G36*
X155742763Y-60490968D02*
G01*
X155752217Y-60493836D01*
X155760932Y-60498494D01*
X155768570Y-60504763D01*
X155774836Y-60512401D01*
X155779494Y-60521113D01*
X155782362Y-60530567D01*
X155783330Y-60540402D01*
X155783330Y-61849599D01*
X155782362Y-61859434D01*
X155779494Y-61868888D01*
X155774836Y-61877600D01*
X155768570Y-61885238D01*
X155760932Y-61891506D01*
X155752217Y-61896165D01*
X155742763Y-61899032D01*
X155732931Y-61900000D01*
X154713731Y-61900000D01*
X154703898Y-61899032D01*
X154694444Y-61896165D01*
X154685730Y-61891506D01*
X154678092Y-61885238D01*
X154671826Y-61877600D01*
X154667167Y-61868888D01*
X154664300Y-61859434D01*
X154663329Y-61849599D01*
X154663329Y-60540402D01*
X154664300Y-60530567D01*
X154667167Y-60521113D01*
X154671826Y-60512401D01*
X154678092Y-60504763D01*
X154685730Y-60498494D01*
X154694444Y-60493836D01*
X154703898Y-60490968D01*
X154713731Y-60490000D01*
X155732931Y-60490000D01*
X155742763Y-60490968D01*
G37*
G36*
X157062766Y-62100968D02*
G01*
X157072220Y-62103835D01*
X157080934Y-62108494D01*
X157088572Y-62114762D01*
X157094838Y-62122400D01*
X157099497Y-62131112D01*
X157102364Y-62140566D01*
X157103335Y-62150401D01*
X157103335Y-63459598D01*
X157102364Y-63469433D01*
X157099497Y-63478887D01*
X157094838Y-63487599D01*
X157088572Y-63495237D01*
X157080934Y-63501506D01*
X157072220Y-63506164D01*
X157062766Y-63509032D01*
X157052933Y-63510000D01*
X156033733Y-63510000D01*
X156023901Y-63509032D01*
X156014447Y-63506164D01*
X156005732Y-63501506D01*
X155998094Y-63495237D01*
X155991828Y-63487599D01*
X155987170Y-63478887D01*
X155984302Y-63469433D01*
X155983334Y-63459598D01*
X155983334Y-62150401D01*
X155984302Y-62140566D01*
X155987170Y-62131112D01*
X155991828Y-62122400D01*
X155998094Y-62114762D01*
X156005732Y-62108494D01*
X156014447Y-62103835D01*
X156023901Y-62100968D01*
X156033733Y-62100000D01*
X157052933Y-62100000D01*
X157062766Y-62100968D01*
G37*
G36*
X157062766Y-60490968D02*
G01*
X157072220Y-60493836D01*
X157080934Y-60498494D01*
X157088572Y-60504763D01*
X157094838Y-60512401D01*
X157099497Y-60521113D01*
X157102364Y-60530567D01*
X157103335Y-60540402D01*
X157103335Y-61849599D01*
X157102364Y-61859434D01*
X157099497Y-61868888D01*
X157094838Y-61877600D01*
X157088572Y-61885238D01*
X157080934Y-61891506D01*
X157072220Y-61896165D01*
X157062766Y-61899032D01*
X157052933Y-61900000D01*
X156033733Y-61900000D01*
X156023901Y-61899032D01*
X156014447Y-61896165D01*
X156005732Y-61891506D01*
X155998094Y-61885238D01*
X155991828Y-61877600D01*
X155987170Y-61868888D01*
X155984302Y-61859434D01*
X155983334Y-61849599D01*
X155983334Y-60540402D01*
X155984302Y-60530567D01*
X155987170Y-60521113D01*
X155991828Y-60512401D01*
X155998094Y-60504763D01*
X156005732Y-60498494D01*
X156014447Y-60493836D01*
X156023901Y-60490968D01*
X156033733Y-60490000D01*
X157052933Y-60490000D01*
X157062766Y-60490968D01*
G37*
G36*
X158382766Y-62100968D02*
G01*
X158392220Y-62103835D01*
X158400934Y-62108494D01*
X158408572Y-62114762D01*
X158414838Y-62122400D01*
X158419497Y-62131112D01*
X158422364Y-62140566D01*
X158423335Y-62150401D01*
X158423335Y-63459598D01*
X158422364Y-63469433D01*
X158419497Y-63478887D01*
X158414838Y-63487599D01*
X158408572Y-63495237D01*
X158400934Y-63501506D01*
X158392220Y-63506164D01*
X158382766Y-63509032D01*
X158372933Y-63510000D01*
X157353733Y-63510000D01*
X157343901Y-63509032D01*
X157334447Y-63506164D01*
X157325732Y-63501506D01*
X157318094Y-63495237D01*
X157311828Y-63487599D01*
X157307170Y-63478887D01*
X157304302Y-63469433D01*
X157303334Y-63459598D01*
X157303334Y-62150401D01*
X157304302Y-62140566D01*
X157307170Y-62131112D01*
X157311828Y-62122400D01*
X157318094Y-62114762D01*
X157325732Y-62108494D01*
X157334447Y-62103835D01*
X157343901Y-62100968D01*
X157353733Y-62100000D01*
X158372933Y-62100000D01*
X158382766Y-62100968D01*
G37*
G36*
X158382766Y-60490968D02*
G01*
X158392220Y-60493836D01*
X158400934Y-60498494D01*
X158408572Y-60504763D01*
X158414838Y-60512401D01*
X158419497Y-60521113D01*
X158422364Y-60530567D01*
X158423335Y-60540402D01*
X158423335Y-61849599D01*
X158422364Y-61859434D01*
X158419497Y-61868888D01*
X158414838Y-61877600D01*
X158408572Y-61885238D01*
X158400934Y-61891506D01*
X158392220Y-61896165D01*
X158382766Y-61899032D01*
X158372933Y-61900000D01*
X157353733Y-61900000D01*
X157343901Y-61899032D01*
X157334447Y-61896165D01*
X157325732Y-61891506D01*
X157318094Y-61885238D01*
X157311828Y-61877600D01*
X157307170Y-61868888D01*
X157304302Y-61859434D01*
X157303334Y-61849599D01*
X157303334Y-60540402D01*
X157304302Y-60530567D01*
X157307170Y-60521113D01*
X157311828Y-60512401D01*
X157318094Y-60504763D01*
X157325732Y-60498494D01*
X157334447Y-60493836D01*
X157343901Y-60490968D01*
X157353733Y-60490000D01*
X158372933Y-60490000D01*
X158382766Y-60490968D01*
G37*
G36*
X156008330Y-59350000D02*
G01*
X156008330Y-59560002D01*
X156058330Y-59610002D01*
X156208330Y-59610002D01*
X156258330Y-59560002D01*
X156258330Y-59350000D01*
X156308330Y-59300000D01*
X156458332Y-59300000D01*
X156508332Y-59350000D01*
X156508332Y-59560002D01*
X156558332Y-59610002D01*
X156708332Y-59610002D01*
X156758332Y-59560002D01*
X156758332Y-59350000D01*
X156808331Y-59300000D01*
X156958331Y-59300000D01*
X157008331Y-59350000D01*
X157008331Y-59560002D01*
X157058331Y-59610002D01*
X157208331Y-59610002D01*
X157258331Y-59560002D01*
X157258331Y-59350000D01*
X157308330Y-59300000D01*
X157458330Y-59300000D01*
X157508330Y-59350000D01*
X157508330Y-59560002D01*
X157558330Y-59610002D01*
X157708332Y-59610002D01*
X157758332Y-59560002D01*
X157758332Y-59350000D01*
X157808332Y-59300000D01*
X157958332Y-59300000D01*
X158008332Y-59350000D01*
X158008332Y-59560002D01*
X158058331Y-59610002D01*
X158208331Y-59610002D01*
X158258331Y-59560002D01*
X158258331Y-59350000D01*
X158308331Y-59300000D01*
X158458331Y-59300000D01*
X158508331Y-59350000D01*
X158508331Y-59950002D01*
X158458331Y-60000001D01*
X155808331Y-60000001D01*
X155758331Y-59950002D01*
X155758331Y-59350000D01*
X155808331Y-59300000D01*
X155958331Y-59300000D01*
X156008330Y-59350000D01*
G37*
G36*
X158508331Y-64049998D02*
G01*
X158508331Y-64650000D01*
X158458331Y-64700000D01*
X158308331Y-64700000D01*
X158258331Y-64650000D01*
X158258331Y-64439998D01*
X158208331Y-64389998D01*
X158058331Y-64389998D01*
X158008332Y-64439998D01*
X158008332Y-64650000D01*
X157958332Y-64700000D01*
X157808332Y-64700000D01*
X157758332Y-64650000D01*
X157758332Y-64439998D01*
X157708332Y-64389998D01*
X157558330Y-64389998D01*
X157508330Y-64439998D01*
X157508330Y-64650000D01*
X157458330Y-64700000D01*
X157308330Y-64700000D01*
X157258331Y-64650000D01*
X157258331Y-64439998D01*
X157208331Y-64389998D01*
X157058331Y-64389998D01*
X157008331Y-64439998D01*
X157008331Y-64650000D01*
X156958331Y-64700000D01*
X156808331Y-64700000D01*
X156758332Y-64650000D01*
X156758332Y-64439998D01*
X156708332Y-64389998D01*
X156558332Y-64389998D01*
X156508332Y-64439998D01*
X156508332Y-64650000D01*
X156458332Y-64700000D01*
X156308330Y-64700000D01*
X156258330Y-64650000D01*
X156258330Y-64439998D01*
X156208330Y-64389998D01*
X156058330Y-64389998D01*
X156008330Y-64439998D01*
X156008330Y-64650000D01*
X155958331Y-64700000D01*
X155808331Y-64700000D01*
X155758331Y-64650000D01*
X155758331Y-64049998D01*
X155808331Y-63999999D01*
X158458331Y-63999999D01*
X158508331Y-64049998D01*
G37*
%TO.C,U11*%
D11*
X202063999Y-81637000D02*
X202893999Y-81637000D01*
X202893999Y-82427000D01*
X202063999Y-82427000D01*
X202063999Y-81637000D01*
G36*
X202063999Y-81637000D02*
G01*
X202893999Y-81637000D01*
X202893999Y-82427000D01*
X202063999Y-82427000D01*
X202063999Y-81637000D01*
G37*
X202073999Y-83717000D02*
X202893999Y-83717000D01*
X202893999Y-84507000D01*
X202073999Y-84507000D01*
X202073999Y-83717000D01*
G36*
X202073999Y-83717000D02*
G01*
X202893999Y-83717000D01*
X202893999Y-84507000D01*
X202073999Y-84507000D01*
X202073999Y-83717000D01*
G37*
X202073999Y-86747000D02*
X202888999Y-86747000D01*
X202888999Y-87537000D01*
X202073999Y-87537000D01*
X202073999Y-86747000D01*
G36*
X202073999Y-86747000D02*
G01*
X202888999Y-86747000D01*
X202888999Y-87537000D01*
X202073999Y-87537000D01*
X202073999Y-86747000D01*
G37*
X202078999Y-85307000D02*
X202888999Y-85307000D01*
X202888999Y-86097000D01*
X202078999Y-86097000D01*
X202078999Y-85307000D01*
G36*
X202078999Y-85307000D02*
G01*
X202888999Y-85307000D01*
X202888999Y-86097000D01*
X202078999Y-86097000D01*
X202078999Y-85307000D01*
G37*
X203823999Y-81632000D02*
X204603999Y-81632000D01*
X204603999Y-82422000D01*
X203823999Y-82422000D01*
X203823999Y-81632000D01*
G36*
X203823999Y-81632000D02*
G01*
X204603999Y-81632000D01*
X204603999Y-82422000D01*
X203823999Y-82422000D01*
X203823999Y-81632000D01*
G37*
X203823999Y-85302000D02*
X204613999Y-85302000D01*
X204613999Y-86092000D01*
X203823999Y-86092000D01*
X203823999Y-85302000D01*
G36*
X203823999Y-85302000D02*
G01*
X204613999Y-85302000D01*
X204613999Y-86092000D01*
X203823999Y-86092000D01*
X203823999Y-85302000D01*
G37*
X203823999Y-86742000D02*
X204613999Y-86742000D01*
X204613999Y-87532000D01*
X203823999Y-87532000D01*
X203823999Y-86742000D01*
G36*
X203823999Y-86742000D02*
G01*
X204613999Y-86742000D01*
X204613999Y-87532000D01*
X203823999Y-87532000D01*
X203823999Y-86742000D01*
G37*
X203833999Y-83712000D02*
X204603999Y-83712000D01*
X204603999Y-84502000D01*
X203833999Y-84502000D01*
X203833999Y-83712000D01*
G36*
X203833999Y-83712000D02*
G01*
X204603999Y-83712000D01*
X204603999Y-84502000D01*
X203833999Y-84502000D01*
X203833999Y-83712000D01*
G37*
%TO.C,U30*%
X169948000Y-105328000D02*
X169178000Y-105328000D01*
X169178000Y-104538000D01*
X169948000Y-104538000D01*
X169948000Y-105328000D01*
G36*
X169948000Y-105328000D02*
G01*
X169178000Y-105328000D01*
X169178000Y-104538000D01*
X169948000Y-104538000D01*
X169948000Y-105328000D01*
G37*
X169958000Y-102298000D02*
X169168000Y-102298000D01*
X169168000Y-101508000D01*
X169958000Y-101508000D01*
X169958000Y-102298000D01*
G36*
X169958000Y-102298000D02*
G01*
X169168000Y-102298000D01*
X169168000Y-101508000D01*
X169958000Y-101508000D01*
X169958000Y-102298000D01*
G37*
X169958000Y-103738000D02*
X169168000Y-103738000D01*
X169168000Y-102948000D01*
X169958000Y-102948000D01*
X169958000Y-103738000D01*
G36*
X169958000Y-103738000D02*
G01*
X169168000Y-103738000D01*
X169168000Y-102948000D01*
X169958000Y-102948000D01*
X169958000Y-103738000D01*
G37*
X169958000Y-107408000D02*
X169178000Y-107408000D01*
X169178000Y-106618000D01*
X169958000Y-106618000D01*
X169958000Y-107408000D01*
G36*
X169958000Y-107408000D02*
G01*
X169178000Y-107408000D01*
X169178000Y-106618000D01*
X169958000Y-106618000D01*
X169958000Y-107408000D01*
G37*
X171703000Y-103733000D02*
X170893000Y-103733000D01*
X170893000Y-102943000D01*
X171703000Y-102943000D01*
X171703000Y-103733000D01*
G36*
X171703000Y-103733000D02*
G01*
X170893000Y-103733000D01*
X170893000Y-102943000D01*
X171703000Y-102943000D01*
X171703000Y-103733000D01*
G37*
X171708000Y-102293000D02*
X170893000Y-102293000D01*
X170893000Y-101503000D01*
X171708000Y-101503000D01*
X171708000Y-102293000D01*
G36*
X171708000Y-102293000D02*
G01*
X170893000Y-102293000D01*
X170893000Y-101503000D01*
X171708000Y-101503000D01*
X171708000Y-102293000D01*
G37*
X171708000Y-105323000D02*
X170888000Y-105323000D01*
X170888000Y-104533000D01*
X171708000Y-104533000D01*
X171708000Y-105323000D01*
G36*
X171708000Y-105323000D02*
G01*
X170888000Y-105323000D01*
X170888000Y-104533000D01*
X171708000Y-104533000D01*
X171708000Y-105323000D01*
G37*
X171718000Y-107403000D02*
X170888000Y-107403000D01*
X170888000Y-106613000D01*
X171718000Y-106613000D01*
X171718000Y-107403000D01*
G36*
X171718000Y-107403000D02*
G01*
X170888000Y-107403000D01*
X170888000Y-106613000D01*
X171718000Y-106613000D01*
X171718000Y-107403000D01*
G37*
D10*
%TO.C,U20*%
G36*
X121956097Y-62100968D02*
G01*
X121965551Y-62103835D01*
X121974266Y-62108494D01*
X121981904Y-62114762D01*
X121988170Y-62122400D01*
X121992828Y-62131112D01*
X121995696Y-62140566D01*
X121996664Y-62150401D01*
X121996664Y-63459598D01*
X121995696Y-63469433D01*
X121992828Y-63478887D01*
X121988170Y-63487599D01*
X121981904Y-63495237D01*
X121974266Y-63501506D01*
X121965551Y-63506164D01*
X121956097Y-63509032D01*
X121946265Y-63510000D01*
X120927065Y-63510000D01*
X120917232Y-63509032D01*
X120907778Y-63506164D01*
X120899064Y-63501506D01*
X120891426Y-63495237D01*
X120885160Y-63487599D01*
X120880501Y-63478887D01*
X120877634Y-63469433D01*
X120876663Y-63459598D01*
X120876663Y-62150401D01*
X120877634Y-62140566D01*
X120880501Y-62131112D01*
X120885160Y-62122400D01*
X120891426Y-62114762D01*
X120899064Y-62108494D01*
X120907778Y-62103835D01*
X120917232Y-62100968D01*
X120927065Y-62100000D01*
X121946265Y-62100000D01*
X121956097Y-62100968D01*
G37*
G36*
X121956097Y-60490968D02*
G01*
X121965551Y-60493836D01*
X121974266Y-60498494D01*
X121981904Y-60504763D01*
X121988170Y-60512401D01*
X121992828Y-60521113D01*
X121995696Y-60530567D01*
X121996664Y-60540402D01*
X121996664Y-61849599D01*
X121995696Y-61859434D01*
X121992828Y-61868888D01*
X121988170Y-61877600D01*
X121981904Y-61885238D01*
X121974266Y-61891506D01*
X121965551Y-61896165D01*
X121956097Y-61899032D01*
X121946265Y-61900000D01*
X120927065Y-61900000D01*
X120917232Y-61899032D01*
X120907778Y-61896165D01*
X120899064Y-61891506D01*
X120891426Y-61885238D01*
X120885160Y-61877600D01*
X120880501Y-61868888D01*
X120877634Y-61859434D01*
X120876663Y-61849599D01*
X120876663Y-60540402D01*
X120877634Y-60530567D01*
X120880501Y-60521113D01*
X120885160Y-60512401D01*
X120891426Y-60504763D01*
X120899064Y-60498494D01*
X120907778Y-60493836D01*
X120917232Y-60490968D01*
X120927065Y-60490000D01*
X121946265Y-60490000D01*
X121956097Y-60490968D01*
G37*
G36*
X123276097Y-62100968D02*
G01*
X123285551Y-62103835D01*
X123294266Y-62108494D01*
X123301904Y-62114762D01*
X123308170Y-62122400D01*
X123312828Y-62131112D01*
X123315696Y-62140566D01*
X123316664Y-62150401D01*
X123316664Y-63459598D01*
X123315696Y-63469433D01*
X123312828Y-63478887D01*
X123308170Y-63487599D01*
X123301904Y-63495237D01*
X123294266Y-63501506D01*
X123285551Y-63506164D01*
X123276097Y-63509032D01*
X123266265Y-63510000D01*
X122247065Y-63510000D01*
X122237232Y-63509032D01*
X122227778Y-63506164D01*
X122219064Y-63501506D01*
X122211426Y-63495237D01*
X122205160Y-63487599D01*
X122200501Y-63478887D01*
X122197634Y-63469433D01*
X122196663Y-63459598D01*
X122196663Y-62150401D01*
X122197634Y-62140566D01*
X122200501Y-62131112D01*
X122205160Y-62122400D01*
X122211426Y-62114762D01*
X122219064Y-62108494D01*
X122227778Y-62103835D01*
X122237232Y-62100968D01*
X122247065Y-62100000D01*
X123266265Y-62100000D01*
X123276097Y-62100968D01*
G37*
G36*
X123276097Y-60490968D02*
G01*
X123285551Y-60493836D01*
X123294266Y-60498494D01*
X123301904Y-60504763D01*
X123308170Y-60512401D01*
X123312828Y-60521113D01*
X123315696Y-60530567D01*
X123316664Y-60540402D01*
X123316664Y-61849599D01*
X123315696Y-61859434D01*
X123312828Y-61868888D01*
X123308170Y-61877600D01*
X123301904Y-61885238D01*
X123294266Y-61891506D01*
X123285551Y-61896165D01*
X123276097Y-61899032D01*
X123266265Y-61900000D01*
X122247065Y-61900000D01*
X122237232Y-61899032D01*
X122227778Y-61896165D01*
X122219064Y-61891506D01*
X122211426Y-61885238D01*
X122205160Y-61877600D01*
X122200501Y-61868888D01*
X122197634Y-61859434D01*
X122196663Y-61849599D01*
X122196663Y-60540402D01*
X122197634Y-60530567D01*
X122200501Y-60521113D01*
X122205160Y-60512401D01*
X122211426Y-60504763D01*
X122219064Y-60498494D01*
X122227778Y-60493836D01*
X122237232Y-60490968D01*
X122247065Y-60490000D01*
X123266265Y-60490000D01*
X123276097Y-60490968D01*
G37*
G36*
X124596100Y-62100968D02*
G01*
X124605554Y-62103835D01*
X124614268Y-62108494D01*
X124621906Y-62114762D01*
X124628172Y-62122400D01*
X124632831Y-62131112D01*
X124635698Y-62140566D01*
X124636669Y-62150401D01*
X124636669Y-63459598D01*
X124635698Y-63469433D01*
X124632831Y-63478887D01*
X124628172Y-63487599D01*
X124621906Y-63495237D01*
X124614268Y-63501506D01*
X124605554Y-63506164D01*
X124596100Y-63509032D01*
X124586267Y-63510000D01*
X123567067Y-63510000D01*
X123557235Y-63509032D01*
X123547781Y-63506164D01*
X123539066Y-63501506D01*
X123531428Y-63495237D01*
X123525162Y-63487599D01*
X123520504Y-63478887D01*
X123517636Y-63469433D01*
X123516668Y-63459598D01*
X123516668Y-62150401D01*
X123517636Y-62140566D01*
X123520504Y-62131112D01*
X123525162Y-62122400D01*
X123531428Y-62114762D01*
X123539066Y-62108494D01*
X123547781Y-62103835D01*
X123557235Y-62100968D01*
X123567067Y-62100000D01*
X124586267Y-62100000D01*
X124596100Y-62100968D01*
G37*
G36*
X124596100Y-60490968D02*
G01*
X124605554Y-60493836D01*
X124614268Y-60498494D01*
X124621906Y-60504763D01*
X124628172Y-60512401D01*
X124632831Y-60521113D01*
X124635698Y-60530567D01*
X124636669Y-60540402D01*
X124636669Y-61849599D01*
X124635698Y-61859434D01*
X124632831Y-61868888D01*
X124628172Y-61877600D01*
X124621906Y-61885238D01*
X124614268Y-61891506D01*
X124605554Y-61896165D01*
X124596100Y-61899032D01*
X124586267Y-61900000D01*
X123567067Y-61900000D01*
X123557235Y-61899032D01*
X123547781Y-61896165D01*
X123539066Y-61891506D01*
X123531428Y-61885238D01*
X123525162Y-61877600D01*
X123520504Y-61868888D01*
X123517636Y-61859434D01*
X123516668Y-61849599D01*
X123516668Y-60540402D01*
X123517636Y-60530567D01*
X123520504Y-60521113D01*
X123525162Y-60512401D01*
X123531428Y-60504763D01*
X123539066Y-60498494D01*
X123547781Y-60493836D01*
X123557235Y-60490968D01*
X123567067Y-60490000D01*
X124586267Y-60490000D01*
X124596100Y-60490968D01*
G37*
G36*
X125916100Y-62100968D02*
G01*
X125925554Y-62103835D01*
X125934268Y-62108494D01*
X125941906Y-62114762D01*
X125948172Y-62122400D01*
X125952831Y-62131112D01*
X125955698Y-62140566D01*
X125956669Y-62150401D01*
X125956669Y-63459598D01*
X125955698Y-63469433D01*
X125952831Y-63478887D01*
X125948172Y-63487599D01*
X125941906Y-63495237D01*
X125934268Y-63501506D01*
X125925554Y-63506164D01*
X125916100Y-63509032D01*
X125906267Y-63510000D01*
X124887067Y-63510000D01*
X124877235Y-63509032D01*
X124867781Y-63506164D01*
X124859066Y-63501506D01*
X124851428Y-63495237D01*
X124845162Y-63487599D01*
X124840504Y-63478887D01*
X124837636Y-63469433D01*
X124836668Y-63459598D01*
X124836668Y-62150401D01*
X124837636Y-62140566D01*
X124840504Y-62131112D01*
X124845162Y-62122400D01*
X124851428Y-62114762D01*
X124859066Y-62108494D01*
X124867781Y-62103835D01*
X124877235Y-62100968D01*
X124887067Y-62100000D01*
X125906267Y-62100000D01*
X125916100Y-62100968D01*
G37*
G36*
X125916100Y-60490968D02*
G01*
X125925554Y-60493836D01*
X125934268Y-60498494D01*
X125941906Y-60504763D01*
X125948172Y-60512401D01*
X125952831Y-60521113D01*
X125955698Y-60530567D01*
X125956669Y-60540402D01*
X125956669Y-61849599D01*
X125955698Y-61859434D01*
X125952831Y-61868888D01*
X125948172Y-61877600D01*
X125941906Y-61885238D01*
X125934268Y-61891506D01*
X125925554Y-61896165D01*
X125916100Y-61899032D01*
X125906267Y-61900000D01*
X124887067Y-61900000D01*
X124877235Y-61899032D01*
X124867781Y-61896165D01*
X124859066Y-61891506D01*
X124851428Y-61885238D01*
X124845162Y-61877600D01*
X124840504Y-61868888D01*
X124837636Y-61859434D01*
X124836668Y-61849599D01*
X124836668Y-60540402D01*
X124837636Y-60530567D01*
X124840504Y-60521113D01*
X124845162Y-60512401D01*
X124851428Y-60504763D01*
X124859066Y-60498494D01*
X124867781Y-60493836D01*
X124877235Y-60490968D01*
X124887067Y-60490000D01*
X125906267Y-60490000D01*
X125916100Y-60490968D01*
G37*
G36*
X123541664Y-59350000D02*
G01*
X123541664Y-59560002D01*
X123591664Y-59610002D01*
X123741664Y-59610002D01*
X123791664Y-59560002D01*
X123791664Y-59350000D01*
X123841664Y-59300000D01*
X123991666Y-59300000D01*
X124041666Y-59350000D01*
X124041666Y-59560002D01*
X124091666Y-59610002D01*
X124241666Y-59610002D01*
X124291666Y-59560002D01*
X124291666Y-59350000D01*
X124341665Y-59300000D01*
X124491665Y-59300000D01*
X124541665Y-59350000D01*
X124541665Y-59560002D01*
X124591665Y-59610002D01*
X124741665Y-59610002D01*
X124791665Y-59560002D01*
X124791665Y-59350000D01*
X124841664Y-59300000D01*
X124991664Y-59300000D01*
X125041664Y-59350000D01*
X125041664Y-59560002D01*
X125091664Y-59610002D01*
X125241666Y-59610002D01*
X125291666Y-59560002D01*
X125291666Y-59350000D01*
X125341666Y-59300000D01*
X125491666Y-59300000D01*
X125541666Y-59350000D01*
X125541666Y-59560002D01*
X125591665Y-59610002D01*
X125741665Y-59610002D01*
X125791665Y-59560002D01*
X125791665Y-59350000D01*
X125841665Y-59300000D01*
X125991665Y-59300000D01*
X126041665Y-59350000D01*
X126041665Y-59950002D01*
X125991665Y-60000001D01*
X123341665Y-60000001D01*
X123291665Y-59950002D01*
X123291665Y-59350000D01*
X123341665Y-59300000D01*
X123491665Y-59300000D01*
X123541664Y-59350000D01*
G37*
G36*
X126041665Y-64049998D02*
G01*
X126041665Y-64650000D01*
X125991665Y-64700000D01*
X125841665Y-64700000D01*
X125791665Y-64650000D01*
X125791665Y-64439998D01*
X125741665Y-64389998D01*
X125591665Y-64389998D01*
X125541666Y-64439998D01*
X125541666Y-64650000D01*
X125491666Y-64700000D01*
X125341666Y-64700000D01*
X125291666Y-64650000D01*
X125291666Y-64439998D01*
X125241666Y-64389998D01*
X125091664Y-64389998D01*
X125041664Y-64439998D01*
X125041664Y-64650000D01*
X124991664Y-64700000D01*
X124841664Y-64700000D01*
X124791665Y-64650000D01*
X124791665Y-64439998D01*
X124741665Y-64389998D01*
X124591665Y-64389998D01*
X124541665Y-64439998D01*
X124541665Y-64650000D01*
X124491665Y-64700000D01*
X124341665Y-64700000D01*
X124291666Y-64650000D01*
X124291666Y-64439998D01*
X124241666Y-64389998D01*
X124091666Y-64389998D01*
X124041666Y-64439998D01*
X124041666Y-64650000D01*
X123991666Y-64700000D01*
X123841664Y-64700000D01*
X123791664Y-64650000D01*
X123791664Y-64439998D01*
X123741664Y-64389998D01*
X123591664Y-64389998D01*
X123541664Y-64439998D01*
X123541664Y-64650000D01*
X123491665Y-64700000D01*
X123341665Y-64700000D01*
X123291665Y-64650000D01*
X123291665Y-64049998D01*
X123341665Y-63999999D01*
X125991665Y-63999999D01*
X126041665Y-64049998D01*
G37*
%TO.C,U32*%
D11*
X138110666Y-105328000D02*
X137340666Y-105328000D01*
X137340666Y-104538000D01*
X138110666Y-104538000D01*
X138110666Y-105328000D01*
G36*
X138110666Y-105328000D02*
G01*
X137340666Y-105328000D01*
X137340666Y-104538000D01*
X138110666Y-104538000D01*
X138110666Y-105328000D01*
G37*
X138120666Y-102298000D02*
X137330666Y-102298000D01*
X137330666Y-101508000D01*
X138120666Y-101508000D01*
X138120666Y-102298000D01*
G36*
X138120666Y-102298000D02*
G01*
X137330666Y-102298000D01*
X137330666Y-101508000D01*
X138120666Y-101508000D01*
X138120666Y-102298000D01*
G37*
X138120666Y-103738000D02*
X137330666Y-103738000D01*
X137330666Y-102948000D01*
X138120666Y-102948000D01*
X138120666Y-103738000D01*
G36*
X138120666Y-103738000D02*
G01*
X137330666Y-103738000D01*
X137330666Y-102948000D01*
X138120666Y-102948000D01*
X138120666Y-103738000D01*
G37*
X138120666Y-107408000D02*
X137340666Y-107408000D01*
X137340666Y-106618000D01*
X138120666Y-106618000D01*
X138120666Y-107408000D01*
G36*
X138120666Y-107408000D02*
G01*
X137340666Y-107408000D01*
X137340666Y-106618000D01*
X138120666Y-106618000D01*
X138120666Y-107408000D01*
G37*
X139865666Y-103733000D02*
X139055666Y-103733000D01*
X139055666Y-102943000D01*
X139865666Y-102943000D01*
X139865666Y-103733000D01*
G36*
X139865666Y-103733000D02*
G01*
X139055666Y-103733000D01*
X139055666Y-102943000D01*
X139865666Y-102943000D01*
X139865666Y-103733000D01*
G37*
X139870666Y-102293000D02*
X139055666Y-102293000D01*
X139055666Y-101503000D01*
X139870666Y-101503000D01*
X139870666Y-102293000D01*
G36*
X139870666Y-102293000D02*
G01*
X139055666Y-102293000D01*
X139055666Y-101503000D01*
X139870666Y-101503000D01*
X139870666Y-102293000D01*
G37*
X139870666Y-105323000D02*
X139050666Y-105323000D01*
X139050666Y-104533000D01*
X139870666Y-104533000D01*
X139870666Y-105323000D01*
G36*
X139870666Y-105323000D02*
G01*
X139050666Y-105323000D01*
X139050666Y-104533000D01*
X139870666Y-104533000D01*
X139870666Y-105323000D01*
G37*
X139880666Y-107403000D02*
X139050666Y-107403000D01*
X139050666Y-106613000D01*
X139880666Y-106613000D01*
X139880666Y-107403000D01*
G36*
X139880666Y-107403000D02*
G01*
X139050666Y-107403000D01*
X139050666Y-106613000D01*
X139880666Y-106613000D01*
X139880666Y-107403000D01*
G37*
%TO.C,U14*%
X105398857Y-81637000D02*
X106228857Y-81637000D01*
X106228857Y-82427000D01*
X105398857Y-82427000D01*
X105398857Y-81637000D01*
G36*
X105398857Y-81637000D02*
G01*
X106228857Y-81637000D01*
X106228857Y-82427000D01*
X105398857Y-82427000D01*
X105398857Y-81637000D01*
G37*
X105408857Y-83717000D02*
X106228857Y-83717000D01*
X106228857Y-84507000D01*
X105408857Y-84507000D01*
X105408857Y-83717000D01*
G36*
X105408857Y-83717000D02*
G01*
X106228857Y-83717000D01*
X106228857Y-84507000D01*
X105408857Y-84507000D01*
X105408857Y-83717000D01*
G37*
X105408857Y-86747000D02*
X106223857Y-86747000D01*
X106223857Y-87537000D01*
X105408857Y-87537000D01*
X105408857Y-86747000D01*
G36*
X105408857Y-86747000D02*
G01*
X106223857Y-86747000D01*
X106223857Y-87537000D01*
X105408857Y-87537000D01*
X105408857Y-86747000D01*
G37*
X105413857Y-85307000D02*
X106223857Y-85307000D01*
X106223857Y-86097000D01*
X105413857Y-86097000D01*
X105413857Y-85307000D01*
G36*
X105413857Y-85307000D02*
G01*
X106223857Y-85307000D01*
X106223857Y-86097000D01*
X105413857Y-86097000D01*
X105413857Y-85307000D01*
G37*
X107158857Y-81632000D02*
X107938857Y-81632000D01*
X107938857Y-82422000D01*
X107158857Y-82422000D01*
X107158857Y-81632000D01*
G36*
X107158857Y-81632000D02*
G01*
X107938857Y-81632000D01*
X107938857Y-82422000D01*
X107158857Y-82422000D01*
X107158857Y-81632000D01*
G37*
X107158857Y-85302000D02*
X107948857Y-85302000D01*
X107948857Y-86092000D01*
X107158857Y-86092000D01*
X107158857Y-85302000D01*
G36*
X107158857Y-85302000D02*
G01*
X107948857Y-85302000D01*
X107948857Y-86092000D01*
X107158857Y-86092000D01*
X107158857Y-85302000D01*
G37*
X107158857Y-86742000D02*
X107948857Y-86742000D01*
X107948857Y-87532000D01*
X107158857Y-87532000D01*
X107158857Y-86742000D01*
G36*
X107158857Y-86742000D02*
G01*
X107948857Y-86742000D01*
X107948857Y-87532000D01*
X107158857Y-87532000D01*
X107158857Y-86742000D01*
G37*
X107168857Y-83712000D02*
X107938857Y-83712000D01*
X107938857Y-84502000D01*
X107168857Y-84502000D01*
X107168857Y-83712000D01*
G36*
X107168857Y-83712000D02*
G01*
X107938857Y-83712000D01*
X107938857Y-84502000D01*
X107168857Y-84502000D01*
X107168857Y-83712000D01*
G37*
%TO.C,U12*%
X169842285Y-81637000D02*
X170672285Y-81637000D01*
X170672285Y-82427000D01*
X169842285Y-82427000D01*
X169842285Y-81637000D01*
G36*
X169842285Y-81637000D02*
G01*
X170672285Y-81637000D01*
X170672285Y-82427000D01*
X169842285Y-82427000D01*
X169842285Y-81637000D01*
G37*
X169852285Y-83717000D02*
X170672285Y-83717000D01*
X170672285Y-84507000D01*
X169852285Y-84507000D01*
X169852285Y-83717000D01*
G36*
X169852285Y-83717000D02*
G01*
X170672285Y-83717000D01*
X170672285Y-84507000D01*
X169852285Y-84507000D01*
X169852285Y-83717000D01*
G37*
X169852285Y-86747000D02*
X170667285Y-86747000D01*
X170667285Y-87537000D01*
X169852285Y-87537000D01*
X169852285Y-86747000D01*
G36*
X169852285Y-86747000D02*
G01*
X170667285Y-86747000D01*
X170667285Y-87537000D01*
X169852285Y-87537000D01*
X169852285Y-86747000D01*
G37*
X169857285Y-85307000D02*
X170667285Y-85307000D01*
X170667285Y-86097000D01*
X169857285Y-86097000D01*
X169857285Y-85307000D01*
G36*
X169857285Y-85307000D02*
G01*
X170667285Y-85307000D01*
X170667285Y-86097000D01*
X169857285Y-86097000D01*
X169857285Y-85307000D01*
G37*
X171602285Y-81632000D02*
X172382285Y-81632000D01*
X172382285Y-82422000D01*
X171602285Y-82422000D01*
X171602285Y-81632000D01*
G36*
X171602285Y-81632000D02*
G01*
X172382285Y-81632000D01*
X172382285Y-82422000D01*
X171602285Y-82422000D01*
X171602285Y-81632000D01*
G37*
X171602285Y-85302000D02*
X172392285Y-85302000D01*
X172392285Y-86092000D01*
X171602285Y-86092000D01*
X171602285Y-85302000D01*
G36*
X171602285Y-85302000D02*
G01*
X172392285Y-85302000D01*
X172392285Y-86092000D01*
X171602285Y-86092000D01*
X171602285Y-85302000D01*
G37*
X171602285Y-86742000D02*
X172392285Y-86742000D01*
X172392285Y-87532000D01*
X171602285Y-87532000D01*
X171602285Y-86742000D01*
G36*
X171602285Y-86742000D02*
G01*
X172392285Y-86742000D01*
X172392285Y-87532000D01*
X171602285Y-87532000D01*
X171602285Y-86742000D01*
G37*
X171612285Y-83712000D02*
X172382285Y-83712000D01*
X172382285Y-84502000D01*
X171612285Y-84502000D01*
X171612285Y-83712000D01*
G36*
X171612285Y-83712000D02*
G01*
X172382285Y-83712000D01*
X172382285Y-84502000D01*
X171612285Y-84502000D01*
X171612285Y-83712000D01*
G37*
%TO.C,U24*%
X153731428Y-81637000D02*
X154561428Y-81637000D01*
X154561428Y-82427000D01*
X153731428Y-82427000D01*
X153731428Y-81637000D01*
G36*
X153731428Y-81637000D02*
G01*
X154561428Y-81637000D01*
X154561428Y-82427000D01*
X153731428Y-82427000D01*
X153731428Y-81637000D01*
G37*
X153741428Y-83717000D02*
X154561428Y-83717000D01*
X154561428Y-84507000D01*
X153741428Y-84507000D01*
X153741428Y-83717000D01*
G36*
X153741428Y-83717000D02*
G01*
X154561428Y-83717000D01*
X154561428Y-84507000D01*
X153741428Y-84507000D01*
X153741428Y-83717000D01*
G37*
X153741428Y-86747000D02*
X154556428Y-86747000D01*
X154556428Y-87537000D01*
X153741428Y-87537000D01*
X153741428Y-86747000D01*
G36*
X153741428Y-86747000D02*
G01*
X154556428Y-86747000D01*
X154556428Y-87537000D01*
X153741428Y-87537000D01*
X153741428Y-86747000D01*
G37*
X153746428Y-85307000D02*
X154556428Y-85307000D01*
X154556428Y-86097000D01*
X153746428Y-86097000D01*
X153746428Y-85307000D01*
G36*
X153746428Y-85307000D02*
G01*
X154556428Y-85307000D01*
X154556428Y-86097000D01*
X153746428Y-86097000D01*
X153746428Y-85307000D01*
G37*
X155491428Y-81632000D02*
X156271428Y-81632000D01*
X156271428Y-82422000D01*
X155491428Y-82422000D01*
X155491428Y-81632000D01*
G36*
X155491428Y-81632000D02*
G01*
X156271428Y-81632000D01*
X156271428Y-82422000D01*
X155491428Y-82422000D01*
X155491428Y-81632000D01*
G37*
X155491428Y-85302000D02*
X156281428Y-85302000D01*
X156281428Y-86092000D01*
X155491428Y-86092000D01*
X155491428Y-85302000D01*
G36*
X155491428Y-85302000D02*
G01*
X156281428Y-85302000D01*
X156281428Y-86092000D01*
X155491428Y-86092000D01*
X155491428Y-85302000D01*
G37*
X155491428Y-86742000D02*
X156281428Y-86742000D01*
X156281428Y-87532000D01*
X155491428Y-87532000D01*
X155491428Y-86742000D01*
G36*
X155491428Y-86742000D02*
G01*
X156281428Y-86742000D01*
X156281428Y-87532000D01*
X155491428Y-87532000D01*
X155491428Y-86742000D01*
G37*
X155501428Y-83712000D02*
X156271428Y-83712000D01*
X156271428Y-84502000D01*
X155501428Y-84502000D01*
X155501428Y-83712000D01*
G36*
X155501428Y-83712000D02*
G01*
X156271428Y-83712000D01*
X156271428Y-84502000D01*
X155501428Y-84502000D01*
X155501428Y-83712000D01*
G37*
%TO.C,U15*%
X121546000Y-81637000D02*
X122376000Y-81637000D01*
X122376000Y-82427000D01*
X121546000Y-82427000D01*
X121546000Y-81637000D01*
G36*
X121546000Y-81637000D02*
G01*
X122376000Y-81637000D01*
X122376000Y-82427000D01*
X121546000Y-82427000D01*
X121546000Y-81637000D01*
G37*
X121556000Y-83717000D02*
X122376000Y-83717000D01*
X122376000Y-84507000D01*
X121556000Y-84507000D01*
X121556000Y-83717000D01*
G36*
X121556000Y-83717000D02*
G01*
X122376000Y-83717000D01*
X122376000Y-84507000D01*
X121556000Y-84507000D01*
X121556000Y-83717000D01*
G37*
X121556000Y-86747000D02*
X122371000Y-86747000D01*
X122371000Y-87537000D01*
X121556000Y-87537000D01*
X121556000Y-86747000D01*
G36*
X121556000Y-86747000D02*
G01*
X122371000Y-86747000D01*
X122371000Y-87537000D01*
X121556000Y-87537000D01*
X121556000Y-86747000D01*
G37*
X121561000Y-85307000D02*
X122371000Y-85307000D01*
X122371000Y-86097000D01*
X121561000Y-86097000D01*
X121561000Y-85307000D01*
G36*
X121561000Y-85307000D02*
G01*
X122371000Y-85307000D01*
X122371000Y-86097000D01*
X121561000Y-86097000D01*
X121561000Y-85307000D01*
G37*
X123306000Y-81632000D02*
X124086000Y-81632000D01*
X124086000Y-82422000D01*
X123306000Y-82422000D01*
X123306000Y-81632000D01*
G36*
X123306000Y-81632000D02*
G01*
X124086000Y-81632000D01*
X124086000Y-82422000D01*
X123306000Y-82422000D01*
X123306000Y-81632000D01*
G37*
X123306000Y-85302000D02*
X124096000Y-85302000D01*
X124096000Y-86092000D01*
X123306000Y-86092000D01*
X123306000Y-85302000D01*
G36*
X123306000Y-85302000D02*
G01*
X124096000Y-85302000D01*
X124096000Y-86092000D01*
X123306000Y-86092000D01*
X123306000Y-85302000D01*
G37*
X123306000Y-86742000D02*
X124096000Y-86742000D01*
X124096000Y-87532000D01*
X123306000Y-87532000D01*
X123306000Y-86742000D01*
G36*
X123306000Y-86742000D02*
G01*
X124096000Y-86742000D01*
X124096000Y-87532000D01*
X123306000Y-87532000D01*
X123306000Y-86742000D01*
G37*
X123316000Y-83712000D02*
X124086000Y-83712000D01*
X124086000Y-84502000D01*
X123316000Y-84502000D01*
X123316000Y-83712000D01*
G36*
X123316000Y-83712000D02*
G01*
X124086000Y-83712000D01*
X124086000Y-84502000D01*
X123316000Y-84502000D01*
X123316000Y-83712000D01*
G37*
%TO.C,U10*%
X186061475Y-81617000D02*
X186891475Y-81617000D01*
X186891475Y-82407000D01*
X186061475Y-82407000D01*
X186061475Y-81617000D01*
G36*
X186061475Y-81617000D02*
G01*
X186891475Y-81617000D01*
X186891475Y-82407000D01*
X186061475Y-82407000D01*
X186061475Y-81617000D01*
G37*
X186071475Y-83697000D02*
X186891475Y-83697000D01*
X186891475Y-84487000D01*
X186071475Y-84487000D01*
X186071475Y-83697000D01*
G36*
X186071475Y-83697000D02*
G01*
X186891475Y-83697000D01*
X186891475Y-84487000D01*
X186071475Y-84487000D01*
X186071475Y-83697000D01*
G37*
X186071475Y-86727000D02*
X186886475Y-86727000D01*
X186886475Y-87517000D01*
X186071475Y-87517000D01*
X186071475Y-86727000D01*
G36*
X186071475Y-86727000D02*
G01*
X186886475Y-86727000D01*
X186886475Y-87517000D01*
X186071475Y-87517000D01*
X186071475Y-86727000D01*
G37*
X186076475Y-85287000D02*
X186886475Y-85287000D01*
X186886475Y-86077000D01*
X186076475Y-86077000D01*
X186076475Y-85287000D01*
G36*
X186076475Y-85287000D02*
G01*
X186886475Y-85287000D01*
X186886475Y-86077000D01*
X186076475Y-86077000D01*
X186076475Y-85287000D01*
G37*
X187821475Y-81612000D02*
X188601475Y-81612000D01*
X188601475Y-82402000D01*
X187821475Y-82402000D01*
X187821475Y-81612000D01*
G36*
X187821475Y-81612000D02*
G01*
X188601475Y-81612000D01*
X188601475Y-82402000D01*
X187821475Y-82402000D01*
X187821475Y-81612000D01*
G37*
X187821475Y-85282000D02*
X188611475Y-85282000D01*
X188611475Y-86072000D01*
X187821475Y-86072000D01*
X187821475Y-85282000D01*
G36*
X187821475Y-85282000D02*
G01*
X188611475Y-85282000D01*
X188611475Y-86072000D01*
X187821475Y-86072000D01*
X187821475Y-85282000D01*
G37*
X187821475Y-86722000D02*
X188611475Y-86722000D01*
X188611475Y-87512000D01*
X187821475Y-87512000D01*
X187821475Y-86722000D01*
G36*
X187821475Y-86722000D02*
G01*
X188611475Y-86722000D01*
X188611475Y-87512000D01*
X187821475Y-87512000D01*
X187821475Y-86722000D01*
G37*
X187831475Y-83692000D02*
X188601475Y-83692000D01*
X188601475Y-84482000D01*
X187831475Y-84482000D01*
X187831475Y-83692000D01*
G36*
X187831475Y-83692000D02*
G01*
X188601475Y-83692000D01*
X188601475Y-84482000D01*
X187831475Y-84482000D01*
X187831475Y-83692000D01*
G37*
%TO.C,U28*%
X201952000Y-105328000D02*
X201182000Y-105328000D01*
X201182000Y-104538000D01*
X201952000Y-104538000D01*
X201952000Y-105328000D01*
G36*
X201952000Y-105328000D02*
G01*
X201182000Y-105328000D01*
X201182000Y-104538000D01*
X201952000Y-104538000D01*
X201952000Y-105328000D01*
G37*
X201962000Y-102298000D02*
X201172000Y-102298000D01*
X201172000Y-101508000D01*
X201962000Y-101508000D01*
X201962000Y-102298000D01*
G36*
X201962000Y-102298000D02*
G01*
X201172000Y-102298000D01*
X201172000Y-101508000D01*
X201962000Y-101508000D01*
X201962000Y-102298000D01*
G37*
X201962000Y-103738000D02*
X201172000Y-103738000D01*
X201172000Y-102948000D01*
X201962000Y-102948000D01*
X201962000Y-103738000D01*
G36*
X201962000Y-103738000D02*
G01*
X201172000Y-103738000D01*
X201172000Y-102948000D01*
X201962000Y-102948000D01*
X201962000Y-103738000D01*
G37*
X201962000Y-107408000D02*
X201182000Y-107408000D01*
X201182000Y-106618000D01*
X201962000Y-106618000D01*
X201962000Y-107408000D01*
G36*
X201962000Y-107408000D02*
G01*
X201182000Y-107408000D01*
X201182000Y-106618000D01*
X201962000Y-106618000D01*
X201962000Y-107408000D01*
G37*
X203707000Y-103733000D02*
X202897000Y-103733000D01*
X202897000Y-102943000D01*
X203707000Y-102943000D01*
X203707000Y-103733000D01*
G36*
X203707000Y-103733000D02*
G01*
X202897000Y-103733000D01*
X202897000Y-102943000D01*
X203707000Y-102943000D01*
X203707000Y-103733000D01*
G37*
X203712000Y-102293000D02*
X202897000Y-102293000D01*
X202897000Y-101503000D01*
X203712000Y-101503000D01*
X203712000Y-102293000D01*
G36*
X203712000Y-102293000D02*
G01*
X202897000Y-102293000D01*
X202897000Y-101503000D01*
X203712000Y-101503000D01*
X203712000Y-102293000D01*
G37*
X203712000Y-105323000D02*
X202892000Y-105323000D01*
X202892000Y-104533000D01*
X203712000Y-104533000D01*
X203712000Y-105323000D01*
G36*
X203712000Y-105323000D02*
G01*
X202892000Y-105323000D01*
X202892000Y-104533000D01*
X203712000Y-104533000D01*
X203712000Y-105323000D01*
G37*
X203722000Y-107403000D02*
X202892000Y-107403000D01*
X202892000Y-106613000D01*
X203722000Y-106613000D01*
X203722000Y-107403000D01*
G36*
X203722000Y-107403000D02*
G01*
X202892000Y-107403000D01*
X202892000Y-106613000D01*
X203722000Y-106613000D01*
X203722000Y-107403000D01*
G37*
%TO.C,U23*%
X137548000Y-81637000D02*
X138378000Y-81637000D01*
X138378000Y-82427000D01*
X137548000Y-82427000D01*
X137548000Y-81637000D01*
G36*
X137548000Y-81637000D02*
G01*
X138378000Y-81637000D01*
X138378000Y-82427000D01*
X137548000Y-82427000D01*
X137548000Y-81637000D01*
G37*
X137558000Y-83717000D02*
X138378000Y-83717000D01*
X138378000Y-84507000D01*
X137558000Y-84507000D01*
X137558000Y-83717000D01*
G36*
X137558000Y-83717000D02*
G01*
X138378000Y-83717000D01*
X138378000Y-84507000D01*
X137558000Y-84507000D01*
X137558000Y-83717000D01*
G37*
X137558000Y-86747000D02*
X138373000Y-86747000D01*
X138373000Y-87537000D01*
X137558000Y-87537000D01*
X137558000Y-86747000D01*
G36*
X137558000Y-86747000D02*
G01*
X138373000Y-86747000D01*
X138373000Y-87537000D01*
X137558000Y-87537000D01*
X137558000Y-86747000D01*
G37*
X137563000Y-85307000D02*
X138373000Y-85307000D01*
X138373000Y-86097000D01*
X137563000Y-86097000D01*
X137563000Y-85307000D01*
G36*
X137563000Y-85307000D02*
G01*
X138373000Y-85307000D01*
X138373000Y-86097000D01*
X137563000Y-86097000D01*
X137563000Y-85307000D01*
G37*
X139308000Y-81632000D02*
X140088000Y-81632000D01*
X140088000Y-82422000D01*
X139308000Y-82422000D01*
X139308000Y-81632000D01*
G36*
X139308000Y-81632000D02*
G01*
X140088000Y-81632000D01*
X140088000Y-82422000D01*
X139308000Y-82422000D01*
X139308000Y-81632000D01*
G37*
X139308000Y-85302000D02*
X140098000Y-85302000D01*
X140098000Y-86092000D01*
X139308000Y-86092000D01*
X139308000Y-85302000D01*
G36*
X139308000Y-85302000D02*
G01*
X140098000Y-85302000D01*
X140098000Y-86092000D01*
X139308000Y-86092000D01*
X139308000Y-85302000D01*
G37*
X139308000Y-86742000D02*
X140098000Y-86742000D01*
X140098000Y-87532000D01*
X139308000Y-87532000D01*
X139308000Y-86742000D01*
G36*
X139308000Y-86742000D02*
G01*
X140098000Y-86742000D01*
X140098000Y-87532000D01*
X139308000Y-87532000D01*
X139308000Y-86742000D01*
G37*
X139318000Y-83712000D02*
X140088000Y-83712000D01*
X140088000Y-84502000D01*
X139318000Y-84502000D01*
X139318000Y-83712000D01*
G36*
X139318000Y-83712000D02*
G01*
X140088000Y-83712000D01*
X140088000Y-84502000D01*
X139318000Y-84502000D01*
X139318000Y-83712000D01*
G37*
%TO.C,U25*%
X105940000Y-105328000D02*
X105170000Y-105328000D01*
X105170000Y-104538000D01*
X105940000Y-104538000D01*
X105940000Y-105328000D01*
G36*
X105940000Y-105328000D02*
G01*
X105170000Y-105328000D01*
X105170000Y-104538000D01*
X105940000Y-104538000D01*
X105940000Y-105328000D01*
G37*
X105950000Y-102298000D02*
X105160000Y-102298000D01*
X105160000Y-101508000D01*
X105950000Y-101508000D01*
X105950000Y-102298000D01*
G36*
X105950000Y-102298000D02*
G01*
X105160000Y-102298000D01*
X105160000Y-101508000D01*
X105950000Y-101508000D01*
X105950000Y-102298000D01*
G37*
X105950000Y-103738000D02*
X105160000Y-103738000D01*
X105160000Y-102948000D01*
X105950000Y-102948000D01*
X105950000Y-103738000D01*
G36*
X105950000Y-103738000D02*
G01*
X105160000Y-103738000D01*
X105160000Y-102948000D01*
X105950000Y-102948000D01*
X105950000Y-103738000D01*
G37*
X105950000Y-107408000D02*
X105170000Y-107408000D01*
X105170000Y-106618000D01*
X105950000Y-106618000D01*
X105950000Y-107408000D01*
G36*
X105950000Y-107408000D02*
G01*
X105170000Y-107408000D01*
X105170000Y-106618000D01*
X105950000Y-106618000D01*
X105950000Y-107408000D01*
G37*
X107695000Y-103733000D02*
X106885000Y-103733000D01*
X106885000Y-102943000D01*
X107695000Y-102943000D01*
X107695000Y-103733000D01*
G36*
X107695000Y-103733000D02*
G01*
X106885000Y-103733000D01*
X106885000Y-102943000D01*
X107695000Y-102943000D01*
X107695000Y-103733000D01*
G37*
X107700000Y-102293000D02*
X106885000Y-102293000D01*
X106885000Y-101503000D01*
X107700000Y-101503000D01*
X107700000Y-102293000D01*
G36*
X107700000Y-102293000D02*
G01*
X106885000Y-102293000D01*
X106885000Y-101503000D01*
X107700000Y-101503000D01*
X107700000Y-102293000D01*
G37*
X107700000Y-105323000D02*
X106880000Y-105323000D01*
X106880000Y-104533000D01*
X107700000Y-104533000D01*
X107700000Y-105323000D01*
G36*
X107700000Y-105323000D02*
G01*
X106880000Y-105323000D01*
X106880000Y-104533000D01*
X107700000Y-104533000D01*
X107700000Y-105323000D01*
G37*
X107710000Y-107403000D02*
X106880000Y-107403000D01*
X106880000Y-106613000D01*
X107710000Y-106613000D01*
X107710000Y-107403000D01*
G36*
X107710000Y-107403000D02*
G01*
X106880000Y-107403000D01*
X106880000Y-106613000D01*
X107710000Y-106613000D01*
X107710000Y-107403000D01*
G37*
D12*
%TO.C,U18*%
X154050000Y-42785000D02*
X152630000Y-42785000D01*
X152630000Y-41365000D01*
X154050000Y-41365000D01*
X154050000Y-42785000D01*
G36*
X154050000Y-42785000D02*
G01*
X152630000Y-42785000D01*
X152630000Y-41365000D01*
X154050000Y-41365000D01*
X154050000Y-42785000D01*
G37*
X154050000Y-45035000D02*
X152630000Y-45035000D01*
X152630000Y-43615000D01*
X154050000Y-43615000D01*
X154050000Y-45035000D01*
G36*
X154050000Y-45035000D02*
G01*
X152630000Y-45035000D01*
X152630000Y-43615000D01*
X154050000Y-43615000D01*
X154050000Y-45035000D01*
G37*
X156300000Y-42785000D02*
X154880000Y-42785000D01*
X154880000Y-41365000D01*
X156300000Y-41365000D01*
X156300000Y-42785000D01*
G36*
X156300000Y-42785000D02*
G01*
X154880000Y-42785000D01*
X154880000Y-41365000D01*
X156300000Y-41365000D01*
X156300000Y-42785000D01*
G37*
X156300000Y-45035000D02*
X154880000Y-45035000D01*
X154880000Y-43615000D01*
X156300000Y-43615000D01*
X156300000Y-45035000D01*
G36*
X156300000Y-45035000D02*
G01*
X154880000Y-45035000D01*
X154880000Y-43615000D01*
X156300000Y-43615000D01*
X156300000Y-45035000D01*
G37*
%TO.C,U1*%
X79480000Y-74715000D02*
X78420000Y-74715000D01*
X78420000Y-74085000D01*
X79480000Y-74085000D01*
X79480000Y-74715000D01*
G36*
X79480000Y-74715000D02*
G01*
X78420000Y-74715000D01*
X78420000Y-74085000D01*
X79480000Y-74085000D01*
X79480000Y-74715000D01*
G37*
%TO.C,U27*%
D11*
X121942000Y-105328000D02*
X121172000Y-105328000D01*
X121172000Y-104538000D01*
X121942000Y-104538000D01*
X121942000Y-105328000D01*
G36*
X121942000Y-105328000D02*
G01*
X121172000Y-105328000D01*
X121172000Y-104538000D01*
X121942000Y-104538000D01*
X121942000Y-105328000D01*
G37*
X121952000Y-102298000D02*
X121162000Y-102298000D01*
X121162000Y-101508000D01*
X121952000Y-101508000D01*
X121952000Y-102298000D01*
G36*
X121952000Y-102298000D02*
G01*
X121162000Y-102298000D01*
X121162000Y-101508000D01*
X121952000Y-101508000D01*
X121952000Y-102298000D01*
G37*
X121952000Y-103738000D02*
X121162000Y-103738000D01*
X121162000Y-102948000D01*
X121952000Y-102948000D01*
X121952000Y-103738000D01*
G36*
X121952000Y-103738000D02*
G01*
X121162000Y-103738000D01*
X121162000Y-102948000D01*
X121952000Y-102948000D01*
X121952000Y-103738000D01*
G37*
X121952000Y-107408000D02*
X121172000Y-107408000D01*
X121172000Y-106618000D01*
X121952000Y-106618000D01*
X121952000Y-107408000D01*
G36*
X121952000Y-107408000D02*
G01*
X121172000Y-107408000D01*
X121172000Y-106618000D01*
X121952000Y-106618000D01*
X121952000Y-107408000D01*
G37*
X123697000Y-103733000D02*
X122887000Y-103733000D01*
X122887000Y-102943000D01*
X123697000Y-102943000D01*
X123697000Y-103733000D01*
G36*
X123697000Y-103733000D02*
G01*
X122887000Y-103733000D01*
X122887000Y-102943000D01*
X123697000Y-102943000D01*
X123697000Y-103733000D01*
G37*
X123702000Y-102293000D02*
X122887000Y-102293000D01*
X122887000Y-101503000D01*
X123702000Y-101503000D01*
X123702000Y-102293000D01*
G36*
X123702000Y-102293000D02*
G01*
X122887000Y-102293000D01*
X122887000Y-101503000D01*
X123702000Y-101503000D01*
X123702000Y-102293000D01*
G37*
X123702000Y-105323000D02*
X122882000Y-105323000D01*
X122882000Y-104533000D01*
X123702000Y-104533000D01*
X123702000Y-105323000D01*
G36*
X123702000Y-105323000D02*
G01*
X122882000Y-105323000D01*
X122882000Y-104533000D01*
X123702000Y-104533000D01*
X123702000Y-105323000D01*
G37*
X123712000Y-107403000D02*
X122882000Y-107403000D01*
X122882000Y-106613000D01*
X123712000Y-106613000D01*
X123712000Y-107403000D01*
G36*
X123712000Y-107403000D02*
G01*
X122882000Y-107403000D01*
X122882000Y-106613000D01*
X123712000Y-106613000D01*
X123712000Y-107403000D01*
G37*
D10*
%TO.C,U22*%
G36*
X186889431Y-62100968D02*
G01*
X186898885Y-62103835D01*
X186907600Y-62108494D01*
X186915238Y-62114762D01*
X186921504Y-62122400D01*
X186926162Y-62131112D01*
X186929030Y-62140566D01*
X186929998Y-62150401D01*
X186929998Y-63459598D01*
X186929030Y-63469433D01*
X186926162Y-63478887D01*
X186921504Y-63487599D01*
X186915238Y-63495237D01*
X186907600Y-63501506D01*
X186898885Y-63506164D01*
X186889431Y-63509032D01*
X186879599Y-63510000D01*
X185860399Y-63510000D01*
X185850566Y-63509032D01*
X185841112Y-63506164D01*
X185832398Y-63501506D01*
X185824760Y-63495237D01*
X185818494Y-63487599D01*
X185813835Y-63478887D01*
X185810968Y-63469433D01*
X185809997Y-63459598D01*
X185809997Y-62150401D01*
X185810968Y-62140566D01*
X185813835Y-62131112D01*
X185818494Y-62122400D01*
X185824760Y-62114762D01*
X185832398Y-62108494D01*
X185841112Y-62103835D01*
X185850566Y-62100968D01*
X185860399Y-62100000D01*
X186879599Y-62100000D01*
X186889431Y-62100968D01*
G37*
G36*
X186889431Y-60490968D02*
G01*
X186898885Y-60493836D01*
X186907600Y-60498494D01*
X186915238Y-60504763D01*
X186921504Y-60512401D01*
X186926162Y-60521113D01*
X186929030Y-60530567D01*
X186929998Y-60540402D01*
X186929998Y-61849599D01*
X186929030Y-61859434D01*
X186926162Y-61868888D01*
X186921504Y-61877600D01*
X186915238Y-61885238D01*
X186907600Y-61891506D01*
X186898885Y-61896165D01*
X186889431Y-61899032D01*
X186879599Y-61900000D01*
X185860399Y-61900000D01*
X185850566Y-61899032D01*
X185841112Y-61896165D01*
X185832398Y-61891506D01*
X185824760Y-61885238D01*
X185818494Y-61877600D01*
X185813835Y-61868888D01*
X185810968Y-61859434D01*
X185809997Y-61849599D01*
X185809997Y-60540402D01*
X185810968Y-60530567D01*
X185813835Y-60521113D01*
X185818494Y-60512401D01*
X185824760Y-60504763D01*
X185832398Y-60498494D01*
X185841112Y-60493836D01*
X185850566Y-60490968D01*
X185860399Y-60490000D01*
X186879599Y-60490000D01*
X186889431Y-60490968D01*
G37*
G36*
X188209431Y-62100968D02*
G01*
X188218885Y-62103835D01*
X188227600Y-62108494D01*
X188235238Y-62114762D01*
X188241504Y-62122400D01*
X188246162Y-62131112D01*
X188249030Y-62140566D01*
X188249998Y-62150401D01*
X188249998Y-63459598D01*
X188249030Y-63469433D01*
X188246162Y-63478887D01*
X188241504Y-63487599D01*
X188235238Y-63495237D01*
X188227600Y-63501506D01*
X188218885Y-63506164D01*
X188209431Y-63509032D01*
X188199599Y-63510000D01*
X187180399Y-63510000D01*
X187170566Y-63509032D01*
X187161112Y-63506164D01*
X187152398Y-63501506D01*
X187144760Y-63495237D01*
X187138494Y-63487599D01*
X187133835Y-63478887D01*
X187130968Y-63469433D01*
X187129997Y-63459598D01*
X187129997Y-62150401D01*
X187130968Y-62140566D01*
X187133835Y-62131112D01*
X187138494Y-62122400D01*
X187144760Y-62114762D01*
X187152398Y-62108494D01*
X187161112Y-62103835D01*
X187170566Y-62100968D01*
X187180399Y-62100000D01*
X188199599Y-62100000D01*
X188209431Y-62100968D01*
G37*
G36*
X188209431Y-60490968D02*
G01*
X188218885Y-60493836D01*
X188227600Y-60498494D01*
X188235238Y-60504763D01*
X188241504Y-60512401D01*
X188246162Y-60521113D01*
X188249030Y-60530567D01*
X188249998Y-60540402D01*
X188249998Y-61849599D01*
X188249030Y-61859434D01*
X188246162Y-61868888D01*
X188241504Y-61877600D01*
X188235238Y-61885238D01*
X188227600Y-61891506D01*
X188218885Y-61896165D01*
X188209431Y-61899032D01*
X188199599Y-61900000D01*
X187180399Y-61900000D01*
X187170566Y-61899032D01*
X187161112Y-61896165D01*
X187152398Y-61891506D01*
X187144760Y-61885238D01*
X187138494Y-61877600D01*
X187133835Y-61868888D01*
X187130968Y-61859434D01*
X187129997Y-61849599D01*
X187129997Y-60540402D01*
X187130968Y-60530567D01*
X187133835Y-60521113D01*
X187138494Y-60512401D01*
X187144760Y-60504763D01*
X187152398Y-60498494D01*
X187161112Y-60493836D01*
X187170566Y-60490968D01*
X187180399Y-60490000D01*
X188199599Y-60490000D01*
X188209431Y-60490968D01*
G37*
G36*
X189529434Y-62100968D02*
G01*
X189538888Y-62103835D01*
X189547602Y-62108494D01*
X189555240Y-62114762D01*
X189561506Y-62122400D01*
X189566165Y-62131112D01*
X189569032Y-62140566D01*
X189570003Y-62150401D01*
X189570003Y-63459598D01*
X189569032Y-63469433D01*
X189566165Y-63478887D01*
X189561506Y-63487599D01*
X189555240Y-63495237D01*
X189547602Y-63501506D01*
X189538888Y-63506164D01*
X189529434Y-63509032D01*
X189519601Y-63510000D01*
X188500401Y-63510000D01*
X188490569Y-63509032D01*
X188481115Y-63506164D01*
X188472400Y-63501506D01*
X188464762Y-63495237D01*
X188458496Y-63487599D01*
X188453838Y-63478887D01*
X188450970Y-63469433D01*
X188450002Y-63459598D01*
X188450002Y-62150401D01*
X188450970Y-62140566D01*
X188453838Y-62131112D01*
X188458496Y-62122400D01*
X188464762Y-62114762D01*
X188472400Y-62108494D01*
X188481115Y-62103835D01*
X188490569Y-62100968D01*
X188500401Y-62100000D01*
X189519601Y-62100000D01*
X189529434Y-62100968D01*
G37*
G36*
X189529434Y-60490968D02*
G01*
X189538888Y-60493836D01*
X189547602Y-60498494D01*
X189555240Y-60504763D01*
X189561506Y-60512401D01*
X189566165Y-60521113D01*
X189569032Y-60530567D01*
X189570003Y-60540402D01*
X189570003Y-61849599D01*
X189569032Y-61859434D01*
X189566165Y-61868888D01*
X189561506Y-61877600D01*
X189555240Y-61885238D01*
X189547602Y-61891506D01*
X189538888Y-61896165D01*
X189529434Y-61899032D01*
X189519601Y-61900000D01*
X188500401Y-61900000D01*
X188490569Y-61899032D01*
X188481115Y-61896165D01*
X188472400Y-61891506D01*
X188464762Y-61885238D01*
X188458496Y-61877600D01*
X188453838Y-61868888D01*
X188450970Y-61859434D01*
X188450002Y-61849599D01*
X188450002Y-60540402D01*
X188450970Y-60530567D01*
X188453838Y-60521113D01*
X188458496Y-60512401D01*
X188464762Y-60504763D01*
X188472400Y-60498494D01*
X188481115Y-60493836D01*
X188490569Y-60490968D01*
X188500401Y-60490000D01*
X189519601Y-60490000D01*
X189529434Y-60490968D01*
G37*
G36*
X190849434Y-62100968D02*
G01*
X190858888Y-62103835D01*
X190867602Y-62108494D01*
X190875240Y-62114762D01*
X190881506Y-62122400D01*
X190886165Y-62131112D01*
X190889032Y-62140566D01*
X190890003Y-62150401D01*
X190890003Y-63459598D01*
X190889032Y-63469433D01*
X190886165Y-63478887D01*
X190881506Y-63487599D01*
X190875240Y-63495237D01*
X190867602Y-63501506D01*
X190858888Y-63506164D01*
X190849434Y-63509032D01*
X190839601Y-63510000D01*
X189820401Y-63510000D01*
X189810569Y-63509032D01*
X189801115Y-63506164D01*
X189792400Y-63501506D01*
X189784762Y-63495237D01*
X189778496Y-63487599D01*
X189773838Y-63478887D01*
X189770970Y-63469433D01*
X189770002Y-63459598D01*
X189770002Y-62150401D01*
X189770970Y-62140566D01*
X189773838Y-62131112D01*
X189778496Y-62122400D01*
X189784762Y-62114762D01*
X189792400Y-62108494D01*
X189801115Y-62103835D01*
X189810569Y-62100968D01*
X189820401Y-62100000D01*
X190839601Y-62100000D01*
X190849434Y-62100968D01*
G37*
G36*
X190849434Y-60490968D02*
G01*
X190858888Y-60493836D01*
X190867602Y-60498494D01*
X190875240Y-60504763D01*
X190881506Y-60512401D01*
X190886165Y-60521113D01*
X190889032Y-60530567D01*
X190890003Y-60540402D01*
X190890003Y-61849599D01*
X190889032Y-61859434D01*
X190886165Y-61868888D01*
X190881506Y-61877600D01*
X190875240Y-61885238D01*
X190867602Y-61891506D01*
X190858888Y-61896165D01*
X190849434Y-61899032D01*
X190839601Y-61900000D01*
X189820401Y-61900000D01*
X189810569Y-61899032D01*
X189801115Y-61896165D01*
X189792400Y-61891506D01*
X189784762Y-61885238D01*
X189778496Y-61877600D01*
X189773838Y-61868888D01*
X189770970Y-61859434D01*
X189770002Y-61849599D01*
X189770002Y-60540402D01*
X189770970Y-60530567D01*
X189773838Y-60521113D01*
X189778496Y-60512401D01*
X189784762Y-60504763D01*
X189792400Y-60498494D01*
X189801115Y-60493836D01*
X189810569Y-60490968D01*
X189820401Y-60490000D01*
X190839601Y-60490000D01*
X190849434Y-60490968D01*
G37*
G36*
X188474998Y-59350000D02*
G01*
X188474998Y-59560002D01*
X188524998Y-59610002D01*
X188674998Y-59610002D01*
X188724998Y-59560002D01*
X188724998Y-59350000D01*
X188774998Y-59300000D01*
X188925000Y-59300000D01*
X188975000Y-59350000D01*
X188975000Y-59560002D01*
X189025000Y-59610002D01*
X189175000Y-59610002D01*
X189225000Y-59560002D01*
X189225000Y-59350000D01*
X189274999Y-59300000D01*
X189424999Y-59300000D01*
X189474999Y-59350000D01*
X189474999Y-59560002D01*
X189524999Y-59610002D01*
X189674999Y-59610002D01*
X189724999Y-59560002D01*
X189724999Y-59350000D01*
X189774998Y-59300000D01*
X189924998Y-59300000D01*
X189974998Y-59350000D01*
X189974998Y-59560002D01*
X190024998Y-59610002D01*
X190175000Y-59610002D01*
X190225000Y-59560002D01*
X190225000Y-59350000D01*
X190275000Y-59300000D01*
X190425000Y-59300000D01*
X190475000Y-59350000D01*
X190475000Y-59560002D01*
X190524999Y-59610002D01*
X190674999Y-59610002D01*
X190724999Y-59560002D01*
X190724999Y-59350000D01*
X190774999Y-59300000D01*
X190924999Y-59300000D01*
X190974999Y-59350000D01*
X190974999Y-59950002D01*
X190924999Y-60000001D01*
X188274999Y-60000001D01*
X188224999Y-59950002D01*
X188224999Y-59350000D01*
X188274999Y-59300000D01*
X188424999Y-59300000D01*
X188474998Y-59350000D01*
G37*
G36*
X190974999Y-64049998D02*
G01*
X190974999Y-64650000D01*
X190924999Y-64700000D01*
X190774999Y-64700000D01*
X190724999Y-64650000D01*
X190724999Y-64439998D01*
X190674999Y-64389998D01*
X190524999Y-64389998D01*
X190475000Y-64439998D01*
X190475000Y-64650000D01*
X190425000Y-64700000D01*
X190275000Y-64700000D01*
X190225000Y-64650000D01*
X190225000Y-64439998D01*
X190175000Y-64389998D01*
X190024998Y-64389998D01*
X189974998Y-64439998D01*
X189974998Y-64650000D01*
X189924998Y-64700000D01*
X189774998Y-64700000D01*
X189724999Y-64650000D01*
X189724999Y-64439998D01*
X189674999Y-64389998D01*
X189524999Y-64389998D01*
X189474999Y-64439998D01*
X189474999Y-64650000D01*
X189424999Y-64700000D01*
X189274999Y-64700000D01*
X189225000Y-64650000D01*
X189225000Y-64439998D01*
X189175000Y-64389998D01*
X189025000Y-64389998D01*
X188975000Y-64439998D01*
X188975000Y-64650000D01*
X188925000Y-64700000D01*
X188774998Y-64700000D01*
X188724998Y-64650000D01*
X188724998Y-64439998D01*
X188674998Y-64389998D01*
X188524998Y-64389998D01*
X188474998Y-64439998D01*
X188474998Y-64650000D01*
X188424999Y-64700000D01*
X188274999Y-64700000D01*
X188224999Y-64650000D01*
X188224999Y-64049998D01*
X188274999Y-63999999D01*
X190924999Y-63999999D01*
X190974999Y-64049998D01*
G37*
%TD*%
D13*
%TO.C,R99*%
X164668000Y-103918000D03*
X163648000Y-103918000D03*
%TD*%
D14*
%TO.C,R10*%
X193111475Y-85102000D03*
X194131475Y-85102000D03*
%TD*%
D15*
%TO.C,U19*%
X88449370Y-64350000D03*
X88949496Y-64350000D03*
X89449622Y-64350000D03*
D16*
X89949748Y-64150000D03*
D15*
X90449874Y-64350000D03*
D17*
X92200000Y-64350000D03*
X92200000Y-59650000D03*
D15*
X90449874Y-59650000D03*
X89949748Y-59650000D03*
X89449622Y-59650000D03*
X88949496Y-59650000D03*
X88449370Y-59650000D03*
%TD*%
D18*
%TO.C,C151*%
X200450000Y-38925000D03*
X200450000Y-41875000D03*
%TD*%
D19*
%TO.C,C195*%
X120616666Y-57880000D03*
X120616666Y-56920000D03*
%TD*%
D13*
%TO.C,R78*%
X100660000Y-105441999D03*
X99640000Y-105441999D03*
%TD*%
D20*
%TO.C,C174*%
X134412000Y-44300000D03*
X133452000Y-44300000D03*
%TD*%
D21*
%TO.C,R49*%
X146124000Y-44230000D03*
X146124000Y-43210000D03*
%TD*%
D22*
%TO.C,C189*%
X104725000Y-58200000D03*
X101775000Y-58200000D03*
%TD*%
D23*
%TO.C,C211*%
X175038332Y-68104000D03*
X177988332Y-68104000D03*
%TD*%
D14*
%TO.C,R27*%
X112448857Y-86138000D03*
X113468857Y-86138000D03*
%TD*%
D19*
%TO.C,C160*%
X151204000Y-37596000D03*
X151204000Y-36636000D03*
%TD*%
D24*
%TO.C,U29*%
X189426000Y-107761000D03*
X189426000Y-107259000D03*
X189426000Y-106757000D03*
X189426000Y-106255000D03*
X189426000Y-105753000D03*
X189426000Y-105251000D03*
X189426000Y-104749000D03*
X189426000Y-104247000D03*
X189426000Y-103745000D03*
X189426000Y-103243000D03*
X189426000Y-102741000D03*
X189426000Y-102239000D03*
X189426000Y-101737000D03*
X189426000Y-101235000D03*
X183594000Y-101248000D03*
X183594000Y-101748000D03*
X183594000Y-102248000D03*
X183594000Y-102748000D03*
X183594000Y-103248000D03*
X183594000Y-103745000D03*
X183594000Y-104248000D03*
X183594000Y-104749000D03*
X183594000Y-105251000D03*
X183594000Y-105753000D03*
X183594000Y-106255000D03*
X183594000Y-106748000D03*
X183594000Y-107259000D03*
X183594000Y-107748000D03*
%TD*%
D25*
%TO.C,C157*%
X110900000Y-38200000D03*
X110900000Y-32600000D03*
%TD*%
D19*
%TO.C,C205*%
X153083332Y-57880000D03*
X153083332Y-56920000D03*
%TD*%
D26*
%TO.C,R74*%
X186250000Y-67090000D03*
X186250000Y-68110000D03*
%TD*%
%TO.C,R62*%
X161364000Y-45496000D03*
X161364000Y-46516000D03*
%TD*%
D25*
%TO.C,C162*%
X119750000Y-38200000D03*
X119750000Y-32600000D03*
%TD*%
D27*
%TO.C,C180*%
X157370000Y-36500000D03*
X158330000Y-36500000D03*
%TD*%
D13*
%TO.C,R80*%
X100660000Y-102902000D03*
X99640000Y-102902000D03*
%TD*%
D28*
%TO.C,C175*%
X162634000Y-45526000D03*
X162634000Y-46486000D03*
%TD*%
D29*
%TO.C,TH1*%
X109850000Y-95650000D03*
X109850000Y-92550000D03*
%TD*%
D26*
%TO.C,R76*%
X186650000Y-56790000D03*
X186650000Y-57810000D03*
%TD*%
D28*
%TO.C,C153*%
X197650000Y-39120000D03*
X197650000Y-40080000D03*
%TD*%
D14*
%TO.C,R63*%
X158314000Y-48800000D03*
X159334000Y-48800000D03*
%TD*%
D13*
%TO.C,R12*%
X197688000Y-84360000D03*
X196668000Y-84360000D03*
%TD*%
D24*
%TO.C,U26*%
X93414000Y-107761000D03*
X93414000Y-107259000D03*
X93414000Y-106757000D03*
X93414000Y-106255000D03*
X93414000Y-105753000D03*
X93414000Y-105251000D03*
X93414000Y-104749000D03*
X93414000Y-104247000D03*
X93414000Y-103745000D03*
X93414000Y-103243000D03*
X93414000Y-102741000D03*
X93414000Y-102239000D03*
X93414000Y-101737000D03*
X93414000Y-101235000D03*
X87582000Y-101248000D03*
X87582000Y-101748000D03*
X87582000Y-102248000D03*
X87582000Y-102748000D03*
X87582000Y-103248000D03*
X87582000Y-103745000D03*
X87582000Y-104248000D03*
X87582000Y-104749000D03*
X87582000Y-105251000D03*
X87582000Y-105753000D03*
X87582000Y-106255000D03*
X87582000Y-106748000D03*
X87582000Y-107259000D03*
X87582000Y-107748000D03*
%TD*%
D14*
%TO.C,R39*%
X160781428Y-86138000D03*
X161801428Y-86138000D03*
%TD*%
D13*
%TO.C,R8*%
X181432000Y-84360000D03*
X180412000Y-84360000D03*
%TD*%
D14*
%TO.C,R105*%
X144598000Y-104680000D03*
X145618000Y-104680000D03*
%TD*%
D21*
%TO.C,R61*%
X156250000Y-38710000D03*
X156250000Y-37690000D03*
%TD*%
D18*
%TO.C,C164*%
X121790800Y-41737000D03*
X121790800Y-44687000D03*
%TD*%
D14*
%TO.C,R37*%
X160781428Y-83598000D03*
X161801428Y-83598000D03*
%TD*%
D26*
%TO.C,R56*%
X147250000Y-47790000D03*
X147250000Y-48810000D03*
%TD*%
%TO.C,R43*%
X189750000Y-38625000D03*
X189750000Y-39645000D03*
%TD*%
D14*
%TO.C,R19*%
X176892285Y-86138000D03*
X177912285Y-86138000D03*
%TD*%
D26*
%TO.C,R67*%
X89250000Y-56790000D03*
X89250000Y-57810000D03*
%TD*%
D13*
%TO.C,R107*%
X132830666Y-103918000D03*
X131810666Y-103918000D03*
%TD*%
D22*
%TO.C,C219*%
X202125000Y-58200000D03*
X199175000Y-58200000D03*
%TD*%
D13*
%TO.C,R32*%
X133208286Y-84360000D03*
X132188286Y-84360000D03*
%TD*%
D18*
%TO.C,C167*%
X112951600Y-41737000D03*
X112951600Y-44687000D03*
%TD*%
D24*
%TO.C,U31*%
X157588666Y-107761000D03*
X157588666Y-107259000D03*
X157588666Y-106757000D03*
X157588666Y-106255000D03*
X157588666Y-105753000D03*
X157588666Y-105251000D03*
X157588666Y-104749000D03*
X157588666Y-104247000D03*
X157588666Y-103745000D03*
X157588666Y-103243000D03*
X157588666Y-102741000D03*
X157588666Y-102239000D03*
X157588666Y-101737000D03*
X157588666Y-101235000D03*
X151756666Y-101248000D03*
X151756666Y-101748000D03*
X151756666Y-102248000D03*
X151756666Y-102748000D03*
X151756666Y-103248000D03*
X151756666Y-103745000D03*
X151756666Y-104248000D03*
X151756666Y-104749000D03*
X151756666Y-105251000D03*
X151756666Y-105753000D03*
X151756666Y-106255000D03*
X151756666Y-106748000D03*
X151756666Y-107259000D03*
X151756666Y-107748000D03*
%TD*%
D28*
%TO.C,C148*%
X180687500Y-39802500D03*
X180687500Y-40762500D03*
%TD*%
D30*
%TO.C,U4*%
X163675000Y-33095000D03*
X163675000Y-34365000D03*
X163675000Y-35635000D03*
X163675000Y-36905000D03*
X168625000Y-36905000D03*
X168625000Y-35635000D03*
X168625000Y-34365000D03*
X168625000Y-33095000D03*
%TD*%
D13*
%TO.C,R91*%
X196672000Y-103918000D03*
X195652000Y-103918000D03*
%TD*%
D14*
%TO.C,R101*%
X160600000Y-104680000D03*
X161620000Y-104680000D03*
%TD*%
D24*
%TO.C,U13*%
X87582000Y-81279000D03*
X87582000Y-81781000D03*
X87582000Y-82283000D03*
X87582000Y-82785000D03*
X87582000Y-83287000D03*
X87582000Y-83789000D03*
X87582000Y-84291000D03*
X87582000Y-84793000D03*
X87582000Y-85295000D03*
X87582000Y-85797000D03*
X87582000Y-86299000D03*
X87582000Y-86801000D03*
X87582000Y-87303000D03*
X87582000Y-87805000D03*
X93414000Y-87792000D03*
X93414000Y-87292000D03*
X93414000Y-86792000D03*
X93414000Y-86292000D03*
X93414000Y-85792000D03*
X93414000Y-85295000D03*
X93414000Y-84792000D03*
X93414000Y-84291000D03*
X93414000Y-83789000D03*
X93414000Y-83287000D03*
X93414000Y-82785000D03*
X93414000Y-82292000D03*
X93414000Y-81781000D03*
X93414000Y-81292000D03*
%TD*%
D21*
%TO.C,R55*%
X148250000Y-48810000D03*
X148250000Y-47790000D03*
%TD*%
D28*
%TO.C,C176*%
X157350000Y-37720000D03*
X157350000Y-38680000D03*
%TD*%
D31*
%TO.C,L1*%
X97415000Y-65600000D03*
X105285000Y-65600000D03*
%TD*%
D28*
%TO.C,C186*%
X90350000Y-56820000D03*
X90350000Y-57780000D03*
%TD*%
D32*
%TO.C,U2*%
X79513000Y-82040000D03*
X79513000Y-84140000D03*
X81163000Y-84140000D03*
X81163000Y-82040000D03*
%TD*%
D25*
%TO.C,C159*%
X102050000Y-38200000D03*
X102050000Y-32600000D03*
%TD*%
D13*
%TO.C,R104*%
X148832666Y-102902000D03*
X147812666Y-102902000D03*
%TD*%
D14*
%TO.C,R41*%
X173940000Y-44100000D03*
X174960000Y-44100000D03*
%TD*%
D27*
%TO.C,C177*%
X158344000Y-47530000D03*
X159304000Y-47530000D03*
%TD*%
D13*
%TO.C,R92*%
X196672000Y-102902000D03*
X195652000Y-102902000D03*
%TD*%
D23*
%TO.C,C220*%
X207505000Y-61500000D03*
X210455000Y-61500000D03*
%TD*%
D19*
%TO.C,C7*%
X176950000Y-32780000D03*
X176950000Y-31820000D03*
%TD*%
D14*
%TO.C,R40*%
X176640000Y-44100000D03*
X177660000Y-44100000D03*
%TD*%
D33*
%TO.C,U8*%
X86425562Y-37811290D03*
D34*
X87025562Y-37811290D03*
X87625562Y-37811290D03*
X88225562Y-37811290D03*
X88825562Y-37811290D03*
X89425562Y-37811290D03*
D35*
X90125562Y-37161290D03*
D36*
X89888062Y-36411290D03*
D35*
X90125562Y-36411290D03*
X90125562Y-35661290D03*
D34*
X89425562Y-35011290D03*
X88825562Y-35011290D03*
X88225562Y-35011290D03*
X87625562Y-35011290D03*
X87025562Y-35011290D03*
X86425562Y-35011290D03*
D37*
X85790438Y-37161290D03*
X85790438Y-36411290D03*
D38*
X86063062Y-36411290D03*
D37*
X85790438Y-35661290D03*
%TD*%
D39*
%TO.C,C172*%
X130630000Y-36559000D03*
X130630000Y-33609000D03*
%TD*%
D15*
%TO.C,U21*%
X153382702Y-64350000D03*
X153882828Y-64350000D03*
X154382954Y-64350000D03*
D16*
X154883080Y-64150000D03*
D15*
X155383206Y-64350000D03*
D17*
X157133332Y-64350000D03*
X157133332Y-59650000D03*
D15*
X155383206Y-59650000D03*
X154883080Y-59650000D03*
X154382954Y-59650000D03*
X153882828Y-59650000D03*
X153382702Y-59650000D03*
%TD*%
D23*
%TO.C,C221*%
X207505000Y-68104000D03*
X210455000Y-68104000D03*
%TD*%
D14*
%TO.C,R26*%
X112448857Y-85122000D03*
X113468857Y-85122000D03*
%TD*%
D24*
%TO.C,U11*%
X200357999Y-81279000D03*
X200357999Y-81781000D03*
X200357999Y-82283000D03*
X200357999Y-82785000D03*
X200357999Y-83287000D03*
X200357999Y-83789000D03*
X200357999Y-84291000D03*
X200357999Y-84793000D03*
X200357999Y-85295000D03*
X200357999Y-85797000D03*
X200357999Y-86299000D03*
X200357999Y-86801000D03*
X200357999Y-87303000D03*
X200357999Y-87805000D03*
X206189999Y-87792000D03*
X206189999Y-87292000D03*
X206189999Y-86792000D03*
X206189999Y-86292000D03*
X206189999Y-85792000D03*
X206189999Y-85295000D03*
X206189999Y-84792000D03*
X206189999Y-84291000D03*
X206189999Y-83789000D03*
X206189999Y-83287000D03*
X206189999Y-82785000D03*
X206189999Y-82292000D03*
X206189999Y-81781000D03*
X206189999Y-81292000D03*
%TD*%
D14*
%TO.C,R34*%
X144598000Y-85122000D03*
X145618000Y-85122000D03*
%TD*%
D19*
%TO.C,C158*%
X152474000Y-37596000D03*
X152474000Y-36636000D03*
%TD*%
D14*
%TO.C,R9*%
X193111475Y-83578000D03*
X194131475Y-83578000D03*
%TD*%
%TO.C,R25*%
X112448857Y-83598000D03*
X113468857Y-83598000D03*
%TD*%
D13*
%TO.C,R98*%
X164668000Y-105441999D03*
X163648000Y-105441999D03*
%TD*%
D28*
%TO.C,C193*%
X123516666Y-67120000D03*
X123516666Y-68080000D03*
%TD*%
D23*
%TO.C,C192*%
X110105000Y-58198000D03*
X113055000Y-58198000D03*
%TD*%
D13*
%TO.C,R103*%
X148832666Y-103918000D03*
X147812666Y-103918000D03*
%TD*%
D28*
%TO.C,C4*%
X77544000Y-82102000D03*
X77544000Y-83062000D03*
%TD*%
%TO.C,C213*%
X188450000Y-67120000D03*
X188450000Y-68080000D03*
%TD*%
D20*
%TO.C,C149*%
X177630000Y-45200000D03*
X176670000Y-45200000D03*
%TD*%
D23*
%TO.C,C218*%
X207505000Y-64802000D03*
X210455000Y-64802000D03*
%TD*%
%TO.C,C201*%
X142571666Y-68104000D03*
X145521666Y-68104000D03*
%TD*%
D13*
%TO.C,R83*%
X84658000Y-103918000D03*
X83638000Y-103918000D03*
%TD*%
%TO.C,R88*%
X116662000Y-102902000D03*
X115642000Y-102902000D03*
%TD*%
D21*
%TO.C,R2*%
X87958000Y-32710000D03*
X87958000Y-31690000D03*
%TD*%
D14*
%TO.C,R18*%
X176892285Y-85122000D03*
X177912285Y-85122000D03*
%TD*%
D27*
%TO.C,C8*%
X76556000Y-86392000D03*
X77516000Y-86392000D03*
%TD*%
D13*
%TO.C,R82*%
X84658000Y-105441999D03*
X83638000Y-105441999D03*
%TD*%
D23*
%TO.C,C212*%
X175038332Y-58204750D03*
X177988332Y-58204750D03*
%TD*%
D14*
%TO.C,R38*%
X160781428Y-85122000D03*
X161801428Y-85122000D03*
%TD*%
%TO.C,R7*%
X81098000Y-104680000D03*
X82118000Y-104680000D03*
%TD*%
%TO.C,R30*%
X128596000Y-85122000D03*
X129616000Y-85122000D03*
%TD*%
D21*
%TO.C,R46*%
X144450000Y-40310000D03*
X144450000Y-39290000D03*
%TD*%
D39*
%TO.C,C170*%
X139520000Y-36559000D03*
X139520000Y-33609000D03*
%TD*%
D26*
%TO.C,R75*%
X185050000Y-67090000D03*
X185050000Y-68110000D03*
%TD*%
D14*
%TO.C,R112*%
X209876000Y-38132000D03*
X210896000Y-38132000D03*
%TD*%
D20*
%TO.C,C181*%
X134412000Y-47100000D03*
X133452000Y-47100000D03*
%TD*%
%TO.C,C150*%
X174930000Y-45200000D03*
X173970000Y-45200000D03*
%TD*%
D23*
%TO.C,C200*%
X142571666Y-61500000D03*
X145521666Y-61500000D03*
%TD*%
D13*
%TO.C,R96*%
X180670000Y-102902000D03*
X179650000Y-102902000D03*
%TD*%
D26*
%TO.C,R110*%
X150188000Y-70134000D03*
X150188000Y-71154000D03*
%TD*%
%TO.C,R48*%
X147394000Y-43210000D03*
X147394000Y-44230000D03*
%TD*%
D19*
%TO.C,C215*%
X185550000Y-57880000D03*
X185550000Y-56920000D03*
%TD*%
D26*
%TO.C,R71*%
X153783332Y-67090000D03*
X153783332Y-68110000D03*
%TD*%
D13*
%TO.C,R94*%
X180670000Y-105441999D03*
X179650000Y-105441999D03*
%TD*%
D14*
%TO.C,R33*%
X144598000Y-83598000D03*
X145618000Y-83598000D03*
%TD*%
D26*
%TO.C,R58*%
X161364000Y-47782000D03*
X161364000Y-48802000D03*
%TD*%
D14*
%TO.C,R31*%
X128596000Y-86138000D03*
X129616000Y-86138000D03*
%TD*%
D31*
%TO.C,L4*%
X194815000Y-65600000D03*
X202685000Y-65600000D03*
%TD*%
D13*
%TO.C,R108*%
X132830666Y-102902000D03*
X131810666Y-102902000D03*
%TD*%
D24*
%TO.C,U30*%
X173424000Y-107761000D03*
X173424000Y-107259000D03*
X173424000Y-106757000D03*
X173424000Y-106255000D03*
X173424000Y-105753000D03*
X173424000Y-105251000D03*
X173424000Y-104749000D03*
X173424000Y-104247000D03*
X173424000Y-103745000D03*
X173424000Y-103243000D03*
X173424000Y-102741000D03*
X173424000Y-102239000D03*
X173424000Y-101737000D03*
X173424000Y-101235000D03*
X167592000Y-101248000D03*
X167592000Y-101748000D03*
X167592000Y-102248000D03*
X167592000Y-102748000D03*
X167592000Y-103248000D03*
X167592000Y-103745000D03*
X167592000Y-104248000D03*
X167592000Y-104749000D03*
X167592000Y-105251000D03*
X167592000Y-105753000D03*
X167592000Y-106255000D03*
X167592000Y-106748000D03*
X167592000Y-107259000D03*
X167592000Y-107748000D03*
%TD*%
D14*
%TO.C,R29*%
X128596000Y-83598000D03*
X129616000Y-83598000D03*
%TD*%
D40*
%TO.C,D2*%
X210903000Y-36354000D03*
X208853000Y-36354000D03*
%TD*%
D20*
%TO.C,C9*%
X78532000Y-103410000D03*
X77572000Y-103410000D03*
%TD*%
D41*
%TO.C,U6*%
X82701000Y-100376000D03*
X82701000Y-98076000D03*
X82701000Y-95776000D03*
D42*
X76451000Y-98076000D03*
%TD*%
D15*
%TO.C,U20*%
X120916036Y-64350000D03*
X121416162Y-64350000D03*
X121916288Y-64350000D03*
D16*
X122416414Y-64150000D03*
D15*
X122916540Y-64350000D03*
D17*
X124666666Y-64350000D03*
X124666666Y-59650000D03*
D15*
X122916540Y-59650000D03*
X122416414Y-59650000D03*
X121916288Y-59650000D03*
X121416162Y-59650000D03*
X120916036Y-59650000D03*
%TD*%
D26*
%TO.C,R53*%
X143330000Y-45750000D03*
X143330000Y-46770000D03*
%TD*%
%TO.C,R13*%
X212926000Y-89946000D03*
X212926000Y-90966000D03*
%TD*%
D28*
%TO.C,C183*%
X91050000Y-67120000D03*
X91050000Y-68080000D03*
%TD*%
D24*
%TO.C,U32*%
X141586666Y-107761000D03*
X141586666Y-107259000D03*
X141586666Y-106757000D03*
X141586666Y-106255000D03*
X141586666Y-105753000D03*
X141586666Y-105251000D03*
X141586666Y-104749000D03*
X141586666Y-104247000D03*
X141586666Y-103745000D03*
X141586666Y-103243000D03*
X141586666Y-102741000D03*
X141586666Y-102239000D03*
X141586666Y-101737000D03*
X141586666Y-101235000D03*
X135754666Y-101248000D03*
X135754666Y-101748000D03*
X135754666Y-102248000D03*
X135754666Y-102748000D03*
X135754666Y-103248000D03*
X135754666Y-103745000D03*
X135754666Y-104248000D03*
X135754666Y-104749000D03*
X135754666Y-105251000D03*
X135754666Y-105753000D03*
X135754666Y-106255000D03*
X135754666Y-106748000D03*
X135754666Y-107259000D03*
X135754666Y-107748000D03*
%TD*%
D13*
%TO.C,R24*%
X101422000Y-84360000D03*
X100402000Y-84360000D03*
%TD*%
%TO.C,R95*%
X180670000Y-103918000D03*
X179650000Y-103918000D03*
%TD*%
D28*
%TO.C,C2*%
X82150000Y-75120000D03*
X82150000Y-76080000D03*
%TD*%
D40*
%TO.C,D1*%
X210975000Y-33560000D03*
X208925000Y-33560000D03*
%TD*%
D14*
%TO.C,R17*%
X176892285Y-83598000D03*
X177912285Y-83598000D03*
%TD*%
D26*
%TO.C,R70*%
X121716666Y-56790000D03*
X121716666Y-57810000D03*
%TD*%
D31*
%TO.C,L3*%
X162348332Y-65600000D03*
X170218332Y-65600000D03*
%TD*%
D24*
%TO.C,U14*%
X103692857Y-81279000D03*
X103692857Y-81781000D03*
X103692857Y-82283000D03*
X103692857Y-82785000D03*
X103692857Y-83287000D03*
X103692857Y-83789000D03*
X103692857Y-84291000D03*
X103692857Y-84793000D03*
X103692857Y-85295000D03*
X103692857Y-85797000D03*
X103692857Y-86299000D03*
X103692857Y-86801000D03*
X103692857Y-87303000D03*
X103692857Y-87805000D03*
X109524857Y-87792000D03*
X109524857Y-87292000D03*
X109524857Y-86792000D03*
X109524857Y-86292000D03*
X109524857Y-85792000D03*
X109524857Y-85295000D03*
X109524857Y-84792000D03*
X109524857Y-84291000D03*
X109524857Y-83789000D03*
X109524857Y-83287000D03*
X109524857Y-82785000D03*
X109524857Y-82292000D03*
X109524857Y-81781000D03*
X109524857Y-81292000D03*
%TD*%
D28*
%TO.C,C204*%
X154883332Y-67120000D03*
X154883332Y-68080000D03*
%TD*%
D27*
%TO.C,C182*%
X157328000Y-35338000D03*
X158288000Y-35338000D03*
%TD*%
D14*
%TO.C,R93*%
X192350000Y-104680000D03*
X193370000Y-104680000D03*
%TD*%
D21*
%TO.C,R47*%
X144450000Y-37910000D03*
X144450000Y-36890000D03*
%TD*%
D22*
%TO.C,C199*%
X137191666Y-58200000D03*
X134241666Y-58200000D03*
%TD*%
D24*
%TO.C,U12*%
X168136285Y-81279000D03*
X168136285Y-81781000D03*
X168136285Y-82283000D03*
X168136285Y-82785000D03*
X168136285Y-83287000D03*
X168136285Y-83789000D03*
X168136285Y-84291000D03*
X168136285Y-84793000D03*
X168136285Y-85295000D03*
X168136285Y-85797000D03*
X168136285Y-86299000D03*
X168136285Y-86801000D03*
X168136285Y-87303000D03*
X168136285Y-87805000D03*
X173968285Y-87792000D03*
X173968285Y-87292000D03*
X173968285Y-86792000D03*
X173968285Y-86292000D03*
X173968285Y-85792000D03*
X173968285Y-85295000D03*
X173968285Y-84792000D03*
X173968285Y-84291000D03*
X173968285Y-83789000D03*
X173968285Y-83287000D03*
X173968285Y-82785000D03*
X173968285Y-82292000D03*
X173968285Y-81781000D03*
X173968285Y-81292000D03*
%TD*%
D14*
%TO.C,R6*%
X209940000Y-41688000D03*
X210960000Y-41688000D03*
%TD*%
D43*
%TO.C,U5*%
X172937500Y-32815000D03*
X172937500Y-33765000D03*
X172937500Y-34715000D03*
X175212500Y-34715000D03*
X175212500Y-33765000D03*
X175212500Y-32815000D03*
%TD*%
%TO.C,U3*%
X83812500Y-44350000D03*
X83812500Y-45300000D03*
X83812500Y-46250000D03*
X86087500Y-46250000D03*
X86087500Y-44350000D03*
%TD*%
D24*
%TO.C,U24*%
X152025428Y-81279000D03*
X152025428Y-81781000D03*
X152025428Y-82283000D03*
X152025428Y-82785000D03*
X152025428Y-83287000D03*
X152025428Y-83789000D03*
X152025428Y-84291000D03*
X152025428Y-84793000D03*
X152025428Y-85295000D03*
X152025428Y-85797000D03*
X152025428Y-86299000D03*
X152025428Y-86801000D03*
X152025428Y-87303000D03*
X152025428Y-87805000D03*
X157857428Y-87792000D03*
X157857428Y-87292000D03*
X157857428Y-86792000D03*
X157857428Y-86292000D03*
X157857428Y-85792000D03*
X157857428Y-85295000D03*
X157857428Y-84792000D03*
X157857428Y-84291000D03*
X157857428Y-83789000D03*
X157857428Y-83287000D03*
X157857428Y-82785000D03*
X157857428Y-82292000D03*
X157857428Y-81781000D03*
X157857428Y-81292000D03*
%TD*%
%TO.C,U15*%
X119840000Y-81279000D03*
X119840000Y-81781000D03*
X119840000Y-82283000D03*
X119840000Y-82785000D03*
X119840000Y-83287000D03*
X119840000Y-83789000D03*
X119840000Y-84291000D03*
X119840000Y-84793000D03*
X119840000Y-85295000D03*
X119840000Y-85797000D03*
X119840000Y-86299000D03*
X119840000Y-86801000D03*
X119840000Y-87303000D03*
X119840000Y-87805000D03*
X125672000Y-87792000D03*
X125672000Y-87292000D03*
X125672000Y-86792000D03*
X125672000Y-86292000D03*
X125672000Y-85792000D03*
X125672000Y-85295000D03*
X125672000Y-84792000D03*
X125672000Y-84291000D03*
X125672000Y-83789000D03*
X125672000Y-83287000D03*
X125672000Y-82785000D03*
X125672000Y-82292000D03*
X125672000Y-81781000D03*
X125672000Y-81292000D03*
%TD*%
D19*
%TO.C,C6*%
X170650000Y-32780000D03*
X170650000Y-31820000D03*
%TD*%
D14*
%TO.C,R5*%
X81352000Y-78772000D03*
X82372000Y-78772000D03*
%TD*%
D26*
%TO.C,R69*%
X120116666Y-67090000D03*
X120116666Y-68110000D03*
%TD*%
D28*
%TO.C,C196*%
X122816666Y-56820000D03*
X122816666Y-57780000D03*
%TD*%
%TO.C,C203*%
X155983332Y-67120000D03*
X155983332Y-68080000D03*
%TD*%
D13*
%TO.C,R90*%
X196672000Y-105441999D03*
X195652000Y-105441999D03*
%TD*%
D24*
%TO.C,U10*%
X184355475Y-81259000D03*
X184355475Y-81761000D03*
X184355475Y-82263000D03*
X184355475Y-82765000D03*
X184355475Y-83267000D03*
X184355475Y-83769000D03*
X184355475Y-84271000D03*
X184355475Y-84773000D03*
X184355475Y-85275000D03*
X184355475Y-85777000D03*
X184355475Y-86279000D03*
X184355475Y-86781000D03*
X184355475Y-87283000D03*
X184355475Y-87785000D03*
X190187475Y-87772000D03*
X190187475Y-87272000D03*
X190187475Y-86772000D03*
X190187475Y-86272000D03*
X190187475Y-85772000D03*
X190187475Y-85275000D03*
X190187475Y-84772000D03*
X190187475Y-84271000D03*
X190187475Y-83769000D03*
X190187475Y-83267000D03*
X190187475Y-82765000D03*
X190187475Y-82272000D03*
X190187475Y-81761000D03*
X190187475Y-81272000D03*
%TD*%
D18*
%TO.C,C165*%
X117371200Y-41737000D03*
X117371200Y-44687000D03*
%TD*%
D14*
%TO.C,R77*%
X112340000Y-104680000D03*
X113360000Y-104680000D03*
%TD*%
D24*
%TO.C,U28*%
X205428000Y-107761000D03*
X205428000Y-107259000D03*
X205428000Y-106757000D03*
X205428000Y-106255000D03*
X205428000Y-105753000D03*
X205428000Y-105251000D03*
X205428000Y-104749000D03*
X205428000Y-104247000D03*
X205428000Y-103745000D03*
X205428000Y-103243000D03*
X205428000Y-102741000D03*
X205428000Y-102239000D03*
X205428000Y-101737000D03*
X205428000Y-101235000D03*
X199596000Y-101248000D03*
X199596000Y-101748000D03*
X199596000Y-102248000D03*
X199596000Y-102748000D03*
X199596000Y-103248000D03*
X199596000Y-103745000D03*
X199596000Y-104248000D03*
X199596000Y-104749000D03*
X199596000Y-105251000D03*
X199596000Y-105753000D03*
X199596000Y-106255000D03*
X199596000Y-106748000D03*
X199596000Y-107259000D03*
X199596000Y-107748000D03*
%TD*%
D26*
%TO.C,R15*%
X209116000Y-89946000D03*
X209116000Y-90966000D03*
%TD*%
D13*
%TO.C,R16*%
X165430000Y-84360000D03*
X164410000Y-84360000D03*
%TD*%
D23*
%TO.C,C208*%
X175038332Y-64802000D03*
X177988332Y-64802000D03*
%TD*%
D14*
%TO.C,R85*%
X128342000Y-104680000D03*
X129362000Y-104680000D03*
%TD*%
D26*
%TO.C,R109*%
X148918000Y-70134000D03*
X148918000Y-71154000D03*
%TD*%
D23*
%TO.C,C190*%
X110105000Y-61500000D03*
X113055000Y-61500000D03*
%TD*%
D28*
%TO.C,C184*%
X89950000Y-67120000D03*
X89950000Y-68080000D03*
%TD*%
D23*
%TO.C,C210*%
X175038332Y-61500000D03*
X177988332Y-61500000D03*
%TD*%
D24*
%TO.C,U23*%
X135842000Y-81279000D03*
X135842000Y-81781000D03*
X135842000Y-82283000D03*
X135842000Y-82785000D03*
X135842000Y-83287000D03*
X135842000Y-83789000D03*
X135842000Y-84291000D03*
X135842000Y-84793000D03*
X135842000Y-85295000D03*
X135842000Y-85797000D03*
X135842000Y-86299000D03*
X135842000Y-86801000D03*
X135842000Y-87303000D03*
X135842000Y-87805000D03*
X141674000Y-87792000D03*
X141674000Y-87292000D03*
X141674000Y-86792000D03*
X141674000Y-86292000D03*
X141674000Y-85792000D03*
X141674000Y-85295000D03*
X141674000Y-84792000D03*
X141674000Y-84291000D03*
X141674000Y-83789000D03*
X141674000Y-83287000D03*
X141674000Y-82785000D03*
X141674000Y-82292000D03*
X141674000Y-81781000D03*
X141674000Y-81292000D03*
%TD*%
D23*
%TO.C,C222*%
X207505000Y-58204750D03*
X210455000Y-58204750D03*
%TD*%
D21*
%TO.C,R54*%
X149934000Y-37626000D03*
X149934000Y-36606000D03*
%TD*%
D14*
%TO.C,R23*%
X96338000Y-86138000D03*
X97358000Y-86138000D03*
%TD*%
D28*
%TO.C,C363*%
X160856000Y-39684000D03*
X160856000Y-40644000D03*
%TD*%
D39*
%TO.C,C168*%
X135202000Y-36559000D03*
X135202000Y-33609000D03*
%TD*%
D19*
%TO.C,C185*%
X88150000Y-57880000D03*
X88150000Y-56920000D03*
%TD*%
D13*
%TO.C,R87*%
X116662000Y-103918000D03*
X115642000Y-103918000D03*
%TD*%
%TO.C,R100*%
X164668000Y-102902000D03*
X163648000Y-102902000D03*
%TD*%
D41*
%TO.C,U7*%
X82701000Y-93010000D03*
X82701000Y-90710000D03*
X82701000Y-88410000D03*
D42*
X76451000Y-90710000D03*
%TD*%
D24*
%TO.C,U25*%
X109416000Y-107761000D03*
X109416000Y-107259000D03*
X109416000Y-106757000D03*
X109416000Y-106255000D03*
X109416000Y-105753000D03*
X109416000Y-105251000D03*
X109416000Y-104749000D03*
X109416000Y-104247000D03*
X109416000Y-103745000D03*
X109416000Y-103243000D03*
X109416000Y-102741000D03*
X109416000Y-102239000D03*
X109416000Y-101737000D03*
X109416000Y-101235000D03*
X103584000Y-101248000D03*
X103584000Y-101748000D03*
X103584000Y-102248000D03*
X103584000Y-102748000D03*
X103584000Y-103248000D03*
X103584000Y-103745000D03*
X103584000Y-104248000D03*
X103584000Y-104749000D03*
X103584000Y-105251000D03*
X103584000Y-105753000D03*
X103584000Y-106255000D03*
X103584000Y-106748000D03*
X103584000Y-107259000D03*
X103584000Y-107748000D03*
%TD*%
D21*
%TO.C,R89*%
X211656000Y-90966000D03*
X211656000Y-89946000D03*
%TD*%
D44*
%TO.C,U18*%
X157405000Y-45450000D03*
X157405000Y-44950000D03*
X157405000Y-44450000D03*
X157405000Y-43950000D03*
X157405000Y-43450000D03*
X157405000Y-42950000D03*
X157405000Y-42450000D03*
X157405000Y-41950000D03*
X157405000Y-41450000D03*
X157405000Y-40950000D03*
D45*
X156715000Y-40260000D03*
X156215000Y-40260000D03*
X155715000Y-40260000D03*
X155215000Y-40260000D03*
X154715000Y-40260000D03*
X154215000Y-40260000D03*
X153715000Y-40260000D03*
X153215000Y-40260000D03*
X152715000Y-40260000D03*
X152215000Y-40260000D03*
D44*
X151525000Y-40950000D03*
X151525000Y-41450000D03*
X151525000Y-41950000D03*
X151525000Y-42450000D03*
X151525000Y-42950000D03*
X151525000Y-43450000D03*
X151525000Y-43950000D03*
X151525000Y-44450000D03*
X151525000Y-44950000D03*
X151525000Y-45450000D03*
D45*
X152215000Y-46140000D03*
X152715000Y-46140000D03*
X153215000Y-46140000D03*
X153715000Y-46140000D03*
X154215000Y-46140000D03*
X154715000Y-46140000D03*
X155215000Y-46140000D03*
X155715000Y-46140000D03*
X156215000Y-46140000D03*
X156715000Y-46140000D03*
%TD*%
D13*
%TO.C,R102*%
X148832666Y-105441999D03*
X147812666Y-105441999D03*
%TD*%
D28*
%TO.C,C5*%
X87750000Y-44420000D03*
X87750000Y-45380000D03*
%TD*%
D21*
%TO.C,R111*%
X153744000Y-37626000D03*
X153744000Y-36606000D03*
%TD*%
D13*
%TO.C,R86*%
X116662000Y-105441999D03*
X115642000Y-105441999D03*
%TD*%
D18*
%TO.C,C166*%
X108532000Y-41737000D03*
X108532000Y-44687000D03*
%TD*%
D39*
%TO.C,C169*%
X125550000Y-36559000D03*
X125550000Y-33609000D03*
%TD*%
D13*
%TO.C,R79*%
X100660000Y-103918000D03*
X99640000Y-103918000D03*
%TD*%
D21*
%TO.C,R51*%
X143330000Y-44230000D03*
X143330000Y-43210000D03*
%TD*%
D40*
%TO.C,D3*%
X210903000Y-39700000D03*
X208853000Y-39700000D03*
%TD*%
D23*
%TO.C,C191*%
X110105000Y-68104000D03*
X113055000Y-68104000D03*
%TD*%
D26*
%TO.C,R42*%
X202950000Y-38715000D03*
X202950000Y-39735000D03*
%TD*%
D19*
%TO.C,C161*%
X159332000Y-41660000D03*
X159332000Y-40700000D03*
%TD*%
D26*
%TO.C,R45*%
X192350000Y-38625000D03*
X192350000Y-39645000D03*
%TD*%
%TO.C,R50*%
X144600000Y-43210000D03*
X144600000Y-44230000D03*
%TD*%
D19*
%TO.C,C155*%
X86180000Y-32770000D03*
X86180000Y-31810000D03*
%TD*%
D26*
%TO.C,R66*%
X87650000Y-67090000D03*
X87650000Y-68110000D03*
%TD*%
D14*
%TO.C,R1*%
X209840000Y-31460000D03*
X210860000Y-31460000D03*
%TD*%
D19*
%TO.C,C163*%
X155014000Y-37596000D03*
X155014000Y-36636000D03*
%TD*%
D28*
%TO.C,C3*%
X82150000Y-44420000D03*
X82150000Y-45380000D03*
%TD*%
D46*
%TO.C,U16*%
X173050000Y-37160000D03*
X173050000Y-37795000D03*
X173050000Y-38430000D03*
X173050000Y-39065000D03*
X173050000Y-39700000D03*
X173050000Y-40335000D03*
X173050000Y-40970000D03*
X173050000Y-41605000D03*
X178325000Y-41605000D03*
X178325000Y-40970000D03*
X178325000Y-40335000D03*
X178325000Y-39700000D03*
X178325000Y-39065000D03*
X178325000Y-38430000D03*
X178325000Y-37795000D03*
X178325000Y-37160000D03*
%TD*%
D47*
%TO.C,U1*%
X80635000Y-74150000D03*
D48*
X80200000Y-73215000D03*
X79700000Y-73215000D03*
X79200000Y-73215000D03*
X78700000Y-73215000D03*
X78200000Y-73215000D03*
X77700000Y-73215000D03*
D47*
X77265000Y-74150000D03*
X77265000Y-74650000D03*
D48*
X77700000Y-75585000D03*
X78200000Y-75585000D03*
X78700000Y-75585000D03*
X79200000Y-75585000D03*
X79700000Y-75585000D03*
X80200000Y-75585000D03*
D47*
X80635000Y-74650000D03*
%TD*%
D19*
%TO.C,C1*%
X82150000Y-73880000D03*
X82150000Y-72920000D03*
%TD*%
D26*
%TO.C,R14*%
X210386000Y-89946000D03*
X210386000Y-90966000D03*
%TD*%
D14*
%TO.C,R11*%
X193111475Y-86118000D03*
X194131475Y-86118000D03*
%TD*%
D28*
%TO.C,C11*%
X85164000Y-95818000D03*
X85164000Y-96778000D03*
%TD*%
D29*
%TO.C,TH2*%
X174750000Y-95600000D03*
X174750000Y-92500000D03*
%TD*%
D19*
%TO.C,C156*%
X84910000Y-32770000D03*
X84910000Y-31810000D03*
%TD*%
D14*
%TO.C,R21*%
X96338000Y-83598000D03*
X97358000Y-83598000D03*
%TD*%
D13*
%TO.C,R84*%
X84658000Y-102902000D03*
X83638000Y-102902000D03*
%TD*%
D28*
%TO.C,C194*%
X122416666Y-67120000D03*
X122416666Y-68080000D03*
%TD*%
D26*
%TO.C,R73*%
X154183332Y-56790000D03*
X154183332Y-57810000D03*
%TD*%
D18*
%TO.C,C173*%
X126210400Y-41737000D03*
X126210400Y-44687000D03*
%TD*%
D23*
%TO.C,C202*%
X142571666Y-58204750D03*
X145521666Y-58204750D03*
%TD*%
D14*
%TO.C,R81*%
X96084000Y-104680000D03*
X97104000Y-104680000D03*
%TD*%
D21*
%TO.C,R60*%
X156850000Y-49056000D03*
X156850000Y-48036000D03*
%TD*%
D26*
%TO.C,R65*%
X88850000Y-67090000D03*
X88850000Y-68110000D03*
%TD*%
D24*
%TO.C,U27*%
X125418000Y-107761000D03*
X125418000Y-107259000D03*
X125418000Y-106757000D03*
X125418000Y-106255000D03*
X125418000Y-105753000D03*
X125418000Y-105251000D03*
X125418000Y-104749000D03*
X125418000Y-104247000D03*
X125418000Y-103745000D03*
X125418000Y-103243000D03*
X125418000Y-102741000D03*
X125418000Y-102239000D03*
X125418000Y-101737000D03*
X125418000Y-101235000D03*
X119586000Y-101248000D03*
X119586000Y-101748000D03*
X119586000Y-102248000D03*
X119586000Y-102748000D03*
X119586000Y-103248000D03*
X119586000Y-103745000D03*
X119586000Y-104248000D03*
X119586000Y-104749000D03*
X119586000Y-105251000D03*
X119586000Y-105753000D03*
X119586000Y-106255000D03*
X119586000Y-106748000D03*
X119586000Y-107259000D03*
X119586000Y-107748000D03*
%TD*%
D14*
%TO.C,R22*%
X96338000Y-85122000D03*
X97358000Y-85122000D03*
%TD*%
D18*
%TO.C,C152*%
X187250000Y-38825000D03*
X187250000Y-41775000D03*
%TD*%
D23*
%TO.C,C188*%
X110105000Y-64802000D03*
X113055000Y-64802000D03*
%TD*%
D21*
%TO.C,R52*%
X144600000Y-46770000D03*
X144600000Y-45750000D03*
%TD*%
D23*
%TO.C,C198*%
X142571666Y-64802000D03*
X145521666Y-64802000D03*
%TD*%
D20*
%TO.C,C179*%
X134412000Y-45752000D03*
X133452000Y-45752000D03*
%TD*%
D28*
%TO.C,C206*%
X155283332Y-56820000D03*
X155283332Y-57780000D03*
%TD*%
D26*
%TO.C,R72*%
X152583332Y-67090000D03*
X152583332Y-68110000D03*
%TD*%
D20*
%TO.C,C178*%
X134412000Y-48300000D03*
X133452000Y-48300000D03*
%TD*%
D13*
%TO.C,R106*%
X132830666Y-105441999D03*
X131810666Y-105441999D03*
%TD*%
D28*
%TO.C,C216*%
X187750000Y-56820000D03*
X187750000Y-57780000D03*
%TD*%
D22*
%TO.C,C209*%
X169658332Y-58200000D03*
X166708332Y-58200000D03*
%TD*%
D28*
%TO.C,C154*%
X184450000Y-38820000D03*
X184450000Y-39780000D03*
%TD*%
D21*
%TO.C,R3*%
X89990000Y-32710000D03*
X89990000Y-31690000D03*
%TD*%
%TO.C,R57*%
X162634000Y-48802000D03*
X162634000Y-47782000D03*
%TD*%
D19*
%TO.C,C364*%
X160856000Y-42676000D03*
X160856000Y-41716000D03*
%TD*%
D49*
%TO.C,Q1*%
X205626000Y-44911500D03*
X207526000Y-44911500D03*
X206576000Y-43036500D03*
%TD*%
D14*
%TO.C,R97*%
X176602000Y-104680000D03*
X177622000Y-104680000D03*
%TD*%
D13*
%TO.C,R36*%
X149174000Y-84360000D03*
X148154000Y-84360000D03*
%TD*%
D26*
%TO.C,R59*%
X145650000Y-36890000D03*
X145650000Y-37910000D03*
%TD*%
D15*
%TO.C,U22*%
X185849370Y-64350000D03*
X186349496Y-64350000D03*
X186849622Y-64350000D03*
D16*
X187349748Y-64150000D03*
D15*
X187849874Y-64350000D03*
D17*
X189600000Y-64350000D03*
X189600000Y-59650000D03*
D15*
X187849874Y-59650000D03*
X187349748Y-59650000D03*
X186849622Y-59650000D03*
X186349496Y-59650000D03*
X185849370Y-59650000D03*
%TD*%
D18*
%TO.C,C171*%
X130630000Y-41737000D03*
X130630000Y-44687000D03*
%TD*%
D26*
%TO.C,R68*%
X121316666Y-67090000D03*
X121316666Y-68110000D03*
%TD*%
D28*
%TO.C,C214*%
X187350000Y-67120000D03*
X187350000Y-68080000D03*
%TD*%
D13*
%TO.C,R28*%
X117097429Y-84360000D03*
X116077429Y-84360000D03*
%TD*%
D28*
%TO.C,C10*%
X85164000Y-90738000D03*
X85164000Y-91698000D03*
%TD*%
D21*
%TO.C,R4*%
X91350000Y-32710000D03*
X91350000Y-31690000D03*
%TD*%
D13*
%TO.C,R20*%
X82372000Y-80042000D03*
X81352000Y-80042000D03*
%TD*%
D26*
%TO.C,R64*%
X158450000Y-37690000D03*
X158450000Y-38710000D03*
%TD*%
%TO.C,R44*%
X205550000Y-38715000D03*
X205550000Y-39735000D03*
%TD*%
D31*
%TO.C,L2*%
X129881666Y-65600000D03*
X137751666Y-65600000D03*
%TD*%
D14*
%TO.C,R35*%
X144598000Y-86138000D03*
X145618000Y-86138000D03*
%TD*%
D50*
X74750000Y-73850000D02*
X74750000Y-125000000D01*
X74750000Y-27550000D02*
X74750000Y-25250000D01*
X74750000Y-125000000D02*
X214750000Y-125000000D01*
X74750000Y-47850000D02*
X74750000Y-53550000D01*
X74750000Y-25250000D02*
X214750000Y-25250000D01*
X214750000Y-125000000D02*
X214750000Y-25250000D01*
%TO.C,J2*%
X66350000Y-54050000D02*
X66350000Y-64250000D01*
X66350000Y-67150000D02*
X66350000Y-73350000D01*
X66850000Y-53550000D02*
X66350000Y-54050000D01*
X66850000Y-64750000D02*
X66350000Y-64250000D01*
X66850000Y-66650000D02*
X66350000Y-67150000D01*
X66850000Y-73850000D02*
X66350000Y-73350000D01*
X73800000Y-64750000D02*
X66850000Y-64750000D01*
X73800000Y-66650000D02*
X66850000Y-66650000D01*
X74750000Y-53550000D02*
X66850000Y-53550000D01*
X74750000Y-73850000D02*
X66850000Y-73850000D01*
X73800000Y-64750000D02*
G75*
G02*
X73800000Y-66650000I0J-950000D01*
G01*
%TO.C,J1*%
X66350000Y-28050000D02*
X66350000Y-38250000D01*
X66350000Y-41150000D02*
X66350000Y-47350000D01*
X66850000Y-27550000D02*
X66350000Y-28050000D01*
X66850000Y-38750000D02*
X66350000Y-38250000D01*
X66850000Y-40650000D02*
X66350000Y-41150000D01*
X66850000Y-47850000D02*
X66350000Y-47350000D01*
X73800000Y-38750000D02*
X66850000Y-38750000D01*
X73800000Y-40650000D02*
X66850000Y-40650000D01*
X74750000Y-27550000D02*
X66850000Y-27550000D01*
X74750000Y-47850000D02*
X66850000Y-47850000D01*
X73800000Y-38750000D02*
G75*
G02*
X73800000Y-40650000I0J-950000D01*
G01*
%TD*%
M02*
