%TF.GenerationSoftware,KiCad,Pcbnew,8.0.1*%
%TF.CreationDate,2024-04-21T01:40:20+02:00*%
%TF.ProjectId,EKO_Miner_BM1366-13xx_16-01A,454b4f5f-4d69-46e6-9572-5f424d313336,rev?*%
%TF.SameCoordinates,Original*%
%TF.FileFunction,Soldermask,Bot*%
%TF.FilePolarity,Negative*%
%FSLAX46Y46*%
G04 Gerber Fmt 4.6, Leading zero omitted, Abs format (unit mm)*
G04 Created by KiCad (PCBNEW 8.0.1) date 2024-04-21 01:40:20*
%MOMM*%
%LPD*%
G01*
G04 APERTURE LIST*
G04 Aperture macros list*
%AMRoundRect*
0 Rectangle with rounded corners*
0 $1 Rounding radius*
0 $2 $3 $4 $5 $6 $7 $8 $9 X,Y pos of 4 corners*
0 Add a 4 corners polygon primitive as box body*
4,1,4,$2,$3,$4,$5,$6,$7,$8,$9,$2,$3,0*
0 Add four circle primitives for the rounded corners*
1,1,$1+$1,$2,$3*
1,1,$1+$1,$4,$5*
1,1,$1+$1,$6,$7*
1,1,$1+$1,$8,$9*
0 Add four rect primitives between the rounded corners*
20,1,$1+$1,$2,$3,$4,$5,0*
20,1,$1+$1,$4,$5,$6,$7,0*
20,1,$1+$1,$6,$7,$8,$9,0*
20,1,$1+$1,$8,$9,$2,$3,0*%
G04 Aperture macros list end*
%ADD10C,0.499999*%
%ADD11R,3.200000X0.700000*%
%ADD12R,4.300000X0.700000*%
%ADD13C,3.200000*%
%ADD14C,1.100000*%
%ADD15R,1.730000X2.030000*%
%ADD16O,1.730000X2.030000*%
%ADD17RoundRect,0.140000X-0.140000X-0.170000X0.140000X-0.170000X0.140000X0.170000X-0.140000X0.170000X0*%
%ADD18RoundRect,0.140000X-0.170000X0.140000X-0.170000X-0.140000X0.170000X-0.140000X0.170000X0.140000X0*%
%ADD19RoundRect,0.140000X0.140000X0.170000X-0.140000X0.170000X-0.140000X-0.170000X0.140000X-0.170000X0*%
%ADD20RoundRect,0.140000X0.170000X-0.140000X0.170000X0.140000X-0.170000X0.140000X-0.170000X-0.140000X0*%
%ADD21C,7.000000*%
%ADD22RoundRect,0.250000X1.025000X-0.875000X1.025000X0.875000X-1.025000X0.875000X-1.025000X-0.875000X0*%
%ADD23RoundRect,0.250000X-0.325000X-1.100000X0.325000X-1.100000X0.325000X1.100000X-0.325000X1.100000X0*%
%ADD24C,1.000000*%
%ADD25RoundRect,0.250000X-1.025000X0.875000X-1.025000X-0.875000X1.025000X-0.875000X1.025000X0.875000X0*%
%ADD26RoundRect,0.250000X0.875000X1.025000X-0.875000X1.025000X-0.875000X-1.025000X0.875000X-1.025000X0*%
%TA.AperFunction,Profile*%
%ADD27C,0.100000*%
%TD*%
G04 APERTURE END LIST*
D10*
%TO.C,U19*%
X89630000Y-63300000D03*
X90950000Y-63300000D03*
X92270000Y-63300000D03*
X88550000Y-62000000D03*
X89630000Y-61999997D03*
X90950000Y-61999997D03*
X93350000Y-61999997D03*
X92270000Y-61999995D03*
X89630000Y-60700000D03*
X90950000Y-60700000D03*
X92270000Y-60700000D03*
%TD*%
D11*
%TO.C,J2*%
X70350000Y-54200000D03*
D12*
X69800000Y-55200000D03*
X69800000Y-56200000D03*
X69800000Y-57200000D03*
X69800000Y-58200000D03*
X69800000Y-59200000D03*
X69800000Y-60200000D03*
X69800000Y-61200000D03*
X69800000Y-62200000D03*
X69800000Y-63200000D03*
X69800000Y-64200000D03*
X69800000Y-67200000D03*
X69800000Y-68200000D03*
X69800000Y-69200000D03*
X69800000Y-70200000D03*
X69800000Y-71200000D03*
X69800000Y-72200000D03*
X69800000Y-73200000D03*
%TD*%
D13*
%TO.C,H6*%
X86000000Y-74000000D03*
%TD*%
D10*
%TO.C,U21*%
X154563332Y-63300000D03*
X155883332Y-63300000D03*
X157203332Y-63300000D03*
X153483332Y-62000000D03*
X154563332Y-61999997D03*
X155883332Y-61999997D03*
X158283332Y-61999997D03*
X157203332Y-61999995D03*
X154563332Y-60700000D03*
X155883332Y-60700000D03*
X157203332Y-60700000D03*
%TD*%
D11*
%TO.C,J1*%
X70350000Y-28200000D03*
D12*
X69800000Y-29200000D03*
X69800000Y-30200000D03*
X69800000Y-31200000D03*
X69800000Y-32200000D03*
X69800000Y-33200000D03*
X69800000Y-34200000D03*
X69800000Y-35200000D03*
X69800000Y-36200000D03*
X69800000Y-37200000D03*
X69800000Y-38200000D03*
X69800000Y-41200000D03*
X69800000Y-42200000D03*
X69800000Y-43200000D03*
X69800000Y-44200000D03*
X69800000Y-45200000D03*
X69800000Y-46200000D03*
X69800000Y-47200000D03*
%TD*%
D14*
%TO.C,J4*%
X203030000Y-31865000D03*
D15*
X197950000Y-34025000D03*
D16*
X200490000Y-34025000D03*
X203030000Y-34025000D03*
X205570000Y-34025000D03*
%TD*%
D10*
%TO.C,U20*%
X122096666Y-63300000D03*
X123416666Y-63300000D03*
X124736666Y-63300000D03*
X121016666Y-62000000D03*
X122096666Y-61999997D03*
X123416666Y-61999997D03*
X125816666Y-61999997D03*
X124736666Y-61999995D03*
X122096666Y-60700000D03*
X123416666Y-60700000D03*
X124736666Y-60700000D03*
%TD*%
D13*
%TO.C,H5*%
X208000000Y-74000000D03*
%TD*%
%TO.C,H1*%
X86000000Y-51000000D03*
%TD*%
%TO.C,H3*%
X208000000Y-51000000D03*
%TD*%
%TO.C,H4*%
X208000000Y-115000000D03*
%TD*%
%TO.C,H2*%
X86000000Y-115000000D03*
%TD*%
D10*
%TO.C,U22*%
X187030000Y-63300000D03*
X188350000Y-63300000D03*
X189670000Y-63300000D03*
X185950000Y-62000000D03*
X187030000Y-61999997D03*
X188350000Y-61999997D03*
X190750000Y-61999997D03*
X189670000Y-61999995D03*
X187030000Y-60700000D03*
X188350000Y-60700000D03*
X189670000Y-60700000D03*
%TD*%
D14*
%TO.C,J3*%
X189830000Y-31965000D03*
D15*
X184750000Y-34125000D03*
D16*
X187290000Y-34125000D03*
X189830000Y-34125000D03*
X192370000Y-34125000D03*
%TD*%
D17*
%TO.C,C228*%
X111354000Y-107982000D03*
X112314000Y-107982000D03*
%TD*%
D18*
%TO.C,C224*%
X159767428Y-87436000D03*
X159767428Y-88396000D03*
%TD*%
D17*
%TO.C,C82*%
X95352000Y-81058000D03*
X96312000Y-81058000D03*
%TD*%
D19*
%TO.C,C22*%
X184957475Y-77228000D03*
X183997475Y-77228000D03*
%TD*%
D18*
%TO.C,C139*%
X157989428Y-89214000D03*
X157989428Y-90174000D03*
%TD*%
D20*
%TO.C,C343*%
X149846666Y-101604000D03*
X149846666Y-100644000D03*
%TD*%
D17*
%TO.C,C251*%
X92811999Y-110522000D03*
X93771999Y-110522000D03*
%TD*%
%TO.C,C133*%
X143612000Y-81058000D03*
X144572000Y-81058000D03*
%TD*%
%TO.C,C92*%
X109176857Y-78518000D03*
X110136857Y-78518000D03*
%TD*%
D21*
%TO.C,H11*%
X178000000Y-115000000D03*
%TD*%
D22*
%TO.C,C356*%
X138670666Y-108134000D03*
X138670666Y-101734000D03*
%TD*%
D17*
%TO.C,C267*%
X124815999Y-111792000D03*
X125775999Y-111792000D03*
%TD*%
D19*
%TO.C,C278*%
X208326000Y-106966000D03*
X207366000Y-106966000D03*
%TD*%
D23*
%TO.C,C367*%
X110105000Y-61500000D03*
X113055000Y-61500000D03*
%TD*%
D19*
%TO.C,C51*%
X166198285Y-81058000D03*
X165238285Y-81058000D03*
%TD*%
D17*
%TO.C,C352*%
X140984665Y-111792000D03*
X141944665Y-111792000D03*
%TD*%
D19*
%TO.C,C344*%
X149818666Y-107981999D03*
X148858666Y-107981999D03*
%TD*%
%TO.C,C90*%
X104294857Y-77248000D03*
X103334857Y-77248000D03*
%TD*%
D17*
%TO.C,C110*%
X125324000Y-77248000D03*
X126284000Y-77248000D03*
%TD*%
D19*
%TO.C,C321*%
X167940000Y-111792000D03*
X166980000Y-111792000D03*
%TD*%
%TO.C,C238*%
X103932000Y-109252000D03*
X102972000Y-109252000D03*
%TD*%
D18*
%TO.C,C98*%
X111434857Y-87436000D03*
X111434857Y-88396000D03*
%TD*%
D17*
%TO.C,C58*%
X173620285Y-78518000D03*
X174580285Y-78518000D03*
%TD*%
D19*
%TO.C,C332*%
X160486665Y-109252000D03*
X159526665Y-109252000D03*
%TD*%
D20*
%TO.C,C265*%
X119454001Y-99826000D03*
X119454001Y-98866000D03*
%TD*%
D23*
%TO.C,C365*%
X110105000Y-68104000D03*
X113055000Y-68104000D03*
%TD*%
D19*
%TO.C,C357*%
X136102666Y-109252000D03*
X135142666Y-109252000D03*
%TD*%
D20*
%TO.C,C314*%
X175080000Y-101604001D03*
X175080000Y-100644001D03*
%TD*%
D17*
%TO.C,C336*%
X156986665Y-110522000D03*
X157946665Y-110522000D03*
%TD*%
D20*
%TO.C,C341*%
X157466666Y-99572000D03*
X157466666Y-98612000D03*
%TD*%
D24*
%TO.C,TP3*%
X95578000Y-84360000D03*
%TD*%
D19*
%TO.C,C259*%
X85644000Y-107981999D03*
X84684000Y-107981999D03*
%TD*%
D17*
%TO.C,C59*%
X173620285Y-77248000D03*
X174580285Y-77248000D03*
%TD*%
D19*
%TO.C,C351*%
X141944665Y-109252000D03*
X140984665Y-109252000D03*
%TD*%
D20*
%TO.C,C273*%
X125296000Y-99572000D03*
X125296000Y-98612000D03*
%TD*%
D19*
%TO.C,C272*%
X119934000Y-109252000D03*
X118974000Y-109252000D03*
%TD*%
%TO.C,C276*%
X117648000Y-107981999D03*
X116688000Y-107981999D03*
%TD*%
D25*
%TO.C,C77*%
X90498000Y-80906000D03*
X90498000Y-87306000D03*
%TD*%
D17*
%TO.C,C76*%
X93066000Y-77248000D03*
X94026000Y-77248000D03*
%TD*%
D18*
%TO.C,C122*%
X141806000Y-89214000D03*
X141806000Y-90174000D03*
%TD*%
D24*
%TO.C,TP16*%
X209116000Y-95028000D03*
%TD*%
D17*
%TO.C,C131*%
X143612000Y-79788000D03*
X144572000Y-79788000D03*
%TD*%
D19*
%TO.C,C346*%
X144484666Y-106966000D03*
X143524666Y-106966000D03*
%TD*%
D23*
%TO.C,C378*%
X207505000Y-64802000D03*
X210455000Y-64802000D03*
%TD*%
D17*
%TO.C,C67*%
X84684000Y-82074000D03*
X85644000Y-82074000D03*
%TD*%
D18*
%TO.C,C86*%
X102036857Y-87436000D03*
X102036857Y-88396000D03*
%TD*%
D19*
%TO.C,C354*%
X136102666Y-110522000D03*
X135142666Y-110522000D03*
%TD*%
D24*
%TO.C,TP5*%
X99388000Y-83344000D03*
%TD*%
D18*
%TO.C,C45*%
X200479999Y-89468000D03*
X200479999Y-90428000D03*
%TD*%
D19*
%TO.C,C317*%
X173781999Y-109252000D03*
X172821999Y-109252000D03*
%TD*%
D18*
%TO.C,C120*%
X134186000Y-87436000D03*
X134186000Y-88396000D03*
%TD*%
D19*
%TO.C,C340*%
X152104666Y-109252000D03*
X151144666Y-109252000D03*
%TD*%
D24*
%TO.C,TP8*%
X194130000Y-106458000D03*
%TD*%
D17*
%TO.C,C243*%
X100686000Y-106965999D03*
X101646000Y-106965999D03*
%TD*%
%TO.C,C41*%
X205841999Y-78518000D03*
X206801999Y-78518000D03*
%TD*%
%TO.C,C135*%
X149127428Y-82074000D03*
X150087428Y-82074000D03*
%TD*%
D19*
%TO.C,C329*%
X160486666Y-106966000D03*
X159526666Y-106966000D03*
%TD*%
D20*
%TO.C,C275*%
X117676000Y-101604000D03*
X117676000Y-100644000D03*
%TD*%
D17*
%TO.C,C27*%
X189839475Y-79768000D03*
X190799475Y-79768000D03*
%TD*%
D19*
%TO.C,C124*%
X136444000Y-77248000D03*
X135484000Y-77248000D03*
%TD*%
%TO.C,C74*%
X88184000Y-78518000D03*
X87224000Y-78518000D03*
%TD*%
%TO.C,C355*%
X136102666Y-111792000D03*
X135142666Y-111792000D03*
%TD*%
D17*
%TO.C,C61*%
X173620285Y-79788000D03*
X174580285Y-79788000D03*
%TD*%
%TO.C,C99*%
X111462857Y-81058000D03*
X112422857Y-81058000D03*
%TD*%
D19*
%TO.C,C227*%
X112314000Y-106966000D03*
X111354000Y-106966000D03*
%TD*%
D17*
%TO.C,C89*%
X103334857Y-79788000D03*
X104294857Y-79788000D03*
%TD*%
D23*
%TO.C,C371*%
X142571666Y-61500000D03*
X145521666Y-61500000D03*
%TD*%
D20*
%TO.C,C248*%
X87450001Y-99826000D03*
X87450001Y-98866000D03*
%TD*%
D18*
%TO.C,C115*%
X127582000Y-87436000D03*
X127582000Y-88396000D03*
%TD*%
D19*
%TO.C,C320*%
X167940000Y-110522000D03*
X166980000Y-110522000D03*
%TD*%
%TO.C,C323*%
X167940000Y-109252000D03*
X166980000Y-109252000D03*
%TD*%
D18*
%TO.C,C30*%
X192097475Y-87416000D03*
X192097475Y-88376000D03*
%TD*%
D23*
%TO.C,C380*%
X207505000Y-58204750D03*
X210455000Y-58204750D03*
%TD*%
D17*
%TO.C,C109*%
X125324000Y-78518000D03*
X126284000Y-78518000D03*
%TD*%
D19*
%TO.C,C287*%
X199944000Y-111792000D03*
X198984000Y-111792000D03*
%TD*%
D24*
%TO.C,TP14*%
X212926000Y-93250000D03*
%TD*%
D18*
%TO.C,C105*%
X125804000Y-89214000D03*
X125804000Y-90174000D03*
%TD*%
D19*
%TO.C,C242*%
X101646000Y-107981999D03*
X100686000Y-107981999D03*
%TD*%
D17*
%TO.C,C80*%
X95352000Y-79788000D03*
X96312000Y-79788000D03*
%TD*%
D19*
%TO.C,C293*%
X197658000Y-107981999D03*
X196698000Y-107981999D03*
%TD*%
%TO.C,C102*%
X117902000Y-81058000D03*
X116942000Y-81058000D03*
%TD*%
D17*
%TO.C,C313*%
X175362000Y-107982000D03*
X176322000Y-107982000D03*
%TD*%
D19*
%TO.C,C325*%
X165654000Y-109251999D03*
X164694000Y-109251999D03*
%TD*%
D17*
%TO.C,C285*%
X204825999Y-110522000D03*
X205785999Y-110522000D03*
%TD*%
D19*
%TO.C,C266*%
X125775999Y-109252000D03*
X124815999Y-109252000D03*
%TD*%
%TO.C,C17*%
X182417475Y-81038000D03*
X181457475Y-81038000D03*
%TD*%
D20*
%TO.C,C348*%
X143242666Y-101604001D03*
X143242666Y-100644001D03*
%TD*%
D25*
%TO.C,C145*%
X154941428Y-80906000D03*
X154941428Y-87306000D03*
%TD*%
D23*
%TO.C,C370*%
X142571666Y-64802000D03*
X145521666Y-64802000D03*
%TD*%
D19*
%TO.C,C73*%
X88184000Y-77248000D03*
X87224000Y-77248000D03*
%TD*%
D22*
%TO.C,C254*%
X90498000Y-108134000D03*
X90498000Y-101734000D03*
%TD*%
D19*
%TO.C,C281*%
X208325999Y-109252000D03*
X207365999Y-109252000D03*
%TD*%
D20*
%TO.C,C241*%
X101674000Y-101604000D03*
X101674000Y-100644000D03*
%TD*%
D17*
%TO.C,C53*%
X165238285Y-79788000D03*
X166198285Y-79788000D03*
%TD*%
D19*
%TO.C,C249*%
X93771999Y-109252000D03*
X92811999Y-109252000D03*
%TD*%
%TO.C,C56*%
X168738285Y-77248000D03*
X167778285Y-77248000D03*
%TD*%
D18*
%TO.C,C28*%
X184477475Y-89448000D03*
X184477475Y-90408000D03*
%TD*%
D17*
%TO.C,C48*%
X208127999Y-81058000D03*
X209087999Y-81058000D03*
%TD*%
D23*
%TO.C,C379*%
X207505000Y-61500000D03*
X210455000Y-61500000D03*
%TD*%
D19*
%TO.C,C108*%
X120442000Y-78518000D03*
X119482000Y-78518000D03*
%TD*%
D17*
%TO.C,C118*%
X132944000Y-82074000D03*
X133904000Y-82074000D03*
%TD*%
D19*
%TO.C,C117*%
X128570000Y-82074000D03*
X127610000Y-82074000D03*
%TD*%
%TO.C,C300*%
X189783999Y-109252000D03*
X188823999Y-109252000D03*
%TD*%
D17*
%TO.C,C95*%
X109176857Y-79788000D03*
X110136857Y-79788000D03*
%TD*%
%TO.C,C345*%
X148858666Y-106965999D03*
X149818666Y-106965999D03*
%TD*%
D22*
%TO.C,C288*%
X202512000Y-108134000D03*
X202512000Y-101734000D03*
%TD*%
D17*
%TO.C,C104*%
X116942000Y-79788000D03*
X117902000Y-79788000D03*
%TD*%
%TO.C,C262*%
X127356000Y-107982000D03*
X128316000Y-107982000D03*
%TD*%
D21*
%TO.C,H7*%
X116000000Y-74500000D03*
%TD*%
D22*
%TO.C,C305*%
X186510000Y-108134000D03*
X186510000Y-101734000D03*
%TD*%
D18*
%TO.C,C132*%
X143584000Y-87436000D03*
X143584000Y-88396000D03*
%TD*%
D22*
%TO.C,C339*%
X154672666Y-108134000D03*
X154672666Y-101734000D03*
%TD*%
D17*
%TO.C,C233*%
X108813999Y-111792000D03*
X109773999Y-111792000D03*
%TD*%
D19*
%TO.C,C270*%
X119934000Y-111792000D03*
X118974000Y-111792000D03*
%TD*%
%TO.C,C289*%
X199944000Y-109252000D03*
X198984000Y-109252000D03*
%TD*%
D17*
%TO.C,C75*%
X93066000Y-78518000D03*
X94026000Y-78518000D03*
%TD*%
D19*
%TO.C,C253*%
X87930000Y-111792000D03*
X86970000Y-111792000D03*
%TD*%
D17*
%TO.C,C277*%
X116688000Y-106965999D03*
X117648000Y-106965999D03*
%TD*%
D20*
%TO.C,C358*%
X141464666Y-99572000D03*
X141464666Y-98612000D03*
%TD*%
D17*
%TO.C,C72*%
X87224000Y-79788000D03*
X88184000Y-79788000D03*
%TD*%
D20*
%TO.C,C324*%
X173302000Y-99572000D03*
X173302000Y-98612000D03*
%TD*%
D19*
%TO.C,C257*%
X85644000Y-109251999D03*
X84684000Y-109251999D03*
%TD*%
D24*
%TO.C,TP6*%
X86180000Y-90710000D03*
%TD*%
D19*
%TO.C,C295*%
X192324000Y-106966000D03*
X191364000Y-106966000D03*
%TD*%
D17*
%TO.C,C143*%
X157509428Y-78518000D03*
X158469428Y-78518000D03*
%TD*%
D18*
%TO.C,C62*%
X168258285Y-89468000D03*
X168258285Y-90428000D03*
%TD*%
D17*
%TO.C,C146*%
X157509428Y-79788000D03*
X158469428Y-79788000D03*
%TD*%
D23*
%TO.C,C372*%
X142571666Y-58204750D03*
X145521666Y-58204750D03*
%TD*%
D22*
%TO.C,C271*%
X122502000Y-108134000D03*
X122502000Y-101734000D03*
%TD*%
D25*
%TO.C,C128*%
X138758000Y-80906000D03*
X138758000Y-87306000D03*
%TD*%
D18*
%TO.C,C37*%
X206321999Y-89214000D03*
X206321999Y-90174000D03*
%TD*%
D26*
%TO.C,C207*%
X171283332Y-58800000D03*
X164883332Y-58800000D03*
%TD*%
D24*
%TO.C,TP9*%
X194232000Y-103918000D03*
%TD*%
%TO.C,TP7*%
X85164000Y-94520000D03*
%TD*%
D19*
%TO.C,C107*%
X120442000Y-77248000D03*
X119482000Y-77248000D03*
%TD*%
D17*
%TO.C,C46*%
X208127999Y-79788000D03*
X209087999Y-79788000D03*
%TD*%
D20*
%TO.C,C290*%
X205306000Y-99572000D03*
X205306000Y-98612000D03*
%TD*%
D24*
%TO.C,TP11*%
X197432000Y-104680000D03*
%TD*%
D17*
%TO.C,C347*%
X143524666Y-107982000D03*
X144484666Y-107982000D03*
%TD*%
D26*
%TO.C,C187*%
X106350000Y-58800000D03*
X99950000Y-58800000D03*
%TD*%
D19*
%TO.C,C283*%
X205785999Y-109252000D03*
X204825999Y-109252000D03*
%TD*%
D17*
%TO.C,C84*%
X100794857Y-82074000D03*
X101754857Y-82074000D03*
%TD*%
%TO.C,C144*%
X157509428Y-77248000D03*
X158469428Y-77248000D03*
%TD*%
D23*
%TO.C,C375*%
X175038332Y-61500000D03*
X177988332Y-61500000D03*
%TD*%
D25*
%TO.C,C60*%
X171052285Y-80906000D03*
X171052285Y-87306000D03*
%TD*%
D17*
%TO.C,C330*%
X159526666Y-107982000D03*
X160486666Y-107982000D03*
%TD*%
%TO.C,C362*%
X132856666Y-106965999D03*
X133816666Y-106965999D03*
%TD*%
%TO.C,C31*%
X192125475Y-81038000D03*
X193085475Y-81038000D03*
%TD*%
D19*
%TO.C,C91*%
X104294857Y-78518000D03*
X103334857Y-78518000D03*
%TD*%
%TO.C,C235*%
X103932000Y-110522000D03*
X102972000Y-110522000D03*
%TD*%
D18*
%TO.C,C47*%
X208099999Y-87436000D03*
X208099999Y-88396000D03*
%TD*%
D17*
%TO.C,C24*%
X189839475Y-78498000D03*
X190799475Y-78498000D03*
%TD*%
D24*
%TO.C,TP18*%
X213688000Y-95536000D03*
%TD*%
D17*
%TO.C,C318*%
X172821999Y-111792000D03*
X173781999Y-111792000D03*
%TD*%
D19*
%TO.C,C32*%
X193085475Y-82054000D03*
X192125475Y-82054000D03*
%TD*%
D24*
%TO.C,TP4*%
X100404000Y-86138000D03*
%TD*%
D17*
%TO.C,C245*%
X95352000Y-107982000D03*
X96312000Y-107982000D03*
%TD*%
D26*
%TO.C,C217*%
X203750000Y-58800000D03*
X197350000Y-58800000D03*
%TD*%
D22*
%TO.C,C237*%
X106500000Y-108134000D03*
X106500000Y-101734000D03*
%TD*%
D17*
%TO.C,C319*%
X172821999Y-110522000D03*
X173781999Y-110522000D03*
%TD*%
D19*
%TO.C,C291*%
X197658000Y-109251999D03*
X196698000Y-109251999D03*
%TD*%
D17*
%TO.C,C335*%
X156986665Y-111792000D03*
X157946665Y-111792000D03*
%TD*%
D24*
%TO.C,TP2*%
X98118000Y-85122000D03*
%TD*%
%TO.C,TP12*%
X192352000Y-102902000D03*
%TD*%
D23*
%TO.C,C376*%
X175038332Y-58204750D03*
X177988332Y-58204750D03*
%TD*%
D18*
%TO.C,C52*%
X166480285Y-87436000D03*
X166480285Y-88396000D03*
%TD*%
D24*
%TO.C,TP15*%
X211656000Y-88932000D03*
%TD*%
D19*
%TO.C,C274*%
X117648000Y-109251999D03*
X116688000Y-109251999D03*
%TD*%
%TO.C,C252*%
X87930000Y-110522000D03*
X86970000Y-110522000D03*
%TD*%
%TO.C,C264*%
X128315999Y-109252000D03*
X127355999Y-109252000D03*
%TD*%
D18*
%TO.C,C130*%
X135964000Y-89468000D03*
X135964000Y-90428000D03*
%TD*%
D19*
%TO.C,C359*%
X133816666Y-109251999D03*
X132856666Y-109251999D03*
%TD*%
D20*
%TO.C,C246*%
X95070000Y-101604001D03*
X95070000Y-100644001D03*
%TD*%
D17*
%TO.C,C225*%
X159795428Y-81058000D03*
X160755428Y-81058000D03*
%TD*%
D19*
%TO.C,C39*%
X200959999Y-77248000D03*
X199999999Y-77248000D03*
%TD*%
D18*
%TO.C,C103*%
X118184000Y-87436000D03*
X118184000Y-88396000D03*
%TD*%
D19*
%TO.C,C83*%
X96312000Y-82074000D03*
X95352000Y-82074000D03*
%TD*%
D20*
%TO.C,C309*%
X181684000Y-101604000D03*
X181684000Y-100644000D03*
%TD*%
D24*
%TO.C,TP17*%
X210386000Y-93250000D03*
%TD*%
D19*
%TO.C,C342*%
X149818666Y-109251999D03*
X148858666Y-109251999D03*
%TD*%
%TO.C,C226*%
X160755428Y-82074000D03*
X159795428Y-82074000D03*
%TD*%
%TO.C,C236*%
X103932000Y-111792000D03*
X102972000Y-111792000D03*
%TD*%
D20*
%TO.C,C229*%
X111072000Y-101604001D03*
X111072000Y-100644001D03*
%TD*%
%TO.C,C280*%
X207084000Y-101604001D03*
X207084000Y-100644001D03*
%TD*%
D19*
%TO.C,C334*%
X157946665Y-109252000D03*
X156986665Y-109252000D03*
%TD*%
D23*
%TO.C,C377*%
X207505000Y-68104000D03*
X210455000Y-68104000D03*
%TD*%
D17*
%TO.C,C223*%
X159795428Y-79788000D03*
X160755428Y-79788000D03*
%TD*%
D19*
%TO.C,C269*%
X119934000Y-110522000D03*
X118974000Y-110522000D03*
%TD*%
D17*
%TO.C,C301*%
X188823999Y-111792000D03*
X189783999Y-111792000D03*
%TD*%
D20*
%TO.C,C297*%
X191082000Y-101604001D03*
X191082000Y-100644001D03*
%TD*%
D17*
%TO.C,C126*%
X141326000Y-78518000D03*
X142286000Y-78518000D03*
%TD*%
D26*
%TO.C,C197*%
X138816666Y-58800000D03*
X132416666Y-58800000D03*
%TD*%
D19*
%TO.C,C34*%
X198419999Y-81058000D03*
X197459999Y-81058000D03*
%TD*%
D17*
%TO.C,C97*%
X111462857Y-79788000D03*
X112422857Y-79788000D03*
%TD*%
D19*
%TO.C,C306*%
X183942000Y-109252000D03*
X182982000Y-109252000D03*
%TD*%
%TO.C,C361*%
X133816666Y-107981999D03*
X132856666Y-107981999D03*
%TD*%
D17*
%TO.C,C138*%
X149127428Y-79788000D03*
X150087428Y-79788000D03*
%TD*%
D24*
%TO.C,TP1*%
X97610000Y-82582000D03*
%TD*%
D19*
%TO.C,C312*%
X176322000Y-106966000D03*
X175362000Y-106966000D03*
%TD*%
D17*
%TO.C,C70*%
X84684000Y-79788000D03*
X85644000Y-79788000D03*
%TD*%
%TO.C,C294*%
X196698000Y-106965999D03*
X197658000Y-106965999D03*
%TD*%
D18*
%TO.C,C147*%
X152147428Y-89468000D03*
X152147428Y-90428000D03*
%TD*%
D25*
%TO.C,C94*%
X106608857Y-80906000D03*
X106608857Y-87306000D03*
%TD*%
D17*
%TO.C,C129*%
X141326000Y-79788000D03*
X142286000Y-79788000D03*
%TD*%
D24*
%TO.C,TP13*%
X195400000Y-105442000D03*
%TD*%
D19*
%TO.C,C232*%
X109773999Y-109252000D03*
X108813999Y-109252000D03*
%TD*%
D17*
%TO.C,C93*%
X109176857Y-77248000D03*
X110136857Y-77248000D03*
%TD*%
D21*
%TO.C,H12*%
X116000000Y-115000000D03*
%TD*%
D19*
%TO.C,C240*%
X101646000Y-109251999D03*
X100686000Y-109251999D03*
%TD*%
D17*
%TO.C,C353*%
X140984665Y-110522000D03*
X141944665Y-110522000D03*
%TD*%
%TO.C,C63*%
X175906285Y-79788000D03*
X176866285Y-79788000D03*
%TD*%
%TO.C,C29*%
X192125475Y-79768000D03*
X193085475Y-79768000D03*
%TD*%
D19*
%TO.C,C85*%
X101754857Y-81058000D03*
X100794857Y-81058000D03*
%TD*%
D17*
%TO.C,C50*%
X165238285Y-82074000D03*
X166198285Y-82074000D03*
%TD*%
D18*
%TO.C,C96*%
X103814857Y-89468000D03*
X103814857Y-90428000D03*
%TD*%
D19*
%TO.C,C119*%
X133904000Y-81058000D03*
X132944000Y-81058000D03*
%TD*%
%TO.C,C327*%
X165654000Y-107981999D03*
X164694000Y-107981999D03*
%TD*%
%TO.C,C230*%
X112313999Y-109252000D03*
X111353999Y-109252000D03*
%TD*%
D17*
%TO.C,C296*%
X191364000Y-107982000D03*
X192324000Y-107982000D03*
%TD*%
D19*
%TO.C,C338*%
X152104666Y-111792000D03*
X151144666Y-111792000D03*
%TD*%
D18*
%TO.C,C69*%
X85926000Y-87436000D03*
X85926000Y-88396000D03*
%TD*%
D17*
%TO.C,C302*%
X188823999Y-110522000D03*
X189783999Y-110522000D03*
%TD*%
D20*
%TO.C,C256*%
X93292000Y-99572000D03*
X93292000Y-98612000D03*
%TD*%
%TO.C,C331*%
X159244666Y-101604001D03*
X159244666Y-100644001D03*
%TD*%
D25*
%TO.C,C111*%
X122756000Y-80906000D03*
X122756000Y-87306000D03*
%TD*%
D19*
%TO.C,C261*%
X128316000Y-106966000D03*
X127356000Y-106966000D03*
%TD*%
D21*
%TO.C,H8*%
X178000000Y-74500000D03*
%TD*%
D17*
%TO.C,C112*%
X125324000Y-79788000D03*
X126284000Y-79788000D03*
%TD*%
%TO.C,C33*%
X197459999Y-82074000D03*
X198419999Y-82074000D03*
%TD*%
%TO.C,C78*%
X93066000Y-79788000D03*
X94026000Y-79788000D03*
%TD*%
D19*
%TO.C,C66*%
X176866285Y-82074000D03*
X175906285Y-82074000D03*
%TD*%
%TO.C,C303*%
X183942000Y-110522000D03*
X182982000Y-110522000D03*
%TD*%
D20*
%TO.C,C307*%
X189304000Y-99572000D03*
X189304000Y-98612000D03*
%TD*%
D19*
%TO.C,C100*%
X112422857Y-82074000D03*
X111462857Y-82074000D03*
%TD*%
D20*
%TO.C,C282*%
X199464001Y-99826000D03*
X199464001Y-98866000D03*
%TD*%
%TO.C,C360*%
X133844666Y-101604000D03*
X133844666Y-100644000D03*
%TD*%
D19*
%TO.C,C315*%
X176321999Y-109252000D03*
X175361999Y-109252000D03*
%TD*%
D23*
%TO.C,C368*%
X110105000Y-58198000D03*
X113055000Y-58198000D03*
%TD*%
D19*
%TO.C,C304*%
X183942000Y-111792000D03*
X182982000Y-111792000D03*
%TD*%
D17*
%TO.C,C260*%
X84684000Y-106965999D03*
X85644000Y-106965999D03*
%TD*%
D19*
%TO.C,C349*%
X144484665Y-109252000D03*
X143524665Y-109252000D03*
%TD*%
%TO.C,C337*%
X152104666Y-110522000D03*
X151144666Y-110522000D03*
%TD*%
D17*
%TO.C,C44*%
X205841999Y-79788000D03*
X206801999Y-79788000D03*
%TD*%
D19*
%TO.C,C49*%
X209087999Y-82074000D03*
X208127999Y-82074000D03*
%TD*%
D17*
%TO.C,C140*%
X151667428Y-79788000D03*
X152627428Y-79788000D03*
%TD*%
D25*
%TO.C,C26*%
X187271475Y-80886000D03*
X187271475Y-87286000D03*
%TD*%
D17*
%TO.C,C250*%
X92811999Y-111792000D03*
X93771999Y-111792000D03*
%TD*%
D19*
%TO.C,C141*%
X152627428Y-77248000D03*
X151667428Y-77248000D03*
%TD*%
D17*
%TO.C,C121*%
X132944000Y-79788000D03*
X133904000Y-79788000D03*
%TD*%
D19*
%TO.C,C247*%
X96311999Y-109252000D03*
X95351999Y-109252000D03*
%TD*%
D17*
%TO.C,C268*%
X124815999Y-110522000D03*
X125775999Y-110522000D03*
%TD*%
D19*
%TO.C,C142*%
X152627428Y-78518000D03*
X151667428Y-78518000D03*
%TD*%
D17*
%TO.C,C106*%
X119482000Y-79788000D03*
X120442000Y-79788000D03*
%TD*%
D19*
%TO.C,C136*%
X150087428Y-81058000D03*
X149127428Y-81058000D03*
%TD*%
D17*
%TO.C,C123*%
X135484000Y-79788000D03*
X136444000Y-79788000D03*
%TD*%
D18*
%TO.C,C35*%
X198701999Y-87436000D03*
X198701999Y-88396000D03*
%TD*%
D17*
%TO.C,C87*%
X100794857Y-79788000D03*
X101754857Y-79788000D03*
%TD*%
D19*
%TO.C,C255*%
X87930000Y-109252000D03*
X86970000Y-109252000D03*
%TD*%
D17*
%TO.C,C328*%
X164694000Y-106965999D03*
X165654000Y-106965999D03*
%TD*%
D18*
%TO.C,C71*%
X93546000Y-89214000D03*
X93546000Y-90174000D03*
%TD*%
D25*
%TO.C,C43*%
X203273999Y-80906000D03*
X203273999Y-87306000D03*
%TD*%
D23*
%TO.C,C374*%
X175038332Y-64802000D03*
X177988332Y-64802000D03*
%TD*%
D17*
%TO.C,C38*%
X199999999Y-79788000D03*
X200959999Y-79788000D03*
%TD*%
%TO.C,C114*%
X127610000Y-79788000D03*
X128570000Y-79788000D03*
%TD*%
%TO.C,C311*%
X180696000Y-106965999D03*
X181656000Y-106965999D03*
%TD*%
D20*
%TO.C,C316*%
X167460001Y-99826000D03*
X167460001Y-98866000D03*
%TD*%
D19*
%TO.C,C134*%
X144572000Y-82074000D03*
X143612000Y-82074000D03*
%TD*%
D20*
%TO.C,C292*%
X197686000Y-101604000D03*
X197686000Y-100644000D03*
%TD*%
D17*
%TO.C,C42*%
X205841999Y-77248000D03*
X206801999Y-77248000D03*
%TD*%
D22*
%TO.C,C322*%
X170508000Y-108134000D03*
X170508000Y-101734000D03*
%TD*%
D17*
%TO.C,C279*%
X207366000Y-107982000D03*
X208326000Y-107982000D03*
%TD*%
%TO.C,C19*%
X181457475Y-79768000D03*
X182417475Y-79768000D03*
%TD*%
D18*
%TO.C,C20*%
X190319475Y-89194000D03*
X190319475Y-90154000D03*
%TD*%
D17*
%TO.C,C234*%
X108813999Y-110522000D03*
X109773999Y-110522000D03*
%TD*%
D19*
%TO.C,C286*%
X199944000Y-110522000D03*
X198984000Y-110522000D03*
%TD*%
%TO.C,C68*%
X85644000Y-81058000D03*
X84684000Y-81058000D03*
%TD*%
D20*
%TO.C,C239*%
X109294000Y-99572000D03*
X109294000Y-98612000D03*
%TD*%
%TO.C,C263*%
X127074000Y-101604001D03*
X127074000Y-100644001D03*
%TD*%
D19*
%TO.C,C40*%
X200959999Y-78518000D03*
X199999999Y-78518000D03*
%TD*%
D17*
%TO.C,C16*%
X181457475Y-82054000D03*
X182417475Y-82054000D03*
%TD*%
D18*
%TO.C,C81*%
X95324000Y-87436000D03*
X95324000Y-88396000D03*
%TD*%
%TO.C,C18*%
X182699475Y-87416000D03*
X182699475Y-88376000D03*
%TD*%
%TO.C,C88*%
X109656857Y-89214000D03*
X109656857Y-90174000D03*
%TD*%
D20*
%TO.C,C231*%
X103452001Y-99826000D03*
X103452001Y-98866000D03*
%TD*%
D17*
%TO.C,C284*%
X204825999Y-111792000D03*
X205785999Y-111792000D03*
%TD*%
%TO.C,C116*%
X127610000Y-81058000D03*
X128570000Y-81058000D03*
%TD*%
D20*
%TO.C,C333*%
X151624667Y-99826000D03*
X151624667Y-98866000D03*
%TD*%
D17*
%TO.C,C127*%
X141326000Y-77248000D03*
X142286000Y-77248000D03*
%TD*%
D19*
%TO.C,C125*%
X136444000Y-78518000D03*
X135484000Y-78518000D03*
%TD*%
%TO.C,C308*%
X181656000Y-109251999D03*
X180696000Y-109251999D03*
%TD*%
D17*
%TO.C,C55*%
X167778285Y-79788000D03*
X168738285Y-79788000D03*
%TD*%
D18*
%TO.C,C113*%
X119962000Y-89468000D03*
X119962000Y-90428000D03*
%TD*%
D19*
%TO.C,C57*%
X168738285Y-78518000D03*
X167778285Y-78518000D03*
%TD*%
D17*
%TO.C,C25*%
X189839475Y-77228000D03*
X190799475Y-77228000D03*
%TD*%
D18*
%TO.C,C137*%
X150369428Y-87436000D03*
X150369428Y-88396000D03*
%TD*%
D20*
%TO.C,C258*%
X85672000Y-101604000D03*
X85672000Y-100644000D03*
%TD*%
%TO.C,C326*%
X165682000Y-101604000D03*
X165682000Y-100644000D03*
%TD*%
%TO.C,C350*%
X135622667Y-99826000D03*
X135622667Y-98866000D03*
%TD*%
D19*
%TO.C,C23*%
X184957475Y-78498000D03*
X183997475Y-78498000D03*
%TD*%
D17*
%TO.C,C65*%
X175906285Y-81058000D03*
X176866285Y-81058000D03*
%TD*%
D24*
%TO.C,TP10*%
X162380000Y-45244000D03*
%TD*%
D19*
%TO.C,C244*%
X96312000Y-106966000D03*
X95352000Y-106966000D03*
%TD*%
D23*
%TO.C,C373*%
X175038332Y-68104000D03*
X177988332Y-68104000D03*
%TD*%
D19*
%TO.C,C310*%
X181656000Y-107981999D03*
X180696000Y-107981999D03*
%TD*%
D23*
%TO.C,C369*%
X142571666Y-68104000D03*
X145521666Y-68104000D03*
%TD*%
D17*
%TO.C,C101*%
X116942000Y-82074000D03*
X117902000Y-82074000D03*
%TD*%
D19*
%TO.C,C298*%
X192323999Y-109252000D03*
X191363999Y-109252000D03*
%TD*%
D20*
%TO.C,C299*%
X183462001Y-99826000D03*
X183462001Y-98866000D03*
%TD*%
D23*
%TO.C,C366*%
X110105000Y-64802000D03*
X113055000Y-64802000D03*
%TD*%
D18*
%TO.C,C79*%
X87704000Y-89468000D03*
X87704000Y-90428000D03*
%TD*%
%TO.C,C64*%
X175878285Y-87436000D03*
X175878285Y-88396000D03*
%TD*%
D17*
%TO.C,C21*%
X183997475Y-79768000D03*
X184957475Y-79768000D03*
%TD*%
D18*
%TO.C,C54*%
X174100285Y-89214000D03*
X174100285Y-90174000D03*
%TD*%
D17*
%TO.C,C36*%
X197459999Y-79788000D03*
X198419999Y-79788000D03*
%TD*%
D27*
X74750000Y-73850000D02*
X74750000Y-125000000D01*
X74750000Y-27550000D02*
X74750000Y-25250000D01*
X74750000Y-125000000D02*
X214750000Y-125000000D01*
X74750000Y-47850000D02*
X74750000Y-53550000D01*
X74750000Y-25250000D02*
X214750000Y-25250000D01*
X214750000Y-125000000D02*
X214750000Y-25250000D01*
%TO.C,J2*%
X66350000Y-54050000D02*
X66350000Y-64250000D01*
X66350000Y-67150000D02*
X66350000Y-73350000D01*
X66850000Y-53550000D02*
X66350000Y-54050000D01*
X66850000Y-64750000D02*
X66350000Y-64250000D01*
X66850000Y-66650000D02*
X66350000Y-67150000D01*
X66850000Y-73850000D02*
X66350000Y-73350000D01*
X73800000Y-64750000D02*
X66850000Y-64750000D01*
X73800000Y-66650000D02*
X66850000Y-66650000D01*
X74750000Y-53550000D02*
X66850000Y-53550000D01*
X74750000Y-73850000D02*
X66850000Y-73850000D01*
X73800000Y-64750000D02*
G75*
G02*
X73800000Y-66650000I0J-950000D01*
G01*
%TO.C,J1*%
X66350000Y-28050000D02*
X66350000Y-38250000D01*
X66350000Y-41150000D02*
X66350000Y-47350000D01*
X66850000Y-27550000D02*
X66350000Y-28050000D01*
X66850000Y-38750000D02*
X66350000Y-38250000D01*
X66850000Y-40650000D02*
X66350000Y-41150000D01*
X66850000Y-47850000D02*
X66350000Y-47350000D01*
X73800000Y-38750000D02*
X66850000Y-38750000D01*
X73800000Y-40650000D02*
X66850000Y-40650000D01*
X74750000Y-27550000D02*
X66850000Y-27550000D01*
X74750000Y-47850000D02*
X66850000Y-47850000D01*
X73800000Y-38750000D02*
G75*
G02*
X73800000Y-40650000I0J-950000D01*
G01*
%TD*%
M02*
