M48
; DRILL file {KiCad 8.0.0} date 2024-03-29T21:33:38+0100
; FORMAT={-:-/ absolute / inch / decimal}
; #@! TF.CreationDate,2024-03-29T21:33:38+01:00
; #@! TF.GenerationSoftware,Kicad,Pcbnew,8.0.0
; #@! TF.FileFunction,Plated,1,4,PTH
FMAT,2
INCH
; #@! TA.AperFunction,Plated,PTH,ViaDrill
T1C0.0059
; #@! TA.AperFunction,Plated,PTH,ComponentDrill
T2C0.0079
; #@! TA.AperFunction,Plated,PTH,ComponentDrill
T3C0.0118
; #@! TA.AperFunction,Plated,PTH,ViaDrill
T4C0.0157
; #@! TA.AperFunction,Plated,PTH,ViaDrill
T5C0.0315
; #@! TA.AperFunction,Plated,PTH,ComponentDrill
T6C0.0394
; #@! TA.AperFunction,Plated,PTH,ComponentDrill
T7C0.0402
%
G90
G05
T1
X2.9744Y-2.7244
X2.998Y-2.685
X3.0217Y-2.6457
X3.0374Y-2.9449
X3.0374Y-3.1732
X3.0374Y-3.2756
X3.0374Y-3.3228
X3.0374Y-3.4252
X3.0453Y-2.7559
X3.0453Y-2.8209
X3.0846Y-2.7717
X3.0925Y-2.8661
X3.1083Y-2.7402
X3.1083Y-3.0157
X3.1319Y-2.6929
X3.1319Y-2.8346
X3.1476Y-3.2362
X3.1476Y-3.3858
X3.1516Y-3.0157
X3.1681Y-2.6543
X3.1929Y-2.648
X3.1949Y-2.9213
X3.2343Y-2.8976
X3.2421Y-2.6535
X3.2657Y-3.2756
X3.2657Y-3.4252
X3.2815Y-2.1811
X3.2815Y-2.7874
X3.2894Y-2.6346
X3.2894Y-2.8535
X3.3287Y-3.1102
X3.3287Y-3.1496
X3.3413Y-2.6724
X3.3524Y-2.8157
X3.3839Y-2.1417
X3.3917Y-2.8976
X3.3943Y-2.8047
X3.4232Y-3.0551
X3.4232Y-3.1007
X3.4311Y-2.0709
X3.4311Y-2.9426
X3.439Y-2.8976
X3.4481Y-3.1725
X3.4705Y-2.8346
X3.4744Y-3.1594
X3.4941Y-1.8976
X3.4941Y-2.0709
X3.501Y-1.8583
X3.5209Y-2.1449
X3.5492Y-2.1417
X3.5492Y-2.2047
X3.5728Y-2.2972
X3.6043Y-2.1417
X3.6043Y-2.2972
X3.6063Y-1.8583
X3.628Y-1.8031
X3.628Y-2.1417
X3.6535Y-1.8365
X3.6673Y-2.252
X3.6673Y-2.1417
X3.6752Y-1.9055
X3.6988Y-1.9055
X3.7106Y-3.1594
X3.7146Y-2.1417
X3.7146Y-2.2756
X3.7146Y-2.8346
X3.7274Y-1.8583
X3.7439Y-3.1045
X3.75Y-3.1594
X3.7517Y-2.9429
X3.7618Y-2.8976
X3.8012Y-2.8976
X3.8169Y-2.2283
X3.8169Y-3.1654
X3.8356Y-1.8583
X3.8406Y-2.8315
X3.8642Y-2.9724
X3.8878Y-3.0315
X3.8878Y-3.1654
X3.9329Y-1.9055
X3.9331Y-1.8287
X3.9508Y-3.0
X3.9744Y-3.0709
X3.9817Y-2.8317
X4.0179Y-2.8978
X4.0573Y-2.9428
X4.0589Y-3.1024
X4.0612Y-3.1596
X4.0652Y-2.8978
X4.0966Y-2.8348
X4.1006Y-3.1596
X4.3368Y-3.1596
X4.3407Y-2.8348
X4.3762Y-3.1596
X4.3779Y-2.9431
X4.3795Y-3.1061
X4.388Y-2.8978
X4.4274Y-2.8978
X4.4547Y-3.3681
X4.4667Y-2.8317
X4.4941Y-2.9685
X4.5177Y-3.0315
X4.5728Y-3.0
X4.5807Y-3.3681
X4.5965Y-3.0709
X4.6079Y-2.8272
X4.6441Y-2.8934
X4.6673Y-1.9606
X4.6809Y-3.0945
X4.6835Y-2.9384
X4.686Y-1.9134
X4.6874Y-3.1552
X4.6913Y-2.8934
X4.6988Y-2.0394
X4.7228Y-2.8304
X4.7268Y-3.1552
X4.7333Y-1.9134
X4.7854Y-1.8976
X4.7854Y-2.0315
X4.7933Y-1.811
X4.8327Y-2.0315
X4.8514Y-1.8469
X4.872Y-1.8976
X4.8858Y-2.0295
X4.9272Y-2.0315
X4.9465Y-2.0673
X4.963Y-3.1552
X4.9669Y-2.8304
X5.0016Y-3.0983
X5.0024Y-3.1552
X5.004Y-2.9387
X5.0142Y-2.8934
X5.0417Y-2.0673
X5.0535Y-2.8934
X5.0929Y-2.8272
X5.124Y-3.0315
X5.1319Y-2.0787
X5.1319Y-2.126
X5.1319Y-2.9685
X5.1791Y-2.2264
X5.1949Y-3.0
X5.2106Y-2.252
X5.2106Y-2.9292
X5.2264Y-3.0709
X5.234Y-2.8272
X5.2579Y-2.2756
X5.2703Y-2.8934
X5.2756Y-1.9685
X5.2815Y-2.2047
X5.303Y-3.0945
X5.3096Y-2.9384
X5.3136Y-3.1552
X5.3175Y-2.8934
X5.349Y-2.8304
X5.3529Y-3.1552
X5.5335Y-2.2441
X5.5335Y-2.2835
X5.5892Y-3.1552
X5.5931Y-2.8304
X5.6236Y-3.0983
X5.6285Y-3.1552
X5.6302Y-2.9387
X5.6403Y-2.8934
X5.6797Y-2.8934
X5.7191Y-2.8272
X5.7618Y-2.9682
X5.7618Y-3.0272
X5.8248Y-3.0
X5.8484Y-2.9291
X5.8484Y-3.0666
X5.8602Y-2.8272
X5.8964Y-2.8934
X5.9329Y-3.0945
X5.9358Y-2.9384
X5.9397Y-3.1552
X5.9437Y-2.8934
X5.9752Y-2.8304
X5.9791Y-3.1552
X6.1555Y-1.588
X6.1555Y-1.638
X6.2077Y-1.1339
X6.2153Y-3.1552
X6.2193Y-2.8304
X6.2536Y-3.0983
X6.2547Y-3.1552
X6.2564Y-2.9387
X6.2618Y-1.1102
X6.2665Y-2.8934
X6.2972Y-1.1575
X6.3059Y-2.8934
X6.3287Y-1.1811
X6.3453Y-2.8272
X6.3802Y-3.0272
X6.3993Y-2.9682
X6.3996Y-1.3701
X6.439Y-1.4331
X6.4469Y-3.0
X6.4783Y-2.9292
X6.4791Y-3.0664
X6.4862Y-1.6024
X6.4864Y-2.8272
X6.5226Y-2.8934
X6.5549Y-3.0945
X6.562Y-2.9384
X6.5659Y-3.1552
X6.5699Y-2.8934
X6.5886Y-1.4724
X6.6013Y-2.8304
X6.6053Y-3.1552
X6.6201Y-1.1339
X6.628Y-1.4094
X6.6516Y-1.1102
X6.7933Y-1.5591
X6.8415Y-3.1552
X6.8454Y-2.8304
X6.8756Y-3.0983
X6.8809Y-3.1552
X6.8826Y-2.9387
X6.8927Y-2.8934
X6.9321Y-2.8934
X6.9634Y-1.6772
X6.9714Y-2.8272
X6.9744Y-3.3681
X7.0023Y-3.0272
X7.0059Y-2.9682
X7.0689Y-3.0
X7.0925Y-2.9291
X7.0961Y-3.0666
X7.0984Y-3.3681
X7.1126Y-2.8272
X7.1488Y-2.8934
X7.1848Y-3.0945
X7.1882Y-2.9384
X7.1921Y-3.1552
X7.196Y-2.8934
X7.2275Y-2.8304
X7.2315Y-3.1552
X7.2382Y-1.5591
X7.4516Y-1.6772
X7.4677Y-3.1552
X7.4716Y-2.8304
X7.5055Y-3.0983
X7.5071Y-3.1552
X7.5087Y-2.9387
X7.5189Y-2.8934
X7.5582Y-2.8934
X7.5976Y-2.8272
X7.6043Y-1.4882
X7.6308Y-2.9635
X7.6322Y-3.0272
X7.6437Y-1.4488
X7.6988Y-3.0
X7.7146Y-1.2835
X7.7146Y-2.9291
X7.7313Y-3.0666
X7.7387Y-2.8272
X7.7461Y-1.2441
X7.775Y-2.8934
X7.7972Y-1.2205
X7.8069Y-3.0945
X7.8143Y-2.9384
X7.8183Y-3.1552
X7.8222Y-2.8934
X7.8366Y-1.189
X7.8406Y-1.7244
X7.8537Y-2.8304
X7.8576Y-3.1552
X7.8733Y-1.7231
X7.8924Y-1.6332
X7.8969Y-1.2389
X7.9416Y-1.2389
X8.0125Y-1.7231
X8.0295Y-1.2283
X8.0531Y-1.748
X8.061Y-1.2047
X8.0939Y-3.1552
X8.0978Y-2.8304
X8.1276Y-3.0983
X8.1332Y-3.1552
X8.1349Y-2.9387
X8.145Y-2.8934
X8.1555Y-1.3937
X8.1844Y-2.8934
X8.1949Y-3.1339
X8.2238Y-2.8272
X8.2343Y-1.3465
X8.25Y-2.9055
X8.25Y-3.1654
X8.2815Y-3.1024
X8.3205Y-3.1413
T2
X3.1772Y-2.7407
X3.2323Y-2.7407
T3
X5.0285Y-1.7685
X5.0333Y-1.8189
X5.0333Y-1.874
X5.0837Y-1.7244
X5.0837Y-1.7638
X5.0837Y-1.8189
X5.0837Y-1.874
X5.0837Y-1.9134
X5.0925Y-2.0157
X5.1341Y-1.7638
X5.1341Y-1.8189
X5.1341Y-1.874
X5.1398Y-2.0157
T4
X3.1791Y-1.0472
X3.3602Y-3.2283
X3.3602Y-3.2992
X6.9665Y-1.0472
X7.4469Y-1.0472
T5
X3.1004Y-1.1811
X3.1004Y-1.2598
X3.1004Y-1.3386
X3.1004Y-1.4173
X3.1004Y-1.4961
X3.1004Y-1.5748
X3.1004Y-1.6535
X3.1004Y-1.7323
X3.1004Y-1.811
X3.1004Y-1.8898
X3.1004Y-1.9685
X3.1004Y-2.0472
X3.1004Y-2.126
X3.1004Y-2.2047
X3.1004Y-2.2835
X3.1791Y-1.1811
X3.1791Y-1.2598
X3.1791Y-1.3386
X3.1791Y-1.4173
X3.1791Y-1.4961
X3.1791Y-1.5748
X3.1791Y-1.6535
X3.1791Y-1.7323
X3.1791Y-1.811
X3.1791Y-1.8898
X3.1791Y-1.9685
X3.1791Y-2.0472
X3.1791Y-2.126
X3.1791Y-2.2047
X3.1791Y-2.2835
X3.3366Y-1.6535
X3.3366Y-1.7323
X3.4154Y-1.6535
X3.4154Y-1.7323
X3.5256Y-3.2992
X3.5256Y-3.3858
X3.5256Y-3.4803
X3.5413Y-2.5984
X3.5413Y-2.7323
X3.5965Y-2.685
X3.5965Y-2.7874
X3.5965Y-3.3465
X3.5965Y-3.4331
X3.6516Y-2.5984
X3.6516Y-2.7323
X3.6594Y-3.2992
X3.6594Y-3.3858
X3.6594Y-3.4803
X3.7776Y-1.6772
X3.8878Y-1.6772
X3.8878Y-1.7559
X4.0453Y-1.6772
X4.0453Y-1.7559
X4.124Y-1.2677
X4.1555Y-3.2992
X4.1555Y-3.3858
X4.1555Y-3.4803
X4.1634Y-2.5984
X4.1634Y-2.7323
X4.2185Y-2.685
X4.2185Y-2.7874
X4.2264Y-3.3465
X4.2264Y-3.4331
X4.2736Y-1.7008
X4.2736Y-1.8346
X4.2736Y-2.5984
X4.2736Y-2.7323
X4.2815Y-1.2677
X4.2894Y-3.2992
X4.2894Y-3.3858
X4.2894Y-3.4803
X4.2923Y-1.4331
X4.3366Y-2.0079
X4.3711Y-1.5118
X4.3996Y-2.0768
X4.439Y-1.2677
X4.4498Y-1.4331
X4.4783Y-1.7559
X4.4783Y-2.0079
X4.5285Y-1.5118
X4.5492Y-2.0768
X4.5886Y-2.0079
X4.5965Y-1.2677
X4.6073Y-1.4331
X4.6388Y-1.748
X4.686Y-1.5118
X4.7539Y-1.2677
X4.7648Y-1.4331
X4.7854Y-3.2992
X4.7854Y-3.3858
X4.7854Y-3.4803
X4.7884Y-1.748
X4.7933Y-2.5906
X4.7933Y-2.7244
X4.8484Y-2.6772
X4.8484Y-2.7795
X4.8514Y-1.5118
X4.8563Y-3.3465
X4.8563Y-3.4331
X4.9035Y-2.5906
X4.9035Y-2.7244
X4.9114Y-1.2677
X4.9144Y-1.748
X4.9193Y-3.2992
X4.9193Y-3.3858
X4.9193Y-3.4803
X4.9459Y-1.4331
X5.0374Y-1.6142
X5.0689Y-1.2677
X5.0768Y-1.5512
X5.1161Y-1.6142
X5.2264Y-1.2677
X5.2736Y-1.7559
X5.3839Y-1.2677
X5.3839Y-1.6929
X5.4075Y-3.2992
X5.4075Y-3.3858
X5.4075Y-3.4803
X5.4154Y-2.5906
X5.4154Y-2.7244
X5.4498Y-1.8976
X5.4498Y-1.9764
X5.4498Y-2.0551
X5.4498Y-2.1417
X5.4705Y-2.6772
X5.4705Y-2.7795
X5.4783Y-1.4094
X5.4783Y-3.3465
X5.4783Y-3.4331
X5.5207Y-1.8976
X5.5256Y-2.5906
X5.5256Y-2.7244
X5.5285Y-2.1969
X5.5394Y-1.2677
X5.5413Y-3.2992
X5.5413Y-3.3858
X5.5413Y-3.4803
X5.6437Y-1.4331
X5.6437Y-1.5315
X5.6437Y-1.6299
X5.6437Y-1.7283
X5.6437Y-1.8268
X5.6437Y-2.3386
X5.6988Y-1.2677
X5.7421Y-2.3386
X5.8406Y-2.3386
X5.8563Y-1.2677
X5.9104Y-1.4331
X5.9104Y-1.5315
X5.9104Y-1.6299
X5.9104Y-1.7283
X5.9104Y-1.8268
X5.939Y-2.3386
X6.0374Y-3.2992
X6.0374Y-3.3858
X6.0374Y-3.4803
X6.0453Y-2.5906
X6.0453Y-2.7244
X6.1004Y-1.8898
X6.1004Y-2.6772
X6.1004Y-2.7795
X6.1083Y-3.3465
X6.1083Y-3.4331
X6.1555Y-2.5906
X6.1555Y-2.7244
X6.1713Y-3.2992
X6.1713Y-3.3858
X6.1713Y-3.4803
X6.1949Y-2.1811
X6.1978Y-1.9921
X6.1978Y-2.0787
X6.2657Y-2.0394
X6.2657Y-2.1339
X6.502Y-2.0472
X6.6594Y-2.0472
X6.6594Y-3.2992
X6.6594Y-3.3858
X6.6594Y-3.4803
X6.6752Y-2.5906
X6.6752Y-2.7244
X6.7303Y-2.6772
X6.7303Y-2.7795
X6.7303Y-3.3465
X6.7303Y-3.4331
X6.7854Y-2.5906
X6.7854Y-2.7244
X6.7933Y-3.2992
X6.7933Y-3.3858
X6.7933Y-3.4803
X6.8169Y-2.0472
X6.9744Y-2.0472
X7.1319Y-2.0472
X7.2894Y-2.0472
X7.2894Y-3.2992
X7.2894Y-3.3858
X7.2894Y-3.4803
X7.2972Y-2.5906
X7.2972Y-2.7244
X7.3524Y-2.6772
X7.3524Y-2.7795
X7.3602Y-3.3465
X7.3602Y-3.4331
X7.4075Y-2.5906
X7.4075Y-2.7244
X7.4232Y-3.2992
X7.4232Y-3.3858
X7.4232Y-3.4803
X7.4469Y-2.0472
X7.6043Y-2.0472
X7.7618Y-2.0472
X7.9114Y-3.2992
X7.9114Y-3.3858
X7.9114Y-3.4803
X7.9193Y-2.0472
X7.9193Y-2.5906
X7.9193Y-2.7244
X7.9744Y-2.6772
X7.9744Y-2.7795
X7.9823Y-3.3465
X7.9823Y-3.4331
X8.0295Y-2.5906
X8.0295Y-2.7244
X8.0453Y-3.2992
X8.0453Y-3.3858
X8.0453Y-3.4803
X8.0768Y-2.0472
X8.1713Y-2.1654
X8.1713Y-2.3228
X8.1713Y-2.4803
X8.1713Y-2.6378
X8.2343Y-2.0472
X8.3051Y-2.1654
X8.3051Y-2.3228
X8.3051Y-2.4803
X8.3051Y-2.6378
T6
X3.9232Y-1.2559
X3.9232Y-1.3583
X3.9232Y-1.4685
X3.9232Y-1.5709
X4.0256Y-1.2559
X4.0256Y-1.3583
X4.0256Y-1.4685
X4.0256Y-1.5709
T7
X6.765Y-1.3622
X6.865Y-1.3622
X6.965Y-1.3622
X7.065Y-1.3622
X7.2492Y-1.3622
X7.3492Y-1.3622
X7.4492Y-1.3622
X7.5492Y-1.3622
M30
