%TF.GenerationSoftware,KiCad,Pcbnew,8.0.0*%
%TF.CreationDate,2024-03-29T21:32:46+01:00*%
%TF.ProjectId,EKO_Miner_BM1366,454b4f5f-4d69-46e6-9572-5f424d313336,rev?*%
%TF.SameCoordinates,Original*%
%TF.FileFunction,Soldermask,Bot*%
%TF.FilePolarity,Negative*%
%FSLAX46Y46*%
G04 Gerber Fmt 4.6, Leading zero omitted, Abs format (unit mm)*
G04 Created by KiCad (PCBNEW 8.0.0) date 2024-03-29 21:32:46*
%MOMM*%
%LPD*%
G01*
G04 APERTURE LIST*
G04 Aperture macros list*
%AMRoundRect*
0 Rectangle with rounded corners*
0 $1 Rounding radius*
0 $2 $3 $4 $5 $6 $7 $8 $9 X,Y pos of 4 corners*
0 Add a 4 corners polygon primitive as box body*
4,1,4,$2,$3,$4,$5,$6,$7,$8,$9,$2,$3,0*
0 Add four circle primitives for the rounded corners*
1,1,$1+$1,$2,$3*
1,1,$1+$1,$4,$5*
1,1,$1+$1,$6,$7*
1,1,$1+$1,$8,$9*
0 Add four rect primitives between the rounded corners*
20,1,$1+$1,$2,$3,$4,$5,0*
20,1,$1+$1,$4,$5,$6,$7,0*
20,1,$1+$1,$6,$7,$8,$9,0*
20,1,$1+$1,$8,$9,$2,$3,0*%
G04 Aperture macros list end*
%ADD10C,1.100000*%
%ADD11R,1.730000X2.030000*%
%ADD12O,1.730000X2.030000*%
%ADD13C,3.200000*%
%ADD14R,3.200000X0.700000*%
%ADD15R,4.300000X0.700000*%
%ADD16C,0.500000*%
%ADD17C,1.000000*%
%ADD18RoundRect,0.140000X-0.140000X-0.170000X0.140000X-0.170000X0.140000X0.170000X-0.140000X0.170000X0*%
%ADD19RoundRect,0.140000X0.140000X0.170000X-0.140000X0.170000X-0.140000X-0.170000X0.140000X-0.170000X0*%
%ADD20RoundRect,0.140000X-0.170000X0.140000X-0.170000X-0.140000X0.170000X-0.140000X0.170000X0.140000X0*%
%ADD21RoundRect,0.140000X0.170000X-0.140000X0.170000X0.140000X-0.170000X0.140000X-0.170000X-0.140000X0*%
%ADD22RoundRect,0.250000X-1.025000X0.875000X-1.025000X-0.875000X1.025000X-0.875000X1.025000X0.875000X0*%
%ADD23RoundRect,0.135000X0.185000X-0.135000X0.185000X0.135000X-0.185000X0.135000X-0.185000X-0.135000X0*%
%TA.AperFunction,Profile*%
%ADD24C,0.100000*%
%TD*%
G04 APERTURE END LIST*
D10*
%TO.C,J3*%
X186670000Y-36760000D03*
D11*
X191750000Y-34600000D03*
D12*
X189210000Y-34600000D03*
X186670000Y-34600000D03*
X184130000Y-34600000D03*
%TD*%
D13*
%TO.C,H4*%
X195000000Y-95000000D03*
%TD*%
%TO.C,H2*%
X100000000Y-60000000D03*
%TD*%
D14*
%TO.C,J2*%
X70350000Y-54200000D03*
D15*
X69800000Y-55200000D03*
X69800000Y-56200000D03*
X69800000Y-57200000D03*
X69800000Y-58200000D03*
X69800000Y-59200000D03*
X69800000Y-60200000D03*
X69800000Y-61200000D03*
X69800000Y-62200000D03*
X69800000Y-63200000D03*
X69800000Y-64200000D03*
X69800000Y-67200000D03*
X69800000Y-68200000D03*
X69800000Y-69200000D03*
X69800000Y-70200000D03*
X69800000Y-71200000D03*
X69800000Y-72200000D03*
X69800000Y-73200000D03*
%TD*%
D14*
%TO.C,J5*%
X70350000Y-28200000D03*
D15*
X69800000Y-29200000D03*
X69800000Y-30200000D03*
X69800000Y-31200000D03*
X69800000Y-32200000D03*
X69800000Y-33200000D03*
X69800000Y-34200000D03*
X69800000Y-35200000D03*
X69800000Y-36200000D03*
X69800000Y-37200000D03*
X69800000Y-38200000D03*
X69800000Y-41200000D03*
X69800000Y-42200000D03*
X69800000Y-43200000D03*
X69800000Y-44200000D03*
X69800000Y-45200000D03*
X69800000Y-46200000D03*
X69800000Y-47200000D03*
%TD*%
D13*
%TO.C,H3*%
X100000000Y-95000000D03*
%TD*%
D10*
%TO.C,J4*%
X174370000Y-36760000D03*
D11*
X179450000Y-34600000D03*
D12*
X176910000Y-34600000D03*
X174370000Y-34600000D03*
X171830000Y-34600000D03*
%TD*%
D13*
%TO.C,H1*%
X195000000Y-60000000D03*
%TD*%
D16*
%TO.C,U5*%
X130405000Y-47600000D03*
X130405000Y-46200000D03*
X130405000Y-44800000D03*
X129125000Y-48600000D03*
X129125000Y-47600000D03*
X129125000Y-46200000D03*
X129125000Y-44800000D03*
X129125000Y-43800000D03*
X127845000Y-47600000D03*
X127845000Y-46200000D03*
X127725000Y-44920000D03*
%TD*%
D17*
%TO.C,TP25*%
X195550000Y-76200000D03*
%TD*%
D18*
%TO.C,C110*%
X140984571Y-70092000D03*
X141944571Y-70092000D03*
%TD*%
D19*
%TO.C,C170*%
X89430000Y-70200000D03*
X88470000Y-70200000D03*
%TD*%
D20*
%TO.C,C71*%
X198584000Y-80912000D03*
X198584000Y-81872000D03*
%TD*%
D21*
%TO.C,C14*%
X139750000Y-57880000D03*
X139750000Y-56920000D03*
%TD*%
D20*
%TO.C,C111*%
X141964571Y-80912000D03*
X141964571Y-81872000D03*
%TD*%
D22*
%TO.C,C92*%
X186750000Y-73192000D03*
X186750000Y-79592000D03*
%TD*%
D20*
%TO.C,C72*%
X205584000Y-80912000D03*
X205584000Y-81872000D03*
%TD*%
D18*
%TO.C,C94*%
X188699142Y-70092000D03*
X189659142Y-70092000D03*
%TD*%
D20*
%TO.C,C132*%
X120059714Y-80912000D03*
X120059714Y-81872000D03*
%TD*%
D19*
%TO.C,C112*%
X153049428Y-70092000D03*
X152089428Y-70092000D03*
%TD*%
D22*
%TO.C,C131*%
X123130572Y-73192000D03*
X123130572Y-79592000D03*
%TD*%
D21*
%TO.C,C129*%
X133864571Y-72772000D03*
X133864571Y-71812000D03*
%TD*%
D17*
%TO.C,TP11*%
X146350000Y-75200000D03*
%TD*%
D20*
%TO.C,C127*%
X127059714Y-80912000D03*
X127059714Y-81872000D03*
%TD*%
D17*
%TO.C,TP36*%
X98750000Y-80400000D03*
%TD*%
%TO.C,TP12*%
X148550000Y-74400000D03*
%TD*%
D22*
%TO.C,C76*%
X170845143Y-73192000D03*
X170845143Y-79592000D03*
%TD*%
D20*
%TO.C,C124*%
X119059714Y-80912000D03*
X119059714Y-81872000D03*
%TD*%
D17*
%TO.C,TP5*%
X130350000Y-75400000D03*
%TD*%
%TO.C,TP90*%
X98750000Y-77000000D03*
%TD*%
D20*
%TO.C,C116*%
X157869428Y-80912000D03*
X157869428Y-81872000D03*
%TD*%
D21*
%TO.C,C79*%
X166774285Y-72772000D03*
X166774285Y-71812000D03*
%TD*%
D17*
%TO.C,TP9*%
X130150000Y-76800000D03*
%TD*%
%TO.C,TP74*%
X115950000Y-74500000D03*
%TD*%
%TO.C,TP13*%
X148550000Y-78000000D03*
%TD*%
D18*
%TO.C,C61*%
X204854000Y-72642000D03*
X205814000Y-72642000D03*
%TD*%
D20*
%TO.C,C85*%
X167774285Y-80912000D03*
X167774285Y-81872000D03*
%TD*%
D17*
%TO.C,TP30*%
X195950000Y-74400000D03*
%TD*%
%TO.C,TP29*%
X211350000Y-79800000D03*
%TD*%
D20*
%TO.C,C62*%
X199584000Y-80912000D03*
X199584000Y-81872000D03*
%TD*%
D17*
%TO.C,TP16*%
X164550000Y-74400000D03*
%TD*%
D18*
%TO.C,C160*%
X104174857Y-72755000D03*
X105134857Y-72755000D03*
%TD*%
D21*
%TO.C,C130*%
X117959714Y-72772000D03*
X117959714Y-71812000D03*
%TD*%
D20*
%TO.C,C88*%
X182679142Y-80912000D03*
X182679142Y-81872000D03*
%TD*%
D17*
%TO.C,TP23*%
X180150000Y-74400000D03*
%TD*%
D21*
%TO.C,C113*%
X150869428Y-72772000D03*
X150869428Y-71812000D03*
%TD*%
D17*
%TO.C,TP34*%
X193750000Y-75000000D03*
%TD*%
%TO.C,TP81*%
X114750000Y-77000000D03*
%TD*%
D21*
%TO.C,C166*%
X103154857Y-72885000D03*
X103154857Y-71925000D03*
%TD*%
%TO.C,C173*%
X86150000Y-72880000D03*
X86150000Y-71920000D03*
%TD*%
D18*
%TO.C,C171*%
X88470000Y-71400000D03*
X89430000Y-71400000D03*
%TD*%
%TO.C,C45*%
X204604000Y-68492000D03*
X205564000Y-68492000D03*
%TD*%
D17*
%TO.C,TP85*%
X113950000Y-75400000D03*
%TD*%
D18*
%TO.C,C35*%
X140984571Y-68492000D03*
X141944571Y-68492000D03*
%TD*%
%TO.C,C158*%
X109424857Y-72755000D03*
X110384857Y-72755000D03*
%TD*%
%TO.C,C32*%
X93270000Y-68600000D03*
X94230000Y-68600000D03*
%TD*%
D17*
%TO.C,TP21*%
X180350000Y-78000000D03*
%TD*%
D18*
%TO.C,C152*%
X93270000Y-71400000D03*
X94230000Y-71400000D03*
%TD*%
D21*
%TO.C,C55*%
X197484000Y-72772000D03*
X197484000Y-71812000D03*
%TD*%
D19*
%TO.C,C38*%
X153049428Y-68492000D03*
X152089428Y-68492000D03*
%TD*%
D18*
%TO.C,C114*%
X156889428Y-70092000D03*
X157849428Y-70092000D03*
%TD*%
D20*
%TO.C,C115*%
X150869428Y-80912000D03*
X150869428Y-81872000D03*
%TD*%
D17*
%TO.C,TP41*%
X96950000Y-80400000D03*
%TD*%
%TO.C,TP26*%
X196150000Y-78000000D03*
%TD*%
D20*
%TO.C,C117*%
X160169428Y-71812000D03*
X160169428Y-72772000D03*
%TD*%
D21*
%TO.C,C96*%
X182679142Y-72772000D03*
X182679142Y-71812000D03*
%TD*%
D20*
%TO.C,C125*%
X128359714Y-71812000D03*
X128359714Y-72772000D03*
%TD*%
D19*
%TO.C,C42*%
X184859142Y-68492000D03*
X183899142Y-68492000D03*
%TD*%
D18*
%TO.C,C118*%
X141234571Y-72642000D03*
X142194571Y-72642000D03*
%TD*%
D17*
%TO.C,TP7*%
X132750000Y-78000000D03*
%TD*%
D22*
%TO.C,C153*%
X91320858Y-73300000D03*
X91320858Y-79700000D03*
%TD*%
D20*
%TO.C,C91*%
X183679142Y-80912000D03*
X183679142Y-81872000D03*
%TD*%
D17*
%TO.C,TP20*%
X177750000Y-75000000D03*
%TD*%
D20*
%TO.C,C86*%
X174774285Y-80912000D03*
X174774285Y-81872000D03*
%TD*%
D19*
%TO.C,C67*%
X200764000Y-70092000D03*
X199804000Y-70092000D03*
%TD*%
%TO.C,C40*%
X137144571Y-68492000D03*
X136184571Y-68492000D03*
%TD*%
D20*
%TO.C,C148*%
X110154857Y-81025000D03*
X110154857Y-81985000D03*
%TD*%
D17*
%TO.C,TP93*%
X99950000Y-74400000D03*
%TD*%
D18*
%TO.C,C123*%
X120079714Y-72642000D03*
X121039714Y-72642000D03*
%TD*%
D20*
%TO.C,C119*%
X159169428Y-71812000D03*
X159169428Y-72772000D03*
%TD*%
D19*
%TO.C,C155*%
X105334857Y-70205000D03*
X104374857Y-70205000D03*
%TD*%
D17*
%TO.C,TP6*%
X132350000Y-74400000D03*
%TD*%
D20*
%TO.C,C81*%
X176074285Y-71812000D03*
X176074285Y-72772000D03*
%TD*%
%TO.C,C66*%
X190679142Y-80912000D03*
X190679142Y-81872000D03*
%TD*%
D17*
%TO.C,TP100*%
X100950000Y-78000000D03*
%TD*%
D20*
%TO.C,C157*%
X111454857Y-71925000D03*
X111454857Y-72885000D03*
%TD*%
D18*
%TO.C,C128*%
X125079714Y-70092000D03*
X126039714Y-70092000D03*
%TD*%
D20*
%TO.C,C99*%
X144264571Y-71812000D03*
X144264571Y-72772000D03*
%TD*%
%TO.C,C56*%
X207884000Y-71812000D03*
X207884000Y-72772000D03*
%TD*%
D22*
%TO.C,C159*%
X107225715Y-73305000D03*
X107225715Y-79705000D03*
%TD*%
D17*
%TO.C,TP79*%
X116750000Y-78000000D03*
%TD*%
D20*
%TO.C,C87*%
X166774285Y-80912000D03*
X166774285Y-81872000D03*
%TD*%
%TO.C,C100*%
X158869428Y-80912000D03*
X158869428Y-81872000D03*
%TD*%
%TO.C,C163*%
X95250000Y-81020000D03*
X95250000Y-81980000D03*
%TD*%
D22*
%TO.C,C57*%
X202654858Y-73192000D03*
X202654858Y-79592000D03*
%TD*%
D17*
%TO.C,TP31*%
X209550000Y-80400000D03*
%TD*%
D18*
%TO.C,C165*%
X109174857Y-70205000D03*
X110134857Y-70205000D03*
%TD*%
%TO.C,C77*%
X172794285Y-70092000D03*
X173754285Y-70092000D03*
%TD*%
D20*
%TO.C,C58*%
X191979142Y-71812000D03*
X191979142Y-72772000D03*
%TD*%
D17*
%TO.C,TP18*%
X163750000Y-76200000D03*
%TD*%
D18*
%TO.C,C80*%
X167794285Y-72642000D03*
X168754285Y-72642000D03*
%TD*%
%TO.C,C101*%
X151889428Y-72642000D03*
X152849428Y-72642000D03*
%TD*%
%TO.C,C34*%
X109174857Y-68605000D03*
X110134857Y-68605000D03*
%TD*%
D20*
%TO.C,C126*%
X127359714Y-71812000D03*
X127359714Y-72772000D03*
%TD*%
%TO.C,C145*%
X104154857Y-81025000D03*
X104154857Y-81985000D03*
%TD*%
D17*
%TO.C,TP33*%
X209550000Y-73800000D03*
%TD*%
D18*
%TO.C,C98*%
X188949142Y-72642000D03*
X189909142Y-72642000D03*
%TD*%
%TO.C,C97*%
X183699142Y-72642000D03*
X184659142Y-72642000D03*
%TD*%
D20*
%TO.C,C95*%
X173774285Y-80912000D03*
X173774285Y-81872000D03*
%TD*%
D19*
%TO.C,C36*%
X121239714Y-68492000D03*
X120279714Y-68492000D03*
%TD*%
D17*
%TO.C,TP19*%
X146350000Y-77000000D03*
%TD*%
%TO.C,TP4*%
X116150000Y-76200000D03*
%TD*%
D20*
%TO.C,C90*%
X189679142Y-80912000D03*
X189679142Y-81872000D03*
%TD*%
D23*
%TO.C,R7*%
X141550000Y-57110000D03*
X141550000Y-56090000D03*
%TD*%
D20*
%TO.C,C169*%
X88250000Y-81020000D03*
X88250000Y-81980000D03*
%TD*%
D21*
%TO.C,C89*%
X165674285Y-72772000D03*
X165674285Y-71812000D03*
%TD*%
D17*
%TO.C,TP15*%
X162350000Y-75000000D03*
%TD*%
D19*
%TO.C,C43*%
X168954285Y-68492000D03*
X167994285Y-68492000D03*
%TD*%
D20*
%TO.C,C102*%
X143264571Y-71812000D03*
X143264571Y-72772000D03*
%TD*%
D18*
%TO.C,C121*%
X125329714Y-72642000D03*
X126289714Y-72642000D03*
%TD*%
D21*
%TO.C,C69*%
X198584000Y-72772000D03*
X198584000Y-71812000D03*
%TD*%
D18*
%TO.C,C39*%
X156889428Y-68492000D03*
X157849428Y-68492000D03*
%TD*%
D17*
%TO.C,TP10*%
X162150000Y-76800000D03*
%TD*%
%TO.C,TP28*%
X193750000Y-77000000D03*
%TD*%
%TO.C,TP24*%
X179550000Y-76200000D03*
%TD*%
D22*
%TO.C,C103*%
X154940286Y-73192000D03*
X154940286Y-79592000D03*
%TD*%
D20*
%TO.C,C68*%
X206584000Y-80912000D03*
X206584000Y-81872000D03*
%TD*%
D19*
%TO.C,C46*%
X200764000Y-68492000D03*
X199804000Y-68492000D03*
%TD*%
D18*
%TO.C,C104*%
X157139428Y-72642000D03*
X158099428Y-72642000D03*
%TD*%
D19*
%TO.C,C83*%
X168954285Y-70092000D03*
X167994285Y-70092000D03*
%TD*%
D21*
%TO.C,C168*%
X87250000Y-72880000D03*
X87250000Y-71920000D03*
%TD*%
D20*
%TO.C,C122*%
X135964571Y-80912000D03*
X135964571Y-81872000D03*
%TD*%
D17*
%TO.C,TP22*%
X177750000Y-77000000D03*
%TD*%
D20*
%TO.C,C134*%
X126059714Y-80912000D03*
X126059714Y-81872000D03*
%TD*%
D18*
%TO.C,C82*%
X173044285Y-72642000D03*
X174004285Y-72642000D03*
%TD*%
%TO.C,C149*%
X93270000Y-70200000D03*
X94230000Y-70200000D03*
%TD*%
D20*
%TO.C,C167*%
X87250000Y-81020000D03*
X87250000Y-81980000D03*
%TD*%
D18*
%TO.C,C135*%
X135984571Y-72642000D03*
X136944571Y-72642000D03*
%TD*%
D20*
%TO.C,C150*%
X111154857Y-81025000D03*
X111154857Y-81985000D03*
%TD*%
D19*
%TO.C,C31*%
X105334857Y-68605000D03*
X104374857Y-68605000D03*
%TD*%
%TO.C,C136*%
X121239714Y-70092000D03*
X120279714Y-70092000D03*
%TD*%
D20*
%TO.C,C151*%
X112454857Y-71925000D03*
X112454857Y-72885000D03*
%TD*%
%TO.C,C106*%
X142964571Y-80912000D03*
X142964571Y-81872000D03*
%TD*%
%TO.C,C70*%
X190979142Y-71812000D03*
X190979142Y-72772000D03*
%TD*%
%TO.C,C138*%
X134964571Y-80912000D03*
X134964571Y-81872000D03*
%TD*%
%TO.C,C161*%
X96550000Y-71920000D03*
X96550000Y-72880000D03*
%TD*%
%TO.C,C154*%
X94250000Y-81020000D03*
X94250000Y-81980000D03*
%TD*%
D17*
%TO.C,TP8*%
X131950000Y-76200000D03*
%TD*%
%TO.C,TP101*%
X100350000Y-76200000D03*
%TD*%
D18*
%TO.C,C37*%
X125079714Y-68492000D03*
X126039714Y-68492000D03*
%TD*%
%TO.C,C64*%
X204604000Y-70092000D03*
X205564000Y-70092000D03*
%TD*%
D20*
%TO.C,C156*%
X103154857Y-81025000D03*
X103154857Y-81985000D03*
%TD*%
D21*
%TO.C,C140*%
X119059714Y-72772000D03*
X119059714Y-71812000D03*
%TD*%
D22*
%TO.C,C141*%
X139035429Y-73192000D03*
X139035429Y-79592000D03*
%TD*%
D20*
%TO.C,C108*%
X151869428Y-80912000D03*
X151869428Y-81872000D03*
%TD*%
D21*
%TO.C,C75*%
X181579142Y-72772000D03*
X181579142Y-71812000D03*
%TD*%
D19*
%TO.C,C142*%
X137144571Y-70092000D03*
X136184571Y-70092000D03*
%TD*%
D21*
%TO.C,C109*%
X149769428Y-72772000D03*
X149769428Y-71812000D03*
%TD*%
D18*
%TO.C,C44*%
X172794285Y-68492000D03*
X173754285Y-68492000D03*
%TD*%
D17*
%TO.C,TP17*%
X164550000Y-78000000D03*
%TD*%
D21*
%TO.C,C162*%
X102054857Y-72885000D03*
X102054857Y-71925000D03*
%TD*%
D20*
%TO.C,C73*%
X175074285Y-71812000D03*
X175074285Y-72772000D03*
%TD*%
D17*
%TO.C,TP103*%
X98150000Y-75400000D03*
%TD*%
D19*
%TO.C,C93*%
X184859142Y-70092000D03*
X183899142Y-70092000D03*
%TD*%
D20*
%TO.C,C164*%
X95550000Y-71920000D03*
X95550000Y-72880000D03*
%TD*%
%TO.C,C60*%
X206884000Y-71812000D03*
X206884000Y-72772000D03*
%TD*%
D18*
%TO.C,C54*%
X199604000Y-72642000D03*
X200564000Y-72642000D03*
%TD*%
D17*
%TO.C,TP32*%
X208150000Y-79600000D03*
%TD*%
D18*
%TO.C,C41*%
X188699142Y-68492000D03*
X189659142Y-68492000D03*
%TD*%
D17*
%TO.C,TP14*%
X147950000Y-76200000D03*
%TD*%
D19*
%TO.C,C33*%
X89430000Y-68600000D03*
X88470000Y-68600000D03*
%TD*%
D21*
%TO.C,C139*%
X134964571Y-72772000D03*
X134964571Y-71812000D03*
%TD*%
D24*
X74750000Y-73850000D02*
X74750000Y-125000000D01*
X74750000Y-125000000D02*
X214750000Y-125000000D01*
X74750000Y-27550000D02*
X74750000Y-25250000D01*
X74750000Y-47850000D02*
X74750000Y-53550000D01*
X74750000Y-25250000D02*
X214750000Y-25250000D01*
X214750000Y-125000000D02*
X214750000Y-25250000D01*
%TO.C,J2*%
X66350000Y-54050000D02*
X66350000Y-64250000D01*
X66350000Y-67150000D02*
X66350000Y-73350000D01*
X66850000Y-53550000D02*
X66350000Y-54050000D01*
X66850000Y-64750000D02*
X66350000Y-64250000D01*
X66850000Y-66650000D02*
X66350000Y-67150000D01*
X66850000Y-73850000D02*
X66350000Y-73350000D01*
X73800000Y-64750000D02*
X66850000Y-64750000D01*
X73800000Y-66650000D02*
X66850000Y-66650000D01*
X74750000Y-53550000D02*
X66850000Y-53550000D01*
X74750000Y-73850000D02*
X66850000Y-73850000D01*
X73800000Y-64750000D02*
G75*
G02*
X73800000Y-66650000I0J-950000D01*
G01*
%TO.C,J5*%
X66350000Y-28050000D02*
X66350000Y-38250000D01*
X66350000Y-41150000D02*
X66350000Y-47350000D01*
X66850000Y-27550000D02*
X66350000Y-28050000D01*
X66850000Y-38750000D02*
X66350000Y-38250000D01*
X66850000Y-40650000D02*
X66350000Y-41150000D01*
X66850000Y-47850000D02*
X66350000Y-47350000D01*
X73800000Y-38750000D02*
X66850000Y-38750000D01*
X73800000Y-40650000D02*
X66850000Y-40650000D01*
X74750000Y-27550000D02*
X66850000Y-27550000D01*
X74750000Y-47850000D02*
X66850000Y-47850000D01*
X73800000Y-38750000D02*
G75*
G02*
X73800000Y-40650000I0J-950000D01*
G01*
%TD*%
M02*
