%TF.GenerationSoftware,KiCad,Pcbnew,8.0.0*%
%TF.CreationDate,2024-03-29T21:32:46+01:00*%
%TF.ProjectId,EKO_Miner_BM1366,454b4f5f-4d69-46e6-9572-5f424d313336,rev?*%
%TF.SameCoordinates,Original*%
%TF.FileFunction,Copper,L2,Inr*%
%TF.FilePolarity,Positive*%
%FSLAX46Y46*%
G04 Gerber Fmt 4.6, Leading zero omitted, Abs format (unit mm)*
G04 Created by KiCad (PCBNEW 8.0.0) date 2024-03-29 21:32:46*
%MOMM*%
%LPD*%
G01*
G04 APERTURE LIST*
%ADD10C,0.300000*%
%TA.AperFunction,ComponentPad*%
%ADD11R,1.730000X2.030000*%
%TD*%
%TA.AperFunction,ComponentPad*%
%ADD12O,1.730000X2.030000*%
%TD*%
%TA.AperFunction,ComponentPad*%
%ADD13C,1.300000*%
%TD*%
%TA.AperFunction,ComponentPad*%
%ADD14C,0.600000*%
%TD*%
%TA.AperFunction,ComponentPad*%
%ADD15C,0.500000*%
%TD*%
%TA.AperFunction,ComponentPad*%
%ADD16C,0.400000*%
%TD*%
%TA.AperFunction,ViaPad*%
%ADD17C,0.400000*%
%TD*%
%TA.AperFunction,ViaPad*%
%ADD18C,1.000000*%
%TD*%
%TA.AperFunction,ViaPad*%
%ADD19C,0.700000*%
%TD*%
%TA.AperFunction,Conductor*%
%ADD20C,0.200000*%
%TD*%
%TA.AperFunction,Conductor*%
%ADD21C,0.250000*%
%TD*%
%TA.AperFunction,Conductor*%
%ADD22C,0.400000*%
%TD*%
%TA.AperFunction,Conductor*%
%ADD23C,0.500000*%
%TD*%
%TA.AperFunction,Profile*%
%ADD24C,0.100000*%
%TD*%
G04 APERTURE END LIST*
D10*
G36*
X79806892Y-123917495D02*
G01*
X78247868Y-123917495D01*
X78247868Y-123630091D01*
X78414535Y-123630091D01*
X78436932Y-123684163D01*
X78478318Y-123725549D01*
X78509992Y-123738668D01*
X78532389Y-123747946D01*
X78561653Y-123750828D01*
X79519489Y-123747946D01*
X79573561Y-123725548D01*
X79614945Y-123684164D01*
X79637343Y-123630092D01*
X79637343Y-123571564D01*
X79614945Y-123517492D01*
X79573561Y-123476108D01*
X79519489Y-123453710D01*
X79490225Y-123450828D01*
X78920893Y-123452541D01*
X79506290Y-122864420D01*
X79510762Y-122862185D01*
X79525974Y-122844645D01*
X79543517Y-122827021D01*
X79545580Y-122822039D01*
X79549110Y-122817970D01*
X79561098Y-122791120D01*
X79629955Y-122576499D01*
X79637343Y-122558664D01*
X79638080Y-122551172D01*
X79639047Y-122548161D01*
X79638766Y-122544211D01*
X79640225Y-122529400D01*
X79638190Y-122407873D01*
X79639047Y-122405303D01*
X79637869Y-122388738D01*
X79637343Y-122357278D01*
X79635279Y-122352297D01*
X79634898Y-122346923D01*
X79624389Y-122319459D01*
X79550378Y-122176916D01*
X79543517Y-122160349D01*
X79538780Y-122154577D01*
X79537295Y-122151717D01*
X79534302Y-122149121D01*
X79524862Y-122137619D01*
X79449712Y-122065722D01*
X79439336Y-122053758D01*
X79433110Y-122049839D01*
X79430703Y-122047536D01*
X79427043Y-122046020D01*
X79414450Y-122038093D01*
X79289922Y-121978184D01*
X79287846Y-121976108D01*
X79271728Y-121969431D01*
X79244129Y-121956154D01*
X79238751Y-121955771D01*
X79233774Y-121953710D01*
X79204510Y-121950828D01*
X78870077Y-121953322D01*
X78866129Y-121952006D01*
X78844966Y-121953509D01*
X78818104Y-121953710D01*
X78813126Y-121955771D01*
X78807749Y-121956154D01*
X78780286Y-121966664D01*
X78637743Y-122040673D01*
X78621174Y-122047536D01*
X78615402Y-122052272D01*
X78612542Y-122053758D01*
X78609946Y-122056750D01*
X78598444Y-122066191D01*
X78508361Y-122160350D01*
X78485964Y-122214422D01*
X78485964Y-122272948D01*
X78508361Y-122327020D01*
X78549747Y-122368406D01*
X78603819Y-122390803D01*
X78662345Y-122390803D01*
X78716417Y-122368406D01*
X78739148Y-122349751D01*
X78789496Y-122297124D01*
X78879120Y-122250591D01*
X79165414Y-122248455D01*
X79255264Y-122291681D01*
X79293928Y-122328671D01*
X79340766Y-122418882D01*
X79342125Y-122500036D01*
X79290970Y-122659479D01*
X78436932Y-123517493D01*
X78414535Y-123571565D01*
X78414535Y-123630091D01*
X78247868Y-123630091D01*
X78247868Y-121784161D01*
X79806892Y-121784161D01*
X79806892Y-123917495D01*
G37*
D11*
%TO.N,GND*%
%TO.C,J3*%
X191750000Y-34600000D03*
D12*
%TO.N,+12V_PWR*%
X189210000Y-34600000D03*
%TO.N,/FAN/FAN1_TACH*%
X186670000Y-34600000D03*
%TO.N,/FAN/FAN1_PWM*%
X184130000Y-34600000D03*
%TD*%
D11*
%TO.N,GND*%
%TO.C,J4*%
X179450000Y-34600000D03*
D12*
%TO.N,+12V_PWR*%
X176910000Y-34600000D03*
%TO.N,/FAN/FAN2_TACH*%
X174370000Y-34600000D03*
%TO.N,/FAN/FAN2_PWM*%
X171830000Y-34600000D03*
%TD*%
D13*
%TO.N,GNDPWR*%
%TO.C,NT2*%
X102250000Y-39900000D03*
%TO.N,GND*%
X99650000Y-39900000D03*
%TO.N,GNDPWR*%
X102250000Y-37300000D03*
%TO.N,GND*%
X99650000Y-37300000D03*
%TD*%
D14*
%TO.N,GNDA*%
%TO.C,T1*%
X129350000Y-51200000D03*
%TO.N,GNDPWR*%
X130550000Y-51200000D03*
%TD*%
D15*
%TO.N,GNDPWR*%
%TO.C,U5*%
X130405000Y-47600000D03*
X130405000Y-46200000D03*
X130405000Y-44800000D03*
X129125000Y-48600000D03*
X129125000Y-47600000D03*
X129125000Y-46200000D03*
X129125000Y-44800000D03*
X129125000Y-43800000D03*
X127845000Y-47600000D03*
X127845000Y-46200000D03*
X127725000Y-44920000D03*
%TD*%
D13*
%TO.N,GNDPWR*%
%TO.C,NT1*%
X102250000Y-34500000D03*
%TO.N,GND*%
X99650000Y-34500000D03*
%TO.N,GNDPWR*%
X102250000Y-31900000D03*
%TO.N,GND*%
X99650000Y-31900000D03*
%TD*%
D16*
%TO.N,N/C*%
%TO.C,U4*%
X82100000Y-69615000D03*
X80700000Y-69615000D03*
%TD*%
D17*
%TO.N,GND*%
X82150000Y-73600008D03*
D18*
X80750000Y-32000000D03*
X80750000Y-52000000D03*
D17*
X94675000Y-47200000D03*
X79950000Y-86000000D03*
X79950000Y-82200000D03*
X80050000Y-76600000D03*
X199150000Y-43800000D03*
X82950000Y-87000000D03*
X201717496Y-31467496D03*
D18*
X78750000Y-40000000D03*
D17*
X156350000Y-40335000D03*
D18*
X78750000Y-34000000D03*
X78750000Y-44000000D03*
D17*
X89430000Y-54480000D03*
X204550000Y-44400000D03*
X162550000Y-34800000D03*
D18*
X80750000Y-56000000D03*
D17*
X91600000Y-47200000D03*
X99899996Y-46450004D03*
D18*
X78750000Y-30000000D03*
D17*
X88925000Y-47200000D03*
X84550000Y-79000000D03*
X83550000Y-72480000D03*
X200467493Y-41482486D03*
X82350000Y-67400000D03*
X189270000Y-42600000D03*
X97425000Y-47200000D03*
X156350000Y-41605000D03*
D18*
X78750000Y-48000000D03*
X80750000Y-46000000D03*
X78750000Y-54000000D03*
D17*
X116349996Y-85549996D03*
D18*
X78750000Y-50000000D03*
D17*
X78950000Y-69600000D03*
X180299996Y-85549996D03*
X83350000Y-70800000D03*
X84550000Y-80000000D03*
X82950000Y-83200000D03*
X99894996Y-48400004D03*
D18*
X84750000Y-44000000D03*
X86750000Y-42000000D03*
D17*
X85950000Y-54400000D03*
X176870000Y-42600000D03*
X207150000Y-35400000D03*
X78950000Y-76600000D03*
D18*
X80750000Y-36000000D03*
D17*
X83550000Y-66920000D03*
D18*
X78750000Y-58000000D03*
X80750000Y-42000000D03*
X78750000Y-38000000D03*
D17*
X164750000Y-40700000D03*
X168350000Y-35800000D03*
%TO.N,+1.8V*%
X110154857Y-80255000D03*
X94250000Y-80250000D03*
X173774285Y-80142000D03*
X210350000Y-78800000D03*
D19*
X85350000Y-82000000D03*
D17*
X120059714Y-80141992D03*
X189679142Y-80142000D03*
X141964571Y-80142000D03*
X104154857Y-80254992D03*
X167774285Y-80141992D03*
X183679142Y-80141992D03*
X85150000Y-71520000D03*
X151869428Y-80141992D03*
X126059714Y-80142000D03*
X88250000Y-80249992D03*
X135964571Y-80141992D03*
X199584000Y-80141992D03*
X205584000Y-80142000D03*
X157869428Y-80142000D03*
D18*
%TO.N,+12V_PWR*%
X80750000Y-34000000D03*
X80750000Y-38000000D03*
X80750000Y-50000000D03*
D19*
X80750000Y-26600000D03*
D18*
X80750000Y-40000000D03*
X78750000Y-42000000D03*
X78750000Y-56000000D03*
X78750000Y-52000000D03*
X78750000Y-36000000D03*
D19*
X176950000Y-26600000D03*
D18*
X80750000Y-54000000D03*
X80750000Y-58000000D03*
X80750000Y-44000000D03*
X80750000Y-30000000D03*
X78750000Y-32000000D03*
X78750000Y-46000000D03*
X84750000Y-42000000D03*
X86750000Y-44000000D03*
D19*
X189150000Y-26600000D03*
D18*
X80750000Y-48000000D03*
D17*
%TO.N,/ASICs_BM1366/BM1366-0/VDD3_0*%
X86150000Y-73600000D03*
%TO.N,Net-(U5-GOSNS)*%
X140550000Y-57000000D03*
X130350000Y-52800000D03*
%TO.N,/ASICs_BM1366/BM1366-0/VDD2_0*%
X87350000Y-73600000D03*
%TO.N,+0.8V*%
X127059714Y-80142010D03*
X182679142Y-80142000D03*
X190679142Y-80142010D03*
X111154857Y-80255010D03*
X150869428Y-80142000D03*
X198584000Y-80142000D03*
X174774285Y-80142010D03*
X158869428Y-80142010D03*
X166774285Y-80142000D03*
X119059714Y-80142000D03*
X95250000Y-80250010D03*
D19*
X85350000Y-83800000D03*
D17*
X103154857Y-80255000D03*
X134964571Y-80142000D03*
X206584000Y-80142010D03*
X142964571Y-80142010D03*
X87581587Y-80581587D03*
%TO.N,/ASICs_BM1366/BM1366-0/VDD1_0*%
X88150000Y-72000000D03*
D18*
%TO.N,GNDPWR*%
X124950000Y-83800000D03*
D17*
X95095405Y-78854595D03*
X127040547Y-78695595D03*
X161169428Y-71811998D03*
D18*
X89550000Y-83800000D03*
X113750000Y-51000000D03*
D17*
X118895142Y-78600000D03*
D18*
X138425000Y-52200000D03*
X108950000Y-86000000D03*
X139150000Y-85000000D03*
X137350000Y-83800000D03*
X181150000Y-52000000D03*
X207550000Y-63000000D03*
X123225000Y-38400000D03*
D17*
X101134858Y-71924999D03*
D18*
X121550000Y-88400000D03*
D17*
X121550000Y-48200000D03*
X97550000Y-71919998D03*
D18*
X128750000Y-32200000D03*
X170950000Y-87200000D03*
D17*
X111240547Y-78895595D03*
X158840547Y-78695595D03*
X174640547Y-78695595D03*
X198484000Y-74635002D03*
D18*
X105550000Y-86000000D03*
X159150000Y-54200000D03*
X156750000Y-88400000D03*
X205150000Y-52000000D03*
X155150000Y-85000000D03*
X159150000Y-51800000D03*
X189150000Y-52000000D03*
X121550000Y-83800000D03*
X185150000Y-83800000D03*
X207550000Y-55000000D03*
D17*
X206440547Y-78695595D03*
D18*
X186950000Y-85000000D03*
D17*
X177074285Y-71811998D03*
D18*
X128950000Y-39400000D03*
X123350000Y-85000000D03*
D17*
X206627158Y-74642000D03*
X190722142Y-74642000D03*
D18*
X177150000Y-52000000D03*
X140225000Y-48200000D03*
X121025000Y-36400000D03*
D17*
X196564001Y-71811999D03*
X86950000Y-78759000D03*
D18*
X156750000Y-86000000D03*
X91350000Y-87200000D03*
X125625000Y-36400000D03*
X186950000Y-87200000D03*
X210950000Y-67000000D03*
X169150000Y-86000000D03*
X105550000Y-83800000D03*
X115550000Y-52750000D03*
D17*
X158912428Y-74642000D03*
D18*
X124950000Y-88400000D03*
X153350000Y-86000000D03*
X140425000Y-55800000D03*
X116550000Y-51000000D03*
D17*
X190640547Y-78695595D03*
X103054857Y-74748002D03*
X118959714Y-74635002D03*
D18*
X193150000Y-52000000D03*
X119025000Y-38400000D03*
X185150000Y-52000000D03*
X105550000Y-88400000D03*
D17*
X150695142Y-78600000D03*
D18*
X111025000Y-38400000D03*
X123350000Y-87200000D03*
X116750000Y-32200000D03*
X204350000Y-83800000D03*
X109025000Y-36400000D03*
D17*
X86214397Y-71240000D03*
D18*
X92950000Y-88400000D03*
D17*
X198295142Y-78600000D03*
D18*
X140750000Y-86000000D03*
X107350000Y-85000000D03*
X170950000Y-85000000D03*
X139150000Y-87200000D03*
X111750000Y-52750000D03*
X188550000Y-86000000D03*
X200950000Y-86000000D03*
X112750000Y-32200000D03*
X188550000Y-88400000D03*
X165150000Y-52000000D03*
X120750000Y-32200000D03*
X172550000Y-88400000D03*
X115025000Y-38400000D03*
X89550000Y-86000000D03*
D17*
X182495142Y-78600000D03*
D18*
X188550000Y-83800000D03*
D17*
X103095142Y-78800000D03*
D18*
X136750000Y-32200000D03*
X210950000Y-63000000D03*
X210950000Y-55000000D03*
X169150000Y-83800000D03*
X121550000Y-86000000D03*
X107350000Y-87200000D03*
D17*
X192979142Y-71811998D03*
X174817614Y-74642000D03*
X164754286Y-71811999D03*
D18*
X200950000Y-88400000D03*
X129950000Y-41000000D03*
X169150000Y-52000000D03*
X154950000Y-48000000D03*
X155150000Y-87200000D03*
X144750000Y-32200000D03*
X137350000Y-88400000D03*
X185150000Y-86000000D03*
D17*
X134864571Y-74635002D03*
X134695142Y-78600000D03*
D18*
X140750000Y-88400000D03*
X110150000Y-51000000D03*
D17*
X166674285Y-74635002D03*
D18*
X124750000Y-32200000D03*
D17*
X142840547Y-78695595D03*
X145264571Y-71811998D03*
X208884000Y-71811998D03*
D18*
X156750000Y-83800000D03*
D17*
X166495142Y-78600000D03*
D18*
X138425000Y-50200000D03*
X204350000Y-88400000D03*
D17*
X95293000Y-74750000D03*
D18*
X153350000Y-83800000D03*
X200950000Y-83800000D03*
X104750000Y-32200000D03*
X89550000Y-88400000D03*
X201150000Y-52000000D03*
X204350000Y-86000000D03*
X148750000Y-32200000D03*
D17*
X150769428Y-74635002D03*
D18*
X172550000Y-86000000D03*
D17*
X127102714Y-74642000D03*
D18*
X157350000Y-55400000D03*
X137350000Y-86000000D03*
X169150000Y-88400000D03*
X113025000Y-36400000D03*
X209150000Y-52000000D03*
X124950000Y-86000000D03*
X108950000Y-83800000D03*
D17*
X111198309Y-74755000D03*
X129359714Y-71811998D03*
D18*
X140700000Y-32200000D03*
X117025000Y-36400000D03*
X138425000Y-48200000D03*
D17*
X87150000Y-74743002D03*
D18*
X91350000Y-85000000D03*
X210950000Y-59000000D03*
X173150000Y-52000000D03*
D17*
X143008121Y-74642000D03*
D18*
X185150000Y-88400000D03*
D17*
X117039715Y-71811999D03*
D18*
X197150000Y-52000000D03*
X157425000Y-50600000D03*
X132750000Y-32200000D03*
D17*
X132944572Y-71811999D03*
D18*
X207550000Y-59000000D03*
X157425000Y-52800000D03*
D17*
X180659143Y-71811999D03*
X182579142Y-74635002D03*
X148849429Y-71811999D03*
D18*
X172550000Y-83800000D03*
X127950000Y-41000000D03*
X153350000Y-88400000D03*
X138425000Y-54400000D03*
X92950000Y-86000000D03*
X108750000Y-32200000D03*
X92950000Y-83800000D03*
X108950000Y-88400000D03*
X202750000Y-85000000D03*
D17*
X113454857Y-71924998D03*
D18*
X207550000Y-67000000D03*
X140750000Y-83800000D03*
X202750000Y-87200000D03*
%TO.N,VPWR_ASIC*%
X138950000Y-68000000D03*
X121750000Y-65800000D03*
X140350000Y-65800000D03*
X89950000Y-66000000D03*
X105750000Y-66000000D03*
X123150000Y-70600000D03*
X156350000Y-69200000D03*
X143350000Y-38900000D03*
X202550000Y-70600000D03*
X92750000Y-69400000D03*
X154950000Y-68000000D03*
X143350000Y-46400000D03*
X153550000Y-69200000D03*
X150125000Y-43900000D03*
X203950000Y-69200000D03*
X91350000Y-70800000D03*
X121750000Y-69200000D03*
X145850000Y-59400000D03*
X185350000Y-65800000D03*
X148350000Y-59400000D03*
X137550000Y-65800000D03*
X140350000Y-69200000D03*
X185350000Y-69200000D03*
X108550000Y-69400000D03*
X169550000Y-65800000D03*
X150850000Y-59400000D03*
X124550000Y-69200000D03*
X201150000Y-65800000D03*
X172350000Y-65800000D03*
X123150000Y-68000000D03*
X156350000Y-65800000D03*
X169550000Y-69200000D03*
X150125000Y-46400000D03*
X172350000Y-69200000D03*
X91350000Y-68200000D03*
X143350000Y-43900000D03*
X203950000Y-65800000D03*
X137550000Y-69200000D03*
X150125000Y-41400000D03*
X170950000Y-68000000D03*
X154950000Y-70600000D03*
X107150000Y-70800000D03*
X170950000Y-70600000D03*
X150125000Y-38900000D03*
X89950000Y-69400000D03*
X138950000Y-70600000D03*
X150125000Y-36400000D03*
X188150000Y-65800000D03*
X186750000Y-70600000D03*
X202550000Y-68000000D03*
X186750000Y-68000000D03*
X92750000Y-66000000D03*
X124550000Y-65800000D03*
X201150000Y-69200000D03*
X188150000Y-69200000D03*
X143350000Y-41400000D03*
X153550000Y-65800000D03*
X108550000Y-66000000D03*
X107150000Y-68200000D03*
X143350000Y-36400000D03*
X143350000Y-59400000D03*
X105750000Y-69400000D03*
D17*
%TO.N,+3.3V_DB*%
X209150000Y-34200000D03*
X172550000Y-39600000D03*
X88750000Y-52600000D03*
X87150000Y-52600000D03*
X200582505Y-31467495D03*
X183850000Y-39600000D03*
X84870000Y-67880000D03*
X167350000Y-37400000D03*
X163550000Y-36400000D03*
%TO.N,Net-(U5-BP1V5)*%
X122750000Y-51600000D03*
X124100001Y-51549998D03*
X134000000Y-50000000D03*
X125640000Y-52510002D03*
X118550001Y-49799999D03*
D18*
%TO.N,/PSU/SW*%
X139150000Y-35800000D03*
X136750000Y-43000000D03*
X133950000Y-44600000D03*
%TO.N,Net-(C10-Pad1)*%
X102750000Y-44600000D03*
X108550000Y-43200000D03*
X95950000Y-42600000D03*
X102750000Y-42600000D03*
X98750000Y-42600000D03*
X113750000Y-44600000D03*
X124825000Y-44400000D03*
X121625000Y-44400000D03*
X98750000Y-44600000D03*
X117825000Y-44400000D03*
X108550000Y-46600000D03*
D17*
%TO.N,Net-(U5-VOSNS)*%
X140550000Y-58000000D03*
X130350000Y-54000000D03*
%TO.N,/ASICs_BM1366/BM1366-0/VDD1_1*%
X94350000Y-72000000D03*
%TO.N,/ASICs_BM1366/BM1366-0/VDD2_1*%
X95550022Y-73600000D03*
%TO.N,/ASICs_BM1366/BM1366-0/VDD3_1*%
X96550000Y-73600000D03*
%TO.N,/ASICs_BM1366/BM1366-1/VDD3_0*%
X102054857Y-73605000D03*
%TO.N,/ASICs_BM1366/BM1366-1/VDD2_0*%
X103254857Y-73605000D03*
%TO.N,/ASICs_BM1366/BM1366-1/VDD1_0*%
X104054857Y-72005000D03*
%TO.N,/ASICs_BM1366/BM1366-1/VDD1_1*%
X110254857Y-72005000D03*
%TO.N,/ASICs_BM1366/BM1366-1/VDD2_1*%
X111454879Y-73605000D03*
%TO.N,/ASICs_BM1366/BM1366-1/VDD3_1*%
X112454857Y-73605000D03*
%TO.N,/ASICs_BM1366/BM1366-2/VDD3_0*%
X117959714Y-73492000D03*
%TO.N,/ASICs_BM1366/BM1366-2/VDD2_0*%
X119159714Y-73492000D03*
%TO.N,/ASICs_BM1366/BM1366-2/VDD1_0*%
X119959714Y-71892000D03*
%TO.N,/ASICs_BM1366/BM1366-2/VDD1_1*%
X126159714Y-71892000D03*
%TO.N,/ASICs_BM1366/BM1366-2/VDD2_1*%
X127359736Y-73492000D03*
%TO.N,/ASICs_BM1366/BM1366-2/VDD3_1*%
X128359714Y-73492000D03*
%TO.N,/ASICs_BM1366/BM1366-3/VDD3_0*%
X133864571Y-73492000D03*
%TO.N,/ASICs_BM1366/BM1366-3/VDD2_0*%
X135064571Y-73492000D03*
%TO.N,/ASICs_BM1366/BM1366-3/VDD1_0*%
X135864571Y-71892000D03*
%TO.N,/ASICs_BM1366/BM1366-3/VDD1_1*%
X142064571Y-71892000D03*
%TO.N,/ASICs_BM1366/BM1366-3/VDD2_1*%
X143264593Y-73492000D03*
%TO.N,/ASICs_BM1366/BM1366-3/VDD3_1*%
X144264571Y-73492000D03*
%TO.N,/ASICs_BM1366/BM1366-4/VDD3_0*%
X149769428Y-73492000D03*
%TO.N,/ASICs_BM1366/BM1366-4/VDD2_0*%
X150969428Y-73492000D03*
%TO.N,/ASICs_BM1366/BM1366-4/VDD1_0*%
X151769428Y-71892000D03*
%TO.N,/ASICs_BM1366/BM1366-4/VDD1_1*%
X157969428Y-71892000D03*
%TO.N,/ASICs_BM1366/BM1366-4/VDD2_1*%
X159169450Y-73492000D03*
%TO.N,/ASICs_BM1366/BM1366-4/VDD3_1*%
X160169428Y-73492000D03*
%TO.N,/ASICs_BM1366/BM1366-5/VDD3_0*%
X165674285Y-73492000D03*
%TO.N,/ASICs_BM1366/BM1366-5/VDD2_0*%
X166874285Y-73492000D03*
%TO.N,/ASICs_BM1366/BM1366-5/VDD1_0*%
X167674285Y-71892000D03*
%TO.N,/ASICs_BM1366/BM1366-5/VDD1_1*%
X173874285Y-71892000D03*
%TO.N,/ASICs_BM1366/BM1366-5/VDD2_1*%
X175074307Y-73492000D03*
%TO.N,/ASICs_BM1366/BM1366-5/VDD3_1*%
X176074285Y-73492000D03*
%TO.N,/ASICs_BM1366/BM1366-6/VDD3_0*%
X181579142Y-73492000D03*
%TO.N,/ASICs_BM1366/BM1366-6/VDD2_0*%
X182779142Y-73492000D03*
%TO.N,/ASICs_BM1366/BM1366-6/VDD1_0*%
X183579142Y-71892000D03*
%TO.N,/ASICs_BM1366/BM1366-6/VDD1_1*%
X189779142Y-71892000D03*
%TO.N,/ASICs_BM1366/BM1366-6/VDD2_1*%
X190979164Y-73492000D03*
%TO.N,/ASICs_BM1366/BM1366-6/VDD3_1*%
X191979142Y-73492000D03*
%TO.N,/ASICs_BM1366/BM1366-7/VDD3_0*%
X197484000Y-73492000D03*
%TO.N,/ASICs_BM1366/BM1366-7/VDD2_0*%
X198684000Y-73492000D03*
%TO.N,/ASICs_BM1366/BM1366-7/VDD1_0*%
X199484000Y-71892000D03*
%TO.N,/ASICs_BM1366/BM1366-7/VDD1_1*%
X205684000Y-71892000D03*
%TO.N,/ASICs_BM1366/BM1366-7/VDD2_1*%
X206884022Y-73492000D03*
%TO.N,/ASICs_BM1366/BM1366-7/VDD3_1*%
X207884000Y-73492000D03*
%TO.N,/DB_SCL*%
X93950000Y-48400000D03*
X78350000Y-70400000D03*
X198050000Y-31000000D03*
X94350000Y-54400000D03*
X160750000Y-30000000D03*
X94350000Y-57800000D03*
X133550000Y-57800016D03*
%TO.N,/DB_SDA*%
X93350000Y-48400000D03*
X93150000Y-57200000D03*
X159950000Y-29400000D03*
X93150011Y-54399989D03*
X77350000Y-70000000D03*
X132350000Y-57200000D03*
X199050000Y-30200000D03*
%TO.N,/DB_RX*%
X77350000Y-71650000D03*
X80470169Y-67420365D03*
%TO.N,/ID0*%
X203950000Y-31200000D03*
X92150000Y-54400000D03*
X168150000Y-28800000D03*
X78550004Y-72800000D03*
X91550000Y-58349992D03*
X157674994Y-28800000D03*
X92800000Y-46645968D03*
%TO.N,/DB_TX*%
X81100000Y-67259692D03*
%TO.N,/ID1*%
X79550000Y-72000000D03*
X91550000Y-54400000D03*
X159050009Y-28200000D03*
X204750000Y-30600000D03*
X168950000Y-28200000D03*
X90750000Y-58350000D03*
X92150000Y-45800000D03*
%TO.N,Net-(U17-TH2)*%
X203517507Y-43767507D03*
X113149996Y-85549996D03*
%TO.N,Net-(U17-TH1)*%
X177149996Y-85549996D03*
X199982510Y-43767490D03*
%TO.N,/ASICs_BM1366/INV_CLKO*%
X98750000Y-80400000D03*
%TO.N,/ASICs_BM1366/PIN_MODE*%
X96950008Y-80400008D03*
%TO.N,/FAN/FAN1_PWM*%
X193150000Y-37800000D03*
%TO.N,GNDA*%
X119350000Y-51800000D03*
X123225000Y-46910000D03*
X119025000Y-48599998D03*
X120225000Y-48599998D03*
X128060000Y-52509998D03*
X121550000Y-51600000D03*
X125150000Y-51600016D03*
%TO.N,/ASICs_BM1366/BO1*%
X98150000Y-75500000D03*
%TO.N,/ASICs_BM1366/CLKO1*%
X98750000Y-77000000D03*
%TO.N,/ASICs_BM1366/CO1*%
X100950000Y-78000000D03*
%TO.N,/ASICs_BM1366/RI1*%
X100350000Y-76200000D03*
%TO.N,/ASICs_BM1366/BO2*%
X114150000Y-75400000D03*
%TO.N,/ASICs_BM1366/CLKO2*%
X114750000Y-77000000D03*
%TO.N,/ASICs_BM1366/CO2*%
X116750000Y-78000000D03*
%TO.N,/ASICs_BM1366/RI02*%
X116150000Y-76200000D03*
%TO.N,/ASICs_BM1366/BO3*%
X130350000Y-75400000D03*
%TO.N,/ASICs_BM1366/CLKO3*%
X130150000Y-77000000D03*
%TO.N,/ASICs_BM1366/CO3*%
X132751000Y-78000000D03*
%TO.N,/ASICs_BM1366/RSTO3*%
X132350000Y-74402000D03*
%TO.N,/ASICs_BM1366/RI3*%
X131950000Y-76200000D03*
%TO.N,/ASICs_BM1366/BO4*%
X146350000Y-75392000D03*
%TO.N,/ASICs_BM1366/CLKO4*%
X146350000Y-76892000D03*
%TO.N,/ASICs_BM1366/CO4*%
X148550000Y-77892000D03*
%TO.N,/ASICs_BM1366/RSTO4*%
X148550000Y-74400000D03*
%TO.N,/ASICs_BM1366/RI4*%
X147950000Y-76200000D03*
%TO.N,/ASICs_BM1366/BO5*%
X162542010Y-75392010D03*
%TO.N,/ASICs_BM1366/CLKO5*%
X162058003Y-76891997D03*
%TO.N,/ASICs_BM1366/CO5*%
X164569438Y-77887010D03*
%TO.N,/ASICs_BM1366/RSTO5*%
X164550000Y-74402000D03*
%TO.N,/ASICs_BM1366/RI5*%
X163750000Y-76200000D03*
%TO.N,/ASICs_BM1366/BO6*%
X177950000Y-75392000D03*
%TO.N,/ASICs_BM1366/CLKO6*%
X177857998Y-76892000D03*
%TO.N,/ASICs_BM1366/CO6*%
X180242002Y-77892000D03*
%TO.N,/ASICs_BM1366/RSTO6*%
X180150000Y-74400000D03*
%TO.N,/ASICs_BM1366/RI6*%
X179549998Y-76200002D03*
%TO.N,/ASICs_BM1366/BO7*%
X193822010Y-75272010D03*
%TO.N,/ASICs_BM1366/CLKO7*%
X193857984Y-76892000D03*
%TO.N,/ASICs_BM1366/CO7*%
X196374153Y-77891986D03*
%TO.N,/ASICs_BM1366/RSTO7*%
X195950000Y-74400000D03*
%TO.N,/ASICs_BM1366/RI7*%
X195549998Y-76199998D03*
%TO.N,/ASICs_BM1366/CI*%
X81150000Y-74200018D03*
X86950000Y-77600000D03*
%TO.N,/DB_PGOOD*%
X96950000Y-56600000D03*
X76150000Y-68200000D03*
X131550000Y-56550000D03*
%TO.N,/FAN/FAN2_PWM*%
X196750000Y-31600000D03*
%TO.N,/ASICs_BM1366/BO8*%
X211339609Y-79787867D03*
%TO.N,/ASICs_BM1366/CLKO8*%
X209550000Y-80400000D03*
%TO.N,+5V_PSU*%
X77150000Y-80600000D03*
X77150000Y-83200012D03*
X76750000Y-67200000D03*
X77150000Y-84400000D03*
X77150000Y-87000000D03*
%TO.N,/ASICs_BM1366/CO8*%
X208150002Y-79600000D03*
%TO.N,/ASICs_BM1366/RSTO8*%
X209550000Y-73800000D03*
%TO.N,/FAN/FAN1_TACH*%
X194150000Y-36800000D03*
%TO.N,/FAN/FAN2_TACH*%
X195950000Y-32600000D03*
%TO.N,+5V_STDBY*%
X121750001Y-46000001D03*
X123750000Y-48200000D03*
X83350000Y-55400000D03*
%TO.N,/DB_ALERT_oc*%
X90150000Y-56000000D03*
X90150000Y-54400000D03*
X75550000Y-69200000D03*
X134150002Y-56000000D03*
X88750000Y-48200000D03*
%TO.N,Net-(D2-A)*%
X77149997Y-74800003D03*
X79550000Y-68400000D03*
%TD*%
D20*
%TO.N,GND*%
X208584314Y-92000000D02*
X213550000Y-87034314D01*
X208150000Y-46000000D02*
X201350000Y-46000000D01*
X181715686Y-91000000D02*
X208150000Y-91000000D01*
X208150000Y-91000000D02*
X212550000Y-86600000D01*
X178950000Y-88234314D02*
X181715686Y-91000000D01*
X208784314Y-44400000D02*
X204550000Y-44400000D01*
X180299996Y-85549996D02*
X178950000Y-86899992D01*
X213550000Y-49165686D02*
X208784314Y-44400000D01*
X118515686Y-92000000D02*
X208584314Y-92000000D01*
X212550000Y-50400000D02*
X208150000Y-46000000D01*
X178950000Y-86899992D02*
X178950000Y-88234314D01*
X114950000Y-88434314D02*
X118515686Y-92000000D01*
X213550000Y-87034314D02*
X213550000Y-49165686D01*
X116349996Y-85549996D02*
X114950000Y-86949992D01*
X201350000Y-46000000D02*
X199150000Y-43800000D01*
X212550000Y-86600000D02*
X212550000Y-50400000D01*
X114950000Y-86949992D02*
X114950000Y-88434314D01*
D21*
%TO.N,+1.8V*%
X85150000Y-74400000D02*
X85150000Y-71520002D01*
D20*
X210350000Y-78800000D02*
X207550000Y-78800000D01*
X207150000Y-79200000D02*
X205750000Y-79200000D01*
D21*
X88350000Y-77600000D02*
X85150000Y-74400000D01*
X88350000Y-79600000D02*
X88350000Y-77600000D01*
D22*
X85350000Y-82000000D02*
X85350000Y-80800000D01*
X86550000Y-79600000D02*
X88350000Y-79600000D01*
X85350000Y-80800000D02*
X86550000Y-79600000D01*
D20*
X207550000Y-78800000D02*
X207150000Y-79200000D01*
D23*
%TO.N,+12V_PWR*%
X189150000Y-26600000D02*
X80750000Y-26600000D01*
D20*
%TO.N,Net-(U5-GOSNS)*%
X137949994Y-56999994D02*
X133750000Y-52800000D01*
X133750000Y-52800000D02*
X130350000Y-52800000D01*
X140550000Y-56999994D02*
X137949994Y-56999994D01*
D22*
%TO.N,+0.8V*%
X86950000Y-82200000D02*
X86950000Y-81800000D01*
X85350000Y-83800000D02*
X86950000Y-82200000D01*
D20*
%TO.N,Net-(U5-BP1V5)*%
X134000000Y-50000000D02*
X128150002Y-50000000D01*
X128150002Y-50000000D02*
X125640000Y-52510002D01*
%TO.N,Net-(U5-VOSNS)*%
X137750000Y-58000000D02*
X133750000Y-54000000D01*
X140549990Y-58000000D02*
X137750000Y-58000000D01*
X133750000Y-54000000D02*
X130350000Y-54000000D01*
D21*
%TO.N,/DB_SCL*%
X198050000Y-31000000D02*
X197900000Y-30850000D01*
D20*
X197050000Y-30000000D02*
X98350000Y-30000000D01*
X78350000Y-70400000D02*
X78350000Y-67400000D01*
X78350000Y-67400000D02*
X87949984Y-57800016D01*
X197900000Y-30850000D02*
X197050000Y-30000000D01*
X94350000Y-48800000D02*
X94350000Y-54400000D01*
X98350000Y-30000000D02*
X93950000Y-34400000D01*
X93950000Y-48400000D02*
X94350000Y-48800000D01*
X87949984Y-57800016D02*
X133550000Y-57800016D01*
X93950000Y-34400000D02*
X93950000Y-48400000D01*
%TO.N,/DB_SDA*%
X199050000Y-30200000D02*
X198250000Y-29400000D01*
X77950000Y-67200000D02*
X87950000Y-57200000D01*
X93150000Y-57200000D02*
X87950000Y-57200000D01*
X98150000Y-29400000D02*
X93350000Y-34200000D01*
X77950000Y-69400000D02*
X77950000Y-67200000D01*
X93350000Y-48400000D02*
X93350000Y-54200000D01*
X93150000Y-57200000D02*
X132350000Y-57200000D01*
X93350000Y-54200000D02*
X93150011Y-54399989D01*
X77350000Y-70000000D02*
X77950000Y-69400000D01*
X198250000Y-29400000D02*
X98150000Y-29400000D01*
X93350000Y-34200000D02*
X93350000Y-48400000D01*
%TO.N,/ID0*%
X92800000Y-46645968D02*
X92800000Y-49550000D01*
X97950000Y-28800000D02*
X92800000Y-33950000D01*
X157675000Y-28800000D02*
X97950000Y-28800000D01*
X85950000Y-68800000D02*
X85950000Y-62000000D01*
X82837793Y-70200000D02*
X84550000Y-70200000D01*
X90899992Y-59000000D02*
X91550000Y-58349992D01*
X84550000Y-70200000D02*
X85950000Y-68800000D01*
X92800000Y-49550000D02*
X92150000Y-50200000D01*
X201550000Y-28800000D02*
X203950000Y-31200000D01*
X80237793Y-72800000D02*
X82837793Y-70200000D01*
X85950000Y-62000000D02*
X88950000Y-59000000D01*
X157674994Y-28800000D02*
X168150000Y-28800000D01*
X88950000Y-59000000D02*
X90899992Y-59000000D01*
X92150000Y-50200000D02*
X92150000Y-54400000D01*
X92800000Y-33950000D02*
X92800000Y-46645968D01*
X168150000Y-28800000D02*
X201550000Y-28800000D01*
X78550004Y-72800000D02*
X80237793Y-72800000D01*
%TO.N,/ID1*%
X92150000Y-45800000D02*
X92150000Y-49600000D01*
X91550000Y-50200000D02*
X91550000Y-54400000D01*
X97750000Y-28200000D02*
X92150000Y-33800000D01*
X82672107Y-69800000D02*
X80472107Y-72000000D01*
X92150000Y-33800000D02*
X92150000Y-45800000D01*
X159050009Y-28200000D02*
X97750000Y-28200000D01*
X202350000Y-28200000D02*
X204750000Y-30600000D01*
X92150000Y-49600000D02*
X91550000Y-50200000D01*
X85550000Y-61800000D02*
X85550000Y-68600000D01*
X89000000Y-58350000D02*
X85550000Y-61800000D01*
X90750000Y-58350000D02*
X89000000Y-58350000D01*
X80472107Y-72000000D02*
X79550000Y-72000000D01*
X159050009Y-28200000D02*
X168950000Y-28200000D01*
X84350000Y-69800000D02*
X82672107Y-69800000D01*
X168950000Y-28200000D02*
X202350000Y-28200000D01*
X85550000Y-68600000D02*
X84350000Y-69800000D01*
%TO.N,Net-(U17-TH2)*%
X113149996Y-85549996D02*
X114550000Y-86950000D01*
X213950000Y-49000000D02*
X208750000Y-43800000D01*
X213950000Y-87199999D02*
X213950000Y-49000000D01*
X208750000Y-43800000D02*
X203550000Y-43800000D01*
X114550000Y-88600000D02*
X118350000Y-92400000D01*
D21*
X203517507Y-43767507D02*
X203550000Y-43800000D01*
D20*
X114550000Y-86950000D02*
X114550000Y-88600000D01*
X208750000Y-92400000D02*
X213950000Y-87199999D01*
X118350000Y-92400000D02*
X208750000Y-92400000D01*
%TO.N,Net-(U17-TH1)*%
X208350000Y-45600000D02*
X201815020Y-45600000D01*
X212950000Y-50200000D02*
X208350000Y-45600000D01*
X208350000Y-91400000D02*
X212950000Y-86800000D01*
X178550000Y-88400000D02*
X181550000Y-91400000D01*
X181550000Y-91400000D02*
X208350000Y-91400000D01*
X201815020Y-45600000D02*
X199982510Y-43767490D01*
X212950000Y-86800000D02*
X212950000Y-50200000D01*
X178550000Y-86950000D02*
X178550000Y-88400000D01*
X177149996Y-85549996D02*
X178550000Y-86950000D01*
D21*
%TO.N,/FAN/FAN1_PWM*%
X185750000Y-37800000D02*
X184130000Y-36180000D01*
X184130000Y-36180000D02*
X184130000Y-34600000D01*
X193150000Y-37800000D02*
X185750000Y-37800000D01*
D20*
%TO.N,/ASICs_BM1366/CI*%
X86950000Y-77600000D02*
X84150000Y-74800000D01*
X81749982Y-74800000D02*
X81150000Y-74200018D01*
X84150000Y-74800000D02*
X81749982Y-74800000D01*
%TO.N,/DB_PGOOD*%
X76150000Y-67000000D02*
X86550000Y-56600000D01*
X76150000Y-67000000D02*
X76150000Y-68200000D01*
X131600000Y-56600000D02*
X131550000Y-56550000D01*
X96950000Y-56600000D02*
X86550000Y-56600000D01*
X96950000Y-56600000D02*
X131600000Y-56600000D01*
D21*
%TO.N,/FAN/FAN2_PWM*%
X196749994Y-31599994D02*
X196750000Y-31600000D01*
X171830000Y-34600000D02*
X174830006Y-31599994D01*
X174830006Y-31599994D02*
X196749994Y-31599994D01*
%TO.N,+5V_PSU*%
X76750000Y-67200000D02*
X76750000Y-68800000D01*
X76750000Y-68800000D02*
X76350000Y-69200000D01*
X77150000Y-84400000D02*
X77150000Y-87000000D01*
X76350000Y-75400000D02*
X77150000Y-76200000D01*
X77150000Y-84400000D02*
X77150000Y-83200012D01*
X77150000Y-80600000D02*
X77150000Y-83200012D01*
X77150000Y-76200000D02*
X77150000Y-80600000D01*
X76350000Y-69200000D02*
X76350000Y-75400000D01*
%TO.N,/FAN/FAN1_TACH*%
X188870000Y-36800000D02*
X194150000Y-36800000D01*
X186670000Y-34600000D02*
X188870000Y-36800000D01*
%TO.N,/FAN/FAN2_TACH*%
X176370000Y-32600000D02*
X195950000Y-32600000D01*
X174370000Y-34600000D02*
X176370000Y-32600000D01*
D20*
%TO.N,+5V_STDBY*%
X117550000Y-48000000D02*
X117550000Y-54500000D01*
X121750001Y-47000001D02*
X121750001Y-46000001D01*
X116650000Y-55400000D02*
X83350000Y-55400000D01*
X117550000Y-54500000D02*
X116650000Y-55400000D01*
X119550000Y-46000000D02*
X117550000Y-48000000D01*
X122950000Y-48200000D02*
X121750001Y-47000001D01*
X121750001Y-46000001D02*
X119550000Y-46000000D01*
X123750000Y-48200000D02*
X122950000Y-48200000D01*
%TO.N,/DB_ALERT_oc*%
X75550000Y-66800000D02*
X86350000Y-56000000D01*
X88750000Y-49800000D02*
X88750000Y-48200000D01*
X75550000Y-66800000D02*
X75550000Y-69200000D01*
X90150000Y-54400000D02*
X90150000Y-51200000D01*
X90150000Y-51200000D02*
X88750000Y-49800000D01*
X90150000Y-56000000D02*
X86350000Y-56000000D01*
X134150002Y-56000000D02*
X90150000Y-56000000D01*
%TO.N,Net-(D2-A)*%
X79550000Y-70400000D02*
X77149997Y-72800003D01*
X77149997Y-72800003D02*
X77149997Y-74800003D01*
X79550000Y-68400000D02*
X79550000Y-70400000D01*
%TD*%
%TA.AperFunction,Conductor*%
%TO.N,+12V_PWR*%
G36*
X82293039Y-27419685D02*
G01*
X82338794Y-27472489D01*
X82350000Y-27524000D01*
X82350000Y-41000000D01*
X91426000Y-41000000D01*
X91493039Y-41019685D01*
X91538794Y-41072489D01*
X91550000Y-41124000D01*
X91550000Y-45276000D01*
X91530315Y-45343039D01*
X91477511Y-45388794D01*
X91426000Y-45400000D01*
X82350000Y-45400000D01*
X82350000Y-58948189D01*
X82330315Y-59015228D01*
X82313140Y-59036408D01*
X76767474Y-64514219D01*
X76705946Y-64547326D01*
X76680334Y-64550000D01*
X74725189Y-64550000D01*
X74658150Y-64530315D01*
X74652303Y-64526318D01*
X74560228Y-64459421D01*
X74356803Y-64355770D01*
X74139660Y-64285215D01*
X73914162Y-64249500D01*
X73914157Y-64249500D01*
X73865892Y-64249500D01*
X70074000Y-64249500D01*
X70006961Y-64229815D01*
X69961206Y-64177011D01*
X69950000Y-64125500D01*
X69950000Y-58000000D01*
X78044355Y-58000000D01*
X78064859Y-58168869D01*
X78064860Y-58168874D01*
X78125182Y-58327931D01*
X78140410Y-58349992D01*
X78221817Y-58467929D01*
X78327505Y-58561560D01*
X78349150Y-58580736D01*
X78499773Y-58659789D01*
X78499775Y-58659790D01*
X78664944Y-58700500D01*
X78835056Y-58700500D01*
X79000225Y-58659790D01*
X79136372Y-58588334D01*
X79150849Y-58580736D01*
X79150850Y-58580734D01*
X79150852Y-58580734D01*
X79278183Y-58467929D01*
X79374818Y-58327930D01*
X79435140Y-58168872D01*
X79455645Y-58000000D01*
X79435140Y-57831128D01*
X79374818Y-57672070D01*
X79278183Y-57532071D01*
X79150852Y-57419266D01*
X79150849Y-57419263D01*
X79000226Y-57340210D01*
X78835056Y-57299500D01*
X78664944Y-57299500D01*
X78499773Y-57340210D01*
X78349150Y-57419263D01*
X78221816Y-57532072D01*
X78125182Y-57672068D01*
X78064860Y-57831125D01*
X78064859Y-57831130D01*
X78044355Y-58000000D01*
X69950000Y-58000000D01*
X69950000Y-56000000D01*
X80044355Y-56000000D01*
X80064859Y-56168869D01*
X80064860Y-56168874D01*
X80125182Y-56327931D01*
X80147001Y-56359540D01*
X80221817Y-56467929D01*
X80326238Y-56560438D01*
X80349150Y-56580736D01*
X80461234Y-56639562D01*
X80499775Y-56659790D01*
X80664944Y-56700500D01*
X80835056Y-56700500D01*
X81000225Y-56659790D01*
X81079692Y-56618081D01*
X81150849Y-56580736D01*
X81150850Y-56580734D01*
X81150852Y-56580734D01*
X81278183Y-56467929D01*
X81374818Y-56327930D01*
X81435140Y-56168872D01*
X81455645Y-56000000D01*
X81435140Y-55831128D01*
X81374818Y-55672070D01*
X81278183Y-55532071D01*
X81150852Y-55419266D01*
X81150849Y-55419263D01*
X81000226Y-55340210D01*
X80835056Y-55299500D01*
X80664944Y-55299500D01*
X80499773Y-55340210D01*
X80349150Y-55419263D01*
X80221816Y-55532072D01*
X80125182Y-55672068D01*
X80064860Y-55831125D01*
X80064859Y-55831130D01*
X80044355Y-56000000D01*
X69950000Y-56000000D01*
X69950000Y-54174500D01*
X69969685Y-54107461D01*
X70022489Y-54061706D01*
X70074000Y-54050500D01*
X74815890Y-54050500D01*
X74815892Y-54050500D01*
X74943186Y-54016392D01*
X74971578Y-54000000D01*
X78044355Y-54000000D01*
X78064859Y-54168869D01*
X78064860Y-54168874D01*
X78125182Y-54327931D01*
X78143657Y-54354696D01*
X78221817Y-54467929D01*
X78327505Y-54561560D01*
X78349150Y-54580736D01*
X78499773Y-54659789D01*
X78499775Y-54659790D01*
X78664944Y-54700500D01*
X78835056Y-54700500D01*
X79000225Y-54659790D01*
X79084353Y-54615636D01*
X79150849Y-54580736D01*
X79150850Y-54580734D01*
X79150852Y-54580734D01*
X79278183Y-54467929D01*
X79374818Y-54327930D01*
X79435140Y-54168872D01*
X79455645Y-54000000D01*
X79435140Y-53831128D01*
X79374818Y-53672070D01*
X79278183Y-53532071D01*
X79150852Y-53419266D01*
X79150849Y-53419263D01*
X79000226Y-53340210D01*
X78835056Y-53299500D01*
X78664944Y-53299500D01*
X78499773Y-53340210D01*
X78349150Y-53419263D01*
X78221816Y-53532072D01*
X78125182Y-53672068D01*
X78064860Y-53831125D01*
X78064859Y-53831130D01*
X78044355Y-54000000D01*
X74971578Y-54000000D01*
X75057314Y-53950500D01*
X75150500Y-53857314D01*
X75216392Y-53743186D01*
X75250500Y-53615892D01*
X75250500Y-52000000D01*
X80044355Y-52000000D01*
X80064859Y-52168869D01*
X80064860Y-52168874D01*
X80125182Y-52327931D01*
X80187475Y-52418177D01*
X80221817Y-52467929D01*
X80327505Y-52561560D01*
X80349150Y-52580736D01*
X80499773Y-52659789D01*
X80499775Y-52659790D01*
X80664944Y-52700500D01*
X80835056Y-52700500D01*
X81000225Y-52659790D01*
X81114144Y-52600000D01*
X81150849Y-52580736D01*
X81150850Y-52580734D01*
X81150852Y-52580734D01*
X81278183Y-52467929D01*
X81374818Y-52327930D01*
X81435140Y-52168872D01*
X81455645Y-52000000D01*
X81435140Y-51831128D01*
X81374818Y-51672070D01*
X81278183Y-51532071D01*
X81150852Y-51419266D01*
X81150849Y-51419263D01*
X81000226Y-51340210D01*
X80835056Y-51299500D01*
X80664944Y-51299500D01*
X80499773Y-51340210D01*
X80349150Y-51419263D01*
X80221816Y-51532072D01*
X80125182Y-51672068D01*
X80064860Y-51831125D01*
X80064859Y-51831130D01*
X80044355Y-52000000D01*
X75250500Y-52000000D01*
X75250500Y-50000000D01*
X78044355Y-50000000D01*
X78064859Y-50168869D01*
X78064860Y-50168874D01*
X78125182Y-50327931D01*
X78187475Y-50418177D01*
X78221817Y-50467929D01*
X78327505Y-50561560D01*
X78349150Y-50580736D01*
X78499773Y-50659789D01*
X78499775Y-50659790D01*
X78664944Y-50700500D01*
X78835056Y-50700500D01*
X79000225Y-50659790D01*
X79079692Y-50618081D01*
X79150849Y-50580736D01*
X79150850Y-50580734D01*
X79150852Y-50580734D01*
X79278183Y-50467929D01*
X79374818Y-50327930D01*
X79435140Y-50168872D01*
X79455645Y-50000000D01*
X79435140Y-49831128D01*
X79374818Y-49672070D01*
X79278183Y-49532071D01*
X79150852Y-49419266D01*
X79150849Y-49419263D01*
X79000226Y-49340210D01*
X78835056Y-49299500D01*
X78664944Y-49299500D01*
X78499773Y-49340210D01*
X78349150Y-49419263D01*
X78221816Y-49532072D01*
X78125182Y-49672068D01*
X78064860Y-49831125D01*
X78064859Y-49831130D01*
X78044355Y-50000000D01*
X75250500Y-50000000D01*
X75250500Y-48000000D01*
X78044355Y-48000000D01*
X78064859Y-48168869D01*
X78064860Y-48168874D01*
X78125182Y-48327931D01*
X78140761Y-48350500D01*
X78221817Y-48467929D01*
X78327505Y-48561560D01*
X78349150Y-48580736D01*
X78499773Y-48659789D01*
X78499775Y-48659790D01*
X78664944Y-48700500D01*
X78835056Y-48700500D01*
X79000225Y-48659790D01*
X79079692Y-48618081D01*
X79150849Y-48580736D01*
X79150850Y-48580734D01*
X79150852Y-48580734D01*
X79278183Y-48467929D01*
X79374818Y-48327930D01*
X79435140Y-48168872D01*
X79455645Y-48000000D01*
X79435140Y-47831128D01*
X79374818Y-47672070D01*
X79364287Y-47656814D01*
X79315163Y-47585646D01*
X79278183Y-47532071D01*
X79183316Y-47448026D01*
X79150849Y-47419263D01*
X79000226Y-47340210D01*
X78835056Y-47299500D01*
X78664944Y-47299500D01*
X78499773Y-47340210D01*
X78349150Y-47419263D01*
X78221816Y-47532072D01*
X78125182Y-47672068D01*
X78064860Y-47831125D01*
X78064859Y-47831130D01*
X78044355Y-48000000D01*
X75250500Y-48000000D01*
X75250500Y-47784108D01*
X75216392Y-47656814D01*
X75150500Y-47542686D01*
X75057314Y-47449500D01*
X75000250Y-47416554D01*
X74943187Y-47383608D01*
X74879539Y-47366554D01*
X74815892Y-47349500D01*
X70074000Y-47349500D01*
X70006961Y-47329815D01*
X69961206Y-47277011D01*
X69950000Y-47225500D01*
X69950000Y-46000000D01*
X80044355Y-46000000D01*
X80064859Y-46168869D01*
X80064860Y-46168874D01*
X80125182Y-46327931D01*
X80187475Y-46418177D01*
X80221817Y-46467929D01*
X80327505Y-46561560D01*
X80349150Y-46580736D01*
X80499773Y-46659789D01*
X80499775Y-46659790D01*
X80664944Y-46700500D01*
X80835056Y-46700500D01*
X81000225Y-46659790D01*
X81079692Y-46618081D01*
X81150849Y-46580736D01*
X81150850Y-46580734D01*
X81150852Y-46580734D01*
X81278183Y-46467929D01*
X81374818Y-46327930D01*
X81435140Y-46168872D01*
X81455645Y-46000000D01*
X81435140Y-45831128D01*
X81374818Y-45672070D01*
X81278183Y-45532071D01*
X81150852Y-45419266D01*
X81150849Y-45419263D01*
X81000226Y-45340210D01*
X80835056Y-45299500D01*
X80664944Y-45299500D01*
X80499773Y-45340210D01*
X80349150Y-45419263D01*
X80221816Y-45532072D01*
X80125182Y-45672068D01*
X80064860Y-45831125D01*
X80064859Y-45831130D01*
X80044355Y-46000000D01*
X69950000Y-46000000D01*
X69950000Y-44000000D01*
X78044355Y-44000000D01*
X78064859Y-44168869D01*
X78064860Y-44168874D01*
X78125182Y-44327931D01*
X78187475Y-44418177D01*
X78221817Y-44467929D01*
X78327505Y-44561560D01*
X78349150Y-44580736D01*
X78499773Y-44659789D01*
X78499775Y-44659790D01*
X78664944Y-44700500D01*
X78835056Y-44700500D01*
X79000225Y-44659790D01*
X79079692Y-44618081D01*
X79150849Y-44580736D01*
X79150850Y-44580734D01*
X79150852Y-44580734D01*
X79278183Y-44467929D01*
X79374818Y-44327930D01*
X79435140Y-44168872D01*
X79455645Y-44000000D01*
X84044355Y-44000000D01*
X84064859Y-44168869D01*
X84064860Y-44168874D01*
X84125182Y-44327931D01*
X84187475Y-44418177D01*
X84221817Y-44467929D01*
X84327505Y-44561560D01*
X84349150Y-44580736D01*
X84499773Y-44659789D01*
X84499775Y-44659790D01*
X84664944Y-44700500D01*
X84835056Y-44700500D01*
X85000225Y-44659790D01*
X85079692Y-44618081D01*
X85150849Y-44580736D01*
X85150850Y-44580734D01*
X85150852Y-44580734D01*
X85278183Y-44467929D01*
X85374818Y-44327930D01*
X85435140Y-44168872D01*
X85455645Y-44000000D01*
X85435140Y-43831128D01*
X85374818Y-43672070D01*
X85278183Y-43532071D01*
X85150852Y-43419266D01*
X85150849Y-43419263D01*
X85000226Y-43340210D01*
X84835056Y-43299500D01*
X84664944Y-43299500D01*
X84499773Y-43340210D01*
X84349150Y-43419263D01*
X84221816Y-43532072D01*
X84125182Y-43672068D01*
X84064860Y-43831125D01*
X84064859Y-43831130D01*
X84044355Y-44000000D01*
X79455645Y-44000000D01*
X79435140Y-43831128D01*
X79374818Y-43672070D01*
X79278183Y-43532071D01*
X79150852Y-43419266D01*
X79150849Y-43419263D01*
X79000226Y-43340210D01*
X78835056Y-43299500D01*
X78664944Y-43299500D01*
X78499773Y-43340210D01*
X78349150Y-43419263D01*
X78221816Y-43532072D01*
X78125182Y-43672068D01*
X78064860Y-43831125D01*
X78064859Y-43831130D01*
X78044355Y-44000000D01*
X69950000Y-44000000D01*
X69950000Y-42000000D01*
X80044355Y-42000000D01*
X80064859Y-42168869D01*
X80064860Y-42168874D01*
X80125182Y-42327931D01*
X80187475Y-42418177D01*
X80221817Y-42467929D01*
X80327505Y-42561560D01*
X80349150Y-42580736D01*
X80499773Y-42659789D01*
X80499775Y-42659790D01*
X80664944Y-42700500D01*
X80835056Y-42700500D01*
X81000225Y-42659790D01*
X81079692Y-42618081D01*
X81150849Y-42580736D01*
X81150850Y-42580734D01*
X81150852Y-42580734D01*
X81278183Y-42467929D01*
X81374818Y-42327930D01*
X81435140Y-42168872D01*
X81455645Y-42000000D01*
X86044355Y-42000000D01*
X86064859Y-42168869D01*
X86064860Y-42168874D01*
X86125182Y-42327931D01*
X86187475Y-42418177D01*
X86221817Y-42467929D01*
X86327505Y-42561560D01*
X86349150Y-42580736D01*
X86499773Y-42659789D01*
X86499775Y-42659790D01*
X86664944Y-42700500D01*
X86835056Y-42700500D01*
X87000225Y-42659790D01*
X87079692Y-42618081D01*
X87150849Y-42580736D01*
X87150850Y-42580734D01*
X87150852Y-42580734D01*
X87278183Y-42467929D01*
X87374818Y-42327930D01*
X87435140Y-42168872D01*
X87455645Y-42000000D01*
X87435140Y-41831128D01*
X87374818Y-41672070D01*
X87278183Y-41532071D01*
X87150852Y-41419266D01*
X87150849Y-41419263D01*
X87000226Y-41340210D01*
X86835056Y-41299500D01*
X86664944Y-41299500D01*
X86499773Y-41340210D01*
X86349150Y-41419263D01*
X86221816Y-41532072D01*
X86125182Y-41672068D01*
X86064860Y-41831125D01*
X86064859Y-41831130D01*
X86044355Y-42000000D01*
X81455645Y-42000000D01*
X81435140Y-41831128D01*
X81374818Y-41672070D01*
X81278183Y-41532071D01*
X81150852Y-41419266D01*
X81150849Y-41419263D01*
X81000226Y-41340210D01*
X80835056Y-41299500D01*
X80664944Y-41299500D01*
X80499773Y-41340210D01*
X80349150Y-41419263D01*
X80221816Y-41532072D01*
X80125182Y-41672068D01*
X80064860Y-41831125D01*
X80064859Y-41831130D01*
X80044355Y-42000000D01*
X69950000Y-42000000D01*
X69950000Y-41274500D01*
X69969685Y-41207461D01*
X70022489Y-41161706D01*
X70074000Y-41150500D01*
X73914162Y-41150500D01*
X74139660Y-41114784D01*
X74356799Y-41044231D01*
X74560228Y-40940579D01*
X74744937Y-40806379D01*
X74906379Y-40644937D01*
X75040579Y-40460228D01*
X75144231Y-40256799D01*
X75214784Y-40039660D01*
X75218239Y-40017844D01*
X75221065Y-40000000D01*
X78044355Y-40000000D01*
X78064859Y-40168869D01*
X78064860Y-40168874D01*
X78125182Y-40327931D01*
X78135367Y-40342686D01*
X78221817Y-40467929D01*
X78327505Y-40561560D01*
X78349150Y-40580736D01*
X78471475Y-40644937D01*
X78499775Y-40659790D01*
X78664944Y-40700500D01*
X78835056Y-40700500D01*
X79000225Y-40659790D01*
X79079692Y-40618081D01*
X79150849Y-40580736D01*
X79150850Y-40580734D01*
X79150852Y-40580734D01*
X79278183Y-40467929D01*
X79374818Y-40327930D01*
X79435140Y-40168872D01*
X79455645Y-40000000D01*
X79435140Y-39831128D01*
X79374818Y-39672070D01*
X79278183Y-39532071D01*
X79150852Y-39419266D01*
X79150849Y-39419263D01*
X79000226Y-39340210D01*
X78835056Y-39299500D01*
X78664944Y-39299500D01*
X78499773Y-39340210D01*
X78349150Y-39419263D01*
X78221816Y-39532072D01*
X78125182Y-39672068D01*
X78064860Y-39831125D01*
X78064859Y-39831130D01*
X78044355Y-40000000D01*
X75221065Y-40000000D01*
X75250500Y-39814162D01*
X75250500Y-39585837D01*
X75214784Y-39360339D01*
X75168012Y-39216392D01*
X75144231Y-39143201D01*
X75144229Y-39143198D01*
X75144229Y-39143196D01*
X75089550Y-39035884D01*
X75040579Y-38939772D01*
X74906379Y-38755063D01*
X74744937Y-38593621D01*
X74560228Y-38459421D01*
X74527384Y-38442686D01*
X74356803Y-38355770D01*
X74139660Y-38285215D01*
X73914162Y-38249500D01*
X73914157Y-38249500D01*
X73865892Y-38249500D01*
X70074000Y-38249500D01*
X70006961Y-38229815D01*
X69961206Y-38177011D01*
X69950000Y-38125500D01*
X69950000Y-38000000D01*
X78044355Y-38000000D01*
X78064859Y-38168869D01*
X78064860Y-38168874D01*
X78125182Y-38327931D01*
X78187475Y-38418177D01*
X78221817Y-38467929D01*
X78322148Y-38556814D01*
X78349150Y-38580736D01*
X78499773Y-38659789D01*
X78499775Y-38659790D01*
X78664944Y-38700500D01*
X78835056Y-38700500D01*
X79000225Y-38659790D01*
X79079692Y-38618081D01*
X79150849Y-38580736D01*
X79150850Y-38580734D01*
X79150852Y-38580734D01*
X79278183Y-38467929D01*
X79374818Y-38327930D01*
X79435140Y-38168872D01*
X79455645Y-38000000D01*
X79435140Y-37831128D01*
X79374818Y-37672070D01*
X79278183Y-37532071D01*
X79150852Y-37419266D01*
X79150849Y-37419263D01*
X79000226Y-37340210D01*
X78835056Y-37299500D01*
X78664944Y-37299500D01*
X78499773Y-37340210D01*
X78349150Y-37419263D01*
X78221816Y-37532072D01*
X78125182Y-37672068D01*
X78064860Y-37831125D01*
X78064859Y-37831130D01*
X78044355Y-38000000D01*
X69950000Y-38000000D01*
X69950000Y-36000000D01*
X80044355Y-36000000D01*
X80064859Y-36168869D01*
X80064860Y-36168874D01*
X80125182Y-36327931D01*
X80187475Y-36418177D01*
X80221817Y-36467929D01*
X80327505Y-36561560D01*
X80349150Y-36580736D01*
X80499773Y-36659789D01*
X80499775Y-36659790D01*
X80664944Y-36700500D01*
X80835056Y-36700500D01*
X81000225Y-36659790D01*
X81079692Y-36618081D01*
X81150849Y-36580736D01*
X81150850Y-36580734D01*
X81150852Y-36580734D01*
X81278183Y-36467929D01*
X81374818Y-36327930D01*
X81435140Y-36168872D01*
X81455645Y-36000000D01*
X81435140Y-35831128D01*
X81374818Y-35672070D01*
X81278183Y-35532071D01*
X81150852Y-35419266D01*
X81150849Y-35419263D01*
X81000226Y-35340210D01*
X80835056Y-35299500D01*
X80664944Y-35299500D01*
X80499773Y-35340210D01*
X80349150Y-35419263D01*
X80221816Y-35532072D01*
X80125182Y-35672068D01*
X80064860Y-35831125D01*
X80064859Y-35831130D01*
X80044355Y-36000000D01*
X69950000Y-36000000D01*
X69950000Y-34000000D01*
X78044355Y-34000000D01*
X78064859Y-34168869D01*
X78064860Y-34168874D01*
X78125182Y-34327931D01*
X78187475Y-34418177D01*
X78221817Y-34467929D01*
X78327505Y-34561560D01*
X78349150Y-34580736D01*
X78499773Y-34659789D01*
X78499775Y-34659790D01*
X78664944Y-34700500D01*
X78835056Y-34700500D01*
X79000225Y-34659790D01*
X79079692Y-34618081D01*
X79150849Y-34580736D01*
X79150850Y-34580734D01*
X79150852Y-34580734D01*
X79278183Y-34467929D01*
X79374818Y-34327930D01*
X79435140Y-34168872D01*
X79455645Y-34000000D01*
X79435140Y-33831128D01*
X79374818Y-33672070D01*
X79278183Y-33532071D01*
X79150852Y-33419266D01*
X79150849Y-33419263D01*
X79000226Y-33340210D01*
X78835056Y-33299500D01*
X78664944Y-33299500D01*
X78499773Y-33340210D01*
X78349150Y-33419263D01*
X78221816Y-33532072D01*
X78125182Y-33672068D01*
X78064860Y-33831125D01*
X78064859Y-33831130D01*
X78044355Y-34000000D01*
X69950000Y-34000000D01*
X69950000Y-32000000D01*
X80044355Y-32000000D01*
X80064859Y-32168869D01*
X80064860Y-32168874D01*
X80125182Y-32327931D01*
X80187475Y-32418177D01*
X80221817Y-32467929D01*
X80327505Y-32561560D01*
X80349150Y-32580736D01*
X80499773Y-32659789D01*
X80499775Y-32659790D01*
X80664944Y-32700500D01*
X80835056Y-32700500D01*
X81000225Y-32659790D01*
X81079692Y-32618081D01*
X81150849Y-32580736D01*
X81150850Y-32580734D01*
X81150852Y-32580734D01*
X81278183Y-32467929D01*
X81374818Y-32327930D01*
X81435140Y-32168872D01*
X81455645Y-32000000D01*
X81435140Y-31831128D01*
X81374818Y-31672070D01*
X81278183Y-31532071D01*
X81150852Y-31419266D01*
X81150849Y-31419263D01*
X81000226Y-31340210D01*
X80835056Y-31299500D01*
X80664944Y-31299500D01*
X80499773Y-31340210D01*
X80349150Y-31419263D01*
X80221816Y-31532072D01*
X80125182Y-31672068D01*
X80064860Y-31831125D01*
X80064859Y-31831130D01*
X80044355Y-32000000D01*
X69950000Y-32000000D01*
X69950000Y-30000000D01*
X78044355Y-30000000D01*
X78064859Y-30168869D01*
X78064860Y-30168874D01*
X78125182Y-30327931D01*
X78187475Y-30418177D01*
X78221817Y-30467929D01*
X78327505Y-30561560D01*
X78349150Y-30580736D01*
X78499773Y-30659789D01*
X78499775Y-30659790D01*
X78664944Y-30700500D01*
X78835056Y-30700500D01*
X79000225Y-30659790D01*
X79079692Y-30618081D01*
X79150849Y-30580736D01*
X79150850Y-30580734D01*
X79150852Y-30580734D01*
X79278183Y-30467929D01*
X79374818Y-30327930D01*
X79435140Y-30168872D01*
X79455645Y-30000000D01*
X79435140Y-29831128D01*
X79374818Y-29672070D01*
X79278183Y-29532071D01*
X79150852Y-29419266D01*
X79150849Y-29419263D01*
X79000226Y-29340210D01*
X78835056Y-29299500D01*
X78664944Y-29299500D01*
X78499773Y-29340210D01*
X78349150Y-29419263D01*
X78221816Y-29532072D01*
X78125182Y-29672068D01*
X78064860Y-29831125D01*
X78064859Y-29831130D01*
X78044355Y-30000000D01*
X69950000Y-30000000D01*
X69950000Y-28174500D01*
X69969685Y-28107461D01*
X70022489Y-28061706D01*
X70074000Y-28050500D01*
X74815890Y-28050500D01*
X74815892Y-28050500D01*
X74943186Y-28016392D01*
X75057314Y-27950500D01*
X75150500Y-27857314D01*
X75216392Y-27743186D01*
X75250500Y-27615892D01*
X75250500Y-27524000D01*
X75270185Y-27456961D01*
X75322989Y-27411206D01*
X75374500Y-27400000D01*
X82226000Y-27400000D01*
X82293039Y-27419685D01*
G37*
%TD.AperFunction*%
%TD*%
%TA.AperFunction,Conductor*%
%TO.N,VPWR_ASIC*%
G36*
X151660648Y-34964352D02*
G01*
X151675000Y-34999000D01*
X151675000Y-58600000D01*
X142325000Y-58600000D01*
X142325000Y-34999000D01*
X142339352Y-34964352D01*
X142374000Y-34950000D01*
X151626000Y-34950000D01*
X151660648Y-34964352D01*
G37*
%TD.AperFunction*%
%TD*%
%TA.AperFunction,Conductor*%
%TO.N,Net-(C10-Pad1)*%
G36*
X126708724Y-41607793D02*
G01*
X126743369Y-41622153D01*
X126757712Y-41656805D01*
X126757712Y-41656885D01*
X126750092Y-45701092D01*
X126735675Y-45735713D01*
X126701092Y-45750000D01*
X122086688Y-45750000D01*
X122052040Y-45735648D01*
X121988343Y-45671951D01*
X121988336Y-45671946D01*
X121875309Y-45614356D01*
X121875306Y-45614355D01*
X121875305Y-45614355D01*
X121750001Y-45594509D01*
X121624697Y-45614355D01*
X121624695Y-45614355D01*
X121624694Y-45614356D01*
X121511660Y-45671950D01*
X121511654Y-45671954D01*
X121498459Y-45685149D01*
X121463812Y-45699500D01*
X119510436Y-45699500D01*
X119434012Y-45719978D01*
X119434008Y-45719979D01*
X119398492Y-45740486D01*
X119393381Y-45743436D01*
X119368884Y-45750000D01*
X118950000Y-45750000D01*
X116964421Y-47785218D01*
X116929953Y-47799996D01*
X116929348Y-47800000D01*
X100999000Y-47800000D01*
X100964352Y-47785648D01*
X100950000Y-47751000D01*
X100950000Y-45400000D01*
X94599000Y-45400000D01*
X94564352Y-45385648D01*
X94550000Y-45351000D01*
X94550000Y-41649011D01*
X94564352Y-41614363D01*
X94598997Y-41600011D01*
X126708724Y-41607793D01*
G37*
%TD.AperFunction*%
%TD*%
%TA.AperFunction,Conductor*%
%TO.N,/PSU/SW*%
G36*
X141568039Y-35019685D02*
G01*
X141613794Y-35072489D01*
X141625000Y-35124000D01*
X141625000Y-45476000D01*
X141605315Y-45543039D01*
X141552511Y-45588794D01*
X141501000Y-45600000D01*
X131699000Y-45600000D01*
X131631961Y-45580315D01*
X131586206Y-45527511D01*
X131575000Y-45476000D01*
X131575000Y-42917689D01*
X131594685Y-42850650D01*
X131626067Y-42817406D01*
X132717389Y-42023717D01*
X132783184Y-42000206D01*
X132790322Y-42000000D01*
X136825000Y-42000000D01*
X136825000Y-35124000D01*
X136844685Y-35056961D01*
X136897489Y-35011206D01*
X136949000Y-35000000D01*
X141501000Y-35000000D01*
X141568039Y-35019685D01*
G37*
%TD.AperFunction*%
%TD*%
%TA.AperFunction,Conductor*%
%TO.N,VPWR_ASIC*%
G36*
X98692096Y-58619685D02*
G01*
X98737851Y-58672489D01*
X98747795Y-58741647D01*
X98718770Y-58805203D01*
X98712738Y-58811681D01*
X98681081Y-58843338D01*
X98541392Y-59025382D01*
X98426657Y-59224109D01*
X98426650Y-59224123D01*
X98338842Y-59436112D01*
X98279453Y-59657759D01*
X98279451Y-59657770D01*
X98249500Y-59885258D01*
X98249500Y-60114741D01*
X98274446Y-60304215D01*
X98279452Y-60342238D01*
X98279453Y-60342240D01*
X98338842Y-60563887D01*
X98426650Y-60775876D01*
X98426657Y-60775890D01*
X98541392Y-60974617D01*
X98681081Y-61156661D01*
X98681089Y-61156670D01*
X98843330Y-61318911D01*
X98843338Y-61318918D01*
X99025382Y-61458607D01*
X99025385Y-61458608D01*
X99025388Y-61458611D01*
X99224112Y-61573344D01*
X99224117Y-61573346D01*
X99224123Y-61573349D01*
X99315480Y-61611190D01*
X99436113Y-61661158D01*
X99657762Y-61720548D01*
X99885266Y-61750500D01*
X99885273Y-61750500D01*
X100114727Y-61750500D01*
X100114734Y-61750500D01*
X100342238Y-61720548D01*
X100563887Y-61661158D01*
X100775888Y-61573344D01*
X100974612Y-61458611D01*
X101156661Y-61318919D01*
X101156665Y-61318914D01*
X101156670Y-61318911D01*
X101318911Y-61156670D01*
X101318914Y-61156665D01*
X101318919Y-61156661D01*
X101458611Y-60974612D01*
X101573344Y-60775888D01*
X101661158Y-60563887D01*
X101720548Y-60342238D01*
X101750500Y-60114734D01*
X101750500Y-59885266D01*
X101720548Y-59657762D01*
X101661158Y-59436113D01*
X101573344Y-59224112D01*
X101458611Y-59025388D01*
X101458608Y-59025385D01*
X101458607Y-59025382D01*
X101318918Y-58843338D01*
X101318911Y-58843330D01*
X101287262Y-58811681D01*
X101253777Y-58750358D01*
X101258761Y-58680666D01*
X101300633Y-58624733D01*
X101366097Y-58600316D01*
X101374943Y-58600000D01*
X142325000Y-58600000D01*
X151675000Y-58600000D01*
X193625057Y-58600000D01*
X193692096Y-58619685D01*
X193737851Y-58672489D01*
X193747795Y-58741647D01*
X193718770Y-58805203D01*
X193712738Y-58811681D01*
X193681081Y-58843338D01*
X193541392Y-59025382D01*
X193426657Y-59224109D01*
X193426650Y-59224123D01*
X193338842Y-59436112D01*
X193279453Y-59657759D01*
X193279451Y-59657770D01*
X193249500Y-59885258D01*
X193249500Y-60114741D01*
X193274446Y-60304215D01*
X193279452Y-60342238D01*
X193279453Y-60342240D01*
X193338842Y-60563887D01*
X193426650Y-60775876D01*
X193426657Y-60775890D01*
X193541392Y-60974617D01*
X193681081Y-61156661D01*
X193681089Y-61156670D01*
X193843330Y-61318911D01*
X193843338Y-61318918D01*
X194025382Y-61458607D01*
X194025385Y-61458608D01*
X194025388Y-61458611D01*
X194224112Y-61573344D01*
X194224117Y-61573346D01*
X194224123Y-61573349D01*
X194315480Y-61611190D01*
X194436113Y-61661158D01*
X194657762Y-61720548D01*
X194885266Y-61750500D01*
X194885273Y-61750500D01*
X195114727Y-61750500D01*
X195114734Y-61750500D01*
X195342238Y-61720548D01*
X195563887Y-61661158D01*
X195775888Y-61573344D01*
X195974612Y-61458611D01*
X196156661Y-61318919D01*
X196156665Y-61318914D01*
X196156670Y-61318911D01*
X196318911Y-61156670D01*
X196318914Y-61156665D01*
X196318919Y-61156661D01*
X196458611Y-60974612D01*
X196573344Y-60775888D01*
X196661158Y-60563887D01*
X196720548Y-60342238D01*
X196750500Y-60114734D01*
X196750500Y-59885266D01*
X196720548Y-59657762D01*
X196661158Y-59436113D01*
X196573344Y-59224112D01*
X196458611Y-59025388D01*
X196458608Y-59025385D01*
X196458607Y-59025382D01*
X196318918Y-58843338D01*
X196318911Y-58843330D01*
X196287262Y-58811681D01*
X196253777Y-58750358D01*
X196258761Y-58680666D01*
X196300633Y-58624733D01*
X196366097Y-58600316D01*
X196374943Y-58600000D01*
X204626000Y-58600000D01*
X204693039Y-58619685D01*
X204738794Y-58672489D01*
X204750000Y-58724000D01*
X204750000Y-73276000D01*
X204730315Y-73343039D01*
X204677511Y-73388794D01*
X204626000Y-73400000D01*
X200674000Y-73400000D01*
X200606961Y-73380315D01*
X200561206Y-73327511D01*
X200550000Y-73276000D01*
X200550000Y-70800000D01*
X188950000Y-70800000D01*
X188950000Y-73276000D01*
X188930315Y-73343039D01*
X188877511Y-73388794D01*
X188826000Y-73400000D01*
X184674000Y-73400000D01*
X184606961Y-73380315D01*
X184561206Y-73327511D01*
X184550000Y-73276000D01*
X184550000Y-70800000D01*
X172950000Y-70800000D01*
X172950000Y-73276000D01*
X172930315Y-73343039D01*
X172877511Y-73388794D01*
X172826000Y-73400000D01*
X168874000Y-73400000D01*
X168806961Y-73380315D01*
X168761206Y-73327511D01*
X168750000Y-73276000D01*
X168750000Y-70800000D01*
X157150000Y-70800000D01*
X157150000Y-73276000D01*
X157130315Y-73343039D01*
X157077511Y-73388794D01*
X157026000Y-73400000D01*
X152874000Y-73400000D01*
X152806961Y-73380315D01*
X152761206Y-73327511D01*
X152750000Y-73276000D01*
X152750000Y-70800000D01*
X141150000Y-70800000D01*
X141150000Y-73276000D01*
X141130315Y-73343039D01*
X141077511Y-73388794D01*
X141026000Y-73400000D01*
X137074000Y-73400000D01*
X137006961Y-73380315D01*
X136961206Y-73327511D01*
X136950000Y-73276000D01*
X136950000Y-70800000D01*
X125350000Y-70800000D01*
X125350000Y-73276000D01*
X125330315Y-73343039D01*
X125277511Y-73388794D01*
X125226000Y-73400000D01*
X121074000Y-73400000D01*
X121006961Y-73380315D01*
X120961206Y-73327511D01*
X120950000Y-73276000D01*
X120950000Y-70800000D01*
X109350000Y-70800000D01*
X109350000Y-73276000D01*
X109330315Y-73343039D01*
X109277511Y-73388794D01*
X109226000Y-73400000D01*
X105274000Y-73400000D01*
X105206961Y-73380315D01*
X105161206Y-73327511D01*
X105150000Y-73276000D01*
X105150000Y-70800000D01*
X93550000Y-70800000D01*
X93550000Y-73400000D01*
X89150000Y-73400000D01*
X89150000Y-59524500D01*
X89169685Y-59457461D01*
X89222489Y-59411706D01*
X89274000Y-59400500D01*
X90952717Y-59400500D01*
X90952719Y-59400500D01*
X91054580Y-59373207D01*
X91145905Y-59320480D01*
X91497730Y-58968653D01*
X91522814Y-58949296D01*
X91771965Y-58803624D01*
X91773560Y-58802306D01*
X91785467Y-58793611D01*
X91881128Y-58732135D01*
X91958538Y-58642797D01*
X92017315Y-58605023D01*
X92052251Y-58600000D01*
X98625057Y-58600000D01*
X98692096Y-58619685D01*
G37*
%TD.AperFunction*%
%TD*%
%TA.AperFunction,Conductor*%
%TO.N,VPWR_ASIC*%
G36*
X93550000Y-70800000D02*
G01*
X93550000Y-73551000D01*
X93535648Y-73585648D01*
X93501000Y-73600000D01*
X89199000Y-73600000D01*
X89164352Y-73585648D01*
X89150000Y-73551000D01*
X89150000Y-64200000D01*
X93550000Y-64200000D01*
X93550000Y-70800000D01*
G37*
%TD.AperFunction*%
%TD*%
%TA.AperFunction,Conductor*%
%TO.N,GNDPWR*%
G36*
X111493039Y-82819685D02*
G01*
X111538794Y-82872489D01*
X111550000Y-82924000D01*
X111550000Y-89076000D01*
X111530315Y-89143039D01*
X111477511Y-89188794D01*
X111426000Y-89200000D01*
X87874000Y-89200000D01*
X87806961Y-89180315D01*
X87761206Y-89127511D01*
X87750000Y-89076000D01*
X87750000Y-82924000D01*
X87769685Y-82856961D01*
X87822489Y-82811206D01*
X87874000Y-82800000D01*
X111426000Y-82800000D01*
X111493039Y-82819685D01*
G37*
%TD.AperFunction*%
%TD*%
%TA.AperFunction,Conductor*%
%TO.N,+0.8V*%
G36*
X119261244Y-80000859D02*
G01*
X119300444Y-80005499D01*
X119300445Y-80005500D01*
X119300448Y-80005500D01*
X119420500Y-80005500D01*
X119487539Y-80025185D01*
X119533294Y-80077989D01*
X119544500Y-80129500D01*
X119544500Y-80676007D01*
X119549289Y-80720539D01*
X119550000Y-80733795D01*
X119550000Y-81000000D01*
X119826878Y-81000000D01*
X119844525Y-81001262D01*
X119847965Y-81001756D01*
X119874000Y-81005500D01*
X119874001Y-81005500D01*
X126225991Y-81005500D01*
X126226000Y-81005500D01*
X126269684Y-81000803D01*
X126269683Y-81000803D01*
X126270540Y-81000711D01*
X126283796Y-81000000D01*
X126550000Y-81000000D01*
X126550000Y-80723121D01*
X126551262Y-80705473D01*
X126555500Y-80675998D01*
X126555500Y-80129500D01*
X126575185Y-80062461D01*
X126627989Y-80016706D01*
X126679500Y-80005500D01*
X126819003Y-80005500D01*
X126819003Y-80005499D01*
X126858203Y-80000859D01*
X126872779Y-80000000D01*
X127246650Y-80000000D01*
X127261225Y-80000859D01*
X127300424Y-80005499D01*
X127300425Y-80005500D01*
X127300428Y-80005500D01*
X134723840Y-80005500D01*
X134723840Y-80005499D01*
X134763040Y-80000859D01*
X134777616Y-80000000D01*
X135151526Y-80000000D01*
X135166101Y-80000859D01*
X135205301Y-80005499D01*
X135205302Y-80005500D01*
X135205305Y-80005500D01*
X135220500Y-80005500D01*
X135287539Y-80025185D01*
X135333294Y-80077989D01*
X135344500Y-80129500D01*
X135344500Y-80676007D01*
X135349289Y-80720539D01*
X135350000Y-80733795D01*
X135350000Y-81000000D01*
X135626878Y-81000000D01*
X135644525Y-81001262D01*
X135647965Y-81001756D01*
X135674000Y-81005500D01*
X135674001Y-81005500D01*
X142225991Y-81005500D01*
X142226000Y-81005500D01*
X142269684Y-81000803D01*
X142269683Y-81000803D01*
X142270540Y-81000711D01*
X142283796Y-81000000D01*
X142550000Y-81000000D01*
X142550000Y-80723121D01*
X142551262Y-80705473D01*
X142555500Y-80675998D01*
X142555500Y-80129500D01*
X142575185Y-80062461D01*
X142627989Y-80016706D01*
X142679500Y-80005500D01*
X142723860Y-80005500D01*
X142723860Y-80005499D01*
X142763060Y-80000859D01*
X142777636Y-80000000D01*
X143151507Y-80000000D01*
X143166082Y-80000859D01*
X143205281Y-80005499D01*
X143205282Y-80005500D01*
X143205285Y-80005500D01*
X150628697Y-80005500D01*
X150628697Y-80005499D01*
X150667897Y-80000859D01*
X150682473Y-80000000D01*
X151056383Y-80000000D01*
X151070958Y-80000859D01*
X151110158Y-80005499D01*
X151110159Y-80005500D01*
X151110162Y-80005500D01*
X151220500Y-80005500D01*
X151287539Y-80025185D01*
X151333294Y-80077989D01*
X151344500Y-80129500D01*
X151344500Y-80676007D01*
X151349289Y-80720539D01*
X151350000Y-80733795D01*
X151350000Y-81000000D01*
X151626878Y-81000000D01*
X151644525Y-81001262D01*
X151647965Y-81001756D01*
X151674000Y-81005500D01*
X151674001Y-81005500D01*
X158025991Y-81005500D01*
X158026000Y-81005500D01*
X158069684Y-81000803D01*
X158069683Y-81000803D01*
X158070540Y-81000711D01*
X158083796Y-81000000D01*
X158350000Y-81000000D01*
X158350000Y-80723121D01*
X158351262Y-80705473D01*
X158355500Y-80675998D01*
X158355500Y-80129500D01*
X158375185Y-80062461D01*
X158427989Y-80016706D01*
X158479500Y-80005500D01*
X158628717Y-80005500D01*
X158628717Y-80005499D01*
X158667917Y-80000859D01*
X158682493Y-80000000D01*
X159056364Y-80000000D01*
X159070939Y-80000859D01*
X159110138Y-80005499D01*
X159110139Y-80005500D01*
X159110142Y-80005500D01*
X166533554Y-80005500D01*
X166533554Y-80005499D01*
X166572754Y-80000859D01*
X166587330Y-80000000D01*
X166961240Y-80000000D01*
X166975815Y-80000859D01*
X167015015Y-80005499D01*
X167015016Y-80005500D01*
X167015019Y-80005500D01*
X167220500Y-80005500D01*
X167287539Y-80025185D01*
X167333294Y-80077989D01*
X167344500Y-80129500D01*
X167344500Y-80676007D01*
X167349289Y-80720539D01*
X167350000Y-80733795D01*
X167350000Y-81000000D01*
X167626878Y-81000000D01*
X167644525Y-81001262D01*
X167647965Y-81001756D01*
X167674000Y-81005500D01*
X167674001Y-81005500D01*
X174025991Y-81005500D01*
X174026000Y-81005500D01*
X174069684Y-81000803D01*
X174069683Y-81000803D01*
X174070540Y-81000711D01*
X174083796Y-81000000D01*
X174350000Y-81000000D01*
X174350000Y-80723121D01*
X174351262Y-80705473D01*
X174355500Y-80675998D01*
X174355500Y-80129500D01*
X174375185Y-80062461D01*
X174427989Y-80016706D01*
X174479500Y-80005500D01*
X174533574Y-80005500D01*
X174533574Y-80005499D01*
X174572774Y-80000859D01*
X174587350Y-80000000D01*
X174961221Y-80000000D01*
X174975796Y-80000859D01*
X175014995Y-80005499D01*
X175014996Y-80005500D01*
X175014999Y-80005500D01*
X182438411Y-80005500D01*
X182438411Y-80005499D01*
X182477611Y-80000859D01*
X182492187Y-80000000D01*
X182866097Y-80000000D01*
X182880672Y-80000859D01*
X182919872Y-80005499D01*
X182919873Y-80005500D01*
X182919876Y-80005500D01*
X183020500Y-80005500D01*
X183087539Y-80025185D01*
X183133294Y-80077989D01*
X183144500Y-80129500D01*
X183144500Y-80676007D01*
X183149289Y-80720539D01*
X183150000Y-80733795D01*
X183150000Y-81000000D01*
X183426878Y-81000000D01*
X183444525Y-81001262D01*
X183447965Y-81001756D01*
X183474000Y-81005500D01*
X183474001Y-81005500D01*
X190025991Y-81005500D01*
X190026000Y-81005500D01*
X190069684Y-81000803D01*
X190069683Y-81000803D01*
X190070540Y-81000711D01*
X190083796Y-81000000D01*
X190350000Y-81000000D01*
X190350000Y-80723121D01*
X190351262Y-80705473D01*
X190355500Y-80675998D01*
X190355500Y-80125504D01*
X190375185Y-80058465D01*
X190427989Y-80012710D01*
X190464925Y-80002364D01*
X190477632Y-80000860D01*
X190492207Y-80000000D01*
X190866078Y-80000000D01*
X190880653Y-80000859D01*
X190919852Y-80005499D01*
X190919853Y-80005500D01*
X190919856Y-80005500D01*
X198343269Y-80005500D01*
X198343269Y-80005499D01*
X198382469Y-80000859D01*
X198397045Y-80000000D01*
X198770955Y-80000000D01*
X198785530Y-80000859D01*
X198824730Y-80005499D01*
X198824731Y-80005500D01*
X198824734Y-80005500D01*
X199020500Y-80005500D01*
X199087539Y-80025185D01*
X199133294Y-80077989D01*
X199144500Y-80129500D01*
X199144500Y-80676007D01*
X199149289Y-80720539D01*
X199150000Y-80733795D01*
X199150000Y-81000000D01*
X199426878Y-81000000D01*
X199444525Y-81001262D01*
X199447965Y-81001756D01*
X199474000Y-81005500D01*
X199474001Y-81005500D01*
X205825991Y-81005500D01*
X205826000Y-81005500D01*
X205869684Y-81000803D01*
X205869683Y-81000803D01*
X205870540Y-81000711D01*
X205883796Y-81000000D01*
X206150000Y-81000000D01*
X206150000Y-80723121D01*
X206151262Y-80705473D01*
X206155500Y-80675998D01*
X206155500Y-80124000D01*
X206175185Y-80056961D01*
X206227989Y-80011206D01*
X206279500Y-80000000D01*
X207026000Y-80000000D01*
X207093039Y-80019685D01*
X207138794Y-80072489D01*
X207150000Y-80124000D01*
X207150000Y-81876000D01*
X207130315Y-81943039D01*
X207077511Y-81988794D01*
X207026000Y-82000000D01*
X86874000Y-82000000D01*
X86806961Y-81980315D01*
X86761206Y-81927511D01*
X86750000Y-81876000D01*
X86750000Y-80124500D01*
X86769685Y-80057461D01*
X86822489Y-80011706D01*
X86874000Y-80000500D01*
X87620500Y-80000500D01*
X87687539Y-80020185D01*
X87733294Y-80072989D01*
X87744500Y-80124500D01*
X87744500Y-80392692D01*
X87745366Y-80400008D01*
X87749141Y-80431906D01*
X87750000Y-80446479D01*
X87750000Y-81000000D01*
X88050549Y-81000000D01*
X88068196Y-81001262D01*
X88071636Y-81001756D01*
X88097671Y-81005500D01*
X88097672Y-81005500D01*
X94425991Y-81005500D01*
X94426000Y-81005500D01*
X94469684Y-81000803D01*
X94469683Y-81000803D01*
X94470540Y-81000711D01*
X94483796Y-81000000D01*
X94750000Y-81000000D01*
X94750000Y-80723121D01*
X94751262Y-80705473D01*
X94755500Y-80675998D01*
X94755500Y-80129500D01*
X94775185Y-80062461D01*
X94827989Y-80016706D01*
X94879500Y-80005500D01*
X96499179Y-80005500D01*
X96566218Y-80025185D01*
X96611973Y-80077989D01*
X96621917Y-80147147D01*
X96609664Y-80185795D01*
X96564360Y-80274706D01*
X96564360Y-80274707D01*
X96544516Y-80400004D01*
X96544516Y-80400011D01*
X96564360Y-80525308D01*
X96564360Y-80525309D01*
X96564362Y-80525312D01*
X96621958Y-80638350D01*
X96621960Y-80638352D01*
X96621962Y-80638355D01*
X96711660Y-80728053D01*
X96711662Y-80728054D01*
X96711666Y-80728058D01*
X96824704Y-80785654D01*
X96824705Y-80785654D01*
X96824707Y-80785655D01*
X96950005Y-80805500D01*
X96950008Y-80805500D01*
X96950011Y-80805500D01*
X97075308Y-80785655D01*
X97075309Y-80785655D01*
X97075310Y-80785654D01*
X97075312Y-80785654D01*
X97188350Y-80728058D01*
X97278058Y-80638350D01*
X97335654Y-80525312D01*
X97335654Y-80525310D01*
X97335655Y-80525309D01*
X97335655Y-80525308D01*
X97355500Y-80400011D01*
X97355500Y-80400004D01*
X97335655Y-80274707D01*
X97335655Y-80274706D01*
X97290352Y-80185795D01*
X97277456Y-80117126D01*
X97303732Y-80052385D01*
X97360839Y-80012128D01*
X97400837Y-80005500D01*
X98299167Y-80005500D01*
X98366206Y-80025185D01*
X98411961Y-80077989D01*
X98421905Y-80147147D01*
X98409652Y-80185795D01*
X98364352Y-80274698D01*
X98364352Y-80274699D01*
X98344508Y-80399996D01*
X98344508Y-80400003D01*
X98364352Y-80525300D01*
X98364352Y-80525301D01*
X98364358Y-80525312D01*
X98421950Y-80638342D01*
X98421952Y-80638344D01*
X98421954Y-80638347D01*
X98511652Y-80728045D01*
X98511654Y-80728046D01*
X98511658Y-80728050D01*
X98624696Y-80785646D01*
X98624697Y-80785646D01*
X98624699Y-80785647D01*
X98749997Y-80805492D01*
X98750000Y-80805492D01*
X98750003Y-80805492D01*
X98875300Y-80785647D01*
X98875301Y-80785647D01*
X98875302Y-80785646D01*
X98875304Y-80785646D01*
X98988342Y-80728050D01*
X99078050Y-80638342D01*
X99135646Y-80525304D01*
X99135646Y-80525302D01*
X99135647Y-80525301D01*
X99135647Y-80525300D01*
X99155492Y-80400003D01*
X99155492Y-80399996D01*
X99135647Y-80274699D01*
X99135647Y-80274698D01*
X99090348Y-80185795D01*
X99077452Y-80117126D01*
X99103728Y-80052385D01*
X99160834Y-80012128D01*
X99200833Y-80005500D01*
X103420500Y-80005500D01*
X103487539Y-80025185D01*
X103533294Y-80077989D01*
X103544500Y-80129500D01*
X103544500Y-80676007D01*
X103549289Y-80720539D01*
X103550000Y-80733795D01*
X103550000Y-81000000D01*
X103826878Y-81000000D01*
X103844525Y-81001262D01*
X103847965Y-81001756D01*
X103874000Y-81005500D01*
X103874001Y-81005500D01*
X110425991Y-81005500D01*
X110426000Y-81005500D01*
X110469684Y-81000803D01*
X110469683Y-81000803D01*
X110470540Y-81000711D01*
X110483796Y-81000000D01*
X110750000Y-81000000D01*
X110750000Y-80723121D01*
X110751262Y-80705473D01*
X110755500Y-80675998D01*
X110755500Y-80129500D01*
X110775185Y-80062461D01*
X110827989Y-80016706D01*
X110879500Y-80005500D01*
X118818983Y-80005500D01*
X118818983Y-80005499D01*
X118858183Y-80000859D01*
X118872759Y-80000000D01*
X119246669Y-80000000D01*
X119261244Y-80000859D01*
G37*
%TD.AperFunction*%
%TD*%
%TA.AperFunction,Conductor*%
%TO.N,GNDPWR*%
G36*
X206493039Y-82819685D02*
G01*
X206538794Y-82872489D01*
X206550000Y-82924000D01*
X206550000Y-89076000D01*
X206530315Y-89143039D01*
X206477511Y-89188794D01*
X206426000Y-89200000D01*
X182874000Y-89200000D01*
X182806961Y-89180315D01*
X182761206Y-89127511D01*
X182750000Y-89076000D01*
X182750000Y-82924000D01*
X182769685Y-82856961D01*
X182822489Y-82811206D01*
X182874000Y-82800000D01*
X206426000Y-82800000D01*
X206493039Y-82819685D01*
G37*
%TD.AperFunction*%
%TD*%
%TA.AperFunction,Conductor*%
%TO.N,Net-(U5-BP1V5)*%
G36*
X123765677Y-49419685D02*
G01*
X123786319Y-49436319D01*
X125348914Y-50998914D01*
X125382399Y-51060237D01*
X125377415Y-51129929D01*
X125335543Y-51185862D01*
X125270079Y-51210279D01*
X125241836Y-51209069D01*
X125210674Y-51204133D01*
X125150000Y-51194524D01*
X125149998Y-51194524D01*
X125149997Y-51194524D01*
X125024699Y-51214368D01*
X125024698Y-51214368D01*
X124949337Y-51252767D01*
X124911658Y-51271966D01*
X124911657Y-51271967D01*
X124911652Y-51271970D01*
X124821954Y-51361668D01*
X124821951Y-51361673D01*
X124764352Y-51474714D01*
X124764352Y-51474715D01*
X124744508Y-51600012D01*
X124744508Y-51600019D01*
X124764352Y-51725316D01*
X124764352Y-51725317D01*
X124764354Y-51725320D01*
X124821950Y-51838358D01*
X124821952Y-51838360D01*
X124821954Y-51838363D01*
X124911652Y-51928061D01*
X124911654Y-51928062D01*
X124911658Y-51928066D01*
X125024696Y-51985662D01*
X125024697Y-51985662D01*
X125024699Y-51985663D01*
X125149997Y-52005508D01*
X125150000Y-52005508D01*
X125150003Y-52005508D01*
X125275300Y-51985663D01*
X125275301Y-51985663D01*
X125275302Y-51985662D01*
X125275304Y-51985662D01*
X125388342Y-51928066D01*
X125478050Y-51838358D01*
X125535646Y-51725320D01*
X125535646Y-51725318D01*
X125535647Y-51725317D01*
X125535647Y-51725316D01*
X125555492Y-51600019D01*
X125555492Y-51600013D01*
X125540947Y-51508180D01*
X125549902Y-51438886D01*
X125594898Y-51385434D01*
X125661649Y-51364795D01*
X125728963Y-51383520D01*
X125751101Y-51401101D01*
X126513681Y-52163681D01*
X126547166Y-52225004D01*
X126550000Y-52251362D01*
X126550000Y-52876000D01*
X126530315Y-52943039D01*
X126477511Y-52988794D01*
X126426000Y-53000000D01*
X118274000Y-53000000D01*
X118206961Y-52980315D01*
X118161206Y-52927511D01*
X118150000Y-52876000D01*
X118150000Y-51800003D01*
X118944508Y-51800003D01*
X118964352Y-51925300D01*
X118964352Y-51925301D01*
X118965760Y-51928064D01*
X119021950Y-52038342D01*
X119021952Y-52038344D01*
X119021954Y-52038347D01*
X119111652Y-52128045D01*
X119111654Y-52128046D01*
X119111658Y-52128050D01*
X119224696Y-52185646D01*
X119224697Y-52185646D01*
X119224699Y-52185647D01*
X119349997Y-52205492D01*
X119350000Y-52205492D01*
X119350003Y-52205492D01*
X119475300Y-52185647D01*
X119475301Y-52185647D01*
X119475302Y-52185646D01*
X119475304Y-52185646D01*
X119588342Y-52128050D01*
X119678050Y-52038342D01*
X119735646Y-51925304D01*
X119735646Y-51925302D01*
X119735647Y-51925301D01*
X119735647Y-51925300D01*
X119755492Y-51800003D01*
X119755492Y-51799996D01*
X119735647Y-51674699D01*
X119735647Y-51674698D01*
X119735646Y-51674696D01*
X119697588Y-51600003D01*
X121144508Y-51600003D01*
X121164352Y-51725300D01*
X121164352Y-51725301D01*
X121164362Y-51725320D01*
X121221950Y-51838342D01*
X121221952Y-51838344D01*
X121221954Y-51838347D01*
X121311652Y-51928045D01*
X121311654Y-51928046D01*
X121311658Y-51928050D01*
X121424696Y-51985646D01*
X121424697Y-51985646D01*
X121424699Y-51985647D01*
X121549997Y-52005492D01*
X121550000Y-52005492D01*
X121550003Y-52005492D01*
X121675300Y-51985647D01*
X121675301Y-51985647D01*
X121675302Y-51985646D01*
X121675304Y-51985646D01*
X121788342Y-51928050D01*
X121878050Y-51838342D01*
X121935646Y-51725304D01*
X121935646Y-51725302D01*
X121935647Y-51725301D01*
X121935647Y-51725300D01*
X121955492Y-51600003D01*
X121955492Y-51599996D01*
X121935647Y-51474699D01*
X121935647Y-51474698D01*
X121934247Y-51471950D01*
X121878050Y-51361658D01*
X121878046Y-51361654D01*
X121878045Y-51361652D01*
X121788347Y-51271954D01*
X121788344Y-51271952D01*
X121788342Y-51271950D01*
X121675304Y-51214354D01*
X121675303Y-51214353D01*
X121675300Y-51214352D01*
X121550003Y-51194508D01*
X121549997Y-51194508D01*
X121424699Y-51214352D01*
X121424698Y-51214352D01*
X121349337Y-51252751D01*
X121311658Y-51271950D01*
X121311657Y-51271951D01*
X121311652Y-51271954D01*
X121221954Y-51361652D01*
X121221951Y-51361657D01*
X121221950Y-51361658D01*
X121205212Y-51394508D01*
X121164352Y-51474698D01*
X121164352Y-51474699D01*
X121144508Y-51599996D01*
X121144508Y-51600003D01*
X119697588Y-51600003D01*
X119678050Y-51561658D01*
X119678046Y-51561654D01*
X119678045Y-51561652D01*
X119588347Y-51471954D01*
X119588344Y-51471952D01*
X119588342Y-51471950D01*
X119475304Y-51414354D01*
X119475303Y-51414353D01*
X119475300Y-51414352D01*
X119350003Y-51394508D01*
X119349997Y-51394508D01*
X119224699Y-51414352D01*
X119224698Y-51414352D01*
X119176549Y-51438886D01*
X119111658Y-51471950D01*
X119111657Y-51471951D01*
X119111652Y-51471954D01*
X119021954Y-51561652D01*
X119021951Y-51561657D01*
X118964352Y-51674698D01*
X118964352Y-51674699D01*
X118944508Y-51799996D01*
X118944508Y-51800003D01*
X118150000Y-51800003D01*
X118150000Y-49524000D01*
X118169685Y-49456961D01*
X118222489Y-49411206D01*
X118274000Y-49400000D01*
X123698638Y-49400000D01*
X123765677Y-49419685D01*
G37*
%TD.AperFunction*%
%TD*%
%TA.AperFunction,Conductor*%
%TO.N,+1.8V*%
G36*
X94711053Y-79019685D02*
G01*
X94754498Y-79067704D01*
X94767354Y-79092935D01*
X94767359Y-79092942D01*
X94857057Y-79182640D01*
X94857059Y-79182641D01*
X94857063Y-79182645D01*
X94970101Y-79240241D01*
X94970102Y-79240241D01*
X94970104Y-79240242D01*
X95095402Y-79260087D01*
X95095405Y-79260087D01*
X95095408Y-79260087D01*
X95220705Y-79240242D01*
X95220706Y-79240242D01*
X95220707Y-79240241D01*
X95220709Y-79240241D01*
X95333747Y-79182645D01*
X95423455Y-79092937D01*
X95436312Y-79067704D01*
X95484286Y-79016909D01*
X95546796Y-79000000D01*
X102677388Y-79000000D01*
X102744427Y-79019685D01*
X102765070Y-79036319D01*
X102767090Y-79038340D01*
X102767092Y-79038342D01*
X102856800Y-79128050D01*
X102969838Y-79185646D01*
X102969839Y-79185646D01*
X102969841Y-79185647D01*
X103095139Y-79205492D01*
X103095142Y-79205492D01*
X103095145Y-79205492D01*
X103220442Y-79185647D01*
X103220443Y-79185647D01*
X103220444Y-79185646D01*
X103220446Y-79185646D01*
X103333484Y-79128050D01*
X103423192Y-79038342D01*
X103423193Y-79038339D01*
X103425214Y-79036319D01*
X103486537Y-79002834D01*
X103512896Y-79000000D01*
X110768265Y-79000000D01*
X110835304Y-79019685D01*
X110878749Y-79067704D01*
X110912496Y-79133935D01*
X110912501Y-79133942D01*
X111002199Y-79223640D01*
X111002201Y-79223641D01*
X111002205Y-79223645D01*
X111115243Y-79281241D01*
X111115244Y-79281241D01*
X111115246Y-79281242D01*
X111240544Y-79301087D01*
X111240547Y-79301087D01*
X111240550Y-79301087D01*
X111365847Y-79281242D01*
X111365848Y-79281242D01*
X111365849Y-79281241D01*
X111365851Y-79281241D01*
X111478889Y-79223645D01*
X111568597Y-79133937D01*
X111595447Y-79081241D01*
X111602345Y-79067704D01*
X111650319Y-79016909D01*
X111712829Y-79000000D01*
X118850710Y-79000000D01*
X118870106Y-79001526D01*
X118878360Y-79002834D01*
X118895141Y-79005492D01*
X118895142Y-79005492D01*
X118895143Y-79005492D01*
X118911924Y-79002834D01*
X118920177Y-79001526D01*
X118939574Y-79000000D01*
X126729370Y-79000000D01*
X126796409Y-79019685D01*
X126802190Y-79023636D01*
X126802202Y-79023642D01*
X126802205Y-79023645D01*
X126915243Y-79081241D01*
X126915244Y-79081241D01*
X126915246Y-79081242D01*
X127040544Y-79101087D01*
X127040547Y-79101087D01*
X127040550Y-79101087D01*
X127165847Y-79081242D01*
X127165848Y-79081242D01*
X127165849Y-79081241D01*
X127165851Y-79081241D01*
X127278889Y-79023645D01*
X127278890Y-79023643D01*
X127287584Y-79019214D01*
X127288164Y-79020352D01*
X127344652Y-79000202D01*
X127351724Y-79000000D01*
X134650710Y-79000000D01*
X134670106Y-79001526D01*
X134678360Y-79002834D01*
X134695141Y-79005492D01*
X134695142Y-79005492D01*
X134695143Y-79005492D01*
X134711924Y-79002834D01*
X134720177Y-79001526D01*
X134739574Y-79000000D01*
X142529370Y-79000000D01*
X142596409Y-79019685D01*
X142602190Y-79023636D01*
X142602202Y-79023642D01*
X142602205Y-79023645D01*
X142715243Y-79081241D01*
X142715244Y-79081241D01*
X142715246Y-79081242D01*
X142840544Y-79101087D01*
X142840547Y-79101087D01*
X142840550Y-79101087D01*
X142965847Y-79081242D01*
X142965848Y-79081242D01*
X142965849Y-79081241D01*
X142965851Y-79081241D01*
X143078889Y-79023645D01*
X143078890Y-79023643D01*
X143087584Y-79019214D01*
X143088164Y-79020352D01*
X143144652Y-79000202D01*
X143151724Y-79000000D01*
X150650710Y-79000000D01*
X150670106Y-79001526D01*
X150678360Y-79002834D01*
X150695141Y-79005492D01*
X150695142Y-79005492D01*
X150695143Y-79005492D01*
X150711924Y-79002834D01*
X150720177Y-79001526D01*
X150739574Y-79000000D01*
X158529370Y-79000000D01*
X158596409Y-79019685D01*
X158602190Y-79023636D01*
X158602202Y-79023642D01*
X158602205Y-79023645D01*
X158715243Y-79081241D01*
X158715244Y-79081241D01*
X158715246Y-79081242D01*
X158840544Y-79101087D01*
X158840547Y-79101087D01*
X158840550Y-79101087D01*
X158965847Y-79081242D01*
X158965848Y-79081242D01*
X158965849Y-79081241D01*
X158965851Y-79081241D01*
X159078889Y-79023645D01*
X159078890Y-79023643D01*
X159087584Y-79019214D01*
X159088164Y-79020352D01*
X159144652Y-79000202D01*
X159151724Y-79000000D01*
X166450710Y-79000000D01*
X166470106Y-79001526D01*
X166478360Y-79002834D01*
X166495141Y-79005492D01*
X166495142Y-79005492D01*
X166495143Y-79005492D01*
X166511924Y-79002834D01*
X166520177Y-79001526D01*
X166539574Y-79000000D01*
X174329370Y-79000000D01*
X174396409Y-79019685D01*
X174402190Y-79023636D01*
X174402202Y-79023642D01*
X174402205Y-79023645D01*
X174515243Y-79081241D01*
X174515244Y-79081241D01*
X174515246Y-79081242D01*
X174640544Y-79101087D01*
X174640547Y-79101087D01*
X174640550Y-79101087D01*
X174765847Y-79081242D01*
X174765848Y-79081242D01*
X174765849Y-79081241D01*
X174765851Y-79081241D01*
X174878889Y-79023645D01*
X174878890Y-79023643D01*
X174887584Y-79019214D01*
X174888164Y-79020352D01*
X174944652Y-79000202D01*
X174951724Y-79000000D01*
X182450710Y-79000000D01*
X182470106Y-79001526D01*
X182478360Y-79002834D01*
X182495141Y-79005492D01*
X182495142Y-79005492D01*
X182495143Y-79005492D01*
X182511924Y-79002834D01*
X182520177Y-79001526D01*
X182539574Y-79000000D01*
X190329370Y-79000000D01*
X190396409Y-79019685D01*
X190402190Y-79023636D01*
X190402202Y-79023642D01*
X190402205Y-79023645D01*
X190515243Y-79081241D01*
X190515244Y-79081241D01*
X190515246Y-79081242D01*
X190640544Y-79101087D01*
X190640547Y-79101087D01*
X190640550Y-79101087D01*
X190765847Y-79081242D01*
X190765848Y-79081242D01*
X190765849Y-79081241D01*
X190765851Y-79081241D01*
X190878889Y-79023645D01*
X190878890Y-79023643D01*
X190887584Y-79019214D01*
X190888164Y-79020352D01*
X190944652Y-79000202D01*
X190951724Y-79000000D01*
X198250710Y-79000000D01*
X198270106Y-79001526D01*
X198278360Y-79002834D01*
X198295141Y-79005492D01*
X198295142Y-79005492D01*
X198295143Y-79005492D01*
X198311924Y-79002834D01*
X198320177Y-79001526D01*
X198339574Y-79000000D01*
X205826000Y-79000000D01*
X205893039Y-79019685D01*
X205938794Y-79072489D01*
X205950000Y-79124000D01*
X205950000Y-80676000D01*
X205930315Y-80743039D01*
X205877511Y-80788794D01*
X205826000Y-80800000D01*
X205150000Y-80800000D01*
X200150000Y-80800000D01*
X199474000Y-80800000D01*
X199406961Y-80780315D01*
X199361206Y-80727511D01*
X199350000Y-80676000D01*
X199350000Y-79800000D01*
X198824734Y-79800000D01*
X198768440Y-79786485D01*
X198709300Y-79756352D01*
X198709301Y-79756352D01*
X198584003Y-79736508D01*
X198583997Y-79736508D01*
X198458698Y-79756352D01*
X198399560Y-79786485D01*
X198343266Y-79800000D01*
X190919856Y-79800000D01*
X190863561Y-79786485D01*
X190804446Y-79756364D01*
X190804445Y-79756363D01*
X190804442Y-79756362D01*
X190679145Y-79736518D01*
X190679139Y-79736518D01*
X190553841Y-79756362D01*
X190553840Y-79756362D01*
X190507330Y-79780060D01*
X190494722Y-79786485D01*
X190438428Y-79800000D01*
X190150000Y-79800000D01*
X190150000Y-80676000D01*
X190130315Y-80743039D01*
X190077511Y-80788794D01*
X190026000Y-80800000D01*
X189150000Y-80800000D01*
X184150000Y-80800000D01*
X183474000Y-80800000D01*
X183406961Y-80780315D01*
X183361206Y-80727511D01*
X183350000Y-80676000D01*
X183350000Y-79800000D01*
X182919876Y-79800000D01*
X182863582Y-79786485D01*
X182804442Y-79756352D01*
X182804443Y-79756352D01*
X182679145Y-79736508D01*
X182679139Y-79736508D01*
X182553840Y-79756352D01*
X182494702Y-79786485D01*
X182438408Y-79800000D01*
X175014999Y-79800000D01*
X174958704Y-79786485D01*
X174899589Y-79756364D01*
X174899588Y-79756363D01*
X174899585Y-79756362D01*
X174774288Y-79736518D01*
X174774282Y-79736518D01*
X174648984Y-79756362D01*
X174648983Y-79756362D01*
X174602473Y-79780060D01*
X174589865Y-79786485D01*
X174533571Y-79800000D01*
X174150000Y-79800000D01*
X174150000Y-80676000D01*
X174130315Y-80743039D01*
X174077511Y-80788794D01*
X174026000Y-80800000D01*
X173350000Y-80800000D01*
X168350000Y-80800000D01*
X167674000Y-80800000D01*
X167606961Y-80780315D01*
X167561206Y-80727511D01*
X167550000Y-80676000D01*
X167550000Y-79800000D01*
X167015019Y-79800000D01*
X166958725Y-79786485D01*
X166899585Y-79756352D01*
X166899586Y-79756352D01*
X166774288Y-79736508D01*
X166774282Y-79736508D01*
X166648983Y-79756352D01*
X166589845Y-79786485D01*
X166533551Y-79800000D01*
X159110142Y-79800000D01*
X159053847Y-79786485D01*
X158994732Y-79756364D01*
X158994731Y-79756363D01*
X158994728Y-79756362D01*
X158869431Y-79736518D01*
X158869425Y-79736518D01*
X158744127Y-79756362D01*
X158744126Y-79756362D01*
X158697616Y-79780060D01*
X158685008Y-79786485D01*
X158628714Y-79800000D01*
X158150000Y-79800000D01*
X158150000Y-80676000D01*
X158130315Y-80743039D01*
X158077511Y-80788794D01*
X158026000Y-80800000D01*
X157350000Y-80800000D01*
X152350000Y-80800000D01*
X151674000Y-80800000D01*
X151606961Y-80780315D01*
X151561206Y-80727511D01*
X151550000Y-80676000D01*
X151550000Y-79800000D01*
X151110162Y-79800000D01*
X151053868Y-79786485D01*
X150994728Y-79756352D01*
X150994729Y-79756352D01*
X150869431Y-79736508D01*
X150869425Y-79736508D01*
X150744126Y-79756352D01*
X150684988Y-79786485D01*
X150628694Y-79800000D01*
X143205285Y-79800000D01*
X143148990Y-79786485D01*
X143089875Y-79756364D01*
X143089874Y-79756363D01*
X143089871Y-79756362D01*
X142964574Y-79736518D01*
X142964568Y-79736518D01*
X142839270Y-79756362D01*
X142839269Y-79756362D01*
X142792759Y-79780060D01*
X142780151Y-79786485D01*
X142723857Y-79800000D01*
X142350000Y-79800000D01*
X142350000Y-80676000D01*
X142330315Y-80743039D01*
X142277511Y-80788794D01*
X142226000Y-80800000D01*
X135674000Y-80800000D01*
X135606961Y-80780315D01*
X135561206Y-80727511D01*
X135550000Y-80676000D01*
X135550000Y-79800000D01*
X135205305Y-79800000D01*
X135149011Y-79786485D01*
X135089871Y-79756352D01*
X135089872Y-79756352D01*
X134964574Y-79736508D01*
X134964568Y-79736508D01*
X134839269Y-79756352D01*
X134780131Y-79786485D01*
X134723837Y-79800000D01*
X127300428Y-79800000D01*
X127244133Y-79786485D01*
X127185018Y-79756364D01*
X127185017Y-79756363D01*
X127185014Y-79756362D01*
X127059717Y-79736518D01*
X127059711Y-79736518D01*
X126934413Y-79756362D01*
X126934412Y-79756362D01*
X126887902Y-79780060D01*
X126875294Y-79786485D01*
X126819000Y-79800000D01*
X126350000Y-79800000D01*
X126350000Y-80676000D01*
X126330315Y-80743039D01*
X126277511Y-80788794D01*
X126226000Y-80800000D01*
X119874000Y-80800000D01*
X119806961Y-80780315D01*
X119761206Y-80727511D01*
X119750000Y-80676000D01*
X119750000Y-79800000D01*
X119300448Y-79800000D01*
X119244154Y-79786485D01*
X119185014Y-79756352D01*
X119185015Y-79756352D01*
X119059717Y-79736508D01*
X119059711Y-79736508D01*
X118934412Y-79756352D01*
X118875274Y-79786485D01*
X118818980Y-79800000D01*
X110550000Y-79800000D01*
X110550000Y-80676000D01*
X110530315Y-80743039D01*
X110477511Y-80788794D01*
X110426000Y-80800000D01*
X103874000Y-80800000D01*
X103806961Y-80780315D01*
X103761206Y-80727511D01*
X103750000Y-80676000D01*
X103750000Y-79800000D01*
X94550000Y-79800000D01*
X94550000Y-80676000D01*
X94530315Y-80743039D01*
X94477511Y-80788794D01*
X94426000Y-80800000D01*
X88097671Y-80800000D01*
X88030632Y-80780315D01*
X87984877Y-80727511D01*
X87974933Y-80658353D01*
X87975198Y-80656602D01*
X87987079Y-80581589D01*
X87987079Y-80581584D01*
X87967234Y-80456286D01*
X87967233Y-80456285D01*
X87967233Y-80456283D01*
X87963513Y-80448983D01*
X87950000Y-80392692D01*
X87950000Y-79124000D01*
X87969685Y-79056961D01*
X88022489Y-79011206D01*
X88074000Y-79000000D01*
X94644014Y-79000000D01*
X94711053Y-79019685D01*
G37*
%TD.AperFunction*%
%TD*%
%TA.AperFunction,Conductor*%
%TO.N,GNDPWR*%
G36*
X176093039Y-82819685D02*
G01*
X176138794Y-82872489D01*
X176150000Y-82924000D01*
X176150000Y-89076000D01*
X176130315Y-89143039D01*
X176077511Y-89188794D01*
X176026000Y-89200000D01*
X118674000Y-89200000D01*
X118606961Y-89180315D01*
X118561206Y-89127511D01*
X118550000Y-89076000D01*
X118550000Y-82924000D01*
X118569685Y-82856961D01*
X118622489Y-82811206D01*
X118674000Y-82800000D01*
X176026000Y-82800000D01*
X176093039Y-82819685D01*
G37*
%TD.AperFunction*%
%TD*%
%TA.AperFunction,Conductor*%
%TO.N,+1.8V*%
G36*
X210272509Y-78619016D02*
G01*
X210277393Y-78624589D01*
X210349100Y-78795473D01*
X210349141Y-78804428D01*
X210349100Y-78804527D01*
X210277393Y-78975410D01*
X210271032Y-78981713D01*
X210263638Y-78982201D01*
X209958734Y-78902289D01*
X209951600Y-78896876D01*
X209950000Y-78890971D01*
X209950000Y-78709028D01*
X209953427Y-78700755D01*
X209958731Y-78697711D01*
X210263640Y-78617798D01*
X210272509Y-78619016D01*
G37*
%TD.AperFunction*%
%TD*%
%TA.AperFunction,Conductor*%
%TO.N,Net-(U5-GOSNS)*%
G36*
X130741267Y-52697711D02*
G01*
X130748400Y-52703123D01*
X130750000Y-52709028D01*
X130750000Y-52890971D01*
X130746573Y-52899244D01*
X130741266Y-52902289D01*
X130436361Y-52982201D01*
X130427490Y-52980983D01*
X130422607Y-52975411D01*
X130350898Y-52804525D01*
X130350858Y-52795572D01*
X130422608Y-52624586D01*
X130428967Y-52618286D01*
X130436358Y-52617798D01*
X130741267Y-52697711D01*
G37*
%TD.AperFunction*%
%TD*%
%TA.AperFunction,Conductor*%
%TO.N,Net-(U5-GOSNS)*%
G36*
X140472510Y-56819016D02*
G01*
X140477393Y-56824589D01*
X140549100Y-56995473D01*
X140549141Y-57004428D01*
X140549100Y-57004527D01*
X140477393Y-57175409D01*
X140471031Y-57181712D01*
X140463638Y-57182200D01*
X140158735Y-57102283D01*
X140151601Y-57096870D01*
X140150001Y-57090965D01*
X140150001Y-56909023D01*
X140153428Y-56900750D01*
X140158735Y-56897705D01*
X140463640Y-56817798D01*
X140472510Y-56819016D01*
G37*
%TD.AperFunction*%
%TD*%
%TA.AperFunction,Conductor*%
%TO.N,Net-(U5-VOSNS)*%
G36*
X140472509Y-57819016D02*
G01*
X140477393Y-57824589D01*
X140549100Y-57995473D01*
X140549141Y-58004428D01*
X140549100Y-58004527D01*
X140477393Y-58175410D01*
X140471032Y-58181713D01*
X140463638Y-58182201D01*
X140158734Y-58102289D01*
X140151600Y-58096876D01*
X140150000Y-58090971D01*
X140150000Y-57909028D01*
X140153427Y-57900755D01*
X140158731Y-57897711D01*
X140463640Y-57817798D01*
X140472509Y-57819016D01*
G37*
%TD.AperFunction*%
%TD*%
%TA.AperFunction,Conductor*%
%TO.N,Net-(U5-VOSNS)*%
G36*
X130741267Y-53897711D02*
G01*
X130748400Y-53903123D01*
X130750000Y-53909028D01*
X130750000Y-54090971D01*
X130746573Y-54099244D01*
X130741266Y-54102289D01*
X130436361Y-54182201D01*
X130427490Y-54180983D01*
X130422607Y-54175411D01*
X130350898Y-54004525D01*
X130350858Y-53995572D01*
X130422608Y-53824586D01*
X130428967Y-53818286D01*
X130436358Y-53817798D01*
X130741267Y-53897711D01*
G37*
%TD.AperFunction*%
%TD*%
%TA.AperFunction,Conductor*%
%TO.N,/DB_SCL*%
G36*
X94449244Y-54003427D02*
G01*
X94452289Y-54008734D01*
X94532201Y-54313638D01*
X94530983Y-54322509D01*
X94525410Y-54327393D01*
X94354527Y-54399100D01*
X94345572Y-54399141D01*
X94345473Y-54399100D01*
X94174589Y-54327393D01*
X94168286Y-54321032D01*
X94167798Y-54313641D01*
X94247711Y-54008734D01*
X94253124Y-54001600D01*
X94259029Y-54000000D01*
X94440971Y-54000000D01*
X94449244Y-54003427D01*
G37*
%TD.AperFunction*%
%TD*%
%TA.AperFunction,Conductor*%
%TO.N,/DB_SCL*%
G36*
X133472509Y-57619032D02*
G01*
X133477393Y-57624605D01*
X133549100Y-57795489D01*
X133549141Y-57804444D01*
X133549100Y-57804543D01*
X133477393Y-57975426D01*
X133471032Y-57981729D01*
X133463638Y-57982217D01*
X133158734Y-57902305D01*
X133151600Y-57896892D01*
X133150000Y-57890987D01*
X133150000Y-57709044D01*
X133153427Y-57700771D01*
X133158731Y-57697727D01*
X133463640Y-57617814D01*
X133472509Y-57619032D01*
G37*
%TD.AperFunction*%
%TD*%
%TA.AperFunction,Conductor*%
%TO.N,/DB_SDA*%
G36*
X132272509Y-57019016D02*
G01*
X132277393Y-57024589D01*
X132349100Y-57195473D01*
X132349141Y-57204428D01*
X132349100Y-57204527D01*
X132277393Y-57375410D01*
X132271032Y-57381713D01*
X132263638Y-57382201D01*
X131958734Y-57302289D01*
X131951600Y-57296876D01*
X131950000Y-57290971D01*
X131950000Y-57109028D01*
X131953427Y-57100755D01*
X131958731Y-57097711D01*
X132263640Y-57017798D01*
X132272509Y-57019016D01*
G37*
%TD.AperFunction*%
%TD*%
%TA.AperFunction,Conductor*%
%TO.N,/DB_SDA*%
G36*
X93442658Y-54086254D02*
G01*
X93446085Y-54094527D01*
X93445614Y-54097813D01*
X93338431Y-54464071D01*
X93332819Y-54471049D01*
X93323916Y-54472014D01*
X93322775Y-54471615D01*
X93152211Y-54401888D01*
X93148336Y-54399302D01*
X93018199Y-54268245D01*
X93014801Y-54259960D01*
X93018257Y-54251699D01*
X93019615Y-54250542D01*
X93246922Y-54085068D01*
X93253808Y-54082827D01*
X93434385Y-54082827D01*
X93442658Y-54086254D01*
G37*
%TD.AperFunction*%
%TD*%
%TA.AperFunction,Conductor*%
%TO.N,/ID0*%
G36*
X91374623Y-58277297D02*
G01*
X91506671Y-58331282D01*
X91546162Y-58347427D01*
X91552523Y-58353730D01*
X91552564Y-58353829D01*
X91622693Y-58525366D01*
X91622652Y-58534321D01*
X91617768Y-58539894D01*
X91345663Y-58698988D01*
X91336792Y-58700206D01*
X91331485Y-58697161D01*
X91202830Y-58568506D01*
X91199403Y-58560233D01*
X91201001Y-58554332D01*
X91360098Y-58282222D01*
X91367231Y-58276810D01*
X91374623Y-58277297D01*
G37*
%TD.AperFunction*%
%TD*%
%TA.AperFunction,Conductor*%
%TO.N,/ID1*%
G36*
X90672509Y-58169016D02*
G01*
X90677393Y-58174589D01*
X90749100Y-58345473D01*
X90749141Y-58354428D01*
X90749100Y-58354527D01*
X90677393Y-58525410D01*
X90671032Y-58531713D01*
X90663638Y-58532201D01*
X90358734Y-58452289D01*
X90351600Y-58446876D01*
X90350000Y-58440971D01*
X90350000Y-58259028D01*
X90353427Y-58250755D01*
X90358731Y-58247711D01*
X90663640Y-58167798D01*
X90672509Y-58169016D01*
G37*
%TD.AperFunction*%
%TD*%
%TA.AperFunction,Conductor*%
%TO.N,/ASICs_BM1366/CI*%
G36*
X86745659Y-77251002D02*
G01*
X86993081Y-77395663D01*
X87017768Y-77410097D01*
X87023181Y-77417231D01*
X87022693Y-77424625D01*
X86952564Y-77596162D01*
X86946261Y-77602523D01*
X86946162Y-77602564D01*
X86774625Y-77672693D01*
X86765670Y-77672652D01*
X86760097Y-77667768D01*
X86720888Y-77600707D01*
X86601002Y-77395660D01*
X86599785Y-77386792D01*
X86602828Y-77381487D01*
X86731486Y-77252829D01*
X86739758Y-77249403D01*
X86745659Y-77251002D01*
G37*
%TD.AperFunction*%
%TD*%
%TA.AperFunction,Conductor*%
%TO.N,/DB_PGOOD*%
G36*
X131477989Y-56376013D02*
G01*
X131478029Y-56376107D01*
X131550077Y-56547800D01*
X131550988Y-56552386D01*
X131550066Y-56736771D01*
X131546598Y-56745026D01*
X131538307Y-56748412D01*
X131536878Y-56748317D01*
X131170158Y-56701309D01*
X131162388Y-56696858D01*
X131159946Y-56689704D01*
X131159946Y-56507705D01*
X131163373Y-56499432D01*
X131167021Y-56496958D01*
X131462620Y-56369884D01*
X131471573Y-56369766D01*
X131477989Y-56376013D01*
G37*
%TD.AperFunction*%
%TD*%
%TA.AperFunction,Conductor*%
%TO.N,/DB_ALERT_oc*%
G36*
X134072511Y-55819016D02*
G01*
X134077395Y-55824589D01*
X134149102Y-55995473D01*
X134149143Y-56004428D01*
X134149102Y-56004527D01*
X134077395Y-56175410D01*
X134071034Y-56181713D01*
X134063640Y-56182201D01*
X133758736Y-56102289D01*
X133751602Y-56096876D01*
X133750002Y-56090971D01*
X133750002Y-55909028D01*
X133753429Y-55900755D01*
X133758733Y-55897711D01*
X134063642Y-55817798D01*
X134072511Y-55819016D01*
G37*
%TD.AperFunction*%
%TD*%
D24*
X74750000Y-73850000D02*
X74750000Y-125000000D01*
X74750000Y-125000000D02*
X214750000Y-125000000D01*
X74750000Y-27550000D02*
X74750000Y-25250000D01*
X74750000Y-47850000D02*
X74750000Y-53550000D01*
X74750000Y-25250000D02*
X214750000Y-25250000D01*
X214750000Y-125000000D02*
X214750000Y-25250000D01*
%TO.C,J2*%
X66350000Y-54050000D02*
X66350000Y-64250000D01*
X66350000Y-67150000D02*
X66350000Y-73350000D01*
X66850000Y-53550000D02*
X66350000Y-54050000D01*
X66850000Y-64750000D02*
X66350000Y-64250000D01*
X66850000Y-66650000D02*
X66350000Y-67150000D01*
X66850000Y-73850000D02*
X66350000Y-73350000D01*
X73800000Y-64750000D02*
X66850000Y-64750000D01*
X73800000Y-66650000D02*
X66850000Y-66650000D01*
X74750000Y-53550000D02*
X66850000Y-53550000D01*
X74750000Y-73850000D02*
X66850000Y-73850000D01*
X73800000Y-64750000D02*
G75*
G02*
X73800000Y-66650000I0J-950000D01*
G01*
%TO.C,J5*%
X66350000Y-28050000D02*
X66350000Y-38250000D01*
X66350000Y-41150000D02*
X66350000Y-47350000D01*
X66850000Y-27550000D02*
X66350000Y-28050000D01*
X66850000Y-38750000D02*
X66350000Y-38250000D01*
X66850000Y-40650000D02*
X66350000Y-41150000D01*
X66850000Y-47850000D02*
X66350000Y-47350000D01*
X73800000Y-38750000D02*
X66850000Y-38750000D01*
X73800000Y-40650000D02*
X66850000Y-40650000D01*
X74750000Y-27550000D02*
X66850000Y-27550000D01*
X74750000Y-47850000D02*
X66850000Y-47850000D01*
X73800000Y-38750000D02*
G75*
G02*
X73800000Y-40650000I0J-950000D01*
G01*
%TD*%
M02*
